<?xml version="1.0" encoding="utf-8"?>
<!-- Generator: Adobe Illustrator 18.0.0, SVG Export Plug-In . SVG Version: 6.00 Build 0)  -->
<!DOCTYPE svg PUBLIC "-//W3C//DTD SVG 1.1//EN" "http://www.w3.org/Graphics/SVG/1.1/DTD/svg11.dtd">
<svg version="1.1" id="Layer_1" xmlns="http://www.w3.org/2000/svg" xmlns:xlink="http://www.w3.org/1999/xlink" x="0px" y="0px"
	 viewBox="0 0 340 100" enable-background="new 0 0 340 100" xml:space="preserve">
<g>
	<g>
		<path fill="#5596C0" d="M120.8,36.9L101.3,29l-7.9,7.9V71h14c4,0,7.3-1.4,9.4-3.9l6.5-6.5L120.8,36.9z"/>
		<polygon fill="#5596C0" points="137.9,29 130,36.9 130,71 153.1,71 161.1,63.1 143.5,57.7 		"/>
		<path fill="#5596C0" d="M199.1,45l-7.4-11.5h-17.4l-7.3,7.4c-0.2,0.2-0.4,0.4-0.6,0.6c-0.3,0.3-0.6,0.6-0.8,0.9l-0.1,0.1l0,0
			c-2.8,3.1-4.3,7.2-4.3,11.6c0,4.8,1.8,9.3,5.2,12.5c3.3,3.2,7.7,5,12.5,5c4,0,7.8-1.3,10.9-3.6l0,0l0,0c0.6-0.4,1.1-0.9,1.6-1.4
			c0.5-0.5,1-1,1.4-1.5l6.5-6.4L199.1,45z"/>
		<path fill="#5596C0" d="M243.8,50.7l-9.8-5.5l3.3-3.3l2.1-2.2l1.7-5.3l-21.5-0.9l-7.9,7.9c-3.1,3.2-4.9,7.6-4.9,12.5
			c0,10.3,7.6,17.5,18.5,17.5c6.4,0,11.2-2.5,13-4l0.3-0.3l7.9-7.9L243.8,50.7z"/>
	</g>
	<g>
		<path fill="#FFFFFF" d="M127.1,52.2c0-3.9-1.8-6.7-5-8.2c2-1.3,3-3.3,3-5.8c0-5.5-4.3-9.3-10.3-9.3h-13.4v34.2h14
			C122.3,63.1,127.1,58.7,127.1,52.2z M114,40.9h-4.2v-4.2h4.5c1.5,0,2.3,0.8,2.3,2.1C116.7,40.1,115.7,40.9,114,40.9z M118.5,51.9
			c0,2.2-1.3,3.5-3.5,3.5h-5.2v-7h4.8C117.1,48.4,118.5,49.7,118.5,51.9z"/>
		<polygon fill="#FFFFFF" points="161.1,55.4 146.4,55.4 146.4,29 137.9,29 137.9,63.1 161.1,63.1 		"/>
		<path fill="#FFFFFF" d="M186.8,63.6c4.8,0,9.2-1.8,12.5-5c3.3-3.2,5.2-7.7,5.2-12.5s-1.8-9.3-5.2-12.5c-3.3-3.2-7.7-5-12.5-5
			s-9.2,1.8-12.5,5c-3.3,3.2-5.2,7.7-5.2,12.5s1.8,9.3,5.2,12.5C177.6,61.8,182.1,63.6,186.8,63.6z M186.8,36.3c5.3,0,9,4,9,9.7
			s-3.7,9.7-9,9.7s-9-4-9-9.7S181.6,36.3,186.8,36.3z"/>
		<path fill="#FFFFFF" d="M233.3,63.6c6.4,0,11.2-2.5,13-4l0.3-0.3V44h-15.7v7.7h7.8v3.2c-1.4,0.5-3.4,0.9-5.4,0.9
			c-5.9,0-9.8-3.8-9.8-9.7c0-5.7,3.6-9.6,8.7-9.6c3.3,0,5,1,6.6,2.7l0.7,0.7l5.8-5.7l-0.6-0.7c-2.8-3.2-6.9-4.8-12.4-4.8
			c-4.9,0-9.4,1.8-12.6,5c-3.1,3.2-4.9,7.6-4.9,12.5C214.8,56.4,222.4,63.6,233.3,63.6z"/>
	</g>
</g>
</svg>
