<svg xmlns="http://www.w3.org/2000/svg" viewBox="0 0 340 100"><g fill="#5596C0"><path d="M120.8 36.9L101.3 29l-7.9 7.9V71h14c4 0 7.3-1.4 9.4-3.9l6.5-6.5-2.5-23.7zM137.9 29l-7.9 7.9V71h23.1l8-7.9-17.6-5.4zM199.1 45l-7.4-11.5h-17.4l-7.3 7.4-.6.6c-.3.3-.6.6-.8.9l-.1.1c-2.8 3.1-4.3 7.2-4.3 11.6 0 4.8 1.8 9.3 5.2 12.5 3.3 3.2 7.7 5 12.5 5 4 0 7.8-1.3 10.9-3.6.6-.4 1.1-.9 1.6-1.4.5-.5 1-1 1.4-1.5l6.5-6.4-.2-13.7zM243.8 50.7l-9.8-5.5 3.3-3.3 2.1-2.2 1.7-5.3-21.5-.9-7.9 7.9c-3.1 3.2-4.9 7.6-4.9 12.5 0 10.3 7.6 17.5 18.5 17.5 6.4 0 11.2-2.5 13-4l.3-.3 7.9-7.9-2.7-8.5z"/></g><g fill="#FFF"><path d="M127.1 52.2c0-3.9-1.8-6.7-5-8.2 2-1.3 3-3.3 3-5.8 0-5.5-4.3-9.3-10.3-9.3h-13.4v34.2h14c6.9 0 11.7-4.4 11.7-10.9zM114 40.9h-4.2v-4.2h4.5c1.5 0 2.3.8 2.3 2.1.1 1.3-.9 2.1-2.6 2.1zm4.5 11c0 2.2-1.3 3.5-3.5 3.5h-5.2v-7h4.8c2.5 0 3.9 1.3 3.9 3.5zM161.1 55.4h-14.7V29h-8.5v34.1h23.2zM186.8 63.6c4.8 0 9.2-1.8 12.5-5 3.3-3.2 5.2-7.7 5.2-12.5s-1.8-9.3-5.2-12.5c-3.3-3.2-7.7-5-12.5-5s-9.2 1.8-12.5 5c-3.3 3.2-5.2 7.7-5.2 12.5s1.8 9.3 5.2 12.5c3.3 3.2 7.8 5 12.5 5zm0-27.3c5.3 0 9 4 9 9.7s-3.7 9.7-9 9.7-9-4-9-9.7 3.8-9.7 9-9.7zM233.3 63.6c6.4 0 11.2-2.5 13-4l.3-.3V44h-15.7v7.7h7.8v3.2c-1.4.5-3.4.9-5.4.9-5.9 0-9.8-3.8-9.8-9.7 0-5.7 3.6-9.6 8.7-9.6 3.3 0 5 1 6.6 2.7l.7.7 5.8-5.7-.6-.7c-2.8-3.2-6.9-4.8-12.4-4.8-4.9 0-9.4 1.8-12.6 5-3.1 3.2-4.9 7.6-4.9 12.5 0 10.2 7.6 17.4 18.5 17.4z"/></g></svg>