<?xml version="1.0" encoding="utf-8"?>
<!-- Generator: Adobe Illustrator 18.0.0, SVG Export Plug-In . SVG Version: 6.00 Build 0)  -->
<!DOCTYPE svg PUBLIC "-//W3C//DTD SVG 1.1//EN" "http://www.w3.org/Graphics/SVG/1.1/DTD/svg11.dtd">
<svg version="1.1" id="Layer_1" xmlns="http://www.w3.org/2000/svg" xmlns:xlink="http://www.w3.org/1999/xlink" x="0px" y="0px"
	 viewBox="0 0 300 100" enable-background="new 0 0 300 100" xml:space="preserve">
<g>
	<g>
		<path fill="#5596C0" d="M37.6,39.5L37.6,39.5L37.6,39.5c0.7-0.6,1.4-1.3,2-2l7.5-7.4l-7.9,1.3L27,25.6l-5.1-8.4
			c1.4-0.9,3-1.3,4.8-1.3c3.9,0,6,2.1,7.1,3.8l0.5,0.8l6.6-4.7l8-8L23.2,4.1l-9,8.9c-3.3,3.2-5.1,7.7-5.1,12.6
			c0,4.9,1.8,9.3,5.1,12.6c3.3,3.2,7.7,5,12.5,5C31,43.1,34.7,41.9,37.6,39.5z"/>
		<polygon fill="#5596C0" points="56.1,42.7 59.8,39 69.6,39 71.1,42.7 80.2,42.7 88.1,34.8 70.7,0.2 62.7,8.1 47.6,42.7 		"/>
		<path fill="#5596C0" d="M227.2,43.1c4.1,0,8-1.3,11-3.7l0,0l0,0c0.5-0.4,1-0.8,1.5-1.3c0.5-0.5,0.9-1,1.3-1.5l6.6-6.5l-0.2-7.7
			L243,8l-19.4-3.9l-9,8.9c-3.3,3.3-5.2,7.7-5.2,12.6s1.8,9.3,5.2,12.6C217.9,41.4,222.4,43.1,227.2,43.1z"/>
		<polygon fill="#5596C0" points="121,34.8 105.6,29.4 97.8,0.4 89.8,8.4 89.8,42.7 113.1,42.7 		"/>
		<polygon fill="#5596C0" points="155.4,34.8 141.6,32.1 132.2,0.4 124.2,8.4 124.2,42.7 147.5,42.7 		"/>
		<polygon fill="#5596C0" points="193.3,34.8 192.7,32.8 198.3,32.8 206.3,24.9 192.2,19.5 192.2,16.1 199.6,16.1 207.6,8.2 
			184.8,0.4 176.8,8.4 176.8,42.7 185.4,42.7 		"/>
		<path fill="#5596C0" d="M269.8,37.8l3.2,4.9h10l8-8l-9.5-10.4c0-0.3,0.1-0.5,0.1-0.8l1.4-5.9l-1.6-9.5l-17.1-7.7l-8,8v34.3h8.5
			L269.8,37.8z"/>
		<path fill="#FFFFFF" d="M49,27.6l0.5-0.8l-6.7-4.6L42.2,23c-2,3.1-4.3,4.4-7.6,4.4c-5.2,0-8.9-4-8.9-9.8c0-5.7,3.7-9.7,8.9-9.7
			c3.9,0,6,2.1,7.1,3.8l0.5,0.8l6.6-4.7l-0.5-0.7c-3.1-4.8-7.6-7.1-13.8-7.1c-4.8,0-9.2,1.8-12.5,5C18.8,8.3,17,12.7,17,17.6
			c0,4.9,1.8,9.3,5.1,12.6c3.3,3.2,7.7,5,12.5,5C40.8,35.2,45.8,32.6,49,27.6z"/>
		<path fill="#FFFFFF" d="M65.6,31.1h11.9l1.5,3.7h9.1L72.4,0.2h-1.8L55.6,34.8h8.5L65.6,31.1z M68.6,23.6l1.8-4.3
			c0.4-0.9,0.8-2,1.1-3c0.3,1,0.7,2.1,1.1,3l1.8,4.3H68.6z"/>
		<polygon fill="#FFFFFF" points="121,27 106.3,27 106.3,0.4 97.8,0.4 97.8,34.8 121,34.8 		"/>
		<polygon fill="#FFFFFF" points="132.2,0.4 132.2,34.8 155.4,34.8 155.4,27 140.7,27 140.7,0.4 		"/>
		<polygon fill="#FFFFFF" points="193.3,24.9 206.3,24.9 206.3,17.1 193.3,17.1 193.3,8.2 207.6,8.2 207.6,0.4 184.8,0.4 
			184.8,34.8 193.3,34.8 		"/>
		<path fill="#FFFFFF" d="M235.1,0c-4.8,0-9.3,1.8-12.6,5c-3.3,3.3-5.2,7.7-5.2,12.6s1.8,9.3,5.2,12.6c3.3,3.2,7.8,5,12.6,5
			s9.3-1.8,12.6-5c3.3-3.3,5.2-7.7,5.2-12.6S251,8.3,247.7,5C244.4,1.8,239.9,0,235.1,0z M235.1,27.4c-5.3,0-9-4-9-9.8
			s3.7-9.8,9-9.8s9,4,9,9.8S240.4,27.4,235.1,27.4z"/>
		<path fill="#FFFFFF" d="M289.7,13.6c0-4.1-1.4-7.5-4.2-9.8c-2.7-2.2-6.5-3.4-11.3-3.4h-9.9v34.3h8.5v-8.1h1.4c0.5,0,1,0,1.4-0.1
			l5.3,8.1h10l-7.1-10.7C287.7,22,289.7,18.5,289.7,13.6z M272.9,8.2h1.2c5,0,6.9,1.5,6.9,5.5c0,4-1.8,5.4-6.9,5.4h-1.2V8.2z"/>
	</g>
	<g>
		<polygon fill="#5596C0" points="97.1,65 70,57.3 62.1,65.2 62.1,73 71.3,73 71.3,99.6 79.9,99.6 87.8,91.6 84.5,73 89.1,73 		"/>
		<polygon fill="#5596C0" points="107.5,65 92.4,99.6 100.9,99.6 104.6,95.9 114.4,95.9 115.9,99.6 125,99.6 132.9,91.6 115.5,57 		
			"/>
		<polygon fill="#5596C0" points="142.6,57.3 134.6,65.2 134.6,99.6 157.9,99.6 165.8,91.6 151.1,83.9 		"/>
		<path fill="#5596C0" d="M228.3,71.4l8-8l-18.5-3.8l-7.5,7.6l0,0c-2.2,1.7-3.4,4.3-3.4,7.4c0,4.9,2.4,7.6,5.5,9.4l-7,7l-13.8-10.1
			l1.5-10.4l3.9-5.2h-3.1l1.2-8l-8,8l-2.6,3.5L177,57.3l-8,8v34.3h8.5l6.2-6.2l4.2,6.2h10.3l6.7-6.7c2.4,4.6,7.1,7.2,12.9,7.2
			c4.1,0,7.4-1.3,9.5-3.6l8-8L228.3,71.4z"/>
		<polygon fill="#FFFFFF" points="70,65 79.3,65 79.3,91.6 87.8,91.6 87.8,65 97.1,65 97.1,57.3 70,57.3 		"/>
		<path fill="#FFFFFF" d="M115.5,57l-15.1,34.6h8.5l1.5-3.7h11.9l1.5,3.7h9.1L117.2,57H115.5z M119.2,80.5h-5.8l1.8-4.3
			c0.4-0.9,0.8-2,1.1-3c0.3,1,0.7,2.1,1.1,3L119.2,80.5z"/>
		<polygon fill="#FFFFFF" points="151.1,57.3 142.6,57.3 142.6,91.6 165.8,91.6 165.8,83.9 151.1,83.9 		"/>
		<path fill="#FFFFFF" d="M205,57.3h-9.9l-8.9,12c-0.2,0.3-0.5,0.6-0.7,1c0-0.3,0-0.6,0-0.8V57.3H177v34.3h8.5V82l2.1-2.6l8.2,12.1
			h10.3l-12.8-18.7L205,57.3z"/>
		<path fill="#FFFFFF" d="M235.4,74.7c-1.5-1.6-3.5-2.8-6.9-4.3l-1.7-0.7c-2.9-1.2-3.5-1.8-3.5-3.2c0-1.2,0.9-1.9,2.3-1.9
			c1.3,0,2.4,0.4,3.5,2.4l0.5,0.9l6.8-4.3l-0.4-0.8c-2.3-4-5.5-5.8-10.3-5.8c-6.3,0-10.7,4-10.7,9.8c0,6.4,4.1,9,8.6,10.9l1.7,0.7
			c3.3,1.4,4.3,2,4.3,3.6c0,1.4-1.4,2.4-3.6,2.4c-2.5,0-4.2-1.1-5.8-3.6l-0.5-0.8l-7,4l0.4,0.8c2.4,4.7,7.1,7.3,13,7.3
			c7.3,0,12-4,12-10.2C237.9,78.9,237.1,76.6,235.4,74.7z"/>
	</g>
</g>
</svg>
