<svg xmlns="http://www.w3.org/2000/svg" viewBox="0 0 300 100"><path fill="#5596C0" d="M37.6 39.5c.7-.6 1.4-1.3 2-2l7.5-7.4-7.9 1.3L27 25.6l-5.1-8.4c1.4-.9 3-1.3 4.8-1.3 3.9 0 6 2.1 7.1 3.8l.5.8 6.6-4.7 8-8-25.7-3.7-9 8.9c-3.3 3.2-5.1 7.7-5.1 12.6 0 4.9 1.8 9.3 5.1 12.6 3.3 3.2 7.7 5 12.5 5 4.3-.1 8-1.3 10.9-3.7zM56.1 42.7l3.7-3.7h9.8l1.5 3.7h9.1l7.9-7.9L70.7.2l-8 7.9-15.1 34.6zM227.2 43.1c4.1 0 8-1.3 11-3.7.5-.4 1-.8 1.5-1.3s.9-1 1.3-1.5l6.6-6.5-.2-7.7L243 8l-19.4-3.9-9 8.9c-3.3 3.3-5.2 7.7-5.2 12.6s1.8 9.3 5.2 12.6c3.3 3.2 7.8 4.9 12.6 4.9zM121 34.8l-15.4-5.4-7.8-29-8 8v34.3h23.3zM155.4 34.8l-13.8-2.7L132.2.4l-8 8v34.3h23.3zM193.3 34.8l-.6-2h5.6l8-7.9-14.1-5.4v-3.4h7.4l8-7.9L184.8.4l-8 8v34.3h8.6zM269.8 37.8l3.2 4.9h10l8-8-9.5-10.4c0-.3.1-.5.1-.8l1.4-5.9-1.6-9.5L264.3.4l-8 8v34.3h8.5l5-4.9z"/><path fill="#FFF" d="M49 27.6l.5-.8-6.7-4.6-.6.8c-2 3.1-4.3 4.4-7.6 4.4-5.2 0-8.9-4-8.9-9.8 0-5.7 3.7-9.7 8.9-9.7 3.9 0 6 2.1 7.1 3.8l.5.8 6.6-4.7-.5-.7C45.2 2.3 40.7 0 34.5 0 29.7 0 25.3 1.8 22 5c-3.2 3.3-5 7.7-5 12.6 0 4.9 1.8 9.3 5.1 12.6 3.3 3.2 7.7 5 12.5 5 6.2 0 11.2-2.6 14.4-7.6zM65.6 31.1h11.9l1.5 3.7h9.1L72.4.2h-1.8l-15 34.6h8.5l1.5-3.7zm3-7.5l1.8-4.3c.4-.9.8-2 1.1-3 .3 1 .7 2.1 1.1 3l1.8 4.3h-5.8zM121 27h-14.7V.4h-8.5v34.4H121zM132.2.4v34.4h23.2V27h-14.7V.4zM193.3 24.9h13v-7.8h-13V8.2h14.3V.4h-22.8v34.4h8.5zM235.1 0c-4.8 0-9.3 1.8-12.6 5-3.3 3.3-5.2 7.7-5.2 12.6s1.8 9.3 5.2 12.6c3.3 3.2 7.8 5 12.6 5s9.3-1.8 12.6-5c3.3-3.3 5.2-7.7 5.2-12.6S251 8.3 247.7 5c-3.3-3.2-7.8-5-12.6-5zm0 27.4c-5.3 0-9-4-9-9.8s3.7-9.8 9-9.8 9 4 9 9.8-3.7 9.8-9 9.8zM289.7 13.6c0-4.1-1.4-7.5-4.2-9.8-2.7-2.2-6.5-3.4-11.3-3.4h-9.9v34.3h8.5v-8.1h1.4c.5 0 1 0 1.4-.1l5.3 8.1h10l-7.1-10.7c3.9-1.9 5.9-5.4 5.9-10.3zm-16.8-5.4h1.2c5 0 6.9 1.5 6.9 5.5s-1.8 5.4-6.9 5.4h-1.2V8.2z"/><g><path fill="#5596C0" d="M97.1 65L70 57.3l-7.9 7.9V73h9.2v26.6h8.6l7.9-8L84.5 73h4.6zM107.5 65L92.4 99.6h8.5l3.7-3.7h9.8l1.5 3.7h9.1l7.9-8L115.5 57zM142.6 57.3l-8 7.9v34.4h23.3l7.9-8-14.7-7.7zM228.3 71.4l8-8-18.5-3.8-7.5 7.6c-2.2 1.7-3.4 4.3-3.4 7.4 0 4.9 2.4 7.6 5.5 9.4l-7 7-13.8-10.1 1.5-10.4 3.9-5.2h-3.1l1.2-8-8 8-2.6 3.5-7.5-11.5-8 8v34.3h8.5l6.2-6.2 4.2 6.2h10.3l6.7-6.7c2.4 4.6 7.1 7.2 12.9 7.2 4.1 0 7.4-1.3 9.5-3.6l8-8-7-17.1z"/><path fill="#FFF" d="M70 65h9.3v26.6h8.5V65h9.3v-7.7H70zM115.5 57l-15.1 34.6h8.5l1.5-3.7h11.9l1.5 3.7h9.1L117.2 57h-1.7zm3.7 23.5h-5.8l1.8-4.3c.4-.9.8-2 1.1-3 .3 1 .7 2.1 1.1 3l1.8 4.3zM151.1 57.3h-8.5v34.3h23.2v-7.7h-14.7zM205 57.3h-9.9l-8.9 12c-.2.3-.5.6-.7 1v-13H177v34.3h8.5V82l2.1-2.6 8.2 12.1h10.3l-12.8-18.7L205 57.3zM235.4 74.7c-1.5-1.6-3.5-2.8-6.9-4.3l-1.7-.7c-2.9-1.2-3.5-1.8-3.5-3.2 0-1.2.9-1.9 2.3-1.9 1.3 0 2.4.4 3.5 2.4l.5.9 6.8-4.3-.4-.8c-2.3-4-5.5-5.8-10.3-5.8-6.3 0-10.7 4-10.7 9.8 0 6.4 4.1 9 8.6 10.9l1.7.7c3.3 1.4 4.3 2 4.3 3.6 0 1.4-1.4 2.4-3.6 2.4-2.5 0-4.2-1.1-5.8-3.6l-.5-.8-7 4 .4.8c2.4 4.7 7.1 7.3 13 7.3 7.3 0 12-4 12-10.2-.2-3-1-5.3-2.7-7.2z"/></g></svg>