<?xml version="1.0" encoding="utf-8"?>
<!-- Generator: Adobe Illustrator 18.0.0, SVG Export Plug-In . SVG Version: 6.00 Build 0)  -->
<!DOCTYPE svg PUBLIC "-//W3C//DTD SVG 1.1//EN" "http://www.w3.org/Graphics/SVG/1.1/DTD/svg11.dtd">
<svg version="1.1" id="Layer_1" xmlns="http://www.w3.org/2000/svg" xmlns:xlink="http://www.w3.org/1999/xlink" x="0px" y="0px"
	 viewBox="0 0 340 100" enable-background="new 0 0 340 100" xml:space="preserve">
<g>
	<g>
		<path fill="#5596C0" d="M57.9,39.3L57.9,39.3L57.9,39.3c0.7-0.6,1.4-1.3,2-2l7.5-7.4l-7.9,1.3l-12.1-5.8l-5.1-8.3
			c1.3-0.9,3-1.3,4.8-1.3c3.9,0,6,2.1,7.1,3.8l0.5,0.8l6.6-4.7l7.9-7.9L43.5,4l-9,8.9c-3.3,3.2-5.1,7.7-5.1,12.5
			c0,4.8,1.8,9.3,5.1,12.5c3.3,3.2,7.7,5,12.4,5C51.3,43,54.9,41.7,57.9,39.3z"/>
		<polygon fill="#5596C0" points="76.3,42.5 79.9,38.9 89.7,38.9 91.2,42.5 100.2,42.5 108.2,34.6 90.8,0.1 82.8,8.1 67.8,42.5 		
			"/>
		<path fill="#5596C0" d="M246.6,43c4.1,0,7.9-1.3,11-3.7l0,0l0,0c0.5-0.4,1-0.8,1.5-1.3c0.5-0.5,0.9-0.9,1.3-1.5l6.6-6.5l-0.2-7.6
			l-4.4-14.5L243.1,4l-9,8.9c-3.3,3.2-5.2,7.7-5.2,12.5s1.8,9.3,5.2,12.5C237.4,41.2,241.9,43,246.6,43z"/>
		<polygon fill="#5596C0" points="140.9,34.6 125.5,29.3 117.8,0.4 109.9,8.4 109.9,42.5 133,42.5 		"/>
		<polygon fill="#5596C0" points="175.2,34.6 161.4,31.9 152,0.4 144.1,8.4 144.1,42.5 167.3,42.5 		"/>
		<polygon fill="#5596C0" points="212.9,34.6 212.3,32.7 217.9,32.7 225.8,24.8 211.8,19.4 211.8,16 219.2,16 227.1,8.1 204.4,0.4 
			196.5,8.4 196.5,42.5 205,42.5 		"/>
		<path fill="#5596C0" d="M289.1,37.6l3.2,4.9h9.9l7.9-7.9l-9.4-10.4c0-0.3,0.1-0.5,0.1-0.8l1.4-5.9l-1.6-9.5l-17-7.6l-7.9,7.9v34.2
			h8.5L289.1,37.6z"/>
		<path fill="#5596C0" d="M30.4,67.8L10,57.5L2,65.4v34.2h8.5l7.9-7.9l0.1-0.5c1.9-0.7,3.6-1.6,4.9-2.8h0l0.1-0.1
			c0.2-0.2,0.3-0.3,0.5-0.5l7.3-7.3L30.4,67.8z"/>
		<polygon fill="#5596C0" points="66.5,66.4 46.1,57.5 38.2,65.4 38.2,99.6 46.7,99.6 51.6,94.7 54.8,99.6 64.7,99.6 72.6,91.6 
			63.7,86.9 		"/>
		<path fill="#5596C0" d="M87,62l-7.9,7.9c-3.3,3.2-5.2,7.7-5.2,12.5s1.8,9.3,5.2,12.5c3.3,3.2,7.7,5,12.5,5c4.1,0,7.9-1.3,10.9-3.6
			l0,0l0,0c0.5-0.4,1.1-0.9,1.6-1.3c0.5-0.5,0.9-1,1.4-1.5l6.6-6.4l1.5-7.5l-7-16.2L87,62z"/>
		<path fill="#5596C0" d="M120.6,65.4v34.2h8.5l7.9-7.9l-0.1-0.4c2.2-0.7,4-1.8,5.4-3.3h0l6.6-6.8V66.6l-20.5-9.1L120.6,65.4z"/>
		<path fill="#5596C0" d="M168.8,62l-7.9,7.9c-3.3,3.2-5.2,7.7-5.2,12.5s1.8,9.3,5.2,12.5c3.3,3.2,7.7,5,12.5,5
			c4.1,0,7.9-1.3,10.9-3.6l0,0l0,0c0.5-0.4,1.1-0.9,1.6-1.3c0.5-0.5,0.9-1,1.4-1.5l6.6-6.4l0.9-13.3l-7.1-10.4L168.8,62z"/>
		<path fill="#5596C0" d="M211.8,60.3l-7.4,7.4l0,0c-1.9,1.7-3,4.2-3,7c0,4.9,2.4,7.5,5.5,9.4l-7.8,7.8l0.4,0.8
			c2.3,4.6,7.1,7.3,12.9,7.3c3.7,0,6.8-1,8.8-2.9l0,0l0,0c0.3-0.3,0.6-0.5,0.8-0.8l6.9-6.9l-6.2-17.8l7.9-7.9L211.8,60.3z"/>
		<polygon fill="#5596C0" points="246.6,65.1 231.5,99.6 240,99.6 243.6,95.9 253.4,95.9 254.9,99.6 264,99.6 271.9,91.6 
			254.5,57.2 		"/>
		<polygon fill="#5596C0" points="281.5,57.5 273.6,65.4 273.6,99.6 296.7,99.6 304.6,91.6 289,86.5 		"/>
		<path fill="#5596C0" d="M328.4,71.6l7.9-7.9l-18.9-3.3l-7.2,7.3c-2,1.7-3.1,4.2-3.1,7.1c0,4.9,2.4,7.5,5.5,9.4l-7.9,7.5l0.4,0.1
			l-0.3,0.2l0.4,0.8c2.3,4.6,7.1,7.3,12.9,7.3c3.7,0,6.8-1,8.8-2.9l0,0l0,0c0.3-0.2,0.5-0.5,0.8-0.8l7.2-7.2L328.4,71.6z"/>
	</g>
	<g>
		<path fill="#FFFFFF" d="M69.2,27.5l0.5-0.8L63,22.1l-0.5,0.8c-2,3-4.2,4.3-7.5,4.3c-5.2,0-8.9-4-8.9-9.7c0-5.7,3.6-9.6,8.9-9.6
			c3.9,0,6,2.1,7.1,3.8l0.5,0.8l6.6-4.7l-0.5-0.7c-3-4.7-7.5-7-13.7-7c-4.8,0-9.2,1.8-12.4,5c-3.3,3.2-5.1,7.7-5.1,12.5
			c0,4.8,1.8,9.3,5.1,12.5c3.3,3.2,7.7,5,12.4,5C61.1,35,66,32.4,69.2,27.5z"/>
		<path fill="#FFFFFF" d="M85.7,30.9h11.9l1.5,3.7h9L92.5,0.1h-1.8l-15,34.5h8.4L85.7,30.9z M88.7,23.5l1.8-4.3c0.4-0.9,0.7-2,1.1-3
			c0.3,1,0.7,2.1,1.1,3l1.8,4.3H88.7z"/>
		<polygon fill="#FFFFFF" points="140.9,26.9 126.3,26.9 126.3,0.4 117.8,0.4 117.8,34.6 140.9,34.6 		"/>
		<polygon fill="#FFFFFF" points="152,0.4 152,34.6 175.2,34.6 175.2,26.9 160.6,26.9 160.6,0.4 		"/>
		<polygon fill="#FFFFFF" points="212.9,24.8 225.8,24.8 225.8,17 212.9,17 212.9,8.1 227.1,8.1 227.1,0.4 204.4,0.4 204.4,34.6 
			212.9,34.6 		"/>
		<path fill="#FFFFFF" d="M254.6,0c-4.8,0-9.2,1.8-12.5,5c-3.3,3.2-5.2,7.7-5.2,12.5s1.8,9.3,5.2,12.5c3.3,3.2,7.7,5,12.5,5
			s9.2-1.8,12.5-5c3.3-3.2,5.2-7.7,5.2-12.5s-1.8-9.3-5.2-12.5C263.8,1.8,259.3,0,254.6,0z M254.6,27.2c-5.3,0-9-4-9-9.7
			s3.7-9.7,9-9.7s9,4,9,9.7S259.8,27.2,254.6,27.2z"/>
		<path fill="#FFFFFF" d="M308.9,13.6c0-4.1-1.4-7.5-4.2-9.8c-2.7-2.2-6.5-3.4-11.2-3.4h-9.9v34.2h8.5v-8h1.4c0.5,0,1,0,1.4-0.1
			l5.3,8.1h9.9L303.1,24C306.9,21.9,308.9,18.4,308.9,13.6z M292.1,8.1h1.2c4.9,0,6.9,1.5,6.9,5.4c0,4-1.8,5.4-6.9,5.4h-1.2V8.1z"/>
		<path fill="#FFFFFF" d="M19.8,57.5H10v34.2h8.5v-7.4h1.4c9.5,0,15.4-5.1,15.4-13.4C35.2,62.6,29.3,57.5,19.8,57.5z M18.5,65.2h1.2
			c6.1,0,6.9,3.1,6.9,5.7c0,4-2.1,5.7-6.9,5.7h-1.2V65.2z"/>
		<path fill="#FFFFFF" d="M71.4,70.6c0-4.1-1.4-7.5-4.2-9.8c-2.7-2.2-6.5-3.4-11.2-3.4h-9.9v34.2h8.5v-8H56c0.5,0,1,0,1.4-0.1
			l5.3,8.1h9.9L65.6,81C69.4,78.9,71.4,75.4,71.4,70.6z M54.6,65.2h1.2c4.9,0,6.9,1.5,6.9,5.4c0,4-1.8,5.4-6.9,5.4h-1.2V65.2z"/>
		<path fill="#FFFFFF" d="M99.5,57c-4.8,0-9.2,1.8-12.5,5c-3.3,3.2-5.2,7.7-5.2,12.5s1.8,9.3,5.2,12.5c3.3,3.2,7.7,5,12.5,5
			s9.2-1.8,12.5-5c3.3-3.2,5.2-7.7,5.2-12.5s-1.8-9.3-5.2-12.5C108.7,58.8,104.3,57,99.5,57z M99.5,84.3c-5.3,0-9-4-9-9.7
			s3.7-9.7,9-9.7c5.3,0,9,4,9,9.7S104.8,84.3,99.5,84.3z"/>
		<path fill="#FFFFFF" d="M138.4,57.5h-9.9v34.2h8.5v-7.4h1.4c9.5,0,15.4-5.1,15.4-13.4C153.8,62.6,147.9,57.5,138.4,57.5z
			 M137.1,65.2h1.2c6.1,0,6.9,3.1,6.9,5.7c0,4-2.1,5.7-6.9,5.7h-1.2V65.2z"/>
		<path fill="#FFFFFF" d="M181.3,57c-4.8,0-9.2,1.8-12.5,5c-3.3,3.2-5.2,7.7-5.2,12.5s1.8,9.3,5.2,12.5c3.3,3.2,7.7,5,12.5,5
			s9.2-1.8,12.5-5c3.3-3.2,5.2-7.7,5.2-12.5s-1.8-9.3-5.2-12.5C190.5,58.8,186.1,57,181.3,57z M181.3,84.3c-5.3,0-9-4-9-9.7
			s3.7-9.7,9-9.7s9,4,9,9.7S186.6,84.3,181.3,84.3z"/>
		<path fill="#FFFFFF" d="M222.9,70.6l-1.7-0.7c-2.9-1.2-3.5-1.8-3.5-3.2c0-1.2,0.9-1.9,2.3-1.9c1.3,0,2.4,0.4,3.5,2.4L224,68
			l6.7-4.3l-0.4-0.8c-2.2-4-5.5-5.8-10.3-5.8c-6.3,0-10.7,4-10.7,9.7c0,6.4,4.1,9,8.5,10.9l1.7,0.7c3.2,1.4,4.3,2,4.3,3.6
			c0,1.4-1.4,2.4-3.6,2.4c-2.5,0-4.2-1.1-5.8-3.6L214,80l-7,4l0.4,0.8c2.3,4.6,7.1,7.3,12.9,7.3c7.3,0,12-4,12-10.2
			c0-2.9-0.8-5.2-2.5-7C228.3,73.3,226.3,72,222.9,70.6z"/>
		<path fill="#FFFFFF" d="M254.5,57.2l-15,34.5h8.4l1.5-3.7h11.9l1.5,3.7h9l-15.6-34.5H254.5z M258.2,80.6h-5.7l1.8-4.3
			c0.4-0.9,0.7-2,1.1-3c0.3,1,0.7,2.1,1.1,3L258.2,80.6z"/>
		<polygon fill="#FFFFFF" points="290,57.5 281.5,57.5 281.5,91.6 304.6,91.6 304.6,84 290,84 		"/>
		<path fill="#FFFFFF" d="M328.6,70.6l-1.7-0.7c-2.9-1.2-3.5-1.8-3.5-3.2c0-1.2,0.9-1.9,2.3-1.9c1.3,0,2.4,0.4,3.5,2.4l0.5,0.9
			l6.7-4.3l-0.4-0.8c-2.2-4-5.5-5.8-10.3-5.8c-6.3,0-10.7,4-10.7,9.7c0,6.4,4.1,9,8.5,10.9l1.7,0.7c3.2,1.4,4.3,2,4.3,3.6
			c0,1.4-1.4,2.4-3.6,2.4c-2.5,0-4.2-1.1-5.8-3.6l-0.5-0.8l-7,4l0.4,0.8c2.3,4.6,7.1,7.3,12.9,7.3c7.3,0,12-4,12-10.2
			c0-2.9-0.8-5.2-2.5-7C334,73.3,331.9,72,328.6,70.6z"/>
	</g>
</g>
</svg>
