<svg xmlns="http://www.w3.org/2000/svg" viewBox="0 0 380 100"><path fill="#5596C0" d="M78.8 39.4c.7-.6 1.4-1.3 2-2l7.5-7.4-7.9 1.3-12.2-5.8-5.1-8.4c1.4-.9 3-1.3 4.8-1.3 3.9 0 6 2.1 7.1 3.8l.5.8 6.6-4.7 8-8-25.7-3.6-9 8.9c-3.3 3.2-5.1 7.7-5.1 12.6 0 4.9 1.8 9.3 5.1 12.6 3.3 3.2 7.7 5 12.5 5 4.3-.1 8-1.3 10.9-3.8zM97.3 42.7L101 39h9.8l1.5 3.7h9.1l7.9-8L111.9.1l-8 8-15.1 34.6zM268.4 43.1c4.1 0 8-1.3 11-3.7.5-.4 1-.8 1.5-1.3s.9-1 1.3-1.5l6.6-6.5-.2-7.7L284.3 8l-19.4-3.9-9 8.9c-3.3 3.3-5.2 7.7-5.2 12.6s1.8 9.3 5.2 12.6c3.2 3.2 7.7 4.9 12.5 4.9zM162.2 34.7l-15.4-5.3-7.8-29-8 8v34.3h23.3zM196.6 34.7L182.8 32 173.4.4l-8 8v34.3h23.3zM234.5 34.7l-.6-1.9h5.6l8-7.9-14.1-5.4v-3.4h7.4l8-7.9L226 .4l-8 8v34.3h8.6zM311 37.8l3.2 4.9h10l8-8-9.5-10.4c0-.3.1-.5.1-.8l1.4-5.9-1.6-9.5L305.5.4l-8 8v34.3h8.5l5-4.9z"/><path fill="#FFF" d="M90.2 27.6l.5-.8-6.7-4.6-.6.8c-2 3.1-4.3 4.4-7.6 4.4-5.2 0-8.9-4-8.9-9.8 0-5.7 3.7-9.7 8.9-9.7 3.9 0 6 2.1 7.1 3.8l.5.8L90 7.8l-.5-.7C86.6 2.4 82.1 0 75.9 0c-4.8 0-9.2 1.8-12.5 5-3.3 3.2-5.1 7.7-5.1 12.6 0 4.9 1.8 9.3 5.1 12.6 3.3 3.2 7.7 5 12.5 5 6.2 0 11.1-2.6 14.3-7.6zM106.8 31.1h11.9l1.5 3.7h9.1L113.6.1h-1.8l-15 34.6h8.5l1.5-3.6zm3-7.5l1.8-4.3c.4-.9.8-2 1.1-3 .3 1 .7 2.1 1.1 3l1.8 4.3h-5.8zM162.2 27h-14.7V.4H139v34.3h23.2zM173.4.4v34.3h23.2V27h-14.7V.4zM234.5 24.9h13V17h-13V8.2h14.3V.4H226v34.3h8.5zM276.3 0c-4.8 0-9.3 1.8-12.6 5-3.3 3.3-5.2 7.7-5.2 12.6s1.8 9.3 5.2 12.6c3.3 3.2 7.8 5 12.6 5s9.3-1.8 12.6-5c3.3-3.3 5.2-7.7 5.2-12.6s-1.8-9.3-5.2-12.6c-3.3-3.2-7.8-5-12.6-5zm0 27.4c-5.3 0-9-4-9-9.8s3.7-9.8 9-9.8 9 4 9 9.8-3.7 9.8-9 9.8zM330.9 13.6c0-4.1-1.4-7.5-4.2-9.8C324 1.6 320.2.4 315.4.4h-9.9v34.3h8.5v-8.1h1.4c.5 0 1 0 1.4-.1l5.3 8.1h10L325 24.1c3.9-2.2 5.9-5.7 5.9-10.5zm-16.8-5.4h1.2c5 0 6.9 1.5 6.9 5.5s-1.8 5.4-6.9 5.4h-1.2V8.2z"/><g><path fill="#5596C0" d="M53.6 65.3l.9-8-8 8-1 2.8L39.1 57l-7.9 8-2.6 5.5-12-13.2-7.9 8 12.6 34.6h1.9l8-8 2.2-7.5 7.2 15.5h1.9l8-8 2.4-20.8 2.1-5.8zM133.7 79.7l4.6-11-21.9-11.5-8 8v34.3h8.5l4.9-4.9 3.2 4.9h10l8-8-9.9-8.7c.3-.9.5-1.9.6-3.1zM74.6 61.9l-8 8c-3.3 3.3-5.2 7.7-5.2 12.6s1.8 9.3 5.2 12.6c3.3 3.2 7.8 5 12.6 5s9.3-1.8 12.6-5l8-8 .9-7.7-6.4-16.2-19.7-1.3zM193.6 60.2l-7.6 7.5c-1.8 1.7-2.8 4.1-2.8 6.9 0 4.9 2.4 7.6 5.5 9.4l-7 7-13.7-9.9 1.5-10.6 3.9-5.2h-3.1l1.2-8-8 8-2.6 3.5-7.5-11.5-8 8v34.3h8.5l6.2-6.2 4.2 6.2h10.3l6.7-6.7c2.4 4.6 7.1 7.2 12.9 7.2 4.6 0 8.2-1.6 10.2-4.3l6.5-6.4-6.4-17.8 8-8-18.9-3.4zM237.8 65.3v8.6h-4l-8.6-16.6-7.9 8v34.3h8.5l8-8-1.1-1.9h5.1v9.9h8.6l7.9-8-8.5-34.3zM271 61.9l-8 8c-3.3 3.3-5.2 7.7-5.2 12.6s1.8 9.3 5.2 12.6c3.3 3.2 7.8 5 12.6 5s9.3-1.8 12.6-5l8-8-1.9-21.2-23.3-4zM304.8 65.3v34.3h8.5l8-8-.3-.3c1.9-.6 3.6-1.5 4.9-2.6.4-.4.9-.8 1.2-1.2l7-7V68.8l-21.4-11.5-7.9 8zM350.7 60.2l-7.4 7.4c-1.9 1.7-3 4.2-3 7.1 0 4.9 2.4 7.6 5.5 9.4l-7.8 7.8.4.8c2.4 4.7 7.1 7.3 13 7.3 4.3 0 7.7-1.4 9.8-3.8l7.5-7.4-6.9-17.3 8-8-19.1-3.3z"/><path fill="#FFF" d="M49.6 70.9c-.3.8-.6 1.8-.9 2.8-.3-1-.7-2-1.1-2.9L41 57h-1.8l-6.5 13.8c-.4.9-.8 1.9-1.1 2.9-.3-1-.6-2-.9-2.8l-4.9-13.6h-9l12.7 34.6h1.9L39 75.7c.3-.7.7-1.6 1-2.4.3.8.7 1.7 1 2.4l7.6 16.2h1.9L63 57.3h-8.5l-4.9 13.6zM87.2 56.9c-4.8 0-9.3 1.8-12.6 5-3.3 3.3-5.2 7.7-5.2 12.6s1.8 9.3 5.2 12.6c3.3 3.2 7.8 5 12.6 5s9.3-1.8 12.6-5c3.3-3.3 5.2-7.7 5.2-12.6s-1.8-9.3-5.2-12.6c-3.3-3.3-7.8-5-12.6-5zm0 27.3c-5.3 0-9-4-9-9.8 0-5.7 3.7-9.8 9-9.8s9 4 9 9.8c0 5.8-3.7 9.8-9 9.8zM141.7 70.5c0-4.1-1.4-7.5-4.2-9.8-2.7-2.2-6.5-3.4-11.3-3.4h-9.9v34.3h8.5v-8.1h1.4c.5 0 1 0 1.4-.1l5.3 8.1h10l-7.1-10.7c4-2 5.9-5.5 5.9-10.3zM124.9 65h1.2c5 0 6.9 1.5 6.9 5.5s-1.8 5.4-6.9 5.4h-1.2V65zM181.3 57.3h-9.9l-8.9 12c-.2.3-.5.6-.7 1v-13h-8.5v34.3h8.5V82l2.1-2.6 8.2 12.1h10.3l-12.8-18.7 11.7-15.5zM204.8 70.5l-1.7-.7c-2.9-1.2-3.5-1.8-3.5-3.2 0-1.2.9-1.9 2.3-1.9 1.3 0 2.4.4 3.5 2.4l.5.9 6.8-4.3-.4-.8c-2.3-4-5.5-5.8-10.3-5.8-6.3 0-10.7 4-10.7 9.8 0 6.4 4.1 9 8.6 10.9l1.7.7c3.3 1.4 4.3 2 4.3 3.6 0 1.4-1.4 2.4-3.6 2.4-2.5 0-4.2-1.1-5.8-3.6l-.5-.8-7 4 .4.8c2.4 4.7 7.1 7.3 13 7.3 7.3 0 12-4 12-10.2 0-2.9-.8-5.2-2.6-7.1-1.6-1.7-3.6-3-7-4.4zM245.8 73.9h-12V57.3h-8.6v34.3h8.6v-9.9h12v9.9h8.5V57.3h-8.5zM283.5 56.9c-4.8 0-9.3 1.8-12.6 5-3.3 3.3-5.2 7.7-5.2 12.6s1.8 9.3 5.2 12.6c3.3 3.2 7.8 5 12.6 5s9.3-1.8 12.6-5c3.3-3.3 5.2-7.7 5.2-12.6s-1.8-9.3-5.2-12.6c-3.3-3.3-7.8-5-12.6-5zm0 27.3c-5.3 0-9-4-9-9.8 0-5.7 3.7-9.8 9-9.8s9 4 9 9.8c0 5.8-3.7 9.8-9 9.8zM322.6 57.3h-9.9v34.3h8.5v-7.4h1.4c9.5 0 15.4-5.1 15.4-13.4.1-8.3-5.8-13.5-15.4-13.5zm-1.3 7.7h1.2c6.1 0 6.9 3.1 6.9 5.8 0 4-2.1 5.7-6.9 5.7h-1.2V65zM361.9 70.5l-1.7-.7c-2.9-1.2-3.5-1.8-3.5-3.2 0-1.2.9-1.9 2.3-1.9 1.3 0 2.4.4 3.5 2.4l.5.9 6.8-4.3-.4-.8c-2.3-4-5.5-5.8-10.3-5.8-6.3 0-10.7 4-10.7 9.8 0 6.4 4.1 9 8.6 10.9l1.7.7c3.3 1.4 4.3 2 4.3 3.6 0 1.4-1.4 2.4-3.6 2.4-2.5 0-4.2-1.1-5.8-3.6l-.5-.8-7 4 .4.8c2.4 4.7 7.1 7.3 13 7.3 7.3 0 12-4 12-10.2 0-2.9-.8-5.2-2.6-7.1-1.6-1.7-3.6-3-7-4.4z"/></g></svg>