<?xml version="1.0" encoding="utf-8"?>
<!-- Generator: Adobe Illustrator 18.0.0, SVG Export Plug-In . SVG Version: 6.00 Build 0)  -->
<!DOCTYPE svg PUBLIC "-//W3C//DTD SVG 1.1//EN" "http://www.w3.org/Graphics/SVG/1.1/DTD/svg11.dtd">
<svg version="1.1" id="Layer_1" xmlns="http://www.w3.org/2000/svg" xmlns:xlink="http://www.w3.org/1999/xlink" x="0px" y="0px"
	 viewBox="0 0 380 100" enable-background="new 0 0 380 100" xml:space="preserve">
<g>
	<g>
		<path fill="#5596C0" d="M78.8,39.4L78.8,39.4L78.8,39.4c0.7-0.6,1.4-1.3,2-2l7.5-7.4l-7.9,1.3l-12.2-5.8l-5.1-8.4
			c1.4-0.9,3-1.3,4.8-1.3c3.9,0,6,2.1,7.1,3.8l0.5,0.8l6.6-4.7l8-8L64.4,4.1l-9,8.9c-3.3,3.2-5.1,7.7-5.1,12.6
			c0,4.9,1.8,9.3,5.1,12.6c3.3,3.2,7.7,5,12.5,5C72.2,43.1,75.9,41.9,78.8,39.4z"/>
		<polygon fill="#5596C0" points="97.3,42.7 101,39 110.8,39 112.3,42.7 121.4,42.7 129.3,34.7 111.9,0.1 103.9,8.1 88.8,42.7 		"/>
		<path fill="#5596C0" d="M268.4,43.1c4.1,0,8-1.3,11-3.7l0,0l0,0c0.5-0.4,1-0.8,1.5-1.3c0.5-0.5,0.9-1,1.3-1.5l6.6-6.5l-0.2-7.7
			L284.3,8l-19.4-3.9l-9,8.9c-3.3,3.3-5.2,7.7-5.2,12.6s1.8,9.3,5.2,12.6C259.1,41.4,263.6,43.1,268.4,43.1z"/>
		<polygon fill="#5596C0" points="162.2,34.7 146.8,29.4 139,0.4 131,8.4 131,42.7 154.3,42.7 		"/>
		<polygon fill="#5596C0" points="196.6,34.7 182.8,32 173.4,0.4 165.4,8.4 165.4,42.7 188.7,42.7 		"/>
		<polygon fill="#5596C0" points="234.5,34.7 233.9,32.8 239.5,32.8 247.5,24.9 233.4,19.5 233.4,16.1 240.8,16.1 248.8,8.2 
			226,0.4 218,8.4 218,42.7 226.6,42.7 		"/>
		<path fill="#5596C0" d="M311,37.8l3.2,4.9h10l8-8l-9.5-10.4c0-0.3,0.1-0.5,0.1-0.8l1.4-5.9l-1.6-9.5l-17.1-7.7l-8,8v34.3h8.5
			L311,37.8z"/>
		<path fill="#FFFFFF" d="M90.2,27.6l0.5-0.8L84,22.2L83.4,23c-2,3.1-4.3,4.4-7.6,4.4c-5.2,0-8.9-4-8.9-9.8c0-5.7,3.7-9.7,8.9-9.7
			c3.9,0,6,2.1,7.1,3.8l0.5,0.8l6.6-4.7l-0.5-0.7C86.6,2.4,82.1,0,75.9,0c-4.8,0-9.2,1.8-12.5,5c-3.3,3.2-5.1,7.7-5.1,12.6
			c0,4.9,1.8,9.3,5.1,12.6c3.3,3.2,7.7,5,12.5,5C82.1,35.2,87,32.6,90.2,27.6z"/>
		<path fill="#FFFFFF" d="M106.8,31.1h11.9l1.5,3.7h9.1L113.6,0.1h-1.8L96.8,34.7h8.5L106.8,31.1z M109.8,23.6l1.8-4.3
			c0.4-0.9,0.8-2,1.1-3c0.3,1,0.7,2.1,1.1,3l1.8,4.3H109.8z"/>
		<polygon fill="#FFFFFF" points="162.2,27 147.5,27 147.5,0.4 139,0.4 139,34.7 162.2,34.7 		"/>
		<polygon fill="#FFFFFF" points="173.4,0.4 173.4,34.7 196.6,34.7 196.6,27 181.9,27 181.9,0.4 		"/>
		<polygon fill="#FFFFFF" points="234.5,24.9 247.5,24.9 247.5,17 234.5,17 234.5,8.2 248.8,8.2 248.8,0.4 226,0.4 226,34.7 
			234.5,34.7 		"/>
		<path fill="#FFFFFF" d="M276.3,0c-4.8,0-9.3,1.8-12.6,5c-3.3,3.3-5.2,7.7-5.2,12.6s1.8,9.3,5.2,12.6c3.3,3.2,7.8,5,12.6,5
			c4.8,0,9.3-1.8,12.6-5c3.3-3.3,5.2-7.7,5.2-12.6s-1.8-9.3-5.2-12.6C285.6,1.8,281.1,0,276.3,0z M276.3,27.4c-5.3,0-9-4-9-9.8
			s3.7-9.8,9-9.8c5.3,0,9,4,9,9.8S281.6,27.4,276.3,27.4z"/>
		<path fill="#FFFFFF" d="M330.9,13.6c0-4.1-1.4-7.5-4.2-9.8c-2.7-2.2-6.5-3.4-11.3-3.4h-9.9v34.3h8.5v-8.1h1.4c0.5,0,1,0,1.4-0.1
			l5.3,8.1h10L325,24.1C328.9,21.9,330.9,18.4,330.9,13.6z M314.1,8.2h1.2c5,0,6.9,1.5,6.9,5.5c0,4-1.8,5.4-6.9,5.4h-1.2V8.2z"/>
	</g>
	<g>
		<polygon fill="#5596C0" points="53.6,65.3 54.5,57.3 46.5,65.3 45.5,68.1 39.1,57 31.2,65 28.6,70.5 16.6,57.3 8.7,65.3 
			21.3,99.9 23.2,99.9 31.2,91.9 33.4,84.4 40.6,99.9 42.5,99.9 50.5,91.9 52.9,71.1 55,65.3 		"/>
		<path fill="#5596C0" d="M133.7,79.7l4.6-11l-21.9-11.5l-8,8v34.3h8.5l4.9-4.9l3.2,4.9h10l8-8l-9.9-8.7
			C133.4,81.9,133.6,80.9,133.7,79.7z"/>
		<path fill="#5596C0" d="M74.6,61.9l-8,8c-3.3,3.3-5.2,7.7-5.2,12.6s1.8,9.3,5.2,12.6c3.3,3.2,7.8,5,12.6,5s9.3-1.8,12.6-5l8-8
			l0.9-7.7l-6.4-16.2L74.6,61.9z"/>
		<path fill="#5596C0" d="M193.6,60.2l-7.6,7.5c-1.8,1.7-2.8,4.1-2.8,6.9c0,4.9,2.4,7.6,5.5,9.4l-7,7L168,81.1l1.5-10.6l3.9-5.2
			h-3.1l1.2-8l-8,8l-2.6,3.5l-7.5-11.5l-8,8v34.3h8.5l6.2-6.2l4.2,6.2h10.3l6.7-6.7c2.4,4.6,7.1,7.2,12.9,7.2
			c4.6,0,8.2-1.6,10.2-4.3l6.5-6.4l-6.4-17.8l8-8L193.6,60.2z"/>
		<polygon fill="#5596C0" points="237.8,65.3 237.8,73.9 233.8,73.9 225.2,57.3 217.3,65.3 217.3,99.6 225.8,99.6 233.8,91.6 
			232.7,89.7 237.8,89.7 237.8,99.6 246.4,99.6 254.3,91.6 245.8,57.3 		"/>
		<path fill="#5596C0" d="M271,61.9l-8,8c-3.3,3.3-5.2,7.7-5.2,12.6s1.8,9.3,5.2,12.6c3.3,3.2,7.8,5,12.6,5c4.8,0,9.3-1.8,12.6-5
			l8-8l-1.9-21.2L271,61.9z"/>
		<path fill="#5596C0" d="M304.8,65.3v34.3h8.5l8-8l-0.3-0.3c1.9-0.6,3.6-1.5,4.9-2.6l0,0l0,0c0.4-0.4,0.9-0.8,1.2-1.2l7-7V68.8
			l-21.4-11.5L304.8,65.3z"/>
		<path fill="#5596C0" d="M350.7,60.2l-7.4,7.4c-1.9,1.7-3,4.2-3,7.1c0,4.9,2.4,7.6,5.5,9.4l-7.8,7.8l0.4,0.8
			c2.4,4.7,7.1,7.3,13,7.3c4.3,0,7.7-1.4,9.8-3.8l7.5-7.4l-6.9-17.3l8-8L350.7,60.2z"/>
		<path fill="#FFFFFF" d="M49.6,70.9c-0.3,0.8-0.6,1.8-0.9,2.8c-0.3-1-0.7-2-1.1-2.9L41,57h-1.8l-6.5,13.8c-0.4,0.9-0.8,1.9-1.1,2.9
			c-0.3-1-0.6-2-0.9-2.8l-4.9-13.6h-9l12.7,34.6h1.9L39,75.7c0.3-0.7,0.7-1.6,1-2.4c0.3,0.8,0.7,1.7,1,2.4l7.6,16.2h1.9l12.5-34.6
			h-8.5L49.6,70.9z"/>
		<path fill="#FFFFFF" d="M87.2,56.9c-4.8,0-9.3,1.8-12.6,5c-3.3,3.3-5.2,7.7-5.2,12.6s1.8,9.3,5.2,12.6c3.3,3.2,7.8,5,12.6,5
			s9.3-1.8,12.6-5c3.3-3.3,5.2-7.7,5.2-12.6s-1.8-9.3-5.2-12.6C96.5,58.6,92,56.9,87.2,56.9z M87.2,84.2c-5.3,0-9-4-9-9.8
			c0-5.7,3.7-9.8,9-9.8s9,4,9,9.8C96.2,80.2,92.5,84.2,87.2,84.2z"/>
		<path fill="#FFFFFF" d="M141.7,70.5c0-4.1-1.4-7.5-4.2-9.8c-2.7-2.2-6.5-3.4-11.3-3.4h-9.9v34.3h8.5v-8.1h1.4c0.5,0,1,0,1.4-0.1
			l5.3,8.1h10l-7.1-10.7C139.8,78.8,141.7,75.3,141.7,70.5z M124.9,65h1.2c5,0,6.9,1.5,6.9,5.5c0,4-1.8,5.4-6.9,5.4h-1.2V65z"/>
		<path fill="#FFFFFF" d="M181.3,57.3h-9.9l-8.9,12c-0.2,0.3-0.5,0.6-0.7,1c0-0.3,0-0.6,0-0.8V57.3h-8.5v34.3h8.5V82l2.1-2.6
			l8.2,12.1h10.3l-12.8-18.7L181.3,57.3z"/>
		<path fill="#FFFFFF" d="M204.8,70.5l-1.7-0.7c-2.9-1.2-3.5-1.8-3.5-3.2c0-1.2,0.9-1.9,2.3-1.9c1.3,0,2.4,0.4,3.5,2.4l0.5,0.9
			l6.8-4.3l-0.4-0.8c-2.3-4-5.5-5.8-10.3-5.8c-6.3,0-10.7,4-10.7,9.8c0,6.4,4.1,9,8.6,10.9l1.7,0.7c3.3,1.4,4.3,2,4.3,3.6
			c0,1.4-1.4,2.4-3.6,2.4c-2.5,0-4.2-1.1-5.8-3.6l-0.5-0.8l-7,4l0.4,0.8c2.4,4.7,7.1,7.3,13,7.3c7.3,0,12-4,12-10.2
			c0-2.9-0.8-5.2-2.6-7.1C210.2,73.2,208.2,71.9,204.8,70.5z"/>
		<polygon fill="#FFFFFF" points="245.8,73.9 233.8,73.9 233.8,57.3 225.2,57.3 225.2,91.6 233.8,91.6 233.8,81.7 245.8,81.7 
			245.8,91.6 254.3,91.6 254.3,57.3 245.8,57.3 		"/>
		<path fill="#FFFFFF" d="M283.5,56.9c-4.8,0-9.3,1.8-12.6,5c-3.3,3.3-5.2,7.7-5.2,12.6s1.8,9.3,5.2,12.6c3.3,3.2,7.8,5,12.6,5
			c4.8,0,9.3-1.8,12.6-5c3.3-3.3,5.2-7.7,5.2-12.6s-1.8-9.3-5.2-12.6C292.8,58.6,288.3,56.9,283.5,56.9z M283.5,84.2
			c-5.3,0-9-4-9-9.8c0-5.7,3.7-9.8,9-9.8c5.3,0,9,4,9,9.8C292.5,80.2,288.8,84.2,283.5,84.2z"/>
		<path fill="#FFFFFF" d="M322.6,57.3h-9.9v34.3h8.5v-7.4h1.4c9.5,0,15.4-5.1,15.4-13.4C338.1,62.5,332.2,57.3,322.6,57.3z
			 M321.3,65h1.2c6.1,0,6.9,3.1,6.9,5.8c0,4-2.1,5.7-6.9,5.7h-1.2V65z"/>
		<path fill="#FFFFFF" d="M361.9,70.5l-1.7-0.7c-2.9-1.2-3.5-1.8-3.5-3.2c0-1.2,0.9-1.9,2.3-1.9c1.3,0,2.4,0.4,3.5,2.4l0.5,0.9
			l6.8-4.3l-0.4-0.8c-2.3-4-5.5-5.8-10.3-5.8c-6.3,0-10.7,4-10.7,9.8c0,6.4,4.1,9,8.6,10.9l1.7,0.7c3.3,1.4,4.3,2,4.3,3.6
			c0,1.4-1.4,2.4-3.6,2.4c-2.5,0-4.2-1.1-5.8-3.6l-0.5-0.8l-7,4l0.4,0.8c2.4,4.7,7.1,7.3,13,7.3c7.3,0,12-4,12-10.2
			c0-2.9-0.8-5.2-2.6-7.1C367.3,73.2,365.3,71.9,361.9,70.5z"/>
	</g>
</g>
</svg>
