<?xml version="1.0" encoding="utf-8"?>
<!-- Generator: Adobe Illustrator 18.0.0, SVG Export Plug-In . SVG Version: 6.00 Build 0)  -->
<!DOCTYPE svg PUBLIC "-//W3C//DTD SVG 1.1//EN" "http://www.w3.org/Graphics/SVG/1.1/DTD/svg11.dtd">
<svg version="1.1" id="Layer_1" xmlns="http://www.w3.org/2000/svg" xmlns:xlink="http://www.w3.org/1999/xlink" x="0px" y="0px"
	 viewBox="0 0 340 100" enable-background="new 0 0 340 100" xml:space="preserve">
<g>
	<g>
		<polygon fill="#5596C0" points="79.9,36.9 79.9,47.5 73.9,48.1 67.3,29 59.4,36.9 59.4,71 67.9,71 75.8,63.1 74.7,61.2 79.9,61.2 
			79.9,71 88.4,71 96.3,63.1 87.8,29 		"/>
		<path fill="#5596C0" d="M112.9,33.5l-7.9,7.9c-3.3,3.2-5.2,7.7-5.2,12.5s1.8,9.3,5.2,12.5c3.3,3.2,7.7,5,12.5,5
			c4.8,0,9.2-1.8,12.5-5l7.9-7.9l0.4-6.8l-6-17.3L112.9,33.5z"/>
		<polygon fill="#5596C0" points="142.8,36.9 142.8,44.6 152,44.6 152,71 160.5,71 168.4,63.1 164.7,44.6 169.7,44.6 177.6,36.6 
			150.7,29 		"/>
		<polygon fill="#5596C0" points="209.8,52.6 197.4,48.5 195.5,44.6 203.6,44.6 211.5,36.6 188.3,29 180.4,36.9 180.4,71 204.3,71 
			212.2,63.1 201.9,60.5 		"/>
		<polygon fill="#5596C0" points="224.1,29 216.2,36.9 216.2,71 239.4,71 247.3,63.1 232.5,58.2 		"/>
		<path fill="#5596C0" d="M275.5,50l-10.4-3.1l6-3.8l-0.4-0.8c-0.1-0.2-0.2-0.4-0.4-0.6l8.7-6.6L260,31.8l-6.6,6.8l0,0
			c-2.3,1.7-3.7,4.4-3.7,7.6c0,4.9,2.4,7.5,5.5,9.4l-7.9,7.5l0.4,0.1l-0.3,0.2l0.4,0.8c2.3,4.6,7.1,7.3,12.9,7.3
			c3.4,0,6.3-0.9,8.3-2.5h0h0c0.6-0.5,1.1-1,1.6-1.6l6.9-6.9L275.5,50z"/>
	</g>
	<g>
		<polygon fill="#FFFFFF" points="87.8,45.5 75.8,45.5 75.8,29 67.3,29 67.3,63.1 75.8,63.1 75.8,53.3 87.8,53.3 87.8,63.1 
			96.3,63.1 96.3,29 87.8,29 		"/>
		<path fill="#FFFFFF" d="M137.9,33.5c-3.3-3.2-7.7-5-12.5-5c-4.8,0-9.2,1.8-12.5,5c-3.3,3.2-5.2,7.7-5.2,12.5s1.8,9.3,5.2,12.5
			c3.3,3.2,7.7,5,12.5,5c4.8,0,9.2-1.8,12.5-5c3.3-3.2,5.2-7.7,5.2-12.5S141.2,36.7,137.9,33.5z M125.4,55.8c-5.3,0-9-4-9-9.7
			s3.7-9.7,9-9.7s9,4,9,9.7S130.7,55.8,125.4,55.8z"/>
		<polygon fill="#FFFFFF" points="150.7,36.6 159.9,36.6 159.9,63.1 168.4,63.1 168.4,36.6 177.6,36.6 177.6,29 150.7,29 		"/>
		<polygon fill="#FFFFFF" points="196.8,52.6 209.8,52.6 209.8,45.1 196.8,45.1 196.8,36.6 211.5,36.6 211.5,29 188.3,29 
			188.3,63.1 212.2,63.1 212.2,55.4 196.8,55.4 		"/>
		<polygon fill="#FFFFFF" points="232.6,29 224.1,29 224.1,63.1 247.3,63.1 247.3,55.4 232.6,55.4 		"/>
		<path fill="#FFFFFF" d="M280.6,53.4c0-2.9-0.8-5.2-2.5-7c-1.4-1.6-3.5-2.8-6.9-4.3l-1.7-0.7c-2.9-1.2-3.5-1.8-3.5-3.2
			c0-1.2,0.9-1.9,2.3-1.9c1.3,0,2.4,0.4,3.5,2.4l0.5,0.9l6.7-4.3l-0.4-0.8c-2.2-4-5.5-5.8-10.3-5.8c-6.3,0-10.7,4-10.7,9.7
			c0,6.4,4.1,9,8.5,10.9l1.7,0.7c3.2,1.4,4.3,2,4.3,3.6c0,1.4-1.4,2.4-3.6,2.4c-2.5,0-4.2-1.1-5.8-3.6l-0.5-0.8l-7,4l0.4,0.8
			c2.3,4.6,7.1,7.3,12.9,7.3C275.9,63.6,280.6,59.6,280.6,53.4z"/>
	</g>
</g>
</svg>
