<svg xmlns="http://www.w3.org/2000/svg" viewBox="0 0 340 100"><g fill="#5596C0"><path d="M79.9 36.9v10.6l-6 .6L67.3 29l-7.9 7.9V71h8.5l7.9-7.9-1.1-1.9h5.2V71h8.5l7.9-7.9L87.8 29zM112.9 33.5l-7.9 7.9c-3.3 3.2-5.2 7.7-5.2 12.5s1.8 9.3 5.2 12.5c3.3 3.2 7.7 5 12.5 5s9.2-1.8 12.5-5l7.9-7.9.4-6.8-6-17.3-19.4-.9zM142.8 36.9v7.7h9.2V71h8.5l7.9-7.9-3.7-18.5h5l7.9-8-26.9-7.6zM209.8 52.6l-12.4-4.1-1.9-3.9h8.1l7.9-8-23.2-7.6-7.9 7.9V71h23.9l7.9-7.9-10.3-2.6zM224.1 29l-7.9 7.9V71h23.2l7.9-7.9-14.8-4.9zM275.5 50l-10.4-3.1 6-3.8-.4-.8c-.1-.2-.2-.4-.4-.6l8.7-6.6-19-3.3-6.6 6.8c-2.3 1.7-3.7 4.4-3.7 7.6 0 4.9 2.4 7.5 5.5 9.4l-7.9 7.5.4.1-.3.2.4.8c2.3 4.6 7.1 7.3 12.9 7.3 3.4 0 6.3-.9 8.3-2.5.6-.5 1.1-1 1.6-1.6l6.9-6.9-2-10.5z"/></g><g fill="#FFF"><path d="M87.8 45.5h-12V29h-8.5v34.1h8.5v-9.8h12v9.8h8.5V29h-8.5zM137.9 33.5c-3.3-3.2-7.7-5-12.5-5s-9.2 1.8-12.5 5c-3.3 3.2-5.2 7.7-5.2 12.5s1.8 9.3 5.2 12.5c3.3 3.2 7.7 5 12.5 5s9.2-1.8 12.5-5c3.3-3.2 5.2-7.7 5.2-12.5s-1.9-9.3-5.2-12.5zm-12.5 22.3c-5.3 0-9-4-9-9.7s3.7-9.7 9-9.7 9 4 9 9.7-3.7 9.7-9 9.7zM150.7 36.6h9.2v26.5h8.5V36.6h9.2V29h-26.9zM196.8 52.6h13v-7.5h-13v-8.5h14.7V29h-23.2v34.1h23.9v-7.7h-15.4zM232.6 29h-8.5v34.1h23.2v-7.7h-14.7zM280.6 53.4c0-2.9-.8-5.2-2.5-7-1.4-1.6-3.5-2.8-6.9-4.3l-1.7-.7c-2.9-1.2-3.5-1.8-3.5-3.2 0-1.2.9-1.9 2.3-1.9 1.3 0 2.4.4 3.5 2.4l.5.9 6.7-4.3-.4-.8c-2.2-4-5.5-5.8-10.3-5.8-6.3 0-10.7 4-10.7 9.7 0 6.4 4.1 9 8.5 10.9l1.7.7c3.2 1.4 4.3 2 4.3 3.6 0 1.4-1.4 2.4-3.6 2.4-2.5 0-4.2-1.1-5.8-3.6l-.5-.8-7 4 .4.8c2.3 4.6 7.1 7.3 12.9 7.3 7.4-.1 12.1-4.1 12.1-10.3z"/></g></svg>