<?xml version="1.0" encoding="utf-8"?>
<!-- Generator: Adobe Illustrator 18.0.0, SVG Export Plug-In . SVG Version: 6.00 Build 0)  -->
<!DOCTYPE svg PUBLIC "-//W3C//DTD SVG 1.1//EN" "http://www.w3.org/Graphics/SVG/1.1/DTD/svg11.dtd">
<svg version="1.1" id="Layer_1" xmlns="http://www.w3.org/2000/svg" xmlns:xlink="http://www.w3.org/1999/xlink" x="0px" y="0px"
	 viewBox="0 0 340 100" enable-background="new 0 0 340 100" xml:space="preserve">
<g>
	<g>
		<path fill="#5596C0" d="M78.9,48.1l0.5,0.8l6.6-4.7l7.9-7.9l-25.7-3.7l-8.8,8.8c-3.3,3.2-5.1,7.7-5.1,12.5c0,4.8,1.8,9.3,5.1,12.5
			c3.3,3.2,7.7,5,12.4,5c4.2,0,7.9-1.2,10.8-3.6l0,0l0,0c0.8-0.7,1.6-1.4,2.3-2.3l5.8-5.8l-18.5-3l-3.7-11.9c1-0.4,2.1-0.6,3.4-0.6
			C75.8,44.3,77.9,46.4,78.9,48.1z"/>
		<path fill="#5596C0" d="M31.8,31.8l-7.1,7.1c-2,1.7-3.3,4.2-3.3,7.2c0,4.9,2.4,7.5,5.5,9.4l-7.8,7.8l0.4,0.8
			c2.3,4.6,7.1,7.3,12.9,7.3c3.8,0,6.9-1.1,8.9-3l0,0l0,0c0.2-0.2,0.4-0.4,0.6-0.6l6.9-6.9l-0.8-8.1l-12.1-5.5l6.7-4.3l-0.4-0.8
			c0,0,0-0.1-0.1-0.1l8.4-7L31.8,31.8z"/>
		<polygon fill="#5596C0" points="117.5,36.9 117.5,48.5 113.1,49.3 104.9,28.9 97,36.9 97,71 105.5,71 113.4,63.1 113,61.2 
			117.5,61.2 117.5,71 126,71 133.9,63.1 125.4,28.9 		"/>
		<polygon fill="#5596C0" points="167.9,52.6 156.4,48.1 153.4,44.5 161.7,44.5 169.7,36.6 146.4,28.9 138.5,36.9 138.5,71 
			162.4,71 170.3,63.1 160,60.5 		"/>
		<path fill="#5596C0" d="M182.3,28.9l-7.9,7.9V71h10.9c5.4,0,10-1.9,13.2-5l0,0l9.3-9.5l-4-18.1L182.3,28.9z M192.8,58l0.7,0.7
			c-0.2,0.3-0.3,0.7-0.5,1L192.8,58z"/>
		<path fill="#5596C0" d="M241.8,28.9l-7.9,7.9v20l-1.9,2.1l-9.7-30l-7.9,7.9v21.6c0,8,5.4,13,14,13c4,0,7.2-1.1,9.6-3l0,0l0,0
			c0.6-0.5,1.1-1,1.6-1.6l7.9-7.9L241.8,28.9z"/>
		<polygon fill="#5596C0" points="262.7,28.9 254.7,36.9 254.7,71 277.9,71 285.8,63.1 269.7,57.5 		"/>
		<polygon fill="#5596C0" points="310.5,60.5 318.4,52.6 304.6,48.7 304.6,44.5 312.2,44.5 320.2,36.6 296.9,28.9 289,36.9 289,71 
			312.9,71 320.8,63.1 		"/>
	</g>
	<g>
		<path fill="#FFFFFF" d="M52.4,53.3c0-2.9-0.8-5.2-2.5-7c-1.4-1.6-3.5-2.8-6.9-4.3l-1.7-0.7c-2.9-1.2-3.5-1.8-3.5-3.2
			c0-1.2,0.9-1.9,2.3-1.9c1.3,0,2.4,0.4,3.5,2.4l0.5,0.9l6.7-4.3l-0.4-0.8c-2.2-4-5.5-5.8-10.3-5.8c-6.3,0-10.7,4-10.7,9.7
			c0,6.4,4.1,9,8.5,10.9l1.7,0.7c3.2,1.4,4.3,2,4.3,3.6c0,1.4-1.4,2.4-3.6,2.4c-2.5,0-4.2-1.1-5.8-3.6L34,51.4l-7,4l0.4,0.8
			c2.3,4.6,7.1,7.3,12.9,7.3C47.7,63.5,52.4,59.5,52.4,53.3z"/>
		<path fill="#FFFFFF" d="M79.8,63.5c6.2,0,11.1-2.6,14.3-7.6l0.5-0.8l-6.7-4.6l-0.5,0.8c-2,3-4.2,4.3-7.5,4.3c-5.2,0-8.9-4-8.9-9.7
			c0-5.7,3.6-9.6,8.9-9.6c3.9,0,6,2.1,7.1,3.8l0.5,0.8l6.6-4.7l-0.5-0.7c-3-4.7-7.5-7-13.7-7c-4.8,0-9.2,1.8-12.4,5
			c-3.3,3.2-5.1,7.7-5.1,12.5c0,4.8,1.8,9.3,5.1,12.5C70.6,61.8,75,63.5,79.8,63.5z"/>
		<polygon fill="#FFFFFF" points="113.4,53.3 125.4,53.3 125.4,63.1 133.9,63.1 133.9,28.9 125.4,28.9 125.4,45.5 113.4,45.5 
			113.4,28.9 104.9,28.9 104.9,63.1 113.4,63.1 		"/>
		<polygon fill="#FFFFFF" points="170.3,55.4 154.9,55.4 154.9,52.6 167.9,52.6 167.9,45 154.9,45 154.9,36.6 169.7,36.6 
			169.7,28.9 146.4,28.9 146.4,63.1 170.3,63.1 		"/>
		<path fill="#FFFFFF" d="M182.3,63.1h10.9c10.6,0,17.9-7,17.9-17.1c0-4.9-1.8-9.2-5.1-12.3c-3.2-3.1-7.8-4.8-12.9-4.8h-10.9V63.1z
			 M192.8,36.6c6.1,0,9.5,3.3,9.5,9.4s-3.4,9.4-9.5,9.4h-2V36.6H192.8z"/>
		<path fill="#FFFFFF" d="M250.3,50.5V28.9h-8.5v21.2c0,4.1-1.5,5.6-5.4,5.6c-4,0-5.5-1.5-5.5-5.6V28.9h-8.5v21.6c0,8,5.4,13,14,13
			C244.9,63.5,250.3,58.5,250.3,50.5z"/>
		<polygon fill="#FFFFFF" points="285.8,55.4 271.2,55.4 271.2,28.9 262.7,28.9 262.7,63.1 285.8,63.1 		"/>
		<polygon fill="#FFFFFF" points="320.8,55.4 305.4,55.4 305.4,52.6 318.4,52.6 318.4,45 305.4,45 305.4,36.6 320.2,36.6 
			320.2,28.9 296.9,28.9 296.9,63.1 320.8,63.1 		"/>
	</g>
</g>
</svg>
