<svg xmlns="http://www.w3.org/2000/svg" viewBox="0 0 340 100"><g fill="#5596C0"><path d="M78.9 48.1l.5.8 6.6-4.7 7.9-7.9-25.7-3.7-8.8 8.8c-3.3 3.2-5.1 7.7-5.1 12.5s1.8 9.3 5.1 12.5c3.3 3.2 7.7 5 12.4 5 4.2 0 7.9-1.2 10.8-3.6.8-.7 1.6-1.4 2.3-2.3l5.8-5.8-18.5-3-3.7-11.9c1-.4 2.1-.6 3.4-.6 3.9.1 6 2.2 7 3.9zM31.8 31.8l-7.1 7.1c-2 1.7-3.3 4.2-3.3 7.2 0 4.9 2.4 7.5 5.5 9.4l-7.8 7.8.4.8c2.3 4.6 7.1 7.3 12.9 7.3 3.8 0 6.9-1.1 8.9-3l.6-.6 6.9-6.9-.8-8.1-12.1-5.5 6.7-4.3-.4-.8s0-.1-.1-.1l8.4-7-18.7-3.3zM117.5 36.9v11.6l-4.4.8-8.2-20.4-7.9 8V71h8.5l7.9-7.9-.4-1.9h4.5V71h8.5l7.9-7.9-8.5-34.2zM167.9 52.6l-11.5-4.5-3-3.6h8.3l8-7.9-23.3-7.7-7.9 8V71h23.9l7.9-7.9-10.3-2.6zM182.3 28.9l-7.9 7.9V71h10.9c5.4 0 10-1.9 13.2-5l9.3-9.5-4-18.1-21.5-9.5zM192.8 58l.7.7c-.2.3-.3.7-.5 1l-.2-1.7zM241.8 28.9l-7.9 7.9v20l-1.9 2.1-9.7-30-7.9 7.9v21.6c0 8 5.4 13 14 13 4 0 7.2-1.1 9.6-3 .6-.5 1.1-1 1.6-1.6l7.9-7.9-5.7-30zM262.7 28.9l-8 8V71h23.2l7.9-7.9-16.1-5.6zM310.5 60.5l7.9-7.9-13.8-3.9v-4.2h7.6l8-7.9-23.3-7.7-7.9 8V71h23.9l7.9-7.9z"/></g><g fill="#FFF"><path d="M52.4 53.3c0-2.9-.8-5.2-2.5-7-1.4-1.6-3.5-2.8-6.9-4.3l-1.7-.7c-2.9-1.2-3.5-1.8-3.5-3.2 0-1.2.9-1.9 2.3-1.9 1.3 0 2.4.4 3.5 2.4l.5.9 6.7-4.3-.4-.8c-2.2-4-5.5-5.8-10.3-5.8-6.3 0-10.7 4-10.7 9.7 0 6.4 4.1 9 8.5 10.9l1.7.7c3.2 1.4 4.3 2 4.3 3.6 0 1.4-1.4 2.4-3.6 2.4-2.5 0-4.2-1.1-5.8-3.6l-.5-.9-7 4 .4.8c2.3 4.6 7.1 7.3 12.9 7.3 7.4 0 12.1-4 12.1-10.2zM79.8 63.5c6.2 0 11.1-2.6 14.3-7.6l.5-.8-6.7-4.6-.5.8c-2 3-4.2 4.3-7.5 4.3-5.2 0-8.9-4-8.9-9.7 0-5.7 3.6-9.6 8.9-9.6 3.9 0 6 2.1 7.1 3.8l.5.8 6.6-4.7-.5-.7c-3-4.7-7.5-7-13.7-7-4.8 0-9.2 1.8-12.4 5-3.3 3.2-5.1 7.7-5.1 12.5s1.8 9.3 5.1 12.5c3.1 3.3 7.5 5 12.3 5zM113.4 53.3h12v9.8h8.5V28.9h-8.5v16.6h-12V28.9h-8.5v34.2h8.5zM170.3 55.4h-15.4v-2.8h13V45h-13v-8.4h14.8v-7.7h-23.3v34.2h23.9zM182.3 63.1h10.9c10.6 0 17.9-7 17.9-17.1 0-4.9-1.8-9.2-5.1-12.3-3.2-3.1-7.8-4.8-12.9-4.8h-10.9v34.2zm10.5-26.5c6.1 0 9.5 3.3 9.5 9.4s-3.4 9.4-9.5 9.4h-2V36.6h2zM250.3 50.5V28.9h-8.5v21.2c0 4.1-1.5 5.6-5.4 5.6-4 0-5.5-1.5-5.5-5.6V28.9h-8.5v21.6c0 8 5.4 13 14 13 8.5 0 13.9-5 13.9-13zM285.8 55.4h-14.6V28.9h-8.5v34.2h23.1zM320.8 55.4h-15.4v-2.8h13V45h-13v-8.4h14.8v-7.7h-23.3v34.2h23.9z"/></g></svg>