<?xml version="1.0" encoding="utf-8"?>
<!-- Generator: Adobe Illustrator 18.0.0, SVG Export Plug-In . SVG Version: 6.00 Build 0)  -->
<!DOCTYPE svg PUBLIC "-//W3C//DTD SVG 1.1//EN" "http://www.w3.org/Graphics/SVG/1.1/DTD/svg11.dtd">
<svg version="1.1" id="Layer_1" xmlns="http://www.w3.org/2000/svg" xmlns:xlink="http://www.w3.org/1999/xlink" x="0px" y="0px"
	 viewBox="0 0 340 100" enable-background="new 0 0 340 100" xml:space="preserve">
<g>
	<g>
		<polygon fill="#5596C0" points="104.9,36.8 106.4,28.9 98.5,36.8 96.6,41.1 82.5,28.9 74.6,36.8 90.1,71.3 92,71.3 99.9,63.3 
			103.4,45.1 107,36.8 		"/>
		<polygon fill="#5596C0" points="146,52.5 133.3,47.3 131.9,44.5 139.9,44.5 147.8,36.6 124.5,28.9 116.6,36.8 116.6,71 140.5,71 
			148.4,63.1 138.1,60.5 		"/>
		<polygon fill="#5596C0" points="172.8,36.8 172.8,42.3 160.4,28.6 152.5,36.5 152.5,71 160.5,71 168.5,63.1 167.4,60.5 
			178.9,71.3 180.9,71.3 188.8,63.3 180.7,28.9 		"/>
		<path fill="#5596C0" d="M220.7,28.9l-7.9,7.9v20.5h-2l-9.5-28.4l-7.9,7.9v21.6c0,8,5.4,13,14,13c4,0,7.3-1.1,9.7-3.1l0,0l0,0
			c0.5-0.4,1-0.9,1.5-1.5l8-8.1L220.7,28.9z"/>
		<polygon fill="#5596C0" points="255.1,60.5 263,52.5 247.5,46.2 247.2,44.5 256.9,44.5 264.8,36.6 241.5,28.9 233.6,36.8 
			233.6,71 257.5,71 265.4,63.1 		"/>
	</g>
	<g>
		<path fill="#FFFFFF" d="M100.8,41.9c-0.6,1.3-1.2,3.1-1.6,4.5c-0.5-1.4-1.1-3.2-1.7-4.5l-5.8-13h-9.2l15.6,34.5h1.9l15-34.5h-8.5
			L100.8,41.9z"/>
		<polygon fill="#FFFFFF" points="133,52.5 146,52.5 146,45 133,45 133,36.6 147.8,36.6 147.8,28.9 124.5,28.9 124.5,63.1 
			148.4,63.1 148.4,55.4 133,55.4 		"/>
		<path fill="#FFFFFF" d="M180.7,43.4c0,0.9,0.1,1.9,0.1,2.9c-0.6-0.8-1.3-1.5-2-2.1l-16.6-15.6h-2v34.5h8.1V48.6
			c0-0.9-0.1-1.9-0.1-2.9c0.6,0.7,1.3,1.5,2,2.1l16.6,15.6h2V28.9h-8.1V43.4z"/>
		<path fill="#FFFFFF" d="M220.7,50.1c0,4.1-1.5,5.6-5.4,5.6c-4,0-5.5-1.5-5.5-5.6V28.9h-8.5v21.6c0,8,5.4,13,14,13
			c8.6,0,13.9-5,13.9-13V28.9h-8.5V50.1z"/>
		<polygon fill="#FFFFFF" points="250,55.4 250,52.5 263,52.5 263,45 250,45 250,36.6 264.8,36.6 264.8,28.9 241.5,28.9 241.5,63.1 
			265.4,63.1 265.4,55.4 		"/>
	</g>
</g>
</svg>
