<svg xmlns="http://www.w3.org/2000/svg" viewBox="0 0 340 100"><g fill="#5596C0"><path d="M104.9 36.8l1.5-7.9-7.9 7.9-1.9 4.3-14.1-12.2-7.9 7.9 15.5 34.5H92l7.9-8 3.5-18.2 3.6-8.3zM146 52.5l-12.7-5.2-1.4-2.8h8l7.9-7.9-23.3-7.7-7.9 7.9V71h23.9l7.9-7.9-10.3-2.6zM172.8 36.8v5.5l-12.4-13.7-7.9 7.9V71h8l8-7.9-1.1-2.6 11.5 10.8h2l7.9-8-8.1-34.4zM220.7 28.9l-7.9 7.9v20.5h-2l-9.5-28.4-7.9 7.9v21.6c0 8 5.4 13 14 13 4 0 7.3-1.1 9.7-3.1.5-.4 1-.9 1.5-1.5l8-8.1-5.9-29.8zM255.1 60.5l7.9-8-15.5-6.3-.3-1.7h9.7l7.9-7.9-23.3-7.7-7.9 7.9V71h23.9l7.9-7.9z"/></g><g fill="#FFF"><path d="M100.8 41.9c-.6 1.3-1.2 3.1-1.6 4.5-.5-1.4-1.1-3.2-1.7-4.5l-5.8-13h-9.2l15.6 34.5h1.9l15-34.5h-8.5l-5.7 13zM133 52.5h13V45h-13v-8.4h14.8v-7.7h-23.3v34.2h23.9v-7.7H133zM180.7 43.4c0 .9.1 1.9.1 2.9-.6-.8-1.3-1.5-2-2.1l-16.6-15.6h-2v34.5h8.1V48.6c0-.9-.1-1.9-.1-2.9.6.7 1.3 1.5 2 2.1l16.6 15.6h2V28.9h-8.1v14.5zM220.7 50.1c0 4.1-1.5 5.6-5.4 5.6-4 0-5.5-1.5-5.5-5.6V28.9h-8.5v21.6c0 8 5.4 13 14 13s13.9-5 13.9-13V28.9h-8.5v21.2zM250 55.4v-2.9h13V45h-13v-8.4h14.8v-7.7h-23.3v34.2h23.9v-7.7z"/></g></svg>