<svg xmlns="http://www.w3.org/2000/svg" viewBox="0 0 320 320"><path fill="#B7B19C" d="M160 290.7l24.9-14.3v14.3L160 305z"/><path fill="#E7E3CA" d="M135.4 276.4l24.6-14.3 24.9 14.3-24.9 14.3z"/><path fill="#CBB243" d="M170.5 282.4l10.4-6.1-20.8-11.9-20.7 11.9 10.3 6.1 10.4-6z"/><path fill="#A9932D" d="M170.5 282.4l-10.4-6-10.4 6 10.4 6z"/><path fill="#F4F0D7" d="M135.4 290.7v-14.3l24.6 14.3V305z"/><path fill="#E2E2D8" d="M116.2 212l1.2 1.6-.6-1.5c-.2 0-.4 0-.6-.1z"/><ellipse fill="#E8CF58" cx="160" cy="232" rx="29.3" ry="16.4"/><path fill="#E8CF58" d="M130.8 221.3h58.5V232h-58.5z"/><path fill="#86858C" d="M131.5 234.976l4.374 41.47-.398.042-4.375-41.47z"/><path fill="#A23D39" d="M138.1 231.6c-36.8-17-69.5-92.5-69.5-92.5-25-75.5 14.7-90.8 14.7-90.8h153.4s39.7 15.4 14.7 90.8c0 0-32.7 75.3-69.5 92.3l-43.8.2z"/><path fill="#B83830" d="M138 232c-19.2-8.9-37.1-33.6-48.8-52.8-12.6-20.8-20.9-39.7-21-39.9-7.2-21.6-13.3-52-2-74C73 52 83.1 48 83.2 48h153.6c.1 0 10.1 4.1 16.9 17.3 11.3 22.1 5.2 52.4-2 74-.1.2-8.3 19.1-21 39.9-11.7 19.2-29.6 43.9-48.7 52.7h-.2l-43.8.1zM83.4 48.7c-.9.4-10.1 4.5-16.5 17-11.1 21.8-5 51.9 2.1 73.4.3.7 33 75.4 69.2 92.2l43.7-.1c36.2-16.8 68.9-91.4 69.2-92.1 7.1-21.4 13.2-51.5 2.1-73.3-6.4-12.5-15.6-16.6-16.5-17H83.4z"/><path fill="#E8CF58" d="M119.8 27.1S56 25.2 81.5 134.6c0 0 13.5 51.5 61 99.4h35.2c47.4-47.8 61-99.4 61-99.4 25.5-109.4-38.1-107.7-38.1-107.7l-81.3.1"/><g fill="#B83830"><path d="M147.4 234.7s-63.6-93.8-49.8-161c13.8-67.2 49-53 49-53l27.2.1s34.8-14.4 48.6 52.9c13.8 67.2-49.8 161.1-49.8 161.1h-25.2z"/><path d="M172.8 235.1h-25.7l-.1-.2c-.2-.2-16.1-23.8-30.1-55.4-12.9-29.1-26.9-71.1-19.7-106 9.8-47.5 30.2-54.6 41.5-54.6 4.4 0 7.4 1.1 7.9 1.3l27.1.1c.5-.2 3.5-1.3 7.9-1.3 11.2 0 31.4 7.1 41.1 54.5 7.2 34.8-6.8 76.9-19.7 106-14 31.5-29.9 55.1-30.1 55.4l-.1.2zm-25.2-.8h24.8c1.5-2.2 16.6-25 29.9-55.1 12.9-29 26.8-70.9 19.7-105.5-9.6-46.9-29.4-53.9-40.3-53.9-4.6 0-7.7 1.2-7.7 1.3h-.1l-27.3-.1h-.1s-3.1-1.2-7.7-1.2c-11.1 0-31.1 7-40.8 54-7.1 34.6 6.8 76.5 19.7 105.5 13.3 30 28.4 52.9 29.9 55z"/></g><path fill="#E8CF58" d="M160.2 15c-3-.1-34.5.7-28.5 86.2 6.3 89.7 28.8 135 28.8 135v1.1s22-46.3 28.2-136c6.2-89.2-28-86.4-28.5-86.3z"/><path fill="#86858C" d="M189.08 231.984l.397.04-4.36 44.385-.397-.04zM180.665 243.555l.4.034-3.12 36.97-.398-.035zM139.39 243.497l4.448 37.638-.397.047-4.45-37.638zM148.786 247.048l5.308 40.05-.396.05-5.31-40.047zM172.298 246.874l.398.037-3.788 40.224-.398-.038zM159.8 248.5h.4v42.3h-.4z"/><g opacity=".1"><path fill="#F0F7FC" d="M236.7 49.2h-.6c-12.8-23.1-35.7-23.1-35.7-23.1h-.1c-13-11-25.8-5.8-26.5-5.6-6.9-6.5-13.5-5.4-13.7-5.4-1.2 0-7.3-.1-13.5 6.5 0 0-13.3-6.6-26.8 4.4h-.8l.6.3s-23-.3-35.8 22.8h-.6S56.6 59.6 60.6 106c34.8-8 74.9-10 99.6 11.7 28.7 25.4 66.2 23.5 93.3 17.3 20.4-71.3-16.8-85.8-16.8-85.8z"/></g><g><path fill="#DC4339" d="M130.9 227.5c1.3 5.8 14 10.3 29.4 10.3 15.1 0 27.5-4.3 29.3-9.9-17.3 8.3-43.3 9.4-58.7-.4z"/></g></svg>