<?xml version="1.0" encoding="utf-8"?>
<!-- Generator: Adobe Illustrator 18.0.0, SVG Export Plug-In . SVG Version: 6.00 Build 0)  -->
<!DOCTYPE svg PUBLIC "-//W3C//DTD SVG 1.1//EN" "http://www.w3.org/Graphics/SVG/1.1/DTD/svg11.dtd">
<svg version="1.1" id="Layer_1" xmlns="http://www.w3.org/2000/svg" xmlns:xlink="http://www.w3.org/1999/xlink" x="0px" y="0px"
	 viewBox="0 0 300 190" enable-background="new 0 0 300 190" xml:space="preserve">
<g>
	<path fill="#162636" d="M22,106c0.5,0,0.9,0,1.3,0.1c1.7,0.2,2.5,0.6,2.8,0.7c0.1,0,0.1,0.1,0.2,0.1c1,0.7,3.2,2.1,5.3,5.2
		c0.1,0.1,0.1,0.2,0.2,0.4c1.6,2.1,2.1,4.5,2.3,6.4c0.3,3.1,1,6.2,1.7,9.2c0.1,0.5,0.2,0.9,0.3,1.4c0.4,1.8,0.5,3.6,0.4,5.2
		c-0.2,1.8-0.7,3.5-1.5,5.1c-1,1.9-2.6,3.1-3.9,4l-0.8,1c-1.1,1.5-2.6,1.9-3.7,2.1c-0.1,0-0.2,0-0.4,0.1c-0.8,0.1-1.6,0.2-2.4,0.2
		c-1.6,0-3.2-0.2-4.8-0.7c-2.4-0.7-3.9-2.1-4.5-4.3c-0.3-0.9-0.7-1.8-1.1-2.7c-0.1-0.2-0.2-0.4-0.3-0.6c-0.3-0.6-0.5-1.2-0.6-1.8
		c0,0,0,0,0,0c-0.1,0-0.2,0-0.4,0c-0.3,0-0.7-0.1-1-0.3c-0.7-0.4-1.3-1.1-1.7-2c-0.5-1.3-1.1-2.6-1.8-4c-0.4-0.8-0.6-1.6-0.6-2.4
		c0-0.6,0.2-1.1,0.4-1.5c0.1-0.1,0.1-0.2,0.2-0.3l0-0.1c0-0.1-0.9-1.5-1.6-3.4c-1.1-2.7-1.4-4.8-1-6.4c0.5-1.8,1.6-3.6,3.3-5.2
		c1.7-1.7,3.9-3.1,6.4-4.1c1.3-0.5,2.5-0.9,3.8-1.2h0C20,106.1,21.1,106,22,106 M22,101c-1.4,0-2.8,0.1-4.3,0.4
		c-1.6,0.3-3.3,0.8-4.8,1.5c-3.1,1.3-5.8,3.1-8,5.2c-2.3,2.3-3.9,4.9-4.6,7.5c-0.7,2.7-0.4,5.8,1.1,9.6c0.3,0.7,0.6,1.3,0.8,1.9
		c-0.1,0.4-0.1,0.9-0.1,1.3c-0.1,1.7,0.3,3.5,1.1,5c0.6,1.1,1.1,2.4,1.6,3.5c0.8,1.9,2.1,3.5,3.8,4.5c0.1,0.1,0.1,0.3,0.2,0.4
		c0.4,0.8,0.7,1.4,0.8,2c1.1,3.8,3.9,6.6,8,7.8c2.1,0.6,4.2,0.9,6.2,0.9c1.1,0,2.2-0.1,3.2-0.3c0.2,0,0.4-0.1,0.5-0.1
		c1.1-0.2,4.3-0.8,6.7-4l0.3-0.4c1.6-1.1,3.5-2.8,4.9-5.4c1.1-2.2,1.8-4.5,2-7c0.2-2.2,0-4.5-0.5-6.8c-0.1-0.5-0.2-0.9-0.3-1.4l0,0
		c-0.6-2.9-1.3-5.8-1.6-8.6c-0.2-2.2-0.8-5.5-3-8.5c-0.1-0.2-0.2-0.4-0.4-0.6c-2.7-3.9-5.5-5.8-6.7-6.6c-0.1,0-0.1-0.1-0.2-0.1
		c-1.3-0.9-3-1.4-5.1-1.6C23.2,101,22.6,101,22,101L22,101z"/>
	<g>
		<path fill="#162636" d="M288.3,106.7c0.8,0,1.5,0.3,2,0.8c0.9,0.9,0.7,2,0.5,2.6c0.4-0.1,0.8-0.2,1.1-0.2c0.7,0,1.3,0.2,1.8,0.7
			c0.6,0.5,0.8,1.2,0.7,2c-0.1,0.5-0.3,0.9-0.4,1.2c-0.7,1.4-1.7,2.6-2.8,3.7c0.3-0.1,0.6-0.1,0.9-0.1c0.9,0,1.6,0.4,2.2,1.1
			c0.6,0.7,0.7,1.5,0.5,2.3c-0.2,0.5-0.5,1-0.8,1.3c-1.1,1.3-2.3,2.4-3.4,3.4c-0.7,0.6-1.4,1.2-2.1,1.9c-0.8,0.8-1.6,1.8-2.4,2.7
			c-1.1,1.3-2.3,2.7-3.6,3.9c-1.3,1.1-2.4,2.5-3.6,4.2c-1.1,1.6-1.6,3.3-1.4,5.1c0.1,0.9-0.1,2.3-2.1,2.8c-2,0.4-3.7,0.7-5.5,0.7
			c-0.1,0-0.2,0-0.3,0c-0.1,0-0.2,0-0.3,0c-1.6,0-3.3-0.2-5.5-0.6c-1.9-0.4-2.1-1.8-2.1-2.6c0.2-3.2-0.9-5.2-4-7.3
			c-0.4-0.3-0.7-0.5-1.1-0.8c-0.7-0.5-1.5-1-2.3-1.6c-0.8-0.6-1.6-1.4-1.7-2.5c-0.1-1.1,0.6-2,1.3-2.8c0.9-0.9,1.9-1.7,2.9-2.4
			l0.2-0.2c0.1-0.1,0.3-0.2,0.4-0.3c1.7-1.2,3.2-2.3,4.1-4c0.5-0.9,1.3-1.1,1.6-1.1c0.1,0,0.2,0,0.3,0c0.2-0.3,0.5-0.6,0.8-0.8
			c0.3-0.2,0.7-0.2,0.9-0.3c0.1,0,0.2,0,0.2,0c0.8-0.4,1.6-0.9,2.4-1.5c0.3-0.2,0.5-0.4,0.8-0.6c1.3-0.9,2.2-1.4,3.3-1.4
			c1.3,0,2.4,0.8,3.5,1.7c0.1,0.1,0.1,0.1,0.2,0.1c0.1-0.1,0.2-0.2,0.4-0.3c1.4-1.5,2.8-2.9,4.1-4.3c1.6-1.6,3-3.2,4.7-4.8
			c0.7-0.7,1.5-1.4,2.7-1.7C287.7,106.8,288,106.7,288.3,106.7 M288.2,108.2C288.2,108.2,288.2,108.2,288.2,108.2
			C288.3,108.2,288.3,108.2,288.2,108.2C288.3,108.2,288.3,108.2,288.2,108.2C288.3,108.2,288.3,108.2,288.2,108.2 M288.1,108.2
			C288.1,108.2,288.1,108.2,288.1,108.2C288.1,108.2,288.1,108.2,288.1,108.2C288.1,108.2,288.1,108.2,288.1,108.2
			C288.1,108.2,288.1,108.2,288.1,108.2 M288.5,108.2C288.5,108.2,288.6,108.2,288.5,108.2C288.6,108.2,288.5,108.2,288.5,108.2
			C288.5,108.2,288.5,108.2,288.5,108.2C288.5,108.2,288.5,108.2,288.5,108.2 M288.8,108.3C288.8,108.3,288.8,108.3,288.8,108.3
			C288.8,108.3,288.8,108.3,288.8,108.3C288.8,108.3,288.8,108.3,288.8,108.3C288.8,108.3,288.8,108.3,288.8,108.3 M289.1,108.4
			C289.1,108.4,289.1,108.4,289.1,108.4C289.1,108.4,289.1,108.4,289.1,108.4C289,108.4,289,108.4,289.1,108.4
			C289,108.4,289,108.4,289.1,108.4 M291.9,111.4C291.9,111.4,291.9,111.4,291.9,111.4C292,111.4,292,111.4,291.9,111.4
			C292,111.4,291.9,111.4,291.9,111.4C291.9,111.4,291.9,111.4,291.9,111.4 M292.2,111.4C292.1,111.4,292.1,111.4,292.2,111.4
			C292.1,111.4,292.1,111.4,292.2,111.4 M291.5,111.4C291.6,111.4,291.6,111.4,291.5,111.4C291.6,111.4,291.6,111.4,291.5,111.4
			 M292.4,111.5C292.3,111.4,292.3,111.4,292.4,111.5C292.3,111.4,292.3,111.4,292.4,111.5 M292.5,111.5
			C292.5,111.5,292.5,111.5,292.5,111.5C292.5,111.5,292.5,111.5,292.5,111.5 M290.6,111.9c0.2-0.1,0.4-0.2,0.6-0.3c0,0,0,0,0,0
			c0,0,0,0,0,0C291,111.6,290.8,111.7,290.6,111.9 M277.1,118.6C277.1,118.6,277.1,118.6,277.1,118.6
			C277.1,118.6,277.1,118.6,277.1,118.6C277.1,118.6,277.1,118.6,277.1,118.6c0.8-0.8,1.5-1.6,2.3-2.3
			C278.6,117.1,277.9,117.9,277.1,118.6C277.1,118.6,277.1,118.6,277.1,118.6 M271.9,117.6c0,0,0.1,0,0.1,0c0,0,0,0,0,0
			C272.1,117.6,272,117.6,271.9,117.6C272,117.6,272,117.6,271.9,117.6 M272.3,117.6c0,0-0.1,0-0.1,0
			C272.3,117.6,272.3,117.6,272.3,117.6 M271.8,117.6C271.8,117.6,271.8,117.6,271.8,117.6c-0.1,0-0.1,0-0.1,0
			C271.7,117.7,271.7,117.7,271.8,117.6C271.8,117.6,271.8,117.6,271.8,117.6 M272.6,117.7c0,0-0.1,0-0.1,0
			C272.5,117.7,272.6,117.7,272.6,117.7 M271.4,117.7c0.1,0,0.1,0,0.2,0C271.5,117.7,271.4,117.7,271.4,117.7 M271.2,117.8
			c0,0-0.1,0-0.1,0C271.1,117.8,271.2,117.8,271.2,117.8C271.2,117.8,271.2,117.8,271.2,117.8C271.2,117.8,271.2,117.8,271.2,117.8
			 M272.9,117.8C272.9,117.8,272.9,117.8,272.9,117.8C272.9,117.8,272.9,117.8,272.9,117.8C272.8,117.8,272.8,117.8,272.9,117.8
			C272.8,117.8,272.8,117.8,272.9,117.8 M270.8,118C270.8,118,270.8,118,270.8,118C270.8,118,270.8,118,270.8,118c0,0,0.1,0,0.1-0.1
			C270.9,117.9,270.9,117.9,270.8,118 M273.2,118c0,0-0.1,0-0.1-0.1C273.1,117.9,273.2,117.9,273.2,118 M270.4,118.2
			c0.1,0,0.1-0.1,0.2-0.1C270.6,118.1,270.5,118.1,270.4,118.2 M273.5,118.2c0,0-0.1-0.1-0.1-0.1
			C273.4,118.1,273.5,118.1,273.5,118.2 M270.1,118.4C270.1,118.4,270.1,118.4,270.1,118.4C270.1,118.4,270.1,118.4,270.1,118.4
			c0.1,0,0.1-0.1,0.2-0.1C270.2,118.3,270.2,118.3,270.1,118.4 M273.8,118.4c0,0-0.1-0.1-0.1-0.1
			C273.8,118.3,273.8,118.4,273.8,118.4 M269.9,118.5c-0.1,0.1-0.3,0.2-0.4,0.3C269.7,118.6,269.8,118.6,269.9,118.5 M274.1,118.6
			C274.2,118.6,274.2,118.6,274.1,118.6C274.2,118.6,274.2,118.6,274.1,118.6C274.1,118.6,274.1,118.6,274.1,118.6
			C274.1,118.6,274.1,118.6,274.1,118.6 M292.1,118.9C292.1,118.9,292.1,118.9,292.1,118.9C292.1,118.9,292.1,118.9,292.1,118.9
			C292.2,118.9,292.1,118.9,292.1,118.9C292.1,118.9,292.1,118.9,292.1,118.9 M291.9,118.9C291.9,118.9,291.9,118.9,291.9,118.9
			C291.9,118.9,291.9,118.9,291.9,118.9c0,0,0.1,0,0.1,0C292,118.9,292,118.9,291.9,118.9 M292.4,118.9
			C292.4,118.9,292.4,118.9,292.4,118.9C292.4,118.9,292.4,118.9,292.4,118.9C292.4,118.9,292.4,118.9,292.4,118.9
			C292.4,118.9,292.4,118.9,292.4,118.9 M291.6,118.9c0.1,0,0.1,0,0.2,0C291.7,118.9,291.7,118.9,291.6,118.9 M276.8,118.9
			C276.8,118.9,276.8,119,276.8,118.9C276.7,119,276.7,119,276.8,118.9C276.7,119,276.7,119,276.8,118.9
			C276.8,119,276.8,118.9,276.8,118.9 M291.3,119.1c0.1,0,0.2-0.1,0.2-0.1C291.5,119,291.4,119,291.3,119.1 M292.7,119
			C292.7,119,292.7,119,292.7,119C292.7,119,292.7,119,292.7,119 M292.9,119.1C292.9,119.2,293,119.2,292.9,119.1
			C293,119.2,292.9,119.2,292.9,119.1C292.9,119.1,292.9,119.1,292.9,119.1C292.9,119.1,292.9,119.1,292.9,119.1 M276.4,119.2
			C276.4,119.2,276.5,119.2,276.4,119.2C276.4,119.2,276.4,119.2,276.4,119.2 M275,119.3c0,0-0.1,0-0.1-0.1
			C275,119.2,275,119.2,275,119.3 M276.2,119.4C276.2,119.4,276.1,119.4,276.2,119.4C276.1,119.4,276.1,119.4,276.2,119.4
			C276.1,119.4,276.1,119.4,276.2,119.4C276.1,119.4,276.2,119.4,276.2,119.4 M275.3,119.4c0,0-0.1,0-0.1,0
			C275.3,119.4,275.3,119.4,275.3,119.4 M275.6,119.5C275.6,119.5,275.6,119.5,275.6,119.5C275.6,119.5,275.6,119.5,275.6,119.5
			C275.6,119.5,275.5,119.5,275.6,119.5C275.5,119.5,275.6,119.5,275.6,119.5 M275.9,119.5C275.9,119.5,275.9,119.5,275.9,119.5
			C275.9,119.5,275.9,119.5,275.9,119.5 M293.4,120.4c0-0.1,0-0.1,0-0.2C293.5,120.2,293.4,120.3,293.4,120.4 M271.1,121.9
			C271.1,121.9,271.1,121.9,271.1,121.9C271.1,121.9,271.1,121.9,271.1,121.9C271.1,121.9,271,121.9,271.1,121.9
			C271,121.9,271.1,121.9,271.1,121.9 M271.5,121.9c0,0-0.1,0-0.1,0C271.4,121.9,271.4,121.9,271.5,121.9 M271.7,122
			c0,0-0.1,0-0.1,0C271.7,122,271.7,122,271.7,122 M272,122.2C272,122.2,271.9,122.1,272,122.2C271.9,122.1,272,122.2,272,122.2
			 M263.3,122.1C263.3,122.1,263.3,122.1,263.3,122.1C263.3,122.1,263.3,122.1,263.3,122.1C263.3,122.1,263.3,122.1,263.3,122.1
			C263.3,122.1,263.3,122.1,263.3,122.1 M263.4,122.2C263.4,122.2,263.4,122.1,263.4,122.2C263.4,122.1,263.4,122.2,263.4,122.2
			 M263.2,122.1C263.2,122.2,263.2,122.2,263.2,122.1C263.2,122.2,263.2,122.2,263.2,122.1C263.2,122.2,263.2,122.2,263.2,122.1
			C263.2,122.2,263.2,122.2,263.2,122.1 M263.5,122.2C263.5,122.2,263.5,122.2,263.5,122.2C263.5,122.2,263.5,122.2,263.5,122.2
			 M263.1,122.3C263.1,122.2,263.1,122.2,263.1,122.3C263.1,122.2,263.1,122.2,263.1,122.3 M272.2,122.4
			C272.2,122.3,272.1,122.3,272.2,122.4C272.1,122.3,272.2,122.3,272.2,122.4 M263.6,122.3C263.6,122.3,263.6,122.3,263.6,122.3
			C263.6,122.3,263.6,122.3,263.6,122.3 M262.9,122.5c0-0.1,0.1-0.1,0.1-0.2C263,122.4,263,122.4,262.9,122.5 M272.4,122.6
			C272.4,122.6,272.4,122.6,272.4,122.6C272.4,122.6,272.4,122.6,272.4,122.6C272.3,122.5,272.3,122.5,272.4,122.6
			C272.3,122.5,272.3,122.5,272.4,122.6 M272.5,122.8C272.5,122.8,272.5,122.9,272.5,122.8C272.5,122.9,272.5,122.8,272.5,122.8
			C272.5,122.8,272.5,122.8,272.5,122.8C272.5,122.8,272.5,122.8,272.5,122.8 M268,123.2C268,123.2,268,123.2,268,123.2
			C268,123.2,268,123.2,268,123.2 M267.8,123.3C267.8,123.3,267.8,123.3,267.8,123.3C267.8,123.3,267.8,123.3,267.8,123.3
			C267.8,123.3,267.8,123.3,267.8,123.3C267.8,123.3,267.8,123.3,267.8,123.3 M266.7,125.1c-0.5,0-0.9-0.1-1.3-0.3c-0.4,1-1,2-1.9,3
			c-0.5,0.6-0.5,1-0.3,1.4c0.1,0.1,0.2,0.4,1.1,0.4c0,0,0.1,0,0.1,0c1.3,0,2.8-0.6,4-1.6c1.3-1,2.2-2.3,2.6-3.5
			c0.1-0.3,0.1-0.7,0.1-1.1c0,0,0-0.1,0-0.1c0,0,0,0-0.1,0c0,0-0.1,0-0.1,0c-0.5,0.1-0.9,0.4-1.5,0.7c-0.2,0.1-0.4,0.2-0.6,0.3
			l-0.1,0C268.3,124.7,267.5,125.1,266.7,125.1 M267.6,123.4C267.6,123.4,267.6,123.4,267.6,123.4
			C267.6,123.4,267.6,123.4,267.6,123.4 M267.5,123.5C267.4,123.5,267.4,123.5,267.5,123.5C267.4,123.5,267.4,123.5,267.5,123.5
			C267.4,123.5,267.4,123.5,267.5,123.5C267.4,123.5,267.4,123.5,267.5,123.5 M266.1,123.6C266.1,123.6,266.1,123.6,266.1,123.6
			C266.1,123.6,266.1,123.6,266.1,123.6 M267.3,123.6C267.3,123.6,267.2,123.6,267.3,123.6C267.2,123.6,267.3,123.6,267.3,123.6
			 M266.3,123.6C266.3,123.6,266.3,123.6,266.3,123.6C266.3,123.6,266.3,123.6,266.3,123.6 M267.1,123.6
			C267,123.6,267,123.6,267.1,123.6C267,123.6,267,123.6,267.1,123.6 M266.5,123.7C266.5,123.7,266.4,123.7,266.5,123.7
			C266.4,123.7,266.5,123.7,266.5,123.7 M266.9,123.7C266.9,123.7,266.8,123.7,266.9,123.7C266.8,123.7,266.9,123.7,266.9,123.7
			 M266.7,123.7C266.7,123.7,266.7,123.7,266.7,123.7C266.6,123.7,266.6,123.7,266.7,123.7C266.6,123.7,266.6,123.7,266.7,123.7
			C266.7,123.7,266.7,123.7,266.7,123.7 M264,124.2c0.1-0.2,0.1-0.3,0.1-0.5C264.1,123.9,264.1,124,264,124.2 M270.8,127.8
			c0.2-0.2,0.4-0.5,0.6-0.7C271.2,127.3,271,127.5,270.8,127.8 M283.8,130.5c0.7-0.8,1.4-1.7,2.2-2.5
			C285.3,128.8,284.6,129.7,283.8,130.5 M262.1,130.3C262.1,130.3,262.1,130.2,262.1,130.3C262.1,130.2,262.1,130.3,262.1,130.3
			 M267.3,130.4c-0.1,0.1-0.3,0.1-0.4,0.2c0,0,0,0,0,0c0,0,0,0,0,0C267,130.5,267.1,130.5,267.3,130.4 M262.4,130.6
			c0,0-0.1-0.1-0.1-0.1C262.3,130.5,262.4,130.5,262.4,130.6 M262.7,130.8c0,0-0.1,0-0.1-0.1C262.6,130.7,262.7,130.7,262.7,130.8
			 M262.9,130.9c0,0,0.1,0,0.1,0C263,130.9,263,130.9,262.9,130.9C262.9,130.9,262.9,130.9,262.9,130.9
			C262.9,130.9,262.9,130.9,262.9,130.9 M263.4,131c-0.1,0-0.1,0-0.2,0C263.3,131,263.4,131,263.4,131 M263.7,131
			C263.7,131.1,263.8,131.1,263.7,131C263.8,131.1,263.7,131.1,263.7,131C263.7,131,263.7,131,263.7,131
			C263.7,131,263.7,131,263.7,131 M264.2,131.1c-0.1,0-0.1,0-0.2,0C264.1,131.1,264.1,131.1,264.2,131.1 M281.5,132.9
			c0.5-0.5,1.1-1,1.6-1.5C282.6,131.9,282.1,132.4,281.5,132.9 M277.2,138c0.1-0.2,0.3-0.5,0.4-0.7c0.3-0.4,0.6-0.8,0.9-1.2
			c-0.3,0.4-0.6,0.8-0.9,1.2C277.5,137.6,277.4,137.8,277.2,138 M276,142.6c0-1.1,0.2-2.1,0.6-3.1C276.2,140.5,276,141.5,276,142.6
			 M276,143.9c0-0.1,0-0.1,0-0.2C276,143.7,276,143.8,276,143.9 M273.8,144.9C273.8,144.9,273.8,144.9,273.8,144.9
			C273.8,144.9,273.8,144.9,273.8,144.9C273.8,144.9,273.9,144.9,273.8,144.9C273.9,144.9,273.8,144.9,273.8,144.9 M265.4,144.9
			C265.4,144.9,265.4,144.9,265.4,144.9C265.4,144.9,265.4,144.9,265.4,144.9C265.4,144.9,265.4,144.9,265.4,144.9
			C265.4,144.9,265.4,144.9,265.4,144.9 M272.6,145.1C272.5,145.1,272.5,145.1,272.6,145.1C272.5,145.1,272.5,145.1,272.6,145.1
			C272.6,145.1,272.6,145.1,272.6,145.1C272.6,145.1,272.6,145.1,272.6,145.1 M266.8,145.1c0,0-0.1,0-0.1,0
			C266.7,145.1,266.7,145.1,266.8,145.1 M268,145.2C268,145.2,268,145.2,268,145.2C268,145.2,268,145.2,268,145.2
			S267.9,145.2,268,145.2C267.9,145.2,268,145.2,268,145.2 M271.2,145.2C271.2,145.2,271.2,145.2,271.2,145.2
			C271.2,145.2,271.2,145.2,271.2,145.2S271.3,145.2,271.2,145.2C271.3,145.2,271.3,145.2,271.2,145.2 M269.3,145.2
			c0.1,0,0.2,0,0.3,0c0,0,0,0,0,0c0,0,0,0,0,0c0,0,0,0,0,0c0.1,0,0.2,0,0.3,0c0,0,0.1,0,0.1,0c0,0,0,0,0,0c0,0,0,0,0,0
			c-0.1,0-0.2,0-0.3,0c0,0-0.1,0-0.1,0c0,0,0,0,0,0c0,0,0,0,0,0c0,0,0,0,0,0c0,0,0,0,0,0c0,0,0,0,0,0c0,0-0.1,0-0.1,0
			C269.4,145.2,269.3,145.2,269.3,145.2C269.2,145.2,269.2,145.2,269.3,145.2 M288.3,101.6c-0.7,0-1.4,0.1-2.1,0.3
			c-2.4,0.6-3.9,1.9-4.9,3c-1.7,1.7-3.2,3.3-4.8,4.9c-0.5,0.6-1.1,1.1-1.6,1.7c-0.8-0.3-1.8-0.5-2.8-0.5c-2.5,0-4.4,1.1-6.2,2.3
			c-0.3,0.2-0.6,0.4-0.9,0.6c-0.4,0.3-0.8,0.6-1.1,0.8c-0.5,0.1-1.1,0.3-1.7,0.6c-0.3,0.2-0.6,0.4-0.9,0.6c-1.6,0.5-3,1.7-3.9,3.3
			c-0.4,0.7-1.5,1.5-2.7,2.3l-0.4,0.3l-0.2,0.2c-1.1,0.8-2.4,1.7-3.6,3c-0.7,0.8-3,3.1-2.7,6.6c0.3,3.5,2.8,5.4,3.6,6.1
			c0.9,0.7,1.7,1.3,2.5,1.8c0.3,0.2,0.7,0.5,1,0.7c1.9,1.3,1.9,1.7,1.8,2.9c-0.2,4,2.3,7.1,6.2,7.9c2.5,0.5,4.5,0.7,6.4,0.7
			c0.1,0,0.2,0,0.3,0c0.1,0,0.2,0,0.3,0c2.2,0,4.3-0.2,6.6-0.8c4-0.9,6.4-4.2,6-8.2c0-0.4,0-0.9,0.5-1.7c0.9-1.3,1.8-2.4,2.8-3.2
			c1.6-1.4,3-3,4.1-4.4c0.8-0.9,1.5-1.7,2.1-2.4c0.5-0.5,1.1-1,1.8-1.6c1.3-1.1,2.7-2.4,4.1-4.1c0.4-0.5,1.1-1.4,1.6-2.8
			c0.7-2.2,0.4-4.7-0.9-6.6c0.3-0.6,0.6-1.5,0.8-2.5c0.3-2.4-0.5-4.8-2.4-6.4c-0.6-0.5-1.3-1-2-1.3c-0.3-0.6-0.7-1.1-1.2-1.6
			C292.5,102.5,290.4,101.6,288.3,101.6L288.3,101.6z M267,121.3l0.8-2.6c0.1,0,0.1,0,0.2,0.1l-0.9,2.6L267,121.3L267,121.3
			L267,121.3z M267.1,121.5l1.2-2.6c0,0,0.1,0,0.1,0.1L267.1,121.5L267.1,121.5L267.1,121.5z M264.9,123.8l-0.8-0.7l1.2,0.7
			L264.9,123.8L264.9,123.8z M271,124l0,2.7L271,124L271,124z M266.6,125.1l-0.3-0.2l0.3,0.1L266.6,125.1L266.6,125.1z"/>
		<path fill="#162636" d="M251.3,115.3C251.3,115.3,251.3,115.3,251.3,115.3c0.1,0,0.1,0,0.1,0c0.1,0,0.1,0,0.2,0
			c0.3,0,0.7,0,1.2,0.1c0.5,0.1,1,0.2,1.6,0.3c0.6,0.1,1.2,0.3,1.8,0.5c0.6,0.2,1.2,0.4,1.7,0.7c0.5,0.2,1,0.5,1.4,0.7
			c0.4,0.2,0.7,0.5,1,0.6c0.1,0.1,0.2,0.2,0.3,0.2c0.1,0,0.1,0.1,0.1,0.1s0,0-0.1,0c0,0,0,0,0,0c0,0-0.1,0-0.1,0c-0.1,0-0.1,0-0.2,0
			c-0.3,0-0.7,0-1.2-0.1c-0.5-0.1-1-0.2-1.6-0.3c-0.6-0.1-1.2-0.3-1.8-0.5c-0.6-0.2-1.2-0.4-1.7-0.7c-0.5-0.2-1-0.5-1.4-0.7
			c-0.4-0.2-0.7-0.5-1-0.6C251.4,115.5,251.3,115.4,251.3,115.3c-0.1,0-0.1,0-0.1,0S251.2,115.3,251.3,115.3 M251.3,110.2
			L251.3,110.2c-0.3,0-0.5,0-0.5,0l-11.6,1l8.6,7.9c0,0,0.1,0.1,0.3,0.3l0,0l0,0l0,0c0.1,0.1,0.2,0.2,0.4,0.3
			c0.3,0.2,0.8,0.5,1.4,0.9c0.6,0.3,1.2,0.7,1.9,0.9c0.6,0.3,1.4,0.6,2.1,0.8c0.8,0.3,1.5,0.5,2.2,0.7c0.7,0.2,1.4,0.3,2.1,0.4
			c0.7,0.1,1.3,0.1,1.7,0.1c0.1,0,0.3,0,0.4,0l0.1,0l0,0l0,0l0.1,0c0.3,0,0.4,0,0.4,0l11.5-1l-8.5-7.9c0,0-0.1-0.1-0.3-0.3l0,0l0,0
			l0,0c-0.1-0.1-0.2-0.2-0.4-0.3c-0.3-0.2-0.8-0.5-1.4-0.9c-0.6-0.3-1.2-0.7-1.9-1c-0.6-0.3-1.4-0.6-2.1-0.8
			c-0.8-0.3-1.5-0.5-2.2-0.6c-0.7-0.2-1.4-0.3-2.1-0.4c-0.7-0.1-1.3-0.1-1.6-0.1C251.7,110.2,251.6,110.2,251.3,110.2L251.3,110.2
			L251.3,110.2L251.3,110.2L251.3,110.2z"/>
		<path fill="#162636" d="M259.7,107.6C259.7,107.6,259.8,107.7,259.7,107.6c0.1,0.2,0.2,0.2,0.3,0.4c0.2,0.2,0.4,0.6,0.6,1
			c0.2,0.4,0.5,0.9,0.7,1.5c0.2,0.5,0.4,1.1,0.6,1.7c0.2,0.6,0.4,1.2,0.5,1.8c0.1,0.6,0.2,1.1,0.3,1.6c0.1,0.5,0.1,0.9,0.1,1.2
			c0,0.1,0,0.3,0,0.3c0,0.1,0,0.1,0,0.1s0,0-0.1-0.1c0-0.1-0.1-0.2-0.2-0.3c-0.2-0.2-0.4-0.6-0.6-1c-0.2-0.4-0.5-0.9-0.7-1.5
			c-0.2-0.5-0.4-1.1-0.6-1.7c-0.2-0.6-0.4-1.2-0.5-1.8c-0.1-0.6-0.2-1.1-0.3-1.6c-0.1-0.5-0.1-0.9-0.1-1.2c0-0.1,0-0.3,0-0.3
			C259.7,107.7,259.7,107.6,259.7,107.6 M255.9,95.5l-1.2,11.7c0,0,0,0.2,0,0.4l0,0.1l0,0l0,0c0,0.1,0,0.3,0,0.5
			c0,0.4,0,0.9,0.1,1.7c0.1,0.7,0.2,1.4,0.4,2.1c0.1,0.7,0.4,1.4,0.6,2.2l0,0l0,0c0.3,0.8,0.5,1.5,0.8,2.2c0.3,0.7,0.6,1.3,0.9,1.9
			c0.3,0.6,0.7,1.1,0.9,1.4c0.1,0.2,0.2,0.3,0.3,0.4l0,0l0,0l0,0c0.2,0.2,0.3,0.3,0.3,0.3l7.7,8.7l1.3-11.6c0,0,0-0.2,0-0.4l0-0.1
			l0,0l0,0c0-0.1,0-0.3,0-0.5c0-0.4,0-0.9-0.1-1.7c-0.1-0.7-0.2-1.4-0.4-2.1c-0.2-0.7-0.4-1.4-0.6-2.2l0,0l0,0
			c-0.3-0.8-0.5-1.5-0.8-2.2c-0.3-0.7-0.6-1.3-0.9-1.9c-0.3-0.6-0.7-1.1-0.9-1.4c-0.1-0.2-0.2-0.3-0.3-0.4l0,0l0,0l0,0
			c-0.2-0.2-0.3-0.3-0.3-0.3L255.9,95.5L255.9,95.5z"/>
		<path fill="#162636" d="M267.5,108.9C267.5,108.9,267.5,108.9,267.5,108.9c0,0.2,0,0.2,0,0.3c0,0.2,0,0.5,0,0.9
			c0,0.4-0.1,0.8-0.1,1.2c-0.1,0.4-0.2,0.9-0.3,1.3c-0.1,0.4-0.3,0.9-0.5,1.3c-0.2,0.4-0.4,0.8-0.6,1.1c-0.2,0.3-0.4,0.6-0.5,0.7
			c-0.1,0.1-0.1,0.2-0.2,0.2c0,0-0.1,0.1-0.1,0.1s0,0,0-0.1c0-0.1,0-0.1,0-0.3c0-0.2,0-0.5,0-0.9c0-0.4,0.1-0.8,0.1-1.2
			c0.1-0.4,0.2-0.9,0.3-1.3c0.1-0.4,0.3-0.9,0.5-1.3c0.2-0.4,0.4-0.8,0.6-1.1c0.2-0.3,0.4-0.6,0.5-0.7
			C267.3,109.1,267.4,109,267.5,108.9C267.4,108.9,267.5,108.9,267.5,108.9 M270.5,99l-6.5,6.3c-0.1,0.1-0.2,0.2-0.3,0.4l0,0l0,0
			c-0.1,0.1-0.2,0.2-0.3,0.3c-0.3,0.4-0.6,0.8-0.9,1.3c-0.3,0.5-0.6,1.1-0.9,1.7c-0.3,0.6-0.5,1.2-0.7,1.9c-0.2,0.7-0.4,1.3-0.5,2
			c-0.1,0.6-0.2,1.2-0.2,1.8c0,0.5,0,1,0,1.5c0,0.2,0,0.4,0.1,0.4l0,0l0,0.1c0,0.2,0.1,0.3,0.1,0.5l2,8.9l6.6-6.4
			c0.1-0.1,0.2-0.2,0.3-0.3l0-0.1l0,0c0.1-0.1,0.2-0.2,0.3-0.3c0.3-0.4,0.6-0.8,0.9-1.3c0.3-0.5,0.6-1.1,0.9-1.7
			c0.3-0.6,0.5-1.2,0.7-1.9c0.2-0.7,0.4-1.3,0.5-2c0.1-0.6,0.2-1.2,0.2-1.9c0-0.5,0-1,0-1.5c0-0.2,0-0.4-0.1-0.4l0,0l0-0.1
			c0-0.2-0.1-0.3-0.1-0.5L270.5,99L270.5,99z"/>
	</g>
	<path fill="#162636" d="M148.3,14.4c12.1,0,121,18.7,126.3,27.1S282,55.2,282,97c0,41.8-2,47.1-7.4,55.5
		c-5.3,8.4-114.2,27.1-126.3,27.1c-12.1,0-121-18.7-126.3-27.1c-5.3-8.4-7.4-13.7-7.4-55.5c0-41.8,2-47.1,7.4-55.5
		S136.3,14.4,148.3,14.4 M148.3,9.3c-6.8,0-38,4.9-66.6,10.5c-16.3,3.2-30.4,6.3-40.7,9c-18.8,5-21.8,7.7-23.3,10
		C11.6,48.5,9.6,55.2,9.6,97c0,41.8,2,48.5,8.1,58.2c1.5,2.3,4.5,5.1,23.3,10c10.3,2.7,24.4,5.8,40.7,9
		c28.7,5.6,59.8,10.5,66.6,10.5c6.8,0,38-4.9,66.6-10.5c16.3-3.2,30.4-6.3,40.7-9c18.8-5,21.8-7.7,23.3-10
		c6.2-9.7,8.1-16.4,8.1-58.2c0-41.8-2-48.5-8.1-58.2c-1.5-2.3-4.5-5.1-23.3-10c-10.3-2.7-24.4-5.8-40.7-9
		C186.3,14.2,155.2,9.3,148.3,9.3L148.3,9.3z"/>
	<path fill="#DC4339" d="M274.6,41.5c-5.3-8.4-114.2-27.1-126.3-27.1C136.3,14.4,27.4,33,22,41.5c-5.3,8.4-7.4,13.7-7.4,55.5
		c0,41.8,2,47.1,7.4,55.5c5.3,8.4,114.2,27.1,126.3,27.1c12.1,0,121-18.7,126.3-27.1c5.3-8.4,7.4-13.7,7.4-55.5
		C282,55.2,280,49.9,274.6,41.5z"/>
	<path fill="#162636" d="M206.4,9.5c15.7,0,27.5,4.6,35.3,13.6l2.2,2.5l-20.7,17.3l-3,1.5c-1.4,0.7-2.7,1.3-4.1,2
		c6.7,1.9,14.2,4.4,20.6,8.3c9.1,5.6,13.7,13.1,13.7,22.4c0,6.5-2.4,11.9-6.9,16.1c0,0-16.6,17.3-29.1,22.6
		c-8.8,3.7-19.5,4.7-26.9,4.7c-1.9,0-3.9-0.1-5.8-0.2c-10.9-0.6-19.9-2.1-27.5-4.6c-6.3-2-11.8-4.8-16.4-8.1c-2.4,2.6-5.4,4.9-9,6.8
		c-9.7,5-21.5,6.3-27.7,6.6c-1.7,0.1-3.4,0.1-5,0.1c-18,0-28.7-5.2-39.1-15.2L43.7,91.7c0,0,0,0,0,0l0,0c0,0,0,0,0,0
		c-1.1-1.1-2-2.3-2.9-3.6L39,85.5l2.7-1.3c7.2-3.4,14.6-6.9,22.2-10.3l1.8-0.8l1.3,1.5c4.5,5.4,9,7.8,14.6,7.8c0.3,0,0.5,0,0.8,0
		c12.2-0.5,12.1-6.9,12.1-9l0,0V10.5l2.7,0.1c9,0.4,18.2,0.7,27.2,1l2.5,0.1L144.2,29v8.4c2.1-2.4,4.8-4.8,8.1-7l15.4-11
		c0.3-0.2,0.6-0.5,1-0.7l0,0l0,0c1.9-1.3,4-2.5,6.4-3.5c9.3-4,20.2-5.2,25.9-5.5C202.7,9.5,204.6,9.5,206.4,9.5 M206.4,5.2
		c-1.9,0-3.8,0.1-5.7,0.2c-5.9,0.4-17.4,1.6-27.3,5.9c-2.6,1.1-5,2.4-7.1,3.9l0,0l0,0c-0.3,0.2-0.7,0.5-1,0.7l-15.3,10.9
		c-0.5,0.3-0.9,0.7-1.4,1v-0.6l-1.2-1.2L129.9,8.7l-1.2-1.2l-1.7,0l-2.5-0.1c-9-0.2-18.1-0.6-27.1-1l-2.7-0.1l-4.4-0.2v4.4v62.9v0
		l0,0l0,0l0,0l0,0c0,0.7,0,1.7-0.5,2.4c-1,1.3-3.7,2.1-7.5,2.3c-0.2,0-0.4,0-0.6,0c-4.3,0-7.7-1.9-11.3-6.3L69,70.4l-2.1-2.5
		L64,69.3l-1.8,0.8c-7.6,3.4-15.1,6.9-22.3,10.3l-2.7,1.3l-4.5,2.2l2.8,4.1l1.2,1.8l-0.5,0.2l4.3,4.6l0,0l0,0l0,0l0,0l0,0l13.2,14.1
		l0.1,0.1l0.1,0.1c12.1,11.7,24.3,16.4,42.1,16.4c1.7,0,3.4,0,5.2-0.1c6.5-0.3,19.1-1.6,29.5-7.1c2.8-1.5,5.3-3.2,7.5-5.1
		c4.3,2.7,9.2,5,14.6,6.7c8,2.6,17.4,4.1,28.6,4.8c2,0.1,4,0.2,6,0.2c6.2,0,18.2-0.7,28.5-5c12.8-5.4,29-22,30.4-23.5
		c5.3-5,8.1-11.6,8.1-19.1c0-5.4-1.4-10.4-4.1-14.8c-2.6-4.3-6.6-8.1-11.7-11.2c-3.8-2.3-7.9-4.2-12-5.7l19.8-16.5l3.3-2.8l-2.8-3.3
		l-2.2-2.5C236.3,10.3,223.3,5.2,206.4,5.2L206.4,5.2z"/>
	<g>
		<path fill="#162636" d="M126.9,11.7l-15.1,16.1v62.9l0,0c0,2.1,0.1,8.5-12.1,9c-0.3,0-0.5,0-0.8,0c-5.6,0-10.1-2.4-14.6-7.8
			L83,90.4l-1.8,0.8c-7.6,3.4-30.4-3-37.6,0.5l13.3,14.2c10.4,10,21.1,15.2,39.1,15.2c1.6,0,3.3,0,5-0.1c6.2-0.3,18-1.5,27.7-6.6
			c10.1-5.3,15.5-13.5,15.4-23.8V29L126.9,11.7z"/>
		<path fill="#162636" d="M215.8,71.9c-7.5-4.6-16.9-7.3-24.4-9.4c-2.7-0.7-4.1-1.1-6.8-1.8c-0.7-0.2-1.6-0.4-2.5-0.6
			c-4.7-1.1-12.4-3-12.4-7.2c0-0.6,0.1-2.4,3.3-3.8c1.9-0.9,4.6-1.4,7.2-1.5c0.3,0,0.6,0,0.8,0c6.2,0,11.1,2.1,14.6,6.2l1.3,1.5
			l1.8-0.8c7.2-3.3,14.4-6.7,21.2-10.1l3-1.5l20.7-17.3c-7.8-9-42.6,1.2-58.2,1.2c-1.8,0-17.1-8.1-17.1-8.1l-16.3,11.7
			c-9.6,6.7-14.4,14-14.4,23.2c0,8.2,4.2,14.9,12.5,20c6.8,4.1,15,6.5,21.6,8.4l0.4,0.1c2.7,0.8,4.1,1.2,6.8,1.9
			c0.8,0.2,1.8,0.5,2.9,0.8c5.7,1.5,15.2,4,15.1,8.9c0,0.8-0.1,3.1-4.9,4.5c-2.6,0.8-6.1,1.2-10.3,1.2c-0.2,0-0.4,0-0.7,0
			c-9.9-0.1-23.2-12.9-23.2-12.9l-9.4-6.2l-20.7,17.3l2.3,2.8c5.5,6.9,13.6,12,24,15.4c7.7,2.4,16.7,3.9,27.5,4.6
			c1.9,0.1,3.8,0.2,5.8,0.2c7.4,0,18-0.9,26.9-4.7c12.5-5.3,29.1-22.6,29.1-22.6S224.9,77.5,215.8,71.9z"/>
		<path fill="#FFFFFF" d="M97.2,10.7l-2.7-0.1v62.9l0,0c0,2.1,0.1,8.5-12.1,9c-0.3,0-0.5,0-0.8,0c-5.6,0-10.1-2.4-14.6-7.8l-1.3-1.5
			l-1.8,0.8c-7.6,3.4-15,6.8-22.2,10.3L39,85.5l1.7,2.5c7.2,10.5,20,15.8,38,15.8c1.6,0,3.3,0,5-0.1c6.2-0.3,18-1.5,27.7-6.6
			c10.1-5.3,15.5-13.5,15.4-23.8V11.7l-2.5-0.1C115.3,11.4,106.2,11.1,97.2,10.7z"/>
		<path fill="#FFFFFF" d="M236.5,54.7c-7.5-4.6-16.9-7.3-24.4-9.4c-2.7-0.7-4.1-1.1-6.8-1.8c-0.7-0.2-1.6-0.4-2.5-0.6
			c-4.7-1.1-12.4-3-12.4-7.2c0-0.6,0.1-2.4,3.3-3.8c1.9-0.9,4.6-1.4,7.2-1.5c0.3,0,0.6,0,0.8,0c6.2,0,11.1,2.1,14.6,6.2l1.3,1.5
			l1.8-0.8c7.2-3.3,14.4-6.7,21.2-10.1l3-1.5l-2.2-2.5c-7.8-9-19.6-13.6-35.3-13.6c-1.8,0-3.6,0.1-5.5,0.2
			c-5.7,0.3-16.6,1.5-25.9,5.5c-10.7,4.6-16.4,11.9-16.4,21c0,8.2,4.2,14.9,12.5,20c6.8,4.1,15,6.5,21.6,8.4l0.4,0.1
			c2.7,0.8,4.1,1.2,6.8,1.9c0.8,0.2,1.8,0.5,2.9,0.8c5.7,1.5,15.2,4,15.1,8.9c0,0.8-0.1,3.1-4.9,4.5c-2.6,0.8-6.1,1.2-10.3,1.2
			c-0.2,0-0.4,0-0.7,0c-9.9-0.1-18.7-3.8-25-10.4l-1.2-1.2l-7.4,2.6c-5.5,2-11,3.9-16.4,5.9l-3.4,1.2l2.3,2.8
			c5.5,6.9,13.6,12,24,15.4c7.7,2.4,16.7,3.9,27.5,4.6c1.9,0.1,3.8,0.2,5.8,0.2c7.4,0,18.1-0.8,26.9-4.7
			c9.9-4.4,15.2-11.8,15.2-21.4C250.3,67.8,245.6,60.3,236.5,54.7z"/>
	</g>
	<g>
		<path fill="#162636" d="M67.3,136.7h5.4c2.6,0,4.1,1.7,4.1,3.6c0,1.3-0.8,2.2-2,2.6c1.9,0.5,2.9,1.7,2.9,3.5
			c0,2.5-1.8,4.3-4.7,4.3h-5.7V136.7z M72.4,141.9c0.9,0,1.5-0.5,1.5-1.3c0-0.8-0.5-1.3-1.4-1.3h-2.4v2.6H72.4z M72.8,148.2
			c1.2,0,1.9-0.8,1.9-1.9c0-1.1-0.8-1.9-2.1-1.9h-2.5v3.9H72.8z"/>
		<path fill="#162636" d="M83.4,145.7v-9h2.9v8.8c0,2,0.9,2.8,2.8,2.8c1.9,0,2.8-0.8,2.8-2.8v-8.8h2.9v9c0,3.6-2.5,5.3-5.7,5.3
			C85.9,150.9,83.4,149.2,83.4,145.7z"/>
		<path fill="#162636" d="M105.7,146.3l-5.3-9.6h3.2l2.5,4.5c0.5,1,1.1,2.7,1.1,2.7s0.6-1.7,1.1-2.7l2.4-4.5h3l-5,9.4v4.7h-2.9
			V146.3z"/>
		<path fill="#162636" d="M130.7,139.2h-4v-2.5h10.9v2.5h-4v11.5h-2.9V139.2z"/>
		<path fill="#162636" d="M143.5,136.7h2.9v14.1h-2.9V136.7z"/>
		<path fill="#162636" d="M152.6,143.7c0-4.2,3.2-7.2,7.2-7.2c2.5,0,4.4,0.9,5.6,2.9l-2.2,1.6c-0.7-1.1-1.8-1.8-3.4-1.8
			c-2.5,0-4.3,2-4.3,4.6c0,2.6,1.7,4.6,4.3,4.6c1.8,0,2.8-0.9,3.6-2.1l2.3,1.5c-1.2,1.9-3.2,3.1-5.9,3.1
			C155.8,150.9,152.6,147.9,152.6,143.7z"/>
		<path fill="#162636" d="M175.5,141.7l3.7-5h3.3l-4.7,6.4l5.3,7.7h-3.5l-3.7-5.5l-1.4,1.6v3.9h-2.9v-14.1h2.9v4.9
			c0,0.7-0.1,1.7-0.2,2.4C174.6,143.2,175.1,142.3,175.5,141.7z"/>
		<path fill="#162636" d="M188.7,136.7h9.3v2.5h-6.4v4.5h5.6v2.5h-5.6v2h6.7v2.5h-9.6V136.7z"/>
		<path fill="#162636" d="M207.9,139.2h-4v-2.5h10.9v2.5h-4v11.5h-2.9V139.2z"/>
		<path fill="#162636" d="M219.3,148l2.4-1.4c0.6,1,1.4,1.8,2.9,1.8c1.2,0,2-0.6,2-1.4c0-1-0.8-1.3-2.1-1.9l-0.7-0.3
			c-2.1-0.9-3.5-2-3.5-4.4c0-2.2,1.7-3.8,4.2-3.8c1.8,0,3.2,0.6,4.1,2.3l-2.3,1.4c-0.5-0.9-1-1.2-1.9-1.2c-0.8,0-1.4,0.5-1.4,1.2
			c0,0.9,0.5,1.2,1.8,1.8l0.7,0.3c2.5,1.1,3.8,2.1,3.8,4.5c0,2.6-2,4-4.8,4C221.9,150.9,220.2,149.6,219.3,148z"/>
	</g>
	<g>
		<path fill="#FFFFFF" d="M33,119.1c0.4,3.6,1.2,7.2,2,10.7c0.7,3.3,0.6,6.6-1,9.7c-0.8,1.6-2.2,2.8-3.8,3.7
			c-0.3,0.2-0.5,0.2-0.6,0.3c-0.1,0-0.2,0-0.4,0.1c-0.1,0-0.2,0-0.3,0.1c-0.6,0.2-1.3,0.5-1.3,0.5l1.2,0.1c0,0,0.3,0.1,0.7,0.1
			c-0.9,1.1-1.9,1.5-3,1.8c-0.1,0-0.2,0-0.3,0.1c-2.3,0.4-4.5,0.2-6.7-0.5c-1.9-0.6-3.2-1.6-3.8-3.6c-0.3-1.2-0.9-2.3-1.4-3.5
			c-0.4-0.8-0.6-1.7-0.6-2.7c0-0.3-0.3-1-0.3-1s-0.3,0.4-0.4,0.8c-0.1,0.3-0.3,0.4-0.5,0.4c-0.2,0-0.4,0-0.6-0.1
			c-0.6-0.3-1-0.9-1.2-1.5c-0.6-1.4-1.1-2.7-1.8-4.1c-0.3-0.6-0.5-1.2-0.4-1.9c0-0.8,0.4-1.3,0.9-1.4c0.3-0.1,0.7,0,1.1,0.3
			c0.3,0.2,0.9,0.7,0.9,0.7s0.1-1-0.1-1.2c-0.2-0.2-0.6-0.5-0.8-0.6c-0.4-0.3-1.9-3.9-2.2-4.5c-0.1-0.2,0-0.4,0.1-0.6
			c-0.1,0-0.1-0.1-0.2-0.2c-0.1-0.1-0.3-0.3-0.3-0.6c-0.1-0.2-0.1-0.5-0.1-0.7c0-0.1,0-0.3,0.1-0.4c0-0.1,0.1-0.3,0.1-0.4
			c0,0,0-0.1,0-0.1c0,0,0-0.1,0-0.1l0-0.1l0,0l0,0l0,0c0,0,0,0,0,0c0,0,0,0,0,0l0,0c0-0.1,0.1-0.1,0.1-0.2c0-0.1,0.1-0.1,0.1-0.2
			c0.2-0.2,0.4-0.5,0.7-0.6c0.3-0.2,0.5-0.3,0.8-0.5c0.3-0.1,0.6-0.2,0.9-0.3c0.3-0.1,0.6-0.2,0.9-0.2c0.2,0,0.3-0.1,0.5-0.1
			c0.2,0,0.3-0.1,0.5-0.1c0.6-0.1,1.3-0.2,1.9-0.3c0.2,0,0.4-0.1,0.5-0.1c0.4-0.1,0.9-0.2,1.3-0.3c0.1,0,0.3-0.1,0.4-0.1
			c0.1,0,0.3-0.1,0.4-0.1c0.1,0,0.1,0,0.2-0.1l0.1,0c0,0,0.1,0,0.1,0c0.1,0,0.1-0.1,0.2-0.1l0,0l0,0l0,0c0,0,0,0,0,0s0,0,0,0
			c0,0,0,0,0,0l0,0l0.1,0c0.1-0.1,0.3-0.1,0.4-0.2c0.1-0.1,0.3-0.1,0.4-0.2c0.3-0.1,0.5-0.3,0.7-0.4c0.2-0.1,0.5-0.3,0.7-0.4
			c0.1-0.1,0.2-0.1,0.3-0.2c0.1-0.1,0.2-0.1,0.3-0.2c0.2-0.1,0.4-0.3,0.6-0.4c0.2-0.1,0.4-0.2,0.5-0.4c0.3-0.2,0.6-0.4,0.8-0.6
			c0.2-0.2,0.4-0.3,0.5-0.4c0.1-0.1,0.2-0.1,0.2-0.1s-0.2,0.3-0.5,0.7c-0.2,0.2-0.4,0.5-0.7,0.8c-0.1,0.2-0.3,0.3-0.4,0.5
			c-0.1,0.1-0.2,0.2-0.2,0.2c-0.1,0.1-0.2,0.2-0.3,0.2c-0.4,0.3-0.8,0.7-1.2,1c-0.1,0.1-0.2,0.2-0.4,0.3c-0.1,0-0.1,0.1-0.2,0.1
			c-0.1,0-0.1,0.1-0.2,0.1c-0.1,0.1-0.3,0.2-0.4,0.2c-0.1,0.1-0.3,0.2-0.4,0.2l-0.1,0.1l-0.1,0l-0.1,0c-0.1,0-0.1,0.1-0.2,0.1
			c-0.1,0.1-0.3,0.1-0.5,0.2c-0.3,0.1-0.6,0.2-0.9,0.3c-0.5,0.2-1.1,0.3-1.7,0.4c-0.1,0-0.2,0-0.3,0.1c-0.7,0.1-1.3,0.2-1.9,0.3
			c-0.3,0-0.6,0.1-0.9,0.1c-0.1,0-0.2,0-0.4,0.1c-0.2,0-0.3,0.1-0.5,0.1c-0.3,0.1-0.6,0.1-0.8,0.2c-0.3,0.1-0.5,0.2-0.7,0.3
			c-0.2,0.1-0.4,0.3-0.6,0.4c0,0-0.1,0.1-0.1,0.1c0,0-0.1,0.1-0.1,0.1l0,0c0,0,0,0,0,0c0,0,0,0,0,0s0,0,0,0l0,0l0,0l0,0l-0.1,0.1
			c0,0,0,0.1,0,0.1l0,0.1c-0.1,0.1-0.1,0.2-0.2,0.3c0,0,0,0.1-0.1,0.1c0,0,0,0.1,0,0.1c-0.1,0.2-0.1,0.4-0.1,0.5
			c0,0.2,0.1,0.4,0.3,0.6C8.7,121,8.8,121,9,121c0,0,0-0.1,0-0.1c0,0,0-0.1,0-0.1c0,0,0-0.1,0-0.1l0-0.1l0,0l0,0l0,0c0,0,0,0,0,0
			l0,0l0,0c0-0.1,0.1-0.1,0.1-0.2c0-0.1,0.1-0.1,0.1-0.2c0.2-0.2,0.4-0.5,0.7-0.6c0.3-0.2,0.5-0.3,0.8-0.5c0.3-0.1,0.6-0.2,0.9-0.3
			c0.3-0.1,0.6-0.2,0.9-0.2c0.2,0,0.3-0.1,0.5-0.1c0.2,0,0.3-0.1,0.5-0.1c0.6-0.1,1.3-0.2,1.9-0.3c0.2,0,0.4-0.1,0.5-0.1
			c0.4-0.1,0.9-0.2,1.3-0.3c0.1,0,0.3-0.1,0.4-0.1c0.1,0,0.3-0.1,0.4-0.1c0.1,0,0.1,0,0.2-0.1l0.1,0c0,0,0.1,0,0.1,0
			c0.1,0,0.1-0.1,0.2-0.1l0,0l0,0l0,0c0,0,0,0,0,0l0,0c0,0,0,0,0,0l0,0l0.1,0c0.1-0.1,0.3-0.1,0.4-0.2c0.1-0.1,0.3-0.1,0.4-0.2
			c0.3-0.1,0.5-0.3,0.7-0.4c0.2-0.1,0.5-0.3,0.7-0.4c0.1-0.1,0.2-0.1,0.3-0.2c0.1-0.1,0.2-0.1,0.3-0.2c0.2-0.1,0.4-0.3,0.6-0.4
			c0.2-0.1,0.4-0.2,0.5-0.4c0.3-0.2,0.6-0.4,0.8-0.6c0.2-0.2,0.4-0.3,0.5-0.4c0.1-0.1,0.2-0.1,0.2-0.1s-0.2,0.3-0.5,0.7
			c-0.2,0.2-0.4,0.5-0.7,0.8c-0.1,0.2-0.3,0.3-0.4,0.5c-0.1,0.1-0.2,0.2-0.2,0.2c-0.1,0.1-0.2,0.2-0.3,0.2c-0.3,0.3-0.6,0.5-0.9,0.8
			c0.5-0.2,0.8-0.4,0.8-0.4l0,0c0,0,0,0,0.1,0c0.9-0.2,1.5-0.7,2.2-1.2c0.3-0.3,0.6-0.5,1.1-0.6c0.1,0,0.3,0,0.4,0
			c0.1,0,0.3,0,0.4,0c1.3-0.3,3-1.6,3.3-1.8c0.1-0.1,0.3-0.2,0.4-0.2c0.2,0,0.4,0.2,0.6,0.4C32.3,114.6,32.8,116.8,33,119.1z"/>
		<path fill="#DC4339" d="M16.3,124.7C16.3,124.7,16.3,124.7,16.3,124.7c-0.1-0.2-0.1-0.2-0.1-0.4c-0.1-0.2-0.1-0.6-0.2-1
			c0-0.4-0.1-0.9,0-1.4c0-0.1,0-0.3,0.1-0.4c0-0.1,0-0.1,0.1-0.2c0-0.1,0-0.1,0.1-0.2c0.1-0.3,0.2-0.6,0.4-0.8
			c0.2-0.3,0.5-0.5,0.8-0.6c0.1,0,0.2-0.1,0.3-0.1l0.1,0l0,0l0,0l0,0l0,0l0,0l0.1,0l0,0l0.1,0l0.1,0c0.1,0,0.2,0,0.2,0
			c0.3,0,0.6,0.1,0.8,0.3c0.1,0.1,0.2,0.2,0.3,0.3c0.1,0.1,0.2,0.2,0.2,0.3c0.1,0.2,0.2,0.4,0.2,0.6c0,0.2,0.1,0.3,0.1,0.4
			c0,0.1,0,0.2,0,0.3c0,0.1,0,0.1,0,0.1s0,0,0-0.1c0-0.1-0.1-0.1-0.1-0.2c-0.1-0.1-0.1-0.2-0.2-0.3c-0.1-0.1-0.2-0.2-0.3-0.3
			c-0.1-0.1-0.3-0.2-0.4-0.2c-0.2-0.1-0.3-0.1-0.5-0.1c0,0-0.1,0-0.1,0l-0.1,0l0,0c0,0,0,0,0,0l-0.1,0l0,0l0,0l0,0c0,0,0,0,0,0l0,0
			l0,0c0,0-0.1,0-0.1,0c-0.1,0.1-0.3,0.2-0.4,0.3c-0.1,0.1-0.2,0.3-0.3,0.5c0,0.1,0,0.1-0.1,0.2c0,0.1,0,0.1-0.1,0.2
			c0,0.1-0.1,0.2-0.1,0.3c-0.1,0.4-0.2,0.9-0.3,1.2c-0.1,0.4-0.2,0.7-0.2,0.9C16.4,124.5,16.4,124.5,16.3,124.7
			C16.3,124.7,16.3,124.7,16.3,124.7z"/>
		<path fill="#DC4339" d="M26.1,121.2C26.1,121.2,26.1,121.2,26.1,121.2c0-0.1-0.1-0.2-0.1-0.3c-0.1-0.2-0.1-0.5-0.2-0.8
			c0-0.3-0.1-0.8,0-1.2c0-0.2,0-0.4,0.1-0.7c0.1-0.2,0.1-0.5,0.2-0.7c0.1-0.1,0.1-0.2,0.2-0.4c0.1-0.1,0.2-0.2,0.4-0.3
			c0.1-0.1,0.2-0.1,0.2-0.1c0,0,0.1,0,0.1,0l0.1,0l0,0l0,0c0,0,0,0,0,0l0,0l0,0l0.1,0c0,0,0.1,0,0.1,0l0.1,0c0,0,0,0,0.1,0
			c0,0,0.1,0,0.1,0c0.1,0,0.3,0.1,0.4,0.1c0.1,0.1,0.2,0.1,0.3,0.2c0.2,0.1,0.3,0.3,0.5,0.4c0.2,0.3,0.4,0.6,0.4,0.8
			c0,0.1,0,0.2,0.1,0.2c0,0.1,0,0.1,0,0.1s0,0-0.1-0.1c0,0-0.1-0.1-0.2-0.1c-0.2-0.1-0.4-0.3-0.6-0.4c-0.1-0.1-0.3-0.1-0.4-0.2
			c-0.1,0-0.3-0.1-0.4,0l-0.1,0l0,0l0,0l0,0l-0.1,0c0,0,0,0-0.1,0.1c0,0-0.1,0.1-0.1,0.1c0,0.1-0.1,0.1-0.1,0.2
			c-0.1,0.2-0.1,0.3-0.2,0.5c-0.1,0.2-0.1,0.4-0.2,0.6c-0.1,0.4-0.2,0.8-0.3,1.1c-0.1,0.3-0.2,0.6-0.2,0.8
			C26.2,121,26.2,121.1,26.1,121.2C26.1,121.2,26.1,121.2,26.1,121.2z"/>
		<path fill="#DC4339" d="M25.7,139.4C25.7,139.4,25.7,139.4,25.7,139.4c0.1,0,0.2,0,0.2-0.1c0.1,0,0.3-0.1,0.5-0.1
			c0.1,0,0.2-0.1,0.3-0.1c0.1,0,0.2-0.1,0.4-0.1c0.1,0,0.2-0.1,0.4-0.1c0.1,0,0.2-0.1,0.4-0.1c0.1,0,0.2-0.1,0.3-0.1
			c0.1,0,0.1-0.1,0.2-0.1c0.1,0,0.1-0.1,0.2-0.1c0.1-0.1,0.2-0.1,0.3-0.2c0,0,0.1-0.1,0.1-0.1c0,0,0.1-0.1,0.1-0.1
			c0,0,0.1-0.1,0.1-0.1c0,0,0.1-0.1,0.1-0.1c0.1-0.1,0.1-0.1,0.2-0.1c0.1,0,0.1-0.1,0.1-0.1c0,0,0.1,0,0.1,0s0,0,0,0.1
			c0,0,0,0.1,0,0.2c0,0.1,0,0.2,0,0.3c0,0.1-0.1,0.2-0.1,0.3c0,0.1-0.1,0.1-0.1,0.2c0,0.1-0.1,0.1-0.1,0.2c-0.1,0.1-0.2,0.2-0.3,0.4
			c-0.1,0.1-0.1,0.1-0.2,0.2c-0.1,0.1-0.1,0.1-0.2,0.2c-0.1,0.1-0.3,0.2-0.5,0.2c-0.2,0.1-0.3,0.1-0.5,0.1c-0.2,0-0.3,0-0.5,0
			c-0.3,0-0.6-0.1-0.8-0.1c-0.1,0-0.2-0.1-0.3-0.1c-0.1,0-0.2-0.1-0.2-0.1C25.8,139.5,25.8,139.5,25.7,139.4
			C25.7,139.4,25.7,139.4,25.7,139.4z"/>
		<g>
			<g>
				<path fill="#DC4339" d="M26.4,138c-3,0.6-5.3-1.3-5.4-1.3l0.7-0.8c0.1,0.1,2.5,2,5.5,0.8c3.1-1.2,3.7-3.9,3.7-4l1,0.2
					c0,0.1-0.8,3.3-4.3,4.7C27.3,137.8,26.8,137.9,26.4,138z"/>
			</g>
			<path fill="#DC4339" d="M30.3,132c0,0,0,0,0.1,0.1c0.1,0,0.2,0.1,0.3,0.2c0.1,0,0.1,0.1,0.2,0.1c0.1,0,0.1,0.1,0.2,0.1
				c0,0,0.1,0,0.1,0.1c0,0,0.1,0,0.1,0c0,0,0.1,0,0.1,0c0,0,0.1,0,0.1,0c0,0,0,0,0.1,0l0.1,0c0,0,0.1,0,0.1,0c0.1,0,0.2,0,0.2,0.1
				c0.1,0,0.2,0,0.2,0.1c0,0,0,0,0.1,0c0,0,0,0,0.1,0c0,0,0.1,0,0.1,0c0.1,0,0.1,0,0.2,0.1c0.1,0,0.1,0,0.2,0c0.1,0,0.1,0.1,0.1,0.1
				s0,0-0.1,0.1c0,0-0.1,0.1-0.1,0.1c-0.1,0-0.1,0.1-0.2,0.1c-0.1,0-0.2,0.1-0.3,0.1c-0.1,0-0.2,0-0.3,0c-0.1,0-0.1,0-0.2,0
				c-0.1,0-0.1,0-0.2,0c-0.1,0-0.1,0-0.2,0l-0.1,0c0,0-0.1,0-0.1,0c-0.1,0-0.1,0-0.2-0.1c-0.1,0-0.1-0.1-0.1-0.1
				c-0.1-0.1-0.2-0.1-0.3-0.2c0,0-0.1-0.1-0.1-0.1c0,0-0.1-0.1-0.1-0.1c-0.1-0.1-0.1-0.1-0.1-0.2c0-0.1-0.1-0.1-0.1-0.2
				c0-0.1,0-0.1,0-0.2C30.3,132.1,30.3,132,30.3,132z"/>
			<path fill="#DC4339" d="M21.8,135.1c0,0,0,0,0.1,0.1c0,0,0,0.1,0.1,0.2c0,0.1,0,0.1,0.1,0.2c0,0.1,0,0.2,0,0.3c0,0,0,0.1,0,0.1
				c0,0,0,0.1,0,0.1c0,0.1,0,0.2-0.1,0.3c0,0.1-0.1,0.2-0.1,0.3c0,0.1-0.1,0.2-0.2,0.3c-0.1,0.1-0.1,0.2-0.2,0.2
				c-0.1,0.1-0.1,0.1-0.2,0.2c-0.1,0.1-0.1,0.1-0.2,0.1c-0.1,0-0.1,0.1-0.2,0.1c-0.1,0-0.1,0-0.2,0.1c-0.1,0-0.1,0-0.1,0
				s0-0.1,0-0.1c0,0,0-0.1,0.1-0.2c0-0.1,0-0.1,0.1-0.2c0-0.1,0.1-0.1,0.1-0.2c0-0.1,0.1-0.1,0.1-0.2c0-0.1,0.1-0.2,0.1-0.2
				c0-0.1,0.1-0.2,0.1-0.2c0-0.1,0.1-0.2,0.1-0.2c0-0.1,0.1-0.2,0.1-0.2c0,0,0-0.1,0.1-0.1c0,0,0-0.1,0-0.1c0,0,0-0.1,0-0.1
				c0,0,0-0.1,0-0.1c0.1-0.1,0.1-0.2,0.1-0.3C21.7,135.2,21.7,135.2,21.8,135.1C21.8,135.1,21.8,135.1,21.8,135.1z"/>
		</g>
		<g>
			<path fill="#DC4339" d="M9.2,126.7l-0.9-1c0.7-1.6,2.3-2.4,3.1-2.9l0.1,1.3C10.6,124.7,9.8,125.4,9.2,126.7z"/>
		</g>
		<g>
			<path fill="#DC4339" d="M8.8,124.8l-0.3-1.6c0-0.1,0.8-1,2.9-2.1l0.1,1.2C9.6,123.3,8.8,124.8,8.8,124.8z"/>
		</g>
		<path fill="#DC4339" d="M17.9,127.7c0,0,0.3,0,0.8-0.1c0.1,0,0.2,0,0.3-0.1c0.1,0,0.2,0,0.3-0.1c0.1,0,0.2,0,0.3-0.1
			c0.1,0,0.2-0.1,0.3-0.1l0.1,0c0,0,0,0,0.1,0c0,0,0.1,0,0.1,0c0,0,0,0,0.1,0c0,0,0,0,0.1,0c0,0,0.1,0,0.1-0.1c0,0,0.1,0,0.2-0.1
			c0,0,0.1,0,0.2-0.1c0.1,0,0.1,0,0.2-0.1c0.1,0,0.1,0,0.1-0.1c0.1,0,0.2-0.1,0.3-0.1c0.1,0,0.2-0.1,0.2-0.1c0.1,0,0.1-0.1,0.2-0.1
			c0,0,0.1,0,0.1,0s0,0,0,0.1c0,0,0,0.1,0,0.2c0,0.1,0,0.2,0,0.3c0,0.1,0,0.1,0,0.2c0,0.1,0,0.1-0.1,0.2c0,0.1,0,0.1-0.1,0.2
			c0,0.1-0.1,0.1-0.1,0.2c0,0.1-0.1,0.1-0.1,0.2c-0.1,0.1-0.1,0.1-0.2,0.2c-0.1,0.1-0.1,0.1-0.2,0.2c-0.1,0.1-0.1,0.1-0.2,0.2
			c-0.2,0.1-0.3,0.2-0.5,0.2c-0.2,0.1-0.4,0.1-0.6,0.1c-0.2,0-0.4,0-0.5,0c-0.2,0-0.3-0.1-0.5-0.2c-0.1-0.1-0.3-0.1-0.4-0.2
			c-0.2-0.2-0.3-0.3-0.4-0.5C17.9,127.9,17.9,127.8,17.9,127.7C17.9,127.7,17.9,127.7,17.9,127.7z"/>
		<path fill="#DC4339" d="M26.9,125.5c0,0,0.1,0,0.2-0.1c0.2,0,0.4-0.1,0.6-0.1c0.2-0.1,0.5-0.1,0.7-0.2c0.1,0,0.2-0.1,0.3-0.1
			c0.1,0,0.2-0.1,0.3-0.1c0.1,0,0.2-0.1,0.3-0.1c0.1,0,0.2-0.1,0.3-0.2c0.1-0.1,0.2-0.1,0.3-0.2c0,0,0.1-0.1,0.1-0.1
			c0,0,0.1-0.1,0.1-0.1c0.1-0.1,0.2-0.1,0.2-0.2c0.1-0.1,0.2-0.1,0.2-0.2c0.1-0.1,0.2-0.2,0.2-0.2s0,0.1,0.1,0.3c0,0.1,0,0.2,0,0.3
			c0,0.1,0,0.1,0,0.2c0,0.1,0,0.1,0,0.2c0,0.1,0,0.1,0,0.2c0,0.1,0,0.2-0.1,0.2c-0.1,0.2-0.1,0.3-0.2,0.5c-0.1,0.1-0.1,0.2-0.2,0.2
			c0,0-0.1,0.1-0.1,0.1c0,0-0.1,0.1-0.1,0.1c-0.2,0.1-0.3,0.2-0.5,0.3c-0.2,0.1-0.4,0.1-0.6,0.2c-0.2,0-0.4,0-0.6,0
			c-0.4,0-0.7-0.2-0.9-0.3c-0.1-0.1-0.2-0.1-0.3-0.2c-0.1-0.1-0.2-0.1-0.2-0.2C26.9,125.6,26.9,125.5,26.9,125.5z"/>
		<path fill="#DC4339" d="M7.8,120.4c0.1,0.4,1.3,1.4,1.3,1.4s0.9,4.2,1.3,4.5c0.4,0.3-0.7,0.1-0.7,0.1l-2.5-5.1L7.8,120.4z"/>
		<path fill="#DC4339" d="M31.8,112.5c-0.1-0.1-0.1-0.3-0.2-0.4c-2.1-3.1-4.3-4.5-5.3-5.2c-0.1-0.1-0.2-0.1-0.2-0.1
			c-0.3-0.2-1-0.6-2.8-0.7c-1-0.1-2.6-0.1-4.6,0.3l0,0c-1.3,0.3-2.6,0.6-3.8,1.2c-2.5,1-4.7,2.5-6.4,4.1c-1.6,1.6-2.8,3.4-3.3,5.2
			c-0.4,1.6-0.1,3.7,1,6.4c0.8,1.9,1.6,3.4,1.6,3.4l0,0.1c-0.1,0.1-0.2,0.2-0.2,0.3c-0.3,0.4-0.4,0.9-0.4,1.5c0,0.8,0.2,1.7,0.6,2.4
			c0.7,1.3,1.3,2.7,1.8,4c0.4,0.9,0.9,1.6,1.7,2c0.4,0.2,0.9,0.3,1.3,0.2c0,0,0,0,0,0c0.1,0.6,0.3,1.2,0.6,1.8
			c0.1,0.2,0.2,0.4,0.3,0.6c0.4,0.9,0.8,1.8,1.1,2.7c0.6,2.1,2.1,3.6,4.5,4.3c2.4,0.7,4.9,0.9,7.2,0.5c0.1,0,0.3,0,0.4-0.1
			c1.1-0.2,2.5-0.7,3.7-2.1l0.8-1c1.3-0.9,2.9-2.1,3.9-4c0.8-1.6,1.3-3.3,1.5-5.1c0.2-1.7,0-3.4-0.4-5.2c-0.1-0.5-0.2-0.9-0.3-1.4
			c-0.7-3-1.4-6.1-1.7-9.2C33.9,117,33.4,114.6,31.8,112.5z M33,119.1c0.4,3.6,1.2,7.2,2,10.7c0.7,3.3,0.6,6.6-1,9.7
			c-0.8,1.6-2.2,2.8-3.8,3.7c-0.3,0.2-0.5,0.2-0.6,0.3c-0.1,0-0.2,0-0.4,0.1c-0.1,0-0.2,0-0.3,0.1c-0.6,0.2-1.3,0.5-1.3,0.5l1.2,0.1
			c0,0,0.3,0.1,0.7,0.1c-0.9,1.1-1.9,1.5-3,1.8c-0.1,0-0.2,0-0.3,0.1c-2.3,0.4-4.5,0.2-6.7-0.5c-1.9-0.6-3.2-1.6-3.8-3.6
			c-0.3-1.2-0.9-2.3-1.4-3.5c-0.4-0.8-0.6-1.7-0.6-2.7c0-0.3-0.3-1-0.3-1s-0.3,0.4-0.4,0.8c-0.1,0.3-0.3,0.4-0.5,0.4
			c-0.2,0-0.4,0-0.6-0.1c-0.6-0.3-1-0.9-1.2-1.5c-0.6-1.4-1.1-2.7-1.8-4.1c-0.3-0.6-0.5-1.2-0.4-1.9c0-0.8,0.4-1.3,0.9-1.4
			c0.3-0.1,0.7,0,1.1,0.3c0.3,0.2,0.9,0.7,0.9,0.7s0.1-1-0.1-1.2c-0.2-0.2-0.6-0.5-0.8-0.6c-0.4-0.3-1.9-3.9-2.2-4.5
			c-0.1-0.2,0-0.4,0.1-0.6c-0.1,0-0.1-0.1-0.2-0.2c-0.1-0.1-0.3-0.3-0.3-0.6c-0.1-0.2-0.1-0.5-0.1-0.7c0-0.1,0-0.3,0.1-0.4
			c0-0.1,0.1-0.3,0.1-0.4c0,0,0-0.1,0-0.1c0,0,0-0.1,0-0.1l0-0.1l0,0l0,0l0,0c0,0,0,0,0,0c0,0,0,0,0,0l0,0c0-0.1,0.1-0.1,0.1-0.2
			c0-0.1,0.1-0.1,0.1-0.2c0.2-0.2,0.4-0.5,0.7-0.6c0.3-0.2,0.5-0.3,0.8-0.5c0.3-0.1,0.6-0.2,0.9-0.3c0.3-0.1,0.6-0.2,0.9-0.2
			c0.2,0,0.3-0.1,0.5-0.1c0.2,0,0.3-0.1,0.5-0.1c0.6-0.1,1.3-0.2,1.9-0.3c0.2,0,0.4-0.1,0.5-0.1c0.4-0.1,0.9-0.2,1.3-0.3
			c0.1,0,0.3-0.1,0.4-0.1c0.1,0,0.3-0.1,0.4-0.1c0.1,0,0.1,0,0.2-0.1l0.1,0c0,0,0.1,0,0.1,0c0.1,0,0.1-0.1,0.2-0.1l0,0l0,0l0,0
			c0,0,0,0,0,0s0,0,0,0c0,0,0,0,0,0l0,0l0.1,0c0.1-0.1,0.3-0.1,0.4-0.2c0.1-0.1,0.3-0.1,0.4-0.2c0.3-0.1,0.5-0.3,0.7-0.4
			c0.2-0.1,0.5-0.3,0.7-0.4c0.1-0.1,0.2-0.1,0.3-0.2c0.1-0.1,0.2-0.1,0.3-0.2c0.2-0.1,0.4-0.3,0.6-0.4c0.2-0.1,0.4-0.2,0.5-0.4
			c0.3-0.2,0.6-0.4,0.8-0.6c0.2-0.2,0.4-0.3,0.5-0.4c0.1-0.1,0.2-0.1,0.2-0.1s-0.2,0.3-0.5,0.7c-0.2,0.2-0.4,0.5-0.7,0.8
			c-0.1,0.2-0.3,0.3-0.4,0.5c-0.1,0.1-0.2,0.2-0.2,0.2c-0.1,0.1-0.2,0.2-0.3,0.2c-0.4,0.3-0.8,0.7-1.2,1c-0.1,0.1-0.2,0.2-0.4,0.3
			c-0.1,0-0.1,0.1-0.2,0.1c-0.1,0-0.1,0.1-0.2,0.1c-0.1,0.1-0.3,0.2-0.4,0.2c-0.1,0.1-0.3,0.2-0.4,0.2l-0.1,0.1l-0.1,0l-0.1,0
			c-0.1,0-0.1,0.1-0.2,0.1c-0.1,0.1-0.3,0.1-0.5,0.2c-0.3,0.1-0.6,0.2-0.9,0.3c-0.5,0.2-1.1,0.3-1.7,0.4c-0.1,0-0.2,0-0.3,0.1
			c-0.7,0.1-1.3,0.2-1.9,0.3c-0.3,0-0.6,0.1-0.9,0.1c-0.1,0-0.2,0-0.4,0.1c-0.2,0-0.3,0.1-0.5,0.1c-0.3,0.1-0.6,0.1-0.8,0.2
			c-0.3,0.1-0.5,0.2-0.7,0.3c-0.2,0.1-0.4,0.3-0.6,0.4c0,0-0.1,0.1-0.1,0.1c0,0-0.1,0.1-0.1,0.1l0,0c0,0,0,0,0,0c0,0,0,0,0,0
			s0,0,0,0l0,0l0,0l0,0l-0.1,0.1c0,0,0,0.1,0,0.1l0,0.1c-0.1,0.1-0.1,0.2-0.2,0.3c0,0,0,0.1-0.1,0.1c0,0,0,0.1,0,0.1
			c-0.1,0.2-0.1,0.4-0.1,0.5c0,0.2,0.1,0.4,0.3,0.6C8.7,121,8.8,121,9,121c0,0,0-0.1,0-0.1c0,0,0-0.1,0-0.1c0,0,0-0.1,0-0.1l0-0.1
			l0,0l0,0l0,0c0,0,0,0,0,0l0,0l0,0c0-0.1,0.1-0.1,0.1-0.2c0-0.1,0.1-0.1,0.1-0.2c0.2-0.2,0.4-0.5,0.7-0.6c0.3-0.2,0.5-0.3,0.8-0.5
			c0.3-0.1,0.6-0.2,0.9-0.3c0.3-0.1,0.6-0.2,0.9-0.2c0.2,0,0.3-0.1,0.5-0.1c0.2,0,0.3-0.1,0.5-0.1c0.6-0.1,1.3-0.2,1.9-0.3
			c0.2,0,0.4-0.1,0.5-0.1c0.4-0.1,0.9-0.2,1.3-0.3c0.1,0,0.3-0.1,0.4-0.1c0.1,0,0.3-0.1,0.4-0.1c0.1,0,0.1,0,0.2-0.1l0.1,0
			c0,0,0.1,0,0.1,0c0.1,0,0.1-0.1,0.2-0.1l0,0l0,0l0,0c0,0,0,0,0,0l0,0c0,0,0,0,0,0l0,0l0.1,0c0.1-0.1,0.3-0.1,0.4-0.2
			c0.1-0.1,0.3-0.1,0.4-0.2c0.3-0.1,0.5-0.3,0.7-0.4c0.2-0.1,0.5-0.3,0.7-0.4c0.1-0.1,0.2-0.1,0.3-0.2c0.1-0.1,0.2-0.1,0.3-0.2
			c0.2-0.1,0.4-0.3,0.6-0.4c0.2-0.1,0.4-0.2,0.5-0.4c0.3-0.2,0.6-0.4,0.8-0.6c0.2-0.2,0.4-0.3,0.5-0.4c0.1-0.1,0.2-0.1,0.2-0.1
			s-0.2,0.3-0.5,0.7c-0.2,0.2-0.4,0.5-0.7,0.8c-0.1,0.2-0.3,0.3-0.4,0.5c-0.1,0.1-0.2,0.2-0.2,0.2c-0.1,0.1-0.2,0.2-0.3,0.2
			c-0.3,0.3-0.6,0.5-0.9,0.8c0.5-0.2,0.8-0.4,0.8-0.4l0,0c0,0,0,0,0.1,0c0.9-0.2,1.5-0.7,2.2-1.2c0.3-0.3,0.6-0.5,1.1-0.6
			c0.1,0,0.3,0,0.4,0c0.1,0,0.3,0,0.4,0c1.3-0.3,3-1.6,3.3-1.8c0.1-0.1,0.3-0.2,0.4-0.2c0.2,0,0.4,0.2,0.6,0.4
			C32.3,114.6,32.8,116.8,33,119.1z"/>
		<path fill="#DC4339" d="M24.6,125.1c0.1,0.3,0.2,0.5,0.3,0.8l0.3,0.7l0.2,0.4c0.1,0.1,0.1,0.2,0.2,0.4c0.1,0.1,0.1,0.2,0.2,0.4
			c0.1,0.1,0.1,0.2,0.2,0.4c0.1,0.1,0.1,0.2,0.2,0.3c0.1,0.1,0.1,0.2,0.2,0.3c0.1,0.1,0.1,0.2,0.2,0.3l0.1,0.2l0.1,0.2
			c0,0.1,0.1,0.1,0.1,0.2c0,0.1,0.1,0.1,0.1,0.2l0.1,0.1l0.1,0.1c0,0,0.1,0.1,0.1,0.1l0.1,0.1l0.1,0.1c0.1,0.1,0.2,0.2,0.3,0.2
			l0.4,0.4l-0.5,0.2c-0.2,0.1-0.3,0.1-0.5,0.2l-0.2,0.1c-0.1,0-0.2,0.1-0.2,0.1c-0.1,0-0.2,0.1-0.2,0.1c-0.1,0-0.2,0.1-0.2,0.1
			c-0.2,0.1-0.3,0.2-0.5,0.3c0.1-0.1,0.2-0.3,0.3-0.4c0.1-0.1,0.3-0.3,0.4-0.4c0.1-0.1,0.3-0.2,0.5-0.3c0.1,0,0.2-0.1,0.2-0.1
			c0.1,0,0.2-0.1,0.2-0.1l0,0.5c-0.1-0.1-0.3-0.2-0.4-0.2l-0.1-0.1l-0.1-0.1c-0.1,0-0.1-0.1-0.2-0.1l-0.2-0.2l-0.2-0.2
			c-0.1-0.1-0.1-0.1-0.1-0.2c0-0.1-0.1-0.1-0.1-0.2c-0.1-0.1-0.2-0.2-0.3-0.3c-0.1-0.1-0.2-0.2-0.2-0.4c-0.1-0.1-0.1-0.2-0.2-0.4
			c-0.1-0.1-0.1-0.3-0.2-0.4c-0.1-0.1-0.1-0.3-0.2-0.4c0-0.1-0.1-0.3-0.1-0.4c0-0.1-0.1-0.3-0.1-0.4c0-0.1-0.1-0.3-0.1-0.4
			c0-0.1-0.1-0.3-0.1-0.4c0-0.1,0-0.3-0.1-0.4c0-0.1,0-0.3,0-0.4C24.6,125.4,24.6,125.3,24.6,125.1z"/>
	</g>
	<g>
		<g>
			<path fill="#DC4339" d="M288.3,108.2c0.4,0,0.8,0.1,1,0.3c0.4,0.4,0.3,0.8,0.1,1.3c-0.4,1.1-1,1.8-1.7,2.7
				c-1.3,1.4-2.6,2.8-3.9,4.3c-0.4,0.5-1.9,2.6-1.9,2.6s1.8-1,2.7-1.8c1.1-1,3.3-2.7,4.6-4.3c0.6-0.7,1.1-1.4,2-1.8
				c0.2-0.1,0.5-0.2,0.7-0.2c0.3,0,0.6,0.1,0.8,0.3c0.5,0.4,0.2,1,0,1.5c-0.8,1.6-2.1,3-3.4,4.3c-1.5,1.5-2.5,2.7-3.3,3.5
				c-0.8,0.8-2.3,3.2-2.3,3.2s1.5-1,1.9-1.3c0.9-0.5,1.6-1,2.2-1.4c0.6-0.5,1.4-0.9,2.2-1.6c0.4-0.3,0.9-0.6,1.4-0.8
				c0.3-0.1,0.5-0.2,0.8-0.2c0.4,0,0.8,0.2,1.1,0.5c0.5,0.7,0.1,1.3-0.3,1.8c-1.6,2-3.6,3.4-5.4,5.2c-2.1,2.1-3.8,4.6-6,6.5
				c-1.5,1.3-2.7,2.8-3.9,4.5c-1.2,1.8-1.9,3.8-1.7,6c0.1,0.8-0.2,1.1-0.9,1.2c-1.7,0.4-3.4,0.6-5.2,0.6c-0.1,0-0.2,0-0.3,0
				c-0.1,0-0.2,0-0.3,0c-1.7,0-3.4-0.2-5.2-0.6c-0.7-0.1-1-0.4-0.9-1.1c0.2-4-1.3-6.3-4.6-8.6c-1.1-0.8-2.2-1.5-3.3-2.3
				c-1.4-1.1-1.4-1.7-0.2-3.1c0.9-0.9,1.9-1.6,2.9-2.3c1.9-1.3,3.8-2.6,5-4.7c0.1-0.2,0.3-0.3,0.4-0.3c0.1,0,0.3,0.1,0.4,0.3
				c0.4,0.5,0.5,1.1,0.3,1.7c-0.3,1.1-0.9,1.9-1.7,2.7c-0.8,0.9-1,1.9-0.5,3c0.5,1,1.5,1.3,2.4,1.3c0.1,0,0.1,0,0.2,0
				c3.3-0.1,7.1-3,8-6.2c0.2-0.6,0.2-1.1,0.1-1.7c-0.1-0.8-0.7-1.3-1.5-1.3c-0.1,0-0.2,0-0.3,0c-1,0.2-1.7,0.7-2.5,1.2
				c-0.5,0.3-1,0.6-1.5,0.6c-0.3,0-0.5-0.1-0.8-0.3c-0.6-0.4-1-1.2-1-1.9c0-0.5,0.8-0.5,1.3-0.6c1.3-0.5,2.3-1.4,3.4-2.2
				c1.1-0.7,1.8-1.1,2.5-1.1c0.7,0,1.4,0.4,2.6,1.3c0.4,0.4,0.8,0.5,1.1,0.5c0.4,0,0.8-0.3,1.4-0.8c3.1-3.2,5.7-6.1,8.8-9.1
				c0.6-0.6,1.2-1.1,2-1.3C288,108.2,288.1,108.2,288.3,108.2 M288.3,106.7c-0.3,0-0.5,0-0.8,0.1c-1.2,0.3-2,1-2.7,1.7
				c-1.6,1.6-3.1,3.2-4.7,4.8c-1.3,1.4-2.7,2.8-4.1,4.3c-0.2,0.2-0.3,0.3-0.4,0.3c0,0-0.1-0.1-0.2-0.1c-1.1-0.9-2.2-1.7-3.5-1.7
				c-1.1,0-2,0.5-3.3,1.4c-0.3,0.2-0.5,0.4-0.8,0.6c-0.8,0.6-1.5,1.1-2.4,1.5c0,0-0.1,0-0.2,0c-0.3,0.1-0.6,0.1-0.9,0.3
				c-0.4,0.2-0.7,0.5-0.8,0.8c-0.1,0-0.2,0-0.3,0c-0.4,0-1.1,0.1-1.6,1.1c-0.9,1.6-2.5,2.8-4.1,4c-0.1,0.1-0.3,0.2-0.4,0.3l-0.2,0.2
				c-1,0.7-2,1.4-2.9,2.4c-0.7,0.8-1.4,1.7-1.3,2.8c0.1,1.1,0.9,1.9,1.7,2.5c0.7,0.6,1.5,1.1,2.3,1.6c0.4,0.2,0.7,0.5,1.1,0.8
				c3.1,2.2,4.1,4.1,4,7.3c0,0.8,0.2,2.3,2.1,2.6c2.2,0.4,3.9,0.6,5.5,0.6c0.1,0,0.2,0,0.3,0c0.1,0,0.2,0,0.3,0
				c1.8,0,3.5-0.2,5.5-0.7c2-0.4,2.2-1.9,2.1-2.8c-0.2-1.8,0.3-3.5,1.4-5.1c1.2-1.7,2.3-3.1,3.6-4.2c1.3-1.2,2.5-2.5,3.6-3.9
				c0.8-1,1.6-1.9,2.4-2.7c0.7-0.7,1.4-1.3,2.1-1.9c1.2-1,2.4-2.1,3.4-3.4c0.2-0.3,0.6-0.7,0.8-1.3c0.3-0.8,0.1-1.6-0.5-2.3
				c-0.6-0.7-1.4-1.1-2.2-1.1c-0.3,0-0.6,0-0.9,0.1c1-1.1,2-2.4,2.8-3.7c0.2-0.4,0.4-0.8,0.4-1.2c0.1-0.8-0.2-1.5-0.7-2
				c-0.5-0.4-1.1-0.7-1.8-0.7c-0.4,0-0.7,0.1-1.1,0.2c0.2-0.7,0.4-1.7-0.5-2.6C289.8,107,289.1,106.7,288.3,106.7L288.3,106.7z
				 M266.7,125.1c0.9,0,1.6-0.4,2.2-0.7l0.1,0c0.2-0.1,0.4-0.2,0.6-0.3c0.5-0.3,1-0.6,1.5-0.7c0,0,0.1,0,0.1,0c0,0,0.1,0,0.1,0
				c0,0,0,0,0,0.1c0.1,0.4,0,0.7-0.1,1.1c-0.4,1.2-1.3,2.5-2.6,3.5c-1.3,1-2.8,1.6-4,1.6c0,0-0.1,0-0.1,0c-0.9,0-1.1-0.3-1.1-0.4
				c-0.2-0.4-0.2-0.8,0.3-1.4c0.9-1,1.5-2,1.9-3C265.8,125,266.2,125.1,266.7,125.1L266.7,125.1z"/>
			<path fill="#FFFFFF" d="M292.9,121.2c-1.6,2-3.6,3.4-5.4,5.2c-2.1,2.1-3.8,4.6-6,6.5c-1.5,1.3-2.7,2.8-3.9,4.5
				c-1.2,1.8-1.9,3.8-1.7,6c0.1,0.8-0.2,1.1-0.9,1.2c-1.8,0.4-3.5,0.6-5.5,0.6c-1.7,0-3.6-0.2-5.5-0.6c-0.7-0.1-1-0.4-0.9-1.1
				c0.2-4-1.3-6.3-4.6-8.6c-1.1-0.8-2.2-1.5-3.3-2.3c-1.4-1.1-1.4-1.7-0.2-3.1c0.9-0.9,1.9-1.6,2.9-2.3c1.9-1.3,3.8-2.6,5-4.7
				c0.3-0.5,0.5-0.4,0.8,0c0.4,0.5,0.5,1.1,0.3,1.7c-0.3,1.1-0.9,1.9-1.7,2.7c-0.8,0.9-1,1.9-0.5,3c0.5,1.1,1.6,1.3,2.6,1.2
				c3.3-0.1,7.1-3,8-6.2c0.2-0.6,0.2-1.1,0.1-1.7c-0.2-0.9-0.9-1.4-1.9-1.3c-1,0.2-1.7,0.7-2.5,1.2c-0.7,0.4-1.5,0.9-2.3,0.3
				c-0.6-0.4-1-1.2-1-1.9c0-0.5,0.8-0.5,1.3-0.6c1.3-0.5,2.3-1.4,3.4-2.2c2.3-1.5,2.9-1.5,5.1,0.2c1,0.8,1.6,0.6,2.5-0.3
				c3.1-3.2,5.7-6.1,8.8-9.1c0.6-0.6,1.2-1.1,2-1.3c0.4-0.1,1.1,0,1.4,0.3c0.4,0.4,0.3,0.8,0.1,1.3c-0.4,1.1-1,1.8-1.7,2.7
				c-1.3,1.4-2.6,2.8-3.9,4.3c-0.4,0.5-1.9,2.6-1.9,2.6s1.8-1,2.7-1.8c1.1-1,3.3-2.7,4.6-4.3c0.6-0.7,1.1-1.4,2-1.8
				c0.5-0.2,1.1-0.3,1.5,0.1c0.5,0.4,0.2,1,0,1.5c-0.8,1.6-2.1,3-3.4,4.3c-1.5,1.5-2.5,2.7-3.3,3.5c-0.8,0.8-2.3,3.2-2.3,3.2
				s1.5-1,1.9-1.3c0.9-0.5,1.6-1,2.2-1.4c0.6-0.5,1.4-0.9,2.2-1.6c0.4-0.3,0.9-0.6,1.4-0.8c0.7-0.3,1.4-0.3,1.9,0.3
				C293.8,120.1,293.3,120.7,292.9,121.2z"/>
			<path fill="#FFFFFF" d="M251.2,115.3c0,0,0,0,0.1,0c0.1,0,0.2,0,0.3,0c0.3,0,0.7,0,1.2,0.1c0.5,0.1,1,0.2,1.6,0.3
				c0.6,0.1,1.2,0.3,1.8,0.5c0.6,0.2,1.2,0.4,1.7,0.7c0.5,0.2,1,0.5,1.4,0.7c0.4,0.2,0.7,0.5,1,0.6c0.1,0.1,0.2,0.2,0.3,0.2
				c0.1,0,0.1,0.1,0.1,0.1s0,0-0.1,0c-0.1,0-0.2,0-0.3,0c-0.3,0-0.7,0-1.2-0.1c-0.5-0.1-1-0.2-1.6-0.3c-0.6-0.1-1.2-0.3-1.8-0.5
				c-0.6-0.2-1.2-0.4-1.7-0.7c-0.5-0.2-1-0.5-1.4-0.7c-0.4-0.2-0.7-0.5-1-0.6C251.4,115.5,251.3,115.4,251.2,115.3
				C251.2,115.3,251.2,115.3,251.2,115.3z"/>
			<path fill="#FFFFFF" d="M259.7,107.6C259.7,107.6,259.8,107.7,259.7,107.6c0.1,0.2,0.2,0.2,0.3,0.4c0.2,0.2,0.4,0.6,0.6,1
				c0.2,0.4,0.5,0.9,0.7,1.5c0.2,0.5,0.4,1.1,0.6,1.7c0.2,0.6,0.4,1.2,0.5,1.8c0.1,0.6,0.2,1.1,0.3,1.6c0.1,0.5,0.1,0.9,0.1,1.2
				c0,0.1,0,0.3,0,0.3c0,0.1,0,0.1,0,0.1s0,0-0.1-0.1c0-0.1-0.1-0.2-0.2-0.3c-0.2-0.2-0.4-0.6-0.6-1c-0.2-0.4-0.5-0.9-0.7-1.5
				c-0.2-0.5-0.4-1.1-0.6-1.7c-0.2-0.6-0.4-1.2-0.5-1.8c-0.1-0.6-0.2-1.1-0.3-1.6c-0.1-0.5-0.1-0.9-0.1-1.2c0-0.1,0-0.3,0-0.3
				C259.7,107.7,259.7,107.6,259.7,107.6z"/>
			<path fill="#FFFFFF" d="M265.3,116C265.3,116,265.3,116,265.3,116c0-0.2,0-0.2,0-0.3c0-0.2,0-0.5,0-0.9c0-0.4,0.1-0.8,0.1-1.2
				c0.1-0.4,0.2-0.9,0.3-1.3c0.1-0.4,0.3-0.9,0.5-1.3c0.2-0.4,0.4-0.8,0.6-1.1c0.2-0.3,0.4-0.6,0.5-0.7c0.1-0.1,0.1-0.2,0.2-0.2
				c0,0,0.1-0.1,0.1-0.1s0,0,0,0.1c0,0.1,0,0.1,0,0.3c0,0.2,0,0.5,0,0.9c0,0.4-0.1,0.8-0.1,1.2c-0.1,0.4-0.2,0.9-0.3,1.3
				c-0.1,0.4-0.3,0.9-0.5,1.3c-0.2,0.4-0.4,0.8-0.6,1.1c-0.2,0.3-0.4,0.6-0.5,0.7C265.5,115.9,265.4,115.9,265.3,116
				C265.3,116,265.3,116,265.3,116z"/>
		</g>
	</g>
</g>
</svg>
