<?xml version="1.0" encoding="utf-8"?>
<!-- Generator: Adobe Illustrator 18.0.0, SVG Export Plug-In . SVG Version: 6.00 Build 0)  -->
<!DOCTYPE svg PUBLIC "-//W3C//DTD SVG 1.1//EN" "http://www.w3.org/Graphics/SVG/1.1/DTD/svg11.dtd">
<svg version="1.1" id="Layer_1" xmlns="http://www.w3.org/2000/svg" xmlns:xlink="http://www.w3.org/1999/xlink" x="0px" y="0px"
	 viewBox="0 0 300 230" enable-background="new 0 0 300 230" xml:space="preserve">
<g>
	<path fill="#5596C0" d="M288.1,55.9c-1.1-1.8-4.8-4.5-23.1-9.3c-11.1-2.9-26.2-6.3-43.7-9.7c-30.3-5.9-64.3-11.3-71.3-11.3
		c-7.1,0-41.1,5.4-71.4,11.3c-17.5,3.4-32.7,6.8-43.7,9.7c-18.3,4.8-22,7.5-23.1,9.3C5.8,65.2,3.4,70.8,3.4,117s2.4,51.8,8.3,61.1
		c1.1,1.8,4.8,4.4,23.1,9.3c11.1,2.9,26.2,6.3,43.7,9.7c30.3,5.9,64.3,11.3,71.3,11.3c7.1,0,41.1-5.4,71.4-11.3
		c17.5-3.4,32.7-6.8,43.7-9.7c18.3-4.8,22-7.5,23.1-9.3c6.3-10,8.3-17,8.3-61.1C296.4,70.9,294,65.3,288.1,55.9z"/>
	<path fill="#162636" d="M149.9,27.7c13.1,0,130.8,20.2,136.5,29.3s8,14.8,8,60s-2.2,50.9-8,60s-123.5,29.3-136.5,29.3
		c-13.1,0-130.8-20.2-136.5-29.3c-5.8-9.1-8-14.8-8-60s2.2-50.9,8-60S136.8,27.7,149.9,27.7 M149.9,22.2c-7.4,0-41,5.3-72.1,11.3
		c-17.6,3.4-32.8,6.8-44,9.7C13.5,48.6,10.2,51.5,8.6,54c-6.7,10.5-8.8,17.7-8.8,63s2.2,52.4,8.8,63c1.6,2.5,4.9,5.5,25.2,10.8
		c11.1,2.9,26.3,6.3,44,9.7c31,6,64.7,11.3,72.1,11.3s41-5.3,72.1-11.3c17.6-3.4,32.8-6.8,44-9.7c20.3-5.4,23.6-8.3,25.2-10.8
		c6.7-10.5,8.8-17.7,8.8-63s-2.2-52.4-8.8-63c-1.6-2.5-4.9-5.5-25.2-10.8c-11.1-2.9-26.3-6.3-44-9.7
		C190.9,27.5,157.3,22.2,149.9,22.2L149.9,22.2z"/>
	<path fill="#162636" d="M260.3,79.6c-2.8-4.7-7.1-8.7-12.6-12.1c-4.1-2.5-8.6-4.5-13-6.1l21.4-17.9l3.6-3l-3-3.5l-2.4-2.7
		c-9.3-11-23.3-16.5-41.7-16.5c-2,0-4.1,0.1-6.2,0.2c-6.4,0.4-18.8,1.7-29.5,6.4c-2.8,1.2-5.4,2.6-7.7,4.2c-0.4,0.2-0.7,0.5-1.1,0.8
		l-16.5,11.8c-0.5,0.4-1,0.7-1.5,1.1v-0.7l-1.3-1.3L130,21.6l-1.3-1.3l-1.8-0.1l-2.7-0.1c-9.7-0.3-19.6-0.6-29.3-1.1h-3l-4.8-0.2
		v4.8v68c0,0.8,0,1.8-0.6,2.6c-1.1,1.4-4,2.3-8.1,2.5c-0.2,0-0.5,0-0.7,0c-4.6,0-8.3-2-12.2-6.8l-1.4-1.6l-2.2-2.7L58.7,87l-1.9,0.9
		c-8.2,3.7-16.3,7.4-24.1,11.2l-3,1.4l-4.8,2.3l3.1,4.4l1.3,1.9l4.2,5.2l14.3,15.3l0.1,0.1l0.1,0.1c13.1,12.6,26.2,17.8,45.5,17.8
		c1.8,0,3.7,0,5.6-0.1c7.1-0.3,20.6-1.8,31.8-7.6c3-1.6,5.8-3.4,8.1-5.5c4.6,2.9,9.9,5.4,15.8,7.3c8.7,2.8,18.8,4.5,30.9,5.2
		c2.1,0.1,4.3,0.2,6.5,0.2c6.7,0,19.7-0.7,30.8-5.4c13.9-5.9,31.3-23.8,32.9-25.4c5.7-5.4,8.8-12.5,8.8-20.7
		C264.7,89.8,263.2,84.4,260.3,79.6z M141.8,106l0-24.2l24.8,12.4L141.8,106z"/>
	<g>
		<path fill="#162636" d="M126.7,24.8l-16.4,17.4v68l0,0c0,2.3,0.2,9.2-13.1,9.7c-0.3,0-0.6,0-0.9,0c-6.1,0-10.9-2.6-15.7-8.5
			l-1.4-1.6l-1.9,0.9c-8.2,3.7-32.9-3.2-40.6,0.5l14.4,15.3C62.3,137.3,73.9,143,93.4,143c1.7,0,3.6,0,5.4-0.1
			c6.7-0.3,19.5-1.7,29.9-7.1c11-5.7,16.7-14.6,16.7-25.7V43.5L126.7,24.8z"/>
		<path fill="#162636" d="M222.8,90c-8.2-5-18.2-7.9-26.3-10.1c-2.9-0.8-4.4-1.2-7.3-2c-0.8-0.2-1.7-0.4-2.7-0.7
			c-5-1.2-13.5-3.3-13.4-7.8c0-0.6,0.1-2.6,3.6-4.1c2.1-0.9,5-1.5,7.8-1.6c0.3,0,0.6,0,0.9,0c6.7,0,12,2.3,15.8,6.7l1.4,1.6l1.9-0.9
			c7.8-3.6,15.6-7.3,23-10.9l3.3-1.6l22.4-18.7c-8.4-9.7-46,1.3-63,1.3c-1.9,0-18.5-8.7-18.5-8.7L154.1,45
			c-10.4,7.2-15.6,15.2-15.6,25c0,8.8,4.5,16.1,13.6,21.6c7.3,4.5,16.2,7.1,23.4,9.1l0.5,0.1c2.9,0.8,4.4,1.2,7.3,2.1
			c0.9,0.3,2,0.5,3.1,0.8c6.2,1.6,16.5,4.3,16.4,9.6c0,0.9-0.1,3.3-5.3,4.9c-2.8,0.9-6.5,1.3-11.1,1.3c-0.2,0-0.5,0-0.7,0
			c-10.7-0.1-25.1-14-25.1-14l-10.2-6.7L128,117.5l2.5,3.1c6,7.4,14.7,13,25.9,16.6c8.3,2.6,18,4.3,29.8,4.9c2,0.1,4.1,0.2,6.2,0.2
			c8,0,19.5-1,29-5c13.5-5.7,31.4-24.5,31.4-24.5S232.7,96,222.8,90z"/>
		<path fill="#FFFFFF" d="M94.6,23.7l-2.9-0.1v68l0,0c0,2.3,0.2,9.2-13.1,9.7c-0.3,0-0.6,0-0.9,0c-6.1,0-10.9-2.6-15.7-8.5l-1.4-1.6
			l-1.9,0.9c-8.2,3.7-16.3,7.4-24,11.1l-3,1.4l1.9,2.7c7.8,11.3,21.7,17,41.1,17c1.7,0,3.6,0,5.4-0.1c6.7-0.3,19.5-1.7,29.9-7.1
			c11-5.7,16.7-14.6,16.7-25.7V24.8l-2.7-0.1C114.2,24.5,104.3,24.1,94.6,23.7z"/>
		<path fill="#FFFFFF" d="M245.3,71.3c-8.2-5-18.2-7.9-26.3-10.1c-2.9-0.8-4.4-1.2-7.3-2c-0.8-0.2-1.7-0.4-2.7-0.7
			c-5-1.2-13.5-3.3-13.4-7.8c0-0.6,0.1-2.6,3.6-4.1c2.1-0.9,5-1.5,7.8-1.6c0.3,0,0.6,0,0.9,0c6.7,0,12,2.3,15.8,6.7l1.4,1.6l1.9-0.9
			c7.8-3.6,15.6-7.3,23-10.9l3.3-1.6l-2.4-2.7c-8.4-9.7-21.2-14.7-38.2-14.7c-1.9,0-3.9,0.1-5.9,0.2c-6.1,0.4-17.9,1.6-28,6
			c-11.6,5-17.7,12.9-17.8,22.7c0,8.8,4.5,16.1,13.6,21.6c7.3,4.5,16.2,7.1,23.4,9.1l0.5,0.1c2.9,0.8,4.4,1.2,7.3,2.1
			c0.9,0.3,2,0.5,3.1,0.8c6.2,1.6,16.5,4.3,16.4,9.6c0,0.9-0.1,3.3-5.3,4.9c-2.8,0.9-6.5,1.3-11.1,1.3c-0.2,0-0.5,0-0.7,0
			c-10.7-0.1-20.3-4.1-27-11.2l-1.3-1.3l-8,2.8c-5.9,2.1-11.8,4.2-17.8,6.3l-3.7,1.3l2.5,3.1c6,7.4,14.7,13,25.9,16.6
			c8.3,2.6,18,4.3,29.8,4.9c2,0.1,4.1,0.2,6.2,0.2c8,0,19.6-0.9,29-5c10.7-4.7,16.4-12.7,16.4-23.2
			C260.1,85.5,255.1,77.3,245.3,71.3z"/>
	</g>
	<g>
		<path fill="#162636" d="M39.8,167.6c0-3.4,2.6-5.8,5.8-5.8c2.1,0,3.5,0.7,4.5,2.3l-1.8,1.3c-0.5-0.9-1.5-1.5-2.8-1.5
			c-2.1,0-3.4,1.6-3.4,3.7s1.4,3.7,3.4,3.7c1.5,0,2.3-0.7,2.9-1.7l1.8,1.3c-1,1.5-2.6,2.5-4.7,2.5C42.4,173.4,39.8,170.9,39.8,167.6
			z"/>
		<path fill="#162636" d="M58.4,161.8h0.2l5.2,11.4h-2.5l-0.5-1.3h-4.6l-0.5,1.3h-2.3L58.4,161.8z M60,170l-0.8-2
			c-0.3-0.8-0.7-2-0.7-2s-0.3,1.2-0.7,2l-0.8,2H60z"/>
		<path fill="#162636" d="M68,161.9h2.3v9.3h5.1v2.1H68V161.9z"/>
		<path fill="#162636" d="M80.1,161.9h2.3v9.3h5.1v2.1H80L80.1,161.9L80.1,161.9z"/>
		<path fill="#162636" d="M98.5,161.9h7.3v2.1h-5v3.8h4.5v2.1h-4.5v3.5h-2.3V161.9z"/>
		<path fill="#162636" d="M109.8,167.6c0-3.4,2.6-5.8,5.9-5.8s5.9,2.5,5.9,5.8s-2.6,5.8-5.9,5.8
			C112.5,173.4,109.8,170.9,109.8,167.6z M119.2,167.6c0-2.1-1.4-3.7-3.5-3.7s-3.5,1.6-3.5,3.7s1.4,3.7,3.5,3.7
			C117.8,171.3,119.2,169.7,119.2,167.6z"/>
		<path fill="#162636" d="M134.6,173.2h-2.7l-1.9-2.9c-0.2,0-0.5,0.1-0.7,0.1h-0.8v2.8h-2.3v-11.3h3.1c3.2,0,5.1,1.5,5.1,4.3
			c0,1.8-0.8,2.9-2.2,3.5L134.6,173.2z M129.3,168.4c1.9,0,2.7-0.6,2.7-2.2c0-1.6-0.9-2.2-2.7-2.2h-0.7v4.4H129.3z"/>
		<path fill="#162636" d="M145.5,161.9h3.1c3.2,0,5.1,1.7,5.1,4.4s-1.9,4.4-5.1,4.4h-0.8v2.6h-2.3V161.9z M148.6,168.6
			c1.9,0,2.7-0.8,2.7-2.3c0-1.6-0.9-2.3-2.7-2.3h-0.7v4.7L148.6,168.6L148.6,168.6z"/>
		<path fill="#162636" d="M166.6,173.2h-2.7l-1.9-2.9c-0.2,0-0.5,0.1-0.7,0.1h-0.8v2.8h-2.3v-11.3h3.1c3.2,0,5.1,1.5,5.1,4.3
			c0,1.8-0.8,2.9-2.2,3.5L166.6,173.2z M161.3,168.4c1.9,0,2.7-0.6,2.7-2.2c0-1.6-0.9-2.2-2.7-2.2h-0.7v4.4H161.3z"/>
		<path fill="#162636" d="M170.7,167.6c0-3.4,2.6-5.8,5.9-5.8c3.3,0,5.9,2.5,5.9,5.8s-2.6,5.8-5.9,5.8
			C173.3,173.4,170.7,170.9,170.7,167.6z M180.1,167.6c0-2.1-1.4-3.7-3.5-3.7s-3.5,1.6-3.5,3.7s1.4,3.7,3.5,3.7
			C178.7,171.3,180.1,169.7,180.1,167.6z"/>
		<path fill="#162636" d="M187.1,161.9h3.1c3.2,0,5.1,1.7,5.1,4.4s-1.9,4.4-5.1,4.4h-0.8v2.6h-2.3V161.9z M190.2,168.6
			c1.9,0,2.7-0.8,2.7-2.3c0-1.6-0.9-2.3-2.7-2.3h-0.7v4.7L190.2,168.6L190.2,168.6z"/>
		<path fill="#162636" d="M199.5,167.6c0-3.4,2.6-5.8,5.9-5.8c3.3,0,5.9,2.5,5.9,5.8s-2.6,5.8-5.9,5.8
			C202.1,173.4,199.5,170.9,199.5,167.6z M208.8,167.6c0-2.1-1.4-3.7-3.5-3.7s-3.5,1.6-3.5,3.7s1.4,3.7,3.5,3.7
			C207.4,171.3,208.8,169.7,208.8,167.6z"/>
		<path fill="#162636" d="M214.8,171l1.9-1.1c0.5,0.8,1.2,1.4,2.3,1.4c1,0,1.6-0.5,1.6-1.2c0-0.8-0.6-1.1-1.7-1.6l-0.6-0.3
			c-1.7-0.7-2.8-1.6-2.8-3.5c0-1.8,1.3-3.1,3.4-3.1c1.5,0,2.6,0.5,3.3,1.9l-1.8,1.2c-0.4-0.7-0.8-1-1.5-1s-1.1,0.4-1.1,1
			c0,0.7,0.4,1,1.4,1.4l0.6,0.3c2,0.9,3.1,1.7,3.1,3.7c0,2.1-1.7,3.3-3.9,3.3C216.9,173.4,215.5,172.3,214.8,171z"/>
		<path fill="#162636" d="M231.2,161.8h0.2l5.2,11.4h-2.5l-0.5-1.3H229l-0.5,1.3h-2.3L231.2,161.8z M232.8,170l-0.8-2
			c-0.3-0.8-0.7-2-0.7-2s-0.3,1.2-0.7,2l-0.8,2H232.8z"/>
		<path fill="#162636" d="M240.8,161.9h2.3v9.3h5.1v2.1h-7.5L240.8,161.9L240.8,161.9z"/>
		<path fill="#162636" d="M251.9,171l1.9-1.1c0.5,0.8,1.2,1.4,2.3,1.4c1,0,1.6-0.5,1.6-1.2c0-0.8-0.6-1.1-1.7-1.6l-0.6-0.3
			c-1.7-0.7-2.8-1.6-2.8-3.5c0-1.8,1.3-3.1,3.4-3.1c1.5,0,2.6,0.5,3.3,1.9l-1.8,1.2c-0.4-0.7-0.8-1-1.5-1c-0.7,0-1.1,0.4-1.1,1
			c0,0.7,0.4,1,1.4,1.4l0.6,0.3c2,0.9,3.1,1.7,3.1,3.7c0,2.1-1.7,3.3-3.9,3.3C254,173.4,252.6,172.3,251.9,171z"/>
	</g>
</g>
</svg>
