<svg xmlns="http://www.w3.org/2000/svg" viewBox="0 0 300 230"><path fill="#5596C0" d="M288.1 55.9c-1.1-1.8-4.8-4.5-23.1-9.3-11.1-2.9-26.2-6.3-43.7-9.7C191 31 157 25.6 150 25.6c-7.1 0-41.1 5.4-71.4 11.3-17.5 3.4-32.7 6.8-43.7 9.7-18.3 4.8-22 7.5-23.1 9.3-6 9.3-8.4 14.9-8.4 61.1s2.4 51.8 8.3 61.1c1.1 1.8 4.8 4.4 23.1 9.3 11.1 2.9 26.2 6.3 43.7 9.7 30.3 5.9 64.3 11.3 71.3 11.3 7.1 0 41.1-5.4 71.4-11.3 17.5-3.4 32.7-6.8 43.7-9.7 18.3-4.8 22-7.5 23.1-9.3 6.3-10 8.3-17 8.3-61.1.1-46.1-2.3-51.7-8.2-61.1z"/><path fill="#162636" d="M149.9 27.7c13.1 0 130.8 20.2 136.5 29.3s8 14.8 8 60-2.2 50.9-8 60-123.5 29.3-136.5 29.3c-13.1 0-130.8-20.2-136.5-29.3-5.8-9.1-8-14.8-8-60s2.2-50.9 8-60 123.4-29.3 136.5-29.3m0-5.5c-7.4 0-41 5.3-72.1 11.3-17.6 3.4-32.8 6.8-44 9.7C13.5 48.6 10.2 51.5 8.6 54 1.9 64.5-.2 71.7-.2 117s2.2 52.4 8.8 63c1.6 2.5 4.9 5.5 25.2 10.8 11.1 2.9 26.3 6.3 44 9.7 31 6 64.7 11.3 72.1 11.3s41-5.3 72.1-11.3c17.6-3.4 32.8-6.8 44-9.7 20.3-5.4 23.6-8.3 25.2-10.8 6.7-10.5 8.8-17.7 8.8-63s-2.2-52.4-8.8-63c-1.6-2.5-4.9-5.5-25.2-10.8-11.1-2.9-26.3-6.3-44-9.7-31.1-6-64.7-11.3-72.1-11.3z"/><path fill="#162636" d="M260.3 79.6c-2.8-4.7-7.1-8.7-12.6-12.1-4.1-2.5-8.6-4.5-13-6.1l21.4-17.9 3.6-3-3-3.5-2.4-2.7c-9.3-11-23.3-16.5-41.7-16.5-2 0-4.1.1-6.2.2-6.4.4-18.8 1.7-29.5 6.4-2.8 1.2-5.4 2.6-7.7 4.2-.4.2-.7.5-1.1.8l-16.5 11.8c-.5.4-1 .7-1.5 1.1v-.7l-1.3-1.3L130 21.6l-1.3-1.3-1.8-.1-2.7-.1c-9.7-.3-19.6-.6-29.3-1.1h-3l-4.8-.2v72.8c0 .8 0 1.8-.6 2.6-1.1 1.4-4 2.3-8.1 2.5h-.7c-4.6 0-8.3-2-12.2-6.8l-1.4-1.6-2.2-2.7-3.2 1.4-1.9.9c-8.2 3.7-16.3 7.4-24.1 11.2l-3 1.4-4.8 2.3 3.1 4.4 1.3 1.9 4.2 5.2 14.3 15.3.1.1.1.1c13.1 12.6 26.2 17.8 45.5 17.8 1.8 0 3.7 0 5.6-.1 7.1-.3 20.6-1.8 31.8-7.6 3-1.6 5.8-3.4 8.1-5.5 4.6 2.9 9.9 5.4 15.8 7.3 8.7 2.8 18.8 4.5 30.9 5.2 2.1.1 4.3.2 6.5.2 6.7 0 19.7-.7 30.8-5.4 13.9-5.9 31.3-23.8 32.9-25.4 5.7-5.4 8.8-12.5 8.8-20.7 0-5.8-1.5-11.2-4.4-16zM141.8 106V81.8l24.8 12.4-24.8 11.8z"/><path fill="#162636" d="M126.7 24.8l-16.4 17.4v68c0 2.3.2 9.2-13.1 9.7h-.9c-6.1 0-10.9-2.6-15.7-8.5l-1.4-1.6-1.9.9c-8.2 3.7-32.9-3.2-40.6.5l14.4 15.3C62.3 137.3 73.9 143 93.4 143c1.7 0 3.6 0 5.4-.1 6.7-.3 19.5-1.7 29.9-7.1 11-5.7 16.7-14.6 16.7-25.7V43.5l-18.7-18.7z"/><path fill="#162636" d="M222.8 90c-8.2-5-18.2-7.9-26.3-10.1-2.9-.8-4.4-1.2-7.3-2-.8-.2-1.7-.4-2.7-.7-5-1.2-13.5-3.3-13.4-7.8 0-.6.1-2.6 3.6-4.1 2.1-.9 5-1.5 7.8-1.6h.9c6.7 0 12 2.3 15.8 6.7l1.4 1.6 1.9-.9c7.8-3.6 15.6-7.3 23-10.9l3.3-1.6 22.4-18.7c-8.4-9.7-46 1.3-63 1.3-1.9 0-18.5-8.7-18.5-8.7L154.1 45c-10.4 7.2-15.6 15.2-15.6 25 0 8.8 4.5 16.1 13.6 21.6 7.3 4.5 16.2 7.1 23.4 9.1l.5.1c2.9.8 4.4 1.2 7.3 2.1.9.3 2 .5 3.1.8 6.2 1.6 16.5 4.3 16.4 9.6 0 .9-.1 3.3-5.3 4.9-2.8.9-6.5 1.3-11.1 1.3h-.7c-10.7-.1-25.1-14-25.1-14l-10.2-6.7-22.4 18.7 2.5 3.1c6 7.4 14.7 13 25.9 16.6 8.3 2.6 18 4.3 29.8 4.9 2 .1 4.1.2 6.2.2 8 0 19.5-1 29-5 13.5-5.7 31.4-24.5 31.4-24.5S232.7 96 222.8 90z"/><path fill="#FFF" d="M94.6 23.7l-2.9-.1v68c0 2.3.2 9.2-13.1 9.7h-.9c-6.1 0-10.9-2.6-15.7-8.5l-1.4-1.6-1.9.9c-8.2 3.7-16.3 7.4-24 11.1l-3 1.4 1.9 2.7c7.8 11.3 21.7 17 41.1 17 1.7 0 3.6 0 5.4-.1 6.7-.3 19.5-1.7 29.9-7.1 11-5.7 16.7-14.6 16.7-25.7V24.8l-2.7-.1c-9.8-.2-19.7-.6-29.4-1zM245.3 71.3c-8.2-5-18.2-7.9-26.3-10.1-2.9-.8-4.4-1.2-7.3-2-.8-.2-1.7-.4-2.7-.7-5-1.2-13.5-3.3-13.4-7.8 0-.6.1-2.6 3.6-4.1 2.1-.9 5-1.5 7.8-1.6h.9c6.7 0 12 2.3 15.8 6.7l1.4 1.6 1.9-.9c7.8-3.6 15.6-7.3 23-10.9l3.3-1.6-2.4-2.7c-8.4-9.7-21.2-14.7-38.2-14.7-1.9 0-3.9.1-5.9.2-6.1.4-17.9 1.6-28 6-11.6 5-17.7 12.9-17.8 22.7 0 8.8 4.5 16.1 13.6 21.6 7.3 4.5 16.2 7.1 23.4 9.1l.5.1c2.9.8 4.4 1.2 7.3 2.1.9.3 2 .5 3.1.8 6.2 1.6 16.5 4.3 16.4 9.6 0 .9-.1 3.3-5.3 4.9-2.8.9-6.5 1.3-11.1 1.3h-.7c-10.7-.1-20.3-4.1-27-11.2l-1.3-1.3-8 2.8c-5.9 2.1-11.8 4.2-17.8 6.3l-3.7 1.3 2.5 3.1c6 7.4 14.7 13 25.9 16.6 8.3 2.6 18 4.3 29.8 4.9 2 .1 4.1.2 6.2.2 8 0 19.6-.9 29-5 10.7-4.7 16.4-12.7 16.4-23.2-.1-9.9-5.1-18.1-14.9-24.1z"/><g fill="#162636"><path d="M39.8 167.6c0-3.4 2.6-5.8 5.8-5.8 2.1 0 3.5.7 4.5 2.3l-1.8 1.3c-.5-.9-1.5-1.5-2.8-1.5-2.1 0-3.4 1.6-3.4 3.7s1.4 3.7 3.4 3.7c1.5 0 2.3-.7 2.9-1.7l1.8 1.3c-1 1.5-2.6 2.5-4.7 2.5-3.1 0-5.7-2.5-5.7-5.8zM58.4 161.8h.2l5.2 11.4h-2.5l-.5-1.3h-4.6l-.5 1.3h-2.3l5-11.4zM60 170l-.8-2c-.3-.8-.7-2-.7-2s-.3 1.2-.7 2l-.8 2h3zM68 161.9h2.3v9.3h5.1v2.1H68v-11.4zM80.1 161.9h2.3v9.3h5.1v2.1H80l.1-11.4zM98.5 161.9h7.3v2.1h-5v3.8h4.5v2.1h-4.5v3.5h-2.3v-11.5zM109.8 167.6c0-3.4 2.6-5.8 5.9-5.8s5.9 2.5 5.9 5.8-2.6 5.8-5.9 5.8c-3.2 0-5.9-2.5-5.9-5.8zm9.4 0c0-2.1-1.4-3.7-3.5-3.7s-3.5 1.6-3.5 3.7 1.4 3.7 3.5 3.7 3.5-1.6 3.5-3.7zM134.6 173.2h-2.7l-1.9-2.9c-.2 0-.5.1-.7.1h-.8v2.8h-2.3v-11.3h3.1c3.2 0 5.1 1.5 5.1 4.3 0 1.8-.8 2.9-2.2 3.5l2.4 3.5zm-5.3-4.8c1.9 0 2.7-.6 2.7-2.2s-.9-2.2-2.7-2.2h-.7v4.4h.7zM145.5 161.9h3.1c3.2 0 5.1 1.7 5.1 4.4s-1.9 4.4-5.1 4.4h-.8v2.6h-2.3v-11.4zm3.1 6.7c1.9 0 2.7-.8 2.7-2.3 0-1.6-.9-2.3-2.7-2.3h-.7v4.7l.7-.1zM166.6 173.2h-2.7l-1.9-2.9c-.2 0-.5.1-.7.1h-.8v2.8h-2.3v-11.3h3.1c3.2 0 5.1 1.5 5.1 4.3 0 1.8-.8 2.9-2.2 3.5l2.4 3.5zm-5.3-4.8c1.9 0 2.7-.6 2.7-2.2s-.9-2.2-2.7-2.2h-.7v4.4h.7zM170.7 167.6c0-3.4 2.6-5.8 5.9-5.8 3.3 0 5.9 2.5 5.9 5.8s-2.6 5.8-5.9 5.8c-3.3 0-5.9-2.5-5.9-5.8zm9.4 0c0-2.1-1.4-3.7-3.5-3.7s-3.5 1.6-3.5 3.7 1.4 3.7 3.5 3.7 3.5-1.6 3.5-3.7zM187.1 161.9h3.1c3.2 0 5.1 1.7 5.1 4.4s-1.9 4.4-5.1 4.4h-.8v2.6h-2.3v-11.4zm3.1 6.7c1.9 0 2.7-.8 2.7-2.3 0-1.6-.9-2.3-2.7-2.3h-.7v4.7l.7-.1zM199.5 167.6c0-3.4 2.6-5.8 5.9-5.8 3.3 0 5.9 2.5 5.9 5.8s-2.6 5.8-5.9 5.8c-3.3 0-5.9-2.5-5.9-5.8zm9.3 0c0-2.1-1.4-3.7-3.5-3.7s-3.5 1.6-3.5 3.7 1.4 3.7 3.5 3.7 3.5-1.6 3.5-3.7zM214.8 171l1.9-1.1c.5.8 1.2 1.4 2.3 1.4 1 0 1.6-.5 1.6-1.2 0-.8-.6-1.1-1.7-1.6l-.6-.3c-1.7-.7-2.8-1.6-2.8-3.5 0-1.8 1.3-3.1 3.4-3.1 1.5 0 2.6.5 3.3 1.9l-1.8 1.2c-.4-.7-.8-1-1.5-1s-1.1.4-1.1 1c0 .7.4 1 1.4 1.4l.6.3c2 .9 3.1 1.7 3.1 3.7 0 2.1-1.7 3.3-3.9 3.3-2.1 0-3.5-1.1-4.2-2.4zM231.2 161.8h.2l5.2 11.4h-2.5l-.5-1.3H229l-.5 1.3h-2.3l5-11.4zm1.6 8.2l-.8-2c-.3-.8-.7-2-.7-2s-.3 1.2-.7 2l-.8 2h3zM240.8 161.9h2.3v9.3h5.1v2.1h-7.5l.1-11.4zM251.9 171l1.9-1.1c.5.8 1.2 1.4 2.3 1.4 1 0 1.6-.5 1.6-1.2 0-.8-.6-1.1-1.7-1.6l-.6-.3c-1.7-.7-2.8-1.6-2.8-3.5 0-1.8 1.3-3.1 3.4-3.1 1.5 0 2.6.5 3.3 1.9l-1.8 1.2c-.4-.7-.8-1-1.5-1s-1.1.4-1.1 1c0 .7.4 1 1.4 1.4l.6.3c2 .9 3.1 1.7 3.1 3.7 0 2.1-1.7 3.3-3.9 3.3-2.1 0-3.5-1.1-4.2-2.4z"/></g></svg>