<svg xmlns="http://www.w3.org/2000/svg" viewBox="0 0 1450 520"><path opacity=".25" fill="none" stroke="#162636" stroke-width="4.966" stroke-miterlimit="10" d="M1445 406.7h-42.1v26h-43.5v-30.5h-39v-20.6h-24.6v26l-25.5 13.7v-19.9h-51.5V457l-57.4-9.4-23.8 19.7H1116v-78.4s10.3-4 10.3-14.3l-4.9-4v-45.3s-2.2-11.2-8.5-11.2-7.6 9.4-7.6 9.4v7.2h-6.7v-40.3s0-10.3-7.6-14.3V255h3.1s1.6-35.1-20.8-38.3v-75.1h-6.7v75.1c-22.5 3.2-20.8 38.3-20.8 38.3h3.1v21.1c-7.6 4-7.6 14.3-7.6 14.3v40.3h-6.7v-7.2s-1.3-9.4-7.6-9.4-8.5 11.2-8.5 11.2v45.3l-4.9 4c0 10.3 10.3 14.3 10.3 14.3v78.4h-21.5V350.7h-40.8v-40.6h-26.9s.7-24.4-18.2-24.4c-18.8 0-18.6 24.2-18.6 24.2h-21.5v35.9l-95.5 10.8v-121h-25.1v-25.5h-77.1v-83h-9.1v82.7h-46.4l-47.4 9.1v25.2h-14.1v244h-15.1V477h-22.2c-5 12.1-36.3 26.2-36.3 26.2h-35.3V3.9h-8.1v34.3c-41.3 0-136.1 93.8-136.1 169.4h-27.2V494h-27.2v22.2H234V498h-18.1v-39.3h-37.3v-30.3H104v48.4H65.5v-124L5 410.2v45.3"/></svg>