<svg xmlns="http://www.w3.org/2000/svg" viewBox="0 0 320 320"><path fill="#27241F" d="M110.8 211.4c.9 7.6 17 12 36 9.7 19-2.2 33.6-10.2 32.7-17.8-.9-7.6-17-12-36-9.7-18.9 2.2-33.6 10.2-32.7 17.8z"/><path fill="#A6A08C" d="M114.8 31.8c.2 2.1 4.7 3.3 9.9 2.7 5.2-.6 9.3-2.8 9-4.9-.2-2.1-4.7-3.3-9.9-2.7-5.2.6-9.3 2.8-9 4.9z"/><path fill="#27241F" d="M179.5 203.3s5.6-26.7 5.4-35.7c-.2-7.7-3.1-23.2-6.2-30.3-4.6-10.6-22.7-27.1-26.8-37.9-2-5.2-2.3-16.5-2.6-22-.5-7.8 2.7-24-.1-31.3-2.1-5.2-10-14.6-15.3-16.6-4.5-1.7-15-.4-19 2.2-4.7 3.1-10.2 14.1-11 19.7-1.1 7.8 5.8 22.8 7.2 30.5 1 5.5 3.3 16.5 2.6 22-1.5 11.5-15.3 31.7-17.3 43.1-1.3 7.6-.6 23.3 1 30.9 1.9 8.8 13.5 33.4 13.5 33.4l68.6-8z"/><path fill="#27241F" d="M106.7 213.8c.9 7.6 17 12 36 9.7 19-2.2 33.6-10.2 32.7-17.8-.9-7.6-17-12-36-9.7-18.9 2.2-33.6 10.2-32.7 17.8z"/><path fill="#A6A08C" d="M110.7 34.1c.3 2.1 4.7 3.3 9.9 2.7 5.2-.6 9.3-2.8 9-4.9-.2-2.1-4.7-3.3-9.9-2.7-5.2.6-9.2 2.8-9 4.9z"/><path fill="#C9C4AC" d="M175.4 205.7s5.6-26.7 5.4-35.7c-.2-7.7-3.1-23.2-6.2-30.3-4.6-10.6-22.7-27-26.8-37.9-2-5.2-2.3-16.5-2.6-22-.5-7.8 2.7-24-.1-31.3-2.1-5.2-10-14.6-15.3-16.6-4.5-1.7-15-.4-19 2.2-4.7 3.1-10.2 14.1-11 19.7-1.1 7.8 5.8 22.8 7.2 30.5 1 5.5 3.3 16.5 2.6 22-1.5 11.5-15.3 31.7-17.3 43.1-1.3 7.6-.6 23.3 1 30.9 1.9 8.8 13.5 33.4 13.5 33.4l68.6-8z"/><g><path fill="#27241F" d="M109.5 106.4s12 4.2 24.1 2.7c12.1-1.4 18.3-9.6 18.3-9.6l-2.2-14.2s-5.4 7.4-17.9 8.8c-12.5 1.5-23.8-3.9-23.8-3.9l1.5 16.2z"/></g><g><path fill="#D2D1C9" d="M111.6 211.9c.9 7.6 17 12 36 9.7 19-2.2 33.6-10.2 32.7-17.8-.9-7.6-17-12-36-9.7-18.9 2.2-33.6 10.2-32.7 17.8zM115.6 32.3c.2 2.1 4.7 3.3 9.9 2.7 5.2-.6 9.3-2.8 9-4.9-.2-2.1-4.7-3.3-9.9-2.7-5.2.6-9.3 2.8-9 4.9z"/><path fill="#D2D1C9" d="M180.3 203.8s5.6-26.7 5.4-35.7c-.2-7.7-3.1-23.2-6.2-30.3-4.6-10.6-22.7-27-26.8-37.9-2-5.2-2.3-16.5-2.6-22-.5-7.8 2.7-24-.1-31.3-2.1-5.2-10-14.6-15.3-16.6-4.5-1.7-15-.4-19 2.2-4.7 3.1-10.2 14.1-11 19.7-1.1 7.8 5.8 22.8 7.2 30.5 1 5.5 3.3 16.5 2.6 22-1.5 11.5-15.3 31.7-17.3 43.1-1.3 7.6-.6 23.3 1 30.9 1.9 8.8 13.5 33.4 13.5 33.4l68.6-8z"/><g><path fill="#FFFDF8" d="M107.5 214.3c.9 7.6 17 12 36 9.7 19-2.2 33.6-10.2 32.7-17.8-.9-7.6-17-12-36-9.7-18.9 2.2-33.6 10.2-32.7 17.8zM111.5 34.6c.3 2.1 4.7 3.3 9.9 2.7 5.2-.6 9.3-2.8 9-4.9-.2-2.1-4.7-3.3-9.9-2.7-5.2.6-9.2 2.8-9 4.9z"/><path fill="#FFFDF8" d="M176.2 206.2s5.6-26.7 5.4-35.7c-.2-7.7-3.1-23.2-6.2-30.3-4.6-10.6-22.7-27.1-26.8-37.9-2-5.2-2.3-16.5-2.6-22-.5-7.8 2.7-24-.1-31.3-2.1-5.3-10-14.6-15.3-16.6-4.5-1.7-15-.4-19 2.2-4.7 3.1-10.2 14.1-11 19.7-1.1 7.8 5.8 22.8 7.2 30.5 1 5.5 3.3 16.5 2.6 22C108.7 118.4 95 138.5 93 150c-1.3 7.6-.6 23.3 1 30.9 1.9 8.8 13.5 33.4 13.5 33.4l68.7-8.1z"/></g><g><path fill="#5C2C24" d="M110.3 106.9s12 4.2 24.1 2.7c12.1-1.4 18.3-9.6 18.3-9.6l-2.2-14.2s-5.4 7.4-17.9 8.9c-12.5 1.5-23.8-3.9-23.8-3.9l1.5 16.1z"/></g></g><g><path fill="#27241F" d="M131.9 207.9c-2.5 7.2 10 18.2 28.1 24.5 18 6.3 34.7 5.5 37.2-1.7s-10-18.2-28.1-24.5c-18.1-6.3-34.7-5.5-37.2 1.7z"/><ellipse transform="rotate(-160.787 223.044 51.273)" fill="#C9C4AC" cx="223" cy="51.3" rx="9.6" ry="3.8"/><path fill="#C9C4AC" d="M197.1 230.7s16.7-21.5 20.4-29.7c3.2-7 7.3-22.2 7.7-29.9.5-11.6-8.5-34.2-7.6-45.8.5-5.5 5.2-15.8 7.3-20.9 3-7.2 13-20.4 13.6-28.2.4-5.6-2.6-17.5-6.5-21.6-3.3-3.4-13.3-6.9-18-6.3-5.6.8-15.4 8.2-18.5 12.9-4.4 6.5-4.7 23-6.9 30.6-1.5 5.3-4.2 16.3-7.3 21-6.4 9.7-27.6 21.8-34.4 31.2-4.5 6.3-10.7 20.7-12.6 28.2-2.2 8.8-2.5 36-2.5 36l65.3 22.5z"/><g><path fill="#27241F" d="M136.5 207.6c-2.5 7.2 10 18.2 28.1 24.5 18 6.3 34.7 5.5 37.2-1.7s-10-18.2-28.1-24.5c-18-6.3-34.6-5.6-37.2 1.7z"/><path fill="#C9C4AC" d="M218.7 47.8c-.7 2 2.8 5 7.8 6.8 5 1.7 9.6 1.5 10.3-.5.7-2-2.8-5-7.8-6.8-5-1.7-9.6-1.5-10.3.5z"/><path fill="#27241F" d="M201.8 230.3s16.7-21.5 20.4-29.7c3.2-7 7.3-22.2 7.7-29.9.5-11.6-8.5-34.2-7.6-45.8.5-5.5 5.2-15.8 7.3-21 3-7.2 13-20.4 13.6-28.2.4-5.6-2.6-17.5-6.5-21.6-3.3-3.5-13.3-6.9-18.1-6.3-5.6.8-15.4 8.2-18.5 12.9-4.4 6.5-4.7 23-6.9 30.6-1.5 5.3-4.2 16.3-7.3 21-6.4 9.7-27.6 21.8-34.4 31.2-4.5 6.3-10.7 20.7-12.6 28.2-2.2 8.7-2.5 36-2.5 36l65.4 22.6z"/></g><g><path fill="#B7B19C" d="M181.3 112.5s8.9 9 20.5 13c11.5 4 20.6-.6 20.6-.6l4.3-13.8s-8.1 4.3-19.9.1c-11.9-4.2-19.7-14-19.7-14l-5.8 15.3z"/></g><g><path fill="#D2D1C9" d="M138.3 207.5c-2.5 7.2 10 18.2 28.1 24.5s34.7 5.5 37.2-1.7-10-18.2-28.1-24.5c-18.1-6.3-34.7-5.6-37.2 1.7zM220.4 47.7c-.7 2 2.8 5 7.8 6.8 5 1.7 9.6 1.5 10.3-.5.7-2-2.8-5-7.8-6.8-5-1.7-9.6-1.5-10.3.5z"/><path fill="#D2D1C9" d="M203.5 230.2s16.7-21.5 20.4-29.7c3.2-7 7.3-22.2 7.7-29.9.5-11.6-8.5-34.2-7.6-45.8.5-5.5 5.2-15.8 7.3-20.9 3-7.2 13-20.4 13.6-28.2.4-5.6-2.6-17.5-6.5-21.6-3.3-3.4-13.3-6.9-18.1-6.3-5.6.8-15.4 8.2-18.5 12.9-4.4 6.5-4.7 23-6.9 30.6-1.5 5.3-4.2 16.3-7.3 21-6.4 9.7-27.6 21.8-34.4 31.2-4.5 6.3-10.7 20.7-12.6 28.2-2.2 8.7-2.5 36-2.5 36l65.4 22.5z"/><g><path fill="#FFFDF8" d="M133.6 207.8c-2.5 7.2 10 18.2 28.1 24.5 18 6.3 34.7 5.5 37.2-1.7s-10-18.2-28.1-24.5c-18.1-6.3-34.7-5.5-37.2 1.7zM215.7 48c-.7 2 2.8 5 7.8 6.8 5 1.7 9.6 1.5 10.3-.5.7-2-2.8-5-7.8-6.8-5-1.7-9.6-1.5-10.3.5z"/><path fill="#FFFDF8" d="M198.8 230.6s16.7-21.5 20.4-29.7c3.2-7 7.3-22.2 7.7-29.9.5-11.6-8.6-34.2-7.6-45.8.5-5.5 5.2-15.8 7.3-21 3-7.2 13-20.4 13.6-28.2.4-5.6-2.6-17.5-6.5-21.6-3.3-3.5-13.3-6.9-18-6.3-5.6.8-15.4 8.2-18.5 12.9-4.4 6.5-4.7 23-6.9 30.6-1.5 5.3-4.2 16.3-7.3 21-6.4 9.7-27.6 21.8-34.4 31.2-4.5 6.3-10.7 20.7-12.6 28.2-2.2 8.8-2.5 36-2.5 36l65.3 22.6z"/></g><g><path fill="#5C2C24" d="M183 112.4s8.9 9 20.5 13c11.5 4 20.6-.6 20.6-.6l4.3-13.8s-8.1 4.3-19.9.1c-11.9-4.2-19.7-14-19.7-14l-5.8 15.3z"/></g></g></g><g><path fill="#27241F" d="M191.6 277.4c.2 7.7 15.9 13.4 35 12.7 19.1-.6 34.4-7.3 34.1-15-.3-7.7-15.9-13.4-35-12.7-19.1.7-34.3 7.4-34.1 15z"/><path fill="#B7B19C" d="M210.8 98.8c.1 2.1 4.4 3.7 9.7 3.5 5.3-.2 9.5-2 9.4-4.1-.1-2.1-4.4-3.7-9.7-3.5-5.3.1-9.5 2-9.4 4.1z"/><path fill="#B7B19C" d="M260.7 275.2s7.8-26.1 8.4-35.1c.5-7.7-1.2-23.4-3.6-30.7-3.7-11-20.3-28.9-23.5-40-1.5-5.3-.9-16.6-.7-22.2.2-7.8 4.8-23.7 2.5-31.2-1.6-5.4-8.7-15.4-13.8-17.8-4.3-2-14.9-1.7-19.1.6-4.9 2.7-11.4 13.2-12.6 18.7-1.7 7.6 3.9 23.2 4.6 31 .5 5.5 1.9 16.8.7 22.2-2.5 11.3-17.9 30.3-20.9 41.5-2 7.5-2.6 23.2-1.6 30.9 1.1 8.9 10.7 34.5 10.7 34.5l68.9-2.4z"/><g><path fill="#27241F" d="M187.4 279.4c.3 7.7 15.9 13.4 35 12.7 19.1-.6 34.3-7.3 34.1-15-.3-7.7-15.9-13.4-35-12.7-19.1.6-34.4 7.4-34.1 15z"/><path fill="#B7B19C" d="M206.5 100.8c.1 2.1 4.4 3.7 9.7 3.5 5.3-.2 9.5-2 9.4-4.2-.1-2.1-4.4-3.7-9.7-3.5-5.2.2-9.4 2.1-9.4 4.2z"/><path fill="#C9C4AC" d="M256.5 277.2s7.8-26.1 8.4-35.1c.5-7.7-1.2-23.4-3.6-30.7-3.7-11-20.3-28.9-23.5-40-1.5-5.3-.9-16.6-.7-22.2.2-7.8 4.8-23.7 2.5-31.2-1.6-5.4-8.7-15.4-13.8-17.8-4.3-2-14.9-1.7-19.1.6-4.9 2.7-11.4 13.2-12.7 18.7-1.7 7.6 3.9 23.2 4.6 31 .5 5.5 1.9 16.8.7 22.2-2.5 11.3-17.9 30.3-20.9 41.5-2 7.5-2.6 23.2-1.6 30.9 1.1 9 10.7 34.5 10.7 34.5l69-2.4z"/></g><g><path fill="#B7B19C" d="M199.2 172.6s11.6 5.2 23.8 4.8c12.2-.4 19-8 19-8l-1-14.4s-6 6.9-18.5 7.3c-12.6.4-23.4-5.9-23.4-5.9l.1 16.2z"/></g><g><path fill="#D2D1C9" d="M192.4 278.5c.2 7.7 15.9 13.4 35 12.7 19.1-.6 34.3-7.3 34.1-15-.3-7.7-15.9-13.4-35-12.7-19 .6-34.3 7.4-34.1 15zM211.6 99.9c.1 2.1 4.4 3.7 9.7 3.5 5.3-.2 9.5-2 9.4-4.2-.1-2.1-4.4-3.7-9.7-3.5-5.2.2-9.5 2.1-9.4 4.2z"/><path fill="#D2D1C9" d="M261.6 276.3s7.8-26.1 8.4-35.1c.4-7.7-1.2-23.4-3.6-30.7-3.7-11-20.3-28.9-23.5-40-1.5-5.3-.9-16.6-.7-22.2.2-7.8 4.8-23.7 2.5-31.2-1.6-5.4-8.7-15.4-13.8-17.8-4.3-2-14.9-1.7-19.1.6-4.9 2.7-11.4 13.2-12.6 18.7-1.7 7.6 3.9 23.2 4.6 31 .5 5.5 1.9 16.8.7 22.2-2.5 11.3-17.9 30.3-20.9 41.5-2 7.5-2.6 23.2-1.6 30.9 1.1 8.9 10.7 34.5 10.7 34.5l68.9-2.4z"/><g><path fill="#FFFDF8" d="M188.2 280.5c.2 7.7 15.9 13.4 35 12.7 19.1-.6 34.3-7.3 34.1-15-.3-7.7-15.9-13.4-35-12.7-19.1.6-34.4 7.3-34.1 15zM207.3 101.9c.1 2.1 4.4 3.7 9.7 3.5 5.3-.2 9.5-2 9.4-4.1-.1-2.1-4.4-3.7-9.7-3.5-5.2.1-9.4 1.9-9.4 4.1z"/><path fill="#FFFDF8" d="M257.3 278.2s7.8-26.1 8.4-35.1c.4-7.7-1.2-23.4-3.6-30.7-3.7-11-20.3-28.9-23.5-40-1.5-5.3-.9-16.6-.7-22.2.2-7.8 4.8-23.7 2.5-31.2-1.6-5.4-8.7-15.4-13.8-17.8-4.3-2-14.9-1.7-19.1.6-4.9 2.7-11.4 13.2-12.7 18.7-1.7 7.6 3.9 23.2 4.6 31 .5 5.5 1.9 16.8.7 22.2-2.5 11.3-17.9 30.3-20.9 41.5-2 7.5-2.6 23.2-1.6 30.9 1.1 8.9 10.7 34.5 10.7 34.5l69-2.4z"/></g><g><path fill="#5C2C24" d="M200 173.7s11.6 5.2 23.8 4.8c12.2-.4 19-8 19-8l-1-14.4s-6 6.9-18.5 7.3c-12.6.4-23.4-5.9-23.4-5.9l.1 16.2z"/></g></g></g><g><path fill="#20292C" d="M153.5 254.3c16.8-33.6 6.3-71.4-23.1-92.4-4.8-4-10-8.3-15.5-11.9 1.5-.1 2.9-.2 4.4-.2 38.3 0 69.4 31.1 69.4 69.4 0 38.3-31.1 69.4-69.4 69.4-2.5 0-5-.1-7.4-.4 17.7-5.4 33.4-17.3 41.6-33.9z"/><path fill="#2A373F" d="M50 219.2c0-36.8 28.7-66.9 64.9-69.2 5.6 3.6 10.7 7.9 15.5 11.9 29.4 21 39.9 58.8 23.1 92.4-8.3 16.6-23.9 28.5-41.6 33.8C77.1 284.4 50 255 50 219.2z"/><path fill="#020400" d="M103.2 183.6c0 3.3 4.2 6 9.5 6 5.2 0 9.5-2.7 9.5-6s-4.2-6-9.5-6-9.5 2.7-9.5 6zM117.6 167.8c0 3.3 4.2 6 9.5 6 5.2 0 9.5-2.7 9.5-6s-4.2-6-9.5-6-9.5 2.7-9.5 6zM88.8 165c0 3.3 4.2 6 9.5 6 5.2 0 9.5-2.7 9.5-6s-4.2-6-9.5-6c-5.2 0-9.5 2.7-9.5 6z"/></g></svg>