<svg xmlns="http://www.w3.org/2000/svg" viewBox="0 0 320 320"><path fill="#3F2E12" d="M145.9 225.2h23.8v58.5h-.6c-5.8-20.2-12.6-39.2-23.2-53.5v-5z"/><path fill="#3F2E12" d="M145.9 230.2l-1-61.3h23.8l1.1 114.8"/><path fill="#594018" d="M145.9 230.2c10.6 14.3 17.4 33.3 23.2 53.5H146l-.1-53.5z"/><path fill="#3F2E12" d="M169.8 283.7c0 .5-.1.9-.2 1.4-.5-1.9-1.1-3.7-1.6-5.6 1.2 1.2 1.8 2.6 1.8 4.2z"/><path fill="#594018" d="M158 275.7c4.2 0 7.9 1.5 10 3.7.6 1.9 1.1 3.7 1.6 5.6-1 3.7-5.8 6.6-11.7 6.6-6.6 0-11.9-3.6-11.9-7.9.1-4.4 5.4-8 12-8z"/><path fill="#4C3715" d="M160.7 277.1c0 3.7.2 6.6.4 6.6s.3-3 .3-6.6c0-3.7-.2-6.7-.4-6.6-.2 0-.3 2.9-.3 6.6zM151.8 256.5c0 6.1.3 11 .6 11s.5-4.9.4-11c-.1-6.1-.3-11-.6-11-.2 0-.4 4.9-.4 11z"/><path fill="#2D1F09" d="M164.3 249.1c0 3.7.2 6.6.4 6.6s.3-3 .3-6.6c0-3.7-.2-6.6-.4-6.6-.2-.1-.4 2.9-.3 6.6z"/><path fill="#859946" d="M157.1 154.1c.2 1.1.6 1.9 1 1.8.4-.1.6-1 .4-2-.2-1.1-.6-1.9-1-1.8-.4 0-.6.9-.4 2z"/><path fill="#859946" d="M109.4 187.4c0 27.3 22.1 49.5 49.5 49.5 27.3 0 49.5-22.1 49.5-49.5 0-27.3-22.1-49.5-49.5-49.5-27.4.1-49.5 22.2-49.5 49.5z"/><path fill="#88A337" d="M110.4 190.6c0 24 19.5 43.5 43.5 43.5s43.5-19.5 43.5-43.5-19.5-43.5-43.5-43.5c-24 .1-43.5 19.5-43.5 43.5z"/><path fill="#859946" d="M153 209.9c-.1 1.1.2 2 .6 2 .4 0 .8-.8.8-1.9.1-1.1-.2-2-.6-2-.3 0-.7.8-.8 1.9zM154.7 179.4c.1 1.1.5 1.9.9 1.9s.6-.9.5-2c-.1-1.1-.5-1.9-.9-1.9-.3 0-.6.9-.5 2zM159 155.9c.1 1.1.5 1.9.9 1.9s.6-.9.5-2c-.1-1.1-.5-1.9-.9-1.9-.4.1-.6 1-.5 2zM169 194.1c.2 1.1.6 1.9 1 1.8.4-.1.5-1 .4-2-.2-1.1-.6-1.9-1-1.8-.4 0-.6.9-.4 2zM174.6 168.3c.2 1.1.6 1.9 1 1.8.4-.1.5-1 .4-2-.2-1.1-.6-1.9-1-1.8-.4.1-.6 1-.4 2zM169.8 221.3c-.4 1-.4 1.9-.1 2.1.4.2 1-.5 1.4-1.5.4-1 .4-1.9.1-2.1-.4-.1-1 .6-1.4 1.5zM186.9 199.2c-.2 1-.1 2 .3 2.1.4.1.9-.7 1.1-1.7.2-1 .1-2-.3-2-.4-.2-.9.6-1.1 1.6zM138.6 195.5c-.1 1.1.2 2 .6 2 .4 0 .8-.8.9-1.9.1-1.1-.2-2-.5-2-.5 0-.9.8-1 1.9zM141.9 164.3c-.1 1.1.2 2 .6 2 .4 0 .8-.8.9-1.9.1-1.1-.2-2-.6-2-.5 0-.8.8-.9 1.9zM120.5 181.2c-.1 1.1.2 2 .6 2 .4 0 .8-.8.8-1.9.1-1.1-.2-2-.6-2-.3 0-.7.8-.8 1.9zM135.5 221.6c-.1 1.1.2 2 .6 2 .4 0 .8-.8.9-1.9.1-1.1-.2-2-.6-2-.4 0-.8.8-.9 1.9z"/><path fill="#5C6C2B" d="M200.7 177.7c.5 1 1.1 1.6 1.4 1.5.4-.1.3-1.1-.1-2-.4-1-1.1-1.6-1.4-1.5-.4.1-.3 1 .1 2zM190.9 219.5c-.3 1-.2 2 .1 2.1.4.1.9-.6 1.2-1.7.3-1 .2-2-.1-2.1-.4-.1-.9.7-1.2 1.7zM203.3 191.9c-.3 1-.2 2 .1 2.1.4.1.9-.6 1.2-1.7.3-1 .2-2-.1-2.1-.3-.1-.8.6-1.2 1.7zM181.3 151.6c1 .5 1.9.5 2.1.2.2-.3-.5-1-1.4-1.5-1-.5-1.9-.6-2.1-.2-.2.4.5 1.1 1.4 1.5zM139.6 147.8c.9-.5 1.6-1.2 1.4-1.5-.2-.3-1.1-.2-2 .3-.9.5-1.6 1.2-1.4 1.5.2.3 1.1.2 2-.3z"/><g><path fill="#859946" d="M102.7 107.4c.2 1.1.6 1.9 1 1.8.4-.1.6-1 .4-2-.2-1.1-.6-1.9-1-1.8-.4 0-.6.9-.4 2z"/><path fill="#859946" d="M55 140.7c0 27.3 22.1 49.5 49.5 49.5 27.3 0 49.5-22.1 49.5-49.5 0-27.3-22.1-49.5-49.5-49.5-27.4.1-49.5 22.2-49.5 49.5z"/><path fill="#88A337" d="M56 144c0 24 19.5 43.5 43.5 43.5S143 168 143 144s-19.5-43.5-43.5-43.5S56 119.9 56 144z"/><path fill="#859946" d="M98.6 163.2c-.1 1.1.2 2 .5 2 .4 0 .8-.8.9-1.9.1-1.1-.2-2-.5-2-.4 0-.8.8-.9 1.9zM100.4 132.7c.1 1.1.5 1.9.9 1.9s.6-.9.5-2c-.1-1.1-.5-1.9-.9-1.9s-.7.9-.5 2zM104.6 109.2c.1 1.1.5 1.9.9 1.9s.6-.9.5-2c-.1-1.1-.5-1.9-.9-1.9-.4.1-.6 1-.5 2zM114.6 147.4c.2 1.1.6 1.9 1 1.8.4-.1.6-1 .4-2-.2-1.1-.6-1.9-1-1.8-.4 0-.6.9-.4 2zM120.2 121.6c.2 1.1.6 1.9 1 1.8.4-.1.5-1 .4-2-.2-1.1-.6-1.9-1-1.8-.4.1-.6 1-.4 2zM115.4 174.7c-.4 1-.4 1.9-.1 2.1.4.1 1-.5 1.4-1.5.4-1 .4-1.9.1-2.1-.3-.2-1 .5-1.4 1.5zM132.5 152.5c-.2 1-.1 2 .2 2.1.4.1.9-.7 1.1-1.7.2-1 .1-2-.3-2-.3-.2-.8.6-1 1.6zM84.2 148.8c-.1 1.1.2 2 .5 2 .4 0 .8-.8.9-1.9.1-1.1-.2-2-.6-2-.3 0-.7.8-.8 1.9zM87.5 117.6c-.1 1.1.2 2 .6 2 .4 0 .8-.8.8-1.9.1-1.1-.2-2-.5-2-.5 0-.8.8-.9 1.9zM66.1 134.5c-.1 1.1.2 2 .5 2 .4 0 .8-.8.9-1.9.1-1.1-.2-2-.6-2-.3 0-.7.8-.8 1.9zM81.1 174.9c-.1 1.1.2 2 .5 2 .4 0 .8-.8.8-1.9.1-1.1-.2-2-.6-2-.2 0-.6.8-.7 1.9z"/><path fill="#5C6C2B" d="M146.4 131c.4 1 1.1 1.6 1.4 1.5.3-.2.3-1.1-.2-2-.4-1-1.1-1.6-1.4-1.5-.3.1-.3 1 .2 2zM136.5 172.8c-.3 1-.2 2 .1 2.1.4.1.9-.6 1.2-1.7.3-1 .2-2-.1-2.1-.4-.1-.9.7-1.2 1.7zM149 145.2c-.3 1-.2 2 .1 2.1.4.1.9-.6 1.2-1.7.3-1 .2-2-.1-2.1-.4-.1-.9.6-1.2 1.7zM127 104.9c1 .5 1.9.5 2.1.2.2-.3-.5-1-1.4-1.5-1-.5-1.9-.5-2.1-.2-.3.4.4 1.1 1.4 1.5zM85.2 101.1c.9-.5 1.6-1.2 1.4-1.5-.2-.3-1.1-.2-2 .3-.9.5-1.6 1.2-1.4 1.5.2.3 1.1.2 2-.3z"/></g><g><path fill="#859946" d="M213.8 107.4c.2 1.1.6 1.9 1 1.8.4-.1.6-1 .4-2-.2-1.1-.6-1.9-1-1.8-.4 0-.6.9-.4 2z"/><path fill="#859946" d="M166.1 140.7c0 27.3 22.1 49.5 49.5 49.5 27.3 0 49.5-22.1 49.5-49.5 0-27.3-22.1-49.5-49.5-49.5-27.4.1-49.5 22.2-49.5 49.5z"/><path fill="#88A337" d="M167.1 144c0 24 19.5 43.5 43.5 43.5s43.5-19.5 43.5-43.5-19.5-43.5-43.5-43.5-43.5 19.4-43.5 43.5z"/><path fill="#859946" d="M209.7 163.2c-.1 1.1.2 2 .6 2 .4 0 .8-.8.9-1.9.1-1.1-.2-2-.6-2-.4 0-.8.8-.9 1.9zM211.4 132.7c.1 1.1.5 1.9.9 1.9s.6-.9.5-2c-.1-1.1-.5-1.9-.9-1.9-.3 0-.6.9-.5 2zM215.7 109.2c.1 1.1.5 1.9.9 1.9s.6-.9.5-2c-.1-1.1-.5-1.9-.9-1.9-.4.1-.6 1-.5 2zM225.7 147.4c.2 1.1.6 1.9 1 1.8.4-.1.5-1 .4-2-.2-1.1-.6-1.9-1-1.8-.4 0-.6.9-.4 2zM231.3 121.6c.2 1.1.6 1.9 1 1.8.4-.1.6-1 .4-2-.2-1.1-.6-1.9-1-1.8-.4.1-.6 1-.4 2zM226.5 174.7c-.4 1-.4 1.9-.1 2.1.4.1 1-.5 1.4-1.5.4-1 .4-1.9.1-2.1-.4-.2-1 .5-1.4 1.5zM243.5 152.5c-.2 1-.1 2 .2 2.1.4.1.9-.7 1.1-1.7.2-1 .1-2-.3-2-.2-.2-.7.6-1 1.6zM195.3 148.8c-.1 1.1.2 2 .6 2 .4 0 .8-.8.8-1.9.1-1.1-.2-2-.5-2-.4 0-.8.8-.9 1.9zM198.6 117.6c-.1 1.1.2 2 .5 2 .4 0 .8-.8.9-1.9.1-1.1-.2-2-.6-2-.4 0-.8.8-.8 1.9zM177.2 134.5c-.1 1.1.2 2 .6 2 .4 0 .8-.8.8-1.9.1-1.1-.2-2-.5-2-.4 0-.8.8-.9 1.9zM192.2 174.9c-.1 1.1.2 2 .6 2 .4 0 .8-.8.9-1.9.1-1.1-.2-2-.6-2-.4 0-.8.8-.9 1.9z"/><path fill="#5C6C2B" d="M257.4 131c.4 1 1.1 1.6 1.4 1.5.4-.2.3-1.1-.1-2-.4-1-1.1-1.6-1.4-1.5-.4.1-.3 1 .1 2zM247.6 172.8c-.3 1-.2 2 .1 2.1.4.1.9-.6 1.2-1.7.3-1 .2-2-.1-2.1-.4-.1-.9.7-1.2 1.7zM260 145.2c-.3 1-.2 2 .1 2.1.4.1.9-.6 1.2-1.7.3-1 .2-2-.1-2.1-.3-.1-.9.6-1.2 1.7zM238 104.9c1 .5 1.9.5 2.1.2.2-.3-.5-1-1.4-1.5-1-.5-1.9-.5-2.1-.2-.2.4.5 1.1 1.4 1.5zM196.3 101.1c.9-.5 1.6-1.2 1.4-1.5-.2-.3-1.1-.2-2 .3-.9.5-1.6 1.2-1.4 1.5.2.3 1.1.2 2-.3z"/></g><g><path fill="#859946" d="M191.5 52.9c.2 1.1.6 1.9 1 1.8.4-.1.6-1 .4-2-.2-1.1-.6-1.9-1-1.8-.4 0-.6.9-.4 2z"/><path fill="#859946" d="M143.8 86.3c0 27.3 22.1 49.5 49.5 49.5 27.3 0 49.5-22.1 49.5-49.5 0-27.3-22.1-49.5-49.5-49.5S143.8 59 143.8 86.3z"/><path fill="#88A337" d="M144.8 89.5c0 24 19.5 43.5 43.5 43.5s43.5-19.5 43.5-43.5S212.3 46 188.3 46s-43.5 19.5-43.5 43.5z"/><path fill="#859946" d="M187.4 108.7c-.1 1.1.2 2 .6 2 .4 0 .8-.8.8-1.9.1-1.1-.2-2-.6-2-.3 0-.7.9-.8 1.9zM189.1 78.2c.1 1.1.5 1.9.9 1.9s.6-.9.5-2c-.1-1.1-.5-1.9-.9-1.9-.3.1-.6 1-.5 2zM193.4 54.8c.1 1.1.5 1.9.9 1.9s.6-.9.5-2c-.1-1.1-.5-1.9-.9-1.9s-.6.9-.5 2zM203.4 92.9c.2 1.1.6 1.9 1 1.8.4-.1.5-1 .4-2-.2-1.1-.6-1.9-1-1.8-.4.1-.6 1-.4 2zM209 67.2c.2 1.1.6 1.9 1 1.8.4-.1.5-1 .4-2-.2-1.1-.6-1.9-1-1.8-.4 0-.6.9-.4 2zM204.2 120.2c-.4 1-.4 1.9-.1 2.1.4.1 1-.5 1.4-1.5.4-1 .4-1.9.1-2.1-.4-.2-1 .5-1.4 1.5zM221.3 98.1c-.2 1-.1 2 .2 2.1.4.1.9-.7 1.1-1.7.2-1 .1-2-.3-2-.3-.2-.8.5-1 1.6zM173 94.3c-.1 1.1.2 2 .6 2 .4 0 .8-.8.9-1.9.1-1.1-.2-2-.6-2-.4 0-.8.9-.9 1.9zM176.3 63.1c-.1 1.1.2 2 .6 2 .4 0 .8-.8.9-1.9.1-1.1-.2-2-.5-2-.6 0-.9.9-1 1.9zM154.9 80.1c-.1 1.1.2 2 .6 2 .4 0 .8-.8.8-1.9.1-1.1-.2-2-.5-2-.4-.1-.8.8-.9 1.9zM169.9 120.4c-.1 1.1.2 2 .6 2 .4 0 .8-.8.9-1.9.1-1.1-.2-2-.6-2-.4 0-.8.8-.9 1.9z"/><path fill="#5C6C2B" d="M235.1 76.5c.5 1 1.1 1.6 1.4 1.5.4-.2.3-1.1-.1-2-.4-1-1.1-1.6-1.4-1.5-.4.1-.3 1.1.1 2zM225.3 118.3c-.3 1-.2 2 .1 2.1.4.1.9-.6 1.2-1.7.3-1 .2-2-.1-2.1-.4 0-.9.7-1.2 1.7zM237.8 90.7c-.3 1-.2 2 .1 2.1.4.1.9-.6 1.2-1.7.3-1 .2-2-.1-2.1-.4-.1-.9.7-1.2 1.7zM215.7 50.5c1 .5 1.9.5 2 .2.2-.3-.5-1-1.4-1.5-1-.5-1.9-.5-2-.2-.2.3.5 1 1.4 1.5zM174 46.6c.9-.5 1.6-1.2 1.4-1.5-.2-.3-1.1-.2-2 .3-.9.5-1.6 1.2-1.4 1.5.2.4 1.1.2 2-.3z"/></g><g><path fill="#859946" d="M127.5 44.4c.2 1.1.6 1.9 1 1.8.4-.1.6-1 .4-2-.2-1.1-.6-1.9-1-1.8-.4.1-.6 1-.4 2z"/><path fill="#859946" d="M79.8 77.8c0 27.3 22.1 49.5 49.5 49.5 27.3 0 49.5-22.1 49.5-49.5 0-27.3-22.1-49.5-49.5-49.5-27.3.1-49.5 22.2-49.5 49.5z"/><path fill="#88A337" d="M80.9 81c0 24 19.5 43.5 43.5 43.5S167.9 105 167.9 81s-19.5-43.5-43.5-43.5C100.3 37.5 80.9 57 80.9 81z"/><path fill="#859946" d="M123.5 100.3c-.1 1.1.2 2 .5 2 .4 0 .8-.8.9-1.9.1-1.1-.2-2-.6-2-.4 0-.8.8-.8 1.9zM125.2 69.8c.1 1.1.5 1.9.9 1.9s.6-.9.5-2c-.1-1.1-.5-1.9-.9-1.9s-.6.9-.5 2zM129.4 46.3c.1 1.1.5 1.9.9 1.9s.6-.9.5-2c-.1-1.1-.5-1.9-.9-1.9-.4.1-.6 1-.5 2zM139.4 84.5c.2 1.1.6 1.9 1 1.8.4-.1.6-1 .4-2-.2-1.1-.6-1.9-1-1.8-.4 0-.5.9-.4 2zM145 58.7c.2 1.1.6 1.9 1 1.8.4-.1.5-1 .4-2-.2-1.1-.6-1.9-1-1.8-.4.1-.6 1-.4 2zM140.3 111.7c-.4 1-.4 1.9-.1 2.1.4.1 1-.5 1.4-1.5.4-1 .4-1.9.1-2.1-.4-.1-1 .6-1.4 1.5zM157.3 89.6c-.2 1-.1 2 .3 2.1.4.1.9-.7 1.1-1.7.2-1 .1-2-.2-2-.5-.2-1 .6-1.2 1.6zM109 85.9c-.1 1.1.2 2 .6 2 .4 0 .8-.8.9-1.9.1-1.1-.2-2-.5-2-.5 0-.9.8-1 1.9zM112.3 54.7c-.1 1.1.2 2 .5 2 .4 0 .8-.8.9-1.9.1-1.1-.2-2-.6-2-.3 0-.7.8-.8 1.9zM90.9 71.6c-.1 1.1.2 2 .6 2 .4 0 .8-.8.9-1.9.1-1.1-.2-2-.5-2-.5 0-.9.8-1 1.9zM105.9 112c-.1 1.1.2 2 .6 2 .4 0 .8-.8.9-1.9.1-1.1-.2-2-.5-2-.5-.1-.9.8-1 1.9z"/><path fill="#5C6C2B" d="M171.2 68.1c.4 1 1.1 1.6 1.4 1.5.4-.1.3-1.1-.2-2-.4-1-1.1-1.6-1.4-1.5-.3.1-.3 1 .2 2zM161.3 109.9c-.3 1-.2 2 .1 2.1.4.1.9-.6 1.2-1.7.3-1 .2-2-.1-2.1-.4-.1-.9.7-1.2 1.7zM173.8 82.3c-.3 1-.2 2 .1 2.1.4.1.9-.6 1.2-1.7.3-1 .2-1.9-.1-2.1-.4-.1-.9.6-1.2 1.7zM151.8 42c1 .5 1.9.5 2.1.2.2-.3-.5-1-1.4-1.5-1-.5-1.9-.5-2.1-.2-.2.4.4 1 1.4 1.5zM110.1 38.2c.9-.5 1.6-1.2 1.4-1.5-.2-.3-1.1-.2-2 .3-1 .5-1.6 1.2-1.4 1.5.1.3 1 .2 2-.3z"/></g><g><path fill="#859946" d="M143.8 114.1c.2 1.1.6 1.9 1 1.8.4-.1.6-1 .4-2-.2-1.1-.6-1.9-1-1.8-.4 0-.6.9-.4 2z"/><path fill="#859946" d="M96.1 147.4c0 27.3 22.1 49.5 49.5 49.5 27.3 0 49.5-22.1 49.5-49.5 0-27.3-22.1-49.5-49.5-49.5-27.4.1-49.5 22.2-49.5 49.5z"/><path fill="#88A337" d="M97.1 150.7c0 24 19.5 43.5 43.5 43.5s43.5-19.5 43.5-43.5-19.5-43.5-43.5-43.5-43.5 19.4-43.5 43.5z"/><path fill="#859946" d="M139.7 169.9c-.1 1.1.2 2 .6 2 .4 0 .8-.8.8-1.9.1-1.1-.2-2-.5-2-.4 0-.8.8-.9 1.9zM141.5 139.4c.1 1.1.5 1.9.9 1.9s.6-.9.5-2c-.1-1.1-.5-1.9-.9-1.9s-.7.9-.5 2zM145.7 115.9c.1 1.1.5 1.9.9 1.9s.6-.9.5-2c-.1-1.1-.5-1.9-.9-1.9-.4.1-.6 1-.5 2zM155.7 154.1c.2 1.1.6 1.9 1 1.8.4-.1.5-1 .4-2-.2-1.1-.6-1.9-1-1.8-.4 0-.6.9-.4 2zM161.3 128.3c.2 1.1.6 1.9 1 1.8.4-.1.5-1 .4-2-.2-1.1-.6-1.9-1-1.8-.4.1-.6 1-.4 2zM156.5 181.4c-.4 1-.4 1.9-.1 2.1.4.2 1-.5 1.4-1.5.4-1 .4-1.9.1-2.1-.3-.2-1 .5-1.4 1.5zM173.6 159.2c-.2 1-.1 2 .3 2.1.4.1.9-.7 1.1-1.7.2-1 .1-2-.3-2-.4-.2-.9.6-1.1 1.6zM125.3 155.5c-.1 1.1.2 2 .6 2 .4 0 .8-.8.8-1.9.1-1.1-.2-2-.6-2-.3 0-.7.8-.8 1.9zM128.6 124.3c-.1 1.1.2 2 .5 2 .4 0 .8-.8.9-1.9.1-1.1-.2-2-.5-2-.5 0-.8.8-.9 1.9zM107.2 141.2c-.1 1.1.2 2 .6 2 .4 0 .8-.8.8-1.9.1-1.1-.2-2-.5-2-.4 0-.8.8-.9 1.9zM122.2 181.6c-.1 1.1.2 2 .6 2 .4 0 .8-.8.9-1.9.1-1.1-.2-2-.6-2-.4 0-.8.8-.9 1.9z"/><path fill="#5C6C2B" d="M187.5 137.7c.4 1 1.1 1.6 1.4 1.5.3-.1.3-1.1-.2-2-.4-1-1.1-1.6-1.4-1.5-.3.1-.3 1 .2 2zM177.6 179.5c-.3 1-.2 2 .1 2.1.4.1.9-.6 1.2-1.7.3-1 .2-2-.1-2.1-.4-.1-.9.7-1.2 1.7zM190.1 151.9c-.3 1-.2 2 .1 2.1.4.1.9-.6 1.2-1.7.3-1 .2-1.9-.1-2.1-.4-.1-.9.6-1.2 1.7zM168.1 111.6c1 .5 1.9.5 2.1.2.2-.3-.5-1-1.4-1.5-1-.5-1.9-.5-2.1-.2-.3.4.4 1.1 1.4 1.5zM126.3 107.8c.9-.5 1.6-1.2 1.4-1.5-.2-.3-1.1-.2-2 .3-1 .5-1.6 1.2-1.4 1.5.2.3 1.1.2 2-.3z"/></g></svg>