<?xml version="1.0" encoding="utf-8"?>
<!-- Generator: Adobe Illustrator 18.0.0, SVG Export Plug-In . SVG Version: 6.00 Build 0)  -->
<!DOCTYPE svg PUBLIC "-//W3C//DTD SVG 1.1//EN" "http://www.w3.org/Graphics/SVG/1.1/DTD/svg11.dtd">
<svg version="1.1" id="Layer_1" xmlns="http://www.w3.org/2000/svg" xmlns:xlink="http://www.w3.org/1999/xlink" x="0px" y="0px"
	 viewBox="0 161 300 148.3" enable-background="new 0 161 300 148.3" xml:space="preserve">
<g>
	<path fill="#FFFFFF" d="M18.2,187.2v53.1c0.1,8-2.5,8.3-3.4,8.3c-0.1,0-0.1,0-0.2,0c-1.9,0-3.2-3.8-3.8-5.9
		c-0.1-0.1-0.1-0.4-0.1-0.5l-0.8-2.8L0,251.1l0.2,0.8c2.3,8.8,7.2,13.9,13.3,13.9c0.7,0,1.4-0.1,2.1-0.2c5.4-1,9.5-4.4,12.1-10.2
		c2.5-5.6,2.9-12.1,2.9-15.5v-50.8L18.2,187.2z"/>
	<path fill="#FFFFFF" d="M64.9,218.3c-0.9-0.5-1.3-0.8-2.3-1.4l0,0c-3.4-2-4.8-4.1-4.9-6.7c0-1.2,0.4-2.3,1.1-3.1
		c0.5-0.5,1-0.6,1.6-0.6c2.3,0.1,3.7,2.6,4.4,4.7l0.8,2.2l9.8-8l-0.4-1.1c-2.9-7.1-8-11.5-14.3-12.1c-0.5-0.1-1.1-0.1-1.6-0.1
		c-8.9,0-13.6,9-13.6,17.9c0,9.6,4.1,17,11.8,21.5c0.9,0.5,1.4,0.8,2.3,1.3c3.2,1.8,5.8,3.5,5.8,6.8c-0.1,2.6-2,4.8-4.7,5
		c-0.2,0-0.3,0-0.5,0c-1.9,0-4.7-1.1-7-6.4l-0.9-2.1l-9.9,9.1l0.4,1c1.3,3.8,3.4,7,6.1,9.2c2.9,2.5,6.5,3.8,10.3,3.8
		c0.7,0,1.3-0.1,2-0.1c4.9-0.5,9.2-2.9,12.2-6.8c2.8-3.6,4.3-8.3,4.4-13.3C77.9,230.3,73.7,223.7,64.9,218.3z"/>
	<path fill="#FFFFFF" d="M126.3,232.8l-1,1.7c-1.7,3.2-4.9,7.1-10.1,7.2c-0.1,0-0.2,0-0.3,0c-3.6,0-6.5-1.7-8.6-5.2
		c-1.9-2.9-2.9-7-2.9-10.9s1.1-7.9,2.9-10.9c2.1-3.4,5-5,8.6-5c0.1,0,0.2,0,0.3,0c4,0.1,7.4,2.5,9.4,6.3l1,1.8l9.7-8l-0.7-1.2
		c-4.1-7.5-10.9-11.9-19.3-12.2c-0.4,0-0.7,0-1,0c-7.2,0-13.3,3.3-17.8,9.6c-3.7,5.3-5.9,12.5-5.9,19.6s2.2,14.3,5.9,19.6
		c4.4,6.3,10.6,9.7,17.8,9.7c0.4,0,0.7,0,1,0c8.5-0.4,15.7-5.2,20-13.1l0.7-1.2L126.3,232.8z"/>
	<path fill="#FFFFFF" d="M172.9,196.8c-0.2,0-0.5,0-0.7,0c-15.5,0.5-24.7,15-24.7,28.8c0,7.1,2.4,14.2,6.5,19.4
		c4.6,5.9,11,9.2,18.1,9.4c0.2,0,0.4,0,0.7,0c7.1,0,13.5-3.3,17.9-9.3c3.9-5.3,6.1-12.4,6.1-19.5s-2.3-14.2-6.1-19.5
		C186.4,200.1,180,196.8,172.9,196.8z M184.3,225.7c0,4-1.1,7.9-3,10.8c-1.5,2.3-4.3,5-8.8,5c-0.1,0-0.1,0-0.2,0
		c-7.9-0.1-12.1-8.3-12.1-15.8c0-7.6,4.3-15.7,12.1-15.8c0.1,0,0.1,0,0.2,0c4.5,0,7.3,2.7,8.8,5
		C183.2,217.8,184.3,221.7,184.3,225.7z"/>
	<path fill="#FFFFFF" d="M240.1,192.9c0,0,0.1,30.7,0.1,32.3c-0.6-0.9-1.9-2.6-1.9-2.6c-7-8.9-23-27.7-23-27.7L212,195v60.8l11.9,1
		c0,0-0.1-29.2-0.1-30.6c0.6,0.8,24.7,33.8,24.7,33.8l3.5,0.4v-69L240.1,192.9z"/>
	<path fill="#FFFFFF" d="M268.3,189.3v72.8l12.4,1.9v-22.3c5.3,0.4,17.6,1.2,17.6,1.2V225c0,0-12.2-0.1-17.6-0.1v-21
		c5.9-0.6,19.4-2.2,19.4-2.2V184L268.3,189.3z"/>
</g>
<g>
	<g>
		<path fill="#162636" d="M30.7,189.2V240c0,3.4-0.4,9.8-2.9,15.5l0,0c-0.4,1.4-0.8,2.2-1.3,2.6c-2.5,4.1-6.2,6.7-10.7,7.6
			c-0.7,0.1-1.4,0.2-2.1,0.2c-3.7,0-6.9-1.8-9.4-5.2l0,0c0,0,7.3,11.7,15.8,14.6c1,0.4,2,0.5,3.1,0.6c0.1,0,0.3,0,0.5,0
			c0.7,0,1.4-0.1,2.1-0.2c5.4-1,9.5-4.4,12.1-10.2c2.5-5.6,2.8-12.1,2.8-15.5v-50.8L30.7,189.2z"/>
		<path fill="#162636" d="M10.9,242.9c0.7,2,1.8,5.9,3.8,5.9c0.1,0,0.1,0,0.2,0c0.5-0.1,1.6-0.1,2.3-1.7l-7.4-7.3l0.8,2.8
			C10.8,242.5,10.9,242.7,10.9,242.9z"/>
	</g>
	<g>
		<path fill="#162636" d="M50.5,225.7L50.5,225.7L50.5,225.7z"/>
		<path fill="#162636" d="M75.1,204.4l0.4,1.1l-9.8,8l-0.8-2.2c-0.7-2-2.2-4.6-4.4-4.7c-0.6-0.1-1.1,0.1-1.6,0.6
			c-0.7,0.7-1.1,1.9-1.1,3.1c0,2.6,1.5,4.7,4.9,6.7l0,0c0.9,0.5,1.3,0.8,2.3,1.4c0.2,0.1,0.3,0.2,0.5,0.2l0,0
			c-0.1-0.2-0.1-0.5-0.1-0.8c0-1.2,0.4-2.3,1.1-3.1c0.1-0.1,0.2-0.1,0.2-0.2l6.5,6.5l9.8-8l-0.5-1.1c-1.1-2.7-2.5-5-4.1-6.8l0,0
			c-1.3-1.7-4.3-4.5-7-6.8C72.8,200,74.1,202.1,75.1,204.4z"/>
		<path fill="#162636" d="M60.2,244.6C60.3,244.6,60.3,244.6,60.2,244.6l-0.3-1l-7.5-7.5l0.9,2.1C55.6,243.5,58.3,244.6,60.2,244.6z
			"/>
		<path fill="#162636" d="M59.6,232.8c-1-0.5-1.4-0.8-2.3-1.3c-2-1.1-3.7-2.5-5.3-4.1c2.3,2.5,6.5,7.2,9.1,9l0,0
			c1.1,1,2.3,1.8,3.7,2.6c0.2,0.1,0.5,0.2,0.7,0.4C65.3,236.3,62.8,234.6,59.6,232.8z"/>
		<path fill="#162636" d="M81.6,234L81.6,234c-0.1-0.1-0.2-0.2-0.2-0.3l-0.1-0.1c-2.8-3.9-6.7-7.7-10-10.4c4.4,4.4,6.5,9.5,6.5,15.8
			c0,4.9-1.6,9.7-4.4,13.3c-3.1,3.9-7.3,6.2-12.2,6.8c-0.7,0.1-1.3,0.1-2,0.1c-3.8,0-7.3-1.3-10.3-3.8c-1.3-1.1-2.4-2.3-3.4-3.8
			c0,0,4.9,7.6,11.8,12c2.6,1.9,5.6,2.9,8.8,3.1c0.2,0,0.4,0,0.5,0c0.7,0,1.3-0.1,2-0.1c4.9-0.5,9.2-2.9,12.2-6.8
			c2.8-3.6,4.3-8.3,4.4-13.3C85.3,241.8,84.1,237.6,81.6,234z"/>
	</g>
	<g>
		<path fill="#162636" d="M134.6,208.7l0.7,1.2l-9.7,8l5,5l9.7-8l-0.7-1.2c-0.7-1.4-1.6-2.8-2.6-4l0,0c-2.9-4.3-7.3-7.7-9.1-8.9
			C130.6,202.8,132.8,205.5,134.6,208.7z"/>
		<path fill="#162636" d="M110.9,240.9c-1.6-2.9-2.5-6.5-2.5-10.3c0-4,1.1-7.9,2.9-10.9c2.1-3.4,5-5,8.6-5c0.1,0,0.2,0,0.3,0
			c1.5,0.1,3,0.4,4.3,1.1c-2-3.7-5.5-6-9.3-6.1c-0.1,0-0.2,0-0.3,0c-3.6,0-6.5,1.7-8.6,5c-1.9,2.9-2.9,6.9-2.9,10.9s1.1,8,2.9,10.9
			C107.6,238.7,109.1,240.1,110.9,240.9z"/>
		<path fill="#162636" d="M136.1,240.6l-0.7,1.2c-4.3,7.9-11.5,12.7-20,13.1c-0.4,0-0.7,0-1,0c-7.2,0-13.3-3.4-17.8-9.7
			c-0.5-0.7-1-1.4-1.3-2.2l0,0c0,0,8.6,15.5,21.1,16.6l0,0c1,0.1,2,0.2,3.1,0.2c0.4,0,0.7,0,1,0c8.5-0.4,15.7-5.2,20-13.1l0.7-1.2
			L136.1,240.6z"/>
		<path fill="#162636" d="M127,200.1L127,200.1L127,200.1L127,200.1z"/>
	</g>
	<g>
		<path fill="#162636" d="M190.9,245.2c-4.4,6-10.9,9.3-17.9,9.3c-0.2,0-0.5,0-0.7,0c-7.1-0.2-13.6-3.5-18.1-9.4
			c-4.1-5.3-6.5-12.4-6.5-19.4c0-10.6,5.5-21.6,14.9-26.4l0,0c0,0-7.8,3.2-14.5,13.4c-0.8,1.1-1.5,2.4-2.2,3.7l0,0l0,0
			c-2.2,4.4-3.4,9.4-3.4,14.3c0,7.1,2.4,14.2,6.5,19.4c4.6,5.9,11,9.2,18.1,9.4c0.2,0,0.5,0,0.7,0c1.5,0,2.9-0.1,4.3-0.4l0,0l0,0
			c0.6-0.1,1.1-0.2,1.7-0.4c0.1,0,0.1-0.1,0.1-0.1c0.1,0,0.1-0.1,0.2-0.1c8.1-2.3,13.3-7.9,17.8-15.2
			C191.7,243.9,191.3,244.6,190.9,245.2z"/>
		<path fill="#162636" d="M181.3,236.5c1.9-2.9,3-6.8,3-10.8s-1.1-7.9-3-10.8c-1.5-2.3-4.3-5-8.8-5c-0.1,0-0.1,0-0.2,0
			c-4.3,0.1-7.6,2.6-9.6,6.2c1.3-0.7,2.9-1.1,4.6-1.1c0.1,0,0.1,0,0.2,0c4.5,0,7.3,2.7,8.8,5c1.9,2.9,3,6.8,3,10.8
			c0,3.5-0.9,7.1-2.5,9.8C178.9,239.6,180.3,237.9,181.3,236.5z"/>
		<path fill="#162636" d="M192.5,242.8c0.1-0.1,0.1-0.2,0.2-0.4l0,0C192.6,242.6,192.5,242.7,192.5,242.8z"/>
	</g>
	<g>
		<path fill="#162636" d="M238.3,222.5c0,0,1.3,1.7,1.9,2.6c-0.1-1.5-0.1-32.3-0.1-32.3l-7.5,7.5c0,0,0,7.3,0.1,14.9
			C234.7,218,236.8,220.5,238.3,222.5z"/>
		<polygon fill="#162636" points="212,195 204.5,202.5 204.5,263.3 216.4,264.3 223.9,256.8 212,255.9 		"/>
		<path fill="#162636" d="M223.7,226.2c0.1,0.7,0.1,9.8,0.1,17.9c7.3,9.9,17,23.3,17,23.3l3.5,0.4l7.5-7.5l-3.5-0.4
			C248.4,260,224.3,227.1,223.7,226.2z"/>
	</g>
	<g>
		<path fill="#162636" d="M298.3,242.9c0,0-12.3-0.8-17.6-1.2v10.7c4.1,0.3,7.6,0.5,7.6,0.5L298.3,242.9L298.3,242.9L298.3,242.9z"
			/>
		<path fill="#162636" d="M280.6,204v8.9c4.9-0.5,9.4-1.1,9.4-1.1l10-10C300,201.8,286.6,203.3,280.6,204z"/>
		<polygon fill="#162636" points="268.3,189.3 258.3,199.3 258.3,272.1 270.7,274 280.6,264 268.3,262.1 		"/>
	</g>
</g>
<g opacity="0.25">
	<g>
		<polygon fill="#162636" points="65.1,183.6 68,183.6 68,174.8 63.7,174.8 63.7,177.2 65.1,177.2 		"/>
		<path fill="#162636" d="M75.2,178.2c-0.3,0-0.6,0-0.8,0.2v-1h3.5V175H72v6.2l0.6,0.2l0.2-0.2c0.6-0.5,1.1-0.6,1.8-0.6
			c0.8,0,1.3,0.3,1.3,1.1c0,0.6-0.5,1.1-1.1,1.1s-1.1-0.3-1.3-0.8l-0.2-0.3l-2.4,1.3l0.2,0.3c0.6,1.4,2.1,2.2,3.7,2.2
			c2.9,0,4-1.9,4-3.5C78.7,179.6,77.3,178.2,75.2,178.2z"/>
		<path fill="#162636" d="M82.3,181.6c0,1.9,1.1,2.2,2.1,2.2c0.6,0,1.1-0.2,1.6-0.5l0.2-0.2l-0.8-1.3l-0.2-0.3l-0.3,0.2
			c-0.2,0.2-0.2,0.2-0.3,0.2c0,0,0-0.2,0-0.3V180h1.3V178h-1.3v-2.6h-2.2v2.6h-0.8v1.9h0.8C82.3,179.9,82.3,181.6,82.3,181.6z"/>
		<path fill="#162636" d="M93.6,183.6v-3.2c0-1.6-0.8-2.6-2.2-2.6c-0.5,0-0.8,0.2-1.3,0.3v-3.7h-2.2v9h2.2v-3c0-0.5,0.2-0.6,0.6-0.6
			c0.3,0,0.5,0.2,0.5,0.6v3C91.4,183.6,93.6,183.6,93.6,183.6z"/>
		<rect x="100.3" y="179.6" fill="#162636" width="4.6" height="2.1"/>
		<polygon fill="#162636" points="111.4,177.2 113,177.2 113,183.6 115.7,183.6 115.7,174.8 111.4,174.8 		"/>
		<path fill="#162636" d="M123.7,176.9L123.7,176.9c0-0.2,0-0.2,0.2-0.2l2.2-3.2h-3.2l-2.4,3.2c-0.8,1.1-1.3,2.1-1.3,3.5
			c0,2.1,1.8,3.5,4,3.5c2.2,0,4-1.4,4-3.5C127.1,178.2,125.6,176.9,123.7,176.9z M124.2,180.1c0,0.6-0.3,1.1-1.1,1.1
			c-0.8,0-1.1-0.6-1.1-1.1c0-0.6,0.3-1.1,1.1-1.1C123.9,179,124.2,179.6,124.2,180.1z"/>
		<path fill="#162636" d="M133.3,181.6l-0.3,0.2c-0.2,0.2-0.2,0.2-0.3,0.2c0,0,0-0.2,0-0.3V180h1.3V178h-1.3v-2.6h-2.2v2.6h-0.8v1.9
			h0.8v1.4c0,1.9,1.1,2.2,2.1,2.2c0.6,0,1.1-0.2,1.6-0.5l0.2-0.2l-0.8-1.3L133.3,181.6z"/>
		<path fill="#162636" d="M138.6,180.6c0-0.5,0.2-0.6,0.6-0.6c0.3,0,0.5,0.2,0.5,0.6v3h2.2v-3.2c0-1.6-0.8-2.6-2.2-2.6
			c-0.5,0-0.8,0.2-1.3,0.3v-3.7h-2.2v9h2.2L138.6,180.6L138.6,180.6z"/>
	</g>
	<g>
		<path fill="#162636" d="M155.2,175l-3.7,8.6h2.2l0.3-0.8h2.7l0.3,0.8h2.4l-4-8.6H155.2z M156,180.8h-1.1l0.3-1
			c0.2-0.2,0.2-0.3,0.2-0.5c0.2,0.2,0.2,0.3,0.2,0.5L156,180.8z"/>
		<path fill="#162636" d="M164.3,175h-2.6v8.5h2.2v-1.8h0.2c2.4,0,3.8-1.3,3.8-3.4C168.2,176.4,166.7,175,164.3,175z M165.9,178.4
			c0,0.6-0.2,1.3-1.6,1.3h-0.2v-2.6h0.2C165.6,177.2,165.9,177.9,165.9,178.4z"/>
		<path fill="#162636" d="M177.1,178.4c0-2.1-1.4-3.2-3.8-3.2h-2.6v8.5h2.2v-1.9h0.2c0.2,0,0.2,0,0.3,0l1.3,2.1h2.7l-1.8-2.7
			C176.7,180.4,177.1,179.6,177.1,178.4z M174.7,178.4c0,0.8-0.3,1.3-1.6,1.3H173v-2.6h0.2C174.6,177.2,174.7,177.7,174.7,178.4z"/>
		<rect x="179.7" y="175" fill="#162636" width="2.2" height="8.5"/>
		<polygon fill="#162636" points="187.2,175 184.8,175 184.8,183.6 190.7,183.6 190.7,181.6 187.2,181.6 		"/>
		<path fill="#162636" d="M203.9,181.2L203.9,181.2l0.3-0.3c0.8-1,1.8-2.1,1.8-3.2c0-1.4-1.1-3-3.5-3c-1.8,0-3.2,1.1-3.7,2.9
			l-0.2,0.3l2.6,0.6l0.2-0.3c0.3-1.1,0.8-1.1,1.1-1.1s0.6,0.2,0.6,0.6c0,0.5-0.3,0.8-1.1,1.6l-3.4,3.5v0.6h7.4v-2.4L203.9,181.2
			L203.9,181.2z"/>
		<path fill="#162636" d="M213.5,174.8c-2.6,0-4.6,2.1-4.6,4.5c0,2.6,2.1,4.5,4.6,4.5c2.6,0,4.6-2.1,4.6-4.5
			C218.3,176.4,215.9,174.8,213.5,174.8z M215.4,179.3c0,1.3-0.6,2.1-1.8,2.1c-1.1,0-1.8-0.8-1.8-2.1c0-1.1,0.6-2.1,1.8-2.1
			C214.6,177.2,215.4,178,215.4,179.3z"/>
		<polygon fill="#162636" points="220.7,177.2 222.3,177.2 222.3,183.6 225,183.6 225,174.8 220.7,174.8 		"/>
		<path fill="#162636" d="M233,176.9L233,176.9c0-0.2,0-0.2,0.2-0.2l2.2-3.2h-3.2l-2.4,3.2c-0.8,1.1-1.3,2.1-1.3,3.5
			c0,2.1,1.8,3.5,4,3.5s4-1.4,4-3.5C236.2,178.2,234.9,176.9,233,176.9z M233.5,180.1c0,0.6-0.3,1.1-1.1,1.1s-1.1-0.6-1.1-1.1
			c0-0.6,0.3-1.1,1.1-1.1C233.1,179.2,233.5,179.6,233.5,180.1z"/>
	</g>
</g>
<path opacity="0.25" fill="#162636" enable-background="new    " d="M76.3,278c0,0,0.2,0,0.4-0.1c0.3-0.1,0.7-0.1,1.3-0.1
	c0.5,0,1.2-0.1,2-0.2c0.4-0.1,0.8-0.1,1.3-0.1c0.5-0.1,1-0.1,1.4-0.1c2-0.2,4.4-0.5,7.3-0.7c1.4-0.1,2.9-0.2,4.4-0.4
	c1.6-0.1,3.2-0.2,4.9-0.4c1.7-0.1,3.5-0.2,5.4-0.4c1.9-0.1,3.8-0.2,5.8-0.4c4-0.2,8.2-0.4,12.5-0.5c2.2-0.1,4.3-0.1,6.6-0.2
	c1.1-0.1,2.3-0.1,3.4-0.1c1.1,0,2.3-0.1,3.4-0.1c4.6-0.1,9.1-0.1,13.7-0.1c2.3,0,4.6,0,6.9,0.1c0.5,0,1.1,0,1.7,0s1.1,0,1.7,0.1
	c1.1,0,2.3,0.1,3.4,0.1c1.1,0,2.3,0.1,3.4,0.1c1.1,0.1,2.3,0.1,3.4,0.1c2.2,0.1,4.4,0.1,6.6,0.2c4.3,0.1,8.5,0.4,12.5,0.5
	c2,0.1,3.9,0.2,5.8,0.4c1.9,0.2,3.7,0.2,5.4,0.4c3.5,0.2,6.7,0.5,9.5,0.7c2.8,0.2,5.3,0.5,7.3,0.7c0.5,0.1,1,0.1,1.4,0.1
	s0.8,0.1,1.3,0.1c0.8,0.1,1.4,0.2,2,0.2c0.5,0.1,1,0.1,1.3,0.1c0.3,0.1,0.4,0.1,0.4,0.1v0.5c0,0-2.3,0-6.4,0.1c-2,0-4.4,0.1-7.3,0.1
	s-6,0.1-9.5,0.1c-13.9,0.1-32.3,0.1-50.7,0.1c-18.5-0.1-36.9-0.1-50.7-0.1c-3.4,0-6.7,0-9.4-0.1c-2.8,0-5.3-0.1-7.3-0.1
	c-4.1-0.1-6.4-0.1-6.4-0.1L76.3,278L76.3,278L76.3,278z"/>
<g opacity="0.25">
	<path fill="#162636" d="M91.9,293.1c0,1.4-0.5,2-2,2c-1.4,0-2-0.5-2-2v-7.4H85v7.5c0,2.8,1.9,4.5,4.9,4.5s4.9-1.7,4.9-4.5v-7.5
		h-2.9V293.1z"/>
	<path fill="#162636" d="M114.3,290.2c0-2.9-1.9-4.6-5.3-4.6h-3.4v11.9h2.9v-2.9h0.5c0.2,0,0.4,0,0.5-0.1l1.9,2.9h3.4l-2.5-3.7
		C113.6,293.1,114.3,291.9,114.3,290.2z M108.4,288.2h0.5c1.8,0,2.5,0.5,2.5,2c0,1.4-0.7,1.9-2.5,1.9h-0.5V288.2z"/>
	<path fill="#162636" d="M131.5,293.1c0,1.4-0.5,2-2,2c-1.4,0-2-0.5-2-2v-7.4h-2.9v7.5c0,2.8,1.9,4.5,4.9,4.5s4.9-1.7,4.9-4.5v-7.5
		h-2.9V293.1z"/>
	<path fill="#162636" d="M150.4,293.5h2.8v1.3c-0.5,0.2-1.3,0.4-1.9,0.4c-2.2,0-3.5-1.4-3.5-3.5c0-2,1.3-3.5,3.1-3.5
		c1.2,0,1.8,0.4,2.3,1l0.2,0.2l1.9-1.9l-0.1-0.2c-1-1.1-2.4-1.7-4.3-1.7c-3.5,0-6.1,2.6-6.1,6.1c0,3.6,2.6,6.1,6.5,6.1
		c2.3,0,3.9-0.8,4.6-1.4l0.1-0.1V291h-5.4v2.5H150.4L150.4,293.5z"/>
	<path fill="#162636" d="M173.3,293.1c0,1.4-0.5,2-2,2c-1.4,0-2-0.5-2-2v-7.4h-2.9v7.5c0,2.8,1.9,4.5,4.9,4.5s4.9-1.7,4.9-4.5v-7.5
		h-2.9V293.1L173.3,293.1z"/>
	<path fill="#162636" d="M190.6,285.5l-5.2,12h2.8l0.5-1.3h4.3l0.5,1.3h3.1l-5.5-12H190.6z M191.9,293.8h-2.2l0.7-1.6
		c0.1-0.4,0.3-0.8,0.5-1.3c0.1,0.4,0.3,0.8,0.5,1.3L191.9,293.8z"/>
	<path fill="#162636" d="M212,285.6l-2,3.8c-0.2,0.5-0.5,1.1-0.7,1.6c-0.2-0.5-0.5-1.1-0.7-1.6l-2.1-3.8h-3.2l4.5,8.1v3.8h2.9v-4
		l4.2-7.9L212,285.6L212,285.6z"/>
</g>
</svg>
