<svg xmlns="http://www.w3.org/2000/svg" viewBox="0 161 300 148.3"><g fill="#FFF"><path d="M18.2 187.2v53.1c.1 8-2.5 8.3-3.4 8.3h-.2c-1.9 0-3.2-3.8-3.8-5.9-.1-.1-.1-.4-.1-.5l-.8-2.8L0 251.1l.2.8c2.3 8.8 7.2 13.9 13.3 13.9.7 0 1.4-.1 2.1-.2 5.4-1 9.5-4.4 12.1-10.2 2.5-5.6 2.9-12.1 2.9-15.5v-50.8l-12.4-1.9zM64.9 218.3c-.9-.5-1.3-.8-2.3-1.4-3.4-2-4.8-4.1-4.9-6.7 0-1.2.4-2.3 1.1-3.1.5-.5 1-.6 1.6-.6 2.3.1 3.7 2.6 4.4 4.7l.8 2.2 9.8-8-.4-1.1c-2.9-7.1-8-11.5-14.3-12.1-.5-.1-1.1-.1-1.6-.1-8.9 0-13.6 9-13.6 17.9 0 9.6 4.1 17 11.8 21.5.9.5 1.4.8 2.3 1.3 3.2 1.8 5.8 3.5 5.8 6.8-.1 2.6-2 4.8-4.7 5h-.5c-1.9 0-4.7-1.1-7-6.4l-.9-2.1-9.9 9.1.4 1c1.3 3.8 3.4 7 6.1 9.2 2.9 2.5 6.5 3.8 10.3 3.8.7 0 1.3-.1 2-.1 4.9-.5 9.2-2.9 12.2-6.8 2.8-3.6 4.3-8.3 4.4-13.3.1-8.7-4.1-15.3-12.9-20.7zM126.3 232.8l-1 1.7c-1.7 3.2-4.9 7.1-10.1 7.2h-.3c-3.6 0-6.5-1.7-8.6-5.2-1.9-2.9-2.9-7-2.9-10.9s1.1-7.9 2.9-10.9c2.1-3.4 5-5 8.6-5h.3c4 .1 7.4 2.5 9.4 6.3l1 1.8 9.7-8-.7-1.2c-4.1-7.5-10.9-11.9-19.3-12.2h-1c-7.2 0-13.3 3.3-17.8 9.6-3.7 5.3-5.9 12.5-5.9 19.6s2.2 14.3 5.9 19.6c4.4 6.3 10.6 9.7 17.8 9.7h1c8.5-.4 15.7-5.2 20-13.1l.7-1.2-9.7-7.8zM172.9 196.8h-.7c-15.5.5-24.7 15-24.7 28.8 0 7.1 2.4 14.2 6.5 19.4 4.6 5.9 11 9.2 18.1 9.4h.7c7.1 0 13.5-3.3 17.9-9.3 3.9-5.3 6.1-12.4 6.1-19.5s-2.3-14.2-6.1-19.5c-4.3-6-10.7-9.3-17.8-9.3zm11.4 28.9c0 4-1.1 7.9-3 10.8-1.5 2.3-4.3 5-8.8 5h-.2c-7.9-.1-12.1-8.3-12.1-15.8 0-7.6 4.3-15.7 12.1-15.8h.2c4.5 0 7.3 2.7 8.8 5 1.9 2.9 3 6.8 3 10.8zM240.1 192.9s.1 30.7.1 32.3c-.6-.9-1.9-2.6-1.9-2.6-7-8.9-23-27.7-23-27.7l-3.3.1v60.8l11.9 1s-.1-29.2-.1-30.6c.6.8 24.7 33.8 24.7 33.8l3.5.4v-69l-11.9 1.5zM268.3 189.3v72.8l12.4 1.9v-22.3c5.3.4 17.6 1.2 17.6 1.2V225s-12.2-.1-17.6-.1v-21c5.9-.6 19.4-2.2 19.4-2.2V184l-31.8 5.3z"/></g><g fill="#162636"><path d="M30.7 189.2V240c0 3.4-.4 9.8-2.9 15.5-.4 1.4-.8 2.2-1.3 2.6-2.5 4.1-6.2 6.7-10.7 7.6-.7.1-1.4.2-2.1.2-3.7 0-6.9-1.8-9.4-5.2 0 0 7.3 11.7 15.8 14.6 1 .4 2 .5 3.1.6h.5c.7 0 1.4-.1 2.1-.2 5.4-1 9.5-4.4 12.1-10.2 2.5-5.6 2.8-12.1 2.8-15.5v-50.8l-10-10z"/><path d="M10.9 242.9c.7 2 1.8 5.9 3.8 5.9h.2c.5-.1 1.6-.1 2.3-1.7l-7.4-7.3.8 2.8c.2-.1.3.1.3.3zM50.5 225.7zM75.1 204.4l.4 1.1-9.8 8-.8-2.2c-.7-2-2.2-4.6-4.4-4.7-.6-.1-1.1.1-1.6.6-.7.7-1.1 1.9-1.1 3.1 0 2.6 1.5 4.7 4.9 6.7.9.5 1.3.8 2.3 1.4.2.1.3.2.5.2-.1-.2-.1-.5-.1-.8 0-1.2.4-2.3 1.1-3.1.1-.1.2-.1.2-.2l6.5 6.5 9.8-8-.5-1.1c-1.1-2.7-2.5-5-4.1-6.8-1.3-1.7-4.3-4.5-7-6.8 1.4 1.7 2.7 3.8 3.7 6.1zM60.2 244.6c.1 0 .1 0 0 0l-.3-1-7.5-7.5.9 2.1c2.3 5.3 5 6.4 6.9 6.4zM59.6 232.8c-1-.5-1.4-.8-2.3-1.3-2-1.1-3.7-2.5-5.3-4.1 2.3 2.5 6.5 7.2 9.1 9 1.1 1 2.3 1.8 3.7 2.6.2.1.5.2.7.4-.2-3.1-2.7-4.8-5.9-6.6z"/><path d="M81.6 234c-.1-.1-.2-.2-.2-.3l-.1-.1c-2.8-3.9-6.7-7.7-10-10.4 4.4 4.4 6.5 9.5 6.5 15.8 0 4.9-1.6 9.7-4.4 13.3-3.1 3.9-7.3 6.2-12.2 6.8-.7.1-1.3.1-2 .1-3.8 0-7.3-1.3-10.3-3.8-1.3-1.1-2.4-2.3-3.4-3.8 0 0 4.9 7.6 11.8 12 2.6 1.9 5.6 2.9 8.8 3.1h.5c.7 0 1.3-.1 2-.1 4.9-.5 9.2-2.9 12.2-6.8 2.8-3.6 4.3-8.3 4.4-13.3.1-4.7-1.1-8.9-3.6-12.5z"/><g><path d="M134.6 208.7l.7 1.2-9.7 8 5 5 9.7-8-.7-1.2c-.7-1.4-1.6-2.8-2.6-4-2.9-4.3-7.3-7.7-9.1-8.9 2.7 2 4.9 4.7 6.7 7.9zM110.9 240.9c-1.6-2.9-2.5-6.5-2.5-10.3 0-4 1.1-7.9 2.9-10.9 2.1-3.4 5-5 8.6-5h.3c1.5.1 3 .4 4.3 1.1-2-3.7-5.5-6-9.3-6.1h-.3c-3.6 0-6.5 1.7-8.6 5-1.9 2.9-2.9 6.9-2.9 10.9s1.1 8 2.9 10.9c1.3 2.2 2.8 3.6 4.6 4.4zM136.1 240.6l-.7 1.2c-4.3 7.9-11.5 12.7-20 13.1h-1c-7.2 0-13.3-3.4-17.8-9.7-.5-.7-1-1.4-1.3-2.2 0 0 8.6 15.5 21.1 16.6 1 .1 2 .2 3.1.2h1c8.5-.4 15.7-5.2 20-13.1l.7-1.2-5.1-4.9zM127 200.1z"/></g><g><path d="M190.9 245.2c-4.4 6-10.9 9.3-17.9 9.3h-.7c-7.1-.2-13.6-3.5-18.1-9.4-4.1-5.3-6.5-12.4-6.5-19.4 0-10.6 5.5-21.6 14.9-26.4 0 0-7.8 3.2-14.5 13.4-.8 1.1-1.5 2.4-2.2 3.7-2.2 4.4-3.4 9.4-3.4 14.3 0 7.1 2.4 14.2 6.5 19.4 4.6 5.9 11 9.2 18.1 9.4h.7c1.5 0 2.9-.1 4.3-.4.6-.1 1.1-.2 1.7-.4.1 0 .1-.1.1-.1.1 0 .1-.1.2-.1 8.1-2.3 13.3-7.9 17.8-15.2-.2.6-.6 1.3-1 1.9z"/><path d="M181.3 236.5c1.9-2.9 3-6.8 3-10.8s-1.1-7.9-3-10.8c-1.5-2.3-4.3-5-8.8-5h-.2c-4.3.1-7.6 2.6-9.6 6.2 1.3-.7 2.9-1.1 4.6-1.1h.2c4.5 0 7.3 2.7 8.8 5 1.9 2.9 3 6.8 3 10.8 0 3.5-.9 7.1-2.5 9.8 2.1-1 3.5-2.7 4.5-4.1zM192.5 242.8c.1-.1.1-.2.2-.4-.1.2-.2.3-.2.4z"/></g><g><path d="M238.3 222.5s1.3 1.7 1.9 2.6c-.1-1.5-.1-32.3-.1-32.3l-7.5 7.5s0 7.3.1 14.9c2 2.8 4.1 5.3 5.6 7.3zM212 195l-7.5 7.5v60.8l11.9 1 7.5-7.5-11.9-.9zM223.7 226.2c.1.7.1 9.8.1 17.9 7.3 9.9 17 23.3 17 23.3l3.5.4 7.5-7.5-3.5-.4c.1.1-24-32.8-24.6-33.7z"/></g><g><path d="M298.3 242.9s-12.3-.8-17.6-1.2v10.7c4.1.3 7.6.5 7.6.5l10-10zM280.6 204v8.9c4.9-.5 9.4-1.1 9.4-1.1l10-10s-13.4 1.5-19.4 2.2zM268.3 189.3l-10 10v72.8l12.4 1.9 9.9-10-12.3-1.9z"/></g></g><g opacity=".25" fill="#162636"><path d="M65.1 183.6H68v-8.8h-4.3v2.4h1.4zM75.2 178.2c-.3 0-.6 0-.8.2v-1h3.5V175H72v6.2l.6.2.2-.2c.6-.5 1.1-.6 1.8-.6.8 0 1.3.3 1.3 1.1 0 .6-.5 1.1-1.1 1.1s-1.1-.3-1.3-.8l-.2-.3-2.4 1.3.2.3c.6 1.4 2.1 2.2 3.7 2.2 2.9 0 4-1.9 4-3.5-.1-2.4-1.5-3.8-3.6-3.8zM82.3 181.6c0 1.9 1.1 2.2 2.1 2.2.6 0 1.1-.2 1.6-.5l.2-.2-.8-1.3-.2-.3-.3.2c-.2.2-.2.2-.3.2V180h1.3v-2h-1.3v-2.6h-2.2v2.6h-.8v1.9h.8c-.1 0-.1 1.7-.1 1.7zM93.6 183.6v-3.2c0-1.6-.8-2.6-2.2-2.6-.5 0-.8.2-1.3.3v-3.7h-2.2v9h2.2v-3c0-.5.2-.6.6-.6.3 0 .5.2.5.6v3c.2.2 2.4.2 2.4.2zM100.3 179.6h4.6v2.1h-4.6zM111.4 177.2h1.6v6.4h2.7v-8.8h-4.3zM123.7 176.9c0-.2 0-.2.2-.2l2.2-3.2h-3.2l-2.4 3.2c-.8 1.1-1.3 2.1-1.3 3.5 0 2.1 1.8 3.5 4 3.5s4-1.4 4-3.5c-.1-2-1.6-3.3-3.5-3.3zm.5 3.2c0 .6-.3 1.1-1.1 1.1s-1.1-.6-1.1-1.1c0-.6.3-1.1 1.1-1.1s1.1.6 1.1 1.1zM133.3 181.6l-.3.2c-.2.2-.2.2-.3.2v-2h1.3v-2h-1.3v-2.6h-2.2v2.6h-.8v1.9h.8v1.4c0 1.9 1.1 2.2 2.1 2.2.6 0 1.1-.2 1.6-.5l.2-.2-.8-1.3-.3.1zM138.6 180.6c0-.5.2-.6.6-.6.3 0 .5.2.5.6v3h2.2v-3.2c0-1.6-.8-2.6-2.2-2.6-.5 0-.8.2-1.3.3v-3.7h-2.2v9h2.2l.2-2.8z"/><g><path d="M155.2 175l-3.7 8.6h2.2l.3-.8h2.7l.3.8h2.4l-4-8.6h-.2zm.8 5.8h-1.1l.3-1c.2-.2.2-.3.2-.5.2.2.2.3.2.5l.4 1zM164.3 175h-2.6v8.5h2.2v-1.8h.2c2.4 0 3.8-1.3 3.8-3.4.3-1.9-1.2-3.3-3.6-3.3zm1.6 3.4c0 .6-.2 1.3-1.6 1.3h-.2v-2.6h.2c1.3.1 1.6.8 1.6 1.3zM177.1 178.4c0-2.1-1.4-3.2-3.8-3.2h-2.6v8.5h2.2v-1.9h.5l1.3 2.1h2.7l-1.8-2.7c1.1-.8 1.5-1.6 1.5-2.8zm-2.4 0c0 .8-.3 1.3-1.6 1.3h-.1v-2.6h.2c1.4.1 1.5.6 1.5 1.3zM179.7 175h2.2v8.5h-2.2zM187.2 175h-2.4v8.6h5.9v-2h-3.5zM203.9 181.2l.3-.3c.8-1 1.8-2.1 1.8-3.2 0-1.4-1.1-3-3.5-3-1.8 0-3.2 1.1-3.7 2.9l-.2.3 2.6.6.2-.3c.3-1.1.8-1.1 1.1-1.1s.6.2.6.6c0 .5-.3.8-1.1 1.6l-3.4 3.5v.6h7.4V181l-2.1.2zM213.5 174.8c-2.6 0-4.6 2.1-4.6 4.5 0 2.6 2.1 4.5 4.6 4.5 2.6 0 4.6-2.1 4.6-4.5.2-2.9-2.2-4.5-4.6-4.5zm1.9 4.5c0 1.3-.6 2.1-1.8 2.1-1.1 0-1.8-.8-1.8-2.1 0-1.1.6-2.1 1.8-2.1 1 0 1.8.8 1.8 2.1zM220.7 177.2h1.6v6.4h2.7v-8.8h-4.3zM233 176.9c0-.2 0-.2.2-.2l2.2-3.2h-3.2l-2.4 3.2c-.8 1.1-1.3 2.1-1.3 3.5 0 2.1 1.8 3.5 4 3.5s4-1.4 4-3.5c-.3-2-1.6-3.3-3.5-3.3zm.5 3.2c0 .6-.3 1.1-1.1 1.1s-1.1-.6-1.1-1.1c0-.6.3-1.1 1.1-1.1.7.2 1.1.6 1.1 1.1z"/></g></g><path opacity=".25" fill="#162636" d="M76.3 278s.2 0 .4-.1c.3-.1.7-.1 1.3-.1.5 0 1.2-.1 2-.2.4-.1.8-.1 1.3-.1.5-.1 1-.1 1.4-.1 2-.2 4.4-.5 7.3-.7 1.4-.1 2.9-.2 4.4-.4 1.6-.1 3.2-.2 4.9-.4 1.7-.1 3.5-.2 5.4-.4 1.9-.1 3.8-.2 5.8-.4 4-.2 8.2-.4 12.5-.5 2.2-.1 4.3-.1 6.6-.2 1.1-.1 2.3-.1 3.4-.1s2.3-.1 3.4-.1c4.6-.1 9.1-.1 13.7-.1 2.3 0 4.6 0 6.9.1h1.7c.6 0 1.1 0 1.7.1 1.1 0 2.3.1 3.4.1s2.3.1 3.4.1c1.1.1 2.3.1 3.4.1 2.2.1 4.4.1 6.6.2 4.3.1 8.5.4 12.5.5 2 .1 3.9.2 5.8.4s3.7.2 5.4.4c3.5.2 6.7.5 9.5.7 2.8.2 5.3.5 7.3.7.5.1 1 .1 1.4.1s.8.1 1.3.1c.8.1 1.4.2 2 .2.5.1 1 .1 1.3.1.3.1.4.1.4.1v.5s-2.3 0-6.4.1c-2 0-4.4.1-7.3.1s-6 .1-9.5.1c-13.9.1-32.3.1-50.7.1-18.5-.1-36.9-.1-50.7-.1-3.4 0-6.7 0-9.4-.1-2.8 0-5.3-.1-7.3-.1-4.1-.1-6.4-.1-6.4-.1l-.1-.6z"/><g opacity=".25" fill="#162636"><path d="M91.9 293.1c0 1.4-.5 2-2 2-1.4 0-2-.5-2-2v-7.4H85v7.5c0 2.8 1.9 4.5 4.9 4.5s4.9-1.7 4.9-4.5v-7.5h-2.9v7.4zM114.3 290.2c0-2.9-1.9-4.6-5.3-4.6h-3.4v11.9h2.9v-2.9h.5c.2 0 .4 0 .5-.1l1.9 2.9h3.4l-2.5-3.7c1.3-.6 2-1.8 2-3.5zm-5.9-2h.5c1.8 0 2.5.5 2.5 2 0 1.4-.7 1.9-2.5 1.9h-.5v-3.9zM131.5 293.1c0 1.4-.5 2-2 2-1.4 0-2-.5-2-2v-7.4h-2.9v7.5c0 2.8 1.9 4.5 4.9 4.5s4.9-1.7 4.9-4.5v-7.5h-2.9v7.4zM150.4 293.5h2.8v1.3c-.5.2-1.3.4-1.9.4-2.2 0-3.5-1.4-3.5-3.5 0-2 1.3-3.5 3.1-3.5 1.2 0 1.8.4 2.3 1l.2.2 1.9-1.9-.1-.2c-1-1.1-2.4-1.7-4.3-1.7-3.5 0-6.1 2.6-6.1 6.1 0 3.6 2.6 6.1 6.5 6.1 2.3 0 3.9-.8 4.6-1.4l.1-.1V291h-5.4v2.5h-.2zM173.3 293.1c0 1.4-.5 2-2 2-1.4 0-2-.5-2-2v-7.4h-2.9v7.5c0 2.8 1.9 4.5 4.9 4.5s4.9-1.7 4.9-4.5v-7.5h-2.9v7.4zM190.6 285.5l-5.2 12h2.8l.5-1.3h4.3l.5 1.3h3.1l-5.5-12h-.5zm1.3 8.3h-2.2l.7-1.6c.1-.4.3-.8.5-1.3.1.4.3.8.5 1.3l.5 1.6zM212 285.6l-2 3.8c-.2.5-.5 1.1-.7 1.6-.2-.5-.5-1.1-.7-1.6l-2.1-3.8h-3.2l4.5 8.1v3.8h2.9v-4l4.2-7.9H212z"/></g></svg>