<?xml version="1.0" encoding="utf-8"?>
<!-- Generator: Adobe Illustrator 18.0.0, SVG Export Plug-In . SVG Version: 6.00 Build 0)  -->
<!DOCTYPE svg PUBLIC "-//W3C//DTD SVG 1.1//EN" "http://www.w3.org/Graphics/SVG/1.1/DTD/svg11.dtd">
<svg version="1.1" id="Layer_1" xmlns="http://www.w3.org/2000/svg" xmlns:xlink="http://www.w3.org/1999/xlink" x="0px" y="0px"
	 viewBox="0 0 600 280" enable-background="new 0 0 600 280" xml:space="preserve">
<g>
	<g>
		<g>
			<path fill="#FFFFFF" d="M36.5,44.4l0,106.2c0.2,16-5.1,16.5-6.8,16.7c-0.1,0-0.3,0-0.4,0c-3.9,0-6.3-7.6-7.6-11.7
				c-0.1-0.3-0.2-0.7-0.3-1l-1.7-5.5L0,172.2l0.4,1.6c4.7,17.6,14.4,27.7,26.7,27.7c1.4,0,2.8-0.1,4.2-0.4
				c10.8-1.9,19.1-8.9,24.2-20.4c5-11.2,5.7-24.2,5.7-30.9V48.3L36.5,44.4z"/>
			<path fill="#FFFFFF" d="M129.8,106.7c-1.8-1.1-2.7-1.7-4.6-2.8l0,0c-6.7-4-9.6-8.1-9.7-13.3c0-2.4,0.8-4.7,2.2-6.1
				c0.9-0.9,1.9-1.2,3.1-1.2c4.6,0.3,7.4,5.3,8.9,9.4l1.6,4.3l19.7-16l-0.9-2.3c-5.8-14.2-16-22.9-28.7-24.3
				c-1.1-0.1-2.1-0.2-3.2-0.2c-17.9,0-27.2,18-27.2,35.7c0,19.2,8.1,34,23.6,43c1.8,1.1,2.8,1.6,4.6,2.7c6.4,3.6,11.7,7.1,11.7,13.5
				c-0.1,5.3-4.1,9.6-9.4,10c-0.3,0-0.6,0-0.9,0c-3.9,0-9.5-2.2-13.9-12.7l-1.8-4.2L85,160.4l0.7,2c2.6,7.6,6.8,13.9,12.2,18.5
				c5.9,5,13,7.6,20.6,7.6c1.3,0,2.7-0.1,4-0.2c9.9-1.1,18.4-5.9,24.5-13.6c5.6-7.2,8.7-16.6,8.8-26.5
				C155.7,130.6,147.5,117.4,129.8,106.7z"/>
			<path fill="#FFFFFF" d="M252.6,135.7l-1.9,3.5c-3.5,6.4-9.8,14.1-20.2,14.4c-0.2,0-0.4,0-0.6,0c-7.2,0-13-3.5-17.3-10.3
				c-3.7-5.9-5.8-13.9-5.8-21.9c0-8,2.1-15.9,5.8-21.8c4.2-6.7,10-10.1,17.2-10.1c0.2,0,0.4,0,0.6,0c7.9,0.2,14.9,4.9,18.8,12.6
				l1.9,3.6l19.3-16l-1.3-2.4c-8.1-15-21.7-23.7-38.5-24.4c-0.7,0-1.3,0-2,0c-14.4,0-26.7,6.6-35.5,19.2
				c-7.5,10.7-11.8,24.9-11.8,39.2c0,14.3,4.3,28.6,11.8,39.3c8.8,12.6,21.1,19.3,35.6,19.3c0.7,0,1.3,0,2,0
				c16.9-0.7,31.5-10.3,40-26.1l1.3-2.4L252.6,135.7z"/>
			<path fill="#FFFFFF" d="M345.8,63.7c-0.4,0-0.9,0-1.4,0c-30.9,0.9-49.4,30-49.4,57.6c0,14.1,4.8,28.3,13.1,38.9
				c9.2,11.7,22.1,18.4,36.3,18.8c0.5,0,0.9,0,1.4,0c14.3,0,27-6.6,35.9-18.6c7.8-10.6,12.3-24.8,12.3-39s-4.5-28.4-12.3-39
				C372.8,70.3,360,63.7,345.8,63.7z M368.6,121.4c0,7.9-2.2,15.8-6,21.6c-3,4.6-8.5,10-17.5,10c-0.1,0-0.3,0-0.4,0
				c-15.7-0.3-24.1-16.5-24.1-31.6c0-15.1,8.5-31.3,24.1-31.6c0.1,0,0.3,0,0.4,0c9,0,14.5,5.4,17.5,10
				C366.4,105.6,368.6,113.5,368.6,121.4z"/>
			<path fill="#FFFFFF" d="M480.1,55.8c0,0,0.1,61.5,0.2,64.5c-1.2-1.8-3.7-5.3-3.7-5.3c-13.9-17.9-46.1-55.5-46.1-55.5l-6.5,0.5
				v121.7l23.7,2c0,0-0.1-58.5-0.3-61.2c1.2,1.7,49.3,67.5,49.3,67.5l7,0.9V53L480.1,55.8z"/>
			<path fill="#FFFFFF" d="M536.6,48.6v145.6l24.8,3.8v-44.7c10.6,0.7,35.2,2.4,35.2,2.4V120c0,0-24.5-0.1-35.2-0.1v-42
				c11.9-1.2,38.7-4.3,38.7-4.3V38L536.6,48.6z"/>
		</g>
		<g>
			<g>
				<path fill="#162636" d="M61.3,48.3v101.7c0,6.7-0.7,19.7-5.7,30.9c0,0,0,0,0,0c-0.7,2.8-1.7,4.3-2.7,5.2
					c-5.1,8.3-12.4,13.5-21.4,15.1c-1.4,0.3-2.9,0.4-4.2,0.4c-7.4,0-13.8-3.6-18.8-10.4l0,0c0,0,14.6,23.4,31.6,29.1
					c2,0.7,4.1,1.1,6.3,1.2c0.3,0,0.6,0,1,0c1.4,0,2.8-0.1,4.2-0.4c10.8-1.9,19.1-8.9,24.2-20.4c5-11.2,5.7-24.2,5.7-30.9V68.3
					L61.3,48.3z"/>
				<path fill="#162636" d="M21.8,155.7c1.3,4.1,3.6,11.7,7.6,11.7c0.1,0,0.3,0,0.4,0c1-0.1,3.1-0.3,4.7-3.5l-14.7-14.7l1.7,5.5
					C21.6,155,21.7,155.3,21.8,155.7z"/>
			</g>
			<g>
				<polygon fill="#162636" points="100.9,121.4 100.9,121.4 100.9,121.4 				"/>
				<path fill="#162636" d="M150.1,78.8l0.9,2.3l-19.7,16l-1.6-4.3c-1.5-4.1-4.3-9.1-8.9-9.4c-1.2-0.1-2.3,0.3-3.1,1.2
					c-1.3,1.3-2.2,3.7-2.2,6.1c0,5.2,3,9.3,9.7,13.3l0,0c1.8,1.1,2.7,1.7,4.6,2.8c0.3,0.2,0.6,0.4,0.9,0.5c0,0,0,0,0,0
					c-0.1-0.5-0.1-1.1-0.1-1.7c0-2.4,0.8-4.7,2.2-6.1c0.2-0.2,0.4-0.3,0.5-0.5l13.1,13.1l19.7-16l-0.9-2.3c-2.2-5.4-5-10-8.3-13.7
					l0,0c-2.5-3.5-8.6-9-13.9-13.7C145.7,69.9,148.2,74.1,150.1,78.8z"/>
				<path fill="#162636" d="M120.5,159.2c0.1,0,0.1,0,0.2,0l-0.8-1.9l-15-15l1.8,4.2C111.1,157,116.6,159.2,120.5,159.2z"/>
				<path fill="#162636" d="M119.2,135.7c-1.9-1.1-2.8-1.6-4.6-2.7c-4-2.3-7.5-5-10.5-8.1c4.6,5.1,13.1,14.4,18.2,18c0,0,0,0,0,0
					c2.2,1.9,4.6,3.6,7.3,5.1c0.5,0.3,0.9,0.5,1.3,0.8C130.7,142.7,125.5,139.3,119.2,135.7z"/>
				<path fill="#162636" d="M163.2,138C163.2,138,163.2,138,163.2,138c-0.1-0.2-0.3-0.4-0.4-0.6c0,0-0.1-0.1-0.1-0.1
					c-5.6-7.8-13.5-15.3-20-20.8c8.8,8.8,13,19.1,13,31.6c0,9.9-3.1,19.3-8.8,26.5c-6.1,7.8-14.6,12.5-24.5,13.6
					c-1.3,0.2-2.7,0.2-4,0.2c-7.6,0-14.7-2.6-20.6-7.6c-2.5-2.1-4.8-4.7-6.7-7.6c0,0,9.7,15.2,23.6,24c5.2,3.8,11.2,5.9,17.6,6.1
					c0.4,0,0.7,0,1.1,0c1.3,0,2.7-0.1,4-0.2c9.9-1.1,18.4-5.9,24.5-13.6c5.6-7.2,8.7-16.6,8.8-26.5
					C170.7,153.6,168.3,145.3,163.2,138z"/>
			</g>
			<g>
				<path fill="#162636" d="M269.2,87.4l1.3,2.4l-19.3,16l10,10l19.3-16l-1.3-2.4c-1.5-2.9-3.3-5.5-5.2-7.9c0,0,0,0,0,0
					c-5.9-8.6-14.6-15.3-18.3-17.9C261.1,75.5,265.7,80.9,269.2,87.4z"/>
				<path fill="#162636" d="M221.8,151.8c-3.2-5.8-5-13.1-5-20.5c0-8,2.1-15.9,5.8-21.8c4.2-6.7,10-10.1,17.2-10.1
					c0.2,0,0.4,0,0.6,0c3,0.1,6,0.8,8.6,2.2c-4-7.4-10.9-12-18.6-12.2c-0.2,0-0.4,0-0.6,0c-7.2,0-13,3.4-17.2,10.1
					c-3.7,5.9-5.8,13.8-5.8,21.8c0,8,2.1,16,5.8,21.9C215.2,147.3,218.2,150.2,221.8,151.8z"/>
				<path fill="#162636" d="M272.1,151.3l-1.3,2.4c-8.5,15.9-23.1,25.4-40,26.1c-0.7,0-1.4,0-2,0c-14.4,0-26.7-6.7-35.6-19.3
					c-1-1.4-1.9-2.8-2.7-4.3l0,0c0,0,17.2,31,42.1,33.1c0,0,0,0,0,0c2,0.3,4.1,0.4,6.2,0.4c0.7,0,1.3,0,2,0
					c16.9-0.7,31.5-10.3,40-26.1l1.3-2.4L272.1,151.3z"/>
				<path fill="#162636" d="M253.9,70.3C253.9,70.3,253.9,70.3,253.9,70.3L253.9,70.3C253.9,70.3,253.9,70.3,253.9,70.3z"/>
			</g>
			<g>
				<path fill="#162636" d="M381.7,160.4c-8.9,12-21.7,18.6-35.9,18.6c-0.5,0-0.9,0-1.4,0c-14.2-0.4-27.1-7.1-36.3-18.8
					c-8.3-10.6-13.1-24.8-13.1-38.9c0-21.2,10.9-43.2,29.8-52.8l0,0c0,0-15.6,6.4-28.9,26.8c-1.6,2.3-3,4.8-4.3,7.3c0,0,0,0,0,0l0,0
					c-4.4,8.8-6.7,18.8-6.7,28.6c0,14.1,4.8,28.3,13.1,38.9c9.2,11.7,22.1,18.4,36.3,18.8c0.5,0,0.9,0,1.4,0c3,0,5.9-0.3,8.7-0.9
					c0,0,0,0,0,0c0,0,0,0,0,0c1.2-0.2,2.3-0.5,3.5-0.8c0.1,0,0.2-0.1,0.3-0.1c0.1,0,0.2-0.1,0.4-0.1c16.2-4.7,26.6-15.7,35.6-30.5
					C383.4,157.9,382.6,159.2,381.7,160.4z"/>
				<path fill="#162636" d="M362.5,143c3.8-5.8,6-13.7,6-21.6c0-7.9-2.2-15.8-6-21.6c-3-4.6-8.5-10-17.5-10c-0.1,0-0.3,0-0.4,0
					c-8.7,0.2-15.2,5.2-19.2,12.3c2.7-1.4,5.8-2.2,9.2-2.3c0.1,0,0.3,0,0.4,0c9,0,14.5,5.4,17.5,10c3.8,5.8,6,13.7,6,21.6
					c0,7.1-1.8,14.1-4.9,19.7C357.8,149.1,360.6,145.9,362.5,143z"/>
				<path fill="#162636" d="M384.9,155.6c0.2-0.3,0.3-0.5,0.5-0.8c0,0,0,0,0,0C385.2,155.1,385,155.3,384.9,155.6z"/>
			</g>
			<g>
				<path fill="#162636" d="M476.6,115c0,0,2.5,3.5,3.7,5.3c-0.1-3-0.2-64.5-0.2-64.5l-15,15c0,0,0,14.6,0.1,29.9
					C469.5,106,473.5,111,476.6,115z"/>
				<polygon fill="#162636" points="424.1,60 409.1,75 409.1,196.7 432.8,198.7 447.8,183.7 424.1,181.7 				"/>
				<path fill="#162636" d="M447.5,122.5c0.1,1.5,0.2,19.7,0.2,35.9c14.5,19.8,34.1,46.6,34.1,46.6l7,0.9l15-15l-7-0.9
					C496.8,190,448.7,124.2,447.5,122.5z"/>
			</g>
			<g>
				<path fill="#162636" d="M596.5,155.7c0,0-24.6-1.7-35.2-2.4v21.3c8.2,0.6,15.2,1,15.2,1L596.5,155.7L596.5,155.7L596.5,155.7z"
					/>
				<path fill="#162636" d="M561.3,77.9v17.8c9.8-1.1,18.7-2.1,18.7-2.1l20-20C600,73.6,573.2,76.6,561.3,77.9z"/>
				<polygon fill="#162636" points="536.6,48.6 516.6,68.6 516.6,214.2 541.3,218 561.3,198 536.6,194.2 				"/>
			</g>
		</g>
	</g>
	<g opacity="0.25">
		<g>
			<path fill="#162636" d="M267.7,29.3l0.4-0.5c1.7-1.8,3.3-3.8,3.3-6.1c0-2.9-2.1-5.7-6.7-5.7c-3.5,0-6.2,2.2-7,5.5l-0.1,0.6
				l4.9,1.3l0.2-0.6c0.7-2,1.7-2,2-2c0.8,0,1.2,0.4,1.2,1.1c0,0.9-0.5,1.5-2.1,3.1l-6.4,6.8v1.3h14.1v-4.7h-4.1
				C267.6,29.4,267.6,29.3,267.7,29.3z"/>
			<path fill="#162636" d="M290.2,17c-4.9,0-8.9,3.9-8.9,8.7c0,4.8,4,8.8,8.9,8.8c4.9,0,9-3.9,9-8.8C299.2,20.8,295.2,17,290.2,17z
				 M290.2,29.5c-2,0-3.4-1.6-3.4-3.9c0-2.3,1.4-3.8,3.4-3.8c2,0,3.4,1.5,3.4,3.8C293.6,28,292.2,29.5,290.2,29.5z"/>
			<polygon fill="#162636" points="308.2,21.9 311.2,21.9 311.2,34.1 316.6,34.1 316.6,17.2 308.2,17.2 			"/>
			<path fill="#162636" d="M336.1,21C336.1,21,336.1,21,336.1,21c0-0.1,0.1-0.2,0.2-0.3l4.4-6.1h-6.1l-4.6,6.3
				c-1.6,2.2-2.6,4.1-2.6,6.6c0,3.9,3.3,6.9,7.6,6.9c4.4,0,7.5-2.9,7.5-7C342.5,23.7,339.9,21,336.1,21z M337.1,27.4
				c0,1-0.7,2.1-2.1,2.1s-2.1-1.1-2.1-2.1c0-1,0.7-2.1,2.1-2.1S337.1,26.4,337.1,27.4z"/>
		</g>
		<path fill="#162636" d="M152.5,225.9c0,0,0.3,0,0.8-0.1c0.6-0.1,1.4-0.2,2.5-0.3c1.1-0.1,2.4-0.3,4-0.5c0.8-0.1,1.6-0.2,2.5-0.3
			c0.9-0.1,1.9-0.2,2.9-0.3c4-0.4,8.9-1,14.5-1.5c2.8-0.3,5.8-0.5,8.9-0.8c3.2-0.3,6.5-0.5,9.9-0.8c3.5-0.3,7.1-0.5,10.8-0.7
			c3.7-0.2,7.6-0.4,11.5-0.7c7.9-0.4,16.3-0.8,24.9-1.1c4.3-0.2,8.7-0.3,13.2-0.4c2.2-0.1,4.5-0.1,6.7-0.2c2.2,0,4.5-0.1,6.8-0.1
			c9.1-0.2,18.3-0.2,27.5-0.2c4.6,0,9.2,0,13.8,0.1c1.1,0,2.3,0,3.4,0c1.1,0,2.3,0,3.4,0.1c2.3,0,4.6,0.1,6.8,0.1
			c2.3,0,4.5,0.1,6.8,0.1c2.2,0.1,4.5,0.1,6.7,0.2c4.4,0.1,8.8,0.2,13.2,0.4c8.6,0.3,17,0.7,24.9,1.1c4,0.2,7.8,0.4,11.5,0.7
			c3.7,0.3,7.3,0.5,10.8,0.7c6.9,0.5,13.3,1,18.9,1.5c5.6,0.5,10.5,1.1,14.5,1.5c1,0.1,2,0.2,2.9,0.3c0.9,0.1,1.7,0.2,2.5,0.3
			c1.6,0.2,2.9,0.4,4,0.5c1.1,0.1,1.9,0.3,2.5,0.3c0.6,0.1,0.8,0.1,0.8,0.1v0.9c0,0-4.6,0-12.7,0.1c-4,0-8.9,0.1-14.5,0.1
			c-5.6,0-12,0.1-18.9,0.1c-27.7,0.1-64.5,0.1-101.4,0.2c-36.9-0.1-73.8-0.2-101.4-0.2c-6.9,0-13.3,0-18.9-0.1
			c-5.6,0-10.5-0.1-14.5-0.1c-8.1-0.1-12.7-0.1-12.7-0.1V225.9z"/>
		<g>
			<path fill="#162636" d="M183.7,256.1c0,2.9-1.1,4.1-4,4.1c-2.9,0-4-1.1-4-4.1v-14.8H170v15c0,5.6,3.7,9,9.7,9c6,0,9.7-3.5,9.7-9
				v-15h-5.7V256.1z"/>
			<path fill="#162636" d="M228.6,250.4c0-5.8-3.9-9.1-10.7-9.1h-6.8v23.8h5.7v-5.7h1.1c0.4,0,0.7,0,1.1-0.1l3.7,5.7h6.7l-4.9-7.4
				C227.2,256.2,228.6,253.8,228.6,250.4z M216.8,246.4h1c3.6,0,5,1.1,5,4c0,2.8-1.3,3.9-5,3.9h-1V246.4z"/>
			<path fill="#162636" d="M263,256.1c0,2.9-1.1,4.1-4,4.1c-2.9,0-4-1.1-4-4.1v-14.8h-5.7v15c0,5.6,3.7,9,9.7,9c6,0,9.7-3.5,9.7-9
				v-15H263V256.1z"/>
			<path fill="#162636" d="M300.9,257h5.5v2.5c-1,0.4-2.5,0.7-3.9,0.7c-4.3,0-7-2.7-7-7c0-4.1,2.6-6.9,6.3-6.9
				c2.4,0,3.6,0.7,4.7,1.9l0.4,0.4l3.9-3.8l-0.3-0.4c-2-2.2-4.8-3.3-8.6-3.3c-7,0-12.1,5.1-12.1,12.2c0,7.2,5.3,12.2,12.9,12.2
				c4.5,0,7.8-1.7,9.1-2.8l0.2-0.2v-10.6h-10.8V257z"/>
			<path fill="#162636" d="M346.6,256.1c0,2.9-1.1,4.1-4,4.1c-2.9,0-4-1.1-4-4.1v-14.8h-5.7v15c0,5.6,3.7,9,9.7,9c6,0,9.7-3.5,9.7-9
				v-15h-5.7V256.1z"/>
			<path fill="#162636" d="M381.1,241.1l-10.4,24h5.6l1.1-2.6h8.5l1.1,2.6h6.1l-10.9-24H381.1z M383.8,257.6h-4.4l1.3-3.2
				c0.3-0.8,0.6-1.7,0.9-2.5c0.3,0.8,0.6,1.7,0.9,2.5L383.8,257.6z"/>
			<path fill="#162636" d="M424.1,241.3l-4,7.6c-0.5,0.9-1,2.1-1.3,3.1c-0.4-0.9-0.9-2.2-1.4-3.1l-4.2-7.6h-6.4l9,16.2v7.6h5.7v-7.9
				l8.4-15.8H424.1z"/>
		</g>
	</g>
</g>
</svg>
