<svg xmlns="http://www.w3.org/2000/svg" viewBox="0 0 300 500"><g opacity=".25" fill="#162636"><path d="M261.2 240.4c7.3.3 7.9-3.9 9.3-15.2.8-6.5 0-11-2.5-13.4-1.7-1.7-3.7-1.6-4.4-1.6l-1.7-.1 1-8.2c2.1-1.1 3.6-3.2 3.9-5.7.5-4.1-2.4-7.9-6.6-8.4-4.1-.5-7.9 2.4-8.4 6.6-.2 1.7.2 3.2.9 4.6h-.3c-2.1.4-3.7 2.8-5.5 5.6-.6 1-1.4 2.8-2 3.6-9.9-4.7-25.6-9.1-32.1-10.1 3.5-7 12.4-26.9 16.9-40.7 4.1-4.6 5.6-10.1 4.3-16.5l-.2-1c-3.3-17-7.5-35.1-16.4-35.6-3.4-.2-7.1.4-10.7 1-5.6.9-11.3 1.8-16 0h.2c1.5.2 3 .1 4.4-.3 8.6-2.7 12.7-18.5 9.7-28.8-1.4-4.7-3.6-7.9-5.7-10.9-.5-.7-.9-1.3-1.4-2 .7-1.5 1.8-3.8 3.4-7.3l1.2-2.7-2.9.2c-2.4.2-4.6-.1-6.6-.5-.2-.6-.3-1.1-.5-1.7-2.9-11.7-10.9-24.1-12.7-26.7.3-1.4.4-2.8.4-4.2-.1-3.1-1.1-5.7-3.1-7.6-3.3-3.2-9.1-4.5-18.1-4.2-15.2.5-36.4 7.4-46.3 24.9-9.9 17.5 2.8 39.5 9.4 48.3-4.1 1.1-7.6 4.3-9.6 6.5C106.1 79.9 95.7 77 87.8 76c-15.5-1.9-24.3 5.1-29 11.3-5 6.7-6.2 13.7-6.3 14v.2c0 .5-2.1 45.5-7.4 91.4-15.5 12.7-23.1 33.6-18.9 52.6 1.5 6.7 4.4 12.9 8.5 18.3-.1.7-.2 1.3-.3 1.9-1.1 6.2-1.9 10.7-2.3 14.2-1.3 10.8 0 21.2 0 21.7l.1.6.4.4c.1.1 1.2 1.1 3.9 2.6.7 2.7 3 10.6 6.2 15.9l.3.5.6.2c3.3 1.2 8.8 2.4 14.1 3.2-1.5.6-3 1.3-4.4 2.2-2.4 1.5-4.5 3.4-6.1 5.7-1.7 2.3-2.9 4.9-3.6 7.7-1.1 4.6-1.1 8.9.1 13.3 1.1 4.1 3 7.8 5.1 11.8 3.1 6.1 6.4 12.4 6.9 20.4.3 4.4-.3 8.7-1.7 13.4-.6 1.9-1.3 3.8-2.2 5.8 1-.6 2-1.3 3-1.9 4.9-3.3 9.6-7.3 13.9-11.8 4.8-5 9.1-10.4 12.7-16.2 4-6.4 7.1-13.2 9.2-20.3 1.9-6.3 1.3-12.9-1.8-18.7-2.1-3.9-5.1-7.2-8.8-9.4 1.8 0 3.5 0 4.8-.2l.6-.1.4-.4c4-3.8 7.6-9.9 9.4-12.9 3.4-.7 4.6-1.6 4.9-1.8l.5-.4 1.2-4.7c.6 3.6 1.5 6.9 2.6 9.9-7.7 1.8-14.2 7.3-16.2 15.4 0 .2-.1.3-.1.5.9 1.2 1.8 2.4 2.5 3.8 2.9 5.5 3.7 11.8 2 17.9 4.8 9.3 9.6 18.8-1.9 37 13.2-5.1 33.1-21.3 40.6-46 .3-.9.5-1.8.6-2.7 2 .8 4.2 1.5 6.4 2.2 11.2 3.4 23.1 10.6 31.7 19.2 9.5 9.6 14.2 20 13 29.2-2.4 19.7-5.2 42-44 68-2.9 1.9-4.5 4.1-4.8 6.6-.4 4.4 3.5 8.2 5.8 10.5 1.5 1.5 7.5 6.9 13.3 12.1 9.6 8.5 11.7 9.9 12.8 10h.6c1.5-.3 2.8-2.1 3.5-3.8.7-2 1.4-6.1-2.3-10.9-3.9-4.9-4.1-9 5.4-17 3.9 5.4 8.3 11.2 9.6 11.9 1 .6 2.3.4 3.2-.6 1.6-1.7 2.3-5.8.8-7.9l-.1-.2c-1.3-1.9-4.8-7-.9-15.6 6.6-7.7 13.6-17.8 19.3-30 9.3-6.4 19.9-14.3 28.2-25.2 3.1-4.1 5.8-8.5 8-13.1.1-.1.1-.2.2-.3 4-8.4 6.6-17.8 7.9-28.3 2.4-19.4-1.2-41.4-14.4-58.4-.3-.5-1-1.4-1.9-2.7-6.2-9.2-12.2-21.6-17.3-35.3 26.2-1 33.5-5.4 40.7-11.9l1.3-10.2h-.9c.6 0 1.3 0 1.9.1 1-.3 1.7-.3 2.3-.3zm-223.9 9c-.9-2.2-1.5-4.3-1.9-6.1-2.7-12.1.5-25.2 8-35.4-2.3 17.5-4.4 30.9-6.1 41.5zm49.1 95.5c-.8 15-9.5 27.8-17.4 33.3l-4.1 2.9 1.6-4.7c3.7-11.2 0-15.4-3.9-19.8-3-3.4-6-6.9-6.1-13.1 0-3.8 1.5-7.3 4.3-10 3-2.9 7.2-4.4 11.3-4.2 8.4.3 14.7 7.4 14.3 15.6zm23.8 16.4l-3.1 2.2 1.2-3.6c2.8-8.5 0-11.7-2.9-15.1-2.3-2.6-4.6-5.2-4.6-10 0-2.9 1.2-5.6 3.3-7.6 1.3-1.2 2.9-2.2 4.6-2.7.5.8 1 1.5 1.6 2.2-1.6.3-3.2 1.1-4.4 2.3-1.6 1.6-2.5 3.6-2.5 5.8 0 3.8 1.9 5.9 4 8.3 2.7 3.1 5.7 6.5 4.5 13.6 4.4-4.4 8.5-11.8 9.2-20.2l2.4 1.5c-1.5 10.5-7.7 19.4-13.3 23.3zm138.1-112.6c-8.5 6.3-29.1 4.6-35.4 3.9-3.4-10.8-5.8-21-6.7-28.8 2.6 1.1 7 2.4 13.1 2.8 1.3.1 2.6.2 3.9.2 8.5.5 18.2 1.1 21.1 3.7 0 0 .5 1.7 1 2.5-.3.6-.5 1.2-.5 1.9 0 .9.3 2.5 2.3 3.6.6.4 1.4.7 2.4.9l-1.2 9.3z"/><path d="M63.2 335.8c-2.2 2.1-3.3 4.8-3.3 7.6 0 5 2.4 7.7 5.2 10.9 3.5 4 7.5 8.5 5.8 17.9 5.9-6 11.5-16 12.1-27.5.3-6.1-4.1-11.4-10.2-12.1-.3 0-.5-.1-.8-.1-3.2-.2-6.4 1-8.8 3.3z"/></g><path fill="#FFF" d="M149.4 20.1c-.4-3.6 2-9.6 2-9.6s2.9-1.5 6.4-1.8c-4.5 1.4-8.4 11.4-8.4 11.4z"/><path fill="#5596C0" d="M181.6 451.9c-2.1-.6-7.4-2.3-11.1-5.2-3.4-2.6-4.3-6.3-4.4-7.8.8-.8 1.7-1.6 2.4-2.5.7 2.2 2.2 5 5.5 7.3 3.7 2.6 8.1 4 10.9 4.8-1.2 1.2-2.3 2.3-3.3 3.4z"/><path fill="#FFF" d="M128.9 76.4c3.2 3.4 6.4 5.4 8.7 6.9 1.3.8 2.4 1.5 2.9 2.1.3.4-.4 2.3-1.6 4-2.8 1.5-10.1 2.1-17.3 2.3-.2-2-.9-5.3-3-8.9 2.1-2.5 6.4-6.5 10.3-6.4zM88 314.8c-.5 0-1.1.1-1.7.1l3.9-5.5c.4-.6.3-1.4-.3-1.8-.6-.4-1.4-.3-1.8.3l-5 7.1c-1 0-2 0-3-.1l2.5-5.7c.3-.7 0-1.4-.7-1.7-.7-.3-1.4 0-1.7.7l-2.9 6.6c-1.1-.1-2.3-.2-3.4-.2l1.3-6.5c.1-.7-.3-1.4-1-1.5-.7-.1-1.4.3-1.5 1l-1.4 6.8c-.9-.1-1.8-.2-2.6-.3-.8-.1-1.7-.2-2.6-.4l.2-7.4c0-.7-.6-1.3-1.3-1.3-.7 0-1.3.6-1.3 1.3l-.2 7.1c-1.2-.2-2.4-.4-3.7-.6l-.9-7.9c-.1-.7-.7-1.2-1.5-1.2-.7.1-1.2.7-1.2 1.5l.8 6.8c-1.1-.2-2.2-.5-3.2-.7l-2.6-8.5c-.2-.7-.9-1.1-1.6-.9-.7.2-1.1.9-.9 1.6l2.1 7c-.4-.1-.8-.2-1.2-.4-2.1-3.5-3.7-8.3-4.7-11.6 5.3 2.1 13.5 4.5 26.2 6 11.2 1.4 18.8 1.4 23.8.9-1.7 3-4.2 6.7-6.9 9.4zM101.7 300.6c-.8.4-2.1.8-3.9 1.1l-.4-.2s-.1.1-.2.3c-4.8.7-12.9.9-25.6-.7-19.1-2.3-28.9-6.8-31.8-9.1-.2-1.4-.5-4.9-.5-9.4C44 285.4 54.2 290 71 292c16.6 2 28.2.2 33.4-1.4l-2.7 10zM108.6 196.1c-4.6-3.7-9.4-6.3-12.2-7.7 2.8-2.4 6.6-5.8 7.3-7.4 0-.1.2-.4.4-.7.7-1.2 2-3.4 3.3-6.2.7 5.5 1.1 13.5 1.2 22zM69.3 141.8c-2.3 4.8-4.7 12.1-5.1 22.2-.7 18.8-.1 22.5 0 22.9.1.4.7 3.2 2.9 4.3 1.8 3.9 11 22.3 26.1 32.9 4.8 3.4 9.9 6.6 14.7 9.4-.1 3.3-.2 5.5-.2 5.8-.1 1-1.7 20.6-2.4 36.7-4 .8-20.3 3.9-32.8 2.4-22.5-2.8-30.5-10.1-32-11.6.4-2.5.9-5.4 1.5-8.9 2.4-13.3 5.9-33.5 10-66.6 3.1-25.3 5.2-50.8 6.5-69.6 2.5.9 7.1 2.2 13.9 3.1.4 0 .8.1 1.1.1-4.2 4.9-5.3 6.5-5.4 7.4-.4 3.4.1 6.6 1.2 9.5zM109.3 91.3c-8.5-.7-13.6 7-16.3 11.1l-.1.2c-1 1.5-5.8 6.9-10.4 12.1-.2.2-.3.4-.5.5-13.9-1.8-20.5-4.4-22.7-5.4.6-9.5.9-15.7.9-16.6.2-.8 1.5-6.9 5.7-12.5 5.9-7.9 14.5-11.2 25.6-9.9 22 2.7 25.9 16 26.6 20.8-3.3 0-6.4-.1-8.8-.3z"/><path fill="#5596C0" d="M123.5 242.3c2.9 1.6 5.4 3 5.9 3.4l.1.1c.3.2 7.6 4.9 13.5 5.6.5.1.9.1 1.4.1 4.8 0 6.9-.2 9.8-.5 1.3-.2 2.3-1 2.8-2.2.5-1.2.4-2.6-.1-3.9.5-.4.8-.9 1-1.5.5-1.2.4-2.6-.1-3.9.5-.4.8-.9 1-1.5.5-1.2.4-2.6-.1-3.9.5-.4.8-.9 1-1.5.6-1.6.3-3.9-.9-5.3-.8-.9-1.9-1.4-3-1.1-1.5.3-7.5.4-10.5.1.9-1.1 2.3-2.3 2.9-2.7 1.5-.6 3.3-3.5 3.7-5.3.3-1.6-.3-3-1.5-3.8-1.1-.7-2.5-.7-4.3-.2-3 .9-7.1 3.6-8.7 6.7-.9 1.9-3.2 4-4.9 5.4-3.2-4.7-12.8-18.7-19.2-25.8l-1.5-1.5c-.1-10.1.6-21.4-.3-27.9 4.2-5.7 14.7-20.5 15.4-25.6.8-6.3-4.5-16.3-4.7-16.8 0 0 1.8 12 1.3 16.3-.3 2.7-5.2 10.4-10.1 17.6 0-.2.1-.5.1-.8.5-6-.8-15.1-9.5-23.9-8.7-8.8-17.8-10.3-23.8-10.1-2.1.1-4.1.4-5.7.8 2.9-3.4 7.2-8.2 10.4-11.9 5.1-5.8 9.6-10.7 10.7-12.5l.1-.2c2.5-3.8 6.7-10.1 13.1-9.6 6.5.5 23 .7 30.1-1.8 3.4 7.5 14.7 19.7 31.6 21.8 9 1.1 15.8-.3 20.2-4.3 2.7-2.4 4.3-5.8 4.7-9.7 5 1.3 10.5.4 15.7-.4 3.6-.6 6.9-1.1 10-.9h.2c6.7.8 11.2 24 12.9 32.7l.2 1c1.9 9.7-4.1 14.3-6.3 16.1l-.2.2c-.9.7-4.7 2-8.6 3 0-4.5-.4-9.2-1.3-14.1 0 0 0 19.8-7.9 49.3-1.8 6.7-3.5 13.1-3.9 18.8-.9 13.4 7.3 45.4 20 70.6-5.7-5.2-13.2-10.5-22-13.7 0 0 5.8 3.5 14 10.9-9-4.9-19.9-8.4-33.1-10-29.2-3.6-49.4 2.6-61.1 8.5-7.6 3.8-12.7 7.9-15.7 10.6.3-16.9 2.6-43.6 2.7-43.9v-.1c0-.3.1-1.7.2-3.9 4.9 3 9.1 5.3 12.3 7.1z"/><path fill="#FFF" d="M212.4 411.4c3.9-9.4 6.9-19.9 8.2-31.3 2.4-19.7.2-36.3-7.1-52.3-4.3-9.4-10-17.9-17-26.6 0-.1-.1-.1-.1-.2-.2-.3-.5-.9-.9-1.5-.7-1.2-1.5-2.9-2.2-4.7-.2-.4-.3-.9-.4-1.3-.1-.4-.2-.9-.3-1.3-.1-.4-.2-.9-.2-1.3s-.1-.8 0-1.1c0-.4.1-.7.1-1 .1-.3.1-.5.2-.7.1-.2.2-.3.2-.4.1-.1.1-.2.1-.2l-.1.1c-.1.1-.2.2-.3.4-.1.2-.3.4-.4.7-.1.3-.2.6-.3 1-.1.4-.2.8-.2 1.2-.1.4-.1.9-.1 1.4v1.5c0 .5.1 1 .2 1.5v.1c-2.1-2.5-4.4-5-6.7-7.6l-.4-.5-.6-.1c-.4-.1-9.4-1.4-15.5.3 0 0 11.5.4 14.4 3.1 21.6 24 39.1 47.3 34.6 87.7-5.7.2-8.4-2.1-8.6-2.2-.7-.6-1.8-.6-2.5.1s-.6 1.8.1 2.5c.1.1 2.7 2.4 7.7 3 .9.1 1.8.2 2.8.1-1.7 12.3-5.4 23.6-10 33.5-4.5 9.6-11.1 20.5-19.4 30.1 0 0-.1.1-.1.2-2.1-.4-7.4-1.8-11.5-4.6-3.8-2.7-4.5-6.2-4.6-7.6 4.2-4.8 7.7-9.8 10.4-14.9 6-11.3 7.7-21.9 9.1-33.6.2-1.7.2-3.4.1-5.1v-.1-1.2c0-.4 0-.9-.1-1.3 0-.9-.1-1.8-.2-2.8l-.3-3c-.1-.5-.1-1-.2-1.5l-.3-1.5-.3-1.5c-.1-.5-.2-1-.4-1.5-.1-.5-.2-1-.4-1.5-.1-.5-.3-1-.4-1.4-.1-.5-.3-.9-.5-1.4-.2-.4-.3-.9-.5-1.3-.3-.8-.6-1.6-1-2.3-.2-.3-.3-.7-.5-1-.2-.3-.3-.6-.5-.9-.3-.5-.6-1-.8-1.4-.5-.8-.8-1.2-.8-1.2s.2.5.6 1.3c.2.4.4.9.7 1.5.1.3.3.6.4.9.1.3.2.7.4 1 .3.7.5 1.5.7 2.3.1.4.2.9.3 1.3.1.4.2.9.3 1.4.1.5.2.9.3 1.4.1.5.1 1 .2 1.5s.1 1 .2 1.5c0 .5.1 1 .1 1.5v.5c-7.1-16.2-26.1-30.8-44.6-36.3-23.8-7.1-34.3-20.3-35-44.2 1.5-1.7 7.1-7.5 17.4-12.6 20.4-10.1 43.3-10 58.9-8.1 13 1.6 24.5 5.3 33.9 10.9 8.6 5.1 15.6 11.7 20.9 19.8 9.3 14.2 13.1 32.5 10.7 51.6-1.3 10.5-3.9 19.2-7.3 26.7-3.7 1.2-7.3-1.2-7.4-1.2-.8-.5-1.9-.3-2.4.5s-.3 1.9.5 2.4c.1.1 2.5 1.7 5.7 2.1.5.1 1.1.1 1.7.1-7.3 13.6-17.8 22.8-28.7 30.6zM253.5 228c2.4.8 8 .5 9.9.5.7 0 1.4 0 2 .1 3.8.2 4.1-.1 5.6-12.1.9-7-.5-9.5-1.4-10.4-.8-.7-1.6-.6-1.6-.6h-.2l-2.3-.1-.2 1.7c.4.1.9.2 1.2.3l-.1 1.8c-5.8-.5-10.8-.8-13.4-.2-2.6.6-2 3.4.3 3.5 2.3.1 3.3.1 12.4.8l-.1 1.8c-5.6-.4-10.2-.1-12.2-.1s-2.6 2.8-.8 3.3 4.5-.5 12.8.1l-.1 1.7c-5-.4-9.6.2-11.5.2-1.9 0-2.7 2.8-.7 3 2 .2 3.8.1 12 1l-.2 1.6c-5.1-.5-10-.4-11.8-.4-.3-.1-1.4 1.9.4 2.5z"/><path fill="#162636" d="M236.9 294.5c-.6-.9-1.2-1.8-1.9-2.7-15.9-19.5-30.6-28.4-30.6-28.4 8.9 3.2 16.3 8.5 22 13.7-12.7-25.2-20.9-57.2-20-70.6.4-5.7 2.1-12.1 3.9-18.8 7.9-29.5 7.9-49.3 7.9-49.3 3.5 20.1-.9 36.8-4.5 50.2-1.8 6.9-3.4 12.8-3.8 18.2-.6 8.1 2.4 23.4 7.8 39.8 5.5 16.7 12.6 32.1 19.9 42.9 1.3 1.7 2 2.9 2.1 3.1l-2.8 1.9z"/><path fill="#162636" d="M246 378.9c4-8.4 6.6-17.8 7.9-28.3 4.3-35.4-11-79.2-68.6-86.3-29.2-3.6-49.4 2.6-61.1 8.5-12.8 6.4-18.6 13.6-18.8 13.9l-.4.5v.6c.3 13.6 3.7 24 10.3 31.9 6 7.2 14.9 12.5 27.2 16.2 11.2 3.4 23.1 10.6 31.7 19.2 9.5 9.6 14.2 20 13 29.2-2.4 19.7-5.2 42-44 68-2.9 1.9-4.5 4.1-4.8 6.6-.4 4.4 3.5 8.2 5.8 10.5 1.5 1.5 7.5 6.9 13.3 12.1 9.6 8.5 11.7 9.9 12.8 10h.6c1.5-.3 2.8-2.1 3.5-3.8.7-2 1.4-6.1-2.3-10.9-3.9-4.9-4.1-9 5.4-17 3.9 5.4 8.3 11.2 9.6 11.9 1 .6 2.3.4 3.2-.6 1.6-1.7 2.3-5.8.8-7.9l-.1-.2c-1.3-1.9-4.8-7-.9-15.6 6.6-7.7 13.6-17.8 19.3-30 9.3-6.4 19.9-14.3 28.2-25.2 3.1-4.1 5.8-8.5 8-13.1.3 0 .4-.1.4-.2zm-64.4 73c-2.1-.6-7.4-2.3-11.1-5.2-3.4-2.6-4.3-6.3-4.4-7.8.8-.8 1.7-1.6 2.4-2.5.7 2.2 2.2 5 5.5 7.3 3.7 2.6 8.1 4 10.9 4.8-1.2 1.2-2.3 2.3-3.3 3.4zm30.8-40.5c3.9-9.4 6.9-19.9 8.2-31.3 2.4-19.7.2-36.3-7.1-52.3-4.3-9.4-10-17.9-17-26.6 0-.1-.1-.1-.1-.2-.2-.3-.5-.9-.9-1.5-.7-1.2-1.5-2.9-2.2-4.7-.2-.4-.3-.9-.4-1.3-.1-.4-.2-.9-.3-1.3-.1-.4-.2-.9-.2-1.3s-.1-.8 0-1.1c0-.4.1-.7.1-1 .1-.3.1-.5.2-.7.1-.2.2-.3.2-.4.1-.1.1-.2.1-.2l-.1.1c-.1.1-.2.2-.3.4-.1.2-.3.4-.4.7-.1.3-.2.6-.3 1-.1.4-.2.8-.2 1.2-.1.4-.1.9-.1 1.4v1.5c0 .5.1 1 .2 1.5v.1c-2.1-2.5-4.4-5-6.7-7.6l-.4-.5-.6-.1c-.4-.1-9.4-1.4-15.5.3 0 0 11.5.4 14.4 3.1 21.6 24 39.1 47.3 34.6 87.7-5.7.2-8.4-2.1-8.6-2.2-.7-.6-1.8-.6-2.5.1s-.6 1.8.1 2.5c.1.1 2.7 2.4 7.7 3 .9.1 1.8.2 2.8.1-1.7 12.3-5.4 23.6-10 33.5-4.5 9.6-11.1 20.5-19.4 30.1 0 0-.1.1-.1.2-2.1-.4-7.4-1.8-11.5-4.6-3.8-2.7-4.5-6.2-4.6-7.6 4.2-4.8 7.7-9.8 10.4-14.9 6-11.3 7.7-21.9 9.1-33.6.2-1.7.2-3.4.1-5.1v-.1-1.2c0-.4 0-.9-.1-1.3 0-.9-.1-1.8-.2-2.8l-.3-3c-.1-.5-.1-1-.2-1.5l-.3-1.5-.3-1.5c-.1-.5-.2-1-.4-1.5-.1-.5-.2-1-.4-1.5-.1-.5-.3-1-.4-1.4-.1-.5-.3-.9-.5-1.4-.2-.4-.3-.9-.5-1.3-.3-.8-.6-1.6-1-2.3-.2-.3-.3-.7-.5-1-.2-.3-.3-.6-.5-.9-.3-.5-.6-1-.8-1.4-.5-.8-.8-1.2-.8-1.2s.2.5.6 1.3c.2.4.4.9.7 1.5.1.3.3.6.4.9.1.3.2.7.4 1 .3.7.5 1.5.7 2.3.1.4.2.9.3 1.3.1.4.2.9.3 1.4.1.5.2.9.3 1.4.1.5.1 1 .2 1.5s.1 1 .2 1.5c0 .5.1 1 .1 1.5v.5c-7.1-16.2-26.1-30.8-44.6-36.3-23.8-7.1-34.3-20.3-35-44.2 1.5-1.7 7.1-7.5 17.4-12.6 20.4-10.1 43.3-10 58.9-8.1 13 1.6 24.5 5.3 33.9 10.9 8.6 5.1 15.6 11.7 20.9 19.8 9.3 14.2 13.1 32.5 10.7 51.6-1.3 10.5-3.9 19.2-7.3 26.7-3.7 1.2-7.3-1.2-7.4-1.2-.8-.5-1.9-.3-2.4.5s-.3 1.9.5 2.4c.1.1 2.5 1.7 5.7 2.1.5.1 1.1.1 1.7.1-7.3 13.6-17.8 22.8-28.7 30.6z"/><g fill="#FFF"><path d="M228.7 151.5l-9.2 1.6c0 13.4-3 25-5.7 34.8 3-6 10.4-22.9 14.9-36.4zM258 194.9c-.2-.3-.5-.5-1-.6-.8.6-2.2 2.7-3 4-1.1 1.7-2.2 4.2-3.3 5.1l-.9.8-1.1-.6c-11.4-5.9-32.6-10.7-34.5-10.7h-1.6c-1.3 5.1-2.4 9.6-2.6 13.8-.1 1.4-.1 2.9 0 4.7 1.7.9 6.2 2.8 13.7 3.3 1.3.1 2.6.2 3.9.2 8.5.5 17.8 2 22.4 4.3-1-1-.7-4.5.9-5.3-2.8-1.9-1.4-6 .7-6.9.8-.3 2.8-.5 5.2-.5l.2-1.5-2.1-.1 3-7.4.1-2.6z"/></g><path fill="#162636" d="M110.3 173.4l-2.9-2c.4-.6 7.9-13.3-6.9-28.2-14.9-15-28.7-5.5-29.4-5.2l-2-7.1c.2-.1 4.7-2.5 11.3-2.7 6.1-.3 15.1 1.3 23.8 10.1 8.7 8.8 10 17.8 9.5 23.9 0 .3 0 .5-.1.8 4.9-7.1 9.8-14.9 10.1-17.6.5-4.3-1.3-16.3-1.3-16.3.2.4 5.5 10.5 4.7 16.8-.6 5.9-15.1 25.3-16.8 27.5z"/><path fill="#162636" d="M123.6 145.9s.1-.3.2-.8.3-1.3.5-2.2c.4-1.8 1-4.2 1.7-6.5s1.5-4.7 2.4-6.3c.2-.4.4-.8.6-1.1.2-.3.4-.6.6-.8.2-.2.3-.3.5-.4.1-.1.2-.1.2-.1s-.1.1-.1.2c-.1.1-.2.3-.4.5-.1.2-.3.5-.4.8-.1.3-.3.7-.4 1.1-.5 1.7-.9 4.1-1.1 6.4-.2 2.4-.4 4.8-.4 6.6 0 .9 0 1.6-.1 2.2v.8l-3.8-.4z"/><g fill="#162636"><path d="M110.4 170.5l-1.6.1c-.4 1.3-.9 2.4-1.4 3.5.7 5.5 1.1 13.4 1.2 22 1.2 1 2.4 2 3.6 3.2-.1-10.6.6-22.5-.4-28.8h-1.4zM108.6 285.2c.2-16.7 2.7-45.4 2.7-45.7v-.1c0-.3.1-1.7.2-3.9-1.1-.7-2.3-1.3-3.4-2-.1 3.3-.2 5.5-.2 5.8-.1 1.3-2.8 32.6-2.7 48.6 0 0 1.3 1.6.7 4 6.9-7.6 24.8-12.7 24.8-12.7-12.8-.5-19.9 4.6-22.1 6zM238.1 132.5l-.2-1c-3.3-17-7.5-35.1-16.4-35.6-3.4-.2-7.1.4-10.7 1-5.6.9-11.4 1.8-16.2-.1l-2.5-1 .1 2.7c.1 2.7-.5 6.5-3.7 9.4-3.5 3.2-9.5 4.4-17.4 3.4-16.6-2-27.5-15-29.4-21.1L141 88l-1.9 1.2c-4.1 2.5-21.7 2.8-29.9 2.1-8.5-.7-13.6 7-16.3 11.1l-.1.2c-1 1.5-5.8 6.9-10.4 12.1-11.7 13.1-14.1 16.1-14.3 17.5-.4 3.4.1 6.6 1.2 9.6.9-1.8 1.7-3.3 2.5-4.4-.3-1.8-.3-3.3-.2-4.6.9-1.7 8.5-10.2 13.5-15.8 5.1-5.8 9.6-10.7 10.7-12.5l.1-.2c2.5-3.8 6.7-10.1 13.1-9.6 6.5.5 23 .7 30.1-1.8 3.4 7.5 14.7 19.7 31.6 21.8 9 1.1 15.8-.3 20.2-4.3 2.7-2.4 4.3-5.8 4.7-9.7 5 1.3 10.5.4 15.7-.4 3.6-.6 6.9-1.1 10-.9h.2c6.7.8 11.2 24 12.9 32.7l.2 1c1.9 9.7-4.1 14.3-6.3 16.1l-.2.2c-1 .8-6.3 2.5-10.7 3.6l.9 3.4c1.6-.4 9.9-2.6 12-4.2l.2-.2c6.6-5 9.2-11.6 7.6-19.5z"/></g><path fill="#162636" d="M110.6 172.7s.1.1.1.2.1.1.2.2c0 0 .1.1.1.2l.1.1c.2.2.3.4.6.7.2.3.6.6.9.9.4.3.7.7 1.2 1 .4.3.9.7 1.4 1 .5.3 1.1.7 1.6 1l1.8.9c.6.3 1.2.5 1.8.8.6.2 1.2.5 1.8.7.6.2 1.2.4 1.7.5.6.1 1.1.3 1.6.4.5.1 1 .2 1.4.3.4.1.8.1 1.1.2.6.1.9.2.9.2h-2c-.4 0-.9 0-1.4-.1-.5 0-1.1-.1-1.7-.1-.6 0-1.2-.2-1.9-.2-.6-.1-1.3-.2-2-.4s-1.3-.3-2-.5-1.3-.4-2-.6c-.7-.2-1.3-.5-1.9-.8-.6-.3-1.2-.6-1.7-.9-.6-.3-1.1-.6-1.5-.9-.5-.3-.9-.6-1.2-.9-.4-.3-.7-.6-1-.8l-.2-.2-.1-.1-.2-.2-.2-.2 2.7-2.4zM193.8 202.2s0 .6-.1 1.5c-.1 1-.3 2.4-.8 4-.4 1.6-1 3.5-1.8 5.4-.4 1-.9 2-1.4 2.9-.5 1-1.1 2-1.7 2.9-.3.5-.6.9-.9 1.4-.3.5-.7.9-1 1.4-.7.9-1.4 1.7-2.1 2.5-.7.8-1.5 1.5-2.3 2.1-.8.6-1.5 1.2-2.2 1.6-.4.2-.7.4-1.1.6-.3.2-.7.3-1 .5-.6.3-1.2.5-1.6.7-.5.2-.9.3-1.1.3-.3.1-.4.1-.4.1l.3-.3c.2-.2.5-.4.8-.8.3-.3.8-.7 1.2-1.2l.7-.7c.2-.3.5-.5.8-.8.5-.6 1.1-1.2 1.7-1.9.6-.7 1.2-1.4 1.8-2.2l.9-1.2c.3-.4.6-.8.9-1.3.6-.9 1.2-1.7 1.7-2.6.3-.4.6-.9.8-1.3.3-.5.6-.9.8-1.3.3-.4.5-.9.8-1.3.3-.4.5-.9.8-1.3 1-1.8 1.9-3.4 2.7-4.8.8-1.4 1.5-2.6 2-3.4.2-.4.4-.7.6-1 .2-.3.2-.5.2-.5z"/><path fill="#162636" d="M173.5 236.9s.2-.5.7-1.4c.5-.9 1.2-2.2 2-3.6.9-1.5 2-3.1 3.2-4.9.6-.9 1.3-1.8 1.9-2.7l2.1-2.7c.7-.9 1.4-1.8 2.2-2.6.7-.9 1.4-1.7 2.2-2.5 1.4-1.6 2.8-3 4.1-4.2 1.2-1.2 2.3-2.2 3.1-2.8.8-.7 1.3-1 1.3-1s-.2.5-.7 1.4c-.5.9-1.2 2.2-2 3.6-.9 1.5-2 3.1-3.2 4.9-.6.9-1.3 1.8-1.9 2.7l-2.1 2.7c-.7.9-1.4 1.8-2.2 2.6-.7.9-1.4 1.7-2.2 2.5-1.4 1.6-2.8 3-4.1 4.2-1.2 1.2-2.3 2.2-3.1 2.8-.8.7-1.3 1-1.3 1zM213 191.3s-.1.4-.4 1c-.2.7-.6 1.6-1 2.6-.4 1.1-.9 2.3-1.5 3.6-.6 1.3-1.2 2.7-1.9 4.1-.7 1.4-1.4 2.7-2.1 4-.3.6-.7 1.2-1 1.8-.3.6-.7 1.1-1 1.6-.3.5-.6.9-.9 1.3-.3.4-.6.7-.8.9-.5.5-.8.7-.8.7s.2-.3.6-.8c.2-.3.4-.6.6-1 .2-.4.5-.9.7-1.4.2-.5.5-1.1.8-1.7.2-.6.5-1.2.8-1.9.5-1.3 1-2.7 1.5-4.2.5-1.4.9-2.9 1.3-4.2.4-1.4.7-2.6 1-3.7.3-1.1.5-2 .6-2.6.1-.6.2-1 .2-1l3.3.9zM155.6 113.4s.6.2 1.6.5 2.4.7 4.1 1.2c1.7.5 3.7 1 5.8 1.4.5.1 1.1.2 1.6.3.3.1.5.1.8.1.3 0 .5.1.8.1 1.1.1 2.2.2 3.3.2H177c.6 0 1.1 0 1.7-.1.6 0 1.1-.1 1.6-.1 1.1-.1 2.1-.2 3.1-.3 1-.1 1.9-.3 2.7-.5.8-.2 1.6-.4 2.3-.7l.9-.3c.3-.1.6-.2.8-.3.5-.2.9-.4 1.1-.5.3-.1.4-.2.4-.2l-.3.3c-.2.2-.4.6-.8.9-.2.2-.4.4-.7.6-.2.2-.5.4-.8.7-.6.4-1.3.9-2.2 1.4-.4.2-.9.4-1.3.6l-1.5.6c-1 .3-2.1.6-3.3.9-1.1.2-2.3.4-3.6.5-.6 0-1.2.1-1.8.1h-1.8c-.6 0-1.3 0-1.9-.1-.3 0-.6-.1-.9-.1-.3 0-.6-.1-.9-.1-1.2-.2-2.4-.5-3.5-.8-2.2-.7-4.2-1.6-5.8-2.5-.8-.4-1.5-.9-2.1-1.3-.6-.4-1.1-.8-1.6-1.1-.4-.3-.7-.6-1-.8-.1-.5-.2-.6-.2-.6zM129.8 62.8l-3.6-2.5c2.5-7.1 8.9-10.9 11.9-13.2l.4 4.1c-3.7 2.8-6.7 6.1-8.7 11.6z"/><path fill="#162636" d="M127.7 57.5l-1.7-6.4c.1-.3 2.9-4.5 11.3-9.7l.3 3.8c-7.4 4.6-9.9 12.2-9.9 12.3z"/><path fill="none" d="M194 98.5l-1-3.6"/><path fill="#162636" d="M200.6 57.4l-2.1-1.5s0-1.7 2.6-7.4c-9.1-.6-13.8-7.2-14-7.5l1.1-.8c.2.3 6.6 5.4 15.5 4.8l2.9-.2-1.2 2.7c-3.6 8.1-4.6 9.6-4.8 9.9z"/><g fill="#162636"><path d="M209.2 67.8c-1.4-4.7-3.6-7.9-5.7-10.9-.5-.7-.9-1.3-1.4-2-.9 1.9-1.3 2.4-1.4 2.6l-2.1-1.5c.7 1 1.3 2 2 3 2.1 3 4 5.8 5.3 10 2.8 9.3-1.2 22.6-7.4 24.5-3.2 1-7.9-1.2-12.1-3.1-4.5-2.1-9.4-4.2-11.9-2.7s-3.8 5.4-3.8 5.4 3.2-2.4 5-3.1c1.8-.7 5.8 1.9 9.3 3.6 3.3 1.5 6.8 3.2 10.2 3.6 1.5.2 3 .1 4.4-.3 8.5-3 12.6-18.8 9.6-29.1zM197.1 44.5c-.2-.6-.3-1.1-.5-1.7-3.2-12.9-12.6-26.6-13-27.2l-2.9 2c.1.1 9.2 13.4 12.4 25.6 1.2.5 2.5.9 4 1.3z"/></g><ellipse transform="rotate(-63 195.237 54.87)" fill="#162636" cx="195.2" cy="54.9" rx="2.5" ry="1.2"/><path fill="#162636" d="M136.4 72.5c-2-.6-4.5-1.4-6-3.4-1.1-1.5-1.5-3.6-1.1-5.8.6-3.2 2.9-6.1 6.3-8.2 2.9-1.7 6.4-1.6 9.2 1.1 1.8 1.7 2.5 4.2 2.5 4.2s-5.4-5.1-9.9-2.3c-2.5 1.5-4.2 3.7-4.6 5.9-.2 1.2-.1 2.3.5 3 .8 1.1 2.6 1.6 4.2 2.1 1.3.4 2.5.8 3.5 1.5-.1.1-3.6 2.2-4.6 1.9z"/><path fill="#162636" d="M135.5 65s-.1-.2-.1-.5-.1-.8 0-1.3.3-1.1.6-1.7c.3-.6.9-1.2 1.6-1.6.3-.2.7-.4 1.1-.5l.3-.1H139.9c.4 0 .7 0 1 .1.3.1.6.2.8.3.5.2.8.5 1.1.7.2.2.3.4.3.4s-.2 0-.5.1c-.1 0-.3 0-.5.1-.2 0-.4 0-.6.1-.1 0-.2 0-.3.1-.1 0-.2 0-.4.1-.2 0-.5.1-.7.2-.5.1-.9.3-1.3.6-.2.1-.4.3-.6.4-.2.2-.4.3-.6.5-.4.4-.7.7-1 1.1-.7.4-1.1.9-1.1.9z"/><g fill="#162636"><path d="M182.6 40.9s.2-3.4-3.5-4c-3.7-.7-14.5 4.7-18.6 12 0 0 12-11.6 17.5-9 2.2 1 2.3 3 2.3 3l2.3-2z"/><path d="M175.7 39.6c4 3 .6 5.7-.9 6.7s-3.4 2.1-6.2.8c-2.8-1.3-.5-4-.5-4l3.3-2.6 3-1.5 1.3.6z"/></g><path fill="#162636" d="M187.8 74.4c-1-.1-2.2-1.3-2.9-1.8l1-1.9c.6.5 2.7.3 4.3 0 1.5-.2 3.4-.8 5.5-1.7 3.7-1.5 6.5-2.7 7.3-2.6l.2 1.4c-2.8 1-9.7 7.3-15.4 6.6zM119.5 94.1l-.3-2.2c-.2-1.6-.8-4.7-2.7-8.1l-.8-1.5 1.1-1.3c1.4-1.7 6.6-7.3 12.1-7.2h1l.7.7c3 3.2 6.1 5.1 8.3 6.5 1.5.9 2.6 1.7 3.4 2.5 1.8 2-.4 5.6-1.4 7.1l-.3.5-.5.3c-3.5 1.9-12 2.4-18.4 2.6l-2.2.1zm2.1-11c1.1 2.2 1.7 4.3 2.1 6.1 7.4-.3 11.8-1 13.7-1.7.3-.4.5-.8.6-1.1-.5-.3-1.1-.7-1.6-1-2.2-1.4-5.2-3.3-8.4-6.4-2 .3-4.4 2.1-6.4 4.1z"/><path fill="#162636" d="M184.3 11.8c-.1-3.1-1.1-5.7-3.1-7.6-3.3-3.2-9.1-4.5-18.1-4.2-15.2.5-36.4 7.4-46.3 24.9-11.1 19.7 6.4 45.2 11.6 50.9 3.4 3.7 6.8 5.8 9.2 7.4 1.3.8 2.4 1.5 2.9 2.1.4.4-.4 2.6-1.8 4.3l1.4 1.1 1.4 1.1c.7-1 4.3-5.9 1.6-8.8-.3-.4-.8-.7-1.2-1.1-.6-2.7-4-8.4-9.8-16.3-8.9-12.3-2.3-21.4-1.9-21.9l4.2-4.4-1.3-1c-.1-.2-.8-1.2-1-3.6 9-9.8 22.6-8.1 22.8-8.1l1.8.1v-1.9c0-.4.3-9.7 9.2-10.8 1.9-.2 5.1-.3 5.9 1.6.6 1.5 1.2 7-2.8 7.5-2.5.3-3.3-3.3-1-6.1l-.6-1.3-1.4.4c-1.5.9-3.4 2.9-3 6.5.4 3.1 2.5 6.6 7.3 6.8 3.2.1 6.3-1.1 8.8-3.6 3.4-3.5 5.3-8.7 5.2-14zm-34.9 8.3c-.4-3.6 2-9.6 2-9.6s2.9-1.5 6.4-1.8c-4.5 1.4-8.4 11.4-8.4 11.4zM59 103.5c.1.1.1.1 0 0 .2.1.3.3.5.4.2.1.5.3.8.5.3.2.7.4 1.1.6.4.2.9.4 1.4.6.5.2 1 .4 1.6.7.5.2 1.1.4 1.7.6l1.8.6c.6.2 1.2.4 1.8.5.6.2 1.2.3 1.8.5.6.2 1.2.3 1.7.4.5.1 1.1.2 1.5.4.5.1.9.2 1.3.3.4.1.7.1 1 .2.6.1.9.2.9.2H76c-.4 0-.8 0-1.3-.1-.5 0-1-.1-1.6-.1-.6 0-1.2-.1-1.8-.1-.6-.1-1.2-.1-1.9-.2-.6-.1-1.3-.1-1.9-.2-.7-.1-1.3-.2-1.9-.3-.6-.1-1.3-.2-1.9-.4-.6-.1-1.2-.3-1.8-.4-.6-.1-1.1-.3-1.6-.4-.5-.2-.9-.3-1.3-.5s-.8-.3-1.1-.4c-.3-.1-.5-.3-.7-.4-.2-.1-.3-.2-.3-.2l2.1-2.8z"/><path fill="#162636" d="M59.1 100.6l.1.1c.1.1.2.1.4.2.4.2.9.5 1.5.8 1.3.7 3 1.5 4.8 2.2.9.4 1.8.7 2.7 1 .4.2.9.3 1.3.4.4.1.8.2 1.1.3.7.2 1.3.3 1.7.4.4.1.7.2.7.2h-2.5c-.4 0-.8 0-1.2-.1-.4 0-.9-.1-1.3-.1-.9-.1-1.9-.2-2.9-.4-2-.3-4-.8-5.4-1.2-.7-.2-1.4-.4-1.8-.5-.2-.1-.4-.1-.5-.2-.1 0-.2-.1-.2-.1l1.5-3zM106.8 272.1c-.1 0-.1 0-.1.1-.1 0-.2.1-.5.2-.2.1-.5.2-.9.3-.3.1-.7.2-1.2.3-.4.1-.9.2-1.5.3-.5.1-1.1.2-1.7.3-.6.1-1.2.1-1.8.2-.6.1-1.3.1-1.9.1-.6.1-1.3.1-1.9.1H86.9s.3.1.9.2c.3.1.6.1 1 .2s.8.2 1.3.3c.5.1 1 .2 1.6.3.6.1 1.1.2 1.7.3.6.1 1.2.2 1.9.3.6.1 1.3.2 1.9.2.7.1 1.3.1 2 .2.7 0 1.3.1 1.9.1h1.8c.6 0 1.1 0 1.6-.1.5 0 1-.1 1.4-.1.4-.1.8-.1 1.1-.2.3-.1.6-.1.8-.2.2-.1.3-.1.3-.1l-1.3-3.3z"/><path fill="#162636" d="M107.4 269.2s-.1 0-.2.1c-.1 0-.3.1-.4.1-.4.1-1 .3-1.7.4-1.4.3-3.3.7-5.2 1-1 .1-1.9.2-2.9.3-.5 0-.9.1-1.3.1H92s.2.1.7.2c.4.1 1 .2 1.8.4.4.1.8.2 1.2.2.4.1.9.2 1.3.2.9.1 1.9.3 2.9.3 2 .2 4 .2 5.6.2.8 0 1.4 0 1.9-.1h.7l-.7-3.4z"/><path fill="#162636" d="M107.8 278.9l-1.5-3.2S87 280 72.6 278.3c-22.5-2.8-30.5-10.1-32-11.6.4-2.5.9-5.4 1.5-8.9 2.4-13.3 5.9-33.5 10-66.6 3.1-25.3 5.2-50.8 6.5-69.6 2.5.9 7.1 2.2 13.9 3.1 1.4.2 2.9.3 4.6.5l5.9-9.7c-14.5-1.8-21.3-4.5-23.6-5.5.6-9.5.9-15.7.9-16.6.2-.8 1.5-6.9 5.7-12.5C71.9 73 80.5 69.7 91.6 71c26.5 3.3 26.7 21.7 26.7 22.5h3.5c0-.2 0-5.8-3.7-11.8-6.2-9.9-17.6-13.2-26.1-14.3-15.5-1.9-24.3 5.1-29 11.3-5 6.7-6.2 13.7-6.3 14v.2c0 .5-2.3 49.8-8.2 97.8-4.1 33-7.6 53.1-9.9 66.4-1.1 6.2-1.9 10.7-2.3 14.2-1.3 10.8 0 21.2 0 21.7l.1.6.4.4c.1.1 1.2 1.1 3.9 2.6.7 2.7 3 10.6 6.2 15.9l.3.5.6.2c4.7 1.7 13.8 3.4 20.4 4.2 6.6.8 15.8 1.4 20.8.9l.6-.1.4-.4c4-3.8 7.6-9.9 9.4-12.9 3.4-.7 4.6-1.6 4.9-1.8l.5-.4 4.7-18c-.1 0-2.1-5.6-1.7-5.8zM88 314.8c-.5 0-1.1.1-1.7.1l3.9-5.5c.4-.6.3-1.4-.3-1.8-.6-.4-1.4-.3-1.8.3l-5 7.1c-1 0-2 0-3-.1l2.5-5.7c.3-.7 0-1.4-.7-1.7-.7-.3-1.4 0-1.7.7l-2.9 6.6c-1.1-.1-2.3-.2-3.4-.2l1.3-6.5c.1-.7-.3-1.4-1-1.5-.7-.1-1.4.3-1.5 1l-1.4 6.8c-.9-.1-1.8-.2-2.6-.3-.8-.1-1.7-.2-2.6-.4l.2-7.4c0-.7-.6-1.3-1.3-1.3-.7 0-1.3.6-1.3 1.3l-.2 7.1c-1.2-.2-2.4-.4-3.7-.6l-.9-7.9c-.1-.7-.7-1.2-1.5-1.2-.7.1-1.2.7-1.2 1.5l.8 6.8c-1.1-.2-2.2-.5-3.2-.7l-2.6-8.5c-.2-.7-.9-1.1-1.6-.9-.7.2-1.1.9-.9 1.6l2.1 7c-.4-.1-.8-.2-1.2-.4-2.1-3.5-3.7-8.3-4.7-11.6 5.3 2.1 13.5 4.5 26.2 6 11.2 1.4 18.8 1.4 23.8.9-1.7 3-4.2 6.7-6.9 9.4zm13.7-14.2c-.8.4-2.1.8-3.9 1.1l-.4-.2s-.1.1-.2.3c-4.8.7-12.9.9-25.6-.7-19.1-2.3-28.9-6.8-31.8-9.1-.2-1.4-.5-4.9-.5-9.4C44 285.4 54.2 290 71 292c16.6 2 28.2.2 33.4-1.4l-2.7 10z"/><path fill="#162636" d="M118 83.6l-2.8-2.1c.3-.4 7.2-9.5 14.8-8.6l-.4 3.5c-4.8-.6-10 5-11.6 7.2z"/><g fill="#162636"><path d="M264.3 179.5c-4.1-.5-7.9 2.4-8.4 6.6-.3 2.5.7 4.9 2.4 6.5l-1.7 14c3 0 6.4.2 8.8.6l.2-1.7.4-3.5 1-8.2c2.1-1.1 3.6-3.2 3.9-5.7.5-4.3-2.4-8.1-6.6-8.6zM262.3 232c-2.3-.1-4.4-.2-6.3-.4-.9-.1-1.7-.2-2.5-.4l-1.1 9.2c-10.2 7.5-37.4 3.7-37.4 3.7l3 10.1c28.1-.8 35.6-5.3 42.9-12l1.4-10.2z"/></g><g fill="#162636"><path d="M162.5 206.4c.5-4.1-2.4-7.9-6.6-8.4-4.1-.5-7.9 2.4-8.4 6.6-.3 2.5.7 4.9 2.4 6.5l-.4 3.2c.4.1.7.2 1 .4 1.3.8 1.8 2.1 1.5 3.8-.3 1.9-2.2 4.8-3.7 5.3l-.3 2.8c3.1.1 6.8 0 8-.3.3-.1.6-.1.9 0l1.7-14.1c2.1-1.2 3.6-3.3 3.9-5.8zM143.8 261l8.7 1.1 1.4-11c-2.6.3-4.7.5-8.9.5l-1.2 9.4z"/></g><g fill="#162636"><path d="M254.7 204.9l2.1.1.9-7.5z"/><path d="M272 203.5c-1.7-1.7-3.7-1.6-4.4-1.6l-1.7-.1-.4 3.5 2.3.1h.2s.8-.1 1.6.6c.9.9 2.3 3.3 1.4 10.4-1.5 12-1.8 12.3-5.6 12.1-.6 0-1.3 0-2-.1-1.9-.1-7.6.3-9.9-.5-1.8-.6-.7-2.6 0-2.6 1.7 0 6.7-.2 11.8.4l.2-1.6c-8.2-.9-10-.8-12-1-2-.2-1.2-2.9.7-3 1.9 0 6.5-.6 11.5-.2l.1-1.7c-8.4-.6-11 .5-12.8-.1-1.8-.5-1.2-3.3.8-3.3s6.6-.3 12.2.1l.1-1.8c-9.1-.7-10.1-.6-12.4-.8-2.3-.1-2.9-2.9-.3-3.5 2.6-.6 7.6-.3 13.4.2l.1-1.8c-3.6-1-13.1-1.2-15.1-.3-2.1.9-3.5 5-.7 6.9-1.5.9-1.9 4.3-.9 5.3-4.6-2.3-13.9-3.8-22.4-4.3-1.3-.1-2.6-.2-3.9-.2-9.6-.6-14.3-3.7-14.4-3.7l-1.9 2.9c.2.1 5.5 3.6 16.1 4.3 1.3.1 2.6.2 3.9.2 8.5.5 18.2 1.1 21.1 3.7 0 0 .5 1.7 1 2.5-.3.6-.5 1.2-.5 1.9 0 .9.3 2.5 2.3 3.6 1.1.7 2.8 1.1 4.9 1.3 2.1.3 4.6.4 7.3.5.7 0 1.4 0 2 .1 7.3.3 7.9-3.9 9.3-15.2.3-6.4-.5-10.9-3-13.2zM258.3 192.6c-.6-.5-1.1-1.2-1.5-1.9h-.3c-2.1.4-3.7 2.8-5.5 5.6-.6 1-1.4 2.8-2 3.6-9.9-4.7-25.6-9.1-32.1-10.1 3.5-7.1 12.5-27.2 16.9-41l-4.4.6c-5.3 16.3-15.6 39.3-16.7 40.9l-1.9 2.8h3.3c1.9 0 23.1 4.8 34.5 10.7l1.1.6.9-.8c1.1-1 2.2-3.4 3.3-5.1.8-1.2 2.2-3.4 3-4 .5.1.8.3 1 .6l.4-2.5z"/></g><path fill="#162636" d="M156.7 189.1c-6.7-.8-8-4.9-8.3-6.8-.6-4.2 2.5-9.4 6.2-10.5 2.3-.7 3.9 0 4.8.7 2.4 1.8 2.5 5.2 2.5 5.6 0 1.1-.8 2-1.9 2-1.1 0-2-.8-2-1.9 0-.8-.3-2.1-.9-2.5-.3-.2-.7-.2-1.4 0-1.5.4-3.7 3.5-3.4 6.1.4 2.9 3.9 3.5 6.7 3.5 2.8 0 4.7-.6 5.7-1.8 2-2.3 1.3-7.5.5-12.5-.3-2.2-.7-4.6-.8-6.8-.3-4.8 2.3-12.2 4.1-17.5.1-.2.1-.4.2-.6-5 3.7-9.6 3.8-12.1 3.4-.2 1-.5 2.7-.2 4.9.1 1.1-.7 2.1-1.7 2.2-1.1.1-2.1-.7-2.2-1.7-.6-5.5 1-8.4 1.2-8.7.5-.8 1.5-1.2 2.4-.8.2.1 6.4 2.3 12.9-4.8.8-.9 2.4-2.6 4.1-1.6 1.9 1.1 1.2 3.1-.9 9-1.8 5.1-4.2 12-3.9 16 .1 2.1.5 4.3.8 6.5.9 6.1 1.8 12-1.4 15.7-1.8 2.1-4.7 3.2-8.7 3.1-.7-.1-1.5-.1-2.3-.2zM182.3 188.9c-1.5-.2-2.9-.9-4.1-2.1-3-3.1-3.5-8.7-2.3-12.1.7-2.1 2.1-3.3 3.9-3.6 1.1-.1 2.1.6 2.2 1.7.1 1.1-.6 2.1-1.7 2.2-.2 0-.4.4-.7 1-.8 2.2-.3 6.2 1.5 8 .9.9 1.9 1.1 3.2.7 2.8-.8 3.6-4.1 3.8-6 .7-5.5-1.8-13-7-16.1-5.8-3.4-6.6-9.1-5.5-13.4 1.4-5.2 5.5-8.8 10-8.9 2.9 0 4.6 1.3 5.5 2.4 2.9 3.7 1.4 10 1.2 10.7-.3 1.1-1.3 1.7-2.4 1.4-1.1-.3-1.7-1.3-1.4-2.4.3-1.3.9-5.5-.5-7.3-.3-.4-.9-.9-2.4-.9-2.7 0-5.3 2.5-6.2 6-.4 1.4-1.2 6.1 3.7 9 6.9 4 9.7 13.3 8.9 19.9-.6 4.8-3 8.2-6.6 9.3-1.1.5-2.1.6-3.1.5zM146.2 85s3.8-2.2 10.7 2.6c-3.6-.1-9.3-.3-10.7-2.6z"/><g fill="#162636"><path d="M193.2 43.2h-.1.1zM193.2 43.2c.2.1.5.2.8.3-.3-.1-.5-.2-.8-.3z"/></g><path fill="#162636" d="M159 227.4c-.8-.9-1.9-1.4-3-1.1-1.5.3-7.5.4-10.5.1.9-1.1 2.3-2.3 2.9-2.7 1.5-.6 3.3-3.5 3.7-5.3.3-1.6-.3-3-1.5-3.8-1.1-.7-2.5-.7-4.3-.2-3 .9-7.1 3.6-8.7 6.7-.9 1.9-3.2 4-4.9 5.4-3.2-4.7-12.8-18.7-19.2-25.8-5.6-6.2-13.3-10.4-17.2-12.3 2.8-2.4 6.6-5.8 7.3-7.4 0-.1.2-.4.4-.7 1.4-2.3 5-8.3 6.2-15.5 1.5-9.1-1.4-16.9-8.6-22.7-18.2-14.5-27.4-7.9-27.8-7.6l-.1.1-.1.1c-.4.4-8.8 9.6-9.5 29.2-.7 18.8-.1 22.5 0 22.9.1.4.7 3.2 2.9 4.3 1.8 3.9 11 22.3 26.1 32.9 10.7 7.5 23 14.2 30.3 18.3 2.9 1.6 5.4 3 5.9 3.4l.1.1c.3.2 7.6 4.9 13.5 5.6.5.1.9.1 1.4.1 4.8 0 6.9-.2 9.8-.5 1.3-.2 2.3-1 2.8-2.2.5-1.2.4-2.6-.1-3.9.5-.4.8-.9 1-1.5.5-1.2.4-2.6-.1-3.9.5-.4.8-.9 1-1.5.5-1.2.4-2.6-.1-3.9.5-.4.8-.9 1-1.5.9-1.5.6-3.8-.6-5.2zm-11.8-6.9c.1 0 .2-.1.3-.1-.1 0-.2 0-.3.1zm6.6 27.7c-1.5.4-4.8.6-9.4.2-4.1-.3-10.6-4.1-12.9-5.6-.8-.6-2.6-1.6-6.3-3.6-7.2-4-19.4-10.7-30-18.1-14-9.8-23.6-28-25.2-32l-.3-.8-.9-.2c-.5-.1-1-1.2-1.2-1.9-.1-.4-.6-4.3.1-22.1.6-16.9 7.4-25.6 8.5-26.8 1-.6 8.6-4.2 23.4 7.6 6.2 4.9 8.6 11.4 7.3 19.3-1.1 6.5-4.5 12.1-5.7 14.2-.3.5-.5.8-.6 1-.5 1-4.8 4.9-8.6 8l-2.2 1.9 2.7 1.1c.1 0 11.3 4.7 18.6 12.6 7.4 8.1 19.2 26 19.9 26.9.7.9 1.7 1 2.5.5.7-.5 5.5-3.9 7.4-7.8.9-1.8 3.7-4 6.2-4.8.9-.3 1.5-.3 1.7-.3 0 .7-1 2.4-1.6 2.9-1.6.7-4.4 3.7-5.3 5-.3.6-.8 1.4-.5 2.4.4 1.6 2.2 2.1 7.7 2.2 2.6 0 6.5-.2 7.4-.3s1.8 2.1-.1 2.8c-1.3.4-5.9 1.4-9.4 1.1l-.1 1.3c4 .4 7.7.4 8.7.2 1.3-.2 1.7 1.9.1 2.5-1.1.4-5.7 1.3-9.2.9l-.1 1.3c2.8.5 6.9.8 8.5.6s1.5 2.4.1 2.8c-1.3.4-5.9 1-9.4.6l-.1 1.3c3.2.5 7 .7 8.2.6 1.4 0 1.7 2.1.1 2.5z"/><path fill="#162636" d="M78.6 124.5s10.3-3.1 23.7 8.2c-17.1-10.2-29.4-2.2-29.4-2.2l5.7-6zM218.9 148.4s5.6.3 11.7-6.3c-3 5.6-3.8 8.4-11.6 10.5-1.6.5-.1-4.2-.1-4.2z"/><path fill="#FFF" d="M153.8 248.2c-1.5.4-4.8.6-9.4.2-4.1-.3-10.6-4.1-12.9-5.6-.8-.6-2.6-1.6-6.3-3.6-7.2-4-19.4-10.7-30-18.1-14-9.8-23.6-28-25.2-32l-.3-.8-.9-.2c-.5-.1-1-1.2-1.2-1.9-.1-.4-.6-4.3.1-22.1.6-16.9 7.4-25.6 8.5-26.8 1-.6 8.6-4.2 23.4 7.6 6.2 4.9 8.6 11.4 7.3 19.3-1.1 6.5-4.5 12.1-5.7 14.2-.3.5-.5.8-.6 1-.5 1-4.8 4.9-8.6 8l-2.2 1.9 2.7 1.1c.1 0 11.3 4.7 18.6 12.6 7.4 8.1 19.2 26 19.9 26.9.7.9 1.7 1 2.5.5.7-.5 5.5-3.9 7.4-7.8.9-1.8 3.7-4 6.2-4.8.9-.3 1.5-.3 1.7-.3 0 .7-1 2.4-1.6 2.9-1.6.7-4.4 3.7-5.3 5-.3.6-.8 1.4-.5 2.4.4 1.6 2.2 2.1 7.7 2.2 2.6 0 6.5-.2 7.4-.3s1.8 2.1-.1 2.8c-1.3.4-5.9 1.4-9.4 1.1l-.1 1.3c4 .4 7.7.4 8.7.2 1.3-.2 1.7 1.9.1 2.5-1.1.4-5.7 1.3-9.2.9l-.1 1.3c2.8.5 6.9.8 8.5.6s1.5 2.4.1 2.8c-1.3.4-5.9 1-9.4.6l-.1 1.3c3.2.5 7 .7 8.2.6 1.4 0 1.7 2.1.1 2.5zM205.8 68.8c-1.2-4.2-3.2-7-5.3-10-.7-.9-1.3-1.9-2-3 0 0 0-1.7 2.6-7.4-9.1-.6-13.8-7.2-14-7.5l1.1-.8c.1.1 1.9 1.6 4.9 2.9-2.3-8.8-7.6-18.2-10.5-22.7-.9 2-2.1 3.8-3.6 5.2-2.5 2.5-5.6 3.7-8.8 3.6-4.9-.2-7-3.6-7.3-6.8-.4-3.6 1.5-5.5 3-6.5l1.4-.4.6 1.3c-2.2 2.8-1.5 6.4 1 6.1 4-.5 3.5-6 2.8-7.5-.8-2-4-1.9-5.9-1.6-8.8 1.1-9.1 10.4-9.2 10.8v1.9l-1.8-.1c-.2 0-13.8-1.7-22.8 8.1.2 2.4.8 3.4 1 3.6l1.3 1-4.2 4.4c-.2.2-1.4 2-2.2 4.9 1.7-1.8 4.6-4.3 9.2-7.1l.3 3.8c-5.8 3.6-8.6 9.2-9.5 11.4 3-4.8 7.7-7.6 10.2-9.5l.4 4.1c-2.6 1.9-4.8 4-6.6 6.9 1-1.1 2.2-2.1 3.6-3 2.9-1.7 6.4-1.6 9.2 1.1 1.8 1.7 2.5 4.2 2.5 4.2s-5.4-5.1-9.9-2.3c-2.5 1.5-4.2 3.7-4.6 5.9-.2 1.2-.1 2.3.5 3 .8 1.1 2.6 1.6 4.2 2.1 1.3.4 2.5.8 3.5 1.5 0 0-2.6 1.6-3.9 1.8 2.8 4.3 4.5 7.5 4.9 9.3.5.4.9.7 1.2 1.1 2.2 2.4.2 6.3-1 8 2.5 6.4 13.2 18.4 29.1 20.4 7.9 1 13.9-.2 17.4-3.4 3.2-2.9 3.7-6.7 3.7-9.4l-.1-2.2c-2.5-.7-5-1.9-7.4-3-3.5-1.6-7.4-4.3-9.3-3.6-1.8.7-5 3.1-5 3.1s1.4-3.9 3.8-5.4c2.5-1.5 7.5.6 11.9 2.7 4.1 1.9 8.8 4.2 12.1 3.1 6.3-1.6 10.3-14.8 7.5-24.1zm-63.2-8c-.1 0-.3 0-.5.1-.2 0-.4 0-.6.1-.1 0-.2 0-.3.1-.1 0-.2 0-.4.1-.2 0-.5.1-.7.2-.5.1-.9.3-1.3.6-.2.1-.4.3-.6.4-.2.2-.4.3-.6.5-.4.4-.7.7-1 1.1-.6.8-1.1 1.3-1.1 1.3s-.1-.2-.1-.5-.1-.8 0-1.3.3-1.1.6-1.7c.3-.6.9-1.2 1.6-1.6.3-.2.7-.4 1.1-.5l.3-.1H139.9c.4 0 .7 0 1 .1.3.1.6.2.8.3.5.2.8.5 1.1.7.2.2.3.4.3.4s-.2-.3-.5-.3zm3.6 24.2s3.8-2.2 10.7 2.6c-3.6-.1-9.3-.3-10.7-2.6zm34.2-42.2s-.2-1.9-2.3-3c-.7-.3-1.6-.4-2.6-.3l.2.1c4 3 .6 5.7-.9 6.7s-3.4 2.1-6.2.8c-2.8-1.3-.5-4-.5-4l1.8-1.5c-4.8 2.8-9.4 7.2-9.4 7.2 4.2-7.2 14.9-12.6 18.6-12 3.7.7 3.5 4 3.5 4l-2.2 2zm13.8 11.5c.6-1.2 1.6-2 2.2-1.7.6.3.6 1.6-.1 2.8s-1.6 2-2.2 1.7c-.6-.3-.6-1.5.1-2.8zm-6.4 20.1c-1-.1-2.2-1.3-2.9-1.8l1-1.9c.6.5 2.7.3 4.3 0 1.5-.2 3.4-.8 5.5-1.7 3.7-1.5 6.5-2.7 7.3-2.6l.2 1.4c-2.8 1-9.7 7.3-15.4 6.6z"/><path fill="#162636" d="M218.2 156.5l12-4.2-2.1 4.1s-5.6 3.1-8.9 3.9c-1-1.9-1-3.8-1-3.8z"/><path fill="#5596C0" d="M47.3 259.3c7.7 7.1 17.9 12.1 30.5 14.9 3.9.9 7.9 1.5 11.7 2 17.6 2.2 32.1-1.5 42.6-5.9-.2.1-.5.1-.7.2-8.8 2.8-23.2 5.8-41.8 3.5-3.7-.5-7.5-1.1-11.3-1.9-31.3-7-39.9-25.8-42.3-36.4-1.6-7-1.3-14.6.7-21.9 1.9-7.1 5.5-13.8 10.3-19.3.2-.6.4-2 .4-3.7-11.7 12-17.1 29.4-13.5 45.4 1.9 8.8 6.6 16.8 13.4 23.1z"/><path fill="#162636" d="M47.4 190.8c0 1.7-.2 3.1-.4 3.7-4.8 5.6-8.4 12.2-10.3 19.3-2 7.3-2.2 14.8-.7 21.9 2.4 10.6 11 29.4 42.3 36.3 3.8.8 7.6 1.5 11.3 1.9 18.6 2.3 33-.6 41.8-3.5.2-.1.5-.1.7-.2-10.5 4.5-25 8.1-42.6 5.9-3.8-.5-7.8-1.2-11.7-2-12.6-2.8-22.8-7.8-30.5-14.9-6.8-6.3-11.5-14.3-13.4-23.1-3.6-15.8 1.8-33.3 13.5-45.3m3.2-7.5c-16.4 12.6-24.5 34.2-20.2 53.7 2.1 9.5 7.1 18.2 14.5 25 8.1 7.5 18.9 12.8 32.1 15.7 4.2.9 8.2 1.6 12 2.1 38.2 4.7 62.4-16.8 63.4-17.6 0 0-2.7-1.2-5.2-1.5-1.3-.2-2.6-.1-3.4.4-3 1.8-7.4 4.2-13.5 6.2-9 2.9-22.7 5.5-40.3 3.3-3.5-.4-7.1-1-10.9-1.9-29.4-6.5-37.4-23.9-39.6-33.6-2.9-13.3 1.1-27.7 10.3-38.3 1.9-2.3.8-13.5.8-13.5z"/><path fill="#162636" d="M107.8 278.9l.8 6.3 7.8-7.2z"/></svg>