<svg xmlns="http://www.w3.org/2000/svg" viewBox="0 0 371.9 230"><g fill="#162636"><path d="M361.7 37.8C354.2 26 202.8 0 185.9 0 169.1 0 17.7 26 10.2 37.8 2.8 49.5 0 56.8 0 115s2.8 65.5 10.2 77.2S169.1 230 185.9 230c16.8 0 168.3-26 175.7-37.8s10.2-19.1 10.2-77.2-2.7-65.5-10.1-77.2z"/><path d="M361.7 37.8C354.2 26 202.8 0 185.9 0 169.1 0 17.7 26 10.2 37.8 2.8 49.5 0 56.8 0 115s2.8 65.5 10.2 77.2S169.1 230 185.9 230c16.8 0 168.3-26 175.7-37.8s10.2-19.1 10.2-77.2-2.7-65.5-10.1-77.2z"/><path d="M361.7 37.8C354.2 26 202.8 0 185.9 0 169.1 0 17.7 26 10.2 37.8 2.8 49.5 0 56.8 0 115s2.8 65.5 10.2 77.2S169.1 230 185.9 230c16.8 0 168.3-26 175.7-37.8s10.2-19.1 10.2-77.2-2.7-65.5-10.1-77.2z"/></g></svg>