<?xml version="1.0" encoding="utf-8"?>
<!-- Generator: Adobe Illustrator 18.0.0, SVG Export Plug-In . SVG Version: 6.00 Build 0)  -->
<!DOCTYPE svg PUBLIC "-//W3C//DTD SVG 1.1//EN" "http://www.w3.org/Graphics/SVG/1.1/DTD/svg11.dtd">
<svg version="1.1" id="Layer_1" xmlns="http://www.w3.org/2000/svg" xmlns:xlink="http://www.w3.org/1999/xlink" x="0px" y="0px"
	 viewBox="0 0 371.9 230" enable-background="new 0 0 371.9 230" xml:space="preserve">
<g>
	<path fill="#162636" d="M361.7,37.8C354.2,26,202.8,0,185.9,0C169.1,0,17.7,26,10.2,37.8C2.8,49.5,0,56.8,0,115s2.8,65.5,10.2,77.2
		S169.1,230,185.9,230c16.8,0,168.3-26,175.7-37.8s10.2-19.1,10.2-77.2S369.1,49.5,361.7,37.8z"/>
	<path fill="#162636" d="M361.7,37.8C354.2,26,202.8,0,185.9,0C169.1,0,17.7,26,10.2,37.8C2.8,49.5,0,56.8,0,115s2.8,65.5,10.2,77.2
		S169.1,230,185.9,230c16.8,0,168.3-26,175.7-37.8s10.2-19.1,10.2-77.2S369.1,49.5,361.7,37.8z"/>
	<path fill="#162636" d="M361.7,37.8C354.2,26,202.8,0,185.9,0C169.1,0,17.7,26,10.2,37.8C2.8,49.5,0,56.8,0,115s2.8,65.5,10.2,77.2
		S169.1,230,185.9,230c16.8,0,168.3-26,175.7-37.8s10.2-19.1,10.2-77.2S369.1,49.5,361.7,37.8z"/>
</g>
</svg>
