<svg xmlns="http://www.w3.org/2000/svg" viewBox="0 0 300 230"><path fill="#162636" d="M22 121c-1.4 0-2.8.1-4.3.4-1.6.3-3.3.8-4.8 1.5-3.1 1.3-5.8 3.1-8 5.2-2.3 2.3-3.9 4.9-4.6 7.5-.7 2.7-.4 5.8 1.1 9.6.3.7.6 1.3.8 1.9-.1.4-.1.9-.1 1.3-.1 1.7.3 3.5 1.1 5 .6 1.1 1.1 2.4 1.6 3.5.8 1.9 2.1 3.5 3.8 4.5.1.1.1.3.2.4.4.8.7 1.4.8 2 1.1 3.8 3.9 6.6 8 7.8 2.1.6 4.2.9 6.2.9 1.1 0 2.2-.1 3.2-.3.2 0 .4-.1.5-.1 1.1-.2 4.3-.8 6.7-4l.3-.4c1.6-1.1 3.5-2.8 4.9-5.4 1.1-2.2 1.8-4.5 2-7 .2-2.2 0-4.5-.5-6.8-.1-.5-.2-.9-.3-1.4-.6-2.9-1.3-5.8-1.6-8.6-.2-2.2-.8-5.5-3-8.5-.1-.2-.2-.4-.4-.6-2.7-3.9-5.5-5.8-6.7-6.6-.1 0-.1-.1-.2-.1-1.3-.9-3-1.4-5.1-1.6-.4-.1-1-.1-1.6-.1zM288.3 121.6c-.7 0-1.4.1-2.1.3-2.4.6-3.9 1.9-4.9 3-1.7 1.7-3.2 3.3-4.8 4.9-.5.6-1.1 1.1-1.6 1.7-.8-.3-1.8-.5-2.8-.5-2.5 0-4.4 1.1-6.2 2.3l-.9.6c-.4.3-.8.6-1.1.8-.5.1-1.1.3-1.7.6l-.9.6c-1.6.5-3 1.7-3.9 3.3-.4.7-1.5 1.5-2.7 2.3l-.4.3-.2.2c-1.1.8-2.4 1.7-3.6 3-.7.8-3 3.1-2.7 6.6s2.8 5.4 3.6 6.1c.9.7 1.7 1.3 2.5 1.8.3.2.7.5 1 .7 1.9 1.3 1.9 1.7 1.8 2.9-.2 4 2.3 7.1 6.2 7.9 2.5.5 4.5.7 6.4.7h.6c2.2 0 4.3-.2 6.6-.8 4-.9 6.4-4.2 6-8.2 0-.4 0-.9.5-1.7.9-1.3 1.8-2.4 2.8-3.2 1.6-1.4 3-3 4.1-4.4.8-.9 1.5-1.7 2.1-2.4.5-.5 1.1-1 1.8-1.6 1.3-1.1 2.7-2.4 4.1-4.1.4-.5 1.1-1.4 1.6-2.8.7-2.2.4-4.7-.9-6.6.3-.6.6-1.5.8-2.5.3-2.4-.5-4.8-2.4-6.4-.6-.5-1.3-1-2-1.3-.3-.6-.7-1.1-1.2-1.6-1.3-1.6-3.4-2.5-5.5-2.5z"/><path fill="#C0C0C0" d="M276.3 60.4c-1.1-1.8-4.5-4.2-21.4-8.6-10.2-2.7-24.2-5.8-40.5-9-28.1-5.5-59.5-10.4-66.1-10.4-6.5 0-38 5-66 10.4-57.9 11.3-61 16.1-62 17.6-5.8 9.2-7.7 15.7-7.7 56.6 0 42.9 2.2 48 7.7 56.6 1.1 1.8 4.5 4.2 21.4 8.6 10.2 2.7 24.2 5.8 40.5 9 28.1 5.5 59.5 10.4 66.1 10.4 6.5 0 38-5 66.1-10.4 57.9-11.3 60.9-16 61.9-17.6 5.8-9.2 7.7-15.7 7.7-56.6 0-42.9-2.2-48-7.7-56.6z"/><path fill="#162636" d="M148.3 34.4c12.1 0 121 18.7 126.3 27.1S282 75.2 282 117s-2 47.1-7.4 55.5c-5.3 8.4-114.2 27.1-126.3 27.1S27.3 180.9 22 172.5s-7.4-13.7-7.4-55.5 2-47.1 7.4-55.5 114.3-27.1 126.3-27.1m0-5.1c-6.8 0-38 4.9-66.6 10.5-16.3 3.2-30.4 6.3-40.7 9-18.8 5-21.8 7.7-23.3 10-6.1 9.7-8.1 16.4-8.1 58.2s2 48.5 8.1 58.2c1.5 2.3 4.5 5.1 23.3 10 10.3 2.7 24.4 5.8 40.7 9 28.7 5.6 59.8 10.5 66.6 10.5s38-4.9 66.6-10.5c16.3-3.2 30.4-6.3 40.7-9 18.8-5 21.8-7.7 23.3-10 6.2-9.7 8.1-16.4 8.1-58.2s-2-48.5-8.1-58.2c-1.5-2.3-4.5-5.1-23.3-10-10.3-2.7-24.4-5.8-40.7-9-28.6-5.6-59.7-10.5-66.6-10.5z"/><path fill="#162636" d="M250.3 82.3c-2.6-4.3-6.6-8.1-11.7-11.2-3.8-2.3-7.9-4.2-12-5.7l19.8-16.5 3.3-2.8-2.8-3.3-2.2-2.5c-8.4-10-21.4-15.1-38.3-15.1-1.9 0-3.8.1-5.7.2-5.9.4-17.4 1.6-27.3 5.9-2.6 1.1-5 2.4-7.1 3.9-.3.2-.7.5-1 .7L150 46.8c-.5.3-.9.7-1.4 1v-.6l-1.2-1.2-17.5-17.3-1.2-1.2H127l-2.5-.1c-9-.2-18.1-.6-27.1-1l-2.7-.1-4.4-.2v67.3c0 .7 0 1.7-.5 2.4-1 1.3-3.7 2.1-7.5 2.3h-.6c-4.3 0-7.7-1.9-11.3-6.3L69 90.4l-2.1-2.5-2.9 1.4-1.8.8c-7.6 3.4-15.1 6.9-22.3 10.3l-2.7 1.3-4.5 2.2 2.8 4.1 1.2 1.8 3.8 4.8 13.2 14.1.1.1.1.1C66 140.6 78.2 145.3 96 145.3c1.7 0 3.4 0 5.2-.1 6.5-.3 19.1-1.6 29.5-7.1 2.8-1.5 5.3-3.2 7.5-5.1 4.3 2.7 9.2 5 14.6 6.7 8 2.6 17.4 4.1 28.6 4.8 2 .1 4 .2 6 .2 6.2 0 18.2-.7 28.5-5 12.8-5.4 29-22 30.4-23.5 5.3-5 8.1-11.6 8.1-19.1 0-5.4-1.4-10.4-4.1-14.8zM141.2 109l-.2-23.8 22.4 11.5-22.2 12.3z"/><path fill="#162636" d="M126.9 31.7l-15.1 16.1v62.9c0 2.1.1 8.5-12.1 9h-.8c-5.6 0-10.1-2.4-14.6-7.8l-1.3-1.5-1.8.8c-7.6 3.4-30.4-3-37.6.5l13.3 14.2c10.4 10 21.1 15.2 39.1 15.2 1.6 0 3.3 0 5-.1 6.2-.3 18-1.5 27.7-6.6 10.1-5.3 15.5-13.5 15.4-23.8V49l-17.2-17.3z"/><path fill="#162636" d="M215.8 91.9c-7.5-4.6-16.9-7.3-24.4-9.4-2.7-.7-4.1-1.1-6.8-1.8-.7-.2-1.6-.4-2.5-.6-4.7-1.1-12.4-3-12.4-7.2 0-.6.1-2.4 3.3-3.8 1.9-.9 4.6-1.4 7.2-1.5h.8c6.2 0 11.1 2.1 14.6 6.2l1.3 1.5 1.8-.8c7.2-3.3 14.4-6.7 21.2-10.1l3-1.5 20.7-17.3c-7.8-9-42.6 1.2-58.2 1.2-1.8 0-17.1-8.1-17.1-8.1L152 50.4c-9.6 6.7-14.4 14-14.4 23.2 0 8.2 4.2 14.9 12.5 20 6.8 4.1 15 6.5 21.6 8.4l.4.1c2.7.8 4.1 1.2 6.8 1.9.8.2 1.8.5 2.9.8 5.7 1.5 15.2 4 15.1 8.9 0 .8-.1 3.1-4.9 4.5-2.6.8-6.1 1.2-10.3 1.2h-.7c-9.9-.1-23.2-12.9-23.2-12.9l-9.4-6.2-20.7 17.3 2.3 2.8c5.5 6.9 13.6 12 24 15.4 7.7 2.4 16.7 3.9 27.5 4.6 1.9.1 3.8.2 5.8.2 7.4 0 18-.9 26.9-4.7 12.5-5.3 29.1-22.6 29.1-22.6s-18.4-15.8-27.5-21.4z"/><path fill="#FFF" d="M97.2 30.7l-2.7-.1v62.9c0 2.1.1 8.5-12.1 9h-.8c-5.6 0-10.1-2.4-14.6-7.8l-1.3-1.5-1.8.8c-7.6 3.4-15 6.8-22.2 10.3l-2.7 1.2 1.7 2.5c7.2 10.5 20 15.8 38 15.8 1.6 0 3.3 0 5-.1 6.2-.3 18-1.5 27.7-6.6 10.1-5.3 15.5-13.5 15.4-23.8V31.7l-2.5-.1c-9-.2-18.1-.5-27.1-.9zM236.5 74.7c-7.5-4.6-16.9-7.3-24.4-9.4-2.7-.7-4.1-1.1-6.8-1.8-.7-.2-1.6-.4-2.5-.6-4.7-1.1-12.4-3-12.4-7.2 0-.6.1-2.4 3.3-3.8 1.9-.9 4.6-1.4 7.2-1.5h.8c6.2 0 11.1 2.1 14.6 6.2l1.3 1.5 1.8-.8c7.2-3.3 14.4-6.7 21.2-10.1l3-1.5-2.2-2.5c-7.8-9-19.6-13.6-35.3-13.6-1.8 0-3.6.1-5.5.2-5.7.3-16.6 1.5-25.9 5.5-10.7 4.6-16.4 11.9-16.4 21 0 8.2 4.2 14.9 12.5 20 6.8 4.1 15 6.5 21.6 8.4l.4.1c2.7.8 4.1 1.2 6.8 1.9.8.2 1.8.5 2.9.8 5.7 1.5 15.2 4 15.1 8.9 0 .8-.1 3.1-4.9 4.5-2.6.8-6.1 1.2-10.3 1.2h-.7c-9.9-.1-18.7-3.8-25-10.4l-1.2-1.2-7.4 2.6c-5.5 2-11 3.9-16.4 5.9l-3.4 1.2 2.3 2.8c5.5 6.9 13.6 12 24 15.4 7.7 2.4 16.7 3.9 27.5 4.6 1.9.1 3.8.2 5.8.2 7.4 0 18.1-.8 26.9-4.7 9.9-4.4 15.2-11.8 15.2-21.4.3-9.3-4.4-16.8-13.5-22.4z"/><g fill="#162636"><path d="M67.3 156.7h5.4c2.6 0 4.1 1.7 4.1 3.6 0 1.3-.8 2.2-2 2.6 1.9.5 2.9 1.7 2.9 3.5 0 2.5-1.8 4.3-4.7 4.3h-5.7v-14zm5.1 5.2c.9 0 1.5-.5 1.5-1.3s-.5-1.3-1.4-1.3h-2.4v2.6h2.3zm.4 6.3c1.2 0 1.9-.8 1.9-1.9 0-1.1-.8-1.9-2.1-1.9h-2.5v3.9h2.7v-.1zM83.4 165.7v-9h2.9v8.8c0 2 .9 2.8 2.8 2.8s2.8-.8 2.8-2.8v-8.8h2.9v9c0 3.6-2.5 5.3-5.7 5.3-3.2-.1-5.7-1.8-5.7-5.3zM105.7 166.3l-5.3-9.6h3.2l2.5 4.5c.5 1 1.1 2.7 1.1 2.7s.6-1.7 1.1-2.7l2.4-4.5h3l-5 9.4v4.7h-2.9l-.1-4.5zM130.7 159.2h-4v-2.5h10.9v2.5h-4v11.5h-2.9v-11.5zM143.5 156.7h2.9v14.1h-2.9v-14.1zM152.6 163.7c0-4.2 3.2-7.2 7.2-7.2 2.5 0 4.4.9 5.6 2.9l-2.2 1.6c-.7-1.1-1.8-1.8-3.4-1.8-2.5 0-4.3 2-4.3 4.6s1.7 4.6 4.3 4.6c1.8 0 2.8-.9 3.6-2.1l2.3 1.5c-1.2 1.9-3.2 3.1-5.9 3.1-4 0-7.2-3-7.2-7.2zM175.5 161.7l3.7-5h3.3l-4.7 6.4 5.3 7.7h-3.5l-3.7-5.5-1.4 1.6v3.9h-2.9v-14.1h2.9v4.9c0 .7-.1 1.7-.2 2.4.3-.8.8-1.7 1.2-2.3zM188.7 156.7h9.3v2.5h-6.4v4.5h5.6v2.5h-5.6v2h6.7v2.5h-9.6v-14zM207.9 159.2h-4v-2.5h10.9v2.5h-4v11.5h-2.9v-11.5zM219.3 168l2.4-1.4c.6 1 1.4 1.8 2.9 1.8 1.2 0 2-.6 2-1.4 0-1-.8-1.3-2.1-1.9l-.7-.3c-2.1-.9-3.5-2-3.5-4.4 0-2.2 1.7-3.8 4.2-3.8 1.8 0 3.2.6 4.1 2.3l-2.3 1.4c-.5-.9-1-1.2-1.9-1.2-.8 0-1.4.5-1.4 1.2 0 .9.5 1.2 1.8 1.8l.7.3c2.5 1.1 3.8 2.1 3.8 4.5 0 2.6-2 4-4.8 4-2.6 0-4.3-1.3-5.2-2.9z"/></g><g><path fill="#FFF" d="M33 139.1c.4 3.6 1.2 7.2 2 10.7.7 3.3.6 6.6-1 9.7-.8 1.6-2.2 2.8-3.8 3.7-.3.2-.5.2-.6.3-.1 0-.2 0-.4.1-.1 0-.2 0-.3.1-.6.2-1.3.5-1.3.5l1.2.1s.3.1.7.1c-.9 1.1-1.9 1.5-3 1.8-.1 0-.2 0-.3.1-2.3.4-4.5.2-6.7-.5-1.9-.6-3.2-1.6-3.8-3.6-.3-1.2-.9-2.3-1.4-3.5-.4-.8-.6-1.7-.6-2.7 0-.3-.3-1-.3-1s-.3.4-.4.8c-.1.3-.3.4-.5.4s-.4 0-.6-.1c-.6-.3-1-.9-1.2-1.5-.6-1.4-1.1-2.7-1.8-4.1-.3-.6-.5-1.2-.4-1.9 0-.8.4-1.3.9-1.4.3-.1.7 0 1.1.3.3.2.9.7.9.7s.1-1-.1-1.2c-.2-.2-.6-.5-.8-.6-.4-.3-1.9-3.9-2.2-4.5-.1-.2 0-.4.1-.6-.1 0-.1-.1-.2-.2s-.3-.3-.3-.6c-.1-.2-.1-.5-.1-.7 0-.1 0-.3.1-.4 0-.1.1-.3.1-.4V138.7c0-.1.1-.1.1-.2s.1-.1.1-.2c.2-.2.4-.5.7-.6.3-.2.5-.3.8-.5l.9-.3c.3-.1.6-.2.9-.2.2 0 .3-.1.5-.1s.3-.1.5-.1c.6-.1 1.3-.2 1.9-.3.2 0 .4-.1.5-.1.4-.1.9-.2 1.3-.3.1 0 .3-.1.4-.1s.3-.1.4-.1.1 0 .2-.1h.2c.1 0 .1-.1.2-.1h.1c.1-.1.3-.1.4-.2s.3-.1.4-.2c.3-.1.5-.3.7-.4.2-.1.5-.3.7-.4.1-.1.2-.1.3-.2.1-.1.2-.1.3-.2.2-.1.4-.3.6-.4.2-.1.4-.2.5-.4.3-.2.6-.4.8-.6.2-.2.4-.3.5-.4s.2-.1.2-.1-.2.3-.5.7c-.2.2-.4.5-.7.8-.1.2-.3.3-.4.5l-.2.2c-.1.1-.2.2-.3.2-.4.3-.8.7-1.2 1-.1.1-.2.2-.4.3-.1 0-.1.1-.2.1s-.1.1-.2.1c-.1.1-.3.2-.4.2-.1.1-.3.2-.4.2l-.1.1h-.2c-.1 0-.1.1-.2.1-.1.1-.3.1-.5.2l-.9.3c-.5.2-1.1.3-1.7.4-.1 0-.2 0-.3.1-.7.1-1.3.2-1.9.3-.3 0-.6.1-.9.1-.1 0-.2 0-.4.1-.2 0-.3.1-.5.1-.3.1-.6.1-.8.2-.3.1-.5.2-.7.3s-.4.3-.6.4l-.1.1-.1.1-.1.1v.2c-.1.1-.1.2-.2.3 0 0 0 .1-.1.1v.1c-.1.2-.1.4-.1.5 0 .2.1.4.3.6H9v-.4c0-.1.1-.1.1-.2s.1-.1.1-.2c.2-.2.4-.5.7-.6.3-.2.5-.3.8-.5l.9-.3c.3-.1.6-.2.9-.2.2 0 .3-.1.5-.1s.3-.1.5-.1c.6-.1 1.3-.2 1.9-.3.2 0 .4-.1.5-.1.4-.1.9-.2 1.3-.3.1 0 .3-.1.4-.1s.3-.1.4-.1.1 0 .2-.1h.2c.1 0 .1-.1.2-.1h.1c.1-.1.3-.1.4-.2s.3-.1.4-.2c.3-.1.5-.3.7-.4.2-.1.5-.3.7-.4.1-.1.2-.1.3-.2.1-.1.2-.1.3-.2.2-.1.4-.3.6-.4.2-.1.4-.2.5-.4.3-.2.6-.4.8-.6.2-.2.4-.3.5-.4s.2-.1.2-.1-.2.3-.5.7c-.2.2-.4.5-.7.8-.1.2-.3.3-.4.5l-.2.2c-.1.1-.2.2-.3.2-.3.3-.6.5-.9.8.5-.2.8-.4.8-.4h.1c.9-.2 1.5-.7 2.2-1.2.3-.3.6-.5 1.1-.6h.8c1.3-.3 3-1.6 3.3-1.8.1-.1.3-.2.4-.2.2 0 .4.2.6.4 1.9 1.4 2.4 3.6 2.6 5.9z"/><path fill="#C0C0C0" d="M16.3 144.7c-.1-.2-.1-.2-.1-.4-.1-.2-.1-.6-.2-1 0-.4-.1-.9 0-1.4 0-.1 0-.3.1-.4 0-.1 0-.1.1-.2 0-.1 0-.1.1-.2.1-.3.2-.6.4-.8.2-.3.5-.5.8-.6.1 0 .2-.1.3-.1H18.4c.3 0 .6.1.8.3l.3.3c.1.1.2.2.2.3.1.2.2.4.2.6s.1.3.1.4V141.8c0-.1-.1-.1-.1-.2-.1-.1-.1-.2-.2-.3l-.3-.3c-.1-.1-.3-.2-.4-.2-.2-.1-.3-.1-.5-.1h-.4c-.1.1-.3.2-.4.3s-.2.3-.3.5c0 .1 0 .1-.1.2 0 .1 0 .1-.1.2 0 .1-.1.2-.1.3-.1.4-.2.9-.3 1.2-.1.4-.2.7-.2.9-.2.2-.2.2-.3.4zM26.1 141.2c0-.1-.1-.2-.1-.3-.1-.2-.1-.5-.2-.8 0-.3-.1-.8 0-1.2 0-.2 0-.4.1-.7.1-.2.1-.5.2-.7.1-.1.1-.2.2-.4.1-.1.2-.2.4-.3.1-.1.2-.1.2-.1h.7c.1 0 .3.1.4.1.1.1.2.1.3.2.2.1.3.3.5.4.2.3.4.6.4.8 0 .1 0 .2.1.2v.1l-.1-.1s-.1-.1-.2-.1c-.2-.1-.4-.3-.6-.4-.1-.1-.3-.1-.4-.2-.1 0-.3-.1-.4 0h-.2l-.1.1-.1.1c0 .1-.1.1-.1.2-.1.2-.1.3-.2.5s-.1.4-.2.6c-.1.4-.2.8-.3 1.1l-.3.9c.1-.2.1-.1 0 0zM25.7 159.4c.1 0 .2 0 .2-.1.1 0 .3-.1.5-.1.1 0 .2-.1.3-.1.1 0 .2-.1.4-.1.1 0 .2-.1.4-.1.1 0 .2-.1.4-.1.1 0 .2-.1.3-.1.1 0 .1-.1.2-.1s.1-.1.2-.1c.1-.1.2-.1.3-.2l.1-.1.1-.1.1-.1.1-.1c.1-.1.1-.1.2-.1s.1-.1.1-.1h.1V158.3c0 .1-.1.2-.1.3s-.1.1-.1.2-.1.1-.1.2c-.1.1-.2.2-.3.4l-.2.2-.2.2c-.1.1-.3.2-.5.2-.2.1-.3.1-.5.1h-.5c-.3 0-.6-.1-.8-.1-.1 0-.2-.1-.3-.1-.1 0-.2-.1-.2-.1-.1-.3-.1-.3-.2-.4zM26.4 158c-3 .6-5.3-1.3-5.4-1.3l.7-.8c.1.1 2.5 2 5.5.8 3.1-1.2 3.7-3.9 3.7-4l1 .2c0 .1-.8 3.3-4.3 4.7-.3.2-.8.3-1.2.4z"/><path fill="#C0C0C0" d="M30.3 152l.1.1c.1 0 .2.1.3.2.1 0 .1.1.2.1s.1.1.2.1c0 0 .1 0 .1.1h.6c.1 0 .2 0 .2.1.1 0 .2 0 .2.1H32.5c.1 0 .1 0 .2.1h.2c.1 0 .1.1.1.1l-.1.1-.1.1c-.1 0-.1.1-.2.1s-.2.1-.3.1H31.2c-.1 0-.1 0-.2-.1-.1 0-.1-.1-.1-.1-.1-.1-.2-.1-.3-.2l-.1-.1-.1-.1c-.1-.1-.1-.1-.1-.2s-.1-.1-.1-.2v-.2c.1-.1.1-.2.1-.2zM21.8 155.1l.1.1s0 .1.1.2c0 .1 0 .1.1.2v.5c0 .1 0 .2-.1.3 0 .1-.1.2-.1.3s-.1.2-.2.3-.1.2-.2.2l-.2.2c-.1.1-.1.1-.2.1s-.1.1-.2.1-.1 0-.2.1h-.1v-.1s0-.1.1-.2c0-.1 0-.1.1-.2 0-.1.1-.1.1-.2s.1-.1.1-.2.1-.2.1-.2c0-.1.1-.2.1-.2 0-.1.1-.2.1-.2 0-.1.1-.2.1-.2s0-.1.1-.1V155.6c.1-.1.1-.2.1-.3l.2-.2zM9.2 146.7l-.9-1c.7-1.6 2.3-2.4 3.1-2.9l.1 1.3c-.9.6-1.7 1.3-2.3 2.6z"/><path fill="#C0C0C0" d="M8.8 144.8l-.3-1.6c0-.1.8-1 2.9-2.1l.1 1.2c-1.9 1-2.7 2.5-2.7 2.5zM17.9 147.7s.3 0 .8-.1c.1 0 .2 0 .3-.1.1 0 .2 0 .3-.1.1 0 .2 0 .3-.1.1 0 .2-.1.3-.1h.5s.1 0 .1-.1c0 0 .1 0 .2-.1 0 0 .1 0 .2-.1.1 0 .1 0 .2-.1.1 0 .1 0 .1-.1.1 0 .2-.1.3-.1.1 0 .2-.1.2-.1.1 0 .1-.1.2-.1h.1v.8c0 .1 0 .1-.1.2 0 .1 0 .1-.1.2 0 .1-.1.1-.1.2s-.1.1-.1.2l-.2.2-.2.2-.2.2c-.2.1-.3.2-.5.2-.2.1-.4.1-.6.1h-.5c-.2 0-.3-.1-.5-.2-.1-.1-.3-.1-.4-.2-.2-.2-.3-.3-.4-.5-.2-.1-.2-.2-.2-.3zM26.9 145.5s.1 0 .2-.1c.2 0 .4-.1.6-.1.2-.1.5-.1.7-.2.1 0 .2-.1.3-.1.1 0 .2-.1.3-.1.1 0 .2-.1.3-.1.1 0 .2-.1.3-.2.1-.1.2-.1.3-.2l.1-.1.1-.1c.1-.1.2-.1.2-.2.1-.1.2-.1.2-.2l.2-.2s0 .1.1.3V144.8c0 .1 0 .2-.1.2-.1.2-.1.3-.2.5-.1.1-.1.2-.2.2l-.1.1-.1.1c-.2.1-.3.2-.5.3s-.4.1-.6.2h-.6c-.4 0-.7-.2-.9-.3-.1-.1-.2-.1-.3-.2-.1-.1-.2-.1-.2-.2-.1-.1-.1-.2-.1-.2z"/><path fill="#C0C0C0" d="M7.8 140.4c.1.4 1.3 1.4 1.3 1.4s.9 4.2 1.3 4.5c.4.3-.7.1-.7.1l-2.5-5.1.6-.9z"/><path fill="#C0C0C0" d="M31.8 132.5c-.1-.1-.1-.3-.2-.4-2.1-3.1-4.3-4.5-5.3-5.2-.1-.1-.2-.1-.2-.1-.3-.2-1-.6-2.8-.7-1-.1-2.6-.1-4.6.3-1.3.3-2.6.6-3.8 1.2-2.5 1-4.7 2.5-6.4 4.1-1.6 1.6-2.8 3.4-3.3 5.2-.4 1.6-.1 3.7 1 6.4.8 1.9 1.6 3.4 1.6 3.4v.1c-.1.1-.2.2-.2.3-.3.4-.4.9-.4 1.5 0 .8.2 1.7.6 2.4.7 1.3 1.3 2.7 1.8 4 .4.9.9 1.6 1.7 2 .4.2.9.3 1.3.2.1.6.3 1.2.6 1.8l.3.6c.4.9.8 1.8 1.1 2.7.6 2.1 2.1 3.6 4.5 4.3s4.9.9 7.2.5c.1 0 .3 0 .4-.1 1.1-.2 2.5-.7 3.7-2.1l.8-1c1.3-.9 2.9-2.1 3.9-4 .8-1.6 1.3-3.3 1.5-5.1.2-1.7 0-3.4-.4-5.2-.1-.5-.2-.9-.3-1.4-.7-3-1.4-6.1-1.7-9.2-.3-2-.8-4.4-2.4-6.5zm1.2 6.6c.4 3.6 1.2 7.2 2 10.7.7 3.3.6 6.6-1 9.7-.8 1.6-2.2 2.8-3.8 3.7-.3.2-.5.2-.6.3-.1 0-.2 0-.4.1-.1 0-.2 0-.3.1-.6.2-1.3.5-1.3.5l1.2.1s.3.1.7.1c-.9 1.1-1.9 1.5-3 1.8-.1 0-.2 0-.3.1-2.3.4-4.5.2-6.7-.5-1.9-.6-3.2-1.6-3.8-3.6-.3-1.2-.9-2.3-1.4-3.5-.4-.8-.6-1.7-.6-2.7 0-.3-.3-1-.3-1s-.3.4-.4.8c-.1.3-.3.4-.5.4s-.4 0-.6-.1c-.6-.3-1-.9-1.2-1.5-.6-1.4-1.1-2.7-1.8-4.1-.3-.6-.5-1.2-.4-1.9 0-.8.4-1.3.9-1.4.3-.1.7 0 1.1.3.3.2.9.7.9.7s.1-1-.1-1.2c-.2-.2-.6-.5-.8-.6-.4-.3-1.9-3.9-2.2-4.5-.1-.2 0-.4.1-.6-.1 0-.1-.1-.2-.2s-.3-.3-.3-.6c-.1-.2-.1-.5-.1-.7 0-.1 0-.3.1-.4 0-.1.1-.3.1-.4V138.7c0-.1.1-.1.1-.2s.1-.1.1-.2c.2-.2.4-.5.7-.6.3-.2.5-.3.8-.5l.9-.3c.3-.1.6-.2.9-.2.2 0 .3-.1.5-.1s.3-.1.5-.1c.6-.1 1.3-.2 1.9-.3.2 0 .4-.1.5-.1.4-.1.9-.2 1.3-.3.1 0 .3-.1.4-.1s.3-.1.4-.1.1 0 .2-.1h.2c.1 0 .1-.1.2-.1h.1c.1-.1.3-.1.4-.2s.3-.1.4-.2c.3-.1.5-.3.7-.4.2-.1.5-.3.7-.4.1-.1.2-.1.3-.2.1-.1.2-.1.3-.2.2-.1.4-.3.6-.4.2-.1.4-.2.5-.4.3-.2.6-.4.8-.6.2-.2.4-.3.5-.4s.2-.1.2-.1-.2.3-.5.7c-.2.2-.4.5-.7.8-.1.2-.3.3-.4.5l-.2.2c-.1.1-.2.2-.3.2-.4.3-.8.7-1.2 1-.1.1-.2.2-.4.3-.1 0-.1.1-.2.1s-.1.1-.2.1c-.1.1-.3.2-.4.2-.1.1-.3.2-.4.2l-.1.1h-.2c-.1 0-.1.1-.2.1-.1.1-.3.1-.5.2l-.9.3c-.5.2-1.1.3-1.7.4-.1 0-.2 0-.3.1-.7.1-1.3.2-1.9.3-.3 0-.6.1-.9.1-.1 0-.2 0-.4.1-.2 0-.3.1-.5.1-.3.1-.6.1-.8.2-.3.1-.5.2-.7.3s-.4.3-.6.4l-.1.1-.1.1-.1.1v.2c-.1.1-.1.2-.2.3 0 0 0 .1-.1.1v.1c-.1.2-.1.4-.1.5 0 .2.1.4.3.6H9v-.4c0-.1.1-.1.1-.2s.1-.1.1-.2c.2-.2.4-.5.7-.6.3-.2.5-.3.8-.5l.9-.3c.3-.1.6-.2.9-.2.2 0 .3-.1.5-.1s.3-.1.5-.1c.6-.1 1.3-.2 1.9-.3.2 0 .4-.1.5-.1.4-.1.9-.2 1.3-.3.1 0 .3-.1.4-.1s.3-.1.4-.1.1 0 .2-.1h.2c.1 0 .1-.1.2-.1h.1c.1-.1.3-.1.4-.2s.3-.1.4-.2c.3-.1.5-.3.7-.4.2-.1.5-.3.7-.4.1-.1.2-.1.3-.2.1-.1.2-.1.3-.2.2-.1.4-.3.6-.4.2-.1.4-.2.5-.4.3-.2.6-.4.8-.6.2-.2.4-.3.5-.4s.2-.1.2-.1-.2.3-.5.7c-.2.2-.4.5-.7.8-.1.2-.3.3-.4.5l-.2.2c-.1.1-.2.2-.3.2-.3.3-.6.5-.9.8.5-.2.8-.4.8-.4h.1c.9-.2 1.5-.7 2.2-1.2.3-.3.6-.5 1.1-.6h.8c1.3-.3 3-1.6 3.3-1.8.1-.1.3-.2.4-.2.2 0 .4.2.6.4 1.9 1.4 2.4 3.6 2.6 5.9z"/><path fill="#C0C0C0" d="M24.6 145.1c.1.3.2.5.3.8l.3.7.2.4c.1.1.1.2.2.4.1.1.1.2.2.4.1.1.1.2.2.4.1.1.1.2.2.3s.1.2.2.3.1.2.2.3l.1.2.1.2c0 .1.1.1.1.2s.1.1.1.2l.1.1.1.1.1.1.1.1.1.1c.1.1.2.2.3.2l.4.4-.5.2c-.2.1-.3.1-.5.2l-.2.1c-.1 0-.2.1-.2.1-.1 0-.2.1-.2.1-.1 0-.2.1-.2.1-.2.1-.3.2-.5.3.1-.1.2-.3.3-.4l.4-.4c.1-.1.3-.2.5-.3.1 0 .2-.1.2-.1.1 0 .2-.1.2-.1v.5c-.1-.1-.3-.2-.4-.2l-.1-.1-.1-.1c-.1 0-.1-.1-.2-.1l-.2-.2-.2-.2c-.1-.1-.1-.1-.1-.2s-.1-.1-.1-.2l-.3-.3c-.1-.1-.2-.2-.2-.4-.1-.1-.1-.2-.2-.4-.1-.1-.1-.3-.2-.4-.1-.1-.1-.3-.2-.4 0-.1-.1-.3-.1-.4 0-.1-.1-.3-.1-.4s-.1-.3-.1-.4c0-.1-.1-.3-.1-.4s0-.3-.1-.4v-.4c.1-.3.1-.4.1-.6z"/></g><g><path fill="#C0C0C0" d="M288.3 128.2c.4 0 .8.1 1 .3.4.4.3.8.1 1.3-.4 1.1-1 1.8-1.7 2.7-1.3 1.4-2.6 2.8-3.9 4.3-.4.5-1.9 2.6-1.9 2.6s1.8-1 2.7-1.8c1.1-1 3.3-2.7 4.6-4.3.6-.7 1.1-1.4 2-1.8.2-.1.5-.2.7-.2.3 0 .6.1.8.3.5.4.2 1 0 1.5-.8 1.6-2.1 3-3.4 4.3-1.5 1.5-2.5 2.7-3.3 3.5s-2.3 3.2-2.3 3.2 1.5-1 1.9-1.3c.9-.5 1.6-1 2.2-1.4.6-.5 1.4-.9 2.2-1.6.4-.3.9-.6 1.4-.8.3-.1.5-.2.8-.2.4 0 .8.2 1.1.5.5.7.1 1.3-.3 1.8-1.6 2-3.6 3.4-5.4 5.2-2.1 2.1-3.8 4.6-6 6.5-1.5 1.3-2.7 2.8-3.9 4.5-1.2 1.8-1.9 3.8-1.7 6 .1.8-.2 1.1-.9 1.2-1.7.4-3.4.6-5.2.6h-.6c-1.7 0-3.4-.2-5.2-.6-.7-.1-1-.4-.9-1.1.2-4-1.3-6.3-4.6-8.6-1.1-.8-2.2-1.5-3.3-2.3-1.4-1.1-1.4-1.7-.2-3.1.9-.9 1.9-1.6 2.9-2.3 1.9-1.3 3.8-2.6 5-4.7.1-.2.3-.3.4-.3s.3.1.4.3c.4.5.5 1.1.3 1.7-.3 1.1-.9 1.9-1.7 2.7-.8.9-1 1.9-.5 3 .5 1 1.5 1.3 2.4 1.3h.2c3.3-.1 7.1-3 8-6.2.2-.6.2-1.1.1-1.7-.1-.8-.7-1.3-1.5-1.3h-.3c-1 .2-1.7.7-2.5 1.2-.5.3-1 .6-1.5.6-.3 0-.5-.1-.8-.3-.6-.4-1-1.2-1-1.9 0-.5.8-.5 1.3-.6 1.3-.5 2.3-1.4 3.4-2.2 1.1-.7 1.8-1.1 2.5-1.1s1.4.4 2.6 1.3c.4.4.8.5 1.1.5.4 0 .8-.3 1.4-.8 3.1-3.2 5.7-6.1 8.8-9.1.6-.6 1.2-1.1 2-1.3h.2m0-1.5c-.3 0-.5 0-.8.1-1.2.3-2 1-2.7 1.7-1.6 1.6-3.1 3.2-4.7 4.8-1.3 1.4-2.7 2.8-4.1 4.3-.2.2-.3.3-.4.3 0 0-.1-.1-.2-.1-1.1-.9-2.2-1.7-3.5-1.7-1.1 0-2 .5-3.3 1.4-.3.2-.5.4-.8.6-.8.6-1.5 1.1-2.4 1.5h-.2c-.3.1-.6.1-.9.3-.4.2-.7.5-.8.8h-.3c-.4 0-1.1.1-1.6 1.1-.9 1.6-2.5 2.8-4.1 4-.1.1-.3.2-.4.3l-.2.2c-1 .7-2 1.4-2.9 2.4-.7.8-1.4 1.7-1.3 2.8.1 1.1.9 1.9 1.7 2.5.7.6 1.5 1.1 2.3 1.6.4.2.7.5 1.1.8 3.1 2.2 4.1 4.1 4 7.3 0 .8.2 2.3 2.1 2.6 2.2.4 3.9.6 5.5.6h.6c1.8 0 3.5-.2 5.5-.7 2-.4 2.2-1.9 2.1-2.8-.2-1.8.3-3.5 1.4-5.1 1.2-1.7 2.3-3.1 3.6-4.2 1.3-1.2 2.5-2.5 3.6-3.9.8-1 1.6-1.9 2.4-2.7.7-.7 1.4-1.3 2.1-1.9 1.2-1 2.4-2.1 3.4-3.4.2-.3.6-.7.8-1.3.3-.8.1-1.6-.5-2.3s-1.4-1.1-2.2-1.1c-.3 0-.6 0-.9.1 1-1.1 2-2.4 2.8-3.7.2-.4.4-.8.4-1.2.1-.8-.2-1.5-.7-2-.5-.4-1.1-.7-1.8-.7-.4 0-.7.1-1.1.2.2-.7.4-1.7-.5-2.6-.6-.6-1.3-.9-2.1-.9zm-21.6 18.4c.9 0 1.6-.4 2.2-.7h.1l.6-.3c.5-.3 1-.6 1.5-.7h.2v.1c.1.4 0 .7-.1 1.1-.4 1.2-1.3 2.5-2.6 3.5s-2.8 1.6-4 1.6h-.1c-.9 0-1.1-.3-1.1-.4-.2-.4-.2-.8.3-1.4.9-1 1.5-2 1.9-3 .2.1.6.2 1.1.2z"/><path fill="#FFF" d="M292.9 141.2c-1.6 2-3.6 3.4-5.4 5.2-2.1 2.1-3.8 4.6-6 6.5-1.5 1.3-2.7 2.8-3.9 4.5-1.2 1.8-1.9 3.8-1.7 6 .1.8-.2 1.1-.9 1.2-1.8.4-3.5.6-5.5.6-1.7 0-3.6-.2-5.5-.6-.7-.1-1-.4-.9-1.1.2-4-1.3-6.3-4.6-8.6-1.1-.8-2.2-1.5-3.3-2.3-1.4-1.1-1.4-1.7-.2-3.1.9-.9 1.9-1.6 2.9-2.3 1.9-1.3 3.8-2.6 5-4.7.3-.5.5-.4.8 0 .4.5.5 1.1.3 1.7-.3 1.1-.9 1.9-1.7 2.7-.8.9-1 1.9-.5 3s1.6 1.3 2.6 1.2c3.3-.1 7.1-3 8-6.2.2-.6.2-1.1.1-1.7-.2-.9-.9-1.4-1.9-1.3-1 .2-1.7.7-2.5 1.2-.7.4-1.5.9-2.3.3-.6-.4-1-1.2-1-1.9 0-.5.8-.5 1.3-.6 1.3-.5 2.3-1.4 3.4-2.2 2.3-1.5 2.9-1.5 5.1.2 1 .8 1.6.6 2.5-.3 3.1-3.2 5.7-6.1 8.8-9.1.6-.6 1.2-1.1 2-1.3.4-.1 1.1 0 1.4.3.4.4.3.8.1 1.3-.4 1.1-1 1.8-1.7 2.7-1.3 1.4-2.6 2.8-3.9 4.3-.4.5-1.9 2.6-1.9 2.6s1.8-1 2.7-1.8c1.1-1 3.3-2.7 4.6-4.3.6-.7 1.1-1.4 2-1.8.5-.2 1.1-.3 1.5.1.5.4.2 1 0 1.5-.8 1.6-2.1 3-3.4 4.3-1.5 1.5-2.5 2.7-3.3 3.5s-2.3 3.2-2.3 3.2 1.5-1 1.9-1.3c.9-.5 1.6-1 2.2-1.4.6-.5 1.4-.9 2.2-1.6.4-.3.9-.6 1.4-.8.7-.3 1.4-.3 1.9.3.5.8 0 1.4-.4 1.9zM251.2 135.3h.4c.3 0 .7 0 1.2.1s1 .2 1.6.3 1.2.3 1.8.5 1.2.4 1.7.7c.5.2 1 .5 1.4.7s.7.5 1 .6c.1.1.2.2.3.2.1 0 .1.1.1.1h-.4c-.3 0-.7 0-1.2-.1s-1-.2-1.6-.3-1.2-.3-1.8-.5c-.6-.2-1.2-.4-1.7-.7-.5-.2-1-.5-1.4-.7s-.7-.5-1-.6c-.2-.1-.3-.2-.4-.3zM259.7 127.6s.1.1 0 0c.1.2.2.2.3.4.2.2.4.6.6 1s.5.9.7 1.5c.2.5.4 1.1.6 1.7s.4 1.2.5 1.8.2 1.1.3 1.6c.1.5.1.9.1 1.2v.4l-.1-.1c0-.1-.1-.2-.2-.3-.2-.2-.4-.6-.6-1s-.5-.9-.7-1.5c-.2-.5-.4-1.1-.6-1.7-.2-.6-.4-1.2-.5-1.8s-.2-1.1-.3-1.6c-.1-.5-.1-.9-.1-1.2v-.4c0 .1 0 0 0 0zM265.3 136v-.3-.9c0-.4.1-.8.1-1.2.1-.4.2-.9.3-1.3.1-.4.3-.9.5-1.3s.4-.8.6-1.1.4-.6.5-.7.1-.2.2-.2l.1-.1v1.3c0 .4-.1.8-.1 1.2-.1.4-.2.9-.3 1.3-.1.4-.3.9-.5 1.3s-.4.8-.6 1.1-.4.6-.5.7-.2.1-.3.2z"/></g><g><g opacity=".25" fill="#162636"><path d="M63.2 178.7c-2.2 1.3-4.2.9-6.1-.2l-.3.5-1.2-.2-1 4c2.8 1.9 6.7 2.3 11-.1 2.1-1.2 3.6-2.8 4.4-4.5.3-.6.4-1.2.5-1.8l.9-3.4-1 1.2c-.2-.7-.4-1.4-.8-2.1-2.2-3.8-5.3-4.2-10.2-3.7l-1.4.2c-2.4.3-3.6.2-4.4-1.1-.6-1.1-.3-2.4 1.1-3.2 1.3-.8 2.5-.7 4 .3l2.2-4.3 1-4-2.8 3.2c-2.3-.8-4.4-.4-6.7.9-1 .6-1.9 1.3-2.5 2.1l-.4-1.3-1 4.2c-.4 1.6-.1 3.3.8 4.9 2.1 3.7 5.3 4.2 9.4 3.7l1.4-.2c2.6-.3 4.2-.5 5.1 1.1.6 1.1-.1 2.7-2 3.8zM79.2 144.6c-6.4 3.7-8.7 11.4-4.9 17.9 3.8 6.5 11.6 8.4 18 4.7s8.7-11.4 4.9-17.9c-3.8-6.5-11.6-8.3-18-4.7zm10.7 18.6c-4 2.3-8.6.7-11-3.4-2.4-4.1-1.5-8.8 2.6-11.2 4-2.3 8.6-.8 11 3.4 2.4 4.2 1.5 8.9-2.6 11.2zM114.5 148.7l-10.4-18-1.3.7-2.3-2.1-1 4 12.8 22.1 14.5-8.4 1-4-2.7 1-.6-1zM142.1 138.1c6.8-3.9 9-11.2 5.2-17.8s-11.2-8.2-18-4.3l-3.9 2.3-1.9-2.3-1 4 12.7 22.1 6.9-4zm-10.6-17.9c4.9-2.8 8.8-1.2 11.2 2.9s1.8 8.3-3.1 11.2l-2 1.2-8.1-14.1 2-1.2zM172.3 90.9c-6.4 3.7-8.7 11.4-4.9 17.9 3.8 6.5 11.6 8.4 18 4.7s8.7-11.4 4.9-17.9c-3.8-6.5-11.6-8.4-18-4.7zm10.7 18.6c-4 2.3-8.6.7-11-3.4s-1.5-8.8 2.6-11.2c4-2.3 8.6-.8 11 3.4s1.5 8.9-2.6 11.2zM212 92.7c-3 1.7-5.1 1.3-7-1.9L197 77l-1.2.7-2.3-2.1-1 4 8.1 14.1c3.2 5.6 8.6 6 13.7 3.1 2.5-1.4 4.3-3.3 5.1-5.6.2-.5.3-1 .4-1.5.5-1.8 1.1-4.5 1.1-4.5l-1.2 1.4c-.2-1.1-.6-2.2-1.3-3.3l-7.2-12.5.3-.1-.6-.4-.7-1.2-.7.4-2.9-1.8-1 4 8 13.8c2.1 3.4 1.4 5.5-1.6 7.2zM237.6 83l4.5-2.6 1-4-2.6 1.2-8.8-15.3 6.3-3.6 1-4-2.9.8-.5-.8-13.5 7.8-2.6-1.9-1 4 2.3 4 6.3-3.7zM250 35.2l-4-6.9-220 127-3-1.6-1 4 4 6.9L248.7 36zM246.8 29.6l3.2 5.6 1-4zM274.4 77.5l-2.4-4.1L51.7 200.6l-2.7-1.8-1 4 4 6.9L276 80.3l1-4z"/></g><g fill="#DC4339"><path d="M64.2 174.7c-2.2 1.3-4.2.9-6.1-.2l-2.5 4.3c2.8 1.9 6.7 2.3 11-.1 4.3-2.5 6.2-6.6 3.9-10.7-2.2-3.8-5.3-4.2-10.2-3.7l-1.4.2c-2.4.3-3.6.2-4.4-1.1-.6-1.1-.3-2.4 1.1-3.2 1.3-.8 2.5-.7 4 .3l2.2-4.3c-3-1.8-5.7-1.6-8.6.1-4.1 2.3-5.2 6.4-3.2 9.8 2.1 3.7 5.3 4.2 9.4 3.7l1.4-.2c2.6-.3 4.2-.5 5.1 1.1.9 1.3.2 2.9-1.7 4zM80.2 140.6c-6.4 3.7-8.7 11.4-4.9 17.9 3.8 6.5 11.6 8.4 18 4.7s8.7-11.4 4.9-17.9c-3.8-6.5-11.6-8.3-18-4.7zm10.7 18.6c-4 2.3-8.6.7-11-3.4-2.4-4.1-1.5-8.8 2.6-11.2 4-2.3 8.6-.8 11 3.4 2.4 4.2 1.5 8.9-2.6 11.2zM105.1 126.7l-4.6 2.6 12.8 22.1 14.5-8.4-2.3-4-10 5.7zM143.1 134.1c6.8-3.9 9-11.2 5.2-17.8s-11.2-8.2-18-4.3l-6.8 3.9 12.7 22.1 6.9-3.9zm-10.6-17.9c4.9-2.8 8.8-1.2 11.2 2.9s1.8 8.3-3.1 11.2l-2 1.2-8.1-14.1 2-1.2zM173.3 86.9c-6.4 3.7-8.7 11.4-4.9 17.9 3.8 6.5 11.6 8.4 18 4.7s8.7-11.4 4.9-17.9c-3.8-6.5-11.6-8.4-18-4.7zm10.7 18.6c-4 2.3-8.6.7-11-3.4s-1.5-8.8 2.6-11.2c4-2.3 8.6-.8 11 3.4s1.5 8.9-2.6 11.2zM213 88.7c-3 1.7-5.1 1.3-7-1.9L198 73l-4.5 2.6 8.1 14.1c3.2 5.6 8.6 6 13.7 3.1 5-2.9 7.3-7.8 4.1-13.4l-8.1-14.1-4.5 2.6 8 13.8c1.9 3.2 1.2 5.3-1.8 7zM228.1 60.9L238.6 79l4.5-2.6-10.4-18.1 6.3-3.6-2.4-4-17.1 9.9 2.3 4zM251 31.2l-4-6.9L23 153.7l4 6.9L249.7 32zM49.05 198.785l224.034-129.35 4 6.928L53.05 205.713z"/></g></g></svg>