<svg xmlns="http://www.w3.org/2000/svg" viewBox="0 0 400 300"><g stroke="#243F60" stroke-width="2" stroke-miterlimit="10"><path fill="#5A9AC2" d="M193.5 25.3l-7.9-4.5c-1.6-.9-12.7 4.8-13.6 6.4l-.8 1.4-4.6-2.7c-1.6-.9-12.7 4.8-13.6 6.4l-.8 1.4-4.6-2.7c-1.6-.9-12.7 4.8-13.6 6.4l-.8 1.3-4.6-2.7c-1.6-.9-12.7 4.8-13.6 6.4l-.8 1.3-4.6-2.7c-1.6-.9-12.7 4.8-13.6 6.4l-.9 1.6-4.6-2.7c-1.6-.9-12.7 4.8-13.6 6.4l-4.5 7.9c-.5.8-.6 1.7-.3 2.6l50.4 187.9c.2.9.8 1.6 1.6 2.1l7.9 4.5c1.6.9 12.7-4.8 13.6-6.4l.8-1.4 4.6 2.7c1.6.9 12.7-4.8 13.6-6.4l.8-1.3 4.6 2.7c1.6.9 12.7-4.8 13.6-6.4l.8-1.3 4.6 2.7c1.6.9 12.7-4.8 13.6-6.4l.8-1.3 4.6 2.7c1.6.9 12.7-4.8 13.6-6.4l.8-1.4 4.7 2.7c1.6.9 12.7-4.8 13.6-6.4l4.6-7.9c.5-.8.6-1.7.3-2.6L195.1 27.4c-.2-.9-.8-1.6-1.6-2.1z"/><path fill="#DEC659" d="M171.6 27.2l-3.6 6.1c-1 1.6-3.1 2.2-4.7 1.3l-6.1-3.5c-1.6-.9-3.7-.4-4.7 1.3l-3.5 6.1c-.9 1.6-3.1 2.2-4.7 1.3l-6.1-3.5c-1.6-.9-3.7-.4-4.7 1.3l-3.5 6.1c-.9 1.6-3.1 2.2-4.7 1.3l-6.1-3.5c-1.6-.9-3.7-.4-4.7 1.3l-3.5 6.1c-.9 1.6-3.1 2.2-4.7 1.3l-6.1-3.5c-1.6-.9-3.7-.4-4.7 1.3L92 54.1c-.9 1.6-3.1 2.2-4.7 1.3l-6.1-3.5c-1.6-.9-3.7-.4-4.7 1.3L72 61.1c-.5.8-.6 1.7-.3 2.6l50.4 187.9c.2.9.8 1.6 1.6 2.1l7.9 4.5c1.6.9 3.7.4 4.7-1.3l3.5-6.1c.9-1.6 3.1-2.2 4.7-1.3l6.1 3.5c1.6.9 3.7.4 4.7-1.3l3.5-6.1c.9-1.6 3.1-2.2 4.7-1.3l6.1 3.5c1.6.9 3.7.4 4.7-1.3l3.5-6.1c.9-1.6 3.1-2.2 4.7-1.3l6.1 3.5c1.6.9 3.7.4 4.7-1.3l3.5-6.1c.9-1.6 3.1-2.2 4.7-1.3l6.1 3.5c1.6.9 3.7.4 4.7-1.3l3.5-6.1c.9-1.6 3-2.2 4.7-1.3l6.2 3.5c1.6.9 3.7.4 4.7-1.3l4.6-7.9c.5-.8.6-1.7.3-2.6L185.8 32.6c-.2-.9-.8-1.6-1.6-2.1l-7.9-4.5c-1.7-1-3.8-.4-4.7 1.2z"/><path fill="#5A9AC2" d="M181.1 52.1c-.5-1.8-2.4-2.9-4.2-2.4l-89.7 24c-1.8.5-2.9 2.4-2.4 4.2L126.1 232c.5 1.8 2.4 2.9 4.2 2.4l89.7-24c1.8-.5 2.9-2.4 2.4-4.2L181.1 52.1zM213 200.2c.5 1.8-.6 3.7-2.4 4.2l-74.4 19.9c-1.8.5-3.7-.6-4.2-2.4L95.1 84.4c-.5-1.8.6-3.7 2.4-4.2l74.4-19.9c1.8-.5 3.7.6 4.2 2.4L213 200.2z"/></g><path opacity=".15" d="M245.5 215.3L195.1 27.4c-.2-.9-.8-1.6-1.6-2.1l-7.9-4.5c-1.6-.9-12.7 4.8-13.6 6.4l-.8 1.4-4.6-2.7c-1.6-.9-12.7 4.8-13.6 6.4l-.8 1.4-4.6-2.7c-.6-.4-2.7.3-5.1 1.3l-41.7 138.3 21.6 80.5c.2.9.8 1.6 1.6 2.1l7.9 4.5c1.6.9 12.7-4.8 13.6-6.4l.8-1.4 4.6 2.7c1.6.9 12.7-4.8 13.6-6.4l.8-1.3 4.6 2.7c1.6.9 12.7-4.8 13.6-6.4l.8-1.3 4.6 2.7c1.6.9 12.7-4.8 13.6-6.4l.8-1.3 4.6 2.7c1.6.9 12.7-4.8 13.6-6.4l.8-1.4 4.7 2.7c1.6.9 12.7-4.8 13.6-6.4l4.6-7.9c.4-1 .5-2 .3-2.9z"/><g stroke="#243F60" stroke-width="2" stroke-miterlimit="10"><path fill="#5A9AC2" d="M323.1 52.2l-5.5-9.5c-1.1-2-16.1-2.6-18.1-1.5l-1.7 1-3.2-5.6c-1.1-2-16.1-2.7-18.1-1.5l-1.5.9-3.2-5.6c-1.1-2-16.1-2.7-18.1-1.5l-1.6.9-3.2-5.6c-1.1-2-16.1-2.7-18.1-1.5l-1.6.9L226 18c-1.1-2-16.1-2.7-18.1-1.5l-1.6.9-3.2-5.6c-1.1-2-16.1-2.7-18.1-1.5l-9.5 5.5c-1 .5-1.6 1.5-1.9 2.5L113 244.6c-.3 1.1-.1 2.2.4 3.1l5.5 9.5c1.1 2 16.1 2.7 18.1 1.5l1.6-.9 3.2 5.6c1.1 2 16.1 2.7 18.1 1.5l1.6-.9 3.2 5.6c1.1 2 16.1 2.7 18.1 1.5l1.6-.9 3.2 5.6c1.1 2 16.1 2.7 18.1 1.5l1.6-.9 3.2 5.6c1.1 2 16.1 2.7 18.1 1.5l1.6-.9 3.3 5.6c1.1 2 16.1 2.6 18.1 1.5l9.5-5.5c1-.5 1.7-1.5 1.9-2.5l60.6-226.1c.2-1.3.1-2.4-.5-3.4z"/><path fill="#DEC659" d="M299.1 41.2l-7.4 4.3c-2 1.1-4.5.5-5.6-1.5l-4.3-7.4c-1.1-2-3.7-2.7-5.7-1.5l-7.4 4.2c-2 1.1-4.5.5-5.7-1.5l-4.2-7.4c-1.1-2-3.7-2.7-5.7-1.5l-7.3 4.2c-2 1.1-4.5.5-5.7-1.5l-4.2-7.3c-1.1-2-3.7-2.7-5.7-1.5l-7.3 4.2c-2 1.1-4.5.5-5.7-1.5l-4.2-7.3c-1.1-2-3.7-2.7-5.7-1.5l-7.3 4.2c-2 1.1-4.5.5-5.7-1.5L190 12c-1.1-2-3.7-2.7-5.6-1.5l-9.5 5.5c-1 .5-1.6 1.5-1.9 2.5l-60.6 226.1c-.3 1.1-.1 2.2.4 3.1l5.5 9.5c1.1 2 3.7 2.7 5.7 1.5l7.4-4.2c2-1.1 4.5-.5 5.7 1.5l4.2 7.3c1.1 2 3.7 2.7 5.7 1.5l7.3-4.2c2-1.1 4.5-.5 5.7 1.5l4.2 7.3c1.1 2 3.7 2.7 5.7 1.5l7.3-4.2c2-1.1 4.5-.5 5.7 1.5l4.2 7.3c1.1 2 3.7 2.7 5.7 1.5l7.3-4.2c2-1.1 4.5-.5 5.7 1.5l4.2 7.3c1.1 2 3.7 2.7 5.7 1.5l7.4-4.2c2-1.1 4.5-.5 5.6 1.5l4.3 7.4c1.1 2 3.7 2.6 5.6 1.5l9.5-5.5c1-.5 1.7-1.5 1.9-2.5l60.6-226.1c.3-1.1.1-2.2-.4-3.1l-5.5-9.5c-1.1-1.8-3.6-2.5-5.6-1.4z"/><path fill="#5A9AC2" d="M294.1 72.7c.6-2.2-.7-4.5-2.9-5.1l-108-28.9c-2.2-.6-4.5.7-5.1 2.9l-49.7 185.5c-.6 2.2.7 4.5 2.9 5.1l107.9 28.9c2.2.6 4.5-.7 5.1-2.9l49.8-185.5zm-56 173.5c-.6 2.2-2.9 3.5-5.1 2.9l-89.5-24c-2.2-.6-3.5-2.9-2.9-5.1L185 54.6c.6-2.2 2.9-3.5 5.1-2.9l89.5 24c2.2.6 3.5 2.9 2.9 5.1l-44.4 165.4z"/></g><path opacity=".15" d="M116.6 233h159.8l13.2-50H103.8l13 48.7z"/><path fill="#CCC" d="M389.3 169.7l-30.8-5c-2.8 0-5-2.3-5-5 0-2.8-2.3-5-5-5 0 0-92.1-5-151.4-5s-151.4 5-151.4 5c-2.8 0-5 2.2-5 5s-2.3 5-5 5l-30.8 5c-4 0-6.4 4.5-4.2 7.8l13 14.4c1.1 1.7 1.1 3.9 0 5.6L.5 222c-2.2 3.3.2 7.8 4.2 7.8l33.7-5c1.3 0 2.6-.5 3.6-1.5l7.1-7.1c.9-.9 2.2-1.5 3.6-1.5 0 0 88.1-5 144.3-5s144.3 5 144.3 5c1.3 0 2.6.5 3.6 1.5l8.6 8.6 35.8 5c4 0 6.4-4.5 4.2-7.8l-13-24.5c-1.1-1.7-1.1-3.9 0-5.6l13-14.4c2.2-3.3-.2-7.8-4.2-7.8z"/><path fill="#FFF" d="M346.4 214.7s-73.9-5-149.4-5-149.4 5-149.4 5c-3.9 0-7.1-3.2-7.1-7.1v-45.9c0-3.9 3.2-7.1 7.1-7.1 0 0 87.1-5 149.4-5s149.4 5 149.4 5c3.9 0 7.1 3.2 7.1 7.1v45.9c0 3.9-3.2 7.1-7.1 7.1z"/><g fill="#F2F2F2"><path d="M2.7 180.8l10 10a7.1 7.1 0 0 1 0 7.9l-10 20c-3.2 4.7.2 11.1 5.9 11.1l24.8-5c3.9 0 7.1-3.2 7.1-7.1v-45.9c0-3.9-3.2-7.1-7.1-7.1l-24.8 5c-5.7 0-9.1 6.4-5.9 11.1zM385.4 169.7l-24.8-5c-3.9 0-7.1 3.2-7.1 7.1v45.9c0 3.9 3.2 7.1 7.1 7.1l24.8 5c5.7 0 9.1-6.4 5.9-11.1l-10-20a7.1 7.1 0 0 1 0-7.9l10-10c3.2-4.7-.2-11.1-5.9-11.1z"/></g><g fill="#C5473D"><path d="M76.9 175.5c0 2.1-.5 4-2.9 5.4 3.5 1.6 4.5 3.7 4.5 7.1 0 5.4-3.1 8.9-10.2 8.9h-9.6v-29.3h6.4c3.9 0 6.5.1 8.8 1.6 2.1 1.5 3 3.8 3 6.3zM65 179.1h2.9c1.8-.1 2.9-1.1 2.9-3.6 0-3.1-2-3.2-4.9-3.2H65v6.8zm7.4 8.8c0-3.5-2.3-4.2-5.4-4.2h-2v8.3h2.6c3.7 0 4.8-1.7 4.8-4.1zM89 194.2c-1.4-2-2-4.4-2-8v-18.5h6.4V186c0 2.4.1 3.9.9 5 .6.9 1.6 1.3 3.5 1.3 1.6 0 2.9-.4 3.4-1.4.7-1 .9-2.6.9-4.9v-18.2h6.4v18.5c0 3.6-.6 6-2.1 8-1.8 2.2-5 3.3-8.6 3.3-3.8-.1-7.1-1.2-8.8-3.4zM127.3 180.2l6-12.5h6.4l-9.2 17.7V197h-6.3v-11.6l-9.2-17.7h6.4l5.9 12.5zM154.7 172.8v-5h21.7v5h-7.8V197h-6.3v-24.3h-7.6zM190.3 197H184v-29.3h6.3V197zM218.7 196.8c-2.1.5-4.4.8-6.8.8-6.7 0-12.7-3.6-12.7-15.3 0-11.6 6.8-15 13.2-15 2.5 0 4.3.3 6.6 1l-1 4.5c-1.6-.3-3.2-.5-4.6-.5-4.3 0-7.7 2.1-7.7 9.9 0 8 3.4 10.2 7.9 10.2 1.4 0 3.1-.1 4.7-.4l.4 4.8zM233.8 197h-6.3v-29.3h6.3V197zm9.5-29.3h7.5l-9.1 14.1 11 15.2H245l-10.2-15 8.5-14.3zM278.6 191.9v5.1h-18.9v-29.3h18.5v5.1h-12.1v6.6h11.4v4.9h-11.4v7.6h12.5zM285.3 172.8v-5H307v5h-7.8V197h-6.3v-24.3h-7.6zM322.6 197.6c-2.9 0-7.1-.9-9.5-2l1.6-5.2c1.9.9 5.1 1.8 7.6 1.8 2.3 0 4.1-.8 4.1-3.2 0-2.2-2.3-3.6-5.5-5-3.9-1.8-7.3-3.5-7.3-9 0-4.9 4-7.9 9.5-7.9 2.5 0 5.2.6 8.2 1.7l-1.8 4.8c-2-.7-4.3-1.3-6.1-1.3-2.1 0-3.6.7-3.7 2.9 0 2 2.2 2.7 4.8 4.2 3.5 1.9 7.9 4.3 7.9 9.4.1 5.1-3.6 8.8-9.8 8.8z"/></g><path opacity=".25" d="M383.9 204l-2.6-5.3c-1.4-2.1-1.6-4.9-.5-7.1l3.1-3.4 7.4-7.4c.4-.6.7-1.2.9-1.8l1.3-1.4c2.2-3.3-.2-7.8-4.2-7.8l-20.1-3.3-8.6-1.7c-.5 0-.9 0-1.3.1l-.8-.1c-2.8 0-5-2.2-5-5s-2.3-5-5-5c0 0-21.7-1.2-50.9-2.4l26-96.9c.3-1.1.1-2.2-.4-3.1l-5.5-9.5c-.9-1.6-10.8-2.3-15.6-2-.9-.2-1.9-.1-2.8.5l-1.3.8-3.1-5.4c-.9-1.6-10.8-2.3-15.6-2-.9-.2-1.9-.1-2.8.5l-1.3.8-3.1-5.4c-.9-1.6-10.8-2.3-15.6-2-.9-.2-1.9-.1-2.8.5l-1.3.8-3.1-5.4c-.9-1.6-10.8-2.3-15.6-2-.9-.2-1.9-.1-2.8.5l-1.3.8-3.1-5.4c-.9-1.6-10.8-2.3-15.6-2-.9-.2-1.9-.1-2.8.5l-1.3.8-3.1-5.4c-.9-1.6-10.8-2.3-15.6-2-.9-.2-1.9-.1-2.8.5l-9.5 5.5c-1 .5-1.6 1.5-1.9 2.5l-2.6 9.7-4-2.3c-.7-.4-2.9.3-5.3 1.4l-.6.3c-.8.4-1.5.7-2.3 1.1-.4.2-.7.4-1.1.6-.4.2-.7.4-1 .6-.4.3-.8.5-1.2.7-1 .2-1.9.7-2.5 1.7l-.7 1.2-4.3-2.5c-.1 0-.2-.1-.3-.1h-.5-.1c-.1 0-.3 0-.4.1h-.1c-.2 0-.4.1-.6.1h-.1c-.4.1-.9.3-1.4.5v-.1c-.5.2-1.1.5-1.7.5h-.4v.2c-2 1-4.6 2.4-6.3 3.5-1 .2-1.8.8-2.4 1.7l-.6 1.2-4.3-2.5c-1.3-.7-8.1 2.5-11.6 4.8-1 .2-1.9.7-2.4 1.7l-.7 1.2-4.3-2.5c-1.3-.7-8.1 2.5-11.6 4.8-1 .2-1.9.7-2.5 1.7l-.7 1.2-4.3-2.5c-1.3-.7-8.1 2.5-11.6 4.8-1 .2-1.9.7-2.5 1.7l-4.5 7.9c-.5.8-.6 1.7-.3 2.6L96 153c-28.6 1.2-49.8 2.4-49.8 2.4-2.8 0-5 2.2-5 5s-2.3 5-5 5l-.8.1c-.4-.1-.9-.1-1.3-.1l-8.6 1.7-20.1 3.3c-4 0-6.4 4.5-4.2 7.8l1.3 1.4c.2.6.5 1.2.9 1.8l7.4 7.4 3.1 3.4c1.1 2.3 1 5-.5 7.1l-2.6 5.3-9.6 18c-2.2 3.3.2 7.8 4.2 7.8l1.9-.3c.6.2 1.3.3 2 .3l10.8-2.2 19-2.8c1.3 0 2.6-.5 3.6-1.5l7.1-7.1c.9-.9 2.2-1.5 3.6-1.5 0 0 26-1.5 58.7-2.8l5 18.8-3.7 14c-.3 1.1-.1 2.2.4 3.1l5.5 9.5c1.1 1.9 3.6 2.6 5.5 1.6 4.9.7 11.7.7 13-.1l1.3-.8 3.1 5.4c1.1 1.9 3.6 2.6 5.5 1.6 4.9.7 11.7.7 13-.1l1.3-.8 3.1 5.4c1.1 1.9 3.6 2.6 5.5 1.6 4.9.7 11.7.7 13-.1l1.3-.8 3.1 5.4c1.1 1.9 3.6 2.6 5.5 1.6 4.9.7 11.7.7 13-.1l1.3-.8 3.1 5.4c1.1 1.9 3.6 2.6 5.5 1.6 4.9.7 11.7.7 13-.1l1.3-.8 3.2 5.4c1.1 1.9 3.6 2.6 5.5 1.6 4.9.7 11.7.7 13-.1l9.5-5.5c1-.5 1.7-1.5 1.9-2.5l13-48.5h.4l5.6-21.1c33.1 1.4 59.4 2.9 59.4 2.9 1.3 0 2.6.5 3.6 1.5l8.6 8.6 23.1 3.2 8.8 1.8c.7 0 1.4-.1 2-.3l1.9.3c4 0 6.4-4.5 4.2-7.8L383.9 204z"/><g><path fill="#FFF" d="M375 157.8L52.4 244.3 25 142.2l322.6-86.5L375 157.8zM61.4 228.6l297.9-79.8-20.7-77.4-297.9 79.8 20.7 77.4z"/><g fill="#FFF"><path d="M93.1 201.6c-4.1 1.1-10.3 1.4-14.1.7l.3-8c3.1.5 7.9.7 11.5-.3 3.2-.9 5.5-2.7 4.6-6-.8-3.2-4.6-4.1-9.6-5-6.3-1.1-11.6-2.2-13.7-9.9-1.8-6.9 2.7-12.6 10.4-14.7 3.5-.9 7.6-1.2 12.2-.7l-.7 7.4c-3-.2-6.5-.2-9.1.5-3 .8-4.8 2.4-4.1 5.5.7 2.8 4.1 3 8.4 4.1 5.7 1.4 12.8 3.1 14.7 10.3 1.8 7.3-2.1 13.8-10.8 16.1zM138.8 166.4c2.9 10.8 1.8 22.4-11.1 25.9-12.8 3.4-19.4-6.1-22.3-16.9-2.9-10.9-1.7-22.5 11-25.9 12.9-3.5 19.5 6 22.4 16.9zm-8.6 2.3c-2.1-7.8-5.3-13.7-11.9-12-6.5 1.7-6.4 8.5-4.3 16.3 2.1 7.7 5.3 13.4 11.8 11.7 6.5-1.7 6.5-8.3 4.4-16zM173.5 171.5l1.9 7.2-24.7 6.6-11.1-41.3 9-2.4 9.1 34.1 15.8-4.2zM180 177.5l-11-41.2 11.6-3.1c4.6-1.2 8.1-2 11.3-1.3 6.8 1.5 11 8.6 13.3 16.9 2.2 8.2 2.1 16.5-3 21.1-2.5 2.2-5.9 3.4-10.5 4.6l-11.7 3zm6.8-10.4l3.1-.8c8.4-2.3 8.6-7.4 6.5-15.3s-4.9-12.2-13.3-10l-3.1.8 6.8 25.3zM254.9 135.3c2.9 10.8 1.8 22.4-11.1 25.9-12.8 3.4-19.4-6.1-22.3-16.9-2.9-10.9-1.7-22.5 11-25.9 12.9-3.5 19.5 6 22.4 16.9zm-8.5 2.3c-2.1-7.8-5.3-13.7-11.9-12-6.5 1.7-6.4 8.5-4.3 16.3 2.1 7.7 5.3 13.4 11.8 11.7 6.5-1.7 6.4-8.3 4.4-16zM268.3 149.6c-2.7-2.3-4.5-5.5-5.9-10.5l-7-26 9-2.4 6.9 25.7c.9 3.3 1.7 5.5 3.1 6.7 1.1 1 2.8 1.2 5.4.5 2.2-.6 3.9-1.7 4.3-3.2.7-1.6.3-4-.6-7.3l-6.9-25.7 9-2.4 7 26c1.3 5 1.4 8.6.1 12-1.7 3.8-5.8 6.5-10.9 8-5.2 1.4-10.2 1-13.5-1.4zM291.8 110.9l-1.9-7.1 30.6-8.2 1.9 7.1-10.9 2.9 9.2 34.2-8.9 2.4-9.2-34.2-10.8 2.9z"/></g></g></svg>