<svg xmlns="http://www.w3.org/2000/svg" viewBox="0 0 400 300"><g stroke="#243F60" stroke-width="2" stroke-miterlimit="10"><path fill="#5A9AC2" d="M196.5 25.3l-7.9-4.5c-1.6-.9-12.7 4.8-13.6 6.4l-.8 1.4-4.6-2.7c-1.6-.9-12.7 4.8-13.6 6.4l-.8 1.4-4.6-2.7c-1.6-.9-12.7 4.8-13.6 6.4l-.8 1.3-4.6-2.7c-1.6-.9-12.7 4.8-13.6 6.4l-.8 1.3-4.6-2.7c-1.6-.9-12.7 4.8-13.6 6.4l-.9 1.6-4.6-2.7c-1.6-.9-12.7 4.8-13.6 6.4l-4.5 7.9c-.5.8-.6 1.7-.3 2.6l50.4 187.9c.2.9.8 1.6 1.6 2.1l7.9 4.5c1.6.9 12.7-4.8 13.6-6.4l.8-1.4 4.6 2.7c1.6.9 12.7-4.8 13.6-6.4l.8-1.3 4.6 2.7c1.6.9 12.7-4.8 13.6-6.4l.8-1.3 4.6 2.7c1.6.9 12.7-4.8 13.6-6.4l.8-1.3 4.6 2.7c1.6.9 12.7-4.8 13.6-6.4l.8-1.4 4.7 2.7c1.6.9 12.7-4.8 13.6-6.4l4.6-7.9c.5-.8.6-1.7.3-2.6L198.1 27.4c-.2-.9-.8-1.6-1.6-2.1z"/><path fill="#DEC659" d="M174.6 27.2l-3.6 6.1c-1 1.6-3.1 2.2-4.7 1.3l-6.1-3.5c-1.6-.9-3.7-.4-4.7 1.3l-3.5 6.1c-.9 1.6-3.1 2.2-4.7 1.3l-6.1-3.5c-1.6-.9-3.7-.4-4.7 1.3l-3.5 6.1c-.9 1.6-3.1 2.2-4.7 1.3l-6.1-3.5c-1.6-.9-3.7-.4-4.7 1.3l-3.5 6.1c-.9 1.6-3.1 2.2-4.7 1.3l-6.1-3.5c-1.6-.9-3.7-.4-4.7 1.3L95 54.1c-.9 1.6-3.1 2.2-4.7 1.3l-6.1-3.5c-1.6-.9-3.7-.4-4.7 1.3L75 61.1c-.5.8-.6 1.7-.3 2.6l50.4 187.9c.2.9.8 1.6 1.6 2.1l7.9 4.5c1.6.9 3.7.4 4.7-1.3l3.5-6.1c.9-1.6 3.1-2.2 4.7-1.3l6.1 3.5c1.6.9 3.7.4 4.7-1.3l3.5-6.1c.9-1.6 3.1-2.2 4.7-1.3l6.1 3.5c1.6.9 3.7.4 4.7-1.3l3.5-6.1c.9-1.6 3.1-2.2 4.7-1.3l6.1 3.5c1.6.9 3.7.4 4.7-1.3l3.5-6.1c.9-1.6 3.1-2.2 4.7-1.3l6.1 3.5c1.6.9 3.7.4 4.7-1.3l3.5-6.1c.9-1.6 3-2.2 4.7-1.3l6.2 3.5c1.6.9 3.7.4 4.7-1.3l4.6-7.9c.5-.8.6-1.7.3-2.6L188.8 32.6c-.2-.9-.8-1.6-1.6-2.1l-7.9-4.5c-1.7-1-3.8-.4-4.7 1.2z"/><path fill="#5A9AC2" d="M184.1 52.1c-.5-1.8-2.4-2.9-4.2-2.4l-89.7 24c-1.8.5-2.9 2.4-2.4 4.2L129.1 232c.5 1.8 2.4 2.9 4.2 2.4l89.7-24c1.8-.5 2.9-2.4 2.4-4.2L184.1 52.1zM216 200.2c.5 1.8-.6 3.7-2.4 4.2l-74.4 19.9c-1.8.5-3.7-.6-4.2-2.4L98.1 84.4c-.5-1.8.6-3.7 2.4-4.2l74.4-19.9c1.8-.5 3.7.6 4.2 2.4L216 200.2z"/></g><path opacity=".15" d="M248.5 215.3L198.1 27.4c-.2-.9-.8-1.6-1.6-2.1l-7.9-4.5c-1.6-.9-12.7 4.8-13.6 6.4l-.8 1.4-4.6-2.7c-1.6-.9-12.7 4.8-13.6 6.4l-.8 1.4-4.6-2.7c-.6-.4-2.7.3-5.1 1.3l-41.7 138.3 21.6 80.5c.2.9.8 1.6 1.6 2.1l7.9 4.5c1.6.9 12.7-4.8 13.6-6.4l.8-1.4 4.6 2.7c1.6.9 12.7-4.8 13.6-6.4l.8-1.3 4.6 2.7c1.6.9 12.7-4.8 13.6-6.4l.8-1.3 4.6 2.7c1.6.9 12.7-4.8 13.6-6.4l.8-1.3 4.6 2.7c1.6.9 12.7-4.8 13.6-6.4l.8-1.4 4.7 2.7c1.6.9 12.7-4.8 13.6-6.4l4.6-7.9c.4-1 .5-2 .3-2.9z"/><g stroke="#243F60" stroke-width="2" stroke-miterlimit="10"><path fill="#5A9AC2" d="M326.1 52.2l-5.5-9.5c-1.1-2-16.1-2.6-18.1-1.5l-1.7 1-3.2-5.6c-1.1-2-16.1-2.7-18.1-1.5l-1.5.9-3.2-5.6c-1.1-2-16.1-2.7-18.1-1.5l-1.6.9-3.2-5.6c-1.1-2-16.1-2.7-18.1-1.5l-1.6.9L229 18c-1.1-2-16.1-2.7-18.1-1.5l-1.6.9-3.2-5.6c-1.1-2-16.1-2.7-18.1-1.5l-9.5 5.5c-1 .5-1.6 1.5-1.9 2.5L116 244.6c-.3 1.1-.1 2.2.4 3.1l5.5 9.5c1.1 2 16.1 2.7 18.1 1.5l1.6-.9 3.2 5.6c1.1 2 16.1 2.7 18.1 1.5l1.6-.9 3.2 5.6c1.1 2 16.1 2.7 18.1 1.5l1.6-.9 3.2 5.6c1.1 2 16.1 2.7 18.1 1.5l1.6-.9 3.2 5.6c1.1 2 16.1 2.7 18.1 1.5l1.6-.9 3.3 5.6c1.1 2 16.1 2.6 18.1 1.5l9.5-5.5c1-.5 1.7-1.5 1.9-2.5l60.6-226.1c.2-1.3.1-2.4-.5-3.4z"/><path fill="#DEC659" d="M302.1 41.2l-7.4 4.3c-2 1.1-4.5.5-5.6-1.5l-4.3-7.4c-1.1-2-3.7-2.7-5.7-1.5l-7.4 4.2c-2 1.1-4.5.5-5.7-1.5l-4.2-7.4c-1.1-2-3.7-2.7-5.7-1.5l-7.3 4.2c-2 1.1-4.5.5-5.7-1.5l-4.2-7.3c-1.1-2-3.7-2.7-5.7-1.5l-7.3 4.2c-2 1.1-4.5.5-5.7-1.5l-4.2-7.3c-1.1-2-3.7-2.7-5.7-1.5l-7.3 4.2c-2 1.1-4.5.5-5.7-1.5L193 12c-1.1-2-3.7-2.7-5.6-1.5l-9.5 5.5c-1 .5-1.6 1.5-1.9 2.5l-60.6 226.1c-.3 1.1-.1 2.2.4 3.1l5.5 9.5c1.1 2 3.7 2.7 5.7 1.5l7.4-4.2c2-1.1 4.5-.5 5.7 1.5l4.2 7.3c1.1 2 3.7 2.7 5.7 1.5l7.3-4.2c2-1.1 4.5-.5 5.7 1.5l4.2 7.3c1.1 2 3.7 2.7 5.7 1.5l7.3-4.2c2-1.1 4.5-.5 5.7 1.5l4.2 7.3c1.1 2 3.7 2.7 5.7 1.5l7.3-4.2c2-1.1 4.5-.5 5.7 1.5l4.2 7.3c1.1 2 3.7 2.7 5.7 1.5l7.4-4.2c2-1.1 4.5-.5 5.6 1.5l4.3 7.4c1.1 2 3.7 2.6 5.6 1.5l9.5-5.5c1-.5 1.7-1.5 1.9-2.5l60.6-226.1c.3-1.1.1-2.2-.4-3.1l-5.5-9.5c-1.1-1.8-3.6-2.5-5.6-1.4z"/><path fill="#5A9AC2" d="M297.1 72.7c.6-2.2-.7-4.5-2.9-5.1l-108-28.9c-2.2-.6-4.5.7-5.1 2.9l-49.7 185.5c-.6 2.2.7 4.5 2.9 5.1l107.9 28.9c2.2.6 4.5-.7 5.1-2.9l49.8-185.5zm-56 173.5c-.6 2.2-2.9 3.5-5.1 2.9l-89.5-24c-2.2-.6-3.5-2.9-2.9-5.1L188 54.6c.6-2.2 2.9-3.5 5.1-2.9l89.5 24c2.2.6 3.5 2.9 2.9 5.1l-44.4 165.4z"/></g><path opacity=".15" d="M119.6 233h159.8l13.2-50H106.8l13 48.7z"/><path fill="#CCC" d="M392.3 169.7l-30.8-5c-2.8 0-5-2.3-5-5 0-2.8-2.3-5-5-5 0 0-92.1-5-151.4-5s-151.4 5-151.4 5c-2.8 0-5 2.2-5 5s-2.3 5-5 5l-30.8 5c-4 0-6.4 4.5-4.2 7.8l13 14.4c1.1 1.7 1.1 3.9 0 5.6L3.5 222c-2.2 3.3.2 7.8 4.2 7.8l33.7-5c1.3 0 2.6-.5 3.6-1.5l7.1-7.1c.9-.9 2.2-1.5 3.6-1.5 0 0 88.1-5 144.3-5s144.3 5 144.3 5c1.3 0 2.6.5 3.6 1.5l8.6 8.6 35.8 5c4 0 6.4-4.5 4.2-7.8l-13-24.5c-1.1-1.7-1.1-3.9 0-5.6l13-14.4c2.2-3.3-.2-7.8-4.2-7.8z"/><path fill="#FFF" d="M349.4 214.7s-73.9-5-149.4-5-149.4 5-149.4 5c-3.9 0-7.1-3.2-7.1-7.1v-45.9c0-3.9 3.2-7.1 7.1-7.1 0 0 87.1-5 149.4-5s149.4 5 149.4 5c3.9 0 7.1 3.2 7.1 7.1v45.9c0 3.9-3.2 7.1-7.1 7.1z"/><g fill="#F2F2F2"><path d="M5.7 180.8l10 10a7.1 7.1 0 0 1 0 7.9l-10 20c-3.2 4.7.2 11.1 5.9 11.1l24.8-5c3.9 0 7.1-3.2 7.1-7.1v-45.9c0-3.9-3.2-7.1-7.1-7.1l-24.8 5c-5.7 0-9.1 6.4-5.9 11.1zM388.4 169.7l-24.8-5c-3.9 0-7.1 3.2-7.1 7.1v45.9c0 3.9 3.2 7.1 7.1 7.1l24.8 5c5.7 0 9.1-6.4 5.9-11.1l-10-20a7.1 7.1 0 0 1 0-7.9l10-10c3.2-4.7-.2-11.1-5.9-11.1z"/></g><g fill="#C5473D"><path d="M79.9 175.5c0 2.1-.5 4-2.9 5.4 3.5 1.6 4.5 3.7 4.5 7.1 0 5.4-3.1 8.9-10.2 8.9h-9.6v-29.3h6.4c3.9 0 6.5.1 8.8 1.6 2.1 1.5 3 3.8 3 6.3zM68 179.1h2.9c1.8-.1 2.9-1.1 2.9-3.6 0-3.1-2-3.2-4.9-3.2H68v6.8zm7.4 8.8c0-3.5-2.3-4.2-5.4-4.2h-2v8.3h2.6c3.7 0 4.8-1.7 4.8-4.1zM92 194.2c-1.4-2-2-4.4-2-8v-18.5h6.4V186c0 2.4.1 3.9.9 5 .6.9 1.6 1.3 3.5 1.3 1.6 0 2.9-.4 3.4-1.4.7-1 .9-2.6.9-4.9v-18.2h6.4v18.5c0 3.6-.6 6-2.1 8-1.8 2.2-5 3.3-8.6 3.3-3.8-.1-7.1-1.2-8.8-3.4zM130.3 180.2l6-12.5h6.4l-9.2 17.7V197h-6.3v-11.6l-9.2-17.7h6.4l5.9 12.5zM157.7 172.8v-5h21.7v5h-7.8V197h-6.3v-24.3h-7.6zM193.3 197H187v-29.3h6.3V197zM221.7 196.8c-2.1.5-4.4.8-6.8.8-6.7 0-12.7-3.6-12.7-15.3 0-11.6 6.8-15 13.2-15 2.5 0 4.3.3 6.6 1l-1 4.5c-1.6-.3-3.2-.5-4.6-.5-4.3 0-7.7 2.1-7.7 9.9 0 8 3.4 10.2 7.9 10.2 1.4 0 3.1-.1 4.7-.4l.4 4.8zM236.8 197h-6.3v-29.3h6.3V197zm9.5-29.3h7.5l-9.1 14.1 11 15.2H248l-10.2-15 8.5-14.3zM281.6 191.9v5.1h-18.9v-29.3h18.5v5.1h-12.1v6.6h11.4v4.9h-11.4v7.6h12.5zM288.3 172.8v-5H310v5h-7.8V197h-6.3v-24.3h-7.6zM325.6 197.6c-2.9 0-7.1-.9-9.5-2l1.6-5.2c1.9.9 5.1 1.8 7.6 1.8 2.3 0 4.1-.8 4.1-3.2 0-2.2-2.3-3.6-5.5-5-3.9-1.8-7.3-3.5-7.3-9 0-4.9 4-7.9 9.5-7.9 2.5 0 5.2.6 8.2 1.7l-1.8 4.8c-2-.7-4.3-1.3-6.1-1.3-2.1 0-3.6.7-3.7 2.9 0 2 2.2 2.7 4.8 4.2 3.5 1.9 7.9 4.3 7.9 9.4.1 5.1-3.6 8.8-9.8 8.8z"/></g></svg>