<svg xmlns="http://www.w3.org/2000/svg" viewBox="0 60.3 300 179.3"><path opacity=".25" fill="#162636" d="M292.6 77.7h-6.9c-2-2.8-3.2-6.3-3.2-10l-7.3-7.3-9.8 7.3H24.7c0 9.6-7.8 17.4-17.4 17.4v125.8l-7.3 4 7.3 7.4c5.5 0 10.4 2.6 13.6 6.6l-3.5 3.4 7.4 7.4h258c0-9.6 7.8-17.4 17.4-17.4V85.1l-7.6-7.4z"/><path fill="#FFF" d="M292.6 215V77.7c-9.6 0-17.4-7.8-17.4-17.3H17.4C17.4 70 9.6 77.7 0 77.7V215c9.6 0 17.4 7.8 17.4 17.4h258c-.1-9.7 7.6-17.4 17.2-17.4z"/><path fill="#162636" d="M269.1 65.1c.5 4.3 2.4 8.3 5.6 11.3 3.3 3.1 7.7 4.9 12.5 5.4v129.1c-4.9.4-9.3 2.2-12.5 5.4-3.2 3-5.1 7-5.6 11.4H23.6c-.5-4.4-2.4-8.4-5.6-11.4-3.3-3.1-7.7-5-12.6-5.4V81.8c4.8-.4 9.3-2.2 12.6-5.4 3.2-3 5.1-7 5.6-11.3h245.5m1.8-1.9h-249c0 9.2-7.5 16.8-18.2 16.8v132.6c10.8 0 18.2 7.5 18.2 16.8h249c0-9.2 7.5-16.8 18.2-16.8V80c-10.7 0-18.2-7.5-18.2-16.8z"/><path fill="#162636" d="M35.1 154.1c.5 0 .8 0 1.1.1 1.5.1 2.2.5 2.4.6 0 .1.1.1.2.1.9.6 2.8 1.8 4.6 4.5 0 .1.2.2.2.4 1.4 1.8 1.8 3.9 2 5.6.3 2.7.9 5.3 1.5 7.9.1.4.2.8.2 1.2.3 1.6.5 3.1.3 4.6-.2 1.6-.6 3.1-1.3 4.4-.8 1.7-2.2 2.7-3.3 3.4l-.7.9c-1 1.3-2.2 1.6-3.2 1.9-.1 0-.2.1-.3.1-.7.1-1.4.1-2.1.1-1.3 0-2.8-.2-4.2-.6-2-.6-3.4-1.9-3.9-3.7-.2-.8-.5-1.5-.9-2.3-.1-.2-.1-.4-.2-.6-.2-.5-.4-1-.5-1.5h-.3c-.3 0-.6-.1-.9-.2-.6-.4-1.1-1-1.5-1.8-.5-1.1-1-2.3-1.5-3.5-.4-.6-.5-1.4-.5-2.1 0-.5.1-.9.4-1.3 0-.1.1-.1.2-.2v-.1c0-.1-.8-1.3-1.4-2.9-.9-2.3-1.2-4.1-.9-5.5.4-1.6 1.4-3.1 2.9-4.6 1.5-1.4 3.4-2.7 5.5-3.6 1.1-.5 2.2-.8 3.4-1 .9-.2 1.9-.3 2.7-.3m0-4.3c-1.2 0-2.5.1-3.7.4-1.4.3-2.9.7-4.2 1.3-2.6 1.1-5 2.7-6.9 4.5-2 2-3.4 4.2-4 6.5-.6 2.3-.3 5.1 1 8.3.2.6.5 1.1.7 1.6 0 .4-.1.8-.1 1.1 0 1.5.3 3 1 4.4.5 1 1 2.1 1.4 3.1.7 1.7 1.8 3 3.2 3.8 0 .1.1.2.1.4.3.6.5 1.2.7 1.7 1 3.3 3.4 5.7 6.9 6.8 1.8.5 3.6.8 5.4.8 1 0 1.9-.1 2.8-.2.2-.1.3-.1.5-.1.9-.2 3.7-.7 5.8-3.5l.2-.4c1.3-1 3-2.5 4.2-4.7 1-1.9 1.5-3.9 1.8-6 .2-1.9 0-3.9-.4-5.9-.1-.4-.2-.8-.2-1.2v-.1c-.5-2.5-1.2-5.1-1.4-7.5-.2-1.9-.7-4.8-2.5-7.4-.1-.2-.2-.3-.3-.5-2.3-3.3-4.8-5-5.8-5.6 0-.1-.1-.1-.2-.1-1.1-.8-2.6-1.2-4.5-1.3-.4-.2-.9-.2-1.5-.2z"/><g fill="#162636"><path d="M265.7 154.8c.7 0 1.4.2 1.8.6.8.8.6 1.7.5 2.3.4-.1.6-.2 1-.2.6 0 1.1.2 1.5.6.5.4.7 1.1.6 1.7 0 .4-.2.8-.4 1.1-.6 1.2-1.5 2.2-2.4 3.2.2-.1.5-.1.8-.1.8 0 1.4.4 1.9 1s.6 1.3.4 2c-.1.5-.5.8-.6 1.1-.9 1.2-2 2.1-3 2.9-.6.6-1.2 1.1-1.8 1.6-.7.8-1.4 1.5-2.1 2.4-1 1.1-2 2.4-3.1 3.4-1.1.9-2.1 2.1-3.1 3.6-1 1.4-1.4 2.9-1.2 4.4 0 .8 0 2.1-1.8 2.4-1.7.4-3.2.6-4.8.6h-.5c-1.4 0-2.9-.1-4.8-.6-1.6-.3-1.9-1.5-1.8-2.3.1-2.8-.8-4.5-3.4-6.4l-.9-.6c-.6-.5-1.3-.9-1.9-1.4s-1.4-1.2-1.4-2.2c-.1-.9.5-1.7 1.1-2.4.8-.8 1.6-1.4 2.4-2.1l.2-.2c.1-.1.2-.1.4-.2 1.4-1 2.8-2 3.6-3.4.4-.8 1.1-.9 1.4-.9h.2c.1-.3.4-.6.7-.7s.6-.2.8-.2c.1 0 .1-.1.2-.1.7-.3 1.4-.8 2.1-1.2.2-.2.4-.3.7-.5 1.1-.8 1.9-1.2 2.9-1.2 1.1 0 2.1.7 3 1.4l.1.1c.1 0 .1-.1.3-.3 1.2-1.2 2.4-2.5 3.5-3.7 1.4-1.4 2.6-2.8 4-4.2.6-.6 1.3-1.2 2.3-1.5.1.2.4.2.6.2m-.1 1.2c.1 0 .1 0 0 0m.5.1c0-.1 0-.1 0 0 0-.1 0-.1 0 0M268.8 158.8c.1 0 .1 0 0 0 .1 0 .1 0 0 0 .1 0 .1 0 0 0M269.2 158.9c-.1-.1 0 0 0 0m.2 0s-.1 0 0 0m-1.7.3c.1-.1.4-.2.5-.3-.2.1-.3.2-.5.3M256 165c.7-.7 1.4-1.3 2-2l-2 2m-4.5-.8h0c.1 0 .1 0 0 0m.4 0h-.1.1m-.5 0h-.1.1m.7 0c-.1 0-.1 0-.1-.1l.1.1m-1 0c.1 0 .1-.1.1-.1l-.1.1m-.2.1c-.1 0-.1.1-.1.1.1 0 .1 0 .1-.1m1.4.1c.1 0 .1 0 0 0 .1 0 .1 0 0 0 0 0-.1 0 0 0 0-.1 0-.1 0 0m-1.7 0s0 .1 0 0c0 .1 0 0 0 0 .1 0 .1-.1.1-.1l-.1.1m2 .1c-.1 0-.1-.1-.1-.1.1 0 .1 0 .1.1m-2.4.1c.1 0 .1 0 .2-.1 0 .1-.1.1-.2.1m2.7 0h-.1.1m-3 .3c.1-.1.1-.1.2-.1 0 0-.1 0-.2.1m3.3 0l-.1-.1.1.1m-3.4 0c-.1.1-.2.2-.4.2.2-.1.3-.1.4-.2M268.9 165.2c-.1 0 0 0 0 0h.1-.1m.3.1c0-.1 0-.1 0 0 0-.1 0-.1 0 0m-.6 0h.1-.1m-12.9 0s0 .1 0 0c0 .1 0 .1 0 0 0 .1 0 .1 0 0 0 .1 0 0 0 0m12.6.1s.1 0 .2-.1c0 .1-.1.1-.2.1m1.2 0h-.1.1m.2.1c.1 0 .1 0 0 0 .1 0 .1 0 0 0m-15.5.1c-.1 0-.1-.1-.1-.1l.1.1m1 .1c-.1 0-.1 0 0 0-.1 0-.1 0 0 0m-.7.1c-.1 0-.1 0-.1-.1l.1.1m.2 0c-.1 0-.1 0 0 0M270.1 166.5v-.2.2m-19 1.4h-.1.1m.3.1c-.1 0-.1-.1-.1-.1l.1.1m.2.1c-.1 0-.1-.1-.1-.1 0 .1.1.1.1.1m-7.6 0c.1 0 .1 0 0 0 .1 0 .1 0 0 0 .1 0 .1 0 0 0 .1 0 .1 0 0 0m0 0s-.1 0 0 0c-.1 0-.1 0 0 0M243.9 168.2c0-.1 0 0 0 0m7.9.1c-.1-.1 0-.1 0 0m-7.4-.1c-.1 0-.1 0 0 0-.1 0-.1 0 0 0m-.7.2c.1-.1.1-.1.1-.2 0 0 0 .1-.1.2m8.2 0s0 .1 0 0c0 .1 0 0 0 0m.1.3c0-.1 0-.1 0 0 0-.1 0-.1 0 0m-4 .4s-.1 0 0 0c-.1 0-.1 0 0 0-.1 0-.1 0 0 0-.1 0 0 0 0 0m-1.1 1.6c-.4 0-.8-.1-1.1-.3-.3.9-.9 1.8-1.6 2.6-.4.5-.4.9-.2 1.2.1.1.1.3 1 .3h.1c1.1-.1 2.4-.6 3.5-1.4 1.1-.8 1.9-2 2.2-3 .1-.3.1-.6.1-.9v-.1h-.1-.1c-.4.1-.8.3-1.2.6-.1.1-.3.2-.5.3l-.1.1c-.5.2-1.1.6-2 .6m.7-1.5s0 .1 0 0c0 .1 0 0 0 0m-1.1.2c-.1-.1-.1-.1 0 0-.1-.1-.1-.1 0 0m1-.1c0 .1-.1.1 0 0-.1.1 0 .1 0 0M247 169.4c-.1 0-.1 0 0 0-.1 0-.1 0 0 0-.1 0-.1 0 0 0-.1 0-.1 0 0 0m-2.3.5c.1-.2.1-.3.1-.4 0 .1 0 .2-.1.4m5.9 3c.2-.2.4-.4.5-.7-.2.3-.3.6-.5.7m11.2 2.5c.6-.8 1.2-1.5 1.9-2.2-.7.7-1.2 1.4-1.9 2.2m-18.7-.3s-.1 0 0 0c-.1 0-.1 0 0 0m4.4.1c-.1.1-.2.1-.4.1.1.1.3 0 .4-.1m-4.2.2c-.1 0-.1 0-.1-.1 0 .1 0 .1.1.1m.3.1h-.1.1m.2.1c.1 0 .1.1.1.1l-.1-.1m.3.2c-.1 0-.1 0-.1-.1l.1.1m.3 0h.1-.1m.4.1h-.1.1m15 1.5c.5-.4.9-.8 1.4-1.3-.4.4-.9.9-1.4 1.3m-3.7 4.5c.1-.2.2-.4.4-.6.2-.4.5-.7.8-1.1-.2.3-.5.7-.8 1.1-.1.1-.3.3-.4.6m-1.1 3.9c0-.9.1-1.8.5-2.7-.3.8-.5 1.8-.5 2.7m.1 1.1v-.2.2m-2 .9s.1 0 0 0c.1 0 0 0 0 0m-6 .1h-.1.1M249.2 188.1h.6H249.2c-.1 0 0 0 0 0m16.5-37.7c-.6 0-1.2.1-1.9.2-2 .5-3.4 1.7-4.3 2.6-1.5 1.4-2.8 2.8-4.1 4.2-.4.5-.9 1-1.4 1.4-.7-.2-1.6-.4-2.4-.4-2.1 0-3.9.9-5.4 1.9-.2.2-.5.4-.8.6-.4.2-.7.5-1 .6-.4.1-.9.2-1.5.6-.3.2-.6.3-.8.5-1.4.4-2.6 1.5-3.4 2.9-.3.5-1.3 1.2-2.3 2l-.4.2v.3c-.9.6-2.1 1.4-3.1 2.6-.6.6-2.6 2.7-2.4 5.8.2 3 2.4 4.7 3.1 5.2.8.6 1.5 1.1 2.2 1.5l.9.6c1.6 1.1 1.6 1.5 1.6 2.5-.2 3.5 2 6.2 5.4 6.9 2.1.4 3.9.6 5.6.6h.4c1.9 0 3.7-.2 5.8-.6 3.4-.8 5.6-3.6 5.2-7.2 0-.3 0-.8.5-1.5.8-1.2 1.6-2.1 2.4-2.8 1.4-1.2 2.5-2.6 3.6-3.9.7-.8 1.2-1.5 1.9-2.1.5-.4 1-.9 1.5-1.4 1.1-.9 2.4-2 3.5-3.5.3-.4 1-1.2 1.4-2.4.6-2 .4-4.1-.8-5.7.2-.5.5-1.3.7-2.2.3-2.1-.5-4.2-2-5.6-.5-.4-1.1-.9-1.7-1.1-.3-.5-.6-1-1-1.4-1.4-1.3-3.2-1.9-5-1.9zm-18.5 17l.6-2.2h.1l-.8 2.2h.1zm.1.1l1.1-2.2c.1 0 .1.1.1.1l-1.2 2.1zm-1.9 2l-.8-.6 1.1.6h-.3zm5.4.3v2.4-2.4zm-3.9.8l-.2-.1.2.1z"/><path d="M233.6 162.1c.1 0 .1 0 0 0h.2c.2 0 .6.1 1 .1.4.1.9.1 1.4.2.5.1 1 .2 1.5.4s1 .3 1.5.6c.4.2.9.4 1.2.7.4.2.6.4.9.6.1.1.2.1.2.1l.1.1h-.1-.2-.1c-.2 0-.6-.1-1-.1-.4-.1-.9-.1-1.4-.2-.5-.1-1-.2-1.5-.4s-1-.3-1.5-.6c-.4-.2-.9-.4-1.2-.7-.4-.2-.6-.4-.9-.6 0 0-.1-.1-.1-.2h-.2.2m.1-4.3h-.4l-10.1.9 7.4 6.8s.1.1.3.2l.1.1c.1.1.2.1.4.2.2.2.6.4 1.2.8.5.3 1.1.6 1.6.8s1.2.5 1.9.8c.7.2 1.4.4 1.9.6.6.1 1.2.2 1.8.4.6.1 1.1.1 1.4.1h1l9.9-.9-7.4-6.8s-.1-.1-.3-.2h-.1c-.1-.1-.2-.2-.4-.2-.2-.2-.6-.5-1.2-.8-.5-.3-1.1-.5-1.6-.8-.6-.2-1.2-.5-1.9-.8-.7-.2-1.4-.4-1.9-.6l-1.8-.3c-.6-.1-1.1-.1-1.4-.2-.2-.2-.3-.2-.4-.1z"/><path d="M240.9 155.5s0 .1.1.1c.1.1.1.1.1.2.1.2.4.5.6.9.2.3.4.8.6 1.2.2.4.4 1 .6 1.5.1.5.3 1 .4 1.5.1.5.2 1 .2 1.4.1.4.1.8.1 1v.4s0-.1-.1-.1c-.1-.1-.1-.1-.1-.2-.1-.2-.4-.5-.6-.9-.2-.3-.4-.8-.6-1.2-.2-.4-.4-1-.6-1.5-.1-.5-.3-1-.4-1.5-.1-.5-.2-1-.2-1.4-.1-.4-.1-.8-.1-1v-.3-.1m-3.3-10.5l-1.1 10.2v.8c0 .3.1.8.1 1.4.1.6.1 1.2.3 1.8.1.6.3 1.2.5 1.9s.4 1.3.7 1.9c.2.6.5 1.1.8 1.6.3.6.6.9.8 1.2.1.1.1.2.2.4h.1c.1.2.2.3.2.3l6.6 7.5 1.1-10v-.5-.4c0-.3-.1-.8-.1-1.4-.1-.6-.1-1.2-.3-1.8-.1-.6-.3-1.2-.5-1.9s-.4-1.3-.7-1.9c-.2-.6-.5-1.1-.8-1.6-.3-.6-.6-1-.8-1.2l-.2-.4-.1-.1c-.1-.2-.2-.3-.2-.3l-6.6-7.5z"/><path d="M247.6 156.6v.1c0 .1 0 .1.1.2 0 .2.1.4 0 .8 0 .3-.1.7-.1 1.1s-.1.8-.2 1.1c-.1.4-.2.8-.4 1.1s-.3.6-.5.9c-.1.2-.3.5-.4.7-.1 0-.1.1-.1.1l-.1.1v-.1c0-.1 0-.2-.1-.2 0-.2-.1-.4 0-.8 0-.3.1-.6.1-1 .1-.4.1-.8.2-1.2s.2-.8.4-1.1c.1-.4.3-.7.5-1 .1-.2.3-.5.4-.6.1 0 .2-.1.2-.2m2.6-8.6l-5.6 5.4-.3.3-.1.1c-.1.1-.1.2-.2.3-.2.4-.5.7-.8 1.1-.3.4-.6.9-.8 1.4s-.4 1.1-.6 1.6c-.1.6-.3 1.1-.4 1.7-.1.6-.1 1.1-.1 1.6s0 .9.1 1.3c0 .1.1.3.1.4v.1c0 .2.1.3.1.4l1.7 7.8 5.7-5.5.3-.3h.1c.1-.1.1-.2.2-.3.2-.3.5-.7.8-1.1.2-.4.6-.9.8-1.4s.4-1.1.6-1.6c.2-.6.3-1.1.4-1.7.1-.6.1-1.1.1-1.6 0-.4 0-.9-.1-1.4 0-.1-.1-.3-.1-.4v-.1c0-.2-.1-.3-.1-.4l-1.8-7.7z"/></g><path fill="#162636" d="M144.5 74.8c10.4 0 104.8 16.2 109.4 23.5s6.4 11.9 6.4 48.1-1.8 40.8-6.4 48.1c-4.6 7.3-98.9 23.5-109.4 23.5-10.4 0-104.8-16.2-109.3-23.5-4.7-7.4-6.4-11.9-6.4-48.1s1.8-40.8 6.3-48.1 99-23.5 109.4-23.5m0-4.5c-5.9 0-32.8 4.2-57.7 9.1-14.1 2.8-26.3 5.4-35.2 7.8-16.3 4.2-19 6.6-20.2 8.6-5.4 8.5-7 14.2-7 50.5 0 36.2 1.7 42 7.1 50.4 1.3 2.1 3.9 4.4 20.2 8.6 8.9 2.4 21.1 5.1 35.2 7.8 24.8 4.9 51.8 9.1 57.7 9.1s32.8-4.2 57.7-9.1c14.1-2.8 26.3-5.5 35.2-7.8 16.2-4.3 18.9-6.6 20.2-8.6 5.4-8.4 7-14.2 7-50.4s-1.7-42-7-50.5c-1.3-2-3.9-4.3-20.1-8.6-8.9-2.4-21-5.1-35.2-7.9-25-4.7-52-9-57.9-9z"/><path fill="#DC4339" d="M253.9 98.2c-4.6-7.3-98.9-23.5-109.4-23.5-10.4 0-104.8 16.2-109.3 23.5-4.7 7.3-6.4 11.9-6.4 48.1s1.8 40.8 6.3 48.1c4.6 7.3 98.9 23.5 109.3 23.5s104.8-16.2 109.3-23.5c4.6-7.3 6.4-11.9 6.4-48.1.1-36.2-1.6-40.7-6.2-48.1z"/><path fill="#162636" d="M232.8 116.2c-2.3-3.8-5.7-7-10.1-9.8-3.2-2-6.9-3.6-10.4-4.9l17.2-14.3 2.8-2.4-2.4-2.9-1.9-2.2c-7.3-8.6-18.5-13-33.2-13-1.6 0-3.3.1-5 .2-5.1.3-15.1 1.4-23.6 5.1-2.2 1-4.4 2.1-6.2 3.4l-.9.6-13.2 9.5c-.4.3-.8.5-1.2.9v-.6l-1.1-1-15-15-1-1h-3.7c-7.8-.2-15.7-.5-23.5-.9l-2.4-.1-3.8-.2V126c0 .6 0 1.5-.5 2.1-.9 1.1-3.2 1.9-6.5 2h-.5c-3.7 0-6.7-1.7-9.8-5.5l-1.1-1.3-1.8-2.2-2.6 1.2-1.5.7c-6.6 3-13.1 6-19.3 9l-2.4 1.1-3.9 1.9 2.5 3.5 1.5 2.1 2.9 3.6 11.5 12.2h.1c10.4 10.1 21 14.2 36.4 14.2 1.5 0 3 0 4.5-.1 5.7-.2 16.5-1.4 25.5-6.1 2.4-1.2 4.6-2.8 6.5-4.4 3.7 2.3 7.9 4.3 12.6 5.8 7 2.2 15 3.5 24.8 4.2 1.7.1 3.5.1 5.2.1 5.4 0 15.8-.5 24.7-4.3 11.1-4.8 25.1-19.1 26.3-20.3 4.6-4.4 7-10.1 7-16.6 0-4.6-1.2-8.9-3.5-12.7zm-96.6 25.6l.2-23 6.5-5.5 25.2 18-31.9 10.5z"/><path fill="#162636" d="M125.9 72.4l-13.1 13.9v54.5c.1 1.8.2 7.4-10.5 7.8h-.7c-4.8 0-8.8-2.1-12.6-6.8l-1.1-1.3-1.6.7c-6.6 3-26.3-2.6-32.5.4l11.5 12.2c9 8.7 18.3 13.2 33.8 13.2 1.4 0 2.8-.1 4.3-.1 5.3-.2 15.6-1.3 24-5.7 8.8-4.6 13.4-11.7 13.4-20.6V87.4l-14.9-15z"/><path fill="#162636" d="M202.9 124.6c-6.6-4-14.6-6.3-21.1-8.1-2.4-.7-3.6-.9-5.9-1.6-.6-.2-1.4-.3-2.1-.5-4.1-1-10.8-2.7-10.7-6.3 0-.5.1-2.1 2.9-3.3 1.6-.8 4-1.2 6.2-1.3h.7c5.4 0 9.6 1.8 12.6 5.4l1.1 1.3 1.6-.7c6.3-2.9 12.4-5.8 18.4-8.8l2.6-1.3 17.9-15c-6.7-7.8-36.9 1-50.4 1-1.6 0-14.8-7-14.8-7l-14.1 10.1c-8.3 5.8-12.5 12.2-12.5 20.1 0 7.1 3.6 12.9 10.9 17.3 5.9 3.6 13 5.7 18.7 7.3l.4.1c2.4.7 3.6 1 5.9 1.7.7.2 1.6.4 2.4.6 4.9 1.3 13.2 3.4 13.1 7.8 0 .8-.1 2.6-4.2 3.9-2.2.7-5.2 1.1-8.9 1.1h-.6c-8.6-.1-20.1-11.2-20.1-11.2l-8.1-5.4-17.9 15 2 2.4c4.8 6 11.8 10.5 20.8 13.3 6.6 2.1 14.4 3.4 23.9 3.9 1.6.1 3.3.2 5 .2 6.4 0 15.6-.8 23.2-4.1 10.9-4.6 25.2-19.6 25.2-19.6s-16.2-13.5-24.1-18.3z"/><path fill="#FFF" d="M100.2 71.5l-2.3-.1V126c.1 1.8.2 7.3-10.5 7.8h-.7c-4.8 0-8.8-2.1-12.6-6.8l-1.1-1.3-1.6.7c-6.6 2.9-13 5.9-19.2 8.9l-2.3 1.1 1.5 2.2c6.2 9.1 17.3 13.7 32.9 13.7 1.4 0 2.8-.1 4.3-.1 5.3-.2 15.6-1.4 24-5.7 8.8-4.6 13.4-11.7 13.3-20.6V72.4h-2.2c-7.8-.2-15.7-.5-23.5-.9zM220.9 109.6c-6.6-4-14.6-6.3-21.1-8.1-2.4-.7-3.6-1-5.9-1.6-.6-.2-1.4-.3-2.1-.6-4.1-1-10.8-2.6-10.7-6.3 0-.5.1-2 2.9-3.3 1.6-.8 4-1.2 6.2-1.3h.7c5.4 0 9.6 1.8 12.6 5.4l1.1 1.3 1.6-.7c6.3-2.9 12.4-5.8 18.4-8.8l2.6-1.3-1.9-2.2c-6.7-7.8-17-11.8-30.6-11.8-1.6 0-3.1.1-4.8.2-4.9.3-14.4 1.3-22.4 4.8-9.3 4-14.2 10.3-14.2 18.2 0 7 3.6 12.9 10.9 17.3 5.9 3.6 13 5.7 18.7 7.3l.4.1c2.4.7 3.6 1 5.9 1.7.7.2 1.6.4 2.4.7 4.9 1.3 13.2 3.5 13.1 7.7 0 .8-.1 2.7-4.2 4-2.2.7-5.2 1-8.9 1h-.6c-8.6-.1-16.2-3.2-21.6-8.9l-1-1-6.4 2.2c-4.8 1.7-9.5 3.4-14.2 5.1l-2.9 1.1 2 2.4c4.8 5.9 11.8 10.4 20.8 13.3 6.6 2.1 14.4 3.4 23.9 3.9 1.6.1 3.3.1 5 .1 6.4 0 15.6-.7 23.2-4 8.6-3.8 13.1-10.2 13.1-18.6-.1-7.8-4.1-14.4-12-19.3z"/><g fill="#162636"><path d="M74.3 180.7H79c2.2 0 3.6 1.4 3.6 3.2 0 1.1-.7 1.9-1.7 2.2 1.7.4 2.4 1.5 2.4 3 0 2.1-1.6 3.8-4.1 3.8h-4.9v-12.2zm4.4 4.5c.8 0 1.3-.4 1.3-1.2 0-.7-.4-1.1-1.2-1.1h-2.1v2.3h2zm.4 5.4c1 0 1.7-.7 1.7-1.7s-.7-1.7-1.8-1.7h-2.2v3.3h2.3zM88.3 188.5v-7.8h2.5v7.6c0 1.8.8 2.4 2.4 2.4 1.7 0 2.4-.7 2.4-2.4v-7.6h2.5v7.8c0 3.1-2.2 4.5-4.9 4.5-2.8 0-4.9-1.5-4.9-4.5zM107.6 189l-4.6-8.3h2.8l2.2 3.9c.4.8 1 2.3 1 2.3s.5-1.4.9-2.3l2.1-3.9h2.6l-4.3 8.1v4.1h-2.5c-.2 0-.2-3.9-.2-3.9zM129.2 182.9h-3.4v-2.2h9.4v2.2h-3.4v10h-2.5l-.1-10zM140.3 180.7h2.5v12.2h-2.5v-12.2zM148.2 186.8c0-3.6 2.8-6.2 6.2-6.2 2.2 0 3.8.8 4.9 2.5l-1.9 1.4c-.6-1-1.6-1.6-2.9-1.6-2.2 0-3.7 1.7-3.7 3.9 0 2.3 1.5 4 3.7 4 1.6 0 2.4-.8 3.1-1.8l1.9 1.4c-1.1 1.6-2.8 2.7-5.1 2.7-3.5-.1-6.2-2.7-6.2-6.3zM168 185l3.2-4.3h2.9l-4.1 5.5 4.6 6.7h-3l-3.2-4.8-1.2 1.4v3.4h-2.5v-12.1h2.5v4.2c0 .6-.1 1.4-.1 2.1.1-.8.5-1.6.9-2.1zM179.4 180.7h8.1v2.2h-5.6v3.9h4.9v2.1h-4.9v1.8h5.8v2.2h-8.3v-12.2zM196.1 182.9h-3.4v-2.2h9.4v2.2h-3.4v10h-2.5l-.1-10zM206 190.5l2.1-1.2c.6.9 1.2 1.5 2.4 1.5 1.1 0 1.7-.5 1.7-1.2 0-.9-.7-1.1-1.9-1.6l-.6-.2c-1.8-.8-3-1.8-3-3.8 0-1.9 1.4-3.3 3.6-3.3 1.6 0 2.8.6 3.6 2l-1.9 1.2c-.4-.8-.9-1.1-1.6-1.1-.8 0-1.2.4-1.2 1.1 0 .8.4 1.1 1.6 1.5l.6.2c2.1.9 3.4 1.9 3.4 4 0 2.2-1.8 3.5-4.1 3.5-2.5-.1-4-1.2-4.7-2.6z"/></g><g><path fill="#FFF" d="M44.7 165.4c.3 3.2 1.1 6.2 1.8 9.3.7 2.9.5 5.7-.9 8.4-.8 1.4-2 2.4-3.2 3.2-.2.1-.4.2-.5.2h-.3c-.1 0-.2.1-.3.1-.5.1-1.2.4-1.2.4l1 .1s.2.1.6.1c-.8 1-1.7 1.3-2.7 1.5h-.3c-2 .3-3.9.1-5.8-.4-1.6-.5-2.8-1.4-3.3-3.1-.3-1.1-.8-2-1.2-3-.4-.8-.5-1.5-.5-2.3 0-.2-.2-.8-.2-.8l-.4.6c-.1.2-.2.4-.5.4-.2.1-.4 0-.5-.1-.5-.3-.9-.8-1-1.3-.5-1.2-1-2.4-1.6-3.5-.2-.5-.4-1.1-.4-1.6 0-.7.3-1.2.8-1.2.3-.1.6 0 1 .2.2.1.8.6.8.6s.1-.9-.1-1.1c-.1-.2-.5-.5-.6-.6-.3-.2-1.6-3.3-1.9-3.9 0-.2 0-.4.1-.6 0-.1-.1-.1-.1-.2-.1-.1-.2-.3-.3-.5 0-.2-.1-.4 0-.6v-.4c0-.1 0-.2.1-.3v-.1-.2s0-.1.1-.1c0-.1.1-.1.1-.1.1-.2.4-.4.6-.6.2-.1.5-.3.7-.4s.5-.2.8-.3c.2-.1.5-.2.8-.2.1-.1.2-.1.4-.1.1 0 .2 0 .4-.1.5-.1 1.1-.2 1.6-.3.1-.1.3-.1.5-.1.4 0 .8-.1 1.1-.2.1 0 .2 0 .4-.1.1-.1.2-.1.4-.1l.1-.1h.1l.1-.1s.1 0 .2-.1l.1-.1c.1-.1.2-.1.4-.1.1-.1.2-.1.4-.2s.5-.2.7-.3c.2-.1.4-.2.6-.4.1-.1.2-.1.3-.2.1-.1.2-.1.2-.2.2-.1.3-.2.5-.4.2-.1.3-.2.5-.3.3-.2.5-.4.7-.6.2-.1.3-.2.5-.3l.2-.2s-.2.2-.5.7c-.2.2-.3.4-.6.7l-.4.4c0 .1-.2.2-.2.2s-.2.1-.2.2c-.3.3-.7.6-1 .9-.1.1-.2.2-.3.2 0 .1-.1.1-.2.1 0 0-.1 0-.2.1s-.2.2-.3.2c-.1.1-.2.1-.3.2l-.1.1v.2c0 .1-.1.1-.2.1s-.2.1-.4.2-.5.2-.8.3l-1.5.3c-.1 0-.1.1-.2.1-.5.1-1.1.2-1.6.2-.2.1-.5.1-.8.1-.1 0-.2.1-.3.1-.1 0-.3 0-.5.1s-.5.1-.7.2c-.2.1-.5.1-.6.2-.2.1-.4.2-.5.4l-.1.1c0 .1 0 .1-.1.1v.2c0 .1-.1.2-.1.2V166.1c0 .2.1.4.2.5.1.1.2.1.4.1v-.1-.1-.2s0-.1.1-.1c0-.1.1-.1.1-.1.1-.2.4-.4.6-.6.2-.1.5-.3.7-.4s.5-.2.8-.3c.2-.1.5-.2.8-.2.1-.1.2-.1.4-.1.1 0 .2 0 .4-.1.5-.1 1.1-.2 1.6-.3.1-.1.3-.1.5-.1.4 0 .8-.1 1.1-.2.1 0 .2 0 .4-.1.1-.1.2-.1.4-.1 0 0 .1-.1.2-.1h.1l.1-.1s.1 0 .2-.1l.1-.1c.1-.1.2-.1.3-.1.1-.1.2-.1.3-.2.2-.1.5-.2.7-.3.2-.1.4-.2.6-.4.1-.1.2-.1.3-.2.1-.1.2-.1.2-.2.2-.1.3-.2.5-.4.2-.1.3-.2.5-.3.3-.2.5-.4.7-.6.2-.1.3-.2.5-.3l.2-.2s-.2.2-.5.7c-.2.2-.3.4-.6.7l-.4.4c0 .1-.2.2-.2.2s-.2.1-.2.2c-.2.2-.5.5-.8.7.5-.2.7-.3.8-.3.8-.2 1.3-.6 1.9-1.1.3-.2.5-.4 1-.5.1 0 .2-.1.3-.1h.3c1.2-.2 2.6-1.4 2.8-1.6.1-.1.2-.2.3-.2.2-.1.3.2.5.4.9 2 1.4 4 1.6 5.9z"/><path fill="#DC4339" d="M30.1 170.3s0-.1 0 0c0-.1-.1-.2-.1-.3 0-.2-.1-.5-.1-.8V168v-.3-.2-.2c.1-.2.2-.5.4-.7.1-.2.4-.4.7-.6 0-.1.1-.1.2-.1h.4c.2.1.5.1.7.2.1.1.2.1.2.2.1.1.2.1.2.2.1.1.2.4.2.5V167.6c0-.1 0-.1-.1-.2s-.1-.2-.2-.3l-.3-.3c-.1-.1-.2-.1-.4-.2s-.3-.1-.5-.1h-.2l-.1.1c-.1.1-.2.2-.4.3s-.2.3-.2.4V167.6c0 .1 0 .2-.1.3-.1.3-.2.8-.3 1.1-.1.4-.1.6-.2.8v.2l.2.3zM38.7 167.3c0-.1-.1-.1-.1-.2s-.1-.4-.2-.7v-1.1c0-.2 0-.4.1-.6s.1-.4.2-.7c0-.1.1-.2.2-.3l.3-.3.2-.1.1-.1h.2c.1 0 .2.1.3.1.1 0 .2.1.3.1.2.1.3.2.4.4.2.2.3.5.3.6V164.6c0-.1-.1-.1-.2-.2-.2-.1-.3-.2-.5-.4-.1-.1-.2-.1-.3-.1-.2-.1-.2-.1-.3-.1v.1l-.1.1c-.1.1 0 .1-.1.2 0 .1-.1.3-.2.4 0 .2-.1.3-.2.5-.1.3-.2.7-.2.9-.1.3-.2.5-.2.7V167.3zM38.2 183h.2c.1-.1.3-.1.5-.2.1 0 .2-.1.3-.1.1-.1.2-.1.3-.1.1-.1.2-.1.3-.1.1 0 .2 0 .3-.1s.2-.1.3-.2h.2c0-.1.1-.1.2-.1s.2-.1.2-.1l.1-.1s.1 0 .1-.1c0 0 0-.1.1-.1 0-.1 0-.1.1-.1 0 0 .1-.1.2-.1 0-.1.1-.1.1-.1v.4c0 .1 0 .2-.1.3v.1c0 .1 0 .1-.1.2 0 .1-.2.2-.2.3 0 .1-.1.1-.2.1 0 .1-.1.1-.2.2-.2.1-.2.2-.4.2-.2.1-.3.1-.5.1h-.5c-.3 0-.5 0-.8-.1-.1-.1-.2-.1-.2-.1-.2 0-.2 0-.3-.1.2.1.1.1 0 0 .1 0 0 0 0 0zM38.9 181.9c-2.6.5-4.5-1.1-4.7-1.2l.6-.7c.1.1 2.2 1.8 4.8.7 2.7-1.1 3.2-3.3 3.2-3.4l.9.2c0 .1-.7 2.8-3.8 4.1-.3.1-.7.2-1 .3z"/><path fill="#DC4339" d="M42.2 176.6s.1 0 0 0c.1.1.2.2.3.2 0 .1.1.1.2.1 0 0 .1 0 .2.1 0 0 0 .1.1.1s0 .1.1.1 0 .1.1.1 0 .1.1.1l.1.1.2.1.2.1h.1c.1 0 .1.1.2.1 0 0 .1.1.2.1s.1.1.1.1 0 .1-.1.1c0 0-.1.1-.2.1 0 .1-.1.1-.2.1l-.2.1h-.2-.2-.2s-.1 0-.2-.1v-.1s-.1-.1-.2-.1l-.1-.1c-.1-.1-.2-.1-.2-.1 0-.1 0-.1-.1-.1 0-.1 0-.1-.1-.1l-.2-.2c0-.1 0-.1-.1-.2v-.1c.3-.5.3-.6.3-.6zM34.8 179.3v1c0 .1 0 .2-.1.2 0 .1-.1.2-.2.2 0 .1-.1.2-.2.2 0 0-.1.1-.2.1 0 .1-.1.1-.2.1 0 .1-.1.1-.2.1 0 0-.1.1-.2.1l-.1.1v-.1-.1-.1c0-.1 0-.1.1-.2 0 0 0-.1.1-.2 0-.1 0-.2.1-.2 0 0 0-.1.1-.2 0-.1 0-.2.1-.2 0 0 0-.1.1-.2v-.1-.1-.1-.1c.8.1.8 0 .8-.2 0 .1 0 .1 0 0zM24 172l-.8-.9c.6-1.4 2-2.1 2.7-2.5v1.1c-.8.6-1.4 1.2-1.9 2.3z"/><path fill="#DC4339" d="M23.6 170.4l-.2-1.4c0-.1.6-.9 2.5-1.8v1.1c-1.6.8-2.3 2.1-2.3 2.1zM31.5 172.9s.3 0 .7-.1c.1 0 .2-.1.3-.1s.2-.1.3-.1.2-.1.2-.1c.1 0 .2-.1.2-.1l.1-.1s.1-.1.2-.1c0 0 .1-.1.2-.1 0 0 .1-.1.2-.1 0 0 .1-.1.2-.1 0 0 .1-.1.2-.1.1-.1.2-.1.2-.1.1-.1.2-.1.2-.1 0-.1.1-.1.2-.1s0 0 0 .1V172.4c0 .1 0 .1-.1.1 0 .1 0 .1-.1.2l-.2.2s-.1.1-.2.1c0 .1-.2.1-.2.1-.2.1-.3.2-.5.2s-.3.1-.5.1-.3 0-.5-.1-.3-.1-.4-.1c-.1-.1-.2-.2-.3-.2-.2-.1-.3-.3-.4-.4v-.1.4zM39.3 170.9s.1 0 .2-.1c.2-.1.3-.1.5-.1s.4-.1.6-.1c.1-.1.2-.1.3-.1.1 0 .2 0 .2-.1.1-.1.2-.1.2-.1.1-.1.2-.1.2-.2s.2-.1.2-.2c0 0 .1 0 .1-.1s.1-.1.1-.1c0-.1.2-.1.2-.2l.2-.1c.1-.1.2-.1.2-.1v1.2c0 .1-.1.3-.2.4 0 .1-.1.1-.2.2 0 .1 0 .1-.1.1 0 .1 0 .1-.1.1-.2.1-.3.2-.5.3-.2.1-.3.1-.5.2h-.5c-.3-.1-.6-.2-.8-.2-.1-.1-.2-.1-.2-.2-.1 0-.2-.1-.2-.2.1-.2.1-.3.1-.3z"/><path fill="#DC4339" d="M22.8 166.5c.1.4 1.1 1.2 1.1 1.2s.8 3.6 1.1 3.9c.4.3-.6.1-.6.1l-2.1-4.4.5-.8z"/><path fill="#DC4339" d="M43.6 159.8c0-.1-.1-.2-.2-.4-1.8-2.6-3.7-3.9-4.6-4.5l-.2-.1c-.2-.1-.9-.5-2.4-.6-.8-.1-2.2-.1-4 .2-1.1.2-2.2.5-3.4 1-2.1.9-4.1 2.1-5.5 3.6-1.5 1.4-2.4 3-2.9 4.6-.4 1.4-.1 3.2.9 5.5.6 1.6 1.4 2.9 1.4 2.9v.1c0 .1-.1.1-.2.2-.2.4-.4.8-.4 1.3 0 .7.1 1.4.5 2.1.6 1.2 1.1 2.4 1.5 3.5.3.8.8 1.3 1.5 1.8.4.2.8.2 1.1.2.1.5.2 1 .5 1.6.1.2.1.3.2.5.4.8.7 1.6.9 2.3.5 1.8 1.9 3.1 3.9 3.7 2.1.6 4.2.8 6.2.5.1 0 .2-.1.3-.1 1-.2 2.2-.5 3.2-1.8l.7-.9c1.2-.8 2.5-1.8 3.3-3.4.7-1.4 1.2-2.9 1.3-4.5.2-1.4 0-2.9-.3-4.5-.1-.4-.2-.8-.2-1.2-.6-2.6-1.2-5.3-1.5-7.9.1-1.8-.2-4-1.6-5.7zm1.1 5.6c.3 3.2 1.1 6.2 1.8 9.3.7 2.9.5 5.7-.9 8.4-.8 1.4-2 2.4-3.2 3.2-.2.1-.4.2-.5.2h-.3c-.1 0-.2.1-.3.1-.5.1-1.2.4-1.2.4l1 .1s.2.1.6.1c-.8 1-1.7 1.3-2.7 1.5h-.3c-2 .3-3.9.1-5.8-.4-1.6-.5-2.8-1.4-3.3-3.1-.3-1.1-.8-2-1.2-3-.4-.8-.5-1.5-.5-2.3 0-.2-.2-.8-.2-.8l-.4.6c-.1.2-.2.4-.5.4-.2.1-.4 0-.5-.1-.5-.3-.9-.8-1-1.3-.5-1.2-1-2.4-1.6-3.5-.2-.5-.4-1.1-.4-1.6 0-.7.3-1.2.8-1.2.3-.1.6 0 1 .2.2.1.8.6.8.6s.1-.9-.1-1.1c-.1-.2-.5-.5-.6-.6-.3-.2-1.6-3.3-1.9-3.9 0-.2 0-.4.1-.6 0-.1-.1-.1-.1-.2-.1-.1-.2-.3-.3-.5 0-.2-.1-.4 0-.6v-.4c0-.1 0-.2.1-.3v-.1-.2s0-.1.1-.1c0-.1.1-.1.1-.1.1-.2.4-.4.6-.6.2-.1.5-.3.7-.4s.5-.2.8-.3c.2-.1.5-.2.8-.2.1-.1.2-.1.4-.1.1 0 .2 0 .4-.1.5-.1 1.1-.2 1.6-.3.1-.1.3-.1.5-.1.4 0 .8-.1 1.1-.2.1 0 .2 0 .4-.1.1-.1.2-.1.4-.1l.1-.1h.1l.1-.1s.1 0 .2-.1l.1-.1c.1-.1.2-.1.4-.1.1-.1.2-.1.4-.2s.5-.2.7-.3c.2-.1.4-.2.6-.4.1-.1.2-.1.3-.2.1-.1.2-.1.2-.2.2-.1.3-.2.5-.4.2-.1.3-.2.5-.3.3-.2.5-.4.7-.6.2-.1.3-.2.5-.3l.2-.2s-.2.2-.5.7c-.2.2-.3.4-.6.7l-.4.4c0 .1-.2.2-.2.2s-.2.1-.2.2c-.3.3-.7.6-1 .9-.1.1-.2.2-.3.2 0 .1-.1.1-.2.1 0 0-.1 0-.2.1s-.2.2-.3.2c-.1.1-.2.1-.3.2l-.1.1v.2c0 .1-.1.1-.2.1s-.2.1-.4.2-.5.2-.8.3l-1.5.3c-.1 0-.1.1-.2.1-.5.1-1.1.2-1.6.2-.2.1-.5.1-.8.1-.1 0-.2.1-.3.1-.1 0-.3 0-.5.1s-.5.1-.7.2c-.2.1-.5.1-.6.2-.2.1-.4.2-.5.4l-.1.1c0 .1 0 .1-.1.1v.2c0 .1-.1.2-.1.2V166.1c0 .2.1.4.2.5.1.1.2.1.4.1v-.1-.1-.2s0-.1.1-.1c0-.1.1-.1.1-.1.1-.2.4-.4.6-.6.2-.1.5-.3.7-.4s.5-.2.8-.3c.2-.1.5-.2.8-.2.1-.1.2-.1.4-.1.1 0 .2 0 .4-.1.5-.1 1.1-.2 1.6-.3.1-.1.3-.1.5-.1.4 0 .8-.1 1.1-.2.1 0 .2 0 .4-.1.1-.1.2-.1.4-.1 0 0 .1-.1.2-.1h.1l.1-.1s.1 0 .2-.1l.1-.1c.1-.1.2-.1.3-.1.1-.1.2-.1.3-.2.2-.1.5-.2.7-.3.2-.1.4-.2.6-.4.1-.1.2-.1.3-.2.1-.1.2-.1.2-.2.2-.1.3-.2.5-.4.2-.1.3-.2.5-.3.3-.2.5-.4.7-.6.2-.1.3-.2.5-.3l.2-.2s-.2.2-.5.7c-.2.2-.3.4-.6.7l-.4.4c0 .1-.2.2-.2.2s-.2.1-.2.2c-.2.2-.5.5-.8.7.5-.2.7-.3.8-.3.8-.2 1.3-.6 1.9-1.1.3-.2.5-.4 1-.5.1 0 .2-.1.3-.1h.3c1.2-.2 2.6-1.4 2.8-1.6.1-.1.2-.2.3-.2.2-.1.3.2.5.4.9 2 1.4 4 1.6 5.9z"/><path fill="#DC4339" d="M37.3 170.7c.1.2.2.4.3.7l.3.6.2.3c0 .1.1.2.2.3 0 .1.1.2.2.3 0 .1.1.2.2.3 0 .1.1.2.2.3 0 .1.1.2.2.3 0 .1.1.2.2.3l.1.2.1.1c0 .1 0 .1.1.1 0 .1 0 .1.1.2l.1.2.1.1c0 .1.1.1.1.1v.1l.2.2.3.3-.4.2c-.2.1-.3.1-.5.2l-.2.1c0 .1-.2.1-.2.1 0 .1-.2.1-.2.1 0 .1-.2.1-.2.1l-.4.2c.1-.2.2-.2.3-.4s.2-.2.3-.4c.2-.1.2-.2.4-.3 0-.1.2-.1.2-.2s.2-.1.2-.1v.4c-.1 0-.2-.1-.3-.2l-.1-.1c0-.1-.1-.1-.2-.1l-.2-.1-.2-.2c0-.1-.1-.1-.1-.2l-.1-.1c-.1-.1-.2-.2-.2-.3 0-.1-.2-.2-.2-.3s-.1-.2-.2-.3c0-.1-.1-.2-.2-.3 0-.1-.1-.2-.2-.4 0-.1-.1-.2-.1-.4 0-.1 0-.2-.1-.3s0-.2-.1-.3v-.4-.4-.3-.3z"/></g><g><path fill="#DC4339" d="M265.7 156c.3 0 .6.1.9.3.3.3.2.7.1 1.1-.4 1-.9 1.6-1.5 2.3-1.1 1.2-2.2 2.4-3.4 3.7-.4.4-1.6 2.3-1.6 2.3s1.5-.9 2.4-1.6c1-.9 2.9-2.3 4-3.7.5-.6 1-1.2 1.8-1.5.2-.1.4-.2.6-.2s.5.1.7.2c.4.4.2.8 0 1.2-.7 1.3-1.9 2.6-2.9 3.7-1.2 1.3-2.2 2.3-2.9 3s-2 2.8-2 2.8 1.3-.9 1.6-1.1c.8-.5 1.4-.9 1.9-1.2.5-.4 1.2-.8 1.9-1.3.4-.3.8-.5 1.2-.7.2-.1.5-.1.7-.1.4 0 .7.1 1 .4.5.6 0 1.1-.2 1.6-1.4 1.7-3.1 2.9-4.7 4.4-1.8 1.8-3.3 4-5.1 5.7-1.3 1.2-2.4 2.4-3.4 3.8-1.1 1.6-1.6 3.3-1.4 5.2.1.7-.2 1-.8 1.1-1.4.3-2.9.5-4.5.5h-.5c-1.4 0-2.9-.2-4.5-.5-.6-.1-.9-.3-.8-1 .2-3.4-1.1-5.4-3.9-7.4-.9-.7-1.9-1.3-2.9-2.1-1.2-.9-1.2-1.5-.1-2.6.8-.8 1.6-1.4 2.5-2 1.6-1.1 3.3-2.3 4.3-4.1.1-.2.2-.3.4-.3s.2.1.4.3c.4.4.4.9.2 1.5-.3.9-.8 1.7-1.4 2.3-.7.8-.9 1.7-.4 2.6.4.9 1.2 1.1 2.1 1.1h.1c2.9-.1 6.1-2.6 6.9-5.3.1-.5.1-1 .1-1.5-.1-.7-.6-1.2-1.4-1.2h-.3c-.9.2-1.5.7-2.2 1.1-.4.2-.9.5-1.3.5-.2 0-.4-.1-.6-.2-.6-.3-.9-1.1-.9-1.7 0-.4.7-.4 1.1-.5 1.1-.5 2-1.2 2.9-1.9s1.6-.9 2.1-.9c.6 0 1.2.4 2.2 1.2.4.3.7.4.9.4.4 0 .8-.2 1.2-.7 2.7-2.8 5-5.2 7.6-7.9.5-.5 1-.9 1.8-1.2-.2.1-.2.1 0 .1m0-1.2c-.2 0-.5.1-.7.1-1 .3-1.8.8-2.3 1.4-1.4 1.4-2.7 2.8-4 4.2-1.1 1.2-2.3 2.4-3.6 3.7-.1.2-.2.2-.3.3l-.1-.1c-.9-.8-1.9-1.4-3-1.4-.9 0-1.8.4-2.9 1.2-.2.1-.4.4-.7.5-.7.5-1.4.9-2.1 1.2-.1 0-.1.1-.2.1-.2.1-.5.1-.8.2s-.6.4-.7.7h-.2c-.4 0-.9.1-1.4.9-.8 1.4-2.1 2.4-3.6 3.4-.1.1-.2.1-.4.2l-.2.1c-.9.6-1.7 1.2-2.4 2.1-.6.7-1.2 1.4-1.1 2.4.1.9.8 1.6 1.4 2.1.6.5 1.3.9 1.9 1.4.3.2.6.5.9.7 2.6 1.9 3.6 3.6 3.4 6.3-.1.7.1 2 1.8 2.3 1.9.4 3.4.5 4.8.5h.5c1.6 0 3.1-.2 4.8-.5 1.7-.4 1.8-1.7 1.8-2.4-.1-1.6.2-3 1.2-4.4 1-1.4 2-2.6 3.1-3.6s2.1-2.2 3.1-3.4c.7-.8 1.4-1.6 2.1-2.3.5-.6 1.1-1.1 1.8-1.7 1-.9 2-1.8 3-2.9.2-.2.5-.6.6-1.1.2-.7.1-1.4-.4-2s-1.2-.9-1.9-.9c-.2 0-.5.1-.8.1.9-1 1.8-2 2.4-3.2.1-.3.4-.6.4-1 .1-.7-.1-1.2-.6-1.7-.4-.4-1-.6-1.5-.6-.3 0-.6.1-1 .2.2-.6.3-1.5-.5-2.3-.3-.6-.9-.8-1.6-.8zm-18.8 15.9c.8 0 1.4-.3 1.9-.7h.1c.1-.1.4-.2.5-.3.4-.3.9-.5 1.2-.6h.2v.1c.1.3.1.6-.1.9-.3 1.1-1.1 2.2-2.2 3.1-1.1.8-2.4 1.4-3.5 1.4h-.1c-.8 0-.9-.2-1-.4-.1-.3-.2-.7.2-1.2.8-.9 1.4-1.7 1.6-2.7.5.3.9.4 1.2.4z"/><path fill="#FFF" d="M269.7 167.2c-1.4 1.7-3.1 2.9-4.7 4.4-1.8 1.8-3.3 4-5.1 5.7-1.3 1.1-2.4 2.4-3.4 3.8-1.1 1.6-1.6 3.3-1.4 5.2.1.7-.2.9-.8 1.1-1.6.4-3.1.6-4.8.6-1.5 0-3.1-.2-4.8-.5-.6-.1-.9-.3-.8-1 .2-3.4-1.1-5.4-3.9-7.4-.9-.7-1.9-1.3-2.9-2.1-1.2-.9-1.2-1.5-.1-2.7.8-.8 1.6-1.4 2.5-2 1.6-1.1 3.3-2.3 4.3-4 .2-.5.4-.3.7 0 .4.4.4.9.2 1.5-.3.9-.8 1.6-1.4 2.3-.7.8-.9 1.7-.4 2.6.4.9 1.4 1.1 2.2 1.1 2.9-.1 6.1-2.6 6.9-5.4.1-.5.1-1 .1-1.5-.1-.8-.8-1.2-1.6-1.1-.9.2-1.5.7-2.2 1.1-.6.3-1.3.8-2 .3-.6-.3-.9-1-.9-1.6 0-.4.7-.4 1.1-.6 1.1-.4 2-1.2 2.9-1.8 1.9-1.4 2.5-1.3 4.4.2.9.7 1.4.6 2.1-.3 2.7-2.8 5-5.2 7.6-7.9.5-.5 1-.9 1.8-1.2.4-.1 1 0 1.2.2.3.3.2.7.1 1.1-.4.9-.9 1.6-1.5 2.3-1.1 1.2-2.2 2.4-3.4 3.7-.4.4-1.6 2.3-1.6 2.3s1.5-.8 2.4-1.6c1-.9 2.9-2.4 4-3.7.5-.6 1-1.2 1.8-1.5.5-.2 1-.2 1.3.1.4.4.2.9 0 1.2-.7 1.4-1.9 2.6-2.9 3.7-1.2 1.3-2.2 2.3-2.9 3-.6.7-2 2.8-2 2.8s1.3-.9 1.6-1.1c.8-.4 1.4-.8 1.9-1.2.5-.4 1.2-.8 1.9-1.4.4-.3.8-.5 1.2-.7.6-.3 1.2-.2 1.6.3.5.8 0 1.3-.3 1.7zM233.6 162.1h.4c.2 0 .6.1 1 .1.4.1.9.1 1.4.2.5.1 1 .2 1.5.4s1 .3 1.5.6c.4.2.9.4 1.2.7.4.2.6.4.9.6.1.1.2.1.2.1l.1.1h-.1-.3c-.2 0-.6-.1-1-.1-.4-.1-.9-.1-1.4-.2-.5-.1-1-.2-1.5-.4s-1-.3-1.5-.6c-.4-.2-.9-.4-1.2-.7-.4-.2-.6-.4-.9-.6-.1-.1-.2-.1-.2-.1-.1 0-.1-.1-.1-.1zM240.9 155.5s0 .1.1.1c.1.1.1.1.1.2.1.2.4.5.6.9.2.3.4.8.6 1.2.2.4.4 1 .6 1.5.1.5.3 1 .4 1.5.1.5.2 1 .2 1.4.1.4.1.8.1 1v.4s0-.1-.1-.1c-.1-.1-.1-.1-.1-.2-.1-.2-.4-.5-.6-.9-.2-.3-.4-.8-.6-1.2-.2-.4-.4-1-.6-1.5-.1-.5-.3-1-.4-1.5-.1-.5-.2-1-.2-1.4-.1-.4-.1-.8-.1-1v-.3-.1zM245.8 162.8c0-.1 0-.2-.1-.3 0-.2-.1-.4 0-.8 0-.3.1-.6.1-1.1s.1-.8.2-1.2c.1-.4.2-.8.4-1.1s.3-.7.5-.9c.1-.2.3-.5.4-.6.1-.1.1-.2.1-.2l.1-.1v.1s0 .1.1.2c0 .2.1.5 0 .8 0 .3-.1.7-.1 1.1-.1.4-.1.8-.2 1.1s-.2.8-.4 1.1c-.1.3-.3.6-.5.9-.2.3-.3.5-.4.7-.1.1-.1.3-.2.3z"/></g></svg>