<?xml version="1.0" encoding="utf-8"?>
<!-- Generator: Adobe Illustrator 18.0.0, SVG Export Plug-In . SVG Version: 6.00 Build 0)  -->
<!DOCTYPE svg PUBLIC "-//W3C//DTD SVG 1.1//EN" "http://www.w3.org/Graphics/SVG/1.1/DTD/svg11.dtd">
<svg version="1.1" id="Layer_1" xmlns="http://www.w3.org/2000/svg" xmlns:xlink="http://www.w3.org/1999/xlink" x="0px" y="0px"
	 viewBox="0 60.3 300 179.3" enable-background="new 0 60.3 300 179.3" xml:space="preserve">
<g>
	<path opacity="0.25" fill="#162636" enable-background="new    " d="M292.6,77.7h-6.9c-2-2.8-3.2-6.3-3.2-10l-7.3-7.3l-9.8,7.3
		H24.7c0,9.6-7.8,17.4-17.4,17.4v125.8l-7.3,4l7.3,7.4c5.5,0,10.4,2.6,13.6,6.6l-3.5,3.4l7.4,7.4h258c0-9.6,7.8-17.4,17.4-17.4V85.1
		L292.6,77.7z"/>
	<path fill="#FFFFFF" d="M292.6,215V77.7c-9.6,0-17.4-7.8-17.4-17.3H17.4c0,9.6-7.8,17.3-17.4,17.3V215c9.6,0,17.4,7.8,17.4,17.4
		h258C275.3,222.7,283,215,292.6,215z"/>
	<path fill="#162636" d="M269.1,65.1c0.5,4.3,2.4,8.3,5.6,11.3c3.3,3.1,7.7,4.9,12.5,5.4v129.1c-4.9,0.4-9.3,2.2-12.5,5.4
		c-3.2,3-5.1,7-5.6,11.4H23.6c-0.5-4.4-2.4-8.4-5.6-11.4c-3.3-3.1-7.7-5-12.6-5.4V81.8c4.8-0.4,9.3-2.2,12.6-5.4
		c3.2-3,5.1-7,5.6-11.3H269.1 M270.9,63.2h-249c0,9.2-7.5,16.8-18.2,16.8v132.6c10.8,0,18.2,7.5,18.2,16.8h249
		c0-9.2,7.5-16.8,18.2-16.8V80C278.4,80,270.9,72.5,270.9,63.2L270.9,63.2z"/>
	<path fill="#162636" d="M35.1,154.1c0.5,0,0.8,0,1.1,0.1c1.5,0.1,2.2,0.5,2.4,0.6c0,0.1,0.1,0.1,0.2,0.1c0.9,0.6,2.8,1.8,4.6,4.5
		c0,0.1,0.2,0.2,0.2,0.4c1.4,1.8,1.8,3.9,2,5.6c0.3,2.7,0.9,5.3,1.5,7.9c0.1,0.4,0.2,0.8,0.2,1.2c0.3,1.6,0.5,3.1,0.3,4.6
		c-0.2,1.6-0.6,3.1-1.3,4.4c-0.8,1.7-2.2,2.7-3.3,3.4l-0.7,0.9c-1,1.3-2.2,1.6-3.2,1.9c-0.1,0-0.2,0.1-0.3,0.1
		c-0.7,0.1-1.4,0.1-2.1,0.1c-1.3,0-2.8-0.2-4.2-0.6c-2-0.6-3.4-1.9-3.9-3.7c-0.2-0.8-0.5-1.5-0.9-2.3c-0.1-0.2-0.1-0.4-0.2-0.6
		c-0.2-0.5-0.4-1-0.5-1.5l0,0c-0.1,0-0.2,0-0.3,0c-0.3,0-0.6-0.1-0.9-0.2c-0.6-0.4-1.1-1-1.5-1.8c-0.5-1.1-1-2.3-1.5-3.5
		c-0.4-0.6-0.5-1.4-0.5-2.1c0-0.5,0.1-0.9,0.4-1.3c0-0.1,0.1-0.1,0.2-0.2l0-0.1c0-0.1-0.8-1.3-1.4-2.9c-0.9-2.3-1.2-4.1-0.9-5.5
		c0.4-1.6,1.4-3.1,2.9-4.6c1.5-1.4,3.4-2.7,5.5-3.6c1.1-0.5,2.2-0.8,3.4-1l0,0C33.3,154.2,34.3,154.1,35.1,154.1 M35.1,149.8
		c-1.2,0-2.5,0.1-3.7,0.4c-1.4,0.3-2.9,0.7-4.2,1.3c-2.6,1.1-5,2.7-6.9,4.5c-2,2-3.4,4.2-4,6.5c-0.6,2.3-0.3,5.1,1,8.3
		c0.2,0.6,0.5,1.1,0.7,1.6c0,0.4-0.1,0.8-0.1,1.1c0,1.5,0.3,3,1,4.4c0.5,1,1,2.1,1.4,3.1c0.7,1.7,1.8,3,3.2,3.8
		c0,0.1,0.1,0.2,0.1,0.4c0.3,0.6,0.5,1.2,0.7,1.7c1,3.3,3.4,5.7,6.9,6.8c1.8,0.5,3.6,0.8,5.4,0.8c1,0,1.9-0.1,2.8-0.2
		c0.2-0.1,0.3-0.1,0.5-0.1c0.9-0.2,3.7-0.7,5.8-3.5l0.2-0.4c1.3-1,3-2.5,4.2-4.7c1-1.9,1.5-3.9,1.8-6c0.2-1.9,0-3.9-0.4-5.9
		c-0.1-0.4-0.2-0.8-0.2-1.2v-0.1c-0.5-2.5-1.2-5.1-1.4-7.5c-0.2-1.9-0.7-4.8-2.5-7.4c-0.1-0.2-0.2-0.3-0.3-0.5
		c-2.3-3.3-4.8-5-5.8-5.6c0-0.1-0.1-0.1-0.2-0.1c-1.1-0.8-2.6-1.2-4.5-1.3C36.2,149.8,35.7,149.8,35.1,149.8L35.1,149.8z"/>
	<g>
		<path fill="#162636" d="M265.7,154.8c0.7,0,1.4,0.2,1.8,0.6c0.8,0.8,0.6,1.7,0.5,2.3c0.4-0.1,0.6-0.2,1-0.2c0.6,0,1.1,0.2,1.5,0.6
			c0.5,0.4,0.7,1.1,0.6,1.7c0,0.4-0.2,0.8-0.4,1.1c-0.6,1.2-1.5,2.2-2.4,3.2c0.2-0.1,0.5-0.1,0.8-0.1c0.8,0,1.4,0.4,1.9,1
			c0.5,0.6,0.6,1.3,0.4,2c-0.1,0.5-0.5,0.8-0.6,1.1c-0.9,1.2-2,2.1-3,2.9c-0.6,0.6-1.2,1.1-1.8,1.6c-0.7,0.8-1.4,1.5-2.1,2.4
			c-1,1.1-2,2.4-3.1,3.4c-1.1,0.9-2.1,2.1-3.1,3.6c-1,1.4-1.4,2.9-1.2,4.4c0,0.8,0,2.1-1.8,2.4c-1.7,0.4-3.2,0.6-4.8,0.6
			c-0.1,0-0.2,0-0.3,0s-0.1,0-0.2,0c-1.4,0-2.9-0.1-4.8-0.6c-1.6-0.3-1.9-1.5-1.8-2.3c0.1-2.8-0.8-4.5-3.4-6.4
			c-0.3-0.2-0.6-0.4-0.9-0.6c-0.6-0.5-1.3-0.9-1.9-1.4s-1.4-1.2-1.4-2.2c-0.1-0.9,0.5-1.7,1.1-2.4c0.8-0.8,1.6-1.4,2.4-2.1l0.2-0.2
			c0.1-0.1,0.2-0.1,0.4-0.2c1.4-1,2.8-2,3.6-3.4c0.4-0.8,1.1-0.9,1.4-0.9c0.1,0,0.1,0,0.2,0c0.1-0.3,0.4-0.6,0.7-0.7
			s0.6-0.2,0.8-0.2c0.1,0,0.1-0.1,0.2-0.1c0.7-0.3,1.4-0.8,2.1-1.2c0.2-0.2,0.4-0.3,0.7-0.5c1.1-0.8,1.9-1.2,2.9-1.2
			c1.1,0,2.1,0.7,3,1.4c0.1,0.1,0.1,0.1,0.1,0.1c0.1,0,0.1-0.1,0.3-0.3c1.2-1.2,2.4-2.5,3.5-3.7c1.4-1.4,2.6-2.8,4-4.2
			c0.6-0.6,1.3-1.2,2.3-1.5C265.2,154.8,265.5,154.8,265.7,154.8 M265.6,156L265.6,156L265.6,156C265.7,156,265.7,156,265.6,156
			L265.6,156 M265.5,156L265.5,156L265.5,156L265.5,156L265.5,156 M265.9,156C265.9,156,265.9,156,265.9,156
			C265.9,156,265.9,156,265.9,156L265.9,156L265.9,156 M266.1,156.1L266.1,156.1L266.1,156.1C266.1,156,266.1,156,266.1,156.1
			C266.1,156,266.1,156,266.1,156.1 M266.4,156.1L266.4,156.1L266.4,156.1L266.4,156.1L266.4,156.1 M268.8,158.8
			C268.9,158.8,268.9,158.8,268.8,158.8C268.8,158.8,268.8,158.8,268.8,158.8C268.9,158.8,268.9,158.8,268.8,158.8
			C268.9,158.8,268.9,158.8,268.8,158.8 M269,158.8L269,158.8C269,158.8,269,158.8,269,158.8 M268.5,158.8
			C268.5,158.8,268.5,158.8,268.5,158.8C268.5,158.8,268.5,158.8,268.5,158.8 M269.2,158.9L269.2,158.9
			C269.1,158.8,269.2,158.9,269.2,158.9 M269.4,158.9C269.4,158.9,269.3,158.9,269.4,158.9C269.4,158.9,269.4,158.9,269.4,158.9
			 M267.7,159.2c0.1-0.1,0.4-0.2,0.5-0.3l0,0l0,0C268,159,267.9,159.1,267.7,159.2 M256,165L256,165L256,165L256,165
			c0.7-0.7,1.4-1.3,2-2C257.3,163.7,256.6,164.4,256,165L256,165 M251.5,164.2c0.1,0,0.1,0,0.1,0l0,0
			C251.6,164.2,251.6,164.2,251.5,164.2C251.6,164.2,251.6,164.2,251.5,164.2 M251.9,164.2c-0.1,0-0.1,0-0.1,0
			C251.8,164.2,251.9,164.2,251.9,164.2 M251.4,164.2L251.4,164.2h-0.1H251.4C251.4,164.2,251.4,164.2,251.4,164.2 M252.1,164.2
			c-0.1,0-0.1,0-0.1-0.1C252.1,164.2,252.1,164.2,252.1,164.2 M251.1,164.2c0.1,0,0.1-0.1,0.1-0.1
			C251.1,164.2,251.1,164.2,251.1,164.2 M250.9,164.3c-0.1,0-0.1,0.1-0.1,0.1C250.9,164.4,250.9,164.4,250.9,164.3L250.9,164.3
			C250.9,164.3,250.9,164.3,250.9,164.3 M252.3,164.4C252.4,164.4,252.4,164.4,252.3,164.4C252.4,164.4,252.4,164.4,252.3,164.4
			C252.3,164.4,252.2,164.4,252.3,164.4C252.3,164.3,252.3,164.3,252.3,164.4 M250.6,164.4C250.6,164.4,250.6,164.5,250.6,164.4
			C250.6,164.5,250.6,164.4,250.6,164.4c0.1,0,0.1-0.1,0.1-0.1C250.6,164.4,250.6,164.4,250.6,164.4 M252.6,164.5
			c-0.1,0-0.1-0.1-0.1-0.1C252.6,164.4,252.6,164.4,252.6,164.5 M250.2,164.6c0.1,0,0.1,0,0.2-0.1
			C250.4,164.6,250.3,164.6,250.2,164.6 M252.9,164.6c-0.1,0-0.1,0-0.1,0C252.8,164.6,252.9,164.6,252.9,164.6 M249.9,164.9
			C249.9,164.9,249.9,164.9,249.9,164.9C249.9,164.9,249.9,164.9,249.9,164.9c0.1-0.1,0.1-0.1,0.2-0.1
			C250.1,164.8,250,164.8,249.9,164.9 M253.2,164.9c-0.1-0.1-0.1-0.1-0.1-0.1C253.1,164.8,253.1,164.8,253.2,164.9 M249.8,164.9
			c-0.1,0.1-0.2,0.2-0.4,0.2C249.6,165,249.7,165,249.8,164.9 M253.4,165L253.4,165C253.4,165,253.4,165,253.4,165L253.4,165
			C253.4,165,253.4,165,253.4,165 M269,165.2L269,165.2L269,165.2L269,165.2L269,165.2 M268.9,165.2L268.9,165.2
			C268.8,165.2,268.9,165.2,268.9,165.2c0,0,0,0,0.1,0C268.9,165.2,268.9,165.2,268.9,165.2 M269.2,165.3L269.2,165.3L269.2,165.3
			C269.2,165.2,269.2,165.2,269.2,165.3C269.2,165.2,269.2,165.2,269.2,165.3 M268.6,165.3c0,0,0.1,0,0.1,0
			C268.6,165.3,268.6,165.3,268.6,165.3 M255.7,165.3C255.7,165.3,255.7,165.4,255.7,165.3C255.7,165.4,255.7,165.4,255.7,165.3
			C255.7,165.4,255.7,165.4,255.7,165.3C255.7,165.4,255.7,165.3,255.7,165.3 M268.3,165.4c0,0,0.1,0,0.2-0.1
			C268.5,165.4,268.4,165.4,268.3,165.4 M269.5,165.4c0,0,0,0-0.1,0C269.5,165.4,269.5,165.4,269.5,165.4 M269.7,165.5
			C269.8,165.5,269.8,165.5,269.7,165.5C269.8,165.5,269.8,165.5,269.7,165.5L269.7,165.5L269.7,165.5 M255.4,165.5
			C255.4,165.5,255.4,165.5,255.4,165.5C255.4,165.5,255.4,165.5,255.4,165.5 M254.2,165.6c-0.1,0-0.1-0.1-0.1-0.1
			C254.1,165.5,254.2,165.6,254.2,165.6 M255.2,165.7L255.2,165.7C255.1,165.7,255.1,165.7,255.2,165.7
			C255.1,165.7,255.1,165.7,255.2,165.7L255.2,165.7 M254.5,165.8c-0.1,0-0.1,0-0.1-0.1C254.4,165.7,254.4,165.7,254.5,165.8
			 M254.7,165.8L254.7,165.8L254.7,165.8L254.7,165.8C254.6,165.8,254.6,165.8,254.7,165.8 M254.9,165.8L254.9,165.8L254.9,165.8
			 M270.1,166.5c0,0,0-0.1,0-0.2C270.1,166.4,270.1,166.5,270.1,166.5 M250.8,167.9C250.8,167.9,250.8,167.9,250.8,167.9
			C250.8,167.9,250.8,167.9,250.8,167.9L250.8,167.9L250.8,167.9 M251.1,167.9c-0.1,0-0.1,0-0.1,0
			C251.1,167.9,251.1,167.9,251.1,167.9 M251.4,168c-0.1,0-0.1-0.1-0.1-0.1C251.3,167.9,251.4,168,251.4,168 M251.6,168.1
			c-0.1,0-0.1-0.1-0.1-0.1C251.5,168.1,251.6,168.1,251.6,168.1 M244,168.1C244.1,168.1,244.1,168.1,244,168.1
			C244.1,168.1,244.1,168.1,244,168.1C244.1,168.1,244.1,168.1,244,168.1C244.1,168.1,244.1,168.1,244,168.1 M244.1,168.1
			L244.1,168.1L244.1,168.1 M244,168.1C244,168.1,243.9,168.1,244,168.1L244,168.1L244,168.1C243.9,168.1,243.9,168.1,244,168.1
			 M244.2,168.1C244.2,168.1,244.2,168.1,244.2,168.1C244.2,168.1,244.2,168.1,244.2,168.1 M243.9,168.2L243.9,168.2
			C243.9,168.1,243.9,168.2,243.9,168.2 M251.8,168.3L251.8,168.3C251.7,168.2,251.8,168.2,251.8,168.3 M244.4,168.2
			C244.3,168.2,244.3,168.2,244.4,168.2C244.3,168.2,244.3,168.2,244.4,168.2 M243.7,168.4c0.1-0.1,0.1-0.1,0.1-0.2
			C243.8,168.2,243.8,168.3,243.7,168.4 M251.9,168.4C251.9,168.4,251.9,168.5,251.9,168.4C251.9,168.5,251.9,168.4,251.9,168.4
			L251.9,168.4C251.9,168.4,251.9,168.4,251.9,168.4 M252,168.7L252,168.7L252,168.7C252,168.6,252,168.6,252,168.7
			C252,168.6,252,168.6,252,168.7 M248.1,169C248.1,169,248.1,169,248.1,169C248.1,169,248.1,169,248.1,169 M248,169.1
			C248,169.1,247.9,169.1,248,169.1C247.9,169.1,247.9,169.1,248,169.1C247.9,169.1,247.9,169.1,248,169.1
			C247.9,169.1,248,169.1,248,169.1 M246.9,170.7c-0.4,0-0.8-0.1-1.1-0.3c-0.3,0.9-0.9,1.8-1.6,2.6c-0.4,0.5-0.4,0.9-0.2,1.2
			c0.1,0.1,0.1,0.3,1,0.3c0.1,0,0.1,0,0.1,0c1.1-0.1,2.4-0.6,3.5-1.4c1.1-0.8,1.9-2,2.2-3c0.1-0.3,0.1-0.6,0.1-0.9
			c0-0.1,0-0.1,0-0.1s-0.1,0-0.1,0s-0.1,0-0.1,0c-0.4,0.1-0.8,0.3-1.2,0.6c-0.1,0.1-0.3,0.2-0.5,0.3l-0.1,0.1
			C248.4,170.3,247.8,170.7,246.9,170.7 M247.8,169.2L247.8,169.2L247.8,169.2 M247.6,169.2L247.6,169.2
			C247.6,169.2,247.6,169.3,247.6,169.2C247.6,169.3,247.6,169.2,247.6,169.2L247.6,169.2 M246.5,169.4
			C246.4,169.3,246.4,169.3,246.5,169.4C246.4,169.3,246.4,169.3,246.5,169.4 M247.5,169.3C247.5,169.4,247.4,169.4,247.5,169.3
			C247.4,169.4,247.5,169.4,247.5,169.3 M246.6,169.4C246.6,169.4,246.6,169.4,246.6,169.4C246.6,169.4,246.6,169.4,246.6,169.4
			 M247.3,169.4L247.3,169.4L247.3,169.4 M246.8,169.4C246.8,169.4,246.8,169.4,246.8,169.4C246.8,169.4,246.8,169.4,246.8,169.4
			 M247.1,169.4C247.1,169.4,247.1,169.4,247.1,169.4C247.1,169.4,247.1,169.4,247.1,169.4 M247,169.4
			C246.9,169.4,246.9,169.4,247,169.4C246.9,169.4,246.9,169.4,247,169.4C246.9,169.4,246.9,169.4,247,169.4
			C246.9,169.4,246.9,169.4,247,169.4 M244.7,169.9c0.1-0.2,0.1-0.3,0.1-0.4C244.8,169.6,244.8,169.7,244.7,169.9 M250.6,172.9
			c0.2-0.2,0.4-0.4,0.5-0.7C250.9,172.5,250.8,172.8,250.6,172.9 M261.8,175.4c0.6-0.8,1.2-1.5,1.9-2.2
			C263,173.9,262.5,174.6,261.8,175.4 M243.1,175.1C243.1,175.1,243,175.1,243.1,175.1C243,175.1,243,175.1,243.1,175.1
			 M247.5,175.2c-0.1,0.1-0.2,0.1-0.4,0.1l0,0l0,0C247.2,175.4,247.4,175.3,247.5,175.2 M243.3,175.4c-0.1,0-0.1,0-0.1-0.1
			C243.2,175.4,243.2,175.4,243.3,175.4 M243.6,175.5c-0.1,0-0.1,0-0.1,0C243.5,175.5,243.5,175.5,243.6,175.5 M243.8,175.6
			c0.1,0,0.1,0.1,0.1,0.1C243.8,175.6,243.8,175.6,243.8,175.6L243.8,175.6L243.8,175.6 M244.1,175.8c-0.1,0-0.1,0-0.1-0.1
			C244.1,175.8,244.1,175.8,244.1,175.8 M244.4,175.8c0.1,0,0.1,0,0.1,0C244.4,175.8,244.4,175.8,244.4,175.8L244.4,175.8
			C244.4,175.8,244.4,175.8,244.4,175.8 M244.8,175.9c-0.1,0-0.1,0-0.1,0C244.7,175.9,244.8,175.9,244.8,175.9 M259.8,177.4
			c0.5-0.4,0.9-0.8,1.4-1.3C260.8,176.5,260.3,177,259.8,177.4 M256.1,181.9c0.1-0.2,0.2-0.4,0.4-0.6c0.2-0.4,0.5-0.7,0.8-1.1
			c-0.2,0.3-0.5,0.7-0.8,1.1C256.4,181.4,256.2,181.6,256.1,181.9 M255,185.8c0-0.9,0.1-1.8,0.5-2.7
			C255.2,183.9,255,184.9,255,185.8 M255.1,186.9c0-0.1,0-0.2,0-0.2C255.1,186.8,255.1,186.9,255.1,186.9 M253.1,187.8L253.1,187.8
			L253.1,187.8C253.1,187.8,253.2,187.8,253.1,187.8C253.2,187.8,253.1,187.8,253.1,187.8 M245.9,187.8
			C245.9,187.8,245.9,187.8,245.9,187.8C245.9,187.8,245.9,187.8,245.9,187.8L245.9,187.8L245.9,187.8 M252.1,187.9L252.1,187.9
			L252.1,187.9L252.1,187.9C252.1,187.9,252.1,187.9,252.1,187.9 M247.1,187.9c-0.1,0-0.1,0-0.1,0S247,187.9,247.1,187.9 M248.1,188
			L248.1,188C248.1,188,248.1,188,248.1,188L248.1,188L248.1,188 M250.9,188L250.9,188C250.9,188,250.9,188,250.9,188L250.9,188
			C250.9,188,250.9,188,250.9,188 M249.2,188.1c0.1,0,0.1,0,0.2,0l0,0l0,0l0,0c0.1,0,0.2,0,0.3,0c0.1,0,0.1,0,0.1,0l0,0l0,0
			c-0.1,0-0.1,0-0.2,0c-0.1,0-0.1,0-0.1,0l0,0l0,0l0,0l0,0l0,0c-0.1,0-0.1,0-0.1,0c-0.1,0-0.1,0-0.2,0
			C249.1,188.1,249.2,188.1,249.2,188.1 M265.7,150.4c-0.6,0-1.2,0.1-1.9,0.2c-2,0.5-3.4,1.7-4.3,2.6c-1.5,1.4-2.8,2.8-4.1,4.2
			c-0.4,0.5-0.9,1-1.4,1.4c-0.7-0.2-1.6-0.4-2.4-0.4c-2.1,0-3.9,0.9-5.4,1.9c-0.2,0.2-0.5,0.4-0.8,0.6c-0.4,0.2-0.7,0.5-1,0.6
			c-0.4,0.1-0.9,0.2-1.5,0.6c-0.3,0.2-0.6,0.3-0.8,0.5c-1.4,0.4-2.6,1.5-3.4,2.9c-0.3,0.5-1.3,1.2-2.3,2l-0.4,0.2L236,168
			c-0.9,0.6-2.1,1.4-3.1,2.6c-0.6,0.6-2.6,2.7-2.4,5.8c0.2,3,2.4,4.7,3.1,5.2c0.8,0.6,1.5,1.1,2.2,1.5c0.3,0.2,0.6,0.4,0.9,0.6
			c1.6,1.1,1.6,1.5,1.6,2.5c-0.2,3.5,2,6.2,5.4,6.9c2.1,0.4,3.9,0.6,5.6,0.6c0.1,0,0.1,0,0.2,0s0.2,0,0.2,0c1.9,0,3.7-0.2,5.8-0.6
			c3.4-0.8,5.6-3.6,5.2-7.2c0-0.3,0-0.8,0.5-1.5c0.8-1.2,1.6-2.1,2.4-2.8c1.4-1.2,2.5-2.6,3.6-3.9c0.7-0.8,1.2-1.5,1.9-2.1
			c0.5-0.4,1-0.9,1.5-1.4c1.1-0.9,2.4-2,3.5-3.5c0.3-0.4,1-1.2,1.4-2.4c0.6-2,0.4-4.1-0.8-5.7c0.2-0.5,0.5-1.3,0.7-2.2
			c0.3-2.1-0.5-4.2-2-5.6c-0.5-0.4-1.1-0.9-1.7-1.1c-0.3-0.5-0.6-1-1-1.4C269.3,151,267.5,150.4,265.7,150.4L265.7,150.4z
			 M247.2,167.4l0.6-2.2c0.1,0,0.1,0,0.1,0l-0.8,2.2L247.2,167.4L247.2,167.4L247.2,167.4z M247.3,167.5l1.1-2.2
			c0.1,0,0.1,0.1,0.1,0.1L247.3,167.5L247.3,167.5L247.3,167.5z M245.4,169.5l-0.8-0.6l1.1,0.6L245.4,169.5L245.4,169.5z
			 M250.8,169.8v2.4V169.8L250.8,169.8z M246.9,170.6l-0.2-0.1L246.9,170.6L246.9,170.6L246.9,170.6z"/>
		<path fill="#162636" d="M233.6,162.1C233.7,162.1,233.7,162.1,233.6,162.1c0.1,0,0.1,0,0.1,0c0.1,0,0.1,0,0.1,0
			c0.2,0,0.6,0.1,1,0.1c0.4,0.1,0.9,0.1,1.4,0.2c0.5,0.1,1,0.2,1.5,0.4c0.5,0.2,1,0.3,1.5,0.6c0.4,0.2,0.9,0.4,1.2,0.7
			c0.4,0.2,0.6,0.4,0.9,0.6c0.1,0.1,0.2,0.1,0.2,0.1c0.1,0.1,0.1,0.1,0.1,0.1s-0.1,0-0.1,0c0,0,0,0-0.1,0s-0.1,0-0.1,0s-0.1,0-0.1,0
			c-0.2,0-0.6-0.1-1-0.1c-0.4-0.1-0.9-0.1-1.4-0.2c-0.5-0.1-1-0.2-1.5-0.4s-1-0.3-1.5-0.6c-0.4-0.2-0.9-0.4-1.2-0.7
			c-0.4-0.2-0.6-0.4-0.9-0.6C233.7,162.3,233.6,162.2,233.6,162.1c-0.1,0-0.2,0-0.2,0S233.6,162.1,233.6,162.1 M233.7,157.8
			L233.7,157.8c-0.3,0-0.4,0-0.4,0l-10.1,0.9l7.4,6.8c0,0,0.1,0.1,0.3,0.2l0.1,0.1l0,0l0,0c0.1,0.1,0.2,0.1,0.4,0.2
			c0.2,0.2,0.6,0.4,1.2,0.8c0.5,0.3,1.1,0.6,1.6,0.8s1.2,0.5,1.9,0.8c0.7,0.2,1.4,0.4,1.9,0.6c0.6,0.1,1.2,0.2,1.8,0.4
			c0.6,0.1,1.1,0.1,1.4,0.1c0.1,0,0.2,0,0.4,0h0.1l0,0l0,0h0.1c0.2,0,0.4,0,0.4,0l9.9-0.9l-7.4-6.8c0,0-0.1-0.1-0.3-0.2l-0.1,0l0,0
			l0,0c-0.1-0.1-0.2-0.2-0.4-0.2c-0.2-0.2-0.6-0.5-1.2-0.8c-0.5-0.3-1.1-0.5-1.6-0.8c-0.6-0.2-1.2-0.5-1.9-0.8
			c-0.7-0.2-1.4-0.4-1.9-0.6c-0.6-0.1-1.2-0.2-1.8-0.3s-1.1-0.1-1.4-0.2C233.9,157.7,233.8,157.7,233.7,157.8L233.7,157.8
			L233.7,157.8L233.7,157.8L233.7,157.8z"/>
		<path fill="#162636" d="M240.9,155.5c0,0,0,0.1,0.1,0.1c0.1,0.1,0.1,0.1,0.1,0.2c0.1,0.2,0.4,0.5,0.6,0.9c0.2,0.3,0.4,0.8,0.6,1.2
			c0.2,0.4,0.4,1,0.6,1.5c0.1,0.5,0.3,1,0.4,1.5c0.1,0.5,0.2,1,0.2,1.4c0.1,0.4,0.1,0.8,0.1,1c0,0.1,0,0.2,0,0.3c0,0.1,0,0.1,0,0.1
			s0-0.1-0.1-0.1c-0.1-0.1-0.1-0.1-0.1-0.2c-0.1-0.2-0.4-0.5-0.6-0.9c-0.2-0.3-0.4-0.8-0.6-1.2c-0.2-0.4-0.4-1-0.6-1.5
			c-0.1-0.5-0.3-1-0.4-1.5c-0.1-0.5-0.2-1-0.2-1.4c-0.1-0.4-0.1-0.8-0.1-1c0-0.1,0-0.2,0-0.3S240.9,155.5,240.9,155.5 M237.6,145
			l-1.1,10.2c0,0,0,0.2,0,0.3v0.1l0,0l0,0c0,0.1,0,0.2,0,0.4c0,0.3,0.1,0.8,0.1,1.4c0.1,0.6,0.1,1.2,0.3,1.8
			c0.1,0.6,0.3,1.2,0.5,1.9l0,0l0,0c0.2,0.7,0.4,1.3,0.7,1.9c0.2,0.6,0.5,1.1,0.8,1.6c0.3,0.6,0.6,0.9,0.8,1.2
			c0.1,0.1,0.1,0.2,0.2,0.4l0,0l0,0l0.1,0c0.1,0.2,0.2,0.3,0.2,0.3l6.6,7.5l1.1-10c0,0,0-0.2,0-0.4v-0.1l0,0l0,0c0-0.1,0-0.2,0-0.4
			c0-0.3-0.1-0.8-0.1-1.4c-0.1-0.6-0.1-1.2-0.3-1.8c-0.1-0.6-0.3-1.2-0.5-1.9l0,0l0,0c-0.2-0.7-0.4-1.3-0.7-1.9
			c-0.2-0.6-0.5-1.1-0.8-1.6c-0.3-0.6-0.6-1-0.8-1.2c-0.1-0.2-0.1-0.2-0.2-0.4l0,0l0,0l-0.1-0.1c-0.1-0.2-0.2-0.3-0.2-0.3L237.6,145
			L237.6,145z"/>
		<path fill="#162636" d="M247.6,156.6c0,0,0,0.1,0,0.1c0,0.1,0,0.1,0.1,0.2c0,0.2,0.1,0.4,0,0.8c0,0.3-0.1,0.7-0.1,1.1
			s-0.1,0.8-0.2,1.1c-0.1,0.4-0.2,0.8-0.4,1.1s-0.3,0.6-0.5,0.9c-0.1,0.2-0.3,0.5-0.4,0.7c-0.1,0-0.1,0.1-0.1,0.1
			c-0.1,0.1-0.1,0.1-0.1,0.1s0-0.1,0-0.1c0-0.1,0-0.2-0.1-0.2c0-0.2-0.1-0.4,0-0.8c0-0.3,0.1-0.6,0.1-1c0.1-0.4,0.1-0.8,0.2-1.2
			s0.2-0.8,0.4-1.1c0.1-0.4,0.3-0.7,0.5-1c0.1-0.2,0.3-0.5,0.4-0.6C247.5,156.8,247.6,156.7,247.6,156.6
			C247.6,156.6,247.6,156.6,247.6,156.6 M250.2,148l-5.6,5.4c-0.1,0.1-0.2,0.2-0.3,0.3l-0.1,0.1l0,0c-0.1,0.1-0.1,0.2-0.2,0.3
			c-0.2,0.4-0.5,0.7-0.8,1.1c-0.3,0.4-0.6,0.9-0.8,1.4s-0.4,1.1-0.6,1.6c-0.1,0.6-0.3,1.1-0.4,1.7c-0.1,0.6-0.1,1.1-0.1,1.6
			c0,0.5,0,0.9,0.1,1.3c0,0.1,0.1,0.3,0.1,0.4l0,0v0.1c0,0.2,0.1,0.3,0.1,0.4l1.7,7.8l5.7-5.5c0.1-0.1,0.2-0.2,0.3-0.3l0.1,0l0,0
			c0.1-0.1,0.1-0.2,0.2-0.3c0.2-0.3,0.5-0.7,0.8-1.1c0.2-0.4,0.6-0.9,0.8-1.4s0.4-1.1,0.6-1.6c0.2-0.6,0.3-1.1,0.4-1.7
			c0.1-0.6,0.1-1.1,0.1-1.6c0-0.4,0-0.9-0.1-1.4c0-0.1-0.1-0.3-0.1-0.4l0,0v-0.1c0-0.2-0.1-0.3-0.1-0.4L250.2,148L250.2,148z"/>
	</g>
	<path fill="#162636" d="M144.5,74.8c10.4,0,104.8,16.2,109.4,23.5s6.4,11.9,6.4,48.1s-1.8,40.8-6.4,48.1
		c-4.6,7.3-98.9,23.5-109.4,23.5c-10.4,0-104.8-16.2-109.3-23.5c-4.7-7.4-6.4-11.9-6.4-48.1s1.8-40.8,6.3-48.1
		S134.1,74.8,144.5,74.8 M144.5,70.3c-5.9,0-32.8,4.2-57.7,9.1c-14.1,2.8-26.3,5.4-35.2,7.8c-16.3,4.2-19,6.6-20.2,8.6
		c-5.4,8.5-7,14.2-7,50.5c0,36.2,1.7,42,7.1,50.4c1.3,2.1,3.9,4.4,20.2,8.6c8.9,2.4,21.1,5.1,35.2,7.8c24.8,4.9,51.8,9.1,57.7,9.1
		s32.8-4.2,57.7-9.1c14.1-2.8,26.3-5.5,35.2-7.8c16.2-4.3,18.9-6.6,20.2-8.6c5.4-8.4,7-14.2,7-50.4c0-36.2-1.7-42-7-50.5
		c-1.3-2-3.9-4.3-20.1-8.6c-8.9-2.4-21-5.1-35.2-7.9C177.4,74.6,150.4,70.3,144.5,70.3L144.5,70.3z"/>
	<path fill="#DC4339" d="M253.9,98.2c-4.6-7.3-98.9-23.5-109.4-23.5c-10.4,0-104.8,16.2-109.3,23.5c-4.7,7.3-6.4,11.9-6.4,48.1
		s1.8,40.8,6.3,48.1c4.6,7.3,98.9,23.5,109.3,23.5s104.8-16.2,109.3-23.5c4.6-7.3,6.4-11.9,6.4-48.1
		C260.2,110.1,258.5,105.6,253.9,98.2z"/>
	<path fill="#162636" d="M232.8,116.2c-2.3-3.8-5.7-7-10.1-9.8c-3.2-2-6.9-3.6-10.4-4.9l17.2-14.3l2.8-2.4l-2.4-2.9l-1.9-2.2
		c-7.3-8.6-18.5-13-33.2-13c-1.6,0-3.3,0.1-5,0.2c-5.1,0.3-15.1,1.4-23.6,5.1c-2.2,1-4.4,2.1-6.2,3.4c-0.3,0.2-0.6,0.4-0.9,0.6
		l-13.2,9.5c-0.4,0.3-0.8,0.5-1.2,0.9v-0.6l-1.1-1l-15-15l-1-1l-1.5,0l-2.2,0c-7.8-0.2-15.7-0.5-23.5-0.9L98,67.8l-3.8-0.2v3.9v54.5
		v0c0,0.6,0,1.5-0.5,2.1c-0.9,1.1-3.2,1.9-6.5,2c-0.2,0-0.4,0-0.5,0c-3.7,0-6.7-1.7-9.8-5.5l-1.1-1.3l-1.8-2.2l-2.6,1.2l-1.5,0.7
		c-6.6,3-13.1,6-19.3,9l-2.4,1.1l-3.9,1.9l2.5,3.5l1.5,2.1l2.9,3.6l0,0l11.5,12.2l0,0l0.1,0c10.4,10.1,21,14.2,36.4,14.2
		c1.5,0,3,0,4.5-0.1c5.7-0.2,16.5-1.4,25.5-6.1c2.4-1.2,4.6-2.8,6.5-4.4c3.7,2.3,7.9,4.3,12.6,5.8c7,2.2,15,3.5,24.8,4.2
		c1.7,0.1,3.5,0.1,5.2,0.1c5.4,0,15.8-0.5,24.7-4.3c11.1-4.8,25.1-19.1,26.3-20.3c4.6-4.4,7-10.1,7-16.6
		C236.3,124.3,235.1,120,232.8,116.2z M136.2,141.8l0.2-23l6.5-5.5l25.2,18L136.2,141.8z"/>
	<g>
		<path fill="#162636" d="M125.9,72.4l-13.1,13.9v54.5v0c0.1,1.8,0.2,7.4-10.5,7.8c-0.2,0-0.4,0-0.7,0c-4.8,0-8.8-2.1-12.6-6.8
			l-1.1-1.3l-1.6,0.7c-6.6,3-26.3-2.6-32.5,0.4l11.5,12.2c9,8.7,18.3,13.2,33.8,13.2c1.4,0,2.8-0.1,4.3-0.1c5.3-0.2,15.6-1.3,24-5.7
			c8.8-4.6,13.4-11.7,13.4-20.6V87.4L125.9,72.4z"/>
		<path fill="#162636" d="M202.9,124.6c-6.6-4-14.6-6.3-21.1-8.1c-2.4-0.7-3.6-0.9-5.9-1.6c-0.6-0.2-1.4-0.3-2.1-0.5
			c-4.1-1-10.8-2.7-10.7-6.3c0-0.5,0.1-2.1,2.9-3.3c1.6-0.8,4-1.2,6.2-1.3c0.2,0,0.5,0,0.7,0c5.4,0,9.6,1.8,12.6,5.4l1.1,1.3
			l1.6-0.7c6.3-2.9,12.4-5.8,18.4-8.8l2.6-1.3l17.9-15c-6.7-7.8-36.9,1-50.4,1c-1.6,0-14.8-7-14.8-7l-14.1,10.1
			c-8.3,5.8-12.5,12.2-12.5,20.1c0,7.1,3.6,12.9,10.9,17.3c5.9,3.6,13,5.7,18.7,7.3l0.4,0.1c2.4,0.7,3.6,1,5.9,1.7
			c0.7,0.2,1.6,0.4,2.4,0.6c4.9,1.3,13.2,3.4,13.1,7.8c0,0.8-0.1,2.6-4.2,3.9c-2.2,0.7-5.2,1.1-8.9,1.1c-0.2,0-0.4,0-0.6,0
			c-8.6-0.1-20.1-11.2-20.1-11.2l-8.1-5.4l-17.9,15l2,2.4c4.8,6,11.8,10.5,20.8,13.3c6.6,2.1,14.4,3.4,23.9,3.9
			c1.6,0.1,3.3,0.2,5,0.2c6.4,0,15.6-0.8,23.2-4.1c10.9-4.6,25.2-19.6,25.2-19.6S210.8,129.4,202.9,124.6z"/>
		<path fill="#FFFFFF" d="M100.2,71.5l-2.3-0.1v54.5v0.1c0.1,1.8,0.2,7.3-10.5,7.8c-0.2,0-0.4,0-0.7,0c-4.8,0-8.8-2.1-12.6-6.8
			l-1.1-1.3l-1.6,0.7c-6.6,2.9-13,5.9-19.2,8.9l-2.3,1.1l1.5,2.2c6.2,9.1,17.3,13.7,32.9,13.7c1.4,0,2.8-0.1,4.3-0.1
			c5.3-0.2,15.6-1.4,24-5.7c8.8-4.6,13.4-11.7,13.3-20.6V72.4l-2.2,0C115.9,72.2,108,71.9,100.2,71.5z"/>
		<path fill="#FFFFFF" d="M220.9,109.6c-6.6-4-14.6-6.3-21.1-8.1c-2.4-0.7-3.6-1-5.9-1.6c-0.6-0.2-1.4-0.3-2.1-0.6
			c-4.1-1-10.8-2.6-10.7-6.3c0-0.5,0.1-2,2.9-3.3c1.6-0.8,4-1.2,6.2-1.3c0.2,0,0.5,0,0.7,0c5.4,0,9.6,1.8,12.6,5.4l1.1,1.3l1.6-0.7
			c6.3-2.9,12.4-5.8,18.4-8.8l2.6-1.3l-1.9-2.2c-6.7-7.8-17-11.8-30.6-11.8c-1.6,0-3.1,0.1-4.8,0.2c-4.9,0.3-14.4,1.3-22.4,4.8
			c-9.3,4-14.2,10.3-14.2,18.2c0,7,3.6,12.9,10.9,17.3c5.9,3.6,13,5.7,18.7,7.3l0.4,0.1c2.4,0.7,3.6,1,5.9,1.7
			c0.7,0.2,1.6,0.4,2.4,0.7c4.9,1.3,13.2,3.5,13.1,7.7c0,0.8-0.1,2.7-4.2,4c-2.2,0.7-5.2,1-8.9,1c-0.2,0-0.4,0-0.6,0
			c-8.6-0.1-16.2-3.2-21.6-8.9l-1-1l-6.4,2.2c-4.8,1.7-9.5,3.4-14.2,5.1l-2.9,1.1l2,2.4c4.8,5.9,11.8,10.4,20.8,13.3
			c6.6,2.1,14.4,3.4,23.9,3.9c1.6,0.1,3.3,0.1,5,0.1c6.4,0,15.6-0.7,23.2-4c8.6-3.8,13.1-10.2,13.1-18.6
			C232.8,121.1,228.8,114.5,220.9,109.6z"/>
	</g>
	<g>
		<path fill="#162636" d="M74.3,180.7H79c2.2,0,3.6,1.4,3.6,3.2c0,1.1-0.7,1.9-1.7,2.2c1.7,0.4,2.4,1.5,2.4,3c0,2.1-1.6,3.8-4.1,3.8
			h-4.9V180.7z M78.7,185.2c0.8,0,1.3-0.4,1.3-1.2c0-0.7-0.4-1.1-1.2-1.1h-2.1v2.3H78.7z M79.1,190.6c1,0,1.7-0.7,1.7-1.7
			s-0.7-1.7-1.8-1.7h-2.2v3.3H79.1z"/>
		<path fill="#162636" d="M88.3,188.5v-7.8h2.5v7.6c0,1.8,0.8,2.4,2.4,2.4c1.7,0,2.4-0.7,2.4-2.4v-7.6h2.5v7.8
			c0,3.1-2.2,4.5-4.9,4.5C90.4,193,88.3,191.5,88.3,188.5z"/>
		<path fill="#162636" d="M107.6,189l-4.6-8.3h2.8l2.2,3.9c0.4,0.8,1,2.3,1,2.3s0.5-1.4,0.9-2.3l2.1-3.9h2.6l-4.3,8.1v4.1h-2.5
			C107.6,192.9,107.6,189,107.6,189z"/>
		<path fill="#162636" d="M129.2,182.9h-3.4v-2.2h9.4v2.2h-3.4v10h-2.5L129.2,182.9L129.2,182.9z"/>
		<path fill="#162636" d="M140.3,180.7h2.5v12.2h-2.5V180.7z"/>
		<path fill="#162636" d="M148.2,186.8c0-3.6,2.8-6.2,6.2-6.2c2.2,0,3.8,0.8,4.9,2.5l-1.9,1.4c-0.6-1-1.6-1.6-2.9-1.6
			c-2.2,0-3.7,1.7-3.7,3.9c0,2.3,1.5,4,3.7,4c1.6,0,2.4-0.8,3.1-1.8l1.9,1.4c-1.1,1.6-2.8,2.7-5.1,2.7
			C150.9,193,148.2,190.4,148.2,186.8z"/>
		<path fill="#162636" d="M168,185l3.2-4.3h2.9l-4.1,5.5l4.6,6.7h-3l-3.2-4.8l-1.2,1.4v3.4h-2.5v-12.1h2.5v4.2
			c0,0.6-0.1,1.4-0.1,2.1C167.2,186.3,167.6,185.5,168,185z"/>
		<path fill="#162636" d="M179.4,180.7h8.1v2.2h-5.6v3.9h4.9v2.1h-4.9v1.8h5.8v2.2h-8.3V180.7z"/>
		<path fill="#162636" d="M196.1,182.9h-3.4v-2.2h9.4v2.2h-3.4v10h-2.5L196.1,182.9L196.1,182.9z"/>
		<path fill="#162636" d="M206,190.5l2.1-1.2c0.6,0.9,1.2,1.5,2.4,1.5c1.1,0,1.7-0.5,1.7-1.2c0-0.9-0.7-1.1-1.9-1.6l-0.6-0.2
			c-1.8-0.8-3-1.8-3-3.8c0-1.9,1.4-3.3,3.6-3.3c1.6,0,2.8,0.6,3.6,2l-1.9,1.2c-0.4-0.8-0.9-1.1-1.6-1.1c-0.8,0-1.2,0.4-1.2,1.1
			c0,0.8,0.4,1.1,1.6,1.5l0.6,0.2c2.1,0.9,3.4,1.9,3.4,4c0,2.2-1.8,3.5-4.1,3.5C208.2,193,206.7,191.9,206,190.5z"/>
	</g>
	<g>
		<path fill="#FFFFFF" d="M44.7,165.4c0.3,3.2,1.1,6.2,1.8,9.3c0.7,2.9,0.5,5.7-0.9,8.4c-0.8,1.4-2,2.4-3.2,3.2
			c-0.2,0.1-0.4,0.2-0.5,0.2c-0.1,0-0.2,0-0.3,0c-0.1,0-0.2,0.1-0.3,0.1c-0.5,0.1-1.2,0.4-1.2,0.4l1,0.1c0,0,0.2,0.1,0.6,0.1
			c-0.8,1-1.7,1.3-2.7,1.5c-0.1,0-0.2,0-0.3,0c-2,0.3-3.9,0.1-5.8-0.4c-1.6-0.5-2.8-1.4-3.3-3.1c-0.3-1.1-0.8-2-1.2-3
			c-0.4-0.8-0.5-1.5-0.5-2.3c0-0.2-0.2-0.8-0.2-0.8s-0.2,0.3-0.4,0.6c-0.1,0.2-0.2,0.4-0.5,0.4c-0.2,0.1-0.4,0-0.5-0.1
			c-0.5-0.3-0.9-0.8-1-1.3c-0.5-1.2-1-2.4-1.6-3.5c-0.2-0.5-0.4-1.1-0.4-1.6c0-0.7,0.3-1.2,0.8-1.2c0.3-0.1,0.6,0,1,0.2
			c0.2,0.1,0.8,0.6,0.8,0.6s0.1-0.9-0.1-1.1c-0.1-0.2-0.5-0.5-0.6-0.6c-0.3-0.2-1.6-3.3-1.9-3.9c0-0.2,0-0.4,0.1-0.6
			c0-0.1-0.1-0.1-0.1-0.2c-0.1-0.1-0.2-0.3-0.3-0.5c0-0.2-0.1-0.4,0-0.6c0-0.1,0-0.2,0-0.4c0-0.1,0-0.2,0.1-0.3c0-0.1,0-0.1,0-0.1
			c0-0.1,0-0.1,0-0.1l0,0v-0.1l0,0l0,0l0,0l0,0l0,0c0,0,0-0.1,0.1-0.1c0-0.1,0.1-0.1,0.1-0.1c0.1-0.2,0.4-0.4,0.6-0.6
			c0.2-0.1,0.5-0.3,0.7-0.4s0.5-0.2,0.8-0.3c0.2-0.1,0.5-0.2,0.8-0.2c0.1-0.1,0.2-0.1,0.4-0.1c0.1,0,0.2,0,0.4-0.1
			c0.5-0.1,1.1-0.2,1.6-0.3c0.1-0.1,0.3-0.1,0.5-0.1c0.4,0,0.8-0.1,1.1-0.2c0.1,0,0.2,0,0.4-0.1c0.1-0.1,0.2-0.1,0.4-0.1
			c0,0,0.1-0.1,0.1-0.1l0.1,0c0,0,0,0,0.1-0.1c0,0,0.1,0,0.2-0.1l0,0l0,0l0,0l0,0l0,0l0,0h0l0.1-0.1c0.1-0.1,0.2-0.1,0.4-0.1
			c0.1-0.1,0.2-0.1,0.4-0.2c0.2-0.1,0.5-0.2,0.7-0.3c0.2-0.1,0.4-0.2,0.6-0.4c0.1-0.1,0.2-0.1,0.3-0.2c0.1-0.1,0.2-0.1,0.2-0.2
			c0.2-0.1,0.3-0.2,0.5-0.4c0.2-0.1,0.3-0.2,0.5-0.3c0.3-0.2,0.5-0.4,0.7-0.6c0.2-0.1,0.3-0.2,0.5-0.3c0.1-0.1,0.2-0.2,0.2-0.2
			s-0.2,0.2-0.5,0.7c-0.2,0.2-0.3,0.4-0.6,0.7c-0.1,0.1-0.2,0.2-0.4,0.4c0,0.1-0.2,0.2-0.2,0.2c0,0-0.2,0.1-0.2,0.2
			c-0.3,0.3-0.7,0.6-1,0.9c-0.1,0.1-0.2,0.2-0.3,0.2c0,0.1-0.1,0.1-0.2,0.1c0,0-0.1,0-0.2,0.1c-0.1,0.1-0.2,0.2-0.3,0.2
			c-0.1,0.1-0.2,0.1-0.3,0.2l-0.1,0.1l0,0.1l0,0.1c0,0.1-0.1,0.1-0.2,0.1c-0.1,0-0.2,0.1-0.4,0.2c-0.2,0.1-0.5,0.2-0.8,0.3
			c-0.5,0.1-1,0.2-1.5,0.3c-0.1,0-0.1,0.1-0.2,0.1c-0.5,0.1-1.1,0.2-1.6,0.2c-0.2,0.1-0.5,0.1-0.8,0.1c-0.1,0-0.2,0.1-0.3,0.1
			c-0.1,0-0.3,0-0.5,0.1c-0.2,0.1-0.5,0.1-0.7,0.2c-0.2,0.1-0.5,0.1-0.6,0.2c-0.2,0.1-0.4,0.2-0.5,0.4c0,0,0,0-0.1,0.1
			c0,0.1,0,0.1-0.1,0.1l0,0l0,0l0,0l0,0l0,0l0,0v0.1l0,0l0,0.1l0,0c0,0.1-0.1,0.2-0.1,0.2c0,0.1,0,0.1,0,0.1c0,0.1,0,0.1,0,0.1
			c0,0.1,0,0.3,0,0.4c0,0.2,0.1,0.4,0.2,0.5c0.1,0.1,0.2,0.1,0.4,0.1c0,0,0-0.1,0-0.1c0-0.1,0-0.1,0-0.1c0-0.1,0-0.1,0-0.1l0,0v-0.1
			l0,0l0,0l0,0l0,0l0,0c0,0,0-0.1,0.1-0.1c0-0.1,0.1-0.1,0.1-0.1c0.1-0.2,0.4-0.4,0.6-0.6c0.2-0.1,0.5-0.3,0.7-0.4s0.5-0.2,0.8-0.3
			c0.2-0.1,0.5-0.2,0.8-0.2c0.1-0.1,0.2-0.1,0.4-0.1c0.1,0,0.2,0,0.4-0.1c0.5-0.1,1.1-0.2,1.6-0.3c0.1-0.1,0.3-0.1,0.5-0.1
			c0.4,0,0.8-0.1,1.1-0.2c0.1,0,0.2,0,0.4-0.1c0.1-0.1,0.2-0.1,0.4-0.1c0,0,0.1-0.1,0.2-0.1l0.1,0c0,0,0,0,0.1-0.1
			c0,0,0.1,0,0.2-0.1l0,0l0,0l0,0l0,0l0,0l0,0h0l0.1-0.1c0.1-0.1,0.2-0.1,0.3-0.1c0.1-0.1,0.2-0.1,0.3-0.2c0.2-0.1,0.5-0.2,0.7-0.3
			c0.2-0.1,0.4-0.2,0.6-0.4c0.1-0.1,0.2-0.1,0.3-0.2c0.1-0.1,0.2-0.1,0.2-0.2c0.2-0.1,0.3-0.2,0.5-0.4c0.2-0.1,0.3-0.2,0.5-0.3
			c0.3-0.2,0.5-0.4,0.7-0.6c0.2-0.1,0.3-0.2,0.5-0.3c0.1-0.1,0.2-0.2,0.2-0.2s-0.2,0.2-0.5,0.7c-0.2,0.2-0.3,0.4-0.6,0.7
			c-0.1,0.1-0.2,0.2-0.4,0.4c0,0.1-0.2,0.2-0.2,0.2c0,0-0.2,0.1-0.2,0.2c-0.2,0.2-0.5,0.5-0.8,0.7c0.5-0.2,0.7-0.3,0.8-0.3l0,0h0
			c0.8-0.2,1.3-0.6,1.9-1.1c0.3-0.2,0.5-0.4,1-0.5c0.1,0,0.2-0.1,0.3-0.1s0.2,0,0.3,0c1.2-0.2,2.6-1.4,2.8-1.6
			c0.1-0.1,0.2-0.2,0.3-0.2c0.2-0.1,0.3,0.2,0.5,0.4C44,161.5,44.5,163.5,44.7,165.4z"/>
		<path fill="#DC4339" d="M30.1,170.3C30.1,170.3,30.1,170.2,30.1,170.3c0-0.1-0.1-0.2-0.1-0.3c0-0.2-0.1-0.5-0.1-0.8
			c0-0.4,0-0.8,0-1.2c0-0.1,0-0.2,0-0.3c0-0.1,0-0.1,0-0.2c0-0.1,0-0.1,0-0.2c0.1-0.2,0.2-0.5,0.4-0.7c0.1-0.2,0.4-0.4,0.7-0.6
			c0-0.1,0.1-0.1,0.2-0.1h0l0,0l0,0l0,0l0,0l0,0h0.1h0h0h0.1c0,0,0.1,0,0.2,0c0.2,0.1,0.5,0.1,0.7,0.2c0.1,0.1,0.2,0.1,0.2,0.2
			c0.1,0.1,0.2,0.1,0.2,0.2c0.1,0.1,0.2,0.4,0.2,0.5s0,0.2,0,0.4c0,0.1,0,0.2,0,0.2c0,0.1,0,0.1,0,0.1s0-0.1,0-0.1
			c0-0.1,0-0.1-0.1-0.2s-0.1-0.2-0.2-0.3c-0.1-0.1-0.2-0.2-0.3-0.3s-0.2-0.1-0.4-0.2s-0.3-0.1-0.5-0.1c0,0-0.1,0-0.1,0h0h0h0h-0.1
			l0,0l0,0l0,0l0,0l0,0l0,0c0,0,0,0-0.1,0.1c-0.1,0.1-0.2,0.2-0.4,0.3s-0.2,0.3-0.2,0.4c0,0.1,0,0.1,0,0.2c0,0,0,0.1,0,0.1
			c0,0.1,0,0.2-0.1,0.3c-0.1,0.3-0.2,0.8-0.3,1.1c-0.1,0.4-0.1,0.6-0.2,0.8c0,0.1,0,0.2,0,0.2C30.1,170.3,30.1,170.3,30.1,170.3z"/>
		<path fill="#DC4339" d="M38.7,167.3C38.7,167.3,38.7,167.3,38.7,167.3c0-0.1-0.1-0.1-0.1-0.2c0-0.1-0.1-0.4-0.2-0.7
			c0-0.3,0-0.7,0-1.1c0-0.2,0-0.4,0.1-0.6s0.1-0.4,0.2-0.7c0-0.1,0.1-0.2,0.2-0.3c0.1-0.1,0.2-0.2,0.3-0.3c0,0,0.2-0.1,0.2-0.1
			s0.1-0.1,0.1-0.1h0l0,0l0,0c0,0,0,0,0,0l0,0l0,0h0c0,0,0,0,0.1,0h0h0c0,0,0,0,0.1,0c0.1,0,0.2,0.1,0.3,0.1c0.1,0,0.2,0.1,0.3,0.1
			c0.2,0.1,0.3,0.2,0.4,0.4c0.2,0.2,0.3,0.5,0.3,0.6c0,0.1,0,0.1,0,0.2s0,0.1,0,0.1s0,0,0-0.1s-0.1-0.1-0.2-0.2
			c-0.2-0.1-0.3-0.2-0.5-0.4c-0.1-0.1-0.2-0.1-0.3-0.1c-0.2-0.1-0.2-0.1-0.3-0.1h0l0,0l0,0h0h0c0,0,0,0,0,0.1c0,0,0,0-0.1,0.1
			s0,0.1-0.1,0.2c0,0.1-0.1,0.3-0.2,0.4c0,0.2-0.1,0.3-0.2,0.5c-0.1,0.3-0.2,0.7-0.2,0.9c-0.1,0.3-0.2,0.5-0.2,0.7
			c0,0.1,0,0.2,0,0.2C38.7,167.2,38.7,167.3,38.7,167.3z"/>
		<path fill="#DC4339" d="M38.2,183C38.2,183,38.2,183,38.2,183c0.1,0,0.1,0,0.2,0c0.1-0.1,0.3-0.1,0.5-0.2c0.1,0,0.2-0.1,0.3-0.1
			c0.1-0.1,0.2-0.1,0.3-0.1c0.1-0.1,0.2-0.1,0.3-0.1c0.1,0,0.2,0,0.3-0.1s0.2-0.1,0.3-0.2c0,0,0.1,0,0.2,0c0-0.1,0.1-0.1,0.2-0.1
			c0.1,0,0.2-0.1,0.2-0.1s0.1-0.1,0.1-0.1c0,0,0.1,0,0.1-0.1c0,0,0-0.1,0.1-0.1c0-0.1,0-0.1,0.1-0.1c0,0,0.1-0.1,0.2-0.1
			c0-0.1,0.1-0.1,0.1-0.1c0,0,0,0,0,0s0,0,0,0c0,0.1,0,0.1,0,0.2s0,0.2,0,0.2c0,0.1,0,0.2-0.1,0.3c0,0.1,0,0.1,0,0.1
			c0,0.1,0,0.1-0.1,0.2c0,0.1-0.2,0.2-0.2,0.3c0,0.1-0.1,0.1-0.2,0.1c0,0.1-0.1,0.1-0.2,0.2c-0.2,0.1-0.2,0.2-0.4,0.2
			c-0.2,0.1-0.3,0.1-0.5,0.1s-0.3,0-0.5,0c-0.3,0-0.5,0-0.8-0.1c-0.1-0.1-0.2-0.1-0.2-0.1C38.3,183.1,38.3,183.1,38.2,183
			C38.4,183.1,38.3,183.1,38.2,183C38.3,183,38.2,183,38.2,183z"/>
		<g>
			<g>
				<path fill="#DC4339" d="M38.9,181.9c-2.6,0.5-4.5-1.1-4.7-1.2l0.6-0.7c0.1,0.1,2.2,1.8,4.8,0.7c2.7-1.1,3.2-3.3,3.2-3.4l0.9,0.2
					c0,0.1-0.7,2.8-3.8,4.1C39.6,181.7,39.2,181.8,38.9,181.9z"/>
			</g>
			<path fill="#DC4339" d="M42.2,176.6C42.2,176.6,42.3,176.6,42.2,176.6c0.1,0.1,0.2,0.2,0.3,0.2c0,0.1,0.1,0.1,0.2,0.1
				c0,0,0.1,0,0.2,0.1c0,0,0,0.1,0.1,0.1s0,0.1,0.1,0.1s0,0.1,0.1,0.1s0,0.1,0.1,0.1h0h0c0,0,0,0,0.1,0.1c0,0,0.2,0.1,0.2,0.1
				s0.2,0.1,0.2,0.1h0h0c0,0,0,0,0.1,0s0.1,0.1,0.2,0.1c0,0,0.1,0.1,0.2,0.1c0.1,0,0.1,0.1,0.1,0.1s0,0.1-0.1,0.1
				c0,0-0.1,0.1-0.2,0.1c0,0.1-0.1,0.1-0.2,0.1c0,0-0.2,0.1-0.2,0.1c-0.1,0-0.2,0-0.2,0c0,0-0.1,0-0.2,0c0,0-0.1,0-0.2,0
				c0,0-0.1,0-0.2-0.1h0c0,0,0,0,0-0.1c0,0-0.1-0.1-0.2-0.1c0,0-0.1-0.1-0.1-0.1c-0.1-0.1-0.2-0.1-0.2-0.1c0-0.1,0-0.1-0.1-0.1
				c0-0.1,0-0.1-0.1-0.1c0,0-0.1-0.1-0.2-0.2c0-0.1,0-0.1-0.1-0.2c0,0,0-0.1,0-0.1C42.2,176.7,42.2,176.6,42.2,176.6z"/>
			<path fill="#DC4339" d="M34.8,179.3c0,0,0,0.1,0,0.1c0,0.1,0,0.1,0,0.1c0,0.1,0,0.1,0,0.2c0,0,0,0.1,0,0.2c0,0.1,0,0.1,0,0.1
				c0,0.1,0,0.1,0,0.1c0,0.1,0,0.2,0,0.2c0,0.1,0,0.2-0.1,0.2c0,0.1-0.1,0.2-0.2,0.2c0,0.1-0.1,0.2-0.2,0.2c0,0-0.1,0.1-0.2,0.1
				c0,0.1-0.1,0.1-0.2,0.1c0,0.1-0.1,0.1-0.2,0.1c0,0-0.1,0.1-0.2,0.1c-0.1,0.1-0.1,0.1-0.1,0.1s0-0.1,0-0.1c0,0,0-0.1,0-0.1
				s0-0.1,0-0.1c0-0.1,0-0.1,0.1-0.2c0,0,0-0.1,0.1-0.2c0-0.1,0-0.2,0.1-0.2c0,0,0-0.1,0.1-0.2c0-0.1,0-0.2,0.1-0.2
				c0,0,0-0.1,0.1-0.2c0-0.1,0-0.1,0-0.1c0-0.1,0-0.1,0-0.1c0,0,0,0,0-0.1s0-0.1,0-0.1C34.8,179.6,34.8,179.5,34.8,179.3
				C34.8,179.4,34.8,179.4,34.8,179.3L34.8,179.3z"/>
		</g>
		<g>
			<path fill="#DC4339" d="M24,172l-0.8-0.9c0.6-1.4,2-2.1,2.7-2.5l0,1.1C25.1,170.3,24.5,170.9,24,172z"/>
		</g>
		<g>
			<path fill="#DC4339" d="M23.6,170.4l-0.2-1.4c0-0.1,0.6-0.9,2.5-1.8l0,1.1C24.3,169.1,23.6,170.4,23.6,170.4z"/>
		</g>
		<path fill="#DC4339" d="M31.5,172.9c0,0,0.3,0,0.7-0.1c0.1,0,0.2-0.1,0.3-0.1s0.2-0.1,0.3-0.1s0.2-0.1,0.2-0.1
			c0.1,0,0.2-0.1,0.2-0.1h0h0c0,0,0.1-0.1,0.1-0.1h0h0c0,0,0.1-0.1,0.2-0.1c0,0,0.1-0.1,0.2-0.1c0,0,0.1-0.1,0.2-0.1
			c0,0,0.1-0.1,0.2-0.1c0,0,0.1-0.1,0.2-0.1c0.1-0.1,0.2-0.1,0.2-0.1c0.1-0.1,0.2-0.1,0.2-0.1c0-0.1,0.1-0.1,0.2-0.1c0,0,0,0,0,0
			s0,0,0,0.1s0,0.1,0,0.1c0,0.1,0,0.2,0,0.2c0,0.1,0,0.1,0,0.2c0,0.1,0,0.1,0,0.2c0,0,0,0.1,0,0.1c0,0.1,0,0.1-0.1,0.1
			c0,0.1,0,0.1-0.1,0.2s-0.1,0.1-0.2,0.2c0,0-0.1,0.1-0.2,0.1c0,0.1-0.2,0.1-0.2,0.1c-0.2,0.1-0.3,0.2-0.5,0.2
			c-0.2,0-0.3,0.1-0.5,0.1s-0.3,0-0.5-0.1s-0.3-0.1-0.4-0.1c-0.1-0.1-0.2-0.2-0.3-0.2c-0.2-0.1-0.3-0.3-0.4-0.4c0-0.1,0-0.1,0-0.1
			C31.5,172.9,31.5,172.9,31.5,172.9z"/>
		<path fill="#DC4339" d="M39.3,170.9c0,0,0.1,0,0.2-0.1c0.2-0.1,0.3-0.1,0.5-0.1c0.2,0,0.4-0.1,0.6-0.1c0.1-0.1,0.2-0.1,0.3-0.1
			c0.1,0,0.2,0,0.2-0.1c0.1-0.1,0.2-0.1,0.2-0.1c0.1-0.1,0.2-0.1,0.2-0.2s0.2-0.1,0.2-0.2c0,0,0.1,0,0.1-0.1c0-0.1,0.1-0.1,0.1-0.1
			c0-0.1,0.2-0.1,0.2-0.2c0,0,0.2-0.1,0.2-0.1c0.1-0.1,0.2-0.1,0.2-0.1s0,0.1,0,0.2c0,0.1,0,0.2,0,0.2c0,0.1,0,0.1,0,0.2
			s0,0.1,0,0.2c0,0,0,0.1,0,0.2c0,0.1,0,0.2,0,0.2c0,0.1-0.1,0.3-0.2,0.4c0,0.1-0.1,0.1-0.2,0.2c0,0.1,0,0.1-0.1,0.1
			c0,0.1,0,0.1-0.1,0.1c-0.2,0.1-0.3,0.2-0.5,0.3c-0.2,0.1-0.3,0.1-0.5,0.2c-0.2,0-0.3,0-0.5,0c-0.3-0.1-0.6-0.2-0.8-0.2
			c-0.1-0.1-0.2-0.1-0.2-0.2c-0.1,0-0.2-0.1-0.2-0.2C39.3,171,39.3,170.9,39.3,170.9z"/>
		<path fill="#DC4339" d="M22.8,166.5c0.1,0.4,1.1,1.2,1.1,1.2s0.8,3.6,1.1,3.9c0.4,0.3-0.6,0.1-0.6,0.1l-2.1-4.4L22.8,166.5z"/>
		<path fill="#DC4339" d="M43.6,159.8c0-0.1-0.1-0.2-0.2-0.4c-1.8-2.6-3.7-3.9-4.6-4.5c0,0-0.2-0.1-0.2-0.1
			c-0.2-0.1-0.9-0.5-2.4-0.6c-0.8-0.1-2.2-0.1-4,0.2l0,0c-1.1,0.2-2.2,0.5-3.4,1c-2.1,0.9-4.1,2.1-5.5,3.6c-1.5,1.4-2.4,3-2.9,4.6
			c-0.4,1.4-0.1,3.2,0.9,5.5c0.6,1.6,1.4,2.9,1.4,2.9l0,0.1c0,0.1-0.1,0.1-0.2,0.2c-0.2,0.4-0.4,0.8-0.4,1.3c0,0.7,0.1,1.4,0.5,2.1
			c0.6,1.2,1.1,2.4,1.5,3.5c0.3,0.8,0.8,1.3,1.5,1.8c0.4,0.2,0.8,0.2,1.1,0.2l0,0c0.1,0.5,0.2,1,0.5,1.6c0.1,0.2,0.1,0.3,0.2,0.5
			c0.4,0.8,0.7,1.6,0.9,2.3c0.5,1.8,1.9,3.1,3.9,3.7c2.1,0.6,4.2,0.8,6.2,0.5c0.1,0,0.2-0.1,0.3-0.1c1-0.2,2.2-0.5,3.2-1.8l0.7-0.9
			c1.2-0.8,2.5-1.8,3.3-3.4c0.7-1.4,1.2-2.9,1.3-4.5c0.2-1.4,0-2.9-0.3-4.5c-0.1-0.4-0.2-0.8-0.2-1.2c-0.6-2.6-1.2-5.3-1.5-7.9
			C45.3,163.7,45,161.5,43.6,159.8z M44.7,165.4c0.3,3.2,1.1,6.2,1.8,9.3c0.7,2.9,0.5,5.7-0.9,8.4c-0.8,1.4-2,2.4-3.2,3.2
			c-0.2,0.1-0.4,0.2-0.5,0.2c-0.1,0-0.2,0-0.3,0c-0.1,0-0.2,0.1-0.3,0.1c-0.5,0.1-1.2,0.4-1.2,0.4l1,0.1c0,0,0.2,0.1,0.6,0.1
			c-0.8,1-1.7,1.3-2.7,1.5c-0.1,0-0.2,0-0.3,0c-2,0.3-3.9,0.1-5.8-0.4c-1.6-0.5-2.8-1.4-3.3-3.1c-0.3-1.1-0.8-2-1.2-3
			c-0.4-0.8-0.5-1.5-0.5-2.3c0-0.2-0.2-0.8-0.2-0.8s-0.2,0.3-0.4,0.6c-0.1,0.2-0.2,0.4-0.5,0.4c-0.2,0.1-0.4,0-0.5-0.1
			c-0.5-0.3-0.9-0.8-1-1.3c-0.5-1.2-1-2.4-1.6-3.5c-0.2-0.5-0.4-1.1-0.4-1.6c0-0.7,0.3-1.2,0.8-1.2c0.3-0.1,0.6,0,1,0.2
			c0.2,0.1,0.8,0.6,0.8,0.6s0.1-0.9-0.1-1.1c-0.1-0.2-0.5-0.5-0.6-0.6c-0.3-0.2-1.6-3.3-1.9-3.9c0-0.2,0-0.4,0.1-0.6
			c0-0.1-0.1-0.1-0.1-0.2c-0.1-0.1-0.2-0.3-0.3-0.5c0-0.2-0.1-0.4,0-0.6c0-0.1,0-0.2,0-0.4c0-0.1,0-0.2,0.1-0.3c0-0.1,0-0.1,0-0.1
			c0-0.1,0-0.1,0-0.1l0,0v-0.1l0,0l0,0l0,0l0,0l0,0c0,0,0-0.1,0.1-0.1c0-0.1,0.1-0.1,0.1-0.1c0.1-0.2,0.4-0.4,0.6-0.6
			c0.2-0.1,0.5-0.3,0.7-0.4s0.5-0.2,0.8-0.3c0.2-0.1,0.5-0.2,0.8-0.2c0.1-0.1,0.2-0.1,0.4-0.1c0.1,0,0.2,0,0.4-0.1
			c0.5-0.1,1.1-0.2,1.6-0.3c0.1-0.1,0.3-0.1,0.5-0.1c0.4,0,0.8-0.1,1.1-0.2c0.1,0,0.2,0,0.4-0.1c0.1-0.1,0.2-0.1,0.4-0.1
			c0,0,0.1-0.1,0.1-0.1l0.1,0c0,0,0,0,0.1-0.1c0,0,0.1,0,0.2-0.1l0,0l0,0l0,0l0,0l0,0l0,0h0l0.1-0.1c0.1-0.1,0.2-0.1,0.4-0.1
			c0.1-0.1,0.2-0.1,0.4-0.2c0.2-0.1,0.5-0.2,0.7-0.3c0.2-0.1,0.4-0.2,0.6-0.4c0.1-0.1,0.2-0.1,0.3-0.2c0.1-0.1,0.2-0.1,0.2-0.2
			c0.2-0.1,0.3-0.2,0.5-0.4c0.2-0.1,0.3-0.2,0.5-0.3c0.3-0.2,0.5-0.4,0.7-0.6c0.2-0.1,0.3-0.2,0.5-0.3c0.1-0.1,0.2-0.2,0.2-0.2
			s-0.2,0.2-0.5,0.7c-0.2,0.2-0.3,0.4-0.6,0.7c-0.1,0.1-0.2,0.2-0.4,0.4c0,0.1-0.2,0.2-0.2,0.2c0,0-0.2,0.1-0.2,0.2
			c-0.3,0.3-0.7,0.6-1,0.9c-0.1,0.1-0.2,0.2-0.3,0.2c0,0.1-0.1,0.1-0.2,0.1c0,0-0.1,0-0.2,0.1c-0.1,0.1-0.2,0.2-0.3,0.2
			c-0.1,0.1-0.2,0.1-0.3,0.2l-0.1,0.1l0,0.1l0,0.1c0,0.1-0.1,0.1-0.2,0.1c-0.1,0-0.2,0.1-0.4,0.2c-0.2,0.1-0.5,0.2-0.8,0.3
			c-0.5,0.1-1,0.2-1.5,0.3c-0.1,0-0.1,0.1-0.2,0.1c-0.5,0.1-1.1,0.2-1.6,0.2c-0.2,0.1-0.5,0.1-0.8,0.1c-0.1,0-0.2,0.1-0.3,0.1
			c-0.1,0-0.3,0-0.5,0.1c-0.2,0.1-0.5,0.1-0.7,0.2c-0.2,0.1-0.5,0.1-0.6,0.2c-0.2,0.1-0.4,0.2-0.5,0.4c0,0,0,0-0.1,0.1
			c0,0.1,0,0.1-0.1,0.1l0,0l0,0l0,0l0,0l0,0l0,0v0.1l0,0l0,0.1l0,0c0,0.1-0.1,0.2-0.1,0.2c0,0.1,0,0.1,0,0.1c0,0.1,0,0.1,0,0.1
			c0,0.1,0,0.3,0,0.4c0,0.2,0.1,0.4,0.2,0.5c0.1,0.1,0.2,0.1,0.4,0.1c0,0,0-0.1,0-0.1c0-0.1,0-0.1,0-0.1c0-0.1,0-0.1,0-0.1l0,0v-0.1
			l0,0l0,0l0,0l0,0l0,0c0,0,0-0.1,0.1-0.1c0-0.1,0.1-0.1,0.1-0.1c0.1-0.2,0.4-0.4,0.6-0.6c0.2-0.1,0.5-0.3,0.7-0.4s0.5-0.2,0.8-0.3
			c0.2-0.1,0.5-0.2,0.8-0.2c0.1-0.1,0.2-0.1,0.4-0.1c0.1,0,0.2,0,0.4-0.1c0.5-0.1,1.1-0.2,1.6-0.3c0.1-0.1,0.3-0.1,0.5-0.1
			c0.4,0,0.8-0.1,1.1-0.2c0.1,0,0.2,0,0.4-0.1c0.1-0.1,0.2-0.1,0.4-0.1c0,0,0.1-0.1,0.2-0.1l0.1,0c0,0,0,0,0.1-0.1
			c0,0,0.1,0,0.2-0.1l0,0l0,0l0,0l0,0l0,0l0,0h0l0.1-0.1c0.1-0.1,0.2-0.1,0.3-0.1c0.1-0.1,0.2-0.1,0.3-0.2c0.2-0.1,0.5-0.2,0.7-0.3
			c0.2-0.1,0.4-0.2,0.6-0.4c0.1-0.1,0.2-0.1,0.3-0.2c0.1-0.1,0.2-0.1,0.2-0.2c0.2-0.1,0.3-0.2,0.5-0.4c0.2-0.1,0.3-0.2,0.5-0.3
			c0.3-0.2,0.5-0.4,0.7-0.6c0.2-0.1,0.3-0.2,0.5-0.3c0.1-0.1,0.2-0.2,0.2-0.2s-0.2,0.2-0.5,0.7c-0.2,0.2-0.3,0.4-0.6,0.7
			c-0.1,0.1-0.2,0.2-0.4,0.4c0,0.1-0.2,0.2-0.2,0.2c0,0-0.2,0.1-0.2,0.2c-0.2,0.2-0.5,0.5-0.8,0.7c0.5-0.2,0.7-0.3,0.8-0.3l0,0h0
			c0.8-0.2,1.3-0.6,1.9-1.1c0.3-0.2,0.5-0.4,1-0.5c0.1,0,0.2-0.1,0.3-0.1s0.2,0,0.3,0c1.2-0.2,2.6-1.4,2.8-1.6
			c0.1-0.1,0.2-0.2,0.3-0.2c0.2-0.1,0.3,0.2,0.5,0.4C44,161.5,44.5,163.5,44.7,165.4z"/>
		<path fill="#DC4339" d="M37.3,170.7c0.1,0.2,0.2,0.4,0.3,0.7l0.3,0.6l0.2,0.3c0,0.1,0.1,0.2,0.2,0.3c0,0.1,0.1,0.2,0.2,0.3
			c0,0.1,0.1,0.2,0.2,0.3c0,0.1,0.1,0.2,0.2,0.3c0,0.1,0.1,0.2,0.2,0.3c0,0.1,0.1,0.2,0.2,0.3l0.1,0.2l0.1,0.1c0,0.1,0,0.1,0.1,0.1
			c0,0.1,0,0.1,0.1,0.2l0.1,0.2l0.1,0.1c0,0.1,0.1,0.1,0.1,0.1l0,0.1l0,0c0.1,0.1,0.2,0.2,0.2,0.2l0.3,0.3l-0.4,0.2
			c-0.2,0.1-0.3,0.1-0.5,0.2l-0.2,0.1c0,0.1-0.2,0.1-0.2,0.1c0,0.1-0.2,0.1-0.2,0.1c0,0.1-0.2,0.1-0.2,0.1c-0.2,0.1-0.2,0.1-0.4,0.2
			c0.1-0.2,0.2-0.2,0.3-0.4s0.2-0.2,0.3-0.4c0.2-0.1,0.2-0.2,0.4-0.3c0-0.1,0.2-0.1,0.2-0.2s0.2-0.1,0.2-0.1l0,0.4
			c-0.1,0-0.2-0.1-0.3-0.2l-0.1-0.1l0,0c0-0.1-0.1-0.1-0.2-0.1l-0.2-0.1l-0.2-0.2c0-0.1-0.1-0.1-0.1-0.2c0,0-0.1-0.1-0.1-0.1
			c-0.1-0.1-0.2-0.2-0.2-0.3c0-0.1-0.2-0.2-0.2-0.3s-0.1-0.2-0.2-0.3c0-0.1-0.1-0.2-0.2-0.3c0-0.1-0.1-0.2-0.2-0.4
			c0-0.1-0.1-0.2-0.1-0.4c0-0.1,0-0.2-0.1-0.3s0-0.2-0.1-0.3c0-0.1,0-0.2,0-0.4s0-0.2,0-0.4c0-0.1,0-0.2,0-0.3
			C37.3,170.9,37.3,170.8,37.3,170.7z"/>
	</g>
	<g>
		<g>
			<path fill="#DC4339" d="M265.7,156c0.3,0,0.6,0.1,0.9,0.3c0.3,0.3,0.2,0.7,0.1,1.1c-0.4,1-0.9,1.6-1.5,2.3
				c-1.1,1.2-2.2,2.4-3.4,3.7c-0.4,0.4-1.6,2.3-1.6,2.3s1.5-0.9,2.4-1.6c1-0.9,2.9-2.3,4-3.7c0.5-0.6,1-1.2,1.8-1.5
				c0.2-0.1,0.4-0.2,0.6-0.2s0.5,0.1,0.7,0.2c0.4,0.4,0.2,0.8,0,1.2c-0.7,1.3-1.9,2.6-2.9,3.7c-1.2,1.3-2.2,2.3-2.9,3s-2,2.8-2,2.8
				s1.3-0.9,1.6-1.1c0.8-0.5,1.4-0.9,1.9-1.2c0.5-0.4,1.2-0.8,1.9-1.3c0.4-0.3,0.8-0.5,1.2-0.7c0.2-0.1,0.5-0.1,0.7-0.1
				c0.4,0,0.7,0.1,1,0.4c0.5,0.6,0,1.1-0.2,1.6c-1.4,1.7-3.1,2.9-4.7,4.4c-1.8,1.8-3.3,4-5.1,5.7c-1.3,1.2-2.4,2.4-3.4,3.8
				c-1.1,1.6-1.6,3.3-1.4,5.2c0.1,0.7-0.2,1-0.8,1.1c-1.4,0.3-2.9,0.5-4.5,0.5c-0.1,0-0.2,0-0.3,0s-0.1,0-0.2,0
				c-1.4,0-2.9-0.2-4.5-0.5c-0.6-0.1-0.9-0.3-0.8-1c0.2-3.4-1.1-5.4-3.9-7.4c-0.9-0.7-1.9-1.3-2.9-2.1c-1.2-0.9-1.2-1.5-0.1-2.6
				c0.8-0.8,1.6-1.4,2.5-2c1.6-1.1,3.3-2.3,4.3-4.1c0.1-0.2,0.2-0.3,0.4-0.3s0.2,0.1,0.4,0.3c0.4,0.4,0.4,0.9,0.2,1.5
				c-0.3,0.9-0.8,1.7-1.4,2.3c-0.7,0.8-0.9,1.7-0.4,2.6c0.4,0.9,1.2,1.1,2.1,1.1c0.1,0,0.1,0,0.1,0c2.9-0.1,6.1-2.6,6.9-5.3
				c0.1-0.5,0.1-1,0.1-1.5c-0.1-0.7-0.6-1.2-1.4-1.2c-0.1,0-0.2,0-0.3,0c-0.9,0.2-1.5,0.7-2.2,1.1c-0.4,0.2-0.9,0.5-1.3,0.5
				c-0.2,0-0.4-0.1-0.6-0.2c-0.6-0.3-0.9-1.1-0.9-1.7c0-0.4,0.7-0.4,1.1-0.5c1.1-0.5,2-1.2,2.9-1.9s1.6-0.9,2.1-0.9
				c0.6,0,1.2,0.4,2.2,1.2c0.4,0.3,0.7,0.4,0.9,0.4c0.4,0,0.8-0.2,1.2-0.7c2.7-2.8,5-5.2,7.6-7.9c0.5-0.5,1-0.9,1.8-1.2
				C265.5,156,265.5,156,265.7,156 M265.7,154.8c-0.2,0-0.5,0.1-0.7,0.1c-1,0.3-1.8,0.8-2.3,1.4c-1.4,1.4-2.7,2.8-4,4.2
				c-1.1,1.2-2.3,2.4-3.6,3.7c-0.1,0.2-0.2,0.2-0.3,0.3c-0.1-0.1-0.1-0.1-0.1-0.1c-0.9-0.8-1.9-1.4-3-1.4c-0.9,0-1.8,0.4-2.9,1.2
				c-0.2,0.1-0.4,0.4-0.7,0.5c-0.7,0.5-1.4,0.9-2.1,1.2c-0.1,0-0.1,0.1-0.2,0.1c-0.2,0.1-0.5,0.1-0.8,0.2s-0.6,0.4-0.7,0.7
				c-0.1,0-0.1,0-0.2,0c-0.4,0-0.9,0.1-1.4,0.9c-0.8,1.4-2.1,2.4-3.6,3.4c-0.1,0.1-0.2,0.1-0.4,0.2l-0.2,0.1
				c-0.9,0.6-1.7,1.2-2.4,2.1c-0.6,0.7-1.2,1.4-1.1,2.4c0.1,0.9,0.8,1.6,1.4,2.1c0.6,0.5,1.3,0.9,1.9,1.4c0.3,0.2,0.6,0.5,0.9,0.7
				c2.6,1.9,3.6,3.6,3.4,6.3c-0.1,0.7,0.1,2,1.8,2.3c1.9,0.4,3.4,0.5,4.8,0.5c0.1,0,0.1,0,0.2,0s0.2,0,0.3,0c1.6,0,3.1-0.2,4.8-0.5
				c1.7-0.4,1.8-1.7,1.8-2.4c-0.1-1.6,0.2-3,1.2-4.4c1-1.4,2-2.6,3.1-3.6c1.1-1,2.1-2.2,3.1-3.4c0.7-0.8,1.4-1.6,2.1-2.3
				c0.5-0.6,1.1-1.1,1.8-1.7c1-0.9,2-1.8,3-2.9c0.2-0.2,0.5-0.6,0.6-1.1c0.2-0.7,0.1-1.4-0.4-2s-1.2-0.9-1.9-0.9
				c-0.2,0-0.5,0.1-0.8,0.1c0.9-1,1.8-2,2.4-3.2c0.1-0.3,0.4-0.6,0.4-1c0.1-0.7-0.1-1.2-0.6-1.7c-0.4-0.4-1-0.6-1.5-0.6
				c-0.3,0-0.6,0.1-1,0.2c0.2-0.6,0.3-1.5-0.5-2.3C267,155,266.4,154.8,265.7,154.8L265.7,154.8z M246.9,170.7
				c0.8,0,1.4-0.3,1.9-0.7l0.1,0c0.1-0.1,0.4-0.2,0.5-0.3c0.4-0.3,0.9-0.5,1.2-0.6c0.1,0,0.1,0,0.1,0s0.1,0,0.1,0v0.1
				c0.1,0.3,0.1,0.6-0.1,0.9c-0.3,1.1-1.1,2.2-2.2,3.1c-1.1,0.8-2.4,1.4-3.5,1.4c-0.1,0-0.1,0-0.1,0c-0.8,0-0.9-0.2-1-0.4
				c-0.1-0.3-0.2-0.7,0.2-1.2c0.8-0.9,1.4-1.7,1.6-2.7C246.2,170.6,246.6,170.7,246.9,170.7L246.9,170.7z"/>
			<path fill="#FFFFFF" d="M269.7,167.2c-1.4,1.7-3.1,2.9-4.7,4.4c-1.8,1.8-3.3,4-5.1,5.7c-1.3,1.1-2.4,2.4-3.4,3.8
				c-1.1,1.6-1.6,3.3-1.4,5.2c0.1,0.7-0.2,0.9-0.8,1.1c-1.6,0.4-3.1,0.6-4.8,0.6c-1.5,0-3.1-0.2-4.8-0.5c-0.6-0.1-0.9-0.3-0.8-1
				c0.2-3.4-1.1-5.4-3.9-7.4c-0.9-0.7-1.9-1.3-2.9-2.1c-1.2-0.9-1.2-1.5-0.1-2.7c0.8-0.8,1.6-1.4,2.5-2c1.6-1.1,3.3-2.3,4.3-4
				c0.2-0.5,0.4-0.3,0.7,0c0.4,0.4,0.4,0.9,0.2,1.5c-0.3,0.9-0.8,1.6-1.4,2.3c-0.7,0.8-0.9,1.7-0.4,2.6c0.4,0.9,1.4,1.1,2.2,1.1
				c2.9-0.1,6.1-2.6,6.9-5.4c0.1-0.5,0.1-1,0.1-1.5c-0.1-0.8-0.8-1.2-1.6-1.1c-0.9,0.2-1.5,0.7-2.2,1.1c-0.6,0.3-1.3,0.8-2,0.3
				c-0.6-0.3-0.9-1-0.9-1.6c0-0.4,0.7-0.4,1.1-0.6c1.1-0.4,2-1.2,2.9-1.8c1.9-1.4,2.5-1.3,4.4,0.2c0.9,0.7,1.4,0.6,2.1-0.3
				c2.7-2.8,5-5.2,7.6-7.9c0.5-0.5,1-0.9,1.8-1.2c0.4-0.1,1,0,1.2,0.2c0.3,0.3,0.2,0.7,0.1,1.1c-0.4,0.9-0.9,1.6-1.5,2.3
				c-1.1,1.2-2.2,2.4-3.4,3.7c-0.4,0.4-1.6,2.3-1.6,2.3s1.5-0.8,2.4-1.6c1-0.9,2.9-2.4,4-3.7c0.5-0.6,1-1.2,1.8-1.5
				c0.5-0.2,1-0.2,1.3,0.1c0.4,0.4,0.2,0.9,0,1.2c-0.7,1.4-1.9,2.6-2.9,3.7c-1.2,1.3-2.2,2.3-2.9,3c-0.6,0.7-2,2.8-2,2.8
				s1.3-0.9,1.6-1.1c0.8-0.4,1.4-0.8,1.9-1.2c0.5-0.4,1.2-0.8,1.9-1.4c0.4-0.3,0.8-0.5,1.2-0.7c0.6-0.3,1.2-0.2,1.6,0.3
				C270.5,166.3,270,166.8,269.7,167.2z"/>
			<path fill="#FFFFFF" d="M233.6,162.1c0,0,0.1,0,0.1,0s0.1,0,0.3,0c0.2,0,0.6,0.1,1,0.1c0.4,0.1,0.9,0.1,1.4,0.2
				c0.5,0.1,1,0.2,1.5,0.4c0.5,0.2,1,0.3,1.5,0.6c0.4,0.2,0.9,0.4,1.2,0.7c0.4,0.2,0.6,0.4,0.9,0.6c0.1,0.1,0.2,0.1,0.2,0.1
				c0.1,0.1,0.1,0.1,0.1,0.1s-0.1,0-0.1,0s-0.1,0-0.3,0c-0.2,0-0.6-0.1-1-0.1c-0.4-0.1-0.9-0.1-1.4-0.2c-0.5-0.1-1-0.2-1.5-0.4
				s-1-0.3-1.5-0.6c-0.4-0.2-0.9-0.4-1.2-0.7c-0.4-0.2-0.6-0.4-0.9-0.6c-0.1-0.1-0.2-0.1-0.2-0.1
				C233.6,162.2,233.6,162.1,233.6,162.1z"/>
			<path fill="#FFFFFF" d="M240.9,155.5c0,0,0,0.1,0.1,0.1c0.1,0.1,0.1,0.1,0.1,0.2c0.1,0.2,0.4,0.5,0.6,0.9
				c0.2,0.3,0.4,0.8,0.6,1.2c0.2,0.4,0.4,1,0.6,1.5c0.1,0.5,0.3,1,0.4,1.5c0.1,0.5,0.2,1,0.2,1.4c0.1,0.4,0.1,0.8,0.1,1
				c0,0.1,0,0.2,0,0.3c0,0.1,0,0.1,0,0.1s0-0.1-0.1-0.1c-0.1-0.1-0.1-0.1-0.1-0.2c-0.1-0.2-0.4-0.5-0.6-0.9
				c-0.2-0.3-0.4-0.8-0.6-1.2c-0.2-0.4-0.4-1-0.6-1.5c-0.1-0.5-0.3-1-0.4-1.5c-0.1-0.5-0.2-1-0.2-1.4c-0.1-0.4-0.1-0.8-0.1-1
				c0-0.1,0-0.2,0-0.3S240.9,155.5,240.9,155.5z"/>
			<path fill="#FFFFFF" d="M245.8,162.8C245.8,162.8,245.8,162.8,245.8,162.8c0-0.1,0-0.2-0.1-0.3c0-0.2-0.1-0.4,0-0.8
				c0-0.3,0.1-0.6,0.1-1.1s0.1-0.8,0.2-1.2c0.1-0.4,0.2-0.8,0.4-1.1s0.3-0.7,0.5-0.9c0.1-0.2,0.3-0.5,0.4-0.6
				c0.1-0.1,0.1-0.2,0.1-0.2c0.1-0.1,0.1-0.1,0.1-0.1s0,0.1,0,0.1c0,0,0,0.1,0.1,0.2c0,0.2,0.1,0.5,0,0.8c0,0.3-0.1,0.7-0.1,1.1
				c-0.1,0.4-0.1,0.8-0.2,1.1s-0.2,0.8-0.4,1.1c-0.1,0.3-0.3,0.6-0.5,0.9c-0.2,0.3-0.3,0.5-0.4,0.7
				C245.9,162.6,245.9,162.8,245.8,162.8C245.8,162.8,245.8,162.8,245.8,162.8z"/>
		</g>
	</g>
</g>
</svg>
