<?xml version="1.0" encoding="utf-8"?>
<!-- Generator: Adobe Illustrator 18.0.0, SVG Export Plug-In . SVG Version: 6.00 Build 0)  -->
<!DOCTYPE svg PUBLIC "-//W3C//DTD SVG 1.1//EN" "http://www.w3.org/Graphics/SVG/1.1/DTD/svg11.dtd">
<svg version="1.1" id="Layer_1" xmlns="http://www.w3.org/2000/svg" xmlns:xlink="http://www.w3.org/1999/xlink" x="0px" y="0px"
	 viewBox="0 0 300 230" enable-background="new 0 0 300 230" xml:space="preserve">
<g>
	<path fill="#162636" d="M22,121c-1.4,0-2.8,0.1-4.3,0.4c-1.6,0.3-3.3,0.8-4.8,1.5c-3.1,1.3-5.8,3.1-8,5.2c-2.3,2.3-3.9,4.9-4.6,7.5
		c-0.7,2.7-0.4,5.8,1.1,9.6c0.3,0.7,0.6,1.3,0.8,1.9c-0.1,0.4-0.1,0.9-0.1,1.3c-0.1,1.7,0.3,3.5,1.1,5c0.6,1.1,1.1,2.4,1.6,3.5
		c0.8,1.9,2.1,3.5,3.8,4.5c0.1,0.1,0.1,0.3,0.2,0.4c0.4,0.8,0.7,1.4,0.8,2c1.1,3.8,3.9,6.6,8,7.8c2.1,0.6,4.2,0.9,6.2,0.9
		c1.1,0,2.2-0.1,3.2-0.3c0.2,0,0.4-0.1,0.5-0.1c1.1-0.2,4.3-0.8,6.7-4l0.3-0.4c1.6-1.1,3.5-2.8,4.9-5.4c1.1-2.2,1.8-4.5,2-7
		c0.2-2.2,0-4.5-0.5-6.8c-0.1-0.5-0.2-0.9-0.3-1.4l0,0c-0.6-2.9-1.3-5.8-1.6-8.6c-0.2-2.2-0.8-5.5-3-8.5c-0.1-0.2-0.2-0.4-0.4-0.6
		c-2.7-3.9-5.5-5.8-6.7-6.6c-0.1,0-0.1-0.1-0.2-0.1c-1.3-0.9-3-1.4-5.1-1.6C23.2,121,22.6,121,22,121L22,121z"/>
	<g>
		<path fill="#162636" d="M288.3,121.6c-0.7,0-1.4,0.1-2.1,0.3c-2.4,0.6-3.9,1.9-4.9,3c-1.7,1.7-3.2,3.3-4.8,4.9
			c-0.5,0.6-1.1,1.1-1.6,1.7c-0.8-0.3-1.8-0.5-2.8-0.5c-2.5,0-4.4,1.1-6.2,2.3c-0.3,0.2-0.6,0.4-0.9,0.6c-0.4,0.3-0.8,0.6-1.1,0.8
			c-0.5,0.1-1.1,0.3-1.7,0.6c-0.3,0.2-0.6,0.4-0.9,0.6c-1.6,0.5-3,1.7-3.9,3.3c-0.4,0.7-1.5,1.5-2.7,2.3l-0.4,0.3l-0.2,0.2
			c-1.1,0.8-2.4,1.7-3.6,3c-0.7,0.8-3,3.1-2.7,6.6s2.8,5.4,3.6,6.1c0.9,0.7,1.7,1.3,2.5,1.8c0.3,0.2,0.7,0.5,1,0.7
			c1.9,1.3,1.9,1.7,1.8,2.9c-0.2,4,2.3,7.1,6.2,7.9c2.5,0.5,4.5,0.7,6.4,0.7c0.1,0,0.2,0,0.3,0c0.1,0,0.2,0,0.3,0
			c2.2,0,4.3-0.2,6.6-0.8c4-0.9,6.4-4.2,6-8.2c0-0.4,0-0.9,0.5-1.7c0.9-1.3,1.8-2.4,2.8-3.2c1.6-1.4,3-3,4.1-4.4
			c0.8-0.9,1.5-1.7,2.1-2.4c0.5-0.5,1.1-1,1.8-1.6c1.3-1.1,2.7-2.4,4.1-4.1c0.4-0.5,1.1-1.4,1.6-2.8c0.7-2.2,0.4-4.7-0.9-6.6
			c0.3-0.6,0.6-1.5,0.8-2.5c0.3-2.4-0.5-4.8-2.4-6.4c-0.6-0.5-1.3-1-2-1.3c-0.3-0.6-0.7-1.1-1.2-1.6
			C292.5,122.5,290.4,121.6,288.3,121.6L288.3,121.6z"/>
	</g>
	<path fill="#C0C0C0" d="M276.3,60.4c-1.1-1.8-4.5-4.2-21.4-8.6c-10.2-2.7-24.2-5.8-40.5-9c-28.1-5.5-59.5-10.4-66.1-10.4
		c-6.5,0-38,5-66,10.4c-57.9,11.3-61,16.1-62,17.6c-5.8,9.2-7.7,15.7-7.7,56.6c0,42.9,2.2,48,7.7,56.6c1.1,1.8,4.5,4.2,21.4,8.6
		c10.2,2.7,24.2,5.8,40.5,9c28.1,5.5,59.5,10.4,66.1,10.4c6.5,0,38-5,66.1-10.4c57.9-11.3,60.9-16,61.9-17.6
		c5.8-9.2,7.7-15.7,7.7-56.6C284,74.1,281.8,69,276.3,60.4z"/>
	<path fill="#162636" d="M148.3,34.4c12.1,0,121,18.7,126.3,27.1S282,75.2,282,117s-2,47.1-7.4,55.5c-5.3,8.4-114.2,27.1-126.3,27.1
		S27.3,180.9,22,172.5s-7.4-13.7-7.4-55.5s2-47.1,7.4-55.5S136.3,34.4,148.3,34.4 M148.3,29.3c-6.8,0-38,4.9-66.6,10.5
		c-16.3,3.2-30.4,6.3-40.7,9c-18.8,5-21.8,7.7-23.3,10c-6.1,9.7-8.1,16.4-8.1,58.2s2,48.5,8.1,58.2c1.5,2.3,4.5,5.1,23.3,10
		c10.3,2.7,24.4,5.8,40.7,9c28.7,5.6,59.8,10.5,66.6,10.5s38-4.9,66.6-10.5c16.3-3.2,30.4-6.3,40.7-9c18.8-5,21.8-7.7,23.3-10
		c6.2-9.7,8.1-16.4,8.1-58.2s-2-48.5-8.1-58.2c-1.5-2.3-4.5-5.1-23.3-10c-10.3-2.7-24.4-5.8-40.7-9
		C186.3,34.2,155.2,29.3,148.3,29.3L148.3,29.3z"/>
	<path fill="#162636" d="M250.3,82.3c-2.6-4.3-6.6-8.1-11.7-11.2c-3.8-2.3-7.9-4.2-12-5.7l19.8-16.5l3.3-2.8l-2.8-3.3l-2.2-2.5
		c-8.4-10-21.4-15.1-38.3-15.1c-1.9,0-3.8,0.1-5.7,0.2c-5.9,0.4-17.4,1.6-27.3,5.9c-2.6,1.1-5,2.4-7.1,3.9c-0.3,0.2-0.7,0.5-1,0.7
		L150,46.8c-0.5,0.3-0.9,0.7-1.4,1v-0.6l-1.2-1.2l-17.5-17.3l-1.2-1.2H127l-2.5-0.1c-9-0.2-18.1-0.6-27.1-1l-2.7-0.1l-4.4-0.2v4.4
		v62.9c0,0.7,0,1.7-0.5,2.4c-1,1.3-3.7,2.1-7.5,2.3c-0.2,0-0.4,0-0.6,0c-4.3,0-7.7-1.9-11.3-6.3L69,90.4l-2.1-2.5L64,89.3l-1.8,0.8
		c-7.6,3.4-15.1,6.9-22.3,10.3l-2.7,1.3l-4.5,2.2l2.8,4.1l1.2,1.8l3.8,4.8l13.2,14.1l0.1,0.1l0.1,0.1C66,140.6,78.2,145.3,96,145.3
		c1.7,0,3.4,0,5.2-0.1c6.5-0.3,19.1-1.6,29.5-7.1c2.8-1.5,5.3-3.2,7.5-5.1c4.3,2.7,9.2,5,14.6,6.7c8,2.6,17.4,4.1,28.6,4.8
		c2,0.1,4,0.2,6,0.2c6.2,0,18.2-0.7,28.5-5c12.8-5.4,29-22,30.4-23.5c5.3-5,8.1-11.6,8.1-19.1C254.4,91.7,253,86.7,250.3,82.3z
		 M141.2,109L141,85.2l22.4,11.5L141.2,109z"/>
	<g>
		<path fill="#162636" d="M126.9,31.7l-15.1,16.1v62.9l0,0c0,2.1,0.1,8.5-12.1,9c-0.3,0-0.5,0-0.8,0c-5.6,0-10.1-2.4-14.6-7.8
			l-1.3-1.5l-1.8,0.8c-7.6,3.4-30.4-3-37.6,0.5l13.3,14.2c10.4,10,21.1,15.2,39.1,15.2c1.6,0,3.3,0,5-0.1c6.2-0.3,18-1.5,27.7-6.6
			c10.1-5.3,15.5-13.5,15.4-23.8V49L126.9,31.7z"/>
		<path fill="#162636" d="M215.8,91.9c-7.5-4.6-16.9-7.3-24.4-9.4c-2.7-0.7-4.1-1.1-6.8-1.8c-0.7-0.2-1.6-0.4-2.5-0.6
			c-4.7-1.1-12.4-3-12.4-7.2c0-0.6,0.1-2.4,3.3-3.8c1.9-0.9,4.6-1.4,7.2-1.5c0.3,0,0.6,0,0.8,0c6.2,0,11.1,2.1,14.6,6.2l1.3,1.5
			l1.8-0.8c7.2-3.3,14.4-6.7,21.2-10.1l3-1.5l20.7-17.3c-7.8-9-42.6,1.2-58.2,1.2c-1.8,0-17.1-8.1-17.1-8.1L152,50.4
			c-9.6,6.7-14.4,14-14.4,23.2c0,8.2,4.2,14.9,12.5,20c6.8,4.1,15,6.5,21.6,8.4l0.4,0.1c2.7,0.8,4.1,1.2,6.8,1.9
			c0.8,0.2,1.8,0.5,2.9,0.8c5.7,1.5,15.2,4,15.1,8.9c0,0.8-0.1,3.1-4.9,4.5c-2.6,0.8-6.1,1.2-10.3,1.2c-0.2,0-0.4,0-0.7,0
			c-9.9-0.1-23.2-12.9-23.2-12.9l-9.4-6.2l-20.7,17.3l2.3,2.8c5.5,6.9,13.6,12,24,15.4c7.7,2.4,16.7,3.9,27.5,4.6
			c1.9,0.1,3.8,0.2,5.8,0.2c7.4,0,18-0.9,26.9-4.7c12.5-5.3,29.1-22.6,29.1-22.6S224.9,97.5,215.8,91.9z"/>
		<path fill="#FFFFFF" d="M97.2,30.7l-2.7-0.1v62.9l0,0c0,2.1,0.1,8.5-12.1,9c-0.3,0-0.5,0-0.8,0c-5.6,0-10.1-2.4-14.6-7.8l-1.3-1.5
			L63.9,94c-7.6,3.4-15,6.8-22.2,10.3l-2.7,1.2l1.7,2.5c7.2,10.5,20,15.8,38,15.8c1.6,0,3.3,0,5-0.1c6.2-0.3,18-1.5,27.7-6.6
			c10.1-5.3,15.5-13.5,15.4-23.8V31.7l-2.5-0.1C115.3,31.4,106.2,31.1,97.2,30.7z"/>
		<path fill="#FFFFFF" d="M236.5,74.7c-7.5-4.6-16.9-7.3-24.4-9.4c-2.7-0.7-4.1-1.1-6.8-1.8c-0.7-0.2-1.6-0.4-2.5-0.6
			c-4.7-1.1-12.4-3-12.4-7.2c0-0.6,0.1-2.4,3.3-3.8c1.9-0.9,4.6-1.4,7.2-1.5c0.3,0,0.6,0,0.8,0c6.2,0,11.1,2.1,14.6,6.2l1.3,1.5
			l1.8-0.8c7.2-3.3,14.4-6.7,21.2-10.1l3-1.5l-2.2-2.5c-7.8-9-19.6-13.6-35.3-13.6c-1.8,0-3.6,0.1-5.5,0.2
			c-5.7,0.3-16.6,1.5-25.9,5.5c-10.7,4.6-16.4,11.9-16.4,21c0,8.2,4.2,14.9,12.5,20c6.8,4.1,15,6.5,21.6,8.4l0.4,0.1
			c2.7,0.8,4.1,1.2,6.8,1.9c0.8,0.2,1.8,0.5,2.9,0.8c5.7,1.5,15.2,4,15.1,8.9c0,0.8-0.1,3.1-4.9,4.5c-2.6,0.8-6.1,1.2-10.3,1.2
			c-0.2,0-0.4,0-0.7,0c-9.9-0.1-18.7-3.8-25-10.4l-1.2-1.2l-7.4,2.6c-5.5,2-11,3.9-16.4,5.9l-3.4,1.2l2.3,2.8
			c5.5,6.9,13.6,12,24,15.4c7.7,2.4,16.7,3.9,27.5,4.6c1.9,0.1,3.8,0.2,5.8,0.2c7.4,0,18.1-0.8,26.9-4.7
			c9.9-4.4,15.2-11.8,15.2-21.4C250.3,87.8,245.6,80.3,236.5,74.7z"/>
	</g>
	<g>
		<path fill="#162636" d="M67.3,156.7h5.4c2.6,0,4.1,1.7,4.1,3.6c0,1.3-0.8,2.2-2,2.6c1.9,0.5,2.9,1.7,2.9,3.5
			c0,2.5-1.8,4.3-4.7,4.3h-5.7C67.3,170.7,67.3,156.7,67.3,156.7z M72.4,161.9c0.9,0,1.5-0.5,1.5-1.3s-0.5-1.3-1.4-1.3h-2.4v2.6
			H72.4z M72.8,168.2c1.2,0,1.9-0.8,1.9-1.9c0-1.1-0.8-1.9-2.1-1.9h-2.5v3.9h2.7V168.2z"/>
		<path fill="#162636" d="M83.4,165.7v-9h2.9v8.8c0,2,0.9,2.8,2.8,2.8s2.8-0.8,2.8-2.8v-8.8h2.9v9c0,3.6-2.5,5.3-5.7,5.3
			C85.9,170.9,83.4,169.2,83.4,165.7z"/>
		<path fill="#162636" d="M105.7,166.3l-5.3-9.6h3.2l2.5,4.5c0.5,1,1.1,2.7,1.1,2.7s0.6-1.7,1.1-2.7l2.4-4.5h3l-5,9.4v4.7h-2.9
			L105.7,166.3L105.7,166.3z"/>
		<path fill="#162636" d="M130.7,159.2h-4v-2.5h10.9v2.5h-4v11.5h-2.9V159.2z"/>
		<path fill="#162636" d="M143.5,156.7h2.9v14.1h-2.9V156.7z"/>
		<path fill="#162636" d="M152.6,163.7c0-4.2,3.2-7.2,7.2-7.2c2.5,0,4.4,0.9,5.6,2.9l-2.2,1.6c-0.7-1.1-1.8-1.8-3.4-1.8
			c-2.5,0-4.3,2-4.3,4.6s1.7,4.6,4.3,4.6c1.8,0,2.8-0.9,3.6-2.1l2.3,1.5c-1.2,1.9-3.2,3.1-5.9,3.1
			C155.8,170.9,152.6,167.9,152.6,163.7z"/>
		<path fill="#162636" d="M175.5,161.7l3.7-5h3.3l-4.7,6.4l5.3,7.7h-3.5l-3.7-5.5l-1.4,1.6v3.9h-2.9v-14.1h2.9v4.9
			c0,0.7-0.1,1.7-0.2,2.4C174.6,163.2,175.1,162.3,175.5,161.7z"/>
		<path fill="#162636" d="M188.7,156.7h9.3v2.5h-6.4v4.5h5.6v2.5h-5.6v2h6.7v2.5h-9.6V156.7z"/>
		<path fill="#162636" d="M207.9,159.2h-4v-2.5h10.9v2.5h-4v11.5h-2.9V159.2z"/>
		<path fill="#162636" d="M219.3,168l2.4-1.4c0.6,1,1.4,1.8,2.9,1.8c1.2,0,2-0.6,2-1.4c0-1-0.8-1.3-2.1-1.9l-0.7-0.3
			c-2.1-0.9-3.5-2-3.5-4.4c0-2.2,1.7-3.8,4.2-3.8c1.8,0,3.2,0.6,4.1,2.3l-2.3,1.4c-0.5-0.9-1-1.2-1.9-1.2c-0.8,0-1.4,0.5-1.4,1.2
			c0,0.9,0.5,1.2,1.8,1.8l0.7,0.3c2.5,1.1,3.8,2.1,3.8,4.5c0,2.6-2,4-4.8,4C221.9,170.9,220.2,169.6,219.3,168z"/>
	</g>
	<g>
		<path fill="#FFFFFF" d="M33,139.1c0.4,3.6,1.2,7.2,2,10.7c0.7,3.3,0.6,6.6-1,9.7c-0.8,1.6-2.2,2.8-3.8,3.7
			c-0.3,0.2-0.5,0.2-0.6,0.3c-0.1,0-0.2,0-0.4,0.1c-0.1,0-0.2,0-0.3,0.1c-0.6,0.2-1.3,0.5-1.3,0.5l1.2,0.1c0,0,0.3,0.1,0.7,0.1
			c-0.9,1.1-1.9,1.5-3,1.8c-0.1,0-0.2,0-0.3,0.1c-2.3,0.4-4.5,0.2-6.7-0.5c-1.9-0.6-3.2-1.6-3.8-3.6c-0.3-1.2-0.9-2.3-1.4-3.5
			c-0.4-0.8-0.6-1.7-0.6-2.7c0-0.3-0.3-1-0.3-1s-0.3,0.4-0.4,0.8c-0.1,0.3-0.3,0.4-0.5,0.4s-0.4,0-0.6-0.1c-0.6-0.3-1-0.9-1.2-1.5
			c-0.6-1.4-1.1-2.7-1.8-4.1c-0.3-0.6-0.5-1.2-0.4-1.9c0-0.8,0.4-1.3,0.9-1.4c0.3-0.1,0.7,0,1.1,0.3c0.3,0.2,0.9,0.7,0.9,0.7
			s0.1-1-0.1-1.2c-0.2-0.2-0.6-0.5-0.8-0.6c-0.4-0.3-1.9-3.9-2.2-4.5c-0.1-0.2,0-0.4,0.1-0.6c-0.1,0-0.1-0.1-0.2-0.2
			c-0.1-0.1-0.3-0.3-0.3-0.6c-0.1-0.2-0.1-0.5-0.1-0.7c0-0.1,0-0.3,0.1-0.4c0-0.1,0.1-0.3,0.1-0.4v-0.1v-0.1v-0.1l0,0l0,0l0,0l0,0
			l0,0l0,0c0-0.1,0.1-0.1,0.1-0.2s0.1-0.1,0.1-0.2c0.2-0.2,0.4-0.5,0.7-0.6c0.3-0.2,0.5-0.3,0.8-0.5c0.3-0.1,0.6-0.2,0.9-0.3
			c0.3-0.1,0.6-0.2,0.9-0.2c0.2,0,0.3-0.1,0.5-0.1s0.3-0.1,0.5-0.1c0.6-0.1,1.3-0.2,1.9-0.3c0.2,0,0.4-0.1,0.5-0.1
			c0.4-0.1,0.9-0.2,1.3-0.3c0.1,0,0.3-0.1,0.4-0.1s0.3-0.1,0.4-0.1s0.1,0,0.2-0.1h0.1h0.1c0.1,0,0.1-0.1,0.2-0.1l0,0l0,0l0,0l0,0
			l0,0l0,0l0,0h0.1c0.1-0.1,0.3-0.1,0.4-0.2s0.3-0.1,0.4-0.2c0.3-0.1,0.5-0.3,0.7-0.4c0.2-0.1,0.5-0.3,0.7-0.4
			c0.1-0.1,0.2-0.1,0.3-0.2c0.1-0.1,0.2-0.1,0.3-0.2c0.2-0.1,0.4-0.3,0.6-0.4c0.2-0.1,0.4-0.2,0.5-0.4c0.3-0.2,0.6-0.4,0.8-0.6
			c0.2-0.2,0.4-0.3,0.5-0.4s0.2-0.1,0.2-0.1s-0.2,0.3-0.5,0.7c-0.2,0.2-0.4,0.5-0.7,0.8c-0.1,0.2-0.3,0.3-0.4,0.5
			c-0.1,0.1-0.2,0.2-0.2,0.2c-0.1,0.1-0.2,0.2-0.3,0.2c-0.4,0.3-0.8,0.7-1.2,1c-0.1,0.1-0.2,0.2-0.4,0.3c-0.1,0-0.1,0.1-0.2,0.1
			s-0.1,0.1-0.2,0.1c-0.1,0.1-0.3,0.2-0.4,0.2c-0.1,0.1-0.3,0.2-0.4,0.2l-0.1,0.1H18h-0.1c-0.1,0-0.1,0.1-0.2,0.1
			c-0.1,0.1-0.3,0.1-0.5,0.2c-0.3,0.1-0.6,0.2-0.9,0.3c-0.5,0.2-1.1,0.3-1.7,0.4c-0.1,0-0.2,0-0.3,0.1c-0.7,0.1-1.3,0.2-1.9,0.3
			c-0.3,0-0.6,0.1-0.9,0.1c-0.1,0-0.2,0-0.4,0.1c-0.2,0-0.3,0.1-0.5,0.1c-0.3,0.1-0.6,0.1-0.8,0.2c-0.3,0.1-0.5,0.2-0.7,0.3
			s-0.4,0.3-0.6,0.4L8.4,139l-0.1,0.1l0,0l0,0l0,0l0,0l0,0l0,0l0,0l-0.1,0.1v0.1v0.1c-0.1,0.1-0.1,0.2-0.2,0.3c0,0,0,0.1-0.1,0.1
			v0.1c-0.1,0.2-0.1,0.4-0.1,0.5c0,0.2,0.1,0.4,0.3,0.6c0.6,0,0.7,0,0.9,0v-0.1v-0.1v-0.1v-0.1l0,0l0,0l0,0l0,0l0,0l0,0
			c0-0.1,0.1-0.1,0.1-0.2s0.1-0.1,0.1-0.2c0.2-0.2,0.4-0.5,0.7-0.6c0.3-0.2,0.5-0.3,0.8-0.5c0.3-0.1,0.6-0.2,0.9-0.3
			c0.3-0.1,0.6-0.2,0.9-0.2c0.2,0,0.3-0.1,0.5-0.1s0.3-0.1,0.5-0.1c0.6-0.1,1.3-0.2,1.9-0.3c0.2,0,0.4-0.1,0.5-0.1
			c0.4-0.1,0.9-0.2,1.3-0.3c0.1,0,0.3-0.1,0.4-0.1s0.3-0.1,0.4-0.1s0.1,0,0.2-0.1h0.1h0.1c0.1,0,0.1-0.1,0.2-0.1l0,0l0,0l0,0l0,0
			l0,0l0,0l0,0h0.1c0.1-0.1,0.3-0.1,0.4-0.2s0.3-0.1,0.4-0.2c0.3-0.1,0.5-0.3,0.7-0.4c0.2-0.1,0.5-0.3,0.7-0.4
			c0.1-0.1,0.2-0.1,0.3-0.2c0.1-0.1,0.2-0.1,0.3-0.2c0.2-0.1,0.4-0.3,0.6-0.4c0.2-0.1,0.4-0.2,0.5-0.4c0.3-0.2,0.6-0.4,0.8-0.6
			c0.2-0.2,0.4-0.3,0.5-0.4s0.2-0.1,0.2-0.1s-0.2,0.3-0.5,0.7c-0.2,0.2-0.4,0.5-0.7,0.8c-0.1,0.2-0.3,0.3-0.4,0.5
			c-0.1,0.1-0.2,0.2-0.2,0.2c-0.1,0.1-0.2,0.2-0.3,0.2c-0.3,0.3-0.6,0.5-0.9,0.8c0.5-0.2,0.8-0.4,0.8-0.4l0,0c0,0,0,0,0.1,0
			c0.9-0.2,1.5-0.7,2.2-1.2c0.3-0.3,0.6-0.5,1.1-0.6c0.1,0,0.3,0,0.4,0s0.3,0,0.4,0c1.3-0.3,3-1.6,3.3-1.8c0.1-0.1,0.3-0.2,0.4-0.2
			c0.2,0,0.4,0.2,0.6,0.4C32.3,134.6,32.8,136.8,33,139.1z"/>
		<path fill="#C0C0C0" d="M16.3,144.7L16.3,144.7c-0.1-0.2-0.1-0.2-0.1-0.4c-0.1-0.2-0.1-0.6-0.2-1c0-0.4-0.1-0.9,0-1.4
			c0-0.1,0-0.3,0.1-0.4c0-0.1,0-0.1,0.1-0.2c0-0.1,0-0.1,0.1-0.2c0.1-0.3,0.2-0.6,0.4-0.8c0.2-0.3,0.5-0.5,0.8-0.6
			c0.1,0,0.2-0.1,0.3-0.1h0.1l0,0l0,0l0,0l0,0l0,0H18l0,0h0.1h0.1c0.1,0,0.2,0,0.2,0c0.3,0,0.6,0.1,0.8,0.3c0.1,0.1,0.2,0.2,0.3,0.3
			c0.1,0.1,0.2,0.2,0.2,0.3c0.1,0.2,0.2,0.4,0.2,0.6s0.1,0.3,0.1,0.4c0,0.1,0,0.2,0,0.3s0,0.1,0,0.1s0,0,0-0.1s-0.1-0.1-0.1-0.2
			c-0.1-0.1-0.1-0.2-0.2-0.3s-0.2-0.2-0.3-0.3c-0.1-0.1-0.3-0.2-0.4-0.2c-0.2-0.1-0.3-0.1-0.5-0.1h-0.1h-0.1l0,0l0,0h-0.1l0,0l0,0
			l0,0l0,0l0,0l0,0h-0.1c-0.1,0.1-0.3,0.2-0.4,0.3s-0.2,0.3-0.3,0.5c0,0.1,0,0.1-0.1,0.2c0,0.1,0,0.1-0.1,0.2c0,0.1-0.1,0.2-0.1,0.3
			c-0.1,0.4-0.2,0.9-0.3,1.2c-0.1,0.4-0.2,0.7-0.2,0.9C16.4,144.5,16.4,144.5,16.3,144.7L16.3,144.7z"/>
		<path fill="#C0C0C0" d="M26.1,141.2L26.1,141.2c0-0.1-0.1-0.2-0.1-0.3c-0.1-0.2-0.1-0.5-0.2-0.8c0-0.3-0.1-0.8,0-1.2
			c0-0.2,0-0.4,0.1-0.7c0.1-0.2,0.1-0.5,0.2-0.7c0.1-0.1,0.1-0.2,0.2-0.4c0.1-0.1,0.2-0.2,0.4-0.3c0.1-0.1,0.2-0.1,0.2-0.1H27h0.1
			l0,0l0,0l0,0l0,0l0,0h0.1h0.1h0.1c0,0,0,0,0.1,0h0.1c0.1,0,0.3,0.1,0.4,0.1c0.1,0.1,0.2,0.1,0.3,0.2c0.2,0.1,0.3,0.3,0.5,0.4
			c0.2,0.3,0.4,0.6,0.4,0.8c0,0.1,0,0.2,0.1,0.2c0,0.1,0,0.1,0,0.1s0,0-0.1-0.1c0,0-0.1-0.1-0.2-0.1c-0.2-0.1-0.4-0.3-0.6-0.4
			c-0.1-0.1-0.3-0.1-0.4-0.2c-0.1,0-0.3-0.1-0.4,0h-0.1l0,0l0,0l0,0h-0.1c0,0,0,0-0.1,0.1l-0.1,0.1c0,0.1-0.1,0.1-0.1,0.2
			c-0.1,0.2-0.1,0.3-0.2,0.5s-0.1,0.4-0.2,0.6c-0.1,0.4-0.2,0.8-0.3,1.1C26.3,140.6,26.2,140.9,26.1,141.2
			C26.2,141,26.2,141.1,26.1,141.2L26.1,141.2z"/>
		<path fill="#C0C0C0" d="M25.7,159.4L25.7,159.4c0.1,0,0.2,0,0.2-0.1c0.1,0,0.3-0.1,0.5-0.1c0.1,0,0.2-0.1,0.3-0.1
			c0.1,0,0.2-0.1,0.4-0.1c0.1,0,0.2-0.1,0.4-0.1c0.1,0,0.2-0.1,0.4-0.1c0.1,0,0.2-0.1,0.3-0.1c0.1,0,0.1-0.1,0.2-0.1
			s0.1-0.1,0.2-0.1c0.1-0.1,0.2-0.1,0.3-0.2l0.1-0.1l0.1-0.1l0.1-0.1l0.1-0.1c0.1-0.1,0.1-0.1,0.2-0.1s0.1-0.1,0.1-0.1h0.1
			c0,0,0,0,0,0.1c0,0,0,0.1,0,0.2c0,0.1,0,0.2,0,0.3s-0.1,0.2-0.1,0.3s-0.1,0.1-0.1,0.2c0,0.1-0.1,0.1-0.1,0.2
			c-0.1,0.1-0.2,0.2-0.3,0.4c-0.1,0.1-0.1,0.1-0.2,0.2c-0.1,0.1-0.1,0.1-0.2,0.2c-0.1,0.1-0.3,0.2-0.5,0.2c-0.2,0.1-0.3,0.1-0.5,0.1
			s-0.3,0-0.5,0c-0.3,0-0.6-0.1-0.8-0.1c-0.1,0-0.2-0.1-0.3-0.1c-0.1,0-0.2-0.1-0.2-0.1C25.8,159.5,25.8,159.5,25.7,159.4
			L25.7,159.4z"/>
		<g>
			<g>
				<path fill="#C0C0C0" d="M26.4,158c-3,0.6-5.3-1.3-5.4-1.3l0.7-0.8c0.1,0.1,2.5,2,5.5,0.8c3.1-1.2,3.7-3.9,3.7-4l1,0.2
					c0,0.1-0.8,3.3-4.3,4.7C27.3,157.8,26.8,157.9,26.4,158z"/>
			</g>
			<path fill="#C0C0C0" d="M30.3,152c0,0,0,0,0.1,0.1c0.1,0,0.2,0.1,0.3,0.2c0.1,0,0.1,0.1,0.2,0.1s0.1,0.1,0.2,0.1
				c0,0,0.1,0,0.1,0.1h0.1h0.1h0.1c0,0,0,0,0.1,0h0.1h0.1c0.1,0,0.2,0,0.2,0.1c0.1,0,0.2,0,0.2,0.1c0,0,0,0,0.1,0c0,0,0,0,0.1,0h0.1
				c0.1,0,0.1,0,0.2,0.1c0.1,0,0.1,0,0.2,0c0.1,0,0.1,0.1,0.1,0.1s0,0-0.1,0.1l-0.1,0.1c-0.1,0-0.1,0.1-0.2,0.1
				c-0.1,0-0.2,0.1-0.3,0.1s-0.2,0-0.3,0c-0.1,0-0.1,0-0.2,0s-0.1,0-0.2,0s-0.1,0-0.2,0h-0.1h-0.1c-0.1,0-0.1,0-0.2-0.1
				c-0.1,0-0.1-0.1-0.1-0.1c-0.1-0.1-0.2-0.1-0.3-0.2l-0.1-0.1l-0.1-0.1c-0.1-0.1-0.1-0.1-0.1-0.2c0-0.1-0.1-0.1-0.1-0.2
				c0-0.1,0-0.1,0-0.2C30.3,152.1,30.3,152,30.3,152z"/>
			<path fill="#C0C0C0" d="M21.8,155.1c0,0,0,0,0.1,0.1c0,0,0,0.1,0.1,0.2c0,0.1,0,0.1,0.1,0.2c0,0.1,0,0.2,0,0.3v0.1v0.1
				c0,0.1,0,0.2-0.1,0.3c0,0.1-0.1,0.2-0.1,0.3s-0.1,0.2-0.2,0.3s-0.1,0.2-0.2,0.2c-0.1,0.1-0.1,0.1-0.2,0.2
				c-0.1,0.1-0.1,0.1-0.2,0.1s-0.1,0.1-0.2,0.1s-0.1,0-0.2,0.1c-0.1,0-0.1,0-0.1,0v-0.1c0,0,0-0.1,0.1-0.2c0-0.1,0-0.1,0.1-0.2
				c0-0.1,0.1-0.1,0.1-0.2c0-0.1,0.1-0.1,0.1-0.2c0-0.1,0.1-0.2,0.1-0.2c0-0.1,0.1-0.2,0.1-0.2c0-0.1,0.1-0.2,0.1-0.2
				c0-0.1,0.1-0.2,0.1-0.2s0-0.1,0.1-0.1v-0.1v-0.1v-0.1c0.1-0.1,0.1-0.2,0.1-0.3C21.7,155.2,21.7,155.2,21.8,155.1L21.8,155.1z"/>
		</g>
		<g>
			<path fill="#C0C0C0" d="M9.2,146.7l-0.9-1c0.7-1.6,2.3-2.4,3.1-2.9l0.1,1.3C10.6,144.7,9.8,145.4,9.2,146.7z"/>
		</g>
		<g>
			<path fill="#C0C0C0" d="M8.8,144.8l-0.3-1.6c0-0.1,0.8-1,2.9-2.1l0.1,1.2C9.6,143.3,8.8,144.8,8.8,144.8z"/>
		</g>
		<path fill="#C0C0C0" d="M17.9,147.7c0,0,0.3,0,0.8-0.1c0.1,0,0.2,0,0.3-0.1c0.1,0,0.2,0,0.3-0.1c0.1,0,0.2,0,0.3-0.1
			c0.1,0,0.2-0.1,0.3-0.1H20c0,0,0,0,0.1,0h0.1c0,0,0,0,0.1,0c0,0,0,0,0.1,0c0,0,0.1,0,0.1-0.1c0,0,0.1,0,0.2-0.1c0,0,0.1,0,0.2-0.1
			c0.1,0,0.1,0,0.2-0.1c0.1,0,0.1,0,0.1-0.1c0.1,0,0.2-0.1,0.3-0.1c0.1,0,0.2-0.1,0.2-0.1c0.1,0,0.1-0.1,0.2-0.1H22c0,0,0,0,0,0.1
			c0,0,0,0.1,0,0.2s0,0.2,0,0.3s0,0.1,0,0.2s0,0.1-0.1,0.2c0,0.1,0,0.1-0.1,0.2c0,0.1-0.1,0.1-0.1,0.2s-0.1,0.1-0.1,0.2
			c-0.1,0.1-0.1,0.1-0.2,0.2c-0.1,0.1-0.1,0.1-0.2,0.2c-0.1,0.1-0.1,0.1-0.2,0.2c-0.2,0.1-0.3,0.2-0.5,0.2c-0.2,0.1-0.4,0.1-0.6,0.1
			s-0.4,0-0.5,0c-0.2,0-0.3-0.1-0.5-0.2c-0.1-0.1-0.3-0.1-0.4-0.2c-0.2-0.2-0.3-0.3-0.4-0.5C17.9,147.9,17.9,147.8,17.9,147.7
			L17.9,147.7z"/>
		<path fill="#C0C0C0" d="M26.9,145.5c0,0,0.1,0,0.2-0.1c0.2,0,0.4-0.1,0.6-0.1c0.2-0.1,0.5-0.1,0.7-0.2c0.1,0,0.2-0.1,0.3-0.1
			c0.1,0,0.2-0.1,0.3-0.1c0.1,0,0.2-0.1,0.3-0.1c0.1,0,0.2-0.1,0.3-0.2c0.1-0.1,0.2-0.1,0.3-0.2l0.1-0.1l0.1-0.1
			c0.1-0.1,0.2-0.1,0.2-0.2c0.1-0.1,0.2-0.1,0.2-0.2c0.1-0.1,0.2-0.2,0.2-0.2s0,0.1,0.1,0.3c0,0.1,0,0.2,0,0.3s0,0.1,0,0.2
			c0,0.1,0,0.1,0,0.2c0,0.1,0,0.1,0,0.2c0,0.1,0,0.2-0.1,0.2c-0.1,0.2-0.1,0.3-0.2,0.5c-0.1,0.1-0.1,0.2-0.2,0.2l-0.1,0.1l-0.1,0.1
			c-0.2,0.1-0.3,0.2-0.5,0.3s-0.4,0.1-0.6,0.2c-0.2,0-0.4,0-0.6,0c-0.4,0-0.7-0.2-0.9-0.3c-0.1-0.1-0.2-0.1-0.3-0.2
			c-0.1-0.1-0.2-0.1-0.2-0.2C26.9,145.6,26.9,145.5,26.9,145.5z"/>
		<path fill="#C0C0C0" d="M7.8,140.4c0.1,0.4,1.3,1.4,1.3,1.4s0.9,4.2,1.3,4.5c0.4,0.3-0.7,0.1-0.7,0.1l-2.5-5.1L7.8,140.4z"/>
		<path fill="#C0C0C0" d="M31.8,132.5c-0.1-0.1-0.1-0.3-0.2-0.4c-2.1-3.1-4.3-4.5-5.3-5.2c-0.1-0.1-0.2-0.1-0.2-0.1
			c-0.3-0.2-1-0.6-2.8-0.7c-1-0.1-2.6-0.1-4.6,0.3l0,0c-1.3,0.3-2.6,0.6-3.8,1.2c-2.5,1-4.7,2.5-6.4,4.1c-1.6,1.6-2.8,3.4-3.3,5.2
			c-0.4,1.6-0.1,3.7,1,6.4c0.8,1.9,1.6,3.4,1.6,3.4v0.1c-0.1,0.1-0.2,0.2-0.2,0.3c-0.3,0.4-0.4,0.9-0.4,1.5c0,0.8,0.2,1.7,0.6,2.4
			c0.7,1.3,1.3,2.7,1.8,4c0.4,0.9,0.9,1.6,1.7,2c0.4,0.2,0.9,0.3,1.3,0.2l0,0c0.1,0.6,0.3,1.2,0.6,1.8c0.1,0.2,0.2,0.4,0.3,0.6
			c0.4,0.9,0.8,1.8,1.1,2.7c0.6,2.1,2.1,3.6,4.5,4.3s4.9,0.9,7.2,0.5c0.1,0,0.3,0,0.4-0.1c1.1-0.2,2.5-0.7,3.7-2.1l0.8-1
			c1.3-0.9,2.9-2.1,3.9-4c0.8-1.6,1.3-3.3,1.5-5.1c0.2-1.7,0-3.4-0.4-5.2c-0.1-0.5-0.2-0.9-0.3-1.4c-0.7-3-1.4-6.1-1.7-9.2
			C33.9,137,33.4,134.6,31.8,132.5z M33,139.1c0.4,3.6,1.2,7.2,2,10.7c0.7,3.3,0.6,6.6-1,9.7c-0.8,1.6-2.2,2.8-3.8,3.7
			c-0.3,0.2-0.5,0.2-0.6,0.3c-0.1,0-0.2,0-0.4,0.1c-0.1,0-0.2,0-0.3,0.1c-0.6,0.2-1.3,0.5-1.3,0.5l1.2,0.1c0,0,0.3,0.1,0.7,0.1
			c-0.9,1.1-1.9,1.5-3,1.8c-0.1,0-0.2,0-0.3,0.1c-2.3,0.4-4.5,0.2-6.7-0.5c-1.9-0.6-3.2-1.6-3.8-3.6c-0.3-1.2-0.9-2.3-1.4-3.5
			c-0.4-0.8-0.6-1.7-0.6-2.7c0-0.3-0.3-1-0.3-1s-0.3,0.4-0.4,0.8c-0.1,0.3-0.3,0.4-0.5,0.4s-0.4,0-0.6-0.1c-0.6-0.3-1-0.9-1.2-1.5
			c-0.6-1.4-1.1-2.7-1.8-4.1c-0.3-0.6-0.5-1.2-0.4-1.9c0-0.8,0.4-1.3,0.9-1.4c0.3-0.1,0.7,0,1.1,0.3c0.3,0.2,0.9,0.7,0.9,0.7
			s0.1-1-0.1-1.2c-0.2-0.2-0.6-0.5-0.8-0.6c-0.4-0.3-1.9-3.9-2.2-4.5c-0.1-0.2,0-0.4,0.1-0.6c-0.1,0-0.1-0.1-0.2-0.2
			c-0.1-0.1-0.3-0.3-0.3-0.6c-0.1-0.2-0.1-0.5-0.1-0.7c0-0.1,0-0.3,0.1-0.4c0-0.1,0.1-0.3,0.1-0.4v-0.1v-0.1v-0.1l0,0l0,0l0,0l0,0
			l0,0l0,0c0-0.1,0.1-0.1,0.1-0.2s0.1-0.1,0.1-0.2c0.2-0.2,0.4-0.5,0.7-0.6c0.3-0.2,0.5-0.3,0.8-0.5c0.3-0.1,0.6-0.2,0.9-0.3
			c0.3-0.1,0.6-0.2,0.9-0.2c0.2,0,0.3-0.1,0.5-0.1s0.3-0.1,0.5-0.1c0.6-0.1,1.3-0.2,1.9-0.3c0.2,0,0.4-0.1,0.5-0.1
			c0.4-0.1,0.9-0.2,1.3-0.3c0.1,0,0.3-0.1,0.4-0.1s0.3-0.1,0.4-0.1s0.1,0,0.2-0.1h0.1h0.1c0.1,0,0.1-0.1,0.2-0.1l0,0l0,0l0,0l0,0
			l0,0l0,0l0,0h0.1c0.1-0.1,0.3-0.1,0.4-0.2s0.3-0.1,0.4-0.2c0.3-0.1,0.5-0.3,0.7-0.4c0.2-0.1,0.5-0.3,0.7-0.4
			c0.1-0.1,0.2-0.1,0.3-0.2c0.1-0.1,0.2-0.1,0.3-0.2c0.2-0.1,0.4-0.3,0.6-0.4c0.2-0.1,0.4-0.2,0.5-0.4c0.3-0.2,0.6-0.4,0.8-0.6
			c0.2-0.2,0.4-0.3,0.5-0.4s0.2-0.1,0.2-0.1s-0.2,0.3-0.5,0.7c-0.2,0.2-0.4,0.5-0.7,0.8c-0.1,0.2-0.3,0.3-0.4,0.5
			c-0.1,0.1-0.2,0.2-0.2,0.2c-0.1,0.1-0.2,0.2-0.3,0.2c-0.4,0.3-0.8,0.7-1.2,1c-0.1,0.1-0.2,0.2-0.4,0.3c-0.1,0-0.1,0.1-0.2,0.1
			s-0.1,0.1-0.2,0.1c-0.1,0.1-0.3,0.2-0.4,0.2c-0.1,0.1-0.3,0.2-0.4,0.2l-0.1,0.1H18h-0.1c-0.1,0-0.1,0.1-0.2,0.1
			c-0.1,0.1-0.3,0.1-0.5,0.2c-0.3,0.1-0.6,0.2-0.9,0.3c-0.5,0.2-1.1,0.3-1.7,0.4c-0.1,0-0.2,0-0.3,0.1c-0.7,0.1-1.3,0.2-1.9,0.3
			c-0.3,0-0.6,0.1-0.9,0.1c-0.1,0-0.2,0-0.4,0.1c-0.2,0-0.3,0.1-0.5,0.1c-0.3,0.1-0.6,0.1-0.8,0.2c-0.3,0.1-0.5,0.2-0.7,0.3
			s-0.4,0.3-0.6,0.4L8.4,139l-0.1,0.1l0,0l0,0l0,0l0,0l0,0l0,0l0,0l-0.1,0.1v0.1v0.1c-0.1,0.1-0.1,0.2-0.2,0.3c0,0,0,0.1-0.1,0.1
			v0.1c-0.1,0.2-0.1,0.4-0.1,0.5c0,0.2,0.1,0.4,0.3,0.6c0.6,0,0.7,0,0.9,0v-0.1v-0.1v-0.1v-0.1l0,0l0,0l0,0l0,0l0,0l0,0
			c0-0.1,0.1-0.1,0.1-0.2s0.1-0.1,0.1-0.2c0.2-0.2,0.4-0.5,0.7-0.6c0.3-0.2,0.5-0.3,0.8-0.5c0.3-0.1,0.6-0.2,0.9-0.3
			c0.3-0.1,0.6-0.2,0.9-0.2c0.2,0,0.3-0.1,0.5-0.1s0.3-0.1,0.5-0.1c0.6-0.1,1.3-0.2,1.9-0.3c0.2,0,0.4-0.1,0.5-0.1
			c0.4-0.1,0.9-0.2,1.3-0.3c0.1,0,0.3-0.1,0.4-0.1s0.3-0.1,0.4-0.1s0.1,0,0.2-0.1h0.1h0.1c0.1,0,0.1-0.1,0.2-0.1l0,0l0,0l0,0l0,0
			l0,0l0,0l0,0h0.1c0.1-0.1,0.3-0.1,0.4-0.2s0.3-0.1,0.4-0.2c0.3-0.1,0.5-0.3,0.7-0.4c0.2-0.1,0.5-0.3,0.7-0.4
			c0.1-0.1,0.2-0.1,0.3-0.2c0.1-0.1,0.2-0.1,0.3-0.2c0.2-0.1,0.4-0.3,0.6-0.4c0.2-0.1,0.4-0.2,0.5-0.4c0.3-0.2,0.6-0.4,0.8-0.6
			c0.2-0.2,0.4-0.3,0.5-0.4s0.2-0.1,0.2-0.1s-0.2,0.3-0.5,0.7c-0.2,0.2-0.4,0.5-0.7,0.8c-0.1,0.2-0.3,0.3-0.4,0.5
			c-0.1,0.1-0.2,0.2-0.2,0.2c-0.1,0.1-0.2,0.2-0.3,0.2c-0.3,0.3-0.6,0.5-0.9,0.8c0.5-0.2,0.8-0.4,0.8-0.4l0,0c0,0,0,0,0.1,0
			c0.9-0.2,1.5-0.7,2.2-1.2c0.3-0.3,0.6-0.5,1.1-0.6c0.1,0,0.3,0,0.4,0s0.3,0,0.4,0c1.3-0.3,3-1.6,3.3-1.8c0.1-0.1,0.3-0.2,0.4-0.2
			c0.2,0,0.4,0.2,0.6,0.4C32.3,134.6,32.8,136.8,33,139.1z"/>
		<path fill="#C0C0C0" d="M24.6,145.1c0.1,0.3,0.2,0.5,0.3,0.8l0.3,0.7l0.2,0.4c0.1,0.1,0.1,0.2,0.2,0.4c0.1,0.1,0.1,0.2,0.2,0.4
			c0.1,0.1,0.1,0.2,0.2,0.4c0.1,0.1,0.1,0.2,0.2,0.3s0.1,0.2,0.2,0.3s0.1,0.2,0.2,0.3l0.1,0.2l0.1,0.2c0,0.1,0.1,0.1,0.1,0.2
			c0,0.1,0.1,0.1,0.1,0.2l0.1,0.1l0.1,0.1l0.1,0.1l0.1,0.1l0.1,0.1c0.1,0.1,0.2,0.2,0.3,0.2l0.4,0.4l-0.5,0.2
			c-0.2,0.1-0.3,0.1-0.5,0.2l-0.2,0.1c-0.1,0-0.2,0.1-0.2,0.1c-0.1,0-0.2,0.1-0.2,0.1c-0.1,0-0.2,0.1-0.2,0.1
			c-0.2,0.1-0.3,0.2-0.5,0.3c0.1-0.1,0.2-0.3,0.3-0.4c0.1-0.1,0.3-0.3,0.4-0.4c0.1-0.1,0.3-0.2,0.5-0.3c0.1,0,0.2-0.1,0.2-0.1
			c0.1,0,0.2-0.1,0.2-0.1v0.5c-0.1-0.1-0.3-0.2-0.4-0.2L27,151l-0.1-0.1c-0.1,0-0.1-0.1-0.2-0.1l-0.2-0.2l-0.2-0.2
			c-0.1-0.1-0.1-0.1-0.1-0.2c0-0.1-0.1-0.1-0.1-0.2c-0.1-0.1-0.2-0.2-0.3-0.3c-0.1-0.1-0.2-0.2-0.2-0.4c-0.1-0.1-0.1-0.2-0.2-0.4
			c-0.1-0.1-0.1-0.3-0.2-0.4c-0.1-0.1-0.1-0.3-0.2-0.4c0-0.1-0.1-0.3-0.1-0.4c0-0.1-0.1-0.3-0.1-0.4s-0.1-0.3-0.1-0.4
			c0-0.1-0.1-0.3-0.1-0.4s0-0.3-0.1-0.4c0-0.1,0-0.3,0-0.4C24.6,145.4,24.6,145.3,24.6,145.1z"/>
	</g>
	<g>
		<g>
			<path fill="#C0C0C0" d="M288.3,128.2c0.4,0,0.8,0.1,1,0.3c0.4,0.4,0.3,0.8,0.1,1.3c-0.4,1.1-1,1.8-1.7,2.7
				c-1.3,1.4-2.6,2.8-3.9,4.3c-0.4,0.5-1.9,2.6-1.9,2.6s1.8-1,2.7-1.8c1.1-1,3.3-2.7,4.6-4.3c0.6-0.7,1.1-1.4,2-1.8
				c0.2-0.1,0.5-0.2,0.7-0.2c0.3,0,0.6,0.1,0.8,0.3c0.5,0.4,0.2,1,0,1.5c-0.8,1.6-2.1,3-3.4,4.3c-1.5,1.5-2.5,2.7-3.3,3.5
				s-2.3,3.2-2.3,3.2s1.5-1,1.9-1.3c0.9-0.5,1.6-1,2.2-1.4c0.6-0.5,1.4-0.9,2.2-1.6c0.4-0.3,0.9-0.6,1.4-0.8
				c0.3-0.1,0.5-0.2,0.8-0.2c0.4,0,0.8,0.2,1.1,0.5c0.5,0.7,0.1,1.3-0.3,1.8c-1.6,2-3.6,3.4-5.4,5.2c-2.1,2.1-3.8,4.6-6,6.5
				c-1.5,1.3-2.7,2.8-3.9,4.5c-1.2,1.8-1.9,3.8-1.7,6c0.1,0.8-0.2,1.1-0.9,1.2c-1.7,0.4-3.4,0.6-5.2,0.6c-0.1,0-0.2,0-0.3,0
				c-0.1,0-0.2,0-0.3,0c-1.7,0-3.4-0.2-5.2-0.6c-0.7-0.1-1-0.4-0.9-1.1c0.2-4-1.3-6.3-4.6-8.6c-1.1-0.8-2.2-1.5-3.3-2.3
				c-1.4-1.1-1.4-1.7-0.2-3.1c0.9-0.9,1.9-1.6,2.9-2.3c1.9-1.3,3.8-2.6,5-4.7c0.1-0.2,0.3-0.3,0.4-0.3s0.3,0.1,0.4,0.3
				c0.4,0.5,0.5,1.1,0.3,1.7c-0.3,1.1-0.9,1.9-1.7,2.7c-0.8,0.9-1,1.9-0.5,3c0.5,1,1.5,1.3,2.4,1.3c0.1,0,0.1,0,0.2,0
				c3.3-0.1,7.1-3,8-6.2c0.2-0.6,0.2-1.1,0.1-1.7c-0.1-0.8-0.7-1.3-1.5-1.3c-0.1,0-0.2,0-0.3,0c-1,0.2-1.7,0.7-2.5,1.2
				c-0.5,0.3-1,0.6-1.5,0.6c-0.3,0-0.5-0.1-0.8-0.3c-0.6-0.4-1-1.2-1-1.9c0-0.5,0.8-0.5,1.3-0.6c1.3-0.5,2.3-1.4,3.4-2.2
				c1.1-0.7,1.8-1.1,2.5-1.1s1.4,0.4,2.6,1.3c0.4,0.4,0.8,0.5,1.1,0.5c0.4,0,0.8-0.3,1.4-0.8c3.1-3.2,5.7-6.1,8.8-9.1
				c0.6-0.6,1.2-1.1,2-1.3C288,128.2,288.1,128.2,288.3,128.2 M288.3,126.7c-0.3,0-0.5,0-0.8,0.1c-1.2,0.3-2,1-2.7,1.7
				c-1.6,1.6-3.1,3.2-4.7,4.8c-1.3,1.4-2.7,2.8-4.1,4.3c-0.2,0.2-0.3,0.3-0.4,0.3c0,0-0.1-0.1-0.2-0.1c-1.1-0.9-2.2-1.7-3.5-1.7
				c-1.1,0-2,0.5-3.3,1.4c-0.3,0.2-0.5,0.4-0.8,0.6c-0.8,0.6-1.5,1.1-2.4,1.5c0,0-0.1,0-0.2,0c-0.3,0.1-0.6,0.1-0.9,0.3
				c-0.4,0.2-0.7,0.5-0.8,0.8c-0.1,0-0.2,0-0.3,0c-0.4,0-1.1,0.1-1.6,1.1c-0.9,1.6-2.5,2.8-4.1,4c-0.1,0.1-0.3,0.2-0.4,0.3l-0.2,0.2
				c-1,0.7-2,1.4-2.9,2.4c-0.7,0.8-1.4,1.7-1.3,2.8c0.1,1.1,0.9,1.9,1.7,2.5c0.7,0.6,1.5,1.1,2.3,1.6c0.4,0.2,0.7,0.5,1.1,0.8
				c3.1,2.2,4.1,4.1,4,7.3c0,0.8,0.2,2.3,2.1,2.6c2.2,0.4,3.9,0.6,5.5,0.6c0.1,0,0.2,0,0.3,0c0.1,0,0.2,0,0.3,0
				c1.8,0,3.5-0.2,5.5-0.7c2-0.4,2.2-1.9,2.1-2.8c-0.2-1.8,0.3-3.5,1.4-5.1c1.2-1.7,2.3-3.1,3.6-4.2c1.3-1.2,2.5-2.5,3.6-3.9
				c0.8-1,1.6-1.9,2.4-2.7c0.7-0.7,1.4-1.3,2.1-1.9c1.2-1,2.4-2.1,3.4-3.4c0.2-0.3,0.6-0.7,0.8-1.3c0.3-0.8,0.1-1.6-0.5-2.3
				s-1.4-1.1-2.2-1.1c-0.3,0-0.6,0-0.9,0.1c1-1.1,2-2.4,2.8-3.7c0.2-0.4,0.4-0.8,0.4-1.2c0.1-0.8-0.2-1.5-0.7-2
				c-0.5-0.4-1.1-0.7-1.8-0.7c-0.4,0-0.7,0.1-1.1,0.2c0.2-0.7,0.4-1.7-0.5-2.6C289.8,127,289.1,126.7,288.3,126.7L288.3,126.7z
				 M266.7,145.1c0.9,0,1.6-0.4,2.2-0.7h0.1c0.2-0.1,0.4-0.2,0.6-0.3c0.5-0.3,1-0.6,1.5-0.7h0.1h0.1c0,0,0,0,0,0.1
				c0.1,0.4,0,0.7-0.1,1.1c-0.4,1.2-1.3,2.5-2.6,3.5c-1.3,1-2.8,1.6-4,1.6h-0.1c-0.9,0-1.1-0.3-1.1-0.4c-0.2-0.4-0.2-0.8,0.3-1.4
				c0.9-1,1.5-2,1.9-3C265.8,145,266.2,145.1,266.7,145.1L266.7,145.1z"/>
			<path fill="#FFFFFF" d="M292.9,141.2c-1.6,2-3.6,3.4-5.4,5.2c-2.1,2.1-3.8,4.6-6,6.5c-1.5,1.3-2.7,2.8-3.9,4.5
				c-1.2,1.8-1.9,3.8-1.7,6c0.1,0.8-0.2,1.1-0.9,1.2c-1.8,0.4-3.5,0.6-5.5,0.6c-1.7,0-3.6-0.2-5.5-0.6c-0.7-0.1-1-0.4-0.9-1.1
				c0.2-4-1.3-6.3-4.6-8.6c-1.1-0.8-2.2-1.5-3.3-2.3c-1.4-1.1-1.4-1.7-0.2-3.1c0.9-0.9,1.9-1.6,2.9-2.3c1.9-1.3,3.8-2.6,5-4.7
				c0.3-0.5,0.5-0.4,0.8,0c0.4,0.5,0.5,1.1,0.3,1.7c-0.3,1.1-0.9,1.9-1.7,2.7c-0.8,0.9-1,1.9-0.5,3s1.6,1.3,2.6,1.2
				c3.3-0.1,7.1-3,8-6.2c0.2-0.6,0.2-1.1,0.1-1.7c-0.2-0.9-0.9-1.4-1.9-1.3c-1,0.2-1.7,0.7-2.5,1.2c-0.7,0.4-1.5,0.9-2.3,0.3
				c-0.6-0.4-1-1.2-1-1.9c0-0.5,0.8-0.5,1.3-0.6c1.3-0.5,2.3-1.4,3.4-2.2c2.3-1.5,2.9-1.5,5.1,0.2c1,0.8,1.6,0.6,2.5-0.3
				c3.1-3.2,5.7-6.1,8.8-9.1c0.6-0.6,1.2-1.1,2-1.3c0.4-0.1,1.1,0,1.4,0.3c0.4,0.4,0.3,0.8,0.1,1.3c-0.4,1.1-1,1.8-1.7,2.7
				c-1.3,1.4-2.6,2.8-3.9,4.3c-0.4,0.5-1.9,2.6-1.9,2.6s1.8-1,2.7-1.8c1.1-1,3.3-2.7,4.6-4.3c0.6-0.7,1.1-1.4,2-1.8
				c0.5-0.2,1.1-0.3,1.5,0.1c0.5,0.4,0.2,1,0,1.5c-0.8,1.6-2.1,3-3.4,4.3c-1.5,1.5-2.5,2.7-3.3,3.5s-2.3,3.2-2.3,3.2s1.5-1,1.9-1.3
				c0.9-0.5,1.6-1,2.2-1.4c0.6-0.5,1.4-0.9,2.2-1.6c0.4-0.3,0.9-0.6,1.4-0.8c0.7-0.3,1.4-0.3,1.9,0.3
				C293.8,140.1,293.3,140.7,292.9,141.2z"/>
			<path fill="#FFFFFF" d="M251.2,135.3c0,0,0,0,0.1,0s0.2,0,0.3,0c0.3,0,0.7,0,1.2,0.1s1,0.2,1.6,0.3s1.2,0.3,1.8,0.5
				s1.2,0.4,1.7,0.7c0.5,0.2,1,0.5,1.4,0.7s0.7,0.5,1,0.6c0.1,0.1,0.2,0.2,0.3,0.2c0.1,0,0.1,0.1,0.1,0.1s0,0-0.1,0s-0.2,0-0.3,0
				c-0.3,0-0.7,0-1.2-0.1s-1-0.2-1.6-0.3s-1.2-0.3-1.8-0.5c-0.6-0.2-1.2-0.4-1.7-0.7c-0.5-0.2-1-0.5-1.4-0.7s-0.7-0.5-1-0.6
				C251.4,135.5,251.3,135.4,251.2,135.3L251.2,135.3z"/>
			<path fill="#FFFFFF" d="M259.7,127.6C259.7,127.6,259.8,127.7,259.7,127.6c0.1,0.2,0.2,0.2,0.3,0.4c0.2,0.2,0.4,0.6,0.6,1
				s0.5,0.9,0.7,1.5c0.2,0.5,0.4,1.1,0.6,1.7s0.4,1.2,0.5,1.8s0.2,1.1,0.3,1.6c0.1,0.5,0.1,0.9,0.1,1.2c0,0.1,0,0.3,0,0.3
				c0,0.1,0,0.1,0,0.1s0,0-0.1-0.1c0-0.1-0.1-0.2-0.2-0.3c-0.2-0.2-0.4-0.6-0.6-1s-0.5-0.9-0.7-1.5c-0.2-0.5-0.4-1.1-0.6-1.7
				c-0.2-0.6-0.4-1.2-0.5-1.8s-0.2-1.1-0.3-1.6c-0.1-0.5-0.1-0.9-0.1-1.2C259.7,127.9,259.7,127.7,259.7,127.6
				C259.7,127.7,259.7,127.6,259.7,127.6z"/>
			<path fill="#FFFFFF" d="M265.3,136L265.3,136c0-0.2,0-0.2,0-0.3c0-0.2,0-0.5,0-0.9s0.1-0.8,0.1-1.2c0.1-0.4,0.2-0.9,0.3-1.3
				c0.1-0.4,0.3-0.9,0.5-1.3c0.2-0.4,0.4-0.8,0.6-1.1s0.4-0.6,0.5-0.7s0.1-0.2,0.2-0.2l0.1-0.1c0,0,0,0,0,0.1s0,0.1,0,0.3
				s0,0.5,0,0.9s-0.1,0.8-0.1,1.2c-0.1,0.4-0.2,0.9-0.3,1.3c-0.1,0.4-0.3,0.9-0.5,1.3c-0.2,0.4-0.4,0.8-0.6,1.1s-0.4,0.6-0.5,0.7
				S265.4,135.9,265.3,136L265.3,136z"/>
		</g>
	</g>
</g>
<g>
	<g opacity="0.25">
		<path fill="#162636" d="M63.2,178.7c-2.2,1.3-4.2,0.9-6.1-0.2l-0.3,0.5l-1.2-0.2l-1,4c2.8,1.9,6.7,2.3,11-0.1
			c2.1-1.2,3.6-2.8,4.4-4.5l0,0l0,0c0.3-0.6,0.4-1.2,0.5-1.8l0.9-3.4l-1,1.2c-0.2-0.7-0.4-1.4-0.8-2.1c-2.2-3.8-5.3-4.2-10.2-3.7
			l-1.4,0.2c-2.4,0.3-3.6,0.2-4.4-1.1c-0.6-1.1-0.3-2.4,1.1-3.2c1.3-0.8,2.5-0.7,4,0.3l2.2-4.3l1-4l-2.8,3.2
			c-2.3-0.8-4.4-0.4-6.7,0.9c-1,0.6-1.9,1.3-2.5,2.1l-0.4-1.3l-1,4.2l0,0c-0.4,1.6-0.1,3.3,0.8,4.9c2.1,3.7,5.3,4.2,9.4,3.7l1.4-0.2
			c2.6-0.3,4.2-0.5,5.1,1.1C65.8,176,65.1,177.6,63.2,178.7z"/>
		<path fill="#162636" d="M79.2,144.6c-6.4,3.7-8.7,11.4-4.9,17.9c3.8,6.5,11.6,8.4,18,4.7c6.4-3.7,8.7-11.4,4.9-17.9
			C93.4,142.8,85.6,141,79.2,144.6z M89.9,163.2c-4,2.3-8.6,0.7-11-3.4c-2.4-4.1-1.5-8.8,2.6-11.2c4-2.3,8.6-0.8,11,3.4
			C94.9,156.2,94,160.9,89.9,163.2z"/>
		<polygon fill="#162636" points="114.5,148.7 104.1,130.7 102.8,131.4 100.5,129.3 99.5,133.3 112.3,155.4 126.8,147 127.8,143 
			125.1,144 124.5,143 		"/>
		<path fill="#162636" d="M142.1,138.1c6.8-3.9,9-11.2,5.2-17.8s-11.2-8.2-18-4.3l-3.9,2.3l-1.9-2.3l-1,4l12.7,22.1L142.1,138.1z
			 M131.5,120.2c4.9-2.8,8.8-1.2,11.2,2.9s1.8,8.3-3.1,11.2l-2,1.2l-8.1-14.1L131.5,120.2z"/>
		<path fill="#162636" d="M172.3,90.9c-6.4,3.7-8.7,11.4-4.9,17.9c3.8,6.5,11.6,8.4,18,4.7c6.4-3.7,8.7-11.4,4.9-17.9
			C186.5,89.1,178.7,87.2,172.3,90.9z M183,109.5c-4,2.3-8.6,0.7-11-3.4s-1.5-8.8,2.6-11.2c4-2.3,8.6-0.8,11,3.4
			S187.1,107.2,183,109.5z"/>
		<path fill="#162636" d="M212,92.7c-3,1.7-5.1,1.3-7-1.9l-8-13.8l-1.2,0.7l-2.3-2.1l-1,4l8.1,14.1c3.2,5.6,8.6,6,13.7,3.1
			c2.5-1.4,4.3-3.3,5.1-5.6l0,0c0,0,0,0,0,0c0.2-0.5,0.3-1,0.4-1.5c0.5-1.8,1.1-4.5,1.1-4.5l-1.2,1.4c-0.2-1.1-0.6-2.2-1.3-3.3
			l-7.2-12.5l0.3-0.1l-0.6-0.4l-0.7-1.2l-0.7,0.4l-2.9-1.8l-1,4l8,13.8C215.7,88.9,215,91,212,92.7z"/>
		<polygon fill="#162636" points="237.6,83 242.1,80.4 243.1,76.4 240.5,77.6 231.7,62.3 238,58.7 239,54.7 236.1,55.5 235.6,54.7 
			222.1,62.5 219.5,60.6 218.5,64.6 220.8,68.6 227.1,64.9 		"/>
		<polygon fill="#162636" points="250,35.2 246,28.3 26,155.3 23,153.7 22,157.7 26,164.6 248.7,36 		"/>
		<polygon fill="#162636" points="246.8,29.6 250,35.2 251,31.2 		"/>
		<polygon fill="#162636" points="274.4,77.5 272,73.4 51.7,200.6 49,198.8 48,202.8 52,209.7 276,80.3 277,76.3 		"/>
	</g>
	<g>
		<path fill="#DC4339" d="M64.2,174.7c-2.2,1.3-4.2,0.9-6.1-0.2l-2.5,4.3c2.8,1.9,6.7,2.3,11-0.1c4.3-2.5,6.2-6.6,3.9-10.7
			c-2.2-3.8-5.3-4.2-10.2-3.7l-1.4,0.2c-2.4,0.3-3.6,0.2-4.4-1.1c-0.6-1.1-0.3-2.4,1.1-3.2c1.3-0.8,2.5-0.7,4,0.3l2.2-4.3
			c-3-1.8-5.7-1.6-8.6,0.1c-4.1,2.3-5.2,6.4-3.2,9.8c2.1,3.7,5.3,4.2,9.4,3.7l1.4-0.2c2.6-0.3,4.2-0.5,5.1,1.1
			C66.8,172,66.1,173.6,64.2,174.7z"/>
		<path fill="#DC4339" d="M80.2,140.6c-6.4,3.7-8.7,11.4-4.9,17.9c3.8,6.5,11.6,8.4,18,4.7c6.4-3.7,8.7-11.4,4.9-17.9
			C94.4,138.8,86.6,137,80.2,140.6z M90.9,159.2c-4,2.3-8.6,0.7-11-3.4c-2.4-4.1-1.5-8.8,2.6-11.2c4-2.3,8.6-0.8,11,3.4
			C95.9,152.2,95,156.9,90.9,159.2z"/>
		<polygon fill="#DC4339" points="105.1,126.7 100.5,129.3 113.3,151.4 127.8,143 125.5,139 115.5,144.7 		"/>
		<path fill="#DC4339" d="M143.1,134.1c6.8-3.9,9-11.2,5.2-17.8s-11.2-8.2-18-4.3l-6.8,3.9l12.7,22.1L143.1,134.1z M132.5,116.2
			c4.9-2.8,8.8-1.2,11.2,2.9s1.8,8.3-3.1,11.2l-2,1.2l-8.1-14.1L132.5,116.2z"/>
		<path fill="#DC4339" d="M173.3,86.9c-6.4,3.7-8.7,11.4-4.9,17.9c3.8,6.5,11.6,8.4,18,4.7c6.4-3.7,8.7-11.4,4.9-17.9
			C187.5,85.1,179.7,83.2,173.3,86.9z M184,105.5c-4,2.3-8.6,0.7-11-3.4s-1.5-8.8,2.6-11.2c4-2.3,8.6-0.8,11,3.4
			S188.1,103.2,184,105.5z"/>
		<path fill="#DC4339" d="M213,88.7c-3,1.7-5.1,1.3-7-1.9l-8-13.8l-4.5,2.6l8.1,14.1c3.2,5.6,8.6,6,13.7,3.1c5-2.9,7.3-7.8,4.1-13.4
			l-8.1-14.1l-4.5,2.6l8,13.8C216.7,84.9,216,87,213,88.7z"/>
		<polygon fill="#DC4339" points="228.1,60.9 238.6,79 243.1,76.4 232.7,58.3 239,54.7 236.6,50.7 219.5,60.6 221.8,64.6 		"/>
		<polygon fill="#DC4339" points="251,31.2 247,24.3 23,153.7 27,160.6 249.7,32 		"/>
		<rect x="33.7" y="133.6" transform="matrix(0.866 -0.5 0.5 0.866 -46.9346 99.9375)" fill="#DC4339" width="258.7" height="8"/>
	</g>
</g>
</svg>
