<svg xmlns="http://www.w3.org/2000/svg" xmlns:xlink="http://www.w3.org/1999/xlink" viewBox="0 0 800 100"><defs><path id="a" d="M0 0h800v100H0z"/></defs><clipPath id="b"><use xlink:href="#a" overflow="visible"/></clipPath><g clip-path="url(#b)"><path opacity=".25" fill="#162636" d="M780.4 46.3h-18.2c-5.3-7.5-8.5-16.8-8.5-26.7L734.1 0l-26 19.6H65.9c0 25.6-20.7 46.3-46.3 46.3v335.6L0 412.3l19.6 19.6c14.7 0 27.7 6.8 36.2 17.5l-9.5 9.2 19.6 19.6h687.8c0-25.6 20.7-46.3 46.3-46.3v-366l-19.6-19.6z"/><path fill="#FFF" d="M780.4 412.3v-366c-25.6 0-46.3-20.7-46.3-46.3H46.3c0 25.6-20.7 46.3-46.3 46.3v366c25.6 0 46.3 20.7 46.3 46.3h687.8c0-25.6 20.7-46.3 46.3-46.3z"/><path fill="#162636" d="M717.6 12.6c1.1 11.6 6.3 22.2 14.9 30.3 8.8 8.3 20.5 13.3 33.5 14.3v344.2c-13 1-24.7 6-33.5 14.3-8.6 8.1-13.8 18.7-14.9 30.3H62.8c-1.1-11.6-6.3-22.2-14.9-30.3-8.8-8.3-20.5-13.3-33.5-14.3V57.2c13-1 24.7-6 33.5-14.3 8.6-8.1 13.8-18.7 14.9-30.3h654.8m4.6-4.9h-664c0 24.7-20 44.7-48.7 44.7v353.7c28.6 0 48.7 20 48.7 44.7h664c0-24.7 20-44.7 48.7-44.7V52.4c-28.7 0-48.7-20-48.7-44.7z"/></g></svg>