<svg xmlns="http://www.w3.org/2000/svg" xmlns:xlink="http://www.w3.org/1999/xlink" viewBox="0 0 800 100"><defs><path id="a" d="M0 0h800v100H0z"/></defs><clipPath id="b"><use xlink:href="#a" overflow="visible"/></clipPath><g clip-path="url(#b)"><path opacity=".25" fill="#162636" d="M780.4-331.8h-18.2c-5.3-7.5-8.5-16.8-8.5-26.7l-19.6-19.6-26 19.6H65.9c0 25.6-20.7 46.3-46.3 46.3V23.4L0 34.1l19.6 19.6c14.7 0 27.7 6.8 36.2 17.5l-9.5 9.2L65.9 100h687.8c0-25.6 20.7-46.3 46.3-46.3v-366l-19.6-19.5z"/><path fill="#FFF" d="M780.4 34.1v-366c-25.6 0-46.3-20.7-46.3-46.3H46.3c0 25.6-20.7 46.3-46.3 46.3v366c25.6 0 46.3 20.7 46.3 46.3h687.8c0-25.6 20.7-46.3 46.3-46.3z"/><path fill="#162636" d="M717.6-365.5c1.1 11.6 6.3 22.2 14.9 30.3C741.2-327 753-322 766-321V23.2c-13 1-24.7 6-33.5 14.3-8.6 8.1-13.8 18.7-14.9 30.3H62.8C61.7 56.2 56.5 45.6 48 37.5c-8.8-8.3-20.5-13.3-33.5-14.3V-321c13-1 24.7-6 33.5-14.3 8.6-8.1 13.8-18.7 14.9-30.3h654.7m4.6-4.8h-664c0 24.7-20 44.7-48.7 44.7V28c28.6 0 48.7 20 48.7 44.7h664c0-24.7 20-44.7 48.7-44.7v-353.7c-28.7 0-48.7-20-48.7-44.7z"/></g></svg>