<svg xmlns="http://www.w3.org/2000/svg" viewBox="0 0 300 300"><path opacity=".25" fill="#162636" d="M225.4 80.6c-.2-.8-.4-1.6-.7-2.4-8.7-20.1-19.7-30.8-25-35.9l-1.1-1.1c-1.3-1.3-5.3-4.5-15.1-7.4-5.7-1.6-14.9-3.6-26.9-3.6-7.8 0-15.7.8-23.6 2.5-15.5 3.3-29.9 9.1-41.5 16.8-11.4 7.6-19.9 16.8-24.8 26.7-4.2 8.6-4.7 21.3-1.6 38 2.2 11.8 5.5 21.3 5.6 21.7l.1.4c-.6.4-1.1.9-1.6 1.4-2 2.1-3.4 4.9-4.2 8.3-1.1 4.8-1 9.9.5 14.7 2.6 8.5 4.4 17 6 25 1.1 5.6 3.6 10.2 7.4 13.5 2 1.7 4.8 2.8 7.4 2.8h.1c-.1 3.5.4 7.1 1.3 11.2.3 1.4.6 2.7 1 4.1 1.4 5.8 2.7 11.2 3.2 16.7 1.1 13.1 8.3 23.1 21.3 29.9 13.4 6.9 27.2 10.7 41 11.1h2.3c6.7 0 15.4-.9 23.7-8.3l5.8-5.1c8.7-3.5 19.2-8.9 27-18.8 6.6-8.4 11.4-17.8 14.4-28.1 2.7-9.4 4-19.8 3.7-30.8-.1-2.8-.2-5.6-.2-8.5-.5-18.1-1.1-36.9.5-55.2.8-11.2 1-25.7-6-39.6z"/><path fill="#FFF" d="M230.3 114.6c-1.8 21.5-.8 42.9-.3 64.3.5 20-4.1 38.8-16.8 54.9-6.7 8.5-16 13.6-26 17.5-1.9.7-2.9.9-3.9.9-.7 0-1.5-.1-2.5-.1-.6 0-1.2 0-2 .1-3.5.4-8.3 1.3-8.3 1.3l6.9 2.1s1.7.8 3.8 1.2c-6.3 5.6-12.9 6.7-19.6 6.7h-2.1c-13.6-.4-26.3-4.2-38.3-10.4-10.2-5.3-16.9-13.1-17.9-24.9-.6-7.4-2.6-14.5-4.3-21.7-1.2-5.3-1.7-10.7-.3-16.2.5-1.8-.7-5.9-.7-5.9s-2.1 2.2-3.1 4c-.8 1.5-2.1 2-3.4 2-1.3 0-2.6-.6-3.3-1.2-3-2.7-4.6-6.2-5.4-10.1-1.7-8.6-3.6-17.2-6.1-25.6-1.1-3.7-1.3-7.6-.4-11.5 1.1-4.8 3.6-7.3 6.8-7.3 1.9 0 4.1 1 6.3 3 1.5 1.4 4.4 5 4.4 5s1.7-5.9.8-7.3c-.7-1.2-2.8-3.5-3.7-4.6-1.8-2.1-6.6-24.7-7.4-28.7-.3-1.3.3-2.5 1.4-3.6l-.9-1.2c-.6-1-1.1-2.2-1.3-3.6-.2-1.4 0-2.9.5-4.3.2-.7.5-1.4.9-2.1.4-.7.7-1.4 1.2-2.1.1-.2.2-.3.3-.5.1-.2.2-.3.3-.5l.3-.4.2-.2v-.1l.1-.1.1-.1c.3-.3.6-.7.9-1 .3-.3.7-.6 1-.9 1.4-1.2 3-2.2 4.7-2.9 1.7-.7 3.5-1.3 5.3-1.7 1.8-.4 3.7-.7 5.6-.9 1.9-.2 3.8-.3 5.7-.4 1 0 1.9 0 2.9-.1h2.9c3.8 0 7.6.2 11.4.2h3.2c2.7 0 5.3-.1 7.9-.2.9-.1 1.8-.1 2.7-.2.9-.1 1.7-.2 2.6-.3.4-.1.8-.1 1.2-.2l.6-.1c.2 0 .4-.1.6-.1.4-.1.9-.2 1.3-.3H147.3l.3-.1.6-.2c.8-.2 1.7-.5 2.5-.7.8-.2 1.6-.5 2.4-.7 1.6-.4 3.2-1.1 4.7-1.5 1.5-.6 3-1.1 4.4-1.6.7-.3 1.4-.5 2.1-.8.7-.3 1.3-.6 2-.8 1.3-.5 2.5-1.1 3.7-1.6 1.2-.5 2.3-1 3.4-1.5 2.1-1 3.9-1.9 5.4-2.6 1.5-.8 2.7-1.4 3.5-1.8.8-.4 1.2-.7 1.2-.7s-1.3 1.4-3.9 3.7c-1.3 1.1-2.9 2.4-4.8 3.8-.9.7-2 1.4-3.1 2.2-.6.4-1.1.7-1.7 1.1-.6.4-1.2.8-1.8 1.1-2.5 1.6-5.3 3.1-8.3 4.6-.8.4-1.5.7-2.3 1.1-.4.2-.8.4-1.2.5-.4.2-.8.3-1.2.5-.8.3-1.7.7-2.5 1-.9.3-1.7.6-2.6.9l-.7.2-.3.1-.4.1c-.4.1-.9.3-1.3.4-.9.2-2 .5-2.9.7-1.9.4-3.9.7-5.9.9-3.4.4-6.7.5-10.1.5h-1.7c-3.9-.1-7.7-.2-11.5-.4-1.9-.1-3.7-.1-5.5-.2H104.5c-1.7 0-3.4.2-4.9.4-1.6.2-3.1.5-4.4.9-1.4.4-2.6 1-3.7 1.7-.3.2-.5.3-.8.5-.2.2-.5.4-.7.6l-.1.1-.2.2-.4.4-.4.4-.3.4c-.4.4-.8.9-1.2 1.4-.2.2-.4.5-.5.7-.1.2-.3.5-.4.7-.5 1-.8 2-.9 2.9-.1 1.4.3 2.7.8 3.8.6.5 1.3.9 2.2 1.2.1-.1.2-.3.3-.5.1-.2.2-.3.3-.5.1-.2.2-.3.3-.5l.3-.4.2-.2v-.1l.1-.1.1-.1c.3-.3.6-.7.9-1 .3-.3.7-.6 1-.9 1.4-1.2 3-2.2 4.7-2.9 1.7-.7 3.5-1.3 5.3-1.7 1.8-.4 3.7-.7 5.6-.9 1.9-.2 3.8-.3 5.7-.4 1 0 1.9 0 2.9-.1h2.9c3.8 0 7.6.2 11.4.2h3.2c2.7 0 5.3-.1 7.9-.2.9-.1 1.8-.1 2.7-.2.9-.1 1.7-.2 2.6-.3.4-.1.8-.1 1.2-.2l.6-.1c.2 0 .4-.1.6-.1.4-.1.9-.2 1.3-.3H150.9l.3-.1.6-.2c.8-.2 1.7-.5 2.5-.7.8-.2 1.6-.5 2.4-.7 1.6-.4 3.2-1.1 4.7-1.5 1.5-.6 3-1.1 4.4-1.6.7-.3 1.4-.5 2.1-.8.7-.3 1.3-.6 2-.8 1.3-.5 2.5-1.1 3.7-1.6 1.2-.5 2.3-1 3.4-1.5 2.1-1 3.9-1.9 5.4-2.6 1.5-.8 2.7-1.4 3.5-1.8.8-.4 1.2-.7 1.2-.7s-1.3 1.4-3.9 3.7c-1.3 1.1-2.9 2.4-4.8 3.8-.9.7-2 1.4-3.1 2.2-.6.4-1.1.7-1.7 1.1-.6.4-1.2.8-1.8 1.1-1.9 1.2-3.9 2.3-6.1 3.4 3.1-.8 5-1.3 5.3-1.3h.3c5.2 0 9.7-2.1 14-4.6 2.3-1.4 4.4-2.3 7-2.3.8 0 1.6.1 2.5.3.8.2 1.6.2 2.5.2 7.9 0 19.3-5.6 21-6.8 1-.6 1.7-.9 2.3-.9 1.5 0 2 1.7 2.9 3.2 7.2 12.1 7.9 25.7 6.8 38.9z"/><path fill="#162636" d="M127.1 128.4s0-.2-.1-.6c0-.4-.1-.9-.2-1.6-.1-1.4-.2-3.4 0-5.8s.7-5.2 1.7-8.1c.2-.7.5-1.5.9-2.2.2-.4.3-.7.5-1.1.2-.4.4-.7.6-1.1.9-1.5 1.9-3 3.4-4.2 1.5-1.3 3.4-2.3 5.5-2.7.5-.1 1-.1 1.6-.1h.7l.6.1h.3l.4.1.7.1c.5.1.9.2 1.3.3 1.7.5 3.3 1.4 4.5 2.6.6.6 1.1 1.2 1.5 1.9.4.7.7 1.3 1 1.9.5 1.3.7 2.5.7 3.5.1 1 0 1.9-.1 2.6-.1.7-.2 1.3-.3 1.6-.1.4-.2.6-.2.6s-.1-.2-.2-.5c-.1-.4-.3-.9-.5-1.5s-.6-1.4-1-2.1c-.4-.8-.9-1.6-1.6-2.3-.6-.7-1.4-1.4-2.2-1.9-.8-.5-1.8-.8-2.9-.9-.3 0-.5 0-.8-.1h-1.8c-.2 0-.5 0-.7.1-.9.2-1.7.7-2.6 1.4-.8.7-1.7 1.7-2.4 2.8-.2.3-.4.5-.5.8-.2.3-.4.6-.5.8-.3.6-.7 1.2-1 1.7-1.3 2.4-2.3 4.7-3.3 6.8-.9 2.1-1.7 3.9-2.3 5.1-.3.6-.5 1.1-.7 1.5v.5zM187.8 119.3s0-.2-.1-.5c0-.3-.1-.8-.2-1.4-.1-1.2-.2-2.9 0-5 .1-2 .5-4.4 1.2-6.9.3-1.3.8-2.6 1.3-3.9.6-1.3 1.3-2.6 2.2-3.9.5-.6 1-1.3 1.7-1.9.7-.6 1.4-1.2 2.4-1.6.5-.2 1-.4 1.6-.5.3-.1.6-.1.9-.1h.7l.5.1c.2 0 .5.1.7.1l.4.1c.1 0 .2.1.3.1.2.1.4.1.6.2.8.3 1.5.6 2.2 1 .6.4 1.2.9 1.7 1.4 1 1 1.7 2 2.2 3 1 2 1.4 3.7 1.5 5 .1.6.1 1.1.1 1.4v.5s-.1-.1-.3-.4c-.2-.3-.5-.6-.9-1.1-.8-.9-1.9-2.1-3.2-3.3-.7-.6-1.4-1.1-2.2-1.5-.8-.4-1.6-.7-2.4-.8h-1.2c-.2.1-.2.1-.5.2-.2.1-.5.4-.8.6-.3.3-.6.7-.9 1.1-.6.8-1.2 1.8-1.8 2.9-.6 1-1.1 2.1-1.6 3.2-1 2.2-2 4.2-2.9 5.9-.9 1.8-1.6 3.3-2.2 4.3-.3.5-.5.9-.7 1.2-.2.3-.3.5-.3.5zM164.8 224.1h.4c.2 0 .6-.1 1-.1.8-.1 2-.1 3.3-.2.6 0 1.3-.1 2.1-.1.7-.1 1.5-.1 2.2-.2.8-.1 1.5-.2 2.3-.2.8-.1 1.5-.2 2.2-.3.7-.1 1.5-.3 2.2-.5.4-.1.7-.2 1.1-.3.3-.1.7-.2 1-.3.7-.2 1.3-.5 2-.7.3-.1.6-.3.9-.4.3-.1.6-.3.9-.4.3-.1.6-.3.8-.4.3-.1.5-.2.8-.4.5-.3 1-.4 1.3-.6.4-.2.7-.3.9-.4.2-.1.3-.1.3-.1s0 .1-.1.4c0 .2-.1.6-.2 1s-.3.9-.5 1.5-.6 1.2-1 1.8c-.2.3-.5.6-.7 1-.3.3-.6.6-.9 1-.6.6-1.3 1.2-2.2 1.8-.4.3-.8.5-1.3.8-.4.2-.9.4-1.4.6-1 .4-2 .7-3 .8-1 .2-2 .2-3 .3-1 0-2-.1-2.9-.3-1.8-.3-3.5-1-4.8-1.7-.6-.4-1.2-.7-1.7-1.1-.5-.4-.9-.7-1.2-1-.3-.3-.5-.6-.7-.7 0-.5-.1-.6-.1-.6zM170.7 217c-18.1 0-29.1-13.2-29.7-13.9l4.8-3.9c.5.6 12.3 14.7 31.2 10.9 19.1-3.8 25.8-18.3 26-18.9l5.7 2.5c-.3.7-8.2 18.1-30.5 22.5-2.6.5-5.1.8-7.5.8z"/><path fill="#162636" d="M199.6 186.5s.2.2.7.6c.4.3 1 .8 1.6 1.3.3.3.7.5 1 .8.4.3.7.6 1.1.8.2.1.4.3.6.4.2.2.4.3.6.4.2.1.4.3.6.4.2.1.4.3.6.4.1.1.2.1.3.2l.3.2c.2.1.4.2.6.4.4.2.9.5 1.3.7.4.2.9.4 1.3.6.1.1.2.1.3.2.1 0 .2.1.3.1l.6.3c.4.2.7.4 1.1.5.3.2.6.3.9.4.5.3.8.5.8.5s-.3.2-.8.4c-.3.1-.6.2-1 .3-.4.1-.8.2-1.3.2s-1 .1-1.5.1-1.1-.1-1.7-.2c-.3-.1-.6-.2-.9-.2l-.9-.3c-.3-.1-.6-.3-.9-.4l-.4-.2c-.1-.1-.3-.2-.4-.3-.3-.2-.5-.4-.8-.6-.3-.2-.5-.4-.7-.6-.5-.4-.9-.9-1.3-1.4-.2-.2-.4-.5-.5-.7-.1-.3-.3-.5-.4-.7-.2-.5-.5-1-.6-1.4-.2-.5-.2-.9-.3-1.3-.1-.4-.1-.7-.1-1-.1-.6-.1-.9-.1-.9zM146.9 194.8s.2.3.3.8c.1.3.2.6.2 1 .1.4.1.8.1 1.3s0 1-.1 1.5c0 .3-.1.5-.2.8-.1.3-.2.5-.3.8-.2.6-.4 1.1-.7 1.7-.3.5-.6 1.1-1 1.6s-.8 1-1.2 1.4c-.4.4-.9.8-1.3 1.2-.5.3-.9.6-1.4.9-.5.3-.9.4-1.3.6-.4.2-.8.3-1.2.4-.4.1-.7.2-1 .2-.5.1-.9.1-.9.1s.1-.3.4-.8c.1-.2.3-.5.5-.8.2-.3.4-.6.6-1 .2-.4.5-.7.8-1.1.3-.4.5-.8.8-1.2l.9-1.2.9-1.2.9-1.2.9-1.2c.1-.2.3-.4.4-.6.1-.2.3-.4.4-.6.1-.2.3-.4.4-.5.1-.2.2-.4.4-.5.5-.7.9-1.3 1.2-1.7.1-.2.3-.4.3-.5l.2-.2zM83.6 131.8l-3.8-6.9c6.2-8.6 16.1-11.2 21.2-13.1l-1 7.8c-6.2 2.3-11.6 5.5-16.4 12.2z"/><path fill="#162636" d="M83.3 120.3l.1-9.3c.3-.4 5.6-5 18.9-8.7l-1.1 7.3c-11.6 3.3-17.8 10.6-17.9 10.7zM132.7 147.5s1.9.1 4.8.2c.6 0 1.3.1 1.9.1h1.9c.6 0 1.3 0 1.9-.1.6 0 1.2-.1 1.8-.2h.4c.1 0 .3 0 .4-.1.3 0 .6-.1.9-.1.2 0 .3-.1.4-.1.2 0 .3 0 .5-.1.3-.1.6-.1.9-.2.3-.1.6-.1.9-.2.3-.1.6-.2 1-.2.3-.1.6-.2 1-.2.3-.1.6-.1.9-.2.6-.2 1.2-.3 1.8-.4.6-.1 1.1-.3 1.5-.4.4-.1.8-.2 1-.2.3 0 .4-.1.4-.1v.4c0 .2 0 .6-.1 1.1-.1.5-.2 1-.4 1.6-.1.3-.2.6-.4.9-.1.3-.3.6-.5 1-.2.3-.4.7-.7 1-.3.3-.5.7-.8 1-.3.3-.6.7-1 1l-1.2.9c-.4.3-.9.6-1.3.8-.5.2-1 .5-1.5.7-1 .4-2.2.7-3.3.8-1.1.1-2.3.1-3.4-.1s-2.1-.5-3.1-.9c-.9-.4-1.8-.9-2.5-1.5-.7-.5-1.4-1.1-1.9-1.7-1-1.2-1.6-2.4-2-3.2-.2-.4-.2-.8-.3-1.1.1 0 .1-.2.1-.2zM187.3 144.7s.6-.1 1.5-.1c.9-.1 2.2-.1 3.5-.2 1.4-.1 2.8-.1 4.2-.3.7-.1 1.4-.2 2-.3.7-.1 1.3-.2 1.9-.4.6-.2 1.2-.3 1.8-.5l1.8-.6c.6-.2 1.2-.5 1.8-.8.3-.1.6-.3.9-.5.3-.2.6-.3.9-.5.6-.3 1.2-.6 1.7-.9.5-.3 1-.6 1.4-.8.8-.5 1.4-.7 1.4-.7s.1.6.2 1.6c0 .5 0 1.1-.1 1.7 0 .3-.1.7-.2 1.1-.1.4-.2.7-.3 1.1-.1.4-.3.8-.5 1.2-.2.4-.4.8-.6 1.3-.5.8-1.1 1.7-1.9 2.5-.4.4-.8.8-1.3 1.1-.2.2-.5.3-.7.5-.2.2-.5.3-.8.5-1.1.6-2.2 1-3.4 1.3-1.2.2-2.4.4-3.6.3-1.2 0-2.3-.2-3.3-.6-2.1-.6-3.7-1.6-5-2.7-.6-.5-1.1-1.1-1.6-1.6-.4-.5-.7-1-1-1.4-.6-.7-.7-1.3-.7-1.3z"/><path fill="#162636" d="M82.4 93.7c.3 2.7 6 9.5 6 9.5s.6 25.4 2.5 27.7-4.3-.5-4.3-.5l-8.8-32.3 4.6-4.4z"/><path fill="#162636" d="M230.6 75.4c-.2-.8-.4-1.6-.7-2.4-8.7-20.1-19.7-30.8-25-35.9l-1.1-1.1c-1.3-1.3-5.3-4.5-15.1-7.4-5.7-1.6-15-3.6-26.9-3.6-7.8 0-15.7.8-23.6 2.5-15.5 3.3-29.9 9.1-41.5 16.8-11.4 7.6-20 16.8-24.9 26.7-4.2 8.6-4.7 21.3-1.6 38 2.2 11.8 5.5 21.3 5.6 21.7l.2.3c-.6.4-1.1.9-1.6 1.4-2 2.1-3.4 4.9-4.2 8.3-1.1 4.8-1 9.9.5 14.7 2.6 8.5 4.4 17 6 25 1.1 5.6 3.6 10.2 7.4 13.5 2 1.7 4.8 2.8 7.4 2.8h.1c-.1 3.5.4 7.1 1.3 11.2.3 1.4.6 2.7 1 4.1 1.4 5.8 2.7 11.2 3.2 16.7 1.1 13.1 8.3 23.1 21.3 29.9 13.4 6.9 27.2 10.7 41 11.1h2.3c6.7 0 15.4-.9 23.7-8.3l5.8-5.1c8.7-3.5 19.2-8.9 27-18.8 6.6-8.4 11.4-17.8 14.4-28.1 2.7-9.4 4-19.8 3.7-30.8-.1-2.8-.2-5.6-.2-8.5-.5-18.1-1.1-36.9.5-55.2.8-11.1 1-25.6-6-39.5zm-.3 39.2c-1.8 21.5-.8 42.9-.3 64.3.5 20-4.1 38.8-16.8 54.9-6.7 8.5-16 13.6-26 17.5-1.9.7-2.9.9-3.9.9-.7 0-1.5-.1-2.5-.1-.6 0-1.2 0-2 .1-3.5.4-8.3 1.3-8.3 1.3l6.9 2.1s1.7.8 3.8 1.2c-6.3 5.6-12.9 6.7-19.6 6.7h-2.1c-13.6-.4-26.3-4.2-38.3-10.4-10.2-5.3-16.9-13.1-17.9-24.9-.6-7.4-2.6-14.5-4.3-21.7-1.2-5.3-1.7-10.7-.3-16.2.5-1.8-.7-5.9-.7-5.9s-2.1 2.2-3.1 4c-.8 1.5-2.1 2-3.4 2-1.3 0-2.6-.6-3.3-1.2-3-2.7-4.6-6.2-5.4-10.1-1.7-8.6-3.6-17.2-6.1-25.6-1.1-3.7-1.3-7.6-.4-11.5 1.1-4.8 3.6-7.3 6.8-7.3 1.9 0 4.1 1 6.3 3 1.5 1.4 4.4 5 4.4 5s1.7-5.9.8-7.3c-.7-1.2-2.8-3.5-3.7-4.6-1.8-2.1-6.6-24.7-7.4-28.7-.3-1.3.3-2.5 1.4-3.6l-.9-1.2c-.6-1-1.1-2.2-1.3-3.6-.2-1.4 0-2.9.5-4.3.2-.7.5-1.4.9-2.1.4-.7.7-1.4 1.2-2.1.1-.2.2-.3.3-.5.1-.2.2-.3.3-.5l.3-.4.2-.2v-.1l.1-.1.1-.1c.3-.3.6-.7.9-1 .3-.3.7-.6 1-.9 1.4-1.2 3-2.2 4.7-2.9 1.7-.7 3.5-1.3 5.3-1.7 1.8-.4 3.7-.7 5.6-.9 1.9-.2 3.8-.3 5.7-.4 1 0 1.9 0 2.9-.1h2.9c3.8 0 7.6.2 11.4.2h3.2c2.7 0 5.3-.1 7.9-.2.9-.1 1.8-.1 2.7-.2.9-.1 1.7-.2 2.6-.3.4-.1.8-.1 1.2-.2l.6-.1c.2 0 .4-.1.6-.1.4-.1.9-.2 1.3-.3H147.3l.3-.1.6-.2c.8-.2 1.7-.5 2.5-.7.8-.2 1.6-.5 2.4-.7 1.6-.4 3.2-1.1 4.7-1.5 1.5-.6 3-1.1 4.4-1.6.7-.3 1.4-.5 2.1-.8.7-.3 1.3-.6 2-.8 1.3-.5 2.5-1.1 3.7-1.6 1.2-.5 2.3-1 3.4-1.5 2.1-1 3.9-1.9 5.4-2.6 1.5-.8 2.7-1.4 3.5-1.8.8-.4 1.2-.7 1.2-.7s-1.3 1.4-3.9 3.7c-1.3 1.1-2.9 2.4-4.8 3.8-.9.7-2 1.4-3.1 2.2-.6.4-1.1.7-1.7 1.1-.6.4-1.2.8-1.8 1.1-2.5 1.6-5.3 3.1-8.3 4.6-.8.4-1.5.7-2.3 1.1-.4.2-.8.4-1.2.5-.4.2-.8.3-1.2.5-.8.3-1.7.7-2.5 1-.9.3-1.7.6-2.6.9l-.7.2-.3.1-.4.1c-.4.1-.9.3-1.3.4-.9.2-2 .5-2.9.7-1.9.4-3.9.7-5.9.9-3.4.4-6.7.5-10.1.5h-1.7c-3.9-.1-7.7-.2-11.5-.4-1.9-.1-3.7-.1-5.5-.2H104.5c-1.7 0-3.4.2-4.9.4-1.6.2-3.1.5-4.4.9-1.4.4-2.6 1-3.7 1.7-.3.2-.5.3-.8.5-.2.2-.5.4-.7.6l-.1.1-.2.2-.4.4-.4.4-.3.4c-.4.4-.8.9-1.2 1.4-.2.2-.4.5-.5.7-.1.2-.3.5-.4.7-.5 1-.8 2-.9 2.9-.1 1.4.3 2.7.8 3.8.6.5 1.3.9 2.2 1.2.1-.1.2-.3.3-.5.1-.2.2-.3.3-.5.1-.2.2-.3.3-.5l.3-.4.2-.2v-.1l.1-.1.1-.1c.3-.3.6-.7.9-1 .3-.3.7-.6 1-.9 1.4-1.2 3-2.2 4.7-2.9 1.7-.7 3.5-1.3 5.3-1.7 1.8-.4 3.7-.7 5.6-.9 1.9-.2 3.8-.3 5.7-.4 1 0 1.9 0 2.9-.1h2.9c3.8 0 7.6.2 11.4.2h3.2c2.7 0 5.3-.1 7.9-.2.9-.1 1.8-.1 2.7-.2.9-.1 1.7-.2 2.6-.3.4-.1.8-.1 1.2-.2l.6-.1c.2 0 .4-.1.6-.1.4-.1.9-.2 1.3-.3H150.9l.3-.1.6-.2c.8-.2 1.7-.5 2.5-.7.8-.2 1.6-.5 2.4-.7 1.6-.4 3.2-1.1 4.7-1.5 1.5-.6 3-1.1 4.4-1.6.7-.3 1.4-.5 2.1-.8.7-.3 1.3-.6 2-.8 1.3-.5 2.5-1.1 3.7-1.6 1.2-.5 2.3-1 3.4-1.5 2.1-1 3.9-1.9 5.4-2.6 1.5-.8 2.7-1.4 3.5-1.8.8-.4 1.2-.7 1.2-.7s-1.3 1.4-3.9 3.7c-1.3 1.1-2.9 2.4-4.8 3.8-.9.7-2 1.4-3.1 2.2-.6.4-1.1.7-1.7 1.1-.6.4-1.2.8-1.8 1.1-1.9 1.2-3.9 2.3-6.1 3.4 3.1-.8 5-1.3 5.3-1.3h.3c5.2 0 9.7-2.1 14-4.6 2.3-1.4 4.4-2.3 7-2.3.8 0 1.6.1 2.5.3.8.2 1.6.2 2.5.2 7.9 0 19.3-5.6 21-6.8 1-.6 1.7-.9 2.3-.9 1.5 0 2 1.7 2.9 3.2 7.2 12.1 7.9 25.7 6.8 38.9z"/><path fill="#162636" d="M174.8 140.4c.4 1.6.8 3.2 1.1 4.7l1.1 4.7.6 2.3c.2.8.4 1.5.6 2.3.2.8.4 1.5.6 2.3.2.7.4 1.5.7 2.2.2.7.5 1.5.7 2.2.3.7.5 1.5.8 2.2.3.7.6 1.4.8 2.1l.4 1.1.5 1c.1.3.3.7.5 1 .2.3.3.7.5 1l.5 1 .6 1 .6.9.3.5.3.4c.4.6.9 1.2 1.4 1.8l2.1 2.5-2.9.5c-1 .2-2.1.4-3.1.5l-1.5.3-1.5.3c-.5.1-1 .2-1.5.4-.5.1-1 .3-1.5.5-1 .3-2 .7-3.1 1l2.4-2.1c.8-.7 1.8-1.3 2.8-1.8 1-.5 2-1 3-1.4l1.5-.6 1.5-.6-.8 3.1c-.6-.6-1.3-1.2-1.9-1.8l-.4-.5-.4-.5c-.3-.3-.6-.7-.8-1l-.8-1.1-.7-1.1c-.2-.4-.4-.7-.6-1.1-.2-.4-.4-.7-.6-1.1-.4-.8-.7-1.5-1.1-2.3l-.9-2.4c-.3-.8-.5-1.6-.8-2.4-.2-.8-.5-1.6-.6-2.4-.2-.8-.3-1.6-.5-2.4-.1-.8-.3-1.6-.4-2.5-.1-.8-.2-1.6-.2-2.5-.1-.8-.1-1.6-.1-2.5v-2.5c0-.8.1-1.6.1-2.5.1-.8.1-1.6.2-2.5.2-.6.3-1.4.5-2.2z"/></svg>