<?xml version="1.0" encoding="utf-8"?>
<!-- Generator: Adobe Illustrator 18.0.0, SVG Export Plug-In . SVG Version: 6.00 Build 0)  -->
<!DOCTYPE svg PUBLIC "-//W3C//DTD SVG 1.1//EN" "http://www.w3.org/Graphics/SVG/1.1/DTD/svg11.dtd">
<svg version="1.1" id="Layer_1" xmlns="http://www.w3.org/2000/svg" xmlns:xlink="http://www.w3.org/1999/xlink" x="0px" y="0px"
	 viewBox="0 0 300 300" enable-background="new 0 0 300 300" xml:space="preserve">
<g>
	<path opacity="0.25" fill="#162636" d="M225.4,80.6c-0.2-0.8-0.4-1.6-0.7-2.4c-8.7-20.1-19.7-30.8-25-35.9
		c-0.4-0.4-0.8-0.8-1.1-1.1c-1.3-1.3-5.3-4.5-15.1-7.4c-5.7-1.6-14.9-3.6-26.9-3.6h0c-7.8,0-15.7,0.8-23.6,2.5
		c-15.5,3.3-29.9,9.1-41.5,16.8c-11.4,7.6-19.9,16.8-24.8,26.7c-4.2,8.6-4.7,21.3-1.6,38c2.2,11.8,5.5,21.3,5.6,21.7l0.1,0.4
		c-0.6,0.4-1.1,0.9-1.6,1.4c-2,2.1-3.4,4.9-4.2,8.3c-1.1,4.8-1,9.9,0.5,14.7c2.6,8.5,4.4,17,6,25c1.1,5.6,3.6,10.2,7.4,13.5
		c2,1.7,4.8,2.8,7.4,2.8c0,0,0,0,0.1,0c-0.1,3.5,0.4,7.1,1.3,11.2c0.3,1.4,0.6,2.7,1,4.1c1.4,5.8,2.7,11.2,3.2,16.7
		c1.1,13.1,8.3,23.1,21.3,29.9c13.4,6.9,27.2,10.7,41,11.1c0.8,0,1.5,0,2.3,0c6.7,0,15.4-0.9,23.7-8.3l5.8-5.1
		c8.7-3.5,19.2-8.9,27-18.8c6.6-8.4,11.4-17.8,14.4-28.1c2.7-9.4,4-19.8,3.7-30.8c-0.1-2.8-0.2-5.6-0.2-8.5
		c-0.5-18.1-1.1-36.9,0.5-55.2C232.2,109,232.4,94.5,225.4,80.6z"/>
	<path fill="#FFFFFF" d="M230.3,114.6c-1.8,21.5-0.8,42.9-0.3,64.3c0.5,20-4.1,38.8-16.8,54.9c-6.7,8.5-16,13.6-26,17.5
		c-1.9,0.7-2.9,0.9-3.9,0.9c-0.7,0-1.5-0.1-2.5-0.1c-0.6,0-1.2,0-2,0.1c-3.5,0.4-8.3,1.3-8.3,1.3l6.9,2.1c0,0,1.7,0.8,3.8,1.2
		c-6.3,5.6-12.9,6.7-19.6,6.7c-0.7,0-1.4,0-2.1,0c-13.6-0.4-26.3-4.2-38.3-10.4c-10.2-5.3-16.9-13.1-17.9-24.9
		c-0.6-7.4-2.6-14.5-4.3-21.7c-1.2-5.3-1.7-10.7-0.3-16.2c0.5-1.8-0.7-5.9-0.7-5.9s-2.1,2.2-3.1,4c-0.8,1.5-2.1,2-3.4,2
		c-1.3,0-2.6-0.6-3.3-1.2c-3-2.7-4.6-6.2-5.4-10.1c-1.7-8.6-3.6-17.2-6.1-25.6c-1.1-3.7-1.3-7.6-0.4-11.5c1.1-4.8,3.6-7.3,6.8-7.3
		c1.9,0,4.1,1,6.3,3c1.5,1.4,4.4,5,4.4,5s1.7-5.9,0.8-7.3c-0.7-1.2-2.8-3.5-3.7-4.6c-1.8-2.1-6.6-24.7-7.4-28.7
		c-0.3-1.3,0.3-2.5,1.4-3.6c-0.3-0.4-0.6-0.8-0.9-1.2c-0.6-1-1.1-2.2-1.3-3.6c-0.2-1.4,0-2.9,0.5-4.3c0.2-0.7,0.5-1.4,0.9-2.1
		c0.4-0.7,0.7-1.4,1.2-2.1c0.1-0.2,0.2-0.3,0.3-0.5c0.1-0.2,0.2-0.3,0.3-0.5l0.3-0.4l0.2-0.2l0-0.1l0,0c0,0,0,0,0,0
		c0,0,0.1-0.1,0.1-0.1l0.1-0.1c0.3-0.3,0.6-0.7,0.9-1c0.3-0.3,0.7-0.6,1-0.9c1.4-1.2,3-2.2,4.7-2.9c1.7-0.7,3.5-1.3,5.3-1.7
		c1.8-0.4,3.7-0.7,5.6-0.9c1.9-0.2,3.8-0.3,5.7-0.4c1,0,1.9,0,2.9-0.1c0.9,0,1.9,0,2.9,0c3.8,0,7.6,0.2,11.4,0.2c1.1,0,2.1,0,3.2,0
		c2.7,0,5.3-0.1,7.9-0.2c0.9-0.1,1.8-0.1,2.7-0.2c0.9-0.1,1.7-0.2,2.6-0.3c0.4-0.1,0.8-0.1,1.2-0.2l0.6-0.1c0.2,0,0.4-0.1,0.6-0.1
		c0.4-0.1,0.9-0.2,1.3-0.3l0.2,0l0.1,0l0,0c0,0,0,0,0,0c0,0,0,0,0,0c0,0,0,0-0.1,0l0.3-0.1l0.6-0.2c0.8-0.2,1.7-0.5,2.5-0.7
		c0.8-0.2,1.6-0.5,2.4-0.7c1.6-0.4,3.2-1.1,4.7-1.5c1.5-0.6,3-1.1,4.4-1.6c0.7-0.3,1.4-0.5,2.1-0.8c0.7-0.3,1.3-0.6,2-0.8
		c1.3-0.5,2.5-1.1,3.7-1.6c1.2-0.5,2.3-1,3.4-1.5c2.1-1,3.9-1.9,5.4-2.6c1.5-0.8,2.7-1.4,3.5-1.8c0.8-0.4,1.2-0.7,1.2-0.7
		s-1.3,1.4-3.9,3.7c-1.3,1.1-2.9,2.4-4.8,3.8c-0.9,0.7-2,1.4-3.1,2.2c-0.6,0.4-1.1,0.7-1.7,1.1c-0.6,0.4-1.2,0.8-1.8,1.1
		c-2.5,1.6-5.3,3.1-8.3,4.6c-0.8,0.4-1.5,0.7-2.3,1.1c-0.4,0.2-0.8,0.4-1.2,0.5c-0.4,0.2-0.8,0.3-1.2,0.5c-0.8,0.3-1.7,0.7-2.5,1
		c-0.9,0.3-1.7,0.6-2.6,0.9l-0.7,0.2l-0.3,0.1l-0.4,0.1c-0.4,0.1-0.9,0.3-1.3,0.4c-0.9,0.2-2,0.5-2.9,0.7c-1.9,0.4-3.9,0.7-5.9,0.9
		c-3.4,0.4-6.7,0.5-10.1,0.5c-0.6,0-1.1,0-1.7,0c-3.9-0.1-7.7-0.2-11.5-0.4c-1.9-0.1-3.7-0.1-5.5-0.2c-0.7,0-1.5,0-2.2,0
		c-1,0-2.1,0-3.1,0c-1.7,0-3.4,0.2-4.9,0.4c-1.6,0.2-3.1,0.5-4.4,0.9c-1.4,0.4-2.6,1-3.7,1.7c-0.3,0.2-0.5,0.3-0.8,0.5
		c-0.2,0.2-0.5,0.4-0.7,0.6l-0.1,0.1c0,0,0,0,0,0c0,0,0,0,0,0c0,0,0,0,0,0l0,0l0,0l-0.2,0.2l-0.4,0.4c-0.1,0.1-0.3,0.3-0.4,0.4
		L88.6,88c-0.4,0.4-0.8,0.9-1.2,1.4c-0.2,0.2-0.4,0.5-0.5,0.7c-0.1,0.2-0.3,0.5-0.4,0.7c-0.5,1-0.8,2-0.9,2.9
		c-0.1,1.4,0.3,2.7,0.8,3.8c0.6,0.5,1.3,0.9,2.2,1.2c0.1-0.1,0.2-0.3,0.3-0.5c0.1-0.2,0.2-0.3,0.3-0.5c0.1-0.2,0.2-0.3,0.3-0.5
		l0.3-0.4l0.2-0.2l0-0.1l0,0c0,0,0,0,0,0c0,0,0.1-0.1,0.1-0.1l0.1-0.1c0.3-0.3,0.6-0.7,0.9-1c0.3-0.3,0.7-0.6,1-0.9
		c1.4-1.2,3-2.2,4.7-2.9c1.7-0.7,3.5-1.3,5.3-1.7c1.8-0.4,3.7-0.7,5.6-0.9c1.9-0.2,3.8-0.3,5.7-0.4c1,0,1.9,0,2.9-0.1
		c0.9,0,1.9,0,2.9,0c3.8,0,7.6,0.2,11.4,0.2c1.1,0,2.1,0,3.2,0c2.7,0,5.3-0.1,7.9-0.2c0.9-0.1,1.8-0.1,2.7-0.2
		c0.9-0.1,1.7-0.2,2.6-0.3c0.4-0.1,0.8-0.1,1.2-0.2l0.6-0.1c0.2,0,0.4-0.1,0.6-0.1c0.4-0.1,0.9-0.2,1.3-0.3l0.2,0l0.1,0l0,0
		c0,0,0,0,0,0c0,0,0,0,0,0c0,0,0,0-0.1,0l0.3-0.1l0.6-0.2c0.8-0.2,1.7-0.5,2.5-0.7c0.8-0.2,1.6-0.5,2.4-0.7c1.6-0.4,3.2-1.1,4.7-1.5
		c1.5-0.6,3-1.1,4.4-1.6c0.7-0.3,1.4-0.5,2.1-0.8c0.7-0.3,1.3-0.6,2-0.8c1.3-0.5,2.5-1.1,3.7-1.6c1.2-0.5,2.3-1,3.4-1.5
		c2.1-1,3.9-1.9,5.4-2.6c1.5-0.8,2.7-1.4,3.5-1.8c0.8-0.4,1.2-0.7,1.2-0.7s-1.3,1.4-3.9,3.7c-1.3,1.1-2.9,2.4-4.8,3.8
		c-0.9,0.7-2,1.4-3.1,2.2c-0.6,0.4-1.1,0.7-1.7,1.1c-0.6,0.4-1.2,0.8-1.8,1.1c-1.9,1.2-3.9,2.3-6.1,3.4c3.1-0.8,5-1.3,5.3-1.3
		c0,0,0,0,0,0c0.1,0,0.2,0,0.3,0c5.2,0,9.7-2.1,14-4.6c2.3-1.4,4.4-2.3,7-2.3c0.8,0,1.6,0.1,2.5,0.3c0.8,0.2,1.6,0.2,2.5,0.2
		c7.9,0,19.3-5.6,21-6.8c1-0.6,1.7-0.9,2.3-0.9c1.5,0,2,1.7,2.9,3.2C230.7,87.8,231.4,101.4,230.3,114.6z"/>
	<path fill="#162636" d="M127.1,128.4c0,0,0-0.2-0.1-0.6c0-0.4-0.1-0.9-0.2-1.6c-0.1-1.4-0.2-3.4,0-5.8c0.2-2.4,0.7-5.2,1.7-8.1
		c0.2-0.7,0.5-1.5,0.9-2.2c0.2-0.4,0.3-0.7,0.5-1.1c0.2-0.4,0.4-0.7,0.6-1.1c0.9-1.5,1.9-3,3.4-4.2c1.5-1.3,3.4-2.3,5.5-2.7
		c0.5-0.1,1-0.1,1.6-0.1l0.4,0l0,0l0.1,0l0,0l0.1,0l0.1,0l0.6,0.1l0.3,0l0.4,0.1l0.7,0.1c0.5,0.1,0.9,0.2,1.3,0.3
		c1.7,0.5,3.3,1.4,4.5,2.6c0.6,0.6,1.1,1.2,1.5,1.9c0.4,0.7,0.7,1.3,1,1.9c0.5,1.3,0.7,2.5,0.7,3.5c0.1,1,0,1.9-0.1,2.6
		c-0.1,0.7-0.2,1.3-0.3,1.6c-0.1,0.4-0.2,0.6-0.2,0.6s-0.1-0.2-0.2-0.5c-0.1-0.4-0.3-0.9-0.5-1.5c-0.2-0.6-0.6-1.4-1-2.1
		c-0.4-0.8-0.9-1.6-1.6-2.3c-0.6-0.7-1.4-1.4-2.2-1.9c-0.8-0.5-1.8-0.8-2.9-0.9c-0.3,0-0.5,0-0.8-0.1l-0.4,0l-0.2,0
		c-0.1,0-0.2,0-0.3,0l-0.6,0l-0.1,0l-0.1,0l0,0c-0.1,0,0.1,0,0.1,0l0,0l-0.2,0c-0.2,0-0.5,0-0.7,0.1c-0.9,0.2-1.7,0.7-2.6,1.4
		c-0.8,0.7-1.7,1.7-2.4,2.8c-0.2,0.3-0.4,0.5-0.5,0.8c-0.2,0.3-0.4,0.6-0.5,0.8c-0.3,0.6-0.7,1.2-1,1.7c-1.3,2.4-2.3,4.7-3.3,6.8
		c-0.9,2.1-1.7,3.9-2.3,5.1c-0.3,0.6-0.5,1.1-0.7,1.5C127.1,128.2,127.1,128.4,127.1,128.4z"/>
	<path fill="#162636" d="M187.8,119.3c0,0,0-0.2-0.1-0.5c0-0.3-0.1-0.8-0.2-1.4c-0.1-1.2-0.2-2.9,0-5c0.1-2,0.5-4.4,1.2-6.9
		c0.3-1.3,0.8-2.6,1.3-3.9c0.6-1.3,1.3-2.6,2.2-3.9c0.5-0.6,1-1.3,1.7-1.9c0.7-0.6,1.4-1.2,2.4-1.6c0.5-0.2,1-0.4,1.6-0.5
		c0.3-0.1,0.6-0.1,0.9-0.1l0.4,0l0.1,0l0,0c0.2,0,0.1,0,0.1,0l0,0l0.1,0l0.5,0.1c0.2,0,0.5,0.1,0.7,0.1l0.4,0.1
		c0.1,0,0.2,0.1,0.3,0.1c0.2,0.1,0.4,0.1,0.6,0.2c0.8,0.3,1.5,0.6,2.2,1c0.6,0.4,1.2,0.9,1.7,1.4c1,1,1.7,2,2.2,3c1,2,1.4,3.7,1.5,5
		c0.1,0.6,0.1,1.1,0.1,1.4c0,0.3,0,0.5,0,0.5s-0.1-0.1-0.3-0.4c-0.2-0.3-0.5-0.6-0.9-1.1c-0.8-0.9-1.9-2.1-3.2-3.3
		c-0.7-0.6-1.4-1.1-2.2-1.5c-0.8-0.4-1.6-0.7-2.4-0.8l-0.3,0l-0.1,0l-0.1,0l-0.2,0l-0.5,0c-0.2,0.1-0.2,0.1-0.5,0.2
		c-0.2,0.1-0.5,0.4-0.8,0.6c-0.3,0.3-0.6,0.7-0.9,1.1c-0.6,0.8-1.2,1.8-1.8,2.9c-0.6,1-1.1,2.1-1.6,3.2c-1,2.2-2,4.2-2.9,5.9
		c-0.9,1.8-1.6,3.3-2.2,4.3c-0.3,0.5-0.5,0.9-0.7,1.2C187.9,119.1,187.8,119.3,187.8,119.3z"/>
	<path fill="#162636" d="M164.8,224.1c0,0,0.1,0,0.4,0c0.2,0,0.6-0.1,1-0.1c0.8-0.1,2-0.1,3.3-0.2c0.6,0,1.3-0.1,2.1-0.1
		c0.7-0.1,1.5-0.1,2.2-0.2c0.8-0.1,1.5-0.2,2.3-0.2c0.8-0.1,1.5-0.2,2.2-0.3c0.7-0.1,1.5-0.3,2.2-0.5c0.4-0.1,0.7-0.2,1.1-0.3
		c0.3-0.1,0.7-0.2,1-0.3c0.7-0.2,1.3-0.5,2-0.7c0.3-0.1,0.6-0.3,0.9-0.4c0.3-0.1,0.6-0.3,0.9-0.4c0.3-0.1,0.6-0.3,0.8-0.4
		c0.3-0.1,0.5-0.2,0.8-0.4c0.5-0.3,1-0.4,1.3-0.6c0.4-0.2,0.7-0.3,0.9-0.4c0.2-0.1,0.3-0.1,0.3-0.1s0,0.1-0.1,0.4
		c0,0.2-0.1,0.6-0.2,1c-0.1,0.4-0.3,0.9-0.5,1.5c-0.2,0.6-0.6,1.2-1,1.8c-0.2,0.3-0.5,0.6-0.7,1c-0.3,0.3-0.6,0.6-0.9,1
		c-0.6,0.6-1.3,1.2-2.2,1.8c-0.4,0.3-0.8,0.5-1.3,0.8c-0.4,0.2-0.9,0.4-1.4,0.6c-1,0.4-2,0.7-3,0.8c-1,0.2-2,0.2-3,0.3
		c-1,0-2-0.1-2.9-0.3c-1.8-0.3-3.5-1-4.8-1.7c-0.6-0.4-1.2-0.7-1.7-1.1c-0.5-0.4-0.9-0.7-1.2-1c-0.3-0.3-0.5-0.6-0.7-0.7
		C164.9,224.2,164.8,224.1,164.8,224.1z"/>
	<g>
		<g>
			<path fill="#162636" d="M170.7,217c-18.1,0-29.1-13.2-29.7-13.9l4.8-3.9c0.5,0.6,12.3,14.7,31.2,10.9c19.1-3.8,25.8-18.3,26-18.9
				l5.7,2.5c-0.3,0.7-8.2,18.1-30.5,22.5C175.6,216.7,173.1,217,170.7,217z"/>
		</g>
		<path fill="#162636" d="M199.6,186.5c0,0,0.2,0.2,0.7,0.6c0.4,0.3,1,0.8,1.6,1.3c0.3,0.3,0.7,0.5,1,0.8c0.4,0.3,0.7,0.6,1.1,0.8
			c0.2,0.1,0.4,0.3,0.6,0.4c0.2,0.2,0.4,0.3,0.6,0.4c0.2,0.1,0.4,0.3,0.6,0.4c0.2,0.1,0.4,0.3,0.6,0.4c0.1,0.1,0.2,0.1,0.3,0.2
			l0.3,0.2c0.2,0.1,0.4,0.2,0.6,0.4c0.4,0.2,0.9,0.5,1.3,0.7c0.4,0.2,0.9,0.4,1.3,0.6c0.1,0.1,0.2,0.1,0.3,0.2
			c0.1,0,0.2,0.1,0.3,0.1c0.2,0.1,0.4,0.2,0.6,0.3c0.4,0.2,0.7,0.4,1.1,0.5c0.3,0.2,0.6,0.3,0.9,0.4c0.5,0.3,0.8,0.5,0.8,0.5
			s-0.3,0.2-0.8,0.4c-0.3,0.1-0.6,0.2-1,0.3c-0.4,0.1-0.8,0.2-1.3,0.2c-0.5,0-1,0.1-1.5,0.1c-0.5,0-1.1-0.1-1.7-0.2
			c-0.3-0.1-0.6-0.2-0.9-0.2c-0.3-0.1-0.6-0.2-0.9-0.3c-0.3-0.1-0.6-0.3-0.9-0.4l-0.4-0.2c-0.1-0.1-0.3-0.2-0.4-0.3
			c-0.3-0.2-0.5-0.4-0.8-0.6c-0.3-0.2-0.5-0.4-0.7-0.6c-0.5-0.4-0.9-0.9-1.3-1.4c-0.2-0.2-0.4-0.5-0.5-0.7c-0.1-0.3-0.3-0.5-0.4-0.7
			c-0.2-0.5-0.5-1-0.6-1.4c-0.2-0.5-0.2-0.9-0.3-1.3c-0.1-0.4-0.1-0.7-0.1-1C199.6,186.8,199.6,186.5,199.6,186.5z"/>
		<path fill="#162636" d="M146.9,194.8c0,0,0.2,0.3,0.3,0.8c0.1,0.3,0.2,0.6,0.2,1c0.1,0.4,0.1,0.8,0.1,1.3c0,0.5,0,1-0.1,1.5
			c0,0.3-0.1,0.5-0.2,0.8c-0.1,0.3-0.2,0.5-0.3,0.8c-0.2,0.6-0.4,1.1-0.7,1.7c-0.3,0.5-0.6,1.1-1,1.6c-0.4,0.5-0.8,1-1.2,1.4
			c-0.4,0.4-0.9,0.8-1.3,1.2c-0.5,0.3-0.9,0.6-1.4,0.9c-0.5,0.3-0.9,0.4-1.3,0.6c-0.4,0.2-0.8,0.3-1.2,0.4c-0.4,0.1-0.7,0.2-1,0.2
			c-0.5,0.1-0.9,0.1-0.9,0.1s0.1-0.3,0.4-0.8c0.1-0.2,0.3-0.5,0.5-0.8c0.2-0.3,0.4-0.6,0.6-1c0.2-0.4,0.5-0.7,0.8-1.1
			c0.3-0.4,0.5-0.8,0.8-1.2c0.3-0.4,0.6-0.8,0.9-1.2c0.3-0.4,0.6-0.8,0.9-1.2c0.3-0.4,0.6-0.8,0.9-1.2c0.3-0.4,0.6-0.8,0.9-1.2
			c0.1-0.2,0.3-0.4,0.4-0.6c0.1-0.2,0.3-0.4,0.4-0.6c0.1-0.2,0.3-0.4,0.4-0.5c0.1-0.2,0.2-0.4,0.4-0.5c0.5-0.7,0.9-1.3,1.2-1.7
			c0.1-0.2,0.3-0.4,0.3-0.5C146.9,194.8,146.9,194.8,146.9,194.8z"/>
	</g>
	<g>
		<path fill="#162636" d="M83.6,131.8l-3.8-6.9c6.2-8.6,16.1-11.2,21.2-13.1l-1,7.8C93.8,121.9,88.4,125.1,83.6,131.8z"/>
	</g>
	<g>
		<path fill="#162636" d="M83.3,120.3l0.1-9.3c0.3-0.4,5.6-5,18.9-8.7l-1.1,7.3C89.6,112.9,83.4,120.2,83.3,120.3z"/>
	</g>
	<path fill="#162636" d="M132.7,147.5c0,0,1.9,0.1,4.8,0.2c0.6,0,1.3,0.1,1.9,0.1c0.6,0,1.3,0,1.9,0c0.6,0,1.3,0,1.9-0.1
		c0.6,0,1.2-0.1,1.8-0.2l0.4,0c0.1,0,0.3,0,0.4-0.1c0.3,0,0.6-0.1,0.9-0.1c0.2,0,0.3-0.1,0.4-0.1c0.2,0,0.3,0,0.5-0.1
		c0.3-0.1,0.6-0.1,0.9-0.2c0.3-0.1,0.6-0.1,0.9-0.2c0.3-0.1,0.6-0.2,1-0.2c0.3-0.1,0.6-0.2,1-0.2c0.3-0.1,0.6-0.1,0.9-0.2
		c0.6-0.2,1.2-0.3,1.8-0.4c0.6-0.1,1.1-0.3,1.5-0.4c0.4-0.1,0.8-0.2,1-0.2c0.3,0,0.4-0.1,0.4-0.1s0,0.1,0,0.4c0,0.2,0,0.6-0.1,1.1
		c-0.1,0.5-0.2,1-0.4,1.6c-0.1,0.3-0.2,0.6-0.4,0.9c-0.1,0.3-0.3,0.6-0.5,1c-0.2,0.3-0.4,0.7-0.7,1c-0.3,0.3-0.5,0.7-0.8,1
		c-0.3,0.3-0.6,0.7-1,1c-0.4,0.3-0.8,0.6-1.2,0.9c-0.4,0.3-0.9,0.6-1.3,0.8c-0.5,0.2-1,0.5-1.5,0.7c-1,0.4-2.2,0.7-3.3,0.8
		c-1.1,0.1-2.3,0.1-3.4-0.1c-1.1-0.2-2.1-0.5-3.1-0.9c-0.9-0.4-1.8-0.9-2.5-1.5c-0.7-0.5-1.4-1.1-1.9-1.7c-1-1.2-1.6-2.4-2-3.2
		c-0.2-0.4-0.2-0.8-0.3-1.1C132.7,147.7,132.7,147.5,132.7,147.5z"/>
	<path fill="#162636" d="M187.3,144.7c0,0,0.6-0.1,1.5-0.1c0.9-0.1,2.2-0.1,3.5-0.2c1.4-0.1,2.8-0.1,4.2-0.3c0.7-0.1,1.4-0.2,2-0.3
		c0.7-0.1,1.3-0.2,1.9-0.4c0.6-0.2,1.2-0.3,1.8-0.5c0.6-0.2,1.2-0.4,1.8-0.6c0.6-0.2,1.2-0.5,1.8-0.8c0.3-0.1,0.6-0.3,0.9-0.5
		c0.3-0.2,0.6-0.3,0.9-0.5c0.6-0.3,1.2-0.6,1.7-0.9c0.5-0.3,1-0.6,1.4-0.8c0.8-0.5,1.4-0.7,1.4-0.7s0.1,0.6,0.2,1.6
		c0,0.5,0,1.1-0.1,1.7c0,0.3-0.1,0.7-0.2,1.1c-0.1,0.4-0.2,0.7-0.3,1.1c-0.1,0.4-0.3,0.8-0.5,1.2c-0.2,0.4-0.4,0.8-0.6,1.3
		c-0.5,0.8-1.1,1.7-1.9,2.5c-0.4,0.4-0.8,0.8-1.3,1.1c-0.2,0.2-0.5,0.3-0.7,0.5c-0.2,0.2-0.5,0.3-0.8,0.5c-1.1,0.6-2.2,1-3.4,1.3
		c-1.2,0.2-2.4,0.4-3.6,0.3c-1.2,0-2.3-0.2-3.3-0.6c-2.1-0.6-3.7-1.6-5-2.7c-0.6-0.5-1.1-1.1-1.6-1.6c-0.4-0.5-0.7-1-1-1.4
		C187.4,145.3,187.3,144.7,187.3,144.7z"/>
	<path fill="#162636" d="M82.4,93.7c0.3,2.7,6,9.5,6,9.5s0.6,25.4,2.5,27.7s-4.3-0.5-4.3-0.5l-8.8-32.3L82.4,93.7z"/>
	<path fill="#162636" d="M230.6,75.4c-0.2-0.8-0.4-1.6-0.7-2.4c-8.7-20.1-19.7-30.8-25-35.9c-0.4-0.4-0.8-0.8-1.1-1.1
		c-1.3-1.3-5.3-4.5-15.1-7.4C183,27,173.7,25,161.8,25h0c-7.8,0-15.7,0.8-23.6,2.5c-15.5,3.3-29.9,9.1-41.5,16.8
		C85.3,51.9,76.7,61.1,71.8,71c-4.2,8.6-4.7,21.3-1.6,38c2.2,11.8,5.5,21.3,5.6,21.7L76,131c-0.6,0.4-1.1,0.9-1.6,1.4
		c-2,2.1-3.4,4.9-4.2,8.3c-1.1,4.8-1,9.9,0.5,14.7c2.6,8.5,4.4,17,6,25c1.1,5.6,3.6,10.2,7.4,13.5c2,1.7,4.8,2.8,7.4,2.8
		c0,0,0,0,0.1,0c-0.1,3.5,0.4,7.1,1.3,11.2c0.3,1.4,0.6,2.7,1,4.1c1.4,5.8,2.7,11.2,3.2,16.7c1.1,13.1,8.3,23.1,21.3,29.9
		c13.4,6.9,27.2,10.7,41,11.1c0.8,0,1.5,0,2.3,0c6.7,0,15.4-0.9,23.7-8.3l5.8-5.1c8.7-3.5,19.2-8.9,27-18.8
		c6.6-8.4,11.4-17.8,14.4-28.1c2.7-9.4,4-19.8,3.7-30.8c-0.1-2.8-0.2-5.6-0.2-8.5c-0.5-18.1-1.1-36.9,0.5-55.2
		C237.4,103.8,237.6,89.3,230.6,75.4z M230.3,114.6c-1.8,21.5-0.8,42.9-0.3,64.3c0.5,20-4.1,38.8-16.8,54.9
		c-6.7,8.5-16,13.6-26,17.5c-1.9,0.7-2.9,0.9-3.9,0.9c-0.7,0-1.5-0.1-2.5-0.1c-0.6,0-1.2,0-2,0.1c-3.5,0.4-8.3,1.3-8.3,1.3l6.9,2.1
		c0,0,1.7,0.8,3.8,1.2c-6.3,5.6-12.9,6.7-19.6,6.7c-0.7,0-1.4,0-2.1,0c-13.6-0.4-26.3-4.2-38.3-10.4c-10.2-5.3-16.9-13.1-17.9-24.9
		c-0.6-7.4-2.6-14.5-4.3-21.7c-1.2-5.3-1.7-10.7-0.3-16.2c0.5-1.8-0.7-5.9-0.7-5.9s-2.1,2.2-3.1,4c-0.8,1.5-2.1,2-3.4,2
		c-1.3,0-2.6-0.6-3.3-1.2c-3-2.7-4.6-6.2-5.4-10.1c-1.7-8.6-3.6-17.2-6.1-25.6c-1.1-3.7-1.3-7.6-0.4-11.5c1.1-4.8,3.6-7.3,6.8-7.3
		c1.9,0,4.1,1,6.3,3c1.5,1.4,4.4,5,4.4,5s1.7-5.9,0.8-7.3c-0.7-1.2-2.8-3.5-3.7-4.6c-1.8-2.1-6.6-24.7-7.4-28.7
		c-0.3-1.3,0.3-2.5,1.4-3.6c-0.3-0.4-0.6-0.8-0.9-1.2c-0.6-1-1.1-2.2-1.3-3.6c-0.2-1.4,0-2.9,0.5-4.3c0.2-0.7,0.5-1.4,0.9-2.1
		c0.4-0.7,0.7-1.4,1.2-2.1c0.1-0.2,0.2-0.3,0.3-0.5c0.1-0.2,0.2-0.3,0.3-0.5l0.3-0.4l0.2-0.2l0-0.1l0,0c0,0,0,0,0,0
		c0,0,0.1-0.1,0.1-0.1l0.1-0.1c0.3-0.3,0.6-0.7,0.9-1c0.3-0.3,0.7-0.6,1-0.9c1.4-1.2,3-2.2,4.7-2.9c1.7-0.7,3.5-1.3,5.3-1.7
		c1.8-0.4,3.7-0.7,5.6-0.9c1.9-0.2,3.8-0.3,5.7-0.4c1,0,1.9,0,2.9-0.1c0.9,0,1.9,0,2.9,0c3.8,0,7.6,0.2,11.4,0.2c1.1,0,2.1,0,3.2,0
		c2.7,0,5.3-0.1,7.9-0.2c0.9-0.1,1.8-0.1,2.7-0.2c0.9-0.1,1.7-0.2,2.6-0.3c0.4-0.1,0.8-0.1,1.2-0.2l0.6-0.1c0.2,0,0.4-0.1,0.6-0.1
		c0.4-0.1,0.9-0.2,1.3-0.3l0.2,0l0.1,0l0,0c0,0,0,0,0,0c0,0,0,0,0,0c0,0,0,0-0.1,0l0.3-0.1l0.6-0.2c0.8-0.2,1.7-0.5,2.5-0.7
		c0.8-0.2,1.6-0.5,2.4-0.7c1.6-0.4,3.2-1.1,4.7-1.5c1.5-0.6,3-1.1,4.4-1.6c0.7-0.3,1.4-0.5,2.1-0.8c0.7-0.3,1.3-0.6,2-0.8
		c1.3-0.5,2.5-1.1,3.7-1.6c1.2-0.5,2.3-1,3.4-1.5c2.1-1,3.9-1.9,5.4-2.6c1.5-0.8,2.7-1.4,3.5-1.8c0.8-0.4,1.2-0.7,1.2-0.7
		s-1.3,1.4-3.9,3.7c-1.3,1.1-2.9,2.4-4.8,3.8c-0.9,0.7-2,1.4-3.1,2.2c-0.6,0.4-1.1,0.7-1.7,1.1c-0.6,0.4-1.2,0.8-1.8,1.1
		c-2.5,1.6-5.3,3.1-8.3,4.6c-0.8,0.4-1.5,0.7-2.3,1.1c-0.4,0.2-0.8,0.4-1.2,0.5c-0.4,0.2-0.8,0.3-1.2,0.5c-0.8,0.3-1.7,0.7-2.5,1
		c-0.9,0.3-1.7,0.6-2.6,0.9l-0.7,0.2l-0.3,0.1l-0.4,0.1c-0.4,0.1-0.9,0.3-1.3,0.4c-0.9,0.2-2,0.5-2.9,0.7c-1.9,0.4-3.9,0.7-5.9,0.9
		c-3.4,0.4-6.7,0.5-10.1,0.5c-0.6,0-1.1,0-1.7,0c-3.9-0.1-7.7-0.2-11.5-0.4c-1.9-0.1-3.7-0.1-5.5-0.2c-0.7,0-1.5,0-2.2,0
		c-1,0-2.1,0-3.1,0c-1.7,0-3.4,0.2-4.9,0.4c-1.6,0.2-3.1,0.5-4.4,0.9c-1.4,0.4-2.6,1-3.7,1.7c-0.3,0.2-0.5,0.3-0.8,0.5
		c-0.2,0.2-0.5,0.4-0.7,0.6l-0.1,0.1c0,0,0,0,0,0c0,0,0,0,0,0c0,0,0,0,0,0l0,0l0,0l-0.2,0.2l-0.4,0.4c-0.1,0.1-0.3,0.3-0.4,0.4
		L88.6,88c-0.4,0.4-0.8,0.9-1.2,1.4c-0.2,0.2-0.4,0.5-0.5,0.7c-0.1,0.2-0.3,0.5-0.4,0.7c-0.5,1-0.8,2-0.9,2.9
		c-0.1,1.4,0.3,2.7,0.8,3.8c0.6,0.5,1.3,0.9,2.2,1.2c0.1-0.1,0.2-0.3,0.3-0.5c0.1-0.2,0.2-0.3,0.3-0.5c0.1-0.2,0.2-0.3,0.3-0.5
		l0.3-0.4l0.2-0.2l0-0.1l0,0c0,0,0,0,0,0c0,0,0.1-0.1,0.1-0.1l0.1-0.1c0.3-0.3,0.6-0.7,0.9-1c0.3-0.3,0.7-0.6,1-0.9
		c1.4-1.2,3-2.2,4.7-2.9c1.7-0.7,3.5-1.3,5.3-1.7c1.8-0.4,3.7-0.7,5.6-0.9c1.9-0.2,3.8-0.3,5.7-0.4c1,0,1.9,0,2.9-0.1
		c0.9,0,1.9,0,2.9,0c3.8,0,7.6,0.2,11.4,0.2c1.1,0,2.1,0,3.2,0c2.7,0,5.3-0.1,7.9-0.2c0.9-0.1,1.8-0.1,2.7-0.2
		c0.9-0.1,1.7-0.2,2.6-0.3c0.4-0.1,0.8-0.1,1.2-0.2l0.6-0.1c0.2,0,0.4-0.1,0.6-0.1c0.4-0.1,0.9-0.2,1.3-0.3l0.2,0l0.1,0l0,0
		c0,0,0,0,0,0c0,0,0,0,0,0c0,0,0,0-0.1,0l0.3-0.1l0.6-0.2c0.8-0.2,1.7-0.5,2.5-0.7c0.8-0.2,1.6-0.5,2.4-0.7c1.6-0.4,3.2-1.1,4.7-1.5
		c1.5-0.6,3-1.1,4.4-1.6c0.7-0.3,1.4-0.5,2.1-0.8c0.7-0.3,1.3-0.6,2-0.8c1.3-0.5,2.5-1.1,3.7-1.6c1.2-0.5,2.3-1,3.4-1.5
		c2.1-1,3.9-1.9,5.4-2.6c1.5-0.8,2.7-1.4,3.5-1.8c0.8-0.4,1.2-0.7,1.2-0.7s-1.3,1.4-3.9,3.7c-1.3,1.1-2.9,2.4-4.8,3.8
		c-0.9,0.7-2,1.4-3.1,2.2c-0.6,0.4-1.1,0.7-1.7,1.1c-0.6,0.4-1.2,0.8-1.8,1.1c-1.9,1.2-3.9,2.3-6.1,3.4c3.1-0.8,5-1.3,5.3-1.3
		c0,0,0,0,0,0c0.1,0,0.2,0,0.3,0c5.2,0,9.7-2.1,14-4.6c2.3-1.4,4.4-2.3,7-2.3c0.8,0,1.6,0.1,2.5,0.3c0.8,0.2,1.6,0.2,2.5,0.2
		c7.9,0,19.3-5.6,21-6.8c1-0.6,1.7-0.9,2.3-0.9c1.5,0,2,1.7,2.9,3.2C230.7,87.8,231.4,101.4,230.3,114.6z"/>
	<path fill="#162636" d="M174.8,140.4c0.4,1.6,0.8,3.2,1.1,4.7l1.1,4.7l0.6,2.3c0.2,0.8,0.4,1.5,0.6,2.3c0.2,0.8,0.4,1.5,0.6,2.3
		c0.2,0.7,0.4,1.5,0.7,2.2c0.2,0.7,0.5,1.5,0.7,2.2c0.3,0.7,0.5,1.5,0.8,2.2c0.3,0.7,0.6,1.4,0.8,2.1l0.4,1.1l0.5,1
		c0.1,0.3,0.3,0.7,0.5,1c0.2,0.3,0.3,0.7,0.5,1l0.5,1l0.6,1c0.2,0.3,0.4,0.6,0.6,0.9l0.3,0.5l0.3,0.4c0.4,0.6,0.9,1.2,1.4,1.8
		l2.1,2.5l-2.9,0.5c-1,0.2-2.1,0.4-3.1,0.5l-1.5,0.3c-0.5,0.1-1,0.2-1.5,0.3c-0.5,0.1-1,0.2-1.5,0.4c-0.5,0.1-1,0.3-1.5,0.5
		c-1,0.3-2,0.7-3.1,1c0.8-0.7,1.6-1.4,2.4-2.1c0.8-0.7,1.8-1.3,2.8-1.8c1-0.5,2-1,3-1.4c0.5-0.2,1-0.4,1.5-0.6
		c0.5-0.2,1-0.4,1.5-0.6l-0.8,3.1c-0.6-0.6-1.3-1.2-1.9-1.8l-0.4-0.5l-0.4-0.5c-0.3-0.3-0.6-0.7-0.8-1l-0.8-1.1l-0.7-1.1
		c-0.2-0.4-0.4-0.7-0.6-1.1c-0.2-0.4-0.4-0.7-0.6-1.1c-0.4-0.8-0.7-1.5-1.1-2.3c-0.3-0.8-0.6-1.6-0.9-2.4c-0.3-0.8-0.5-1.6-0.8-2.4
		c-0.2-0.8-0.5-1.6-0.6-2.4c-0.2-0.8-0.3-1.6-0.5-2.4c-0.1-0.8-0.3-1.6-0.4-2.5c-0.1-0.8-0.2-1.6-0.2-2.5c-0.1-0.8-0.1-1.6-0.1-2.5
		c0-0.8,0-1.6,0-2.5c0-0.8,0.1-1.6,0.1-2.5c0.1-0.8,0.1-1.6,0.2-2.5C174.5,142,174.6,141.2,174.8,140.4z"/>
</g>
</svg>
