<svg xmlns="http://www.w3.org/2000/svg" viewBox="0 0 300 230"><path opacity=".25" fill="#162636" d="M197.7 52.6c-.3-.6-.5-1.2-.8-1.7-9.2-14-19-20.6-23.7-23.8-.4-.2-.7-.5-1-.7-1.2-.8-4.6-2.7-12.4-3.6-4.5-.4-11.7-.7-20.8.9-5.9 1-11.7 2.7-17.5 5-11.3 4.6-21.4 10.9-29.1 18.2-7.6 7.3-12.8 15.3-15.2 23.5-2 7.1-.7 16.7 3.9 28.9 3.2 8.6 7 15.3 7.1 15.6l.1.3c-.4.4-.7.8-1 1.3-1.2 1.9-1.9 4.2-2.1 6.8-.2 3.8.6 7.6 2.3 11 3.1 6.1 5.6 12.2 7.9 18.1 1.6 4.1 4.1 7.2 7.4 9.2 1.7 1 4 1.5 6 1.1h.1c.4 2.7 1.2 5.3 2.5 8.3.4 1 .8 2 1.3 3 1.8 4.2 3.5 8.1 4.6 12.2 2.6 9.7 9.3 16.3 20.1 19.7 11 3.4 22 4.5 32.4 2.9.6-.1 1.1-.2 1.7-.3 5.1-.9 11.5-2.7 16.8-9.4l3.7-4.6c6.1-3.8 13.3-9.3 17.9-17.8 3.9-7.2 6.2-15 7.1-23.1.8-7.5.4-15.5-1.3-23.7-.4-2.1-.9-4.2-1.3-6.4-2.8-13.6-5.7-27.7-7-41.7-.8-8.7-2.6-19.7-9.7-29.2z"/><path fill="#FFF" d="M216.2 125.8c-.5-2.6-1-5.2-1.6-7.7-2.7-13.2-5.5-26.9-6.7-40.6-1.1-12.9-4.5-22.3-10.4-29.6-.2-.2-.3-.4-.5-.6-.7-.9-1.7-2.1-3.4-2.1-.2 0-.4 0-.6.1h-.2c-.7.2-1.5.6-2.4 1.4-1.1 1-8.6 6.4-14 7.4h-.2c-.5.1-1 .1-1.3.1-.8 0-1.5 0-2.2.1-2.6.5-4.4 1.8-5.9 3.1-.8.6-1.6 1.3-2.4 1.8 1.1-1.2 2.1-2.3 2.9-3.3 1.7-2.1 2.6-3.4 2.6-3.4l-.8-.6 5.5-8.2-7 6.9-.8-.6-.6.6c-.2.2-.4.3-.7.5-.5.3-1 .7-1.6 1.2-.4.3-.8.6-1.3 1-.7.5-1.4 1.1-2.3 1.7-.4.3-.8.6-1.2.8-.4.2-.7.5-1.1.7-.7.4-1.3.8-2 1.3-.2.2-.5.3-.7.5-.3.2-.5.3-.7.5-.2.1-.4.3-.6.4l-1 .6-.5.3c-.4.2-.8.5-1.2.7-.6.3-1.2.7-1.9 1.1-.4.2-.9.5-1.3.7-.6.3-1.2.7-1.7.9-.6.2-1 .4-1.5.7-.1.1-.3.1-.4.2l-1.8.9-.2.1h-.5l-.4.2c-.1.1-.5.2-.6.3l-.4.1-.1.1-.1.1-.3.1-.2.1-.6.2-1.8.6c-.3.1-.6.2-.9.2-.3.1-.7.2-1 .3l-5.7 1.2c-.4.1-.8.1-1.2.2-.4.1-.7.1-1.1.2h-.2c-1.5.3-3 .5-4.5.7-1.3.2-2.7.4-4 .6-.5.1-.9.2-1.3.2-.3.1-.6.1-.8.2h-.2c-.2.1-.4.1-.6.2-.5.1-.9.2-1.3.3h-.2c-.6.2-1.2.3-1.8.5-.8.2-1.7.4-2.5.6-1.4.4-2.9.8-4.4 1.5-1.3.6-2.7 1.2-4 2.1-1.3.8-2.6 1.9-3.7 3.2l-.1.1-.1.1c-.1.1-.1.2-.2.3-.1.2-.3.3-.4.5l-.1.2-.4.4s-.1.2-.2.3l-.1.1-.3.3c-.1-.2-.1-.4-.1-.5 0-.5.1-1.1.2-1.7v-.2l.2-.4.1-.2c.1-.1.2-.3.3-.4.1-.2.3-.4.4-.6l.1-.2.3-.5v-.1l.1-.3c.1-.2.3-.3.4-.5l.3-.3c.8-.7 1.4-1.1 2.1-1.5.8-.4 1.8-.8 2.9-1.2 1-.4 2.1-.7 3.2-.9.3 0 .7-.1 1.1-.2.4-.1.8-.2 1.2-.2.6-.1 1.2-.2 1.7-.3l4.1-.6c1.8-.2 3.7-.5 5.4-.7 1.1-.2 2.2-.3 3.3-.5h.2c.2 0 .4-.1.5-.1.2 0 .5-.1.7-.1 3.1-.5 5.6-1 7.9-1.8.5-.2 1-.3 1.5-.5 1-.3 1.9-.6 2.9-1l2.1-.9.2-.1.2-.1c.1-.1.4-.2.4-.3l.3-.1h.1l.1-.1.1-.1.4-.2h.2c.4-.2.7-.4 1-.6.3-.2.5-.3.8-.4.4-.2.8-.5 1.1-.7.3-.2.5-.3.7-.4l.3-.1.1-.1h.1c.1-.1.3-.1.4-.2l.9-.6c.3-.2.6-.4.8-.6.2-.2.5-.3.8-.5h.2c2.5-1.9 4.2-3.3 5.8-4.6.5-.4.9-.8 1.3-1.2l1.1-1.1v-.1c.7-.7 1.3-1.4 1.9-2 1.3-1.4 2.4-2.6 3.2-3.6 1.7-2.1 2.6-3.4 2.6-3.4l-3-2.5-.6.6c-.2.2-.4.3-.7.5-.5.3-1 .7-1.6 1.2-.4.3-.8.6-1.3 1-.7.5-1.4 1.1-2.3 1.7-.4.3-.8.6-1.2.8-.4.2-.7.5-1.1.7-.7.4-1.3.8-2 1.3-.2.2-.5.3-.7.5-.3.2-.5.3-.7.5-.2.1-.4.3-.6.4l-1.5.9c-.4.2-.8.5-1.2.7-.6.3-1.2.7-1.9 1.1-.4.2-.9.5-1.3.7-.6.3-1.2.7-1.7.9-.6.2-1 .4-1.5.7-.1.1-.3.1-.4.2l-1.2.6-.6.3-.2.1h-.2l-.4.2c-.1.1-.5.2-.6.3l-.4.1-.1.1-.1.1-.3.1-.8.3-1.8.6c-.3.1-.6.2-.9.2-.3.1-.7.2-1 .3l-5.7 1.2c-.4.1-.8.1-1.2.2-.4.1-.7.1-1.1.2h-.2c-1.5.3-3 .5-4.5.7-1.3.2-2.7.4-4 .6-.5.1-.9.2-1.3.2-.3.1-.6.1-.8.2h-.2c-.2.1-.4.1-.6.2-.5.1-.9.2-1.3.3h-.2c-.6.2-1.2.3-1.8.5-.8.2-1.7.4-2.5.6-1.3.4-2.7.8-4.3 1.5h-.2c-1.2.6-2.6 1.3-4 2.1-1.3.8-2.6 1.9-3.7 3.3l.1-.7-.1.1-.1.1c-.2.2-.6.6-.8 1.2 0 0-.1.2-.2.3l-.1.1-.6.6v.2l-.3.6-.3.6c-.2.5-.3.9-.4 1.3 0 .2-.1.3-.1.5-.2.7-.4 1.3-.5 2-.2 1.3-.2 2.8.3 4.2v.2c.4 1.1 1 2 1.7 2.9-.5 1.4-.3 2.5 0 3.3.4 1.1 7.6 19.3 9.9 21.4.2.2.6.5.9.8.7.6 1.7 1.5 2.2 1.9v.2c-.3-.3-.6-.5-.9-.7h-.2c-2-1.2-3.8-1.8-5.4-1.8-.4 0-.8 0-1.2.1-4.9.8-5.7 6-5.8 8.3-.2 3.2.5 6.5 2 9.6 2.7 5.3 5.3 11.3 7.9 18.3 1.4 3.6 3.5 6.2 6.2 7.9.9.5 2 .8 3 .8.4 0 .7 0 1-.1 1.2-.2 2.2-.9 3-1.8 0 3.7.8 7.5 2.6 11.8.5 1.1 1 2.2 1.4 3.3 1.7 3.9 3.5 8 4.6 12.2 2.3 8.8 8.4 14.8 18.1 17.8 7.5 2.3 14.9 3.5 22 3.5 3.1 0 6.2-.2 9.2-.7h.2c.2 0 .5-.1.8-.1.3-.1.6-.1.8-.2 4.8-.9 10.5-2.5 15.1-8.4l2.5-3.2h-2c.8-.2 1.7-.6 2.7-1.3 6-3.7 13.5-9 18-17.5 7.6-13.1 9.5-27.9 6.1-44.9z"/><path fill="#5596C0" d="M129.8 101.7s0-.2-.2-.4c-.1-.3-.2-.7-.4-1.2-.3-1-.6-2.5-.8-4.4-.2-1.8-.2-4 .2-6.3.1-.6.2-1.2.4-1.8.1-.3.1-.6.2-.9l.3-.9c.5-1.3 1-2.5 2-3.6 1-1.2 2.3-2.2 3.8-2.8.4-.1.7-.2 1.2-.3l.3-.1h1.8c.4 0 .7 0 1 .1 1.4.2 2.7.6 3.7 1.4.5.4 1 .8 1.4 1.2s.7.9 1 1.3c.6.9.9 1.8 1 2.5.2.7.3 1.4.3 2v1.2c0 .3-.1.5-.1.5s-.1-.1-.2-.4c-.1-.3-.3-.6-.6-1.1-.2-.4-.6-1-1-1.5-.4-.6-.9-1.1-1.5-1.5-.5-.4-1.2-.9-1.9-1.1-.7-.3-1.5-.4-2.3-.3-.2 0-.4.1-.6 0l-.3.1h-.4l-.5.1H137.3c-.2 0-.4.1-.5.2-.7.3-1.2.8-1.8 1.4-.5.6-1.1 1.5-1.4 2.4-.1.3-.2.4-.3.7-.1.3-.2.5-.3.7-.1.5-.4 1-.5 1.4-.7 2-1.1 3.9-1.6 5.6-.4 1.7-.8 3.2-1.1 4.2-.1.5-.2.9-.3 1.2.3.3.3.4.3.4zM174.5 86.8s0-.2-.1-.4c0-.2-.2-.6-.3-1-.2-.9-.5-2.2-.7-3.8-.2-1.5-.2-3.4 0-5.4.1-1 .3-2.1.5-3.1.3-1.1.6-2.1 1.1-3.2.3-.5.6-1.1 1-1.7.4-.5.9-1.1 1.6-1.5.4-.2.7-.4 1.1-.6.2-.1.4-.2.7-.2l.3-.1H181.4c.2 0 .3 0 .5.1.6.1 1.2.3 1.8.5.5.2 1 .5 1.5.8.9.6 1.5 1.3 2.1 2 1 1.4 1.5 2.6 1.8 3.6.2.4.2.8.3 1 0 .2.1.4.1.4l-.3-.3c-.2-.2-.5-.4-.8-.7-.7-.6-1.7-1.3-2.9-2.1-.6-.4-1.2-.6-1.9-.8s-1.3-.3-1.9-.3H181.1l-.4.1c-.1.1-.1.1-.4.2-.1.1-.3.4-.5.6-.2.3-.4.6-.5 1-.3.7-.7 1.5-1 2.4-.3.8-.6 1.7-.8 2.6-.5 1.8-1 3.4-1.4 4.8-.4 1.5-.8 2.7-1.1 3.5-.2.4-.3.7-.4 1-.1.4-.1.6-.1.6zM171 169s.1 0 .3-.1c.2 0 .4-.2.7-.2.6-.2 1.5-.3 2.5-.6.5-.1 1-.2 1.6-.4.5-.2 1.1-.3 1.6-.4.6-.2 1.1-.4 1.7-.5.6-.2 1.1-.4 1.6-.5.5-.2 1.1-.4 1.6-.7.3-.1.5-.2.8-.4.2-.1.5-.2.7-.4.5-.2.9-.6 1.4-.8.2-.1.4-.3.6-.4.2-.1.4-.3.6-.4.2-.1.4-.3.6-.4.2-.1.4-.2.6-.4.3-.3.7-.4.9-.6.3-.2.5-.3.6-.4.1-.1.2-.1.2-.1v1.1c0 .3-.1.7-.2 1.2s-.3 1-.5 1.5c-.1.3-.3.5-.4.8-.2.3-.4.5-.5.9-.4.5-.8 1.1-1.4 1.7-.3.3-.5.5-.9.8-.3.2-.6.4-1 .6-.7.4-1.4.8-2.2 1-.7.3-1.5.4-2.2.6-.8.1-1.5.2-2.2.2-1.4 0-2.8-.3-3.9-.6-.5-.2-1-.4-1.4-.6-.4-.2-.8-.4-1-.6s-.5-.4-.6-.4c-.1-.5-.2-.5-.2-.5zM174.5 162.8c-13.7 2.4-23.7-6.1-24.3-6.5l3.1-3.6c.5.4 11.2 9.5 25 4.1 13.9-5.4 17-17.3 17.1-17.7l4.6 1.1c-.1.6-3.8 14.8-20 21-1.8.8-3.6 1.3-5.5 1.6z"/><path fill="#5596C0" d="M192.3 136s.2.1.6.4c.3.2.9.5 1.4.8.3.2.6.3.9.5.3.2.6.4.9.5.2 0 .3.2.5.2.2.1.3.2.5.2s.3.2.5.2.3.2.5.2c.1.1.2 0 .3.1l.3.1c.2 0 .3.1.5.2.3.1.7.3 1.1.4.3.1.7.2 1.1.3.1.1.2 0 .3.1h.2c.2 0 .3.1.5.1.3.1.6.2.9.2.3.1.5.1.7.2.4.2.7.3.7.3s-.2.2-.6.4c-.2.1-.4.2-.7.4-.3.1-.6.3-1 .3-.4.1-.7.2-1.1.3-.4.1-.8.1-1.3.1-.2 0-.5-.1-.7 0-.2 0-.5-.1-.7-.1s-.5-.1-.7-.2l-.3-.1c-.1-.1-.3-.1-.3-.2-.3-.1-.4-.2-.7-.3s-.4-.2-.6-.4c-.4-.2-.8-.6-1.2-.9-.2-.1-.4-.3-.5-.5s-.3-.3-.4-.5c-.2-.4-.5-.7-.6-1-.2-.4-.3-.7-.4-.9s-.2-.5-.2-.7c-.4-.5-.4-.7-.4-.7zM153.6 149.2s.2.2.3.6c.1.2.2.4.3.7.1.3.2.6.2 1 .1.4.1.8.1 1.1v.6c0 .2-.1.4-.1.6-.1.5-.2.9-.3 1.4-.2.4-.3.9-.5 1.3s-.5.9-.7 1.2c-.2.4-.6.7-.8 1.1l-.9.9c-.3.3-.6.4-.9.6-.3.2-.6.3-.9.5s-.5.2-.7.3c-.4.1-.7.2-.7.2s0-.2.2-.7c0-.2.2-.4.3-.7s.2-.5.3-.8c.1-.3.3-.6.5-.9.2-.3.3-.7.4-1 .2-.3.3-.7.5-1 .2-.3.3-.7.5-1 .2-.3.3-.7.5-1 .2-.3.3-.7.5-1 0-.2.2-.3.2-.5s.2-.3.2-.5.2-.3.2-.4c0-.2.1-.3.2-.4.3-.6.5-1.1.7-1.4 0-.2.2-.3.2-.4l.2-.4zM97.4 110.1l-3.8-4.7c3.5-7.3 10.7-10.6 14.3-12.7l.3 6c-4.4 2.6-8 5.7-10.8 11.4z"/><path fill="#5596C0" d="M95.7 101.5l-1.2-7c.2-.3 3.6-4.5 13.1-9.1l.1 5.7c-8.2 3.9-12 10.3-12 10.4zM136.6 115.4s1.4-.2 3.7-.5c.5-.1 1-.1 1.4-.2s1-.2 1.4-.3c.5-.1 1-.2 1.4-.3.5-.1.9-.2 1.3-.4l.3-.1c.1 0 .2 0 .3-.1.2 0 .4-.2.7-.2.2 0 .2-.1.3-.1.2 0 .2 0 .4-.1s.4-.2.7-.3c.2-.1.4-.2.7-.3.2-.1.4-.2.7-.3.2-.1.4-.2.7-.3.2-.1.4-.2.7-.3.4-.2.9-.4 1.3-.5.4-.1.8-.4 1.1-.5s.6-.3.7-.3c.2 0 .3-.1.3-.1s0 .1.1.3c0 .2.1.5.1.8s0 .8-.1 1.3c0 .2-.1.5-.2.7 0 .2-.1.5-.2.8-.1.3-.2.6-.4.8s-.3.6-.5.9l-.6.9c-.2.3-.5.6-.8.8-.3.3-.6.6-.9.8-.4.2-.7.5-1 .7-.7.4-1.6.8-2.4 1-.8.2-1.7.4-2.6.4s-1.7-.1-2.5-.3c-.7-.2-1.5-.4-2.1-.8-.6-.3-1.2-.6-1.7-1-.9-.8-1.5-1.6-1.9-2.1-.2-.3-.3-.6-.4-.8 0 .2 0 0 0 0zM177.5 106s.4-.2 1.1-.3c.7-.2 1.6-.4 2.6-.6 1-.3 2.1-.4 3.1-.8.5-.2 1-.3 1.5-.5s1-.3 1.4-.6c.4-.2.9-.4 1.3-.6s.9-.5 1.3-.7c.4-.2.8-.5 1.3-.8.2-.1.4-.3.6-.5s.4-.3.6-.5l1.2-.9c.3-.3.7-.6 1-.8.5-.5 1-.7 1-.7s.2.4.4 1.2c.1.4.1.8.2 1.3v.9c0 .3-.1.6-.1.9s-.1.6-.2 1-.2.7-.3 1.1c-.3.7-.6 1.4-1.1 2.1-.2.4-.5.7-.8 1-.1.2-.3.3-.5.5l-.5.5c-.8.6-1.5 1-2.4 1.4-.9.3-1.8.6-2.7.7-.9.2-1.8.2-2.6 0-1.7-.2-3-.7-4.1-1.4-.5-.3-1-.7-1.4-1s-.7-.7-.9-.9c-.9-.5-1-1-1-1z"/><path fill="#5596C0" d="M91.5 81.5c.6 2 5.8 6.4 5.8 6.4s3.8 19.1 5.6 20.6-3.3.2-3.3.2l-11-23.3 2.9-3.9z"/><path fill="#5596C0" d="M200.9 48c-.3-.6-.5-1.2-.8-1.7-9.2-14-19-20.6-23.7-23.8-.4-.2-.7-.5-1-.7-1.2-.8-4.6-2.7-12.4-3.6-4.5-.4-11.8-.7-20.8.9-5.9 1-11.7 2.7-17.5 5-11.3 4.6-21.4 10.9-29.1 18.2-7.6 7.3-12.9 15.3-15.2 23.5-2 7.1-.7 16.7 3.9 28.9 3.2 8.6 7 15.3 7.1 15.6l.2.2c-.4.4-.7.8-1 1.3-1.2 1.9-1.9 4.2-2.1 6.8-.2 3.8.6 7.6 2.3 11 3.1 6.1 5.6 12.2 7.9 18.1 1.6 4.1 4.1 7.2 7.4 9.2 1.7 1 4 1.5 6 1.1h.1c.4 2.7 1.2 5.3 2.5 8.3.4 1 .8 2 1.3 3 1.8 4.2 3.5 8.1 4.6 12.2 2.6 9.7 9.3 16.3 20.1 19.7 11 3.4 22 4.5 32.4 2.9.6-.1 1.1-.2 1.7-.3 5.1-.9 11.5-2.7 16.8-9.4l3.7-4.6c6.1-3.8 13.3-9.3 17.9-17.8 3.9-7.2 6.2-15 7.1-23.1.8-7.5.4-15.5-1.3-23.7-.4-2.1-.9-4.2-1.3-6.4-2.8-13.6-5.7-27.7-7-41.7-.9-8.6-2.6-19.6-9.8-29.1zm5 29.6c1.5 16.5 5.1 32.5 8.3 48.6 3 15 2.1 29.8-5.4 43.7-3.9 7.3-10.3 12.4-17.3 16.7-1.3.8-2.1 1.1-2.8 1.2-.5.1-1.1.1-1.9.3-.5.1-.9.2-1.5.3-2.6.8-6.1 2.1-6.1 2.1l5.5.7s1.4.4 3 .4c-4 5.1-8.8 6.8-13.9 7.7-.5.1-1.1.2-1.6.3-10.3 1.5-20.4.3-30.3-2.8-8.4-2.6-14.5-7.6-16.8-16.4-1.4-5.5-3.9-10.6-6.1-15.8-1.6-3.8-2.7-7.9-2.4-12.2.1-1.4-1.3-4.4-1.3-4.4s-1.3 1.9-1.8 3.4c-.4 1.2-1.3 1.8-2.3 2s-2-.1-2.7-.5c-2.6-1.6-4.3-4.1-5.4-6.9-2.4-6.3-5-12.5-8-18.5-1.3-2.6-2-5.6-1.8-8.6.2-3.8 1.7-6 4.2-6.4 1.4-.3 3.2.2 5.2 1.4 1.3.9 4 3.2 4 3.2s.5-4.7-.4-5.6c-.7-.8-2.6-2.3-3.4-3-1.6-1.3-8.3-17.8-9.4-20.7-.4-.9-.1-1.9.6-2.9-.3-.3-.6-.5-.8-.8-.6-.7-1.1-1.5-1.5-2.5-.3-1-.4-2.2-.2-3.3.1-.6.2-1.1.4-1.7s.3-1.2.6-1.7c0-.2.1-.3.2-.4 0-.2.1-.3.2-.4l.2-.3.1-.2v-.1l.1-.1.1-.1c.2-.3.4-.6.5-.9.1-.3.4-.5.6-.8.9-1.1 2-2.1 3.2-2.8s2.5-1.4 3.8-2c1.3-.5 2.7-1 4.1-1.4s2.8-.7 4.3-1.1c.8-.1 1.4-.3 2.2-.5.7-.1 1.4-.3 2.2-.4 2.9-.5 5.8-.9 8.6-1.4.8-.1 1.6-.3 2.4-.4 2-.4 4-.8 5.9-1.2.7-.2 1.3-.3 2-.5s1.3-.4 1.9-.6l.9-.3.4-.2c.2 0 .3-.1.4-.2.3-.1.7-.3.9-.4H138l.2-.1.4-.2 1.8-.9c.6-.3 1.1-.6 1.7-.8 1.2-.5 2.3-1.3 3.3-1.8 1.1-.7 2.1-1.2 3.1-1.8l1.5-.9c.5-.3.9-.6 1.4-.9.9-.6 1.7-1.2 2.6-1.7.8-.5 1.6-1.1 2.4-1.6 1.5-1 2.7-2 3.7-2.7 1-.8 1.9-1.4 2.4-1.8s.8-.7.8-.7-.8 1.2-2.5 3.3c-.8 1-1.9 2.2-3.1 3.5-.6.6-1.3 1.3-2 2.1l-1.1 1.1c-.4.4-.8.8-1.2 1.1-1.7 1.5-3.6 3-5.7 4.6-.6.4-1 .7-1.6 1.1-.3.2-.6.4-.8.5-.3.2-.6.3-.8.5-.6.3-1.2.8-1.8 1.1s-1.2.7-1.8 1l-.5.2-.2.1-.3.1c-.3.1-.6.3-.9.5l-2.1.9c-1.4.6-2.9 1-4.3 1.5-2.5.8-5 1.3-7.6 1.7-.5.1-.8.1-1.3.2-3 .4-5.8.9-8.7 1.2l-4.2.6c-.5.1-1.1.2-1.7.3-.8.1-1.6.3-2.3.4-1.3.2-2.5.6-3.6 1-1.2.4-2.3.8-3.2 1.3-1 .5-1.8 1.1-2.6 1.8l-.5.5c-.1.2-.3.4-.4.5l-.1.1-.1.2-.2.4c-.1.1-.2.3-.2.4l-.2.3c-.2.4-.5.8-.7 1.2l-.3.6c-.1.2-.2.4-.2.6-.2.8-.3 1.6-.3 2.3.1 1.1.6 2 1.1 2.8.5.3 1.1.5 1.8.6.1-.1.1-.3.2-.4 0-.2.1-.3.2-.4 0-.2.1-.3.2-.4l.2-.3.1-.2v-.1l.1-.1.1-.1c.2-.3.4-.6.5-.9.2-.3.4-.5.6-.8.9-1.1 2-2.1 3.2-2.8 1.2-.8 2.5-1.4 3.8-2s2.7-1 4.1-1.4 2.8-.7 4.3-1.1c.8-.1 1.4-.3 2.2-.5.7-.1 1.4-.3 2.2-.4 2.9-.5 5.8-.9 8.6-1.4.8-.1 1.6-.3 2.4-.4 2-.4 4-.8 5.9-1.2.7-.2 1.3-.3 2-.5s1.3-.4 1.9-.6l.9-.3.4-.2c.2 0 .3-.1.4-.2.3-.1.7-.3.9-.4H142.7l.2-.1.4-.2 1.8-.9c.6-.3 1.1-.6 1.7-.8 1.2-.5 2.3-1.3 3.3-1.8 1.1-.7 2.1-1.2 3.1-1.8l1.5-.9c.5-.3.9-.6 1.4-.9.9-.6 1.7-1.2 2.6-1.7.8-.5 1.6-1.1 2.4-1.6 1.5-1 2.7-2 3.7-2.7 1-.8 1.9-1.4 2.4-1.8s.8-.7.8-.7-.8 1.2-2.5 3.3c-.8 1-1.9 2.2-3.1 3.5-.6.6-1.3 1.3-2 2.1l-1.1 1.1c-.4.4-.8.8-1.2 1.1-1.3 1.2-2.6 2.3-4.2 3.4 2.2-1 3.6-1.6 3.8-1.7h.2c3.9-.7 7-2.9 10-5.3 1.6-1.4 3-2.3 5-2.7.6-.1 1.2-.1 1.9-.1.6 0 1.2-.1 1.9-.2 6-1.1 13.8-6.8 15-7.9.7-.6 1.2-.9 1.6-1 1.1-.2 1.7 1 2.6 2 6.7 8.2 9.1 18.4 10 28.5z"/><path fill="#5596C0" d="M167.4 104.5c.5 1.2 1 2.3 1.5 3.4l1.5 3.4.8 1.7c.3.6.5 1.1.8 1.7s.5 1.1.8 1.7c.2.5.5 1.1.8 1.6.2.5.6 1.1.8 1.6.3.5.6 1.1.9 1.6l.9 1.5.4.8.5.7c.1.2.3.5.5.7s.3.5.5.7l.5.7.6.7.6.6.3.3.3.3c.4.4.8.8 1.3 1.2l1.9 1.6-2.1.8c-.7.3-1.5.6-2.3.8l-1.1.4c-.4.1-.7.3-1.1.4s-.7.3-1.1.5c-.4.1-.7.4-1.1.6-.7.4-1.4.8-2.2 1.2.5-.6 1-1.3 1.5-1.9.5-.6 1.2-1.2 1.9-1.7l2.1-1.5c.4-.2.7-.4 1.1-.7.4-.2.7-.4 1.1-.7l-.2 2.4c-.5-.4-1.1-.7-1.7-1.1l-.4-.3-.4-.3c-.3-.2-.5-.4-.7-.6l-.8-.7-.7-.7c-.2-.3-.4-.5-.6-.8-.2-.3-.4-.5-.6-.8-.4-.6-.7-1-1.1-1.6-.3-.6-.7-1.1-1-1.7s-.6-1.1-.9-1.7c-.3-.6-.6-1.1-.8-1.7-.3-.6-.4-1.2-.7-1.7l-.6-1.8c-.2-.6-.4-1.2-.5-1.9-.2-.6-.3-1.2-.4-1.9-.1-.6-.2-1.2-.3-1.9-.1-.6-.1-1.2-.3-1.9 0-.6-.1-1.2-.2-1.9v-2.1z"/></svg>