<?xml version="1.0" encoding="utf-8"?>
<!-- Generator: Adobe Illustrator 18.0.0, SVG Export Plug-In . SVG Version: 6.00 Build 0)  -->
<!DOCTYPE svg PUBLIC "-//W3C//DTD SVG 1.1//EN" "http://www.w3.org/Graphics/SVG/1.1/DTD/svg11.dtd">
<svg version="1.1" id="Layer_1" xmlns="http://www.w3.org/2000/svg" xmlns:xlink="http://www.w3.org/1999/xlink" x="0px" y="0px"
	 viewBox="0 0 230 230" enable-background="new 0 0 230 230" xml:space="preserve">
<g>
	<path opacity="0.25" fill="#162636" d="M162.7,52.6c-0.3-0.6-0.5-1.2-0.8-1.7c-9.2-14-19-20.6-23.7-23.8c-0.4-0.2-0.7-0.5-1-0.7
		c-1.2-0.8-4.6-2.7-12.4-3.6c-4.5-0.4-11.7-0.7-20.8,0.9l0,0c-5.9,1-11.7,2.7-17.5,5c-11.3,4.6-21.4,10.9-29.1,18.2
		c-7.6,7.3-12.8,15.3-15.2,23.5c-2,7.1-0.7,16.7,3.9,28.9c3.2,8.6,7,15.3,7.1,15.6l0.1,0.3c-0.4,0.4-0.7,0.8-1,1.3
		c-1.2,1.9-1.9,4.2-2.1,6.8c-0.2,3.8,0.6,7.6,2.3,11c3.1,6.1,5.6,12.2,7.9,18.1c1.6,4.1,4.1,7.2,7.4,9.2c1.7,1,4,1.5,6,1.1
		c0,0,0,0,0.1,0c0.4,2.7,1.2,5.3,2.5,8.3c0.4,1,0.8,2,1.3,3c1.8,4.2,3.5,8.1,4.6,12.2c2.6,9.7,9.3,16.3,20.1,19.7
		c11,3.4,22,4.5,32.4,2.9c0.6-0.1,1.1-0.2,1.7-0.3c5.1-0.9,11.5-2.7,16.8-9.4l3.7-4.6c6.1-3.8,13.3-9.3,17.9-17.8
		c3.9-7.2,6.2-15,7.1-23.1c0.8-7.5,0.4-15.5-1.3-23.7c-0.4-2.1-0.9-4.2-1.3-6.4c-2.8-13.6-5.7-27.7-7-41.7
		C171.6,73.1,169.8,62.1,162.7,52.6z"/>
	<path fill="#FFFFFF" d="M170.9,77.6c1.5,16.5,5.1,32.5,8.3,48.6c3,15,2.1,29.8-5.4,43.7c-3.9,7.3-10.3,12.4-17.3,16.7
		c-1.3,0.8-2.1,1.1-2.8,1.2c-0.5,0.1-1.1,0.1-1.9,0.3c-0.5,0.1-0.9,0.2-1.5,0.3c-2.6,0.8-6.1,2.1-6.1,2.1l5.5,0.7c0,0,1.4,0.4,3,0.4
		c-4,5.1-8.8,6.8-13.9,7.7c-0.5,0.1-1.1,0.2-1.6,0.3c-10.3,1.5-20.4,0.3-30.3-2.8c-8.4-2.6-14.5-7.6-16.8-16.4
		c-1.4-5.5-3.9-10.6-6.1-15.8c-1.6-3.8-2.7-7.9-2.4-12.2c0.1-1.4-1.3-4.4-1.3-4.4s-1.3,1.9-1.8,3.4c-0.4,1.2-1.3,1.8-2.3,2
		s-2-0.1-2.7-0.5c-2.6-1.6-4.3-4.1-5.4-6.9c-2.4-6.3-5-12.5-8-18.5c-1.3-2.6-2-5.6-1.8-8.6c0.2-3.8,1.7-6,4.2-6.4
		c1.4-0.3,3.2,0.2,5.2,1.4c1.3,0.9,4,3.2,4,3.2s0.5-4.7-0.4-5.6c-0.7-0.8-2.6-2.3-3.4-3c-1.6-1.3-8.3-17.8-9.4-20.7
		c-0.4-0.9-0.1-1.9,0.6-2.9c-0.3-0.3-0.6-0.5-0.8-0.8c-0.6-0.7-1.1-1.5-1.5-2.5c-0.3-1-0.4-2.2-0.2-3.3c0.1-0.6,0.2-1.1,0.4-1.7
		c0.2-0.6,0.3-1.2,0.6-1.7c0-0.2,0.1-0.3,0.2-0.4c0-0.2,0.1-0.3,0.2-0.4l0.2-0.3l0.1-0.2l0-0.1l0,0l0,0l0.1-0.1l0.1-0.1
		c0.2-0.3,0.4-0.6,0.5-0.9s0.4-0.5,0.6-0.8c0.9-1.1,2-2.1,3.2-2.8s2.5-1.4,3.8-2c1.3-0.5,2.7-1,4.1-1.4c1.4-0.4,2.8-0.7,4.3-1.1
		c0.8-0.1,1.4-0.3,2.2-0.5c0.7-0.1,1.4-0.3,2.2-0.4c2.9-0.5,5.8-0.9,8.6-1.4c0.8-0.1,1.6-0.3,2.4-0.4c2-0.4,4-0.8,5.9-1.2
		c0.7-0.2,1.3-0.3,2-0.5c0.7-0.2,1.3-0.4,1.9-0.6c0.3-0.1,0.6-0.2,0.9-0.3l0.4-0.2c0.2,0,0.3-0.1,0.4-0.2c0.3-0.1,0.7-0.3,0.9-0.4
		l0.2,0l0.1,0l0,0l0,0l0,0c0,0,0,0-0.1,0l0.2-0.1l0.4-0.2c0.6-0.3,1.2-0.6,1.8-0.9c0.6-0.3,1.1-0.6,1.7-0.8c1.2-0.5,2.3-1.3,3.3-1.8
		c1.1-0.7,2.1-1.2,3.1-1.8c0.5-0.3,1-0.6,1.5-0.9c0.5-0.3,0.9-0.6,1.4-0.9c0.9-0.6,1.7-1.2,2.6-1.7c0.8-0.5,1.6-1.1,2.4-1.6
		c1.5-1,2.7-2,3.7-2.7c1-0.8,1.9-1.4,2.4-1.8s0.8-0.7,0.8-0.7s-0.8,1.2-2.5,3.3c-0.8,1-1.9,2.2-3.1,3.5c-0.6,0.6-1.3,1.3-2,2.1
		c-0.4,0.4-0.7,0.7-1.1,1.1s-0.8,0.8-1.2,1.1c-1.7,1.5-3.6,3-5.7,4.6c-0.6,0.4-1,0.7-1.6,1.1c-0.3,0.2-0.6,0.4-0.8,0.5
		c-0.3,0.2-0.6,0.3-0.8,0.5c-0.6,0.3-1.2,0.8-1.8,1.1c-0.6,0.3-1.2,0.7-1.8,1l-0.5,0.2l-0.2,0.1l-0.3,0.1c-0.3,0.1-0.6,0.3-0.9,0.5
		c-0.7,0.3-1.4,0.6-2.1,0.9c-1.4,0.6-2.9,1-4.3,1.5c-2.5,0.8-5,1.3-7.6,1.7c-0.5,0.1-0.8,0.1-1.3,0.2c-3,0.4-5.8,0.9-8.7,1.2
		c-1.4,0.2-2.8,0.4-4.2,0.6c-0.5,0.1-1.1,0.2-1.7,0.3c-0.8,0.1-1.6,0.3-2.3,0.4c-1.3,0.2-2.5,0.6-3.6,1c-1.2,0.4-2.3,0.8-3.2,1.3
		c-1,0.5-1.8,1.1-2.6,1.8c-0.2,0.2-0.3,0.3-0.5,0.5c-0.1,0.2-0.3,0.4-0.4,0.5l-0.1,0.1l0,0l0,0l0,0l0,0l0,0l-0.1,0.2l-0.2,0.4
		c-0.1,0.1-0.2,0.3-0.2,0.4l-0.2,0.3c-0.2,0.4-0.5,0.8-0.7,1.2c-0.1,0.2-0.2,0.4-0.3,0.6s-0.2,0.4-0.2,0.6c-0.2,0.8-0.3,1.6-0.3,2.3
		c0.1,1.1,0.6,2,1.1,2.8c0.5,0.3,1.1,0.5,1.8,0.6c0.1-0.1,0.1-0.3,0.2-0.4c0-0.2,0.1-0.3,0.2-0.4c0-0.2,0.1-0.3,0.2-0.4l0.2-0.3
		l0.1-0.2l0-0.1l0,0l0,0l0.1-0.1l0.1-0.1c0.2-0.3,0.4-0.6,0.5-0.9c0.2-0.3,0.4-0.5,0.6-0.8c0.9-1.1,2-2.1,3.2-2.8
		c1.2-0.8,2.5-1.4,3.8-2s2.7-1,4.1-1.4c1.4-0.4,2.8-0.7,4.3-1.1c0.8-0.1,1.4-0.3,2.2-0.5c0.7-0.1,1.4-0.3,2.2-0.4
		c2.9-0.5,5.8-0.9,8.6-1.4c0.8-0.1,1.6-0.3,2.4-0.4c2-0.4,4-0.8,5.9-1.2c0.7-0.2,1.3-0.3,2-0.5c0.7-0.2,1.3-0.4,1.9-0.6
		c0.3-0.1,0.6-0.2,0.9-0.3l0.4-0.2c0.2,0,0.3-0.1,0.4-0.2c0.3-0.1,0.7-0.3,0.9-0.4l0.2,0l0.1,0l0,0l0,0l0,0c0,0,0,0-0.1,0l0.2-0.1
		l0.4-0.2c0.6-0.3,1.2-0.6,1.8-0.9c0.6-0.3,1.1-0.6,1.7-0.8c1.2-0.5,2.3-1.3,3.3-1.8c1.1-0.7,2.1-1.2,3.1-1.8c0.5-0.3,1-0.6,1.5-0.9
		c0.5-0.3,0.9-0.6,1.4-0.9c0.9-0.6,1.7-1.2,2.6-1.7c0.8-0.5,1.6-1.1,2.4-1.6c1.5-1,2.7-2,3.7-2.7c1-0.8,1.9-1.4,2.4-1.8
		s0.8-0.7,0.8-0.7s-0.8,1.2-2.5,3.3c-0.8,1-1.9,2.2-3.1,3.5c-0.6,0.6-1.3,1.3-2,2.1c-0.4,0.4-0.7,0.7-1.1,1.1
		c-0.4,0.4-0.8,0.8-1.2,1.1c-1.3,1.2-2.6,2.3-4.2,3.4c2.2-1,3.6-1.6,3.8-1.7l0,0c0.1,0,0.2,0,0.2,0c3.9-0.7,7-2.9,10-5.3
		c1.6-1.4,3-2.3,5-2.7c0.6-0.1,1.2-0.1,1.9-0.1c0.6,0,1.2-0.1,1.9-0.2c6-1.1,13.8-6.8,15-7.9c0.7-0.6,1.2-0.9,1.6-1
		c1.1-0.2,1.7,1,2.6,2C167.6,57.3,170,67.5,170.9,77.6z"/>
	<path fill="#5596C0" d="M94.8,101.7c0,0,0-0.2-0.2-0.4c-0.1-0.3-0.2-0.7-0.4-1.2c-0.3-1-0.6-2.5-0.8-4.4c-0.2-1.8-0.2-4,0.2-6.3
		c0.1-0.6,0.2-1.2,0.4-1.8c0.1-0.3,0.1-0.6,0.2-0.9s0.2-0.6,0.3-0.9c0.5-1.3,1-2.5,2-3.6c1-1.2,2.3-2.2,3.8-2.8
		c0.4-0.1,0.7-0.2,1.2-0.3l0.3-0.1l0,0l0.1,0l0,0l0.1,0l0.1,0l0.5,0l0.2,0l0.3,0l0.5,0c0.4,0,0.7,0,1,0.1c1.4,0.2,2.7,0.6,3.7,1.4
		c0.5,0.4,1,0.8,1.4,1.2s0.7,0.9,1,1.3c0.6,0.9,0.9,1.8,1,2.5c0.2,0.7,0.3,1.4,0.3,2s0,1,0,1.2c0,0.3-0.1,0.5-0.1,0.5
		s-0.1-0.1-0.2-0.4c-0.1-0.3-0.3-0.6-0.6-1.1c-0.2-0.4-0.6-1-1-1.5c-0.4-0.6-0.9-1.1-1.5-1.5c-0.5-0.4-1.2-0.9-1.9-1.1
		c-0.7-0.3-1.5-0.4-2.3-0.3c-0.2,0-0.4,0.1-0.6,0l-0.3,0.1l-0.2,0c-0.1,0-0.2,0-0.2,0l-0.5,0.1l-0.1,0l-0.1,0l0,0
		c-0.1,0,0.1,0,0.1,0l0,0l-0.2,0c-0.2,0-0.4,0.1-0.5,0.2c-0.7,0.3-1.2,0.8-1.8,1.4c-0.5,0.6-1.1,1.5-1.4,2.4
		c-0.1,0.3-0.2,0.4-0.3,0.7c-0.1,0.3-0.2,0.5-0.3,0.7c-0.1,0.5-0.4,1-0.5,1.4c-0.7,2-1.1,3.9-1.6,5.6c-0.4,1.7-0.8,3.2-1.1,4.2
		c-0.1,0.5-0.2,0.9-0.3,1.2C94.8,101.6,94.8,101.7,94.8,101.7z"/>
	<path fill="#5596C0" d="M139.5,86.8c0,0,0-0.2-0.1-0.4c0-0.2-0.2-0.6-0.3-1c-0.2-0.9-0.5-2.2-0.7-3.8c-0.2-1.5-0.2-3.4,0-5.4
		c0.1-1,0.3-2.1,0.5-3.1c0.3-1.1,0.6-2.1,1.1-3.2c0.3-0.5,0.6-1.1,1-1.7c0.4-0.5,0.9-1.1,1.6-1.5c0.4-0.2,0.7-0.4,1.1-0.6
		c0.2-0.1,0.4-0.2,0.7-0.2l0.3-0.1l0.1,0l0,0c0.2,0,0.1,0,0.1,0l0,0l0.1,0l0.4,0c0.2,0,0.4,0,0.5,0l0.3,0c0.1,0,0.2,0,0.2,0
		c0.2,0,0.3,0,0.5,0.1c0.6,0.1,1.2,0.3,1.8,0.5c0.5,0.2,1,0.5,1.5,0.8c0.9,0.6,1.5,1.3,2.1,2c1,1.4,1.5,2.6,1.8,3.6
		c0.2,0.4,0.2,0.8,0.3,1c0,0.2,0.1,0.4,0.1,0.4s-0.1-0.1-0.3-0.3c-0.2-0.2-0.5-0.4-0.8-0.7c-0.7-0.6-1.7-1.3-2.9-2.1
		c-0.6-0.4-1.2-0.6-1.9-0.8s-1.3-0.3-1.9-0.3l-0.2,0l-0.1,0l-0.1,0l-0.2,0l-0.4,0.1c-0.1,0.1-0.1,0.1-0.4,0.2
		c-0.1,0.1-0.3,0.4-0.5,0.6c-0.2,0.3-0.4,0.6-0.5,1c-0.3,0.7-0.7,1.5-1,2.4c-0.3,0.8-0.6,1.7-0.8,2.6c-0.5,1.8-1,3.4-1.4,4.8
		c-0.4,1.5-0.8,2.7-1.1,3.5c-0.2,0.4-0.3,0.7-0.4,1C139.5,86.6,139.5,86.8,139.5,86.8z"/>
	<path fill="#5596C0" d="M136,169c0,0,0.1,0,0.3-0.1c0.2,0,0.4-0.2,0.7-0.2c0.6-0.2,1.5-0.3,2.5-0.6c0.5-0.1,1-0.2,1.6-0.4
		c0.5-0.2,1.1-0.3,1.6-0.4c0.6-0.2,1.1-0.4,1.7-0.5c0.6-0.2,1.1-0.4,1.6-0.5c0.5-0.2,1.1-0.4,1.6-0.7c0.3-0.1,0.5-0.2,0.8-0.4
		c0.2-0.1,0.5-0.2,0.7-0.4c0.5-0.2,0.9-0.6,1.4-0.8c0.2-0.1,0.4-0.3,0.6-0.4c0.2-0.1,0.4-0.3,0.6-0.4c0.2-0.1,0.4-0.3,0.6-0.4
		c0.2-0.1,0.4-0.2,0.6-0.4c0.3-0.3,0.7-0.4,0.9-0.6c0.3-0.2,0.5-0.3,0.6-0.4c0.1-0.1,0.2-0.1,0.2-0.1s0,0.1,0,0.3c0,0.2,0,0.5,0,0.8
		c0,0.3-0.1,0.7-0.2,1.2c-0.1,0.5-0.3,1-0.5,1.5c-0.1,0.3-0.3,0.5-0.4,0.8c-0.2,0.3-0.4,0.5-0.5,0.9c-0.4,0.5-0.8,1.1-1.4,1.7
		c-0.3,0.3-0.5,0.5-0.9,0.8c-0.3,0.2-0.6,0.4-1,0.6c-0.7,0.4-1.4,0.8-2.2,1c-0.7,0.3-1.5,0.4-2.2,0.6c-0.8,0.1-1.5,0.2-2.2,0.2
		c-1.4,0-2.8-0.3-3.9-0.6c-0.5-0.2-1-0.4-1.4-0.6c-0.4-0.2-0.8-0.4-1-0.6s-0.5-0.4-0.6-0.4C136.1,169,136,169,136,169z"/>
	<g>
		<g>
			<path fill="#5596C0" d="M139.5,162.8c-13.7,2.4-23.7-6.1-24.3-6.5l3.1-3.6c0.5,0.4,11.2,9.5,25,4.1c13.9-5.4,17-17.3,17.1-17.7
				l4.6,1.1c-0.1,0.6-3.8,14.8-20,21C143.2,162,141.4,162.5,139.5,162.8z"/>
		</g>
		<path fill="#5596C0" d="M157.3,136c0,0,0.2,0.1,0.6,0.4c0.3,0.2,0.9,0.5,1.4,0.8c0.3,0.2,0.6,0.3,0.9,0.5c0.3,0.2,0.6,0.4,0.9,0.5
			c0.2,0,0.3,0.2,0.5,0.2c0.2,0.1,0.3,0.2,0.5,0.2c0.2,0,0.3,0.2,0.5,0.2c0.2,0,0.3,0.2,0.5,0.2c0.1,0.1,0.2,0,0.3,0.1l0.3,0.1
			c0.2,0,0.3,0.1,0.5,0.2c0.3,0.1,0.7,0.3,1.1,0.4c0.3,0.1,0.7,0.2,1.1,0.3c0.1,0.1,0.2,0,0.3,0.1c0.1,0,0.2,0,0.2,0
			c0.2,0,0.3,0.1,0.5,0.1c0.3,0.1,0.6,0.2,0.9,0.2c0.3,0.1,0.5,0.1,0.7,0.2c0.4,0.2,0.7,0.3,0.7,0.3s-0.2,0.2-0.6,0.4
			c-0.2,0.1-0.4,0.2-0.7,0.4c-0.3,0.1-0.6,0.3-1,0.3c-0.4,0.1-0.7,0.2-1.1,0.3c-0.4,0.1-0.8,0.1-1.3,0.1c-0.2,0-0.5-0.1-0.7,0
			c-0.2,0-0.5-0.1-0.7-0.1c-0.2,0-0.5-0.1-0.7-0.2l-0.3-0.1c-0.1-0.1-0.3-0.1-0.3-0.2c-0.3-0.1-0.4-0.2-0.7-0.3
			c-0.3-0.1-0.4-0.2-0.6-0.4c-0.4-0.2-0.8-0.6-1.2-0.9c-0.2-0.1-0.4-0.3-0.5-0.5c-0.1-0.2-0.3-0.3-0.4-0.5c-0.2-0.4-0.5-0.7-0.6-1
			c-0.2-0.4-0.3-0.7-0.4-0.9s-0.2-0.5-0.2-0.7C157.3,136.2,157.3,136,157.3,136z"/>
		<path fill="#5596C0" d="M118.6,149.2c0,0,0.2,0.2,0.3,0.6c0.1,0.2,0.2,0.4,0.3,0.7c0.1,0.3,0.2,0.6,0.2,1c0.1,0.4,0.1,0.8,0.1,1.1
			c0,0.2,0,0.4,0,0.6c0,0.2-0.1,0.4-0.1,0.6c-0.1,0.5-0.2,0.9-0.3,1.4c-0.2,0.4-0.3,0.9-0.5,1.3c-0.2,0.4-0.5,0.9-0.7,1.2
			c-0.2,0.4-0.6,0.7-0.8,1.1c-0.3,0.3-0.6,0.6-0.9,0.9c-0.3,0.3-0.6,0.4-0.9,0.6c-0.3,0.2-0.6,0.3-0.9,0.5s-0.5,0.2-0.7,0.3
			c-0.4,0.1-0.7,0.2-0.7,0.2s0-0.2,0.2-0.7c0-0.2,0.2-0.4,0.3-0.7c0.1-0.3,0.2-0.5,0.3-0.8c0.1-0.3,0.3-0.6,0.5-0.9
			c0.2-0.3,0.3-0.7,0.4-1c0.2-0.3,0.3-0.7,0.5-1c0.2-0.3,0.3-0.7,0.5-1c0.2-0.3,0.3-0.7,0.5-1c0.2-0.3,0.3-0.7,0.5-1
			c0-0.2,0.2-0.3,0.2-0.5c0-0.2,0.2-0.3,0.2-0.5c0-0.2,0.2-0.3,0.2-0.4c0-0.2,0.1-0.3,0.2-0.4c0.3-0.6,0.5-1.1,0.7-1.4
			c0-0.2,0.2-0.3,0.2-0.4C118.6,149.2,118.6,149.2,118.6,149.2z"/>
	</g>
	<g>
		<path fill="#5596C0" d="M62.4,110.1l-3.8-4.7c3.5-7.3,10.7-10.6,14.3-12.7l0.3,6C68.8,101.3,65.2,104.4,62.4,110.1z"/>
	</g>
	<g>
		<path fill="#5596C0" d="M60.7,101.5l-1.2-7c0.2-0.3,3.6-4.5,13.1-9.1l0.1,5.7C64.5,95,60.7,101.4,60.7,101.5z"/>
	</g>
	<path fill="#5596C0" d="M101.6,115.4c0,0,1.4-0.2,3.7-0.5c0.5-0.1,1-0.1,1.4-0.2s1-0.2,1.4-0.3c0.5-0.1,1-0.2,1.4-0.3
		c0.5-0.1,0.9-0.2,1.3-0.4l0.3-0.1c0.1,0,0.2,0,0.3-0.1c0.2,0,0.4-0.2,0.7-0.2c0.2,0,0.2-0.1,0.3-0.1c0.2,0,0.2,0,0.4-0.1
		c0.2-0.1,0.4-0.2,0.7-0.3c0.2-0.1,0.4-0.2,0.7-0.3c0.2-0.1,0.4-0.2,0.7-0.3c0.2-0.1,0.4-0.2,0.7-0.3c0.2-0.1,0.4-0.2,0.7-0.3
		c0.4-0.2,0.9-0.4,1.3-0.5s0.8-0.4,1.1-0.5c0.3-0.1,0.6-0.3,0.7-0.3c0.2,0,0.3-0.1,0.3-0.1s0,0.1,0.1,0.3c0,0.2,0.1,0.5,0.1,0.8
		s0,0.8-0.1,1.3c0,0.2-0.1,0.5-0.2,0.7c0,0.2-0.1,0.5-0.2,0.8c-0.1,0.3-0.2,0.6-0.4,0.8s-0.3,0.6-0.5,0.9c-0.2,0.3-0.4,0.6-0.6,0.9
		s-0.5,0.6-0.8,0.8c-0.3,0.3-0.6,0.6-0.9,0.8c-0.4,0.2-0.7,0.5-1,0.7c-0.7,0.4-1.6,0.8-2.4,1c-0.8,0.2-1.7,0.4-2.6,0.4
		c-0.9,0-1.7-0.1-2.5-0.3c-0.7-0.2-1.5-0.4-2.1-0.8c-0.6-0.3-1.2-0.6-1.7-1c-0.9-0.8-1.5-1.6-1.9-2.1c-0.2-0.3-0.3-0.6-0.4-0.8
		C101.6,115.6,101.6,115.4,101.6,115.4z"/>
	<path fill="#5596C0" d="M142.5,106c0,0,0.4-0.2,1.1-0.3c0.7-0.2,1.6-0.4,2.6-0.6c1-0.3,2.1-0.4,3.1-0.8c0.5-0.2,1-0.3,1.5-0.5
		c0.5-0.2,1-0.3,1.4-0.6c0.4-0.2,0.9-0.4,1.3-0.6s0.9-0.5,1.3-0.7c0.4-0.2,0.8-0.5,1.3-0.8c0.2-0.1,0.4-0.3,0.6-0.5s0.4-0.3,0.6-0.5
		c0.4-0.3,0.8-0.6,1.2-0.9c0.3-0.3,0.7-0.6,1-0.8c0.5-0.5,1-0.7,1-0.7s0.2,0.4,0.4,1.2c0.1,0.4,0.1,0.8,0.2,1.3c0,0.2,0,0.5,0,0.9
		c0,0.3-0.1,0.6-0.1,0.9c0,0.3-0.1,0.6-0.2,1s-0.2,0.7-0.3,1.1c-0.3,0.7-0.6,1.4-1.1,2.1c-0.2,0.4-0.5,0.7-0.8,1
		c-0.1,0.2-0.3,0.3-0.5,0.5s-0.3,0.3-0.5,0.5c-0.8,0.6-1.5,1-2.4,1.4c-0.9,0.3-1.8,0.6-2.7,0.7c-0.9,0.2-1.8,0.2-2.6,0
		c-1.7-0.2-3-0.7-4.1-1.4c-0.5-0.3-1-0.7-1.4-1c-0.4-0.3-0.7-0.7-0.9-0.9C142.6,106.5,142.5,106,142.5,106z"/>
	<path fill="#5596C0" d="M56.5,81.5c0.6,2,5.8,6.4,5.8,6.4s3.8,19.1,5.6,20.6s-3.3,0.2-3.3,0.2L53.6,85.4L56.5,81.5z"/>
	<path fill="#5596C0" d="M165.9,48c-0.3-0.6-0.5-1.2-0.8-1.7c-9.2-14-19-20.6-23.7-23.8c-0.4-0.2-0.7-0.5-1-0.7
		c-1.2-0.8-4.6-2.7-12.4-3.6c-4.5-0.4-11.8-0.7-20.8,0.9l0,0c-5.9,1-11.7,2.7-17.5,5c-11.3,4.6-21.4,10.9-29.1,18.2
		c-7.6,7.3-12.9,15.3-15.2,23.5c-2,7.1-0.7,16.7,3.9,28.9c3.2,8.6,7,15.3,7.1,15.6l0.2,0.2c-0.4,0.4-0.7,0.8-1,1.3
		c-1.2,1.9-1.9,4.2-2.1,6.8c-0.2,3.8,0.6,7.6,2.3,11c3.1,6.1,5.6,12.2,7.9,18.1c1.6,4.1,4.1,7.2,7.4,9.2c1.7,1,4,1.5,6,1.1
		c0,0,0,0,0.1,0c0.4,2.7,1.2,5.3,2.5,8.3c0.4,1,0.8,2,1.3,3c1.8,4.2,3.5,8.1,4.6,12.2c2.6,9.7,9.3,16.3,20.1,19.7
		c11,3.4,22,4.5,32.4,2.9c0.6-0.1,1.1-0.2,1.7-0.3c5.1-0.9,11.5-2.7,16.8-9.4l3.7-4.6c6.1-3.8,13.3-9.3,17.9-17.8
		c3.9-7.2,6.2-15,7.1-23.1c0.8-7.5,0.4-15.5-1.3-23.7c-0.4-2.1-0.9-4.2-1.3-6.4c-2.8-13.6-5.7-27.7-7-41.7
		C174.8,68.5,173.1,57.5,165.9,48z M170.9,77.6c1.5,16.5,5.1,32.5,8.3,48.6c3,15,2.1,29.8-5.4,43.7c-3.9,7.3-10.3,12.4-17.3,16.7
		c-1.3,0.8-2.1,1.1-2.8,1.2c-0.5,0.1-1.1,0.1-1.9,0.3c-0.5,0.1-0.9,0.2-1.5,0.3c-2.6,0.8-6.1,2.1-6.1,2.1l5.5,0.7c0,0,1.4,0.4,3,0.4
		c-4,5.1-8.8,6.8-13.9,7.7c-0.5,0.1-1.1,0.2-1.6,0.3c-10.3,1.5-20.4,0.3-30.3-2.8c-8.4-2.6-14.5-7.6-16.8-16.4
		c-1.4-5.5-3.9-10.6-6.1-15.8c-1.6-3.8-2.7-7.9-2.4-12.2c0.1-1.4-1.3-4.4-1.3-4.4s-1.3,1.9-1.8,3.4c-0.4,1.2-1.3,1.8-2.3,2
		s-2-0.1-2.7-0.5c-2.6-1.6-4.3-4.1-5.4-6.9c-2.4-6.3-5-12.5-8-18.5c-1.3-2.6-2-5.6-1.8-8.6c0.2-3.8,1.7-6,4.2-6.4
		c1.4-0.3,3.2,0.2,5.2,1.4c1.3,0.9,4,3.2,4,3.2s0.5-4.7-0.4-5.6c-0.7-0.8-2.6-2.3-3.4-3c-1.6-1.3-8.3-17.8-9.4-20.7
		c-0.4-0.9-0.1-1.9,0.6-2.9c-0.3-0.3-0.6-0.5-0.8-0.8c-0.6-0.7-1.1-1.5-1.5-2.5c-0.3-1-0.4-2.2-0.2-3.3c0.1-0.6,0.2-1.1,0.4-1.7
		c0.2-0.6,0.3-1.2,0.6-1.7c0-0.2,0.1-0.3,0.2-0.4c0-0.2,0.1-0.3,0.2-0.4l0.2-0.3l0.1-0.2l0-0.1l0,0l0,0l0.1-0.1l0.1-0.1
		c0.2-0.3,0.4-0.6,0.5-0.9s0.4-0.5,0.6-0.8c0.9-1.1,2-2.1,3.2-2.8s2.5-1.4,3.8-2c1.3-0.5,2.7-1,4.1-1.4c1.4-0.4,2.8-0.7,4.3-1.1
		c0.8-0.1,1.4-0.3,2.2-0.5c0.7-0.1,1.4-0.3,2.2-0.4c2.9-0.5,5.8-0.9,8.6-1.4c0.8-0.1,1.6-0.3,2.4-0.4c2-0.4,4-0.8,5.9-1.2
		c0.7-0.2,1.3-0.3,2-0.5c0.7-0.2,1.3-0.4,1.9-0.6c0.3-0.1,0.6-0.2,0.9-0.3l0.4-0.2c0.2,0,0.3-0.1,0.4-0.2c0.3-0.1,0.7-0.3,0.9-0.4
		l0.2,0l0.1,0l0,0l0,0l0,0c0,0,0,0-0.1,0l0.2-0.1l0.4-0.2c0.6-0.3,1.2-0.6,1.8-0.9c0.6-0.3,1.1-0.6,1.7-0.8c1.2-0.5,2.3-1.3,3.3-1.8
		c1.1-0.7,2.1-1.2,3.1-1.8c0.5-0.3,1-0.6,1.5-0.9c0.5-0.3,0.9-0.6,1.4-0.9c0.9-0.6,1.7-1.2,2.6-1.7c0.8-0.5,1.6-1.1,2.4-1.6
		c1.5-1,2.7-2,3.7-2.7c1-0.8,1.9-1.4,2.4-1.8s0.8-0.7,0.8-0.7s-0.8,1.2-2.5,3.3c-0.8,1-1.9,2.2-3.1,3.5c-0.6,0.6-1.3,1.3-2,2.1
		c-0.4,0.4-0.7,0.7-1.1,1.1s-0.8,0.8-1.2,1.1c-1.7,1.5-3.6,3-5.7,4.6c-0.6,0.4-1,0.7-1.6,1.1c-0.3,0.2-0.6,0.4-0.8,0.5
		c-0.3,0.2-0.6,0.3-0.8,0.5c-0.6,0.3-1.2,0.8-1.8,1.1c-0.6,0.3-1.2,0.7-1.8,1l-0.5,0.2l-0.2,0.1l-0.3,0.1c-0.3,0.1-0.6,0.3-0.9,0.5
		c-0.7,0.3-1.4,0.6-2.1,0.9c-1.4,0.6-2.9,1-4.3,1.5c-2.5,0.8-5,1.3-7.6,1.7c-0.5,0.1-0.8,0.1-1.3,0.2c-3,0.4-5.8,0.9-8.7,1.2
		c-1.4,0.2-2.8,0.4-4.2,0.6c-0.5,0.1-1.1,0.2-1.7,0.3c-0.8,0.1-1.6,0.3-2.3,0.4c-1.3,0.2-2.5,0.6-3.6,1c-1.2,0.4-2.3,0.8-3.2,1.3
		c-1,0.5-1.8,1.1-2.6,1.8c-0.2,0.2-0.3,0.3-0.5,0.5c-0.1,0.2-0.3,0.4-0.4,0.5l-0.1,0.1l0,0l0,0l0,0l0,0l0,0l-0.1,0.2l-0.2,0.4
		c-0.1,0.1-0.2,0.3-0.2,0.4l-0.2,0.3c-0.2,0.4-0.5,0.8-0.7,1.2c-0.1,0.2-0.2,0.4-0.3,0.6s-0.2,0.4-0.2,0.6c-0.2,0.8-0.3,1.6-0.3,2.3
		c0.1,1.1,0.6,2,1.1,2.8c0.5,0.3,1.1,0.5,1.8,0.6c0.1-0.1,0.1-0.3,0.2-0.4c0-0.2,0.1-0.3,0.2-0.4c0-0.2,0.1-0.3,0.2-0.4l0.2-0.3
		l0.1-0.2l0-0.1l0,0l0,0l0.1-0.1l0.1-0.1c0.2-0.3,0.4-0.6,0.5-0.9c0.2-0.3,0.4-0.5,0.6-0.8c0.9-1.1,2-2.1,3.2-2.8
		c1.2-0.8,2.5-1.4,3.8-2s2.7-1,4.1-1.4c1.4-0.4,2.8-0.7,4.3-1.1c0.8-0.1,1.4-0.3,2.2-0.5c0.7-0.1,1.4-0.3,2.2-0.4
		c2.9-0.5,5.8-0.9,8.6-1.4c0.8-0.1,1.6-0.3,2.4-0.4c2-0.4,4-0.8,5.9-1.2c0.7-0.2,1.3-0.3,2-0.5c0.7-0.2,1.3-0.4,1.9-0.6
		c0.3-0.1,0.6-0.2,0.9-0.3l0.4-0.2c0.2,0,0.3-0.1,0.4-0.2c0.3-0.1,0.7-0.3,0.9-0.4l0.2,0l0.1,0l0,0l0,0l0,0c0,0,0,0-0.1,0l0.2-0.1
		l0.4-0.2c0.6-0.3,1.2-0.6,1.8-0.9c0.6-0.3,1.1-0.6,1.7-0.8c1.2-0.5,2.3-1.3,3.3-1.8c1.1-0.7,2.1-1.2,3.1-1.8c0.5-0.3,1-0.6,1.5-0.9
		c0.5-0.3,0.9-0.6,1.4-0.9c0.9-0.6,1.7-1.2,2.6-1.7c0.8-0.5,1.6-1.1,2.4-1.6c1.5-1,2.7-2,3.7-2.7c1-0.8,1.9-1.4,2.4-1.8
		s0.8-0.7,0.8-0.7s-0.8,1.2-2.5,3.3c-0.8,1-1.9,2.2-3.1,3.5c-0.6,0.6-1.3,1.3-2,2.1c-0.4,0.4-0.7,0.7-1.1,1.1
		c-0.4,0.4-0.8,0.8-1.2,1.1c-1.3,1.2-2.6,2.3-4.2,3.4c2.2-1,3.6-1.6,3.8-1.7l0,0c0.1,0,0.2,0,0.2,0c3.9-0.7,7-2.9,10-5.3
		c1.6-1.4,3-2.3,5-2.7c0.6-0.1,1.2-0.1,1.9-0.1c0.6,0,1.2-0.1,1.9-0.2c6-1.1,13.8-6.8,15-7.9c0.7-0.6,1.2-0.9,1.6-1
		c1.1-0.2,1.7,1,2.6,2C167.6,57.3,170,67.5,170.9,77.6z"/>
	<path fill="#5596C0" d="M132.4,104.5c0.5,1.2,1,2.3,1.5,3.4l1.5,3.4l0.8,1.7c0.3,0.6,0.5,1.1,0.8,1.7c0.3,0.6,0.5,1.1,0.8,1.7
		c0.2,0.5,0.5,1.1,0.8,1.6c0.2,0.5,0.6,1.1,0.8,1.6c0.3,0.5,0.6,1.1,0.9,1.6c0.3,0.5,0.6,1,0.9,1.5l0.4,0.8l0.5,0.7
		c0.1,0.2,0.3,0.5,0.5,0.7c0.2,0.2,0.3,0.5,0.5,0.7l0.5,0.7l0.6,0.7c0.2,0.2,0.4,0.4,0.6,0.6l0.3,0.3l0.3,0.3
		c0.4,0.4,0.8,0.8,1.3,1.2l1.9,1.6l-2.1,0.8c-0.7,0.3-1.5,0.6-2.3,0.8l-1.1,0.4c-0.4,0.1-0.7,0.3-1.1,0.4s-0.7,0.3-1.1,0.5
		c-0.4,0.1-0.7,0.4-1.1,0.6c-0.7,0.4-1.4,0.8-2.2,1.2c0.5-0.6,1-1.3,1.5-1.9c0.5-0.6,1.2-1.2,1.9-1.7c0.7-0.5,1.4-1,2.1-1.5
		c0.4-0.2,0.7-0.4,1.1-0.7c0.4-0.2,0.7-0.4,1.1-0.7l-0.2,2.4c-0.5-0.4-1.1-0.7-1.7-1.1l-0.4-0.3l-0.4-0.3c-0.3-0.2-0.5-0.4-0.7-0.6
		l-0.8-0.7l-0.7-0.7c-0.2-0.3-0.4-0.5-0.6-0.8c-0.2-0.3-0.4-0.5-0.6-0.8c-0.4-0.6-0.7-1-1.1-1.6c-0.3-0.6-0.7-1.1-1-1.7
		c-0.3-0.6-0.6-1.1-0.9-1.7c-0.3-0.6-0.6-1.1-0.8-1.7c-0.3-0.6-0.4-1.2-0.7-1.7c-0.2-0.6-0.4-1.2-0.6-1.8c-0.2-0.6-0.4-1.2-0.5-1.9
		c-0.2-0.6-0.3-1.2-0.4-1.9c-0.1-0.6-0.2-1.2-0.3-1.9c-0.1-0.6-0.1-1.2-0.3-1.9c0-0.6-0.1-1.2-0.2-1.9
		C132.4,105.7,132.4,105.1,132.4,104.5z"/>
</g>
</svg>
