<svg xmlns="http://www.w3.org/2000/svg" viewBox="0 0 200 200"><path fill="#254164" d="M200 0v200H0V0h200z"/><g fill="#FFFFF8"><path d="M103 161.7c0 5.1-.9 8.5-7.5 8.5-5.3 0-7.2-3.4-9.4-7.1l-.1-.3-13.3 7.4.2.4c3.1 6 9.6 13.2 23.6 13.2 15.1 0 23.5-7.9 23.5-21.8v-49h-17v48.7zM162 140.9l-3.9-1.5c-6.9-2.7-9.3-4.4-9.3-8.2 0-3.3 2.9-5.6 7-5.6 4.4 0 7.1 1.6 9.7 5.9l.2.4 12.9-7.5-.2-.4c-5-8-11.9-11.5-22.5-11.5-13.7 0-23.2 7.9-23.2 19.1 0 12.7 9.1 17.9 19 21.7l3.9 1.5c6.9 2.7 11.1 4.4 11.1 9 0 3.9-4.1 6.6-10.1 6.6-8.3 0-12.4-4.5-15-8.4l-.2-.3-13.4 7.1.2.4c3.1 5.5 10.8 14.7 28.7 14.7 15.9 0 26.2-7.9 26.2-20.2-.1-12.3-7.8-17.6-21.1-22.8z"/></g></svg>