<?xml version="1.0" encoding="utf-8"?>
<!-- Generator: Adobe Illustrator 18.0.0, SVG Export Plug-In . SVG Version: 6.00 Build 0)  -->
<!DOCTYPE svg PUBLIC "-//W3C//DTD SVG 1.1//EN" "http://www.w3.org/Graphics/SVG/1.1/DTD/svg11.dtd">
<svg version="1.1" id="Layer_1" xmlns="http://www.w3.org/2000/svg" xmlns:xlink="http://www.w3.org/1999/xlink" x="0px" y="0px"
	 viewBox="0 0 300 300" enable-background="new 0 0 300 300" xml:space="preserve">
<g>
	<g opacity="0.25">
		<path fill="#162636" d="M271.7,107c-3.2-3.9-7.7-6.1-12.5-6.1c-1.7,0-3.4,0.3-5.1,0.8c5.9-6.4,11.5-13.3,15.6-21
			c1.1-2,2.1-4.3,2.5-6.9c0.6-4.3-0.9-8.3-4.1-11.2c-2.7-2.5-6.1-3.8-9.9-3.8c-2,0-4.2,0.4-6.3,1.2c1.3-3.8,2.1-9.8-2.9-14.9
			c-2.7-2.7-6.9-4.3-11.4-4.3c-1.6,0-3.1,0.2-4.4,0.6c-6.8,1.8-11.3,5.7-15.1,9.5c-9.2,9.3-17.5,18-26.3,27.3
			c-7.4,7.8-15,15.8-23.1,24.1c-0.9,1-1.6,1.6-2,1.9c-0.3-0.2-0.6-0.4-1-0.7c-6.1-5-12.2-9.4-19.6-9.4c-6.1,0-11.4,2.8-18.6,7.7
			c-1.6,1.1-3.1,2.1-4.5,3.2c-4.5,3.2-8.7,6.2-13.3,8.2c-0.2,0.1-0.8,0.2-1.2,0.3c-1.5,0.3-3.3,0.7-5.2,1.6
			c-2.1,1.1-3.7,2.7-4.7,4.6c-0.5-0.1-1.1-0.1-1.6-0.1c-2.2,0-6.3,0.8-9.3,6.1c-5.2,9.3-14,15.6-23.4,22.3c-0.7,0.5-1.5,1.1-2.2,1.6
			l-1.2,0.9c-5.5,3.9-11.1,8-16.1,13.3c-4.1,4.4-7.9,9.3-7.4,15.6c0.5,6.2,5,10.5,9.3,13.9c4.2,3.3,8.6,6.2,12.8,9.1
			c2,1.4,4.2,2.8,6.2,4.3c17.4,12.3,23.3,23.1,22.3,41.4c-0.2,4.7,1,12.8,11.8,14.9c12.3,2.4,22.1,3.5,30.8,3.5c0.5,0,1,0,1.5,0
			c0.6,0,1.2,0,1.8,0c10,0,19.9-1.2,31.1-3.7c11.2-2.5,12.1-10.9,11.7-15.7c-1-10.1,1.6-19.5,7.9-28.7c6.6-9.6,13.2-17.3,20.4-23.6
			c7.5-6.6,14.1-14.4,20.4-21.9c4.6-5.5,9-10.7,13.7-15.4c3.7-3.8,7.6-7.1,11.8-10.7c6.6-5.7,13.4-11.6,19.4-19.1
			c1.3-1.6,3.2-4.1,4.3-7.2C275.8,115.5,274.9,110.9,271.7,107z"/>
		<path fill="#162636" d="M53.7,102c3.3,1.1,6.7,2.1,9.9,2.9c3.2,0.8,6.3,1.4,8.9,1.7c2.7,0.4,4.9,0.5,6.5,0.6c0.8,0,1.4,0,1.9,0
			c0.4,0,0.7,0,0.7,0s-0.2-0.2-0.5-0.4c-0.3-0.3-0.8-0.7-1.5-1.1c-1.3-0.9-3.2-2.2-5.5-3.5c-2.3-1.3-5.1-2.8-8.1-4.1
			c-3-1.4-6.3-2.6-9.6-3.8c-3.3-1.1-6.7-2.1-9.9-2.9c-3.2-0.8-6.3-1.4-8.9-1.7c-2.7-0.4-4.9-0.5-6.5-0.6c-0.8,0-1.4,0-1.9,0
			c-0.4,0-0.7,0-0.7,0s0.2,0.2,0.5,0.4c0.3,0.3,0.8,0.7,1.5,1.1c1.3,0.9,3.2,2.2,5.5,3.5c2.3,1.3,5.1,2.8,8.1,4.1
			C47.1,99.6,50.4,100.8,53.7,102z"/>
		<path fill="#162636" d="M77.1,55c0.3,2.7,0.8,5.8,1.6,9c0.7,3.3,1.6,6.7,2.7,10.1c1.1,3.4,2.3,6.7,3.6,9.8c1.3,3.1,2.7,5.9,4,8.3
			c1.3,2.4,2.5,4.3,3.4,5.7c0.4,0.7,0.9,1.2,1.1,1.5c0.3,0.4,0.4,0.5,0.4,0.5s0-0.2,0-0.7c0-0.4,0-1.1,0-1.9c0-1.6-0.2-3.9-0.5-6.6
			c-0.3-2.7-0.8-5.8-1.6-9c-0.7-3.3-1.7-6.7-2.7-10.1c-1.1-3.4-2.3-6.7-3.6-9.8c-1.3-3.1-2.7-5.9-4-8.3c-1.3-2.4-2.5-4.3-3.4-5.7
			c-0.4-0.7-0.9-1.2-1.1-1.5c-0.3-0.4-0.4-0.5-0.4-0.5s0,0.2,0,0.7c0,0.4,0,1.1,0,1.9C76.7,50.1,76.8,52.4,77.1,55z"/>
		<path fill="#162636" d="M108,92.7c0,0.3,0.1,0.5,0.1,0.5s0.1-0.1,0.4-0.4c0.2-0.3,0.6-0.6,0.9-1.1c0.8-1,1.8-2.4,2.8-4.1
			c1.1-1.7,2.1-3.8,3.1-6.1c1-2.3,1.9-4.7,2.7-7.3c0.8-2.5,1.4-5.1,1.8-7.5c0.4-2.4,0.6-4.8,0.7-6.8c0.1-2,0-3.8-0.1-5
			c0-0.6-0.1-1.1-0.2-1.4c0-0.3-0.1-0.5-0.1-0.5s-0.1,0.1-0.4,0.4c-0.2,0.3-0.6,0.6-0.9,1.1c-0.8,1-1.8,2.4-2.9,4.1
			c-1.1,1.7-2.1,3.8-3.1,6.1c-1,2.3-1.9,4.7-2.7,7.3c-0.7,2.5-1.4,5.1-1.8,7.5c-0.4,2.4-0.6,4.8-0.7,6.8c-0.1,2,0,3.8,0.1,5
			C107.9,91.9,108,92.4,108,92.7z"/>
	</g>
	<g>
		<path fill="#162636" d="M234.1,42.1c2,0,4.3,0.6,5.6,1.9c2.1,2.1,1.7,4.7,0.7,7.1c-2.4,6.2-5.6,10.2-9.9,15
			c-7.2,8.2-14.7,16-21.9,24.2c-2.3,2.7-10.6,14.9-10.6,14.9s10.2-5.5,15.1-10c6.5-5.9,18.5-15.4,26-24.3c3.3-3.9,6.4-8,11.4-9.9
			c1.4-0.5,2.8-0.9,4.1-0.9c1.6,0,3.1,0.5,4.4,1.6c2.8,2.5,1.3,5.6-0.1,8.3c-4.7,8.9-12,17-18.9,24.1c-8.2,8.5-14.3,15.1-18.6,19.6
			c-4.3,4.5-13.2,18.1-13.2,18.1s8.5-5.9,10.7-7.2c5.2-3.1,9.2-5.5,12.2-8c3.5-2.8,7.8-5.1,12.3-8.7c2.3-1.9,5-3.3,7.7-4.6
			c1.5-0.7,3.1-1.1,4.5-1.1c2.3,0,4.4,1,6.2,3.1c3.1,3.8,0.5,7.2-1.8,10c-8.9,11.2-20.4,18.9-30.5,29.1
			c-11.6,11.7-21.4,26.1-33.7,36.9c-8.4,7.4-15.4,15.9-21.7,25.1c-7,10.3-10.5,21.6-9.3,34.1c0.4,4.5-1.3,6.1-5.3,7
			c-9.4,2.1-18.9,3.5-29.3,3.5c-0.6,0-1.2,0-1.8,0c-0.5,0-1,0-1.5,0c-9.4,0-19.4-1.4-29.3-3.3c-3.7-0.7-5.4-2.2-5.2-6.4
			c1.2-22.5-7.2-35.4-25.7-48.5c-6.2-4.4-12.7-8.5-18.7-13.2c-8.1-6.3-8.1-9.8-1-17.4c4.8-5.1,10.5-9.1,16.1-13.1
			c10.5-7.6,21.4-14.8,27.9-26.5c0.8-1.4,1.5-1.9,2.2-1.9c0.8,0,1.6,0.7,2.4,1.8c2.2,2.9,2.9,6.1,1.8,9.8
			c-1.8,5.9-5.3,10.8-9.3,15.2c-4.6,5-5.7,10.7-3,16.7c2.6,5.7,8.2,7.1,13.8,7.1c0.3,0,0.7,0,1,0c18.8-0.5,39.8-16.9,45.2-34.9
			c0.9-3.2,1.1-6.4,0.6-9.6c-0.8-4.7-4.2-7.4-8.7-7.4c-0.6,0-1.3,0-1.9,0.2c-5.5,0.8-9.7,4.1-14.3,6.8c-2.7,1.5-5.6,3.3-8.5,3.3
			c-1.4,0-2.9-0.4-4.4-1.4c-3.5-2.4-5.6-6.8-5.8-10.7c-0.1-3,4.6-2.5,7.1-3.6c7.1-3.1,13-7.9,19.3-12.2c6.2-4.2,10.2-6.3,14-6.3
			c4.2,0,8.2,2.5,14.5,7.6c2.4,2,4.4,2.9,6.2,2.9c2.5,0,4.7-1.7,7.7-4.7c17.6-17.9,32.3-34.2,49.4-51.3c3.4-3.4,6.7-6.1,11.4-7.4
			C232.5,42.2,233.3,42.1,234.1,42.1 M234.1,33.9c-1.6,0-3.1,0.2-4.4,0.6c-6.8,1.8-11.3,5.7-15.1,9.5c-9.2,9.3-17.5,18-26.3,27.3
			c-7.4,7.8-15,15.8-23.1,24.1c-0.9,1-1.6,1.6-2,1.9c-0.3-0.2-0.6-0.4-1-0.7c-6.1-5-12.2-9.4-19.6-9.4c-6.1,0-11.4,2.8-18.6,7.7
			c-1.6,1.1-3.1,2.1-4.5,3.2c-4.5,3.2-8.7,6.2-13.3,8.2c-0.2,0.1-0.8,0.2-1.2,0.3c-1.5,0.3-3.3,0.7-5.2,1.6
			c-2.1,1.1-3.7,2.7-4.7,4.6c-0.5-0.1-1.1-0.1-1.6-0.1c-2.2,0-6.3,0.8-9.3,6.1c-5.2,9.3-14,15.6-23.4,22.3c-0.7,0.5-1.5,1.1-2.2,1.6
			l-1.2,0.9c-5.5,3.9-11.1,8-16.1,13.3c-4.1,4.4-7.9,9.3-7.4,15.6c0.5,6.2,5,10.5,9.3,13.9c4.2,3.3,8.6,6.2,12.8,9.1
			c2,1.4,4.2,2.8,6.2,4.3c17.4,12.3,23.3,23.1,22.3,41.4c-0.2,4.7,1,12.8,11.8,14.9c12.3,2.4,22.1,3.5,30.8,3.5c0.5,0,1,0,1.5,0
			c0.6,0,1.2,0,1.8,0c10,0,19.9-1.2,31.1-3.7c11.2-2.5,12.1-10.9,11.7-15.7c-1-10.1,1.6-19.5,7.9-28.7c6.6-9.6,13.2-17.3,20.4-23.6
			c7.5-6.6,14.1-14.4,20.4-21.9c4.6-5.5,9-10.7,13.7-15.4c3.7-3.8,7.6-7.1,11.8-10.7c6.6-5.7,13.4-11.6,19.4-19.1
			c1.3-1.6,3.2-4.1,4.3-7.2c1.5-4.6,0.6-9.2-2.6-13.1c-3.2-3.9-7.7-6.1-12.5-6.1c-1.7,0-3.4,0.3-5.1,0.8c5.9-6.4,11.5-13.3,15.6-21
			c1.1-2,2.1-4.3,2.5-6.9c0.6-4.3-0.9-8.3-4.1-11.2c-2.7-2.5-6.1-3.8-9.9-3.8c-2,0-4.2,0.4-6.3,1.2c1.3-3.8,2.1-9.8-2.9-14.9
			C242.8,35.5,238.7,33.9,234.1,33.9L234.1,33.9z M112.2,137.7c5,0,9.2-2.4,12.3-4.2l0.3-0.2c1.1-0.6,2.1-1.3,3.2-1.9
			c3-1.9,5.6-3.5,8.3-3.9c0.2,0,0.5-0.1,0.7-0.1c0.2,0,0.4,0,0.5,0c0,0.1,0.1,0.2,0.1,0.5c0.3,2.1,0.2,4.1-0.3,6
			c-2.1,7-7.4,14.2-14.7,19.9c-7.3,5.6-15.6,9-22.8,9.2c-0.3,0-0.5,0-0.8,0c-5.3,0-6-1.5-6.4-2.3c-0.9-2.1-1.4-4.4,1.6-7.7
			c5.3-5.8,8.7-11.2,10.7-17.1C107.2,137.1,109.6,137.7,112.2,137.7L112.2,137.7z"/>
		<path fill="#FFFFFF" d="M260.2,115.4c-8.9,11.2-20.4,18.9-30.5,29.1c-11.6,11.7-21.4,26.1-33.7,36.9c-8.4,7.4-15.4,15.9-21.7,25.1
			c-7,10.3-10.5,21.6-9.3,34.1c0.4,4.5-1.3,6.1-5.3,7c-10,2.2-20,3.6-31.1,3.5c-9.8,0.2-20.3-1.3-30.8-3.3c-3.7-0.7-5.4-2.2-5.2-6.4
			c1.2-22.5-7.2-35.4-25.7-48.5c-6.2-4.4-12.7-8.5-18.7-13.2c-8.1-6.3-8.1-9.8-1-17.4c4.8-5.1,10.5-9.1,16.1-13.1
			c10.5-7.6,21.4-14.8,27.9-26.5c1.6-2.9,3-2.1,4.6-0.1c2.2,2.9,2.9,6.1,1.8,9.8c-1.8,5.9-5.3,10.8-9.3,15.2c-4.6,5-5.7,10.7-3,16.7
			c2.8,6.1,8.9,7.2,14.8,7c18.8-0.5,39.8-16.9,45.2-34.9c0.9-3.2,1.1-6.4,0.6-9.6c-0.9-5.4-5.2-8-10.6-7.2
			c-5.5,0.8-9.7,4.1-14.3,6.8c-4,2.3-8.4,5-12.9,1.9c-3.5-2.4-5.6-6.8-5.8-10.7c-0.1-3,4.6-2.5,7.1-3.6c7.1-3.1,13-7.9,19.3-12.2
			c12.8-8.7,16.4-8.5,28.5,1.3c5.7,4.6,8.8,3.5,14-1.8c17.6-17.9,32.3-34.2,49.4-51.3c3.4-3.4,6.7-6.1,11.4-7.4
			c2.2-0.6,6.1-0.3,7.9,1.6c2.1,2.1,1.7,4.7,0.7,7.1c-2.4,6.2-5.6,10.2-9.9,15c-7.2,8.2-14.7,16-21.9,24.2
			c-2.3,2.7-10.6,14.9-10.6,14.9s10.2-5.5,15.1-10c6.5-5.9,18.5-15.4,26-24.3c3.3-3.9,6.4-8,11.4-9.9c2.9-1.2,6.1-1.4,8.5,0.8
			c2.8,2.5,1.3,5.6-0.1,8.3c-4.7,8.9-12,17-18.9,24.1c-8.2,8.5-14.3,15.1-18.6,19.6c-4.3,4.5-13.2,18.1-13.2,18.1s8.5-5.9,10.7-7.2
			c5.2-3.1,9.2-5.5,12.2-8c3.5-2.8,7.8-5.1,12.3-8.7c2.3-1.9,5-3.3,7.7-4.6c3.9-1.9,7.8-1.5,10.7,2
			C265.1,109.1,262.5,112.5,260.2,115.4z"/>
		<path fill="#162636" d="M25,82.2c0,0,0.2,0,0.7,0c0.4,0,1.1,0,1.9,0c1.6,0.1,3.9,0.2,6.5,0.6c2.7,0.4,5.7,0.9,8.9,1.7
			c3.2,0.8,6.6,1.8,9.9,2.9c3.3,1.1,6.6,2.4,9.6,3.8c3,1.3,5.8,2.8,8.1,4.1c2.3,1.3,4.2,2.6,5.5,3.5c0.7,0.5,1.2,0.9,1.5,1.1
			c0.3,0.3,0.5,0.4,0.5,0.4s-0.2,0-0.7,0c-0.4,0-1.1,0-1.9,0c-1.6-0.1-3.9-0.2-6.5-0.6c-2.7-0.4-5.7-0.9-8.9-1.7
			c-3.2-0.8-6.6-1.8-9.9-2.9c-3.3-1.1-6.6-2.4-9.6-3.8c-3-1.3-5.8-2.8-8.1-4.1c-2.3-1.3-4.2-2.6-5.5-3.5c-0.7-0.5-1.2-0.9-1.5-1.1
			C25.2,82.4,25,82.2,25,82.2z"/>
		<path fill="#162636" d="M73.3,39.1c0,0,0.2,0.2,0.4,0.5c0.3,0.4,0.7,0.9,1.1,1.5c0.9,1.3,2.1,3.3,3.4,5.7c1.3,2.4,2.7,5.2,4,8.3
			c1.3,3.1,2.5,6.4,3.6,9.8c1.1,3.4,2,6.8,2.7,10.1c0.7,3.3,1.2,6.3,1.6,9c0.3,2.7,0.5,5,0.5,6.6c0,0.8,0,1.5,0,1.9
			c0,0.4,0,0.7,0,0.7s-0.2-0.2-0.4-0.5c-0.3-0.4-0.7-0.9-1.1-1.5c-0.9-1.3-2.1-3.3-3.4-5.7c-1.3-2.4-2.7-5.2-4-8.3
			c-1.3-3.1-2.5-6.4-3.6-9.8c-1.1-3.4-2-6.8-2.7-10.1c-0.7-3.3-1.2-6.3-1.6-9c-0.3-2.7-0.5-5-0.5-6.6c0-0.8,0-1.5,0-1.9
			C73.2,39.3,73.3,39.1,73.3,39.1z"/>
		<path fill="#162636" d="M104.7,86.4c0,0,0-0.2-0.1-0.5c0-0.3-0.1-0.8-0.2-1.4c-0.1-1.2-0.2-3-0.1-5c0.1-2,0.3-4.4,0.7-6.8
			c0.4-2.4,1-5,1.8-7.5c0.8-2.5,1.7-5,2.7-7.3c1-2.3,2.1-4.3,3.1-6.1c1.1-1.7,2.1-3.1,2.9-4.1c0.4-0.5,0.7-0.9,0.9-1.1
			c0.2-0.3,0.4-0.4,0.4-0.4s0,0.2,0.1,0.5c0,0.3,0.1,0.8,0.2,1.4c0.1,1.2,0.2,3,0.1,5c-0.1,2-0.3,4.4-0.7,6.8c-0.4,2.4-1,5-1.8,7.5
			c-0.8,2.5-1.7,5-2.7,7.3c-1,2.3-2.1,4.3-3.1,6.1c-1.1,1.7-2.1,3.1-2.8,4.1c-0.4,0.5-0.7,0.9-0.9,1.1
			C104.8,86.3,104.7,86.4,104.7,86.4z"/>
	</g>
</g>
</svg>
