<svg xmlns="http://www.w3.org/2000/svg" viewBox="0 0 300 300"><g opacity=".25" fill="#162636"><path d="M271.7 107c-3.2-3.9-7.7-6.1-12.5-6.1-1.7 0-3.4.3-5.1.8 5.9-6.4 11.5-13.3 15.6-21 1.1-2 2.1-4.3 2.5-6.9.6-4.3-.9-8.3-4.1-11.2-2.7-2.5-6.1-3.8-9.9-3.8-2 0-4.2.4-6.3 1.2 1.3-3.8 2.1-9.8-2.9-14.9-2.7-2.7-6.9-4.3-11.4-4.3-1.6 0-3.1.2-4.4.6-6.8 1.8-11.3 5.7-15.1 9.5-9.2 9.3-17.5 18-26.3 27.3-7.4 7.8-15 15.8-23.1 24.1-.9 1-1.6 1.6-2 1.9-.3-.2-.6-.4-1-.7-6.1-5-12.2-9.4-19.6-9.4-6.1 0-11.4 2.8-18.6 7.7-1.6 1.1-3.1 2.1-4.5 3.2-4.5 3.2-8.7 6.2-13.3 8.2-.2.1-.8.2-1.2.3-1.5.3-3.3.7-5.2 1.6-2.1 1.1-3.7 2.7-4.7 4.6-.5-.1-1.1-.1-1.6-.1-2.2 0-6.3.8-9.3 6.1-5.2 9.3-14 15.6-23.4 22.3-.7.5-1.5 1.1-2.2 1.6l-1.2.9c-5.5 3.9-11.1 8-16.1 13.3-4.1 4.4-7.9 9.3-7.4 15.6.5 6.2 5 10.5 9.3 13.9 4.2 3.3 8.6 6.2 12.8 9.1 2 1.4 4.2 2.8 6.2 4.3C83.1 219 89 229.8 88 248.1c-.2 4.7 1 12.8 11.8 14.9 12.3 2.4 22.1 3.5 30.8 3.5h3.3c10 0 19.9-1.2 31.1-3.7 11.2-2.5 12.1-10.9 11.7-15.7-1-10.1 1.6-19.5 7.9-28.7 6.6-9.6 13.2-17.3 20.4-23.6 7.5-6.6 14.1-14.4 20.4-21.9 4.6-5.5 9-10.7 13.7-15.4 3.7-3.8 7.6-7.1 11.8-10.7 6.6-5.7 13.4-11.6 19.4-19.1 1.3-1.6 3.2-4.1 4.3-7.2 1.2-5 .3-9.6-2.9-13.5zM53.7 102c3.3 1.1 6.7 2.1 9.9 2.9 3.2.8 6.3 1.4 8.9 1.7 2.7.4 4.9.5 6.5.6H81.6s-.2-.2-.5-.4c-.3-.3-.8-.7-1.5-1.1-1.3-.9-3.2-2.2-5.5-3.5-2.3-1.3-5.1-2.8-8.1-4.1-3-1.4-6.3-2.6-9.6-3.8-3.3-1.1-6.7-2.1-9.9-2.9-3.2-.8-6.3-1.4-8.9-1.7-2.7-.4-4.9-.5-6.5-.6H28.5s.2.2.5.4c.3.3.8.7 1.5 1.1 1.3.9 3.2 2.2 5.5 3.5 2.3 1.3 5.1 2.8 8.1 4.1 3 1.4 6.3 2.6 9.6 3.8zM77.1 55c.3 2.7.8 5.8 1.6 9 .7 3.3 1.6 6.7 2.7 10.1 1.1 3.4 2.3 6.7 3.6 9.8 1.3 3.1 2.7 5.9 4 8.3 1.3 2.4 2.5 4.3 3.4 5.7.4.7.9 1.2 1.1 1.5.3.4.4.5.4.5v-.7-1.9c0-1.6-.2-3.9-.5-6.6-.3-2.7-.8-5.8-1.6-9-.7-3.3-1.7-6.7-2.7-10.1-1.1-3.4-2.3-6.7-3.6-9.8-1.3-3.1-2.7-5.9-4-8.3-1.3-2.4-2.5-4.3-3.4-5.7-.4-.7-.9-1.2-1.1-1.5-.3-.4-.4-.5-.4-.5V48.4c.1 1.7.2 4 .5 6.6zM108 92.7c0 .3.1.5.1.5l.4-.4c.2-.3.6-.6.9-1.1.8-1 1.8-2.4 2.8-4.1 1.1-1.7 2.1-3.8 3.1-6.1s1.9-4.7 2.7-7.3c.8-2.5 1.4-5.1 1.8-7.5.4-2.4.6-4.8.7-6.8.1-2 0-3.8-.1-5 0-.6-.1-1.1-.2-1.4 0-.3-.1-.5-.1-.5l-.4.4c-.2.3-.6.6-.9 1.1-.8 1-1.8 2.4-2.9 4.1-1.1 1.7-2.1 3.8-3.1 6.1s-1.9 4.7-2.7 7.3c-.7 2.5-1.4 5.1-1.8 7.5-.4 2.4-.6 4.8-.7 6.8-.1 2 0 3.8.1 5 .2.6.3 1.1.3 1.4z"/></g><path fill="#162636" d="M234.1 42.1c2 0 4.3.6 5.6 1.9 2.1 2.1 1.7 4.7.7 7.1-2.4 6.2-5.6 10.2-9.9 15-7.2 8.2-14.7 16-21.9 24.2-2.3 2.7-10.6 14.9-10.6 14.9s10.2-5.5 15.1-10c6.5-5.9 18.5-15.4 26-24.3 3.3-3.9 6.4-8 11.4-9.9 1.4-.5 2.8-.9 4.1-.9 1.6 0 3.1.5 4.4 1.6 2.8 2.5 1.3 5.6-.1 8.3-4.7 8.9-12 17-18.9 24.1-8.2 8.5-14.3 15.1-18.6 19.6-4.3 4.5-13.2 18.1-13.2 18.1s8.5-5.9 10.7-7.2c5.2-3.1 9.2-5.5 12.2-8 3.5-2.8 7.8-5.1 12.3-8.7 2.3-1.9 5-3.3 7.7-4.6 1.5-.7 3.1-1.1 4.5-1.1 2.3 0 4.4 1 6.2 3.1 3.1 3.8.5 7.2-1.8 10-8.9 11.2-20.4 18.9-30.5 29.1-11.6 11.7-21.4 26.1-33.7 36.9-8.4 7.4-15.4 15.9-21.7 25.1-7 10.3-10.5 21.6-9.3 34.1.4 4.5-1.3 6.1-5.3 7-9.4 2.1-18.9 3.5-29.3 3.5h-3.3c-9.4 0-19.4-1.4-29.3-3.3-3.7-.7-5.4-2.2-5.2-6.4 1.2-22.5-7.2-35.4-25.7-48.5-6.2-4.4-12.7-8.5-18.7-13.2-8.1-6.3-8.1-9.8-1-17.4 4.8-5.1 10.5-9.1 16.1-13.1 10.5-7.6 21.4-14.8 27.9-26.5.8-1.4 1.5-1.9 2.2-1.9.8 0 1.6.7 2.4 1.8 2.2 2.9 2.9 6.1 1.8 9.8-1.8 5.9-5.3 10.8-9.3 15.2-4.6 5-5.7 10.7-3 16.7 2.6 5.7 8.2 7.1 13.8 7.1h1c18.8-.5 39.8-16.9 45.2-34.9.9-3.2 1.1-6.4.6-9.6-.8-4.7-4.2-7.4-8.7-7.4-.6 0-1.3 0-1.9.2-5.5.8-9.7 4.1-14.3 6.8-2.7 1.5-5.6 3.3-8.5 3.3-1.4 0-2.9-.4-4.4-1.4-3.5-2.4-5.6-6.8-5.8-10.7-.1-3 4.6-2.5 7.1-3.6 7.1-3.1 13-7.9 19.3-12.2 6.2-4.2 10.2-6.3 14-6.3 4.2 0 8.2 2.5 14.5 7.6 2.4 2 4.4 2.9 6.2 2.9 2.5 0 4.7-1.7 7.7-4.7 17.6-17.9 32.3-34.2 49.4-51.3 3.4-3.4 6.7-6.1 11.4-7.4.8-.4 1.6-.5 2.4-.5m0-8.2c-1.6 0-3.1.2-4.4.6-6.8 1.8-11.3 5.7-15.1 9.5-9.2 9.3-17.5 18-26.3 27.3-7.4 7.8-15 15.8-23.1 24.1-.9 1-1.6 1.6-2 1.9-.3-.2-.6-.4-1-.7-6.1-5-12.2-9.4-19.6-9.4-6.1 0-11.4 2.8-18.6 7.7-1.6 1.1-3.1 2.1-4.5 3.2-4.5 3.2-8.7 6.2-13.3 8.2-.2.1-.8.2-1.2.3-1.5.3-3.3.7-5.2 1.6-2.1 1.1-3.7 2.7-4.7 4.6-.5-.1-1.1-.1-1.6-.1-2.2 0-6.3.8-9.3 6.1-5.2 9.3-14 15.6-23.4 22.3-.7.5-1.5 1.1-2.2 1.6l-1.2.9c-5.5 3.9-11.1 8-16.1 13.3-4.1 4.4-7.9 9.3-7.4 15.6.5 6.2 5 10.5 9.3 13.9 4.2 3.3 8.6 6.2 12.8 9.1 2 1.4 4.2 2.8 6.2 4.3 17.4 12.3 23.3 23.1 22.3 41.4-.2 4.7 1 12.8 11.8 14.9 12.3 2.4 22.1 3.5 30.8 3.5h3.3c10 0 19.9-1.2 31.1-3.7 11.2-2.5 12.1-10.9 11.7-15.7-1-10.1 1.6-19.5 7.9-28.7 6.6-9.6 13.2-17.3 20.4-23.6 7.5-6.6 14.1-14.4 20.4-21.9 4.6-5.5 9-10.7 13.7-15.4 3.7-3.8 7.6-7.1 11.8-10.7 6.6-5.7 13.4-11.6 19.4-19.1 1.3-1.6 3.2-4.1 4.3-7.2 1.5-4.6.6-9.2-2.6-13.1-3.2-3.9-7.7-6.1-12.5-6.1-1.7 0-3.4.3-5.1.8 5.9-6.4 11.5-13.3 15.6-21 1.1-2 2.1-4.3 2.5-6.9.6-4.3-.9-8.3-4.1-11.2-2.7-2.5-6.1-3.8-9.9-3.8-2 0-4.2.4-6.3 1.2 1.3-3.8 2.1-9.8-2.9-14.9-3-3.1-7.1-4.7-11.7-4.7zM112.2 137.7c5 0 9.2-2.4 12.3-4.2l.3-.2c1.1-.6 2.1-1.3 3.2-1.9 3-1.9 5.6-3.5 8.3-3.9.2 0 .5-.1.7-.1h.5c0 .1.1.2.1.5.3 2.1.2 4.1-.3 6-2.1 7-7.4 14.2-14.7 19.9-7.3 5.6-15.6 9-22.8 9.2H99c-5.3 0-6-1.5-6.4-2.3-.9-2.1-1.4-4.4 1.6-7.7 5.3-5.8 8.7-11.2 10.7-17.1 2.3 1.2 4.7 1.8 7.3 1.8z"/><path fill="#FFF" d="M260.2 115.4c-8.9 11.2-20.4 18.9-30.5 29.1-11.6 11.7-21.4 26.1-33.7 36.9-8.4 7.4-15.4 15.9-21.7 25.1-7 10.3-10.5 21.6-9.3 34.1.4 4.5-1.3 6.1-5.3 7-10 2.2-20 3.6-31.1 3.5-9.8.2-20.3-1.3-30.8-3.3-3.7-.7-5.4-2.2-5.2-6.4 1.2-22.5-7.2-35.4-25.7-48.5-6.2-4.4-12.7-8.5-18.7-13.2-8.1-6.3-8.1-9.8-1-17.4 4.8-5.1 10.5-9.1 16.1-13.1 10.5-7.6 21.4-14.8 27.9-26.5 1.6-2.9 3-2.1 4.6-.1 2.2 2.9 2.9 6.1 1.8 9.8-1.8 5.9-5.3 10.8-9.3 15.2-4.6 5-5.7 10.7-3 16.7 2.8 6.1 8.9 7.2 14.8 7 18.8-.5 39.8-16.9 45.2-34.9.9-3.2 1.1-6.4.6-9.6-.9-5.4-5.2-8-10.6-7.2-5.5.8-9.7 4.1-14.3 6.8-4 2.3-8.4 5-12.9 1.9-3.5-2.4-5.6-6.8-5.8-10.7-.1-3 4.6-2.5 7.1-3.6 7.1-3.1 13-7.9 19.3-12.2 12.8-8.7 16.4-8.5 28.5 1.3 5.7 4.6 8.8 3.5 14-1.8 17.6-17.9 32.3-34.2 49.4-51.3 3.4-3.4 6.7-6.1 11.4-7.4 2.2-.6 6.1-.3 7.9 1.6 2.1 2.1 1.7 4.7.7 7.1-2.4 6.2-5.6 10.2-9.9 15-7.2 8.2-14.7 16-21.9 24.2-2.3 2.7-10.6 14.9-10.6 14.9s10.2-5.5 15.1-10c6.5-5.9 18.5-15.4 26-24.3 3.3-3.9 6.4-8 11.4-9.9 2.9-1.2 6.1-1.4 8.5.8 2.8 2.5 1.3 5.6-.1 8.3-4.7 8.9-12 17-18.9 24.1-8.2 8.5-14.3 15.1-18.6 19.6-4.3 4.5-13.2 18.1-13.2 18.1s8.5-5.9 10.7-7.2c5.2-3.1 9.2-5.5 12.2-8 3.5-2.8 7.8-5.1 12.3-8.7 2.3-1.9 5-3.3 7.7-4.6 3.9-1.9 7.8-1.5 10.7 2 3.1 3.5.5 6.9-1.8 9.8z"/><path fill="#162636" d="M25 82.2H27.6c1.6.1 3.9.2 6.5.6 2.7.4 5.7.9 8.9 1.7 3.2.8 6.6 1.8 9.9 2.9 3.3 1.1 6.6 2.4 9.6 3.8 3 1.3 5.8 2.8 8.1 4.1 2.3 1.3 4.2 2.6 5.5 3.5.7.5 1.2.9 1.5 1.1.3.3.5.4.5.4H75.5c-1.6-.1-3.9-.2-6.5-.6-2.7-.4-5.7-.9-8.9-1.7-3.2-.8-6.6-1.8-9.9-2.9-3.3-1.1-6.6-2.4-9.6-3.8-3-1.3-5.8-2.8-8.1-4.1-2.3-1.3-4.2-2.6-5.5-3.5-.7-.5-1.2-.9-1.5-1.1-.3-.2-.5-.4-.5-.4zM73.3 39.1s.2.2.4.5c.3.4.7.9 1.1 1.5.9 1.3 2.1 3.3 3.4 5.7 1.3 2.4 2.7 5.2 4 8.3 1.3 3.1 2.5 6.4 3.6 9.8 1.1 3.4 2 6.8 2.7 10.1.7 3.3 1.2 6.3 1.6 9 .3 2.7.5 5 .5 6.6V93.2s-.2-.2-.4-.5c-.3-.4-.7-.9-1.1-1.5-.9-1.3-2.1-3.3-3.4-5.7-1.3-2.4-2.7-5.2-4-8.3-1.3-3.1-2.5-6.4-3.6-9.8-1.1-3.4-2-6.8-2.7-10.1-.7-3.3-1.2-6.3-1.6-9-.3-2.7-.5-5-.5-6.6v-1.9c-.1-.5 0-.7 0-.7zM104.7 86.4s0-.2-.1-.5c0-.3-.1-.8-.2-1.4-.1-1.2-.2-3-.1-5s.3-4.4.7-6.8c.4-2.4 1-5 1.8-7.5s1.7-5 2.7-7.3c1-2.3 2.1-4.3 3.1-6.1 1.1-1.7 2.1-3.1 2.9-4.1.4-.5.7-.9.9-1.1.2-.3.4-.4.4-.4s0 .2.1.5c0 .3.1.8.2 1.4.1 1.2.2 3 .1 5s-.3 4.4-.7 6.8c-.4 2.4-1 5-1.8 7.5s-1.7 5-2.7 7.3c-1 2.3-2.1 4.3-3.1 6.1-1.1 1.7-2.1 3.1-2.8 4.1-.4.5-.7.9-.9 1.1-.4.3-.5.4-.5.4z"/></svg>