<?xml version="1.0" encoding="utf-8"?>
<!-- Generator: Adobe Illustrator 18.0.0, SVG Export Plug-In . SVG Version: 6.00 Build 0)  -->
<!DOCTYPE svg PUBLIC "-//W3C//DTD SVG 1.1//EN" "http://www.w3.org/Graphics/SVG/1.1/DTD/svg11.dtd">
<svg version="1.1" id="Layer_1" xmlns="http://www.w3.org/2000/svg" xmlns:xlink="http://www.w3.org/1999/xlink" x="0px" y="0px"
	 viewBox="0 0 600 204" enable-background="new 0 0 600 204" xml:space="preserve">
<g>
	<g>
		<path fill="#5596C0" d="M36.5,16.6l0,106.2c0.2,16-5.1,16.5-6.8,16.7c-0.1,0-0.3,0-0.4,0c-3.9,0-6.3-7.6-7.6-11.7
			c-0.1-0.3-0.2-0.7-0.3-1l-1.7-5.5L0,144.4l0.4,1.6c4.7,17.6,14.4,27.7,26.7,27.7c1.4,0,2.8-0.1,4.2-0.4
			c10.8-1.9,19.1-8.9,24.2-20.4c5-11.2,5.7-24.2,5.7-30.9V20.5L36.5,16.6z"/>
		<path fill="#5596C0" d="M129.8,78.9c-1.8-1.1-2.7-1.7-4.6-2.8l0,0c-6.7-4-9.6-8.1-9.7-13.3c0-2.4,0.8-4.7,2.2-6.1
			c0.9-0.9,1.9-1.2,3.1-1.2c4.6,0.3,7.4,5.3,8.9,9.4l1.6,4.3l19.7-16l-0.9-2.3c-5.8-14.2-16-22.9-28.7-24.3
			c-1.1-0.1-2.1-0.2-3.2-0.2c-17.9,0-27.2,18-27.2,35.7c0,19.2,8.1,34,23.6,43c1.8,1.1,2.8,1.6,4.6,2.7c6.4,3.6,11.7,7.1,11.7,13.5
			c-0.1,5.3-4.1,9.6-9.4,10c-0.3,0-0.6,0-0.9,0c-3.9,0-9.5-2.2-13.9-12.7l-1.8-4.2L85,132.6l0.7,2c2.6,7.6,6.8,13.9,12.2,18.5
			c5.9,5,13,7.6,20.6,7.6c1.3,0,2.7-0.1,4-0.2c9.9-1.1,18.4-5.9,24.5-13.6c5.6-7.2,8.7-16.6,8.8-26.5
			C155.7,102.8,147.5,89.6,129.8,78.9z"/>
		<path fill="#5596C0" d="M252.6,107.9l-1.9,3.5c-3.5,6.4-9.8,14.1-20.2,14.4c-0.2,0-0.4,0-0.6,0c-7.2,0-13-3.5-17.3-10.3
			c-3.7-5.9-5.8-13.9-5.8-21.9c0-8,2.1-15.9,5.8-21.8c4.2-6.7,10-10.1,17.2-10.1c0.2,0,0.4,0,0.6,0c7.9,0.2,14.9,4.9,18.8,12.6
			l1.9,3.6l19.3-16l-1.3-2.4c-8.1-15-21.7-23.7-38.5-24.4c-0.7,0-1.3,0-2,0c-14.4,0-26.7,6.6-35.5,19.2
			c-7.5,10.7-11.8,24.9-11.8,39.2c0,14.3,4.3,28.6,11.8,39.3c8.8,12.6,21.1,19.3,35.6,19.3c0.7,0,1.3,0,2,0
			c16.9-0.7,31.5-10.3,40-26.1l1.3-2.4L252.6,107.9z"/>
		<path fill="#5596C0" d="M345.8,35.9c-0.4,0-0.9,0-1.4,0c-30.9,0.9-49.4,30-49.4,57.6c0,14.1,4.8,28.3,13.1,38.9
			c9.2,11.7,22.1,18.4,36.3,18.8c0.5,0,0.9,0,1.4,0c14.3,0,27-6.6,35.9-18.6c7.8-10.6,12.3-24.8,12.3-39s-4.5-28.4-12.3-39
			C372.8,42.6,360,35.9,345.8,35.9z M368.6,93.6c0,7.9-2.2,15.8-6,21.6c-3,4.6-8.5,10-17.5,10c-0.1,0-0.3,0-0.4,0
			c-15.7-0.3-24.1-16.5-24.1-31.6c0-15.1,8.5-31.3,24.1-31.6c0.1,0,0.3,0,0.4,0c9,0,14.5,5.4,17.5,10
			C366.4,77.8,368.6,85.7,368.6,93.6z"/>
		<path fill="#5596C0" d="M480.1,28c0,0,0.1,61.5,0.2,64.5c-1.2-1.8-3.7-5.3-3.7-5.3c-13.9-17.9-46.1-55.5-46.1-55.5l-6.5,0.5v121.7
			l23.7,2c0,0-0.1-58.5-0.3-61.2c1.2,1.7,49.3,67.5,49.3,67.5l7,0.9V25.2L480.1,28z"/>
		<path fill="#5596C0" d="M536.6,20.8v145.6l24.8,3.8v-44.7c10.6,0.7,35.2,2.4,35.2,2.4V92.2c0,0-24.5-0.1-35.2-0.1v-42
			c11.9-1.2,38.7-4.3,38.7-4.3V10.2L536.6,20.8z"/>
	</g>
	<g>
		<g>
			<path fill="#162636" d="M61.3,20.5v101.7c0,6.7-0.7,19.7-5.7,30.9c0,0,0,0,0,0c-0.7,2.8-1.7,4.3-2.7,5.2
				c-5.1,8.3-12.4,13.5-21.4,15.1c-1.4,0.3-2.9,0.4-4.2,0.4c-7.4,0-13.8-3.6-18.8-10.4l0,0c0,0,14.6,23.4,31.6,29.1
				c2,0.7,4.1,1.1,6.3,1.2c0.3,0,0.6,0,1,0c1.4,0,2.8-0.1,4.2-0.4c10.8-1.9,19.1-8.9,24.2-20.4c5-11.2,5.7-24.2,5.7-30.9V40.5
				L61.3,20.5z"/>
			<path fill="#162636" d="M21.8,127.9c1.3,4.1,3.6,11.7,7.6,11.7c0.1,0,0.3,0,0.4,0c1-0.1,3.1-0.3,4.7-3.5l-14.7-14.7l1.7,5.5
				C21.6,127.2,21.7,127.5,21.8,127.9z"/>
		</g>
		<g>
			<polygon fill="#162636" points="100.9,93.6 100.9,93.6 100.9,93.6 			"/>
			<path fill="#162636" d="M150.1,51l0.9,2.3l-19.7,16l-1.6-4.3c-1.5-4.1-4.3-9.1-8.9-9.4c-1.2-0.1-2.3,0.3-3.1,1.2
				c-1.3,1.3-2.2,3.7-2.2,6.1c0,5.2,3,9.3,9.7,13.3l0,0c1.8,1.1,2.7,1.7,4.6,2.8c0.3,0.2,0.6,0.4,0.9,0.5c0,0,0,0,0,0
				c-0.1-0.5-0.1-1.1-0.1-1.7c0-2.4,0.8-4.7,2.2-6.1c0.2-0.2,0.4-0.3,0.5-0.5l13.1,13.1l19.7-16l-0.9-2.3c-2.2-5.4-5-10-8.3-13.7
				l0,0c-2.5-3.5-8.6-9-13.9-13.7C145.7,42.1,148.2,46.3,150.1,51z"/>
			<path fill="#162636" d="M120.5,131.4c0.1,0,0.1,0,0.2,0l-0.8-1.9l-15-15l1.8,4.2C111.1,129.2,116.6,131.4,120.5,131.4z"/>
			<path fill="#162636" d="M119.2,107.9c-1.9-1.1-2.8-1.6-4.6-2.7c-4-2.3-7.5-5-10.5-8.1c4.6,5.1,13.1,14.4,18.2,18c0,0,0,0,0,0
				c2.2,1.9,4.6,3.6,7.3,5.1c0.5,0.3,0.9,0.5,1.3,0.8C130.7,114.9,125.5,111.5,119.2,107.9z"/>
			<path fill="#162636" d="M163.2,110.2C163.2,110.2,163.2,110.2,163.2,110.2c-0.1-0.2-0.3-0.4-0.4-0.6c0,0-0.1-0.1-0.1-0.1
				c-5.6-7.8-13.5-15.3-20-20.8c8.8,8.8,13,19.1,13,31.6c0,9.9-3.1,19.3-8.8,26.5c-6.1,7.8-14.6,12.5-24.5,13.6
				c-1.3,0.2-2.7,0.2-4,0.2c-7.6,0-14.7-2.6-20.6-7.6c-2.5-2.1-4.8-4.7-6.7-7.6c0,0,9.7,15.2,23.6,24c5.2,3.8,11.2,5.9,17.6,6.1
				c0.4,0,0.7,0,1.1,0c1.3,0,2.7-0.1,4-0.2c9.9-1.1,18.4-5.9,24.5-13.6c5.6-7.2,8.7-16.6,8.8-26.5
				C170.7,125.8,168.3,117.5,163.2,110.2z"/>
		</g>
		<g>
			<path fill="#162636" d="M269.2,59.6l1.3,2.4l-19.3,16l10,10l19.3-16l-1.3-2.4c-1.5-2.9-3.3-5.5-5.2-7.9c0,0,0,0,0,0
				c-5.9-8.6-14.6-15.3-18.3-17.9C261.1,47.8,265.7,53.1,269.2,59.6z"/>
			<path fill="#162636" d="M221.8,124c-3.2-5.8-5-13.1-5-20.5c0-8,2.1-15.9,5.8-21.8c4.2-6.7,10-10.1,17.2-10.1c0.2,0,0.4,0,0.6,0
				c3,0.1,6,0.8,8.6,2.2c-4-7.4-10.9-12-18.6-12.2c-0.2,0-0.4,0-0.6,0c-7.2,0-13,3.4-17.2,10.1c-3.7,5.9-5.8,13.8-5.8,21.8
				c0,8,2.1,16,5.8,21.9C215.2,119.5,218.2,122.4,221.8,124z"/>
			<path fill="#162636" d="M272.1,123.6l-1.3,2.4c-8.5,15.9-23.1,25.4-40,26.1c-0.7,0-1.4,0-2,0c-14.4,0-26.7-6.7-35.6-19.3
				c-1-1.4-1.9-2.8-2.7-4.3l0,0c0,0,17.2,31,42.1,33.1c0,0,0,0,0,0c2,0.3,4.1,0.4,6.2,0.4c0.7,0,1.3,0,2,0
				c16.9-0.7,31.5-10.3,40-26.1l1.3-2.4L272.1,123.6z"/>
			<path fill="#162636" d="M253.9,42.5C253.9,42.5,253.9,42.5,253.9,42.5L253.9,42.5C253.9,42.5,253.9,42.5,253.9,42.5z"/>
		</g>
		<g>
			<path fill="#162636" d="M381.7,132.6c-8.9,12-21.7,18.6-35.9,18.6c-0.5,0-0.9,0-1.4,0c-14.2-0.4-27.1-7.1-36.3-18.8
				c-8.3-10.6-13.1-24.8-13.1-38.9c0-21.2,10.9-43.2,29.8-52.8l0,0c0,0-15.6,6.4-28.9,26.8c-1.6,2.3-3,4.8-4.3,7.3c0,0,0,0,0,0l0,0
				c-4.4,8.8-6.7,18.8-6.7,28.6c0,14.1,4.8,28.3,13.1,38.9c9.2,11.7,22.1,18.4,36.3,18.8c0.5,0,0.9,0,1.4,0c3,0,5.9-0.3,8.7-0.9
				c0,0,0,0,0,0c0,0,0,0,0,0c1.2-0.2,2.3-0.5,3.5-0.8c0.1,0,0.2-0.1,0.3-0.1c0.1,0,0.2-0.1,0.4-0.1c16.2-4.7,26.6-15.7,35.6-30.5
				C383.4,130.1,382.6,131.4,381.7,132.6z"/>
			<path fill="#162636" d="M362.5,115.2c3.8-5.8,6-13.7,6-21.6c0-7.9-2.2-15.8-6-21.6c-3-4.6-8.5-10-17.5-10c-0.1,0-0.3,0-0.4,0
				c-8.7,0.2-15.2,5.2-19.2,12.3c2.7-1.4,5.8-2.2,9.2-2.3c0.1,0,0.3,0,0.4,0c9,0,14.5,5.4,17.5,10c3.8,5.8,6,13.7,6,21.6
				c0,7.1-1.8,14.1-4.9,19.7C357.8,121.3,360.6,118.1,362.5,115.2z"/>
			<path fill="#162636" d="M384.9,127.8c0.2-0.3,0.3-0.5,0.5-0.8c0,0,0,0,0,0C385.2,127.3,385,127.5,384.9,127.8z"/>
		</g>
		<g>
			<path fill="#162636" d="M476.6,87.2c0,0,2.5,3.5,3.7,5.3c-0.1-3-0.2-64.5-0.2-64.5l-15,15c0,0,0,14.6,0.1,29.9
				C469.5,78.2,473.5,83.2,476.6,87.2z"/>
			<polygon fill="#162636" points="424.1,32.2 409.1,47.2 409.1,168.9 432.8,170.9 447.8,155.9 424.1,153.9 			"/>
			<path fill="#162636" d="M447.5,94.7c0.1,1.5,0.2,19.7,0.2,35.9c14.5,19.8,34.1,46.6,34.1,46.6l7,0.9l15-15l-7-0.9
				C496.8,162.2,448.7,96.4,447.5,94.7z"/>
		</g>
		<g>
			<path fill="#162636" d="M596.5,127.9c0,0-24.6-1.7-35.2-2.4v21.3c8.2,0.6,15.2,1,15.2,1L596.5,127.9L596.5,127.9L596.5,127.9z"/>
			<path fill="#162636" d="M561.3,50.1v17.8c9.8-1.1,18.7-2.1,18.7-2.1l20-20C600,45.8,573.2,48.8,561.3,50.1z"/>
			<polygon fill="#162636" points="536.6,20.8 516.6,40.8 516.6,186.4 541.3,190.2 561.3,170.2 536.6,166.4 			"/>
		</g>
	</g>
</g>
</svg>
