<svg xmlns="http://www.w3.org/2000/svg" xmlns:xlink="http://www.w3.org/1999/xlink" viewBox="0 0 320 320"><path fill="#254164" d="M224 162.7c0-43.9-.1-137.5-.2-155.7 0-1.7-1.4-3.1-3.2-3.1C162.3 6 96.6 66.1 96.1 161.7l-.2-.1v115.7c0 1.1.6 2.1 1.5 2.7l61.3 35.2c1 .5 2.1.5 3.1 0l60.4-35c.9-.5 1.5-1.6 1.5-2.7V162.8l.3-.1z"/><path fill="#5EA5D2" d="M157.1 313.4c-.4 0-.9-.1-1.3-.3l-58.1-33.5c-.8-.5-1.3-1.3-1.3-2.2V162.5l.2.1v-.9c.3-53.9 20.7-89.8 37.8-110.5C156.1 25 185.1 8.1 214 4.9h.3c1.3 0 2.1.9 2.4 1.7.3.8.3 1.9-.7 2.8-34.9 31.6-56.6 104-56.7 189.2l-.1-.1.4 112.2c0 .7-.3 1.3-.7 1.8-.4.6-1.1.9-1.8.9z"/><path fill="#254164" d="M214.4 5.4c1 0 1.7.7 1.9 1.3.3.8.1 1.7-.5 2.3C199.1 24.1 185 49 175 81c-10.4 33.3-15.9 73.7-16.1 116.7l-.1-.1v1.7l.4 111.4c0 .7-.3 1.2-.6 1.5-.4.4-.9.6-1.5.6-.4 0-.7-.1-1-.3L98 279.1c-.6-.4-1-1.1-1-1.8v-114l.2.1v-1.7c.1-21.9 3.7-42.9 10.6-62.2 6.4-17.8 15.5-34 27.1-48 21.6-26.1 50.5-42.9 79.3-46.1h.2m0-1h-.4C157.5 10.6 96.6 69.7 96.2 161.7l-.2-.1v115.7c0 1.1.6 2.1 1.5 2.7l58.1 33.5c.5.3 1 .4 1.5.4 1.6 0 3.1-1.3 3.1-3.1l-.4-111.4.1.1c0-91.7 23.9-160.2 56.5-189.7 2.2-2 .8-5.4-2-5.4z"/><path fill="#254164" d="M224 162.7c0-41.8-.1-128.7-.2-152.6 0-2.6-3-4-5-2.4-33.8 28.4-58.8 97.8-58.9 191.5v.2h.1l.4 111.4c0 2.4 2.6 3.8 4.6 2.6l57.3-33.3c.9-.5 1.5-1.6 1.5-2.7V162.8l.2-.1z"/><g><defs><path id="a" d="M216.5 9.7c2.2-2 .6-5.7-2.4-5.3-56.6 6.2-117.5 65.3-117.9 157.3l-.2-.1v115.7c0 1.1.6 2.1 1.5 2.7l58.1 33.5c2.1 1.2 4.6-.3 4.6-2.7l-.4-111.4.1.1c0-91.7 24-160.2 56.6-189.8z"/></defs><clipPath id="b"><use xlink:href="#a" overflow="visible"/></clipPath><g clip-path="url(#b)" fill="none" stroke="#4A82A4" stroke-width=".5" stroke-miterlimit="10"><path d="M95.9 272.5l64.3 37.3M95.9 266.3l64.3 37.3M95.9 260.2l64.3 37.3M95.9 254.1l64.3 37.2M95.9 247.9l64.3 37.3M95.9 241.8l64.3 37.2M95.9 235.6l64.3 37.3M95.9 229.5l64.3 37.3M95.9 223.3l64.3 37.3M95.9 217.2l64.3 37.3M95.9 211.1l64.3 37.2M95.9 204.9l64.3 37.3M95.9 198.8l64.3 37.2M95.9 192.6l64.3 37.3M95.9 186.5l64.3 37.3M95.9 180.3l64.3 37.3M95.9 174.2l64.3 37.3M95.9 168l64.3 37.3M95.9 161.9l64.3 37.3M95.9 155.8l64.3 37.2M95.9 149.6l64.3 37.3M95.9 143.5l64.3 37.2M95.9 137.3l64.3 37.3M95.9 131.2l64.8 37.3M95.9 125l65.3 37.8M95.9 118.9l65.7 38.1M95.9 112.7l68 39.4M95.9 106.6l70.3 40.9M95.9 100.5l73.6 42.7M95.9 94.3l72.9 42.3M95.9 88.2l72.9 42.3M95.9 82l72.9 42.3M95.9 75.9l72.9 42.3M95.9 69.7l72.9 42.3M95.9 63.6l81.4 47.3M95.9 57.5l81.4 47.3M95.9 51.3l81.4 47.4M95.9 45.2l81.4 47.3M95.9 39l81.4 47.4M95.9 32.9l81.4 47.3M95.9 26.7l90 52.4M95.9 20.6l90 52.4M95.9 14.4l90 52.4M95.9 8.3l90 52.4M95.9 2.2l90 52.3M95.9-4l98.6 57.4M95.9-10.1l98.6 57.4M95.9-16.3l98.6 57.4M95.9-22.4L203 40"/></g></g></svg>