<?xml version="1.0" encoding="utf-8"?>
<!-- Generator: Adobe Illustrator 18.0.0, SVG Export Plug-In . SVG Version: 6.00 Build 0)  -->
<!DOCTYPE svg PUBLIC "-//W3C//DTD SVG 1.1//EN" "http://www.w3.org/Graphics/SVG/1.1/DTD/svg11.dtd">
<svg version="1.1" id="Layer_1" xmlns="http://www.w3.org/2000/svg" xmlns:xlink="http://www.w3.org/1999/xlink" x="0px" y="0px"
	 viewBox="0 0 300 300" enable-background="new 0 0 300 300" xml:space="preserve">
<g>
	<path opacity="0.25" fill="#162636" d="M283.5,96.7c-3.9,0.3-7.8,0.4-11.5,0.4c-22.7,0-41.1-4.5-48.9-6.7c-0.6-0.2-1.2-0.4-1.7-0.5
		c-0.5-0.2-0.9-0.3-1.3-0.4c-0.7-0.2-1-0.3-1-0.3c0,0,0,0,0,0c-7.5-13.6-18.3-25-31.3-33.3c0,0,3.4-4.5,8.2-6.8
		c-2.3,0.5-4.1,0.7-5.5,0.7c-2.9,0-4.2-0.7-4.2-0.7s6.1-6.4,13.6-7.1c-13,1-29.9,5.3-29.9,5.3v0c-9.6-3.4-19.9-5.3-30.7-5.3
		c-50.2,0-90.9,40.7-90.9,90.9c0,9.5-6,12.4-13.2,12.4c-11.1,0-25.3-6.8-25.3-6.8s16.6,73.8,107.6,84.1c1.5,20.5-8.2,36-8.2,36
		l10.7,5.8c0,0-1.1-2.9-5.9-5.8c7.5-14.3,9.5-28,10-35.4c2.8,0.2,5.7,0.4,8.6,0.5c0,18.3-8.4,31.6-8.4,31.6l10.7,5.8
		c0,0-1.1-2.9-5.9-5.8c6.3-12.1,8.7-23.7,9.6-31.5c0.2,0,0.3,0,0.5,0c50.2,0,90.9-40.7,90.9-90.9c2.9-5.2,12.6-12,25-19.7
		C263.9,108,273.7,102.4,283.5,96.7C283.5,96.7,283.5,96.7,283.5,96.7C283.5,96.7,283.5,96.7,283.5,96.7z"/>
	<g>
		<g>
			<path fill="#162636" d="M130.8,211c0,0,1,19.9-10.1,41.2c4.8,2.9,5.9,5.8,5.9,5.8l-10.7-5.8c0,0,11.6-18.5,7.5-41.9
				S130.8,211,130.8,211z"/>
		</g>
		<g>
			<path fill="#162636" d="M145.9,207.7c0,0,1,19.9-10.1,41.2c4.8,2.9,5.9,5.8,5.9,5.8l-10.7-5.8c0,0,11.6-18.5,7.5-41.9
				S145.9,207.7,145.9,207.7z"/>
		</g>
		<path fill="#FFFFFF" d="M145.9,43.3c9.6,0,19.1,1.6,28.1,4.9c0.8,0.3,1.7,0.5,2.6,0.5c0.6,0,1.3-0.1,1.9-0.2
			c0.3-0.1,3.3-0.8,7.7-1.7c0.2,0.3,0.4,0.6,0.6,0.9c-0.3,1.1-0.3,2.2-0.1,3.3c0.4,2.1,1.7,4,3.5,5.2c12,7.5,21.9,18.1,28.7,30.4
			c1,1.8,2.7,3.1,4.6,3.7C226,91,241,95.8,262,97.6c-17.1,10.3-28,17.9-31.9,25.1c-0.6,1.1-1,2.4-1,3.8c0,45.9-37.3,83.2-83.2,83.2
			c-24,0-45.4-4.2-63.5-12.6c-14.3-6.6-26.7-15.8-36.7-27.4c-7.7-8.9-12.9-17.7-16.2-24.7c4,1,8.2,1.7,12.3,1.7
			c12.9,0,21-7.7,21-20.2C62.7,80.6,100,43.3,145.9,43.3"/>
		<g>
			<path fill="#162636" d="M145.9,43.3c9.6,0,19.1,1.6,28.1,4.9c0.8,0.3,1.7,0.5,2.6,0.5c0.6,0,1.3-0.1,1.9-0.2
				c0.3-0.1,3.3-0.8,7.7-1.7c0.2,0.3,0.4,0.6,0.6,0.9c-0.3,1.1-0.3,2.2-0.1,3.3c0.4,2.1,1.7,4,3.5,5.2c12,7.5,21.9,18.1,28.7,30.4
				c1,1.8,2.7,3.1,4.6,3.7C226,91,241,95.8,262,97.6c-17.1,10.3-28,17.9-31.9,25.1c-0.6,1.1-1,2.4-1,3.8c0,45.9-37.3,83.2-83.2,83.2
				c-24,0-45.4-4.2-63.5-12.6c-14.3-6.6-26.7-15.8-36.7-27.4c-7.7-8.9-12.9-17.7-16.2-24.7c4,1,8.2,1.7,12.3,1.7
				c12.9,0,21-7.7,21-20.2C62.7,80.6,100,43.3,145.9,43.3 M145.9,35.5C95.7,35.5,55,76.2,55,126.5c0,9.5-6,12.4-13.2,12.4
				c-11.1,0-25.3-6.8-25.3-6.8s19.2,85.3,129.4,85.3c50.2,0,90.9-40.7,90.9-90.9c4.8-8.7,29-22.2,53.2-36.2
				c-3.9,0.3-7.8,0.4-11.5,0.4c-30.2,0-52.9-7.9-52.9-7.9c0,0,0,0,0,0c-7.5-13.6-18.3-25-31.3-33.3c0,0,3.4-4.5,8.2-6.8
				c-2.3,0.5-4.1,0.7-5.5,0.7c-2.9,0-4.2-0.7-4.2-0.7s6.1-6.4,13.6-7.1c-13,1-29.9,5.3-29.9,5.3v0C167,37.4,156.6,35.5,145.9,35.5
				L145.9,35.5z M206.8,35.5c-0.1,0-0.3,0-0.4,0C206.5,35.6,206.7,35.5,206.8,35.5L206.8,35.5z M16.4,132.1L16.4,132.1L16.4,132.1z"
				/>
		</g>
		<g>
			<path fill="#162636" d="M166.2,124.5c-0.1,1.4-0.3,2.8-0.5,4.2c-0.2,1.4-0.5,2.8-0.7,4.2c-0.3,1.4-0.6,2.8-0.9,4.1
				c-0.4,1.4-0.7,2.7-1.1,4.1c-0.4,1.3-0.8,2.7-1.3,4l-1.4,4c-0.5,1.3-1.1,2.6-1.6,3.9c-0.5,1.3-1.2,2.5-1.8,3.8l-0.9,1.9
				c-0.3,0.6-0.7,1.2-1,1.8c-0.7,1.2-1.4,2.4-2.1,3.6l-2.3,3.5c-0.7,1.2-1.6,2.3-2.4,3.4c-0.9,1.1-1.6,2.2-2.5,3.3l-2.7,3.1
				c-0.9,1.1-1.9,2-2.9,3l-3,2.9l4,2.2l3.7-16.4l3.1-13.7l-8.1,11.7c-0.3,0.4-0.7,0.9-1,1.4c-0.4,0.5-0.7,1-1.1,1.4
				c-0.4,0.5-0.8,0.9-1.2,1.4c-0.4,0.5-0.8,0.9-1.2,1.4c-0.4,0.5-0.8,0.9-1.3,1.3c-0.4,0.4-0.9,0.9-1.3,1.3
				c-0.4,0.4-0.9,0.8-1.3,1.2c-0.5,0.4-0.9,0.8-1.4,1.2l-1.4,1.1c-0.5,0.4-1,0.7-1.5,1c-0.5,0.3-1,0.7-1.5,0.9
				c-0.5,0.3-1,0.6-1.5,0.9l-1.6,0.8c-0.5,0.3-1.1,0.4-1.6,0.6c-0.5,0.2-1.1,0.4-1.6,0.5l-1.6,0.5l3.4,4.8c0.8-1.3,1.7-2.7,2.5-4.1
				c0.8-1.4,1.5-2.8,2.2-4.2c0.7-1.4,1.3-2.9,1.9-4.4c0.3-0.7,0.6-1.5,0.9-2.3l0.4-1.2c0.1-0.4,0.2-0.8,0.4-1.3l3.2-11.2l-8.6,8
				c-0.4,0.4-0.9,0.8-1.4,1.2c-0.5,0.4-1,0.8-1.5,1.2c-1,0.8-2,1.6-3,2.3c-0.5,0.4-1,0.7-1.6,1.1c-0.5,0.4-1.1,0.7-1.6,1
				c-1.1,0.7-2.2,1.3-3.3,1.9l-1.7,0.9c-0.6,0.3-1.1,0.5-1.7,0.8c-0.6,0.3-1.1,0.5-1.7,0.7c-0.6,0.2-1.1,0.5-1.7,0.7l-1.7,0.6
				c-0.6,0.2-1.2,0.3-1.7,0.5c-0.6,0.1-1.2,0.3-1.8,0.4l-1.8,0.3l2.3,6.1c0.6-0.5,1.3-1,1.9-1.5c0.6-0.5,1.3-1,1.9-1.6
				c0.6-0.6,1.2-1.1,1.8-1.8c0.6-0.6,1.1-1.3,1.6-1.9c0.3-0.3,0.5-0.7,0.7-1c0.2-0.3,0.5-0.7,0.7-1.1c0.2-0.4,0.5-0.7,0.7-1.1
				c0.2-0.4,0.4-0.8,0.6-1.2c0.4-0.8,0.7-1.6,1-2.5c0.1-0.4,0.3-0.9,0.4-1.3c0.1-0.2,0.1-0.5,0.1-0.7c0-0.3,0.1-0.4,0.1-0.9l0.5-5.8
				l-5.3,2.7c-0.4,0.2-1,0.5-1.6,0.7c-0.6,0.3-1.1,0.5-1.7,0.7c-1.2,0.4-2.3,0.9-3.5,1.2c-0.6,0.2-1.2,0.4-1.8,0.5l-1.8,0.5
				l-1.8,0.4c-0.6,0.1-1.2,0.2-1.8,0.3c-0.6,0.1-1.2,0.2-1.9,0.3c-0.6,0.1-1.2,0.2-1.9,0.2l-1.9,0.1c-0.6,0.1-1.2,0.1-1.9,0.1
				c-0.6,0-1.2,0.1-1.9,0l-1.9-0.1c-1.2,0-2.5-0.2-3.7-0.3l0.7,5.7c0.9-0.4,1.9-0.8,2.8-1.3c0.9-0.5,1.8-0.9,2.7-1.4
				c0.9-0.5,1.8-1,2.7-1.5c0.9-0.5,1.8-1.1,2.6-1.6c0.4-0.3,0.8-0.6,1.3-0.9c0.4-0.3,0.8-0.6,1.2-0.9c0.8-0.6,1.6-1.3,2.4-2
				c0.8-0.7,1.6-1.4,2.3-2.2c0.4-0.4,0.7-0.8,1.1-1.2c0.2-0.2,0.4-0.4,0.5-0.6c0.2-0.2,0.3-0.4,0.6-0.7l4.6-6.2l-7.4,2.2
				c-0.6,0.2-1.2,0.3-1.9,0.5c-0.6,0.2-1.3,0.3-1.9,0.4c-1.3,0.3-2.6,0.5-3.9,0.8c-1.3,0.2-2.6,0.4-3.9,0.5c-0.7,0.1-1.3,0.2-2,0.2
				l-2,0.2l-2,0.1c-0.7,0-1.3,0-2,0c-0.7,0-1.3,0-2-0.1l-2-0.1l-1.9-0.3c-0.7-0.1-1.3-0.2-1.9-0.4c-0.6-0.1-1.3-0.2-1.9-0.5
				l-1.8-0.6l0.1,3.3l4.9-2.3c1.7-0.8,3.3-1.5,5-2.4c1.7-0.8,3.3-1.6,4.9-2.5c0.8-0.4,1.6-0.9,2.4-1.3c0.8-0.4,1.6-0.9,2.4-1.4
				c0.8-0.5,1.6-0.9,2.4-1.5c0.8-0.5,1.6-1,2.3-1.5c0.7-0.5,1.5-1,2.2-1.6c0.7-0.6,1.5-1.1,2.2-1.7l2.1-1.8l1.9-2l1.8-2.1l1.5-2.3
				l-1.8,2.1l-1.9,1.9l-2.1,1.7l-2.2,1.6c-0.7,0.5-1.5,1-2.3,1.5c-0.8,0.5-1.6,0.9-2.3,1.4c-0.8,0.5-1.6,0.9-2.4,1.3
				c-0.8,0.4-1.6,0.8-2.4,1.2c-1.6,0.8-3.3,1.6-4.9,2.3c-1.7,0.7-3.3,1.4-5,2.1c-3.4,1.4-6.8,2.6-10.2,4l-4.2,1.7l4.3,1.6l2,0.8
				c0.7,0.3,1.4,0.4,2.1,0.6c0.7,0.2,1.4,0.4,2.1,0.5l2.1,0.4L74,167c0.7,0.1,1.4,0.1,2.1,0.2c0.7,0,1.4,0.1,2.1,0.1l2.1,0l2.1,0
				c0.7,0,1.4-0.1,2.1-0.1c1.4-0.1,2.8-0.2,4.2-0.4c1.4-0.2,2.8-0.4,4.2-0.6c0.7-0.1,1.4-0.3,2.1-0.4c0.7-0.1,1.4-0.3,2.1-0.5
				l-2.8-4l-0.4,0.4c-0.1,0.2-0.3,0.3-0.4,0.5c-0.3,0.3-0.6,0.6-1,0.9c-0.7,0.6-1.4,1.2-2.1,1.8c-0.7,0.6-1.5,1.1-2.2,1.7
				c-0.4,0.3-0.8,0.5-1.2,0.8c-0.4,0.2-0.8,0.5-1.2,0.8c-0.8,0.5-1.6,1-2.4,1.4c-0.8,0.5-1.6,0.9-2.5,1.3c-0.8,0.4-1.7,0.8-2.5,1.2
				c-0.9,0.4-1.7,0.7-2.6,1.1l-10.6,4.5l11.3,1.2c1.4,0.1,2.8,0.4,4.2,0.4l2.1,0.1c0.7,0,1.4,0,2.1,0c0.7,0,1.4,0,2.1,0l2.1-0.1
				c0.7,0,1.4-0.1,2.1-0.2c0.7-0.1,1.4-0.1,2.1-0.3c0.7-0.1,1.4-0.2,2.1-0.3l2.1-0.4c1.4-0.3,2.7-0.7,4.1-1.1c1.3-0.4,2.7-0.9,4-1.3
				c0.7-0.3,1.3-0.5,2-0.8c0.7-0.3,1.3-0.6,2-1l-4.8-3.1c0-0.1,0,0,0,0l0,0.2c0,0.1-0.1,0.2-0.1,0.4c-0.1,0.3-0.1,0.5-0.2,0.8
				c-0.2,0.5-0.4,1.1-0.7,1.6c-0.1,0.3-0.3,0.5-0.4,0.8c-0.1,0.3-0.3,0.5-0.5,0.8c-0.2,0.3-0.3,0.5-0.5,0.8
				c-0.2,0.3-0.4,0.5-0.6,0.8c-0.4,0.5-0.8,1-1.3,1.5c-0.4,0.5-0.9,0.9-1.4,1.4c-0.5,0.5-1,0.9-1.5,1.3l-1.6,1.2l-10.7,7.9l13-1.9
				l2.2-0.3c0.7-0.1,1.5-0.3,2.2-0.4c0.7-0.2,1.4-0.3,2.1-0.5l2.1-0.7c0.7-0.2,1.3-0.5,2-0.8c0.7-0.3,1.3-0.6,2-0.9
				c0.6-0.3,1.3-0.6,1.9-0.9l1.9-1c1.2-0.7,2.4-1.4,3.6-2.2c0.6-0.4,1.2-0.8,1.8-1.2c0.6-0.4,1.2-0.8,1.7-1.2
				c1.1-0.8,2.2-1.7,3.3-2.6c0.5-0.4,1.1-0.9,1.6-1.4c0.5-0.5,1-0.9,1.6-1.5l-5.5-3.2l-0.3,0.9l-0.3,1c-0.2,0.7-0.5,1.3-0.8,2
				c-0.5,1.3-1.1,2.7-1.7,4c-0.6,1.3-1.3,2.6-2,3.9c-0.7,1.3-1.4,2.6-2.2,3.8l-4.2,7.1l7.6-2.3l2.1-0.6c0.7-0.2,1.3-0.5,2-0.7
				c0.6-0.3,1.3-0.5,1.9-0.8l1.9-1c0.6-0.3,1.2-0.7,1.8-1.1c0.6-0.4,1.2-0.7,1.7-1.1c0.6-0.4,1.1-0.8,1.7-1.2l1.6-1.3
				c0.5-0.4,1-0.9,1.5-1.3c0.5-0.4,1-0.9,1.5-1.4c0.5-0.5,1-0.9,1.4-1.4c0.5-0.5,0.9-1,1.4-1.5c0.4-0.5,0.9-1,1.3-1.5
				c0.4-0.5,0.8-1,1.2-1.6c0.4-0.5,0.8-1.1,1.2-1.6c0.4-0.6,0.8-1.1,1.2-1.7l-5-2l-3.1,16.5l-1.5,8.1l5.5-5.8l3-3.2
				c1-1.1,2-2.1,2.9-3.3l2.7-3.4c0.9-1.1,1.6-2.4,2.5-3.6c0.8-1.2,1.6-2.4,2.3-3.7l2.2-3.8c0.7-1.3,1.3-2.6,1.9-3.9
				c0.3-0.7,0.6-1.3,0.9-2l0.8-2c0.5-1.3,1.1-2.7,1.6-4c0.5-1.4,0.9-2.7,1.4-4.1l1.2-4.1c0.3-1.4,0.6-2.8,0.9-4.2
				c0.3-1.4,0.5-2.8,0.8-4.2c0.2-1.4,0.4-2.8,0.6-4.2c0.1-1.4,0.3-2.8,0.3-4.3C166.2,127.4,166.2,125.9,166.2,124.5z"/>
		</g>
		<g>
			<path fill="#162636" d="M195.7,85.6c0.3,0,0.6-0.1,0.9-0.2c1.5-0.5,2.3-2.2,1.8-3.7l-2.9-8.5c-0.5-1.5-2.2-2.3-3.7-1.8
				c-1.5,0.5-2.3,2.2-1.8,3.7l2.9,8.5C193.4,84.9,194.5,85.6,195.7,85.6z"/>
		</g>
		<g>
			<path fill="#162636" d="M195.7,63.6c0,0,0-0.1-0.1-0.2c-0.1-0.1-0.2-0.3-0.4-0.5c-0.3-0.4-0.9-0.9-1.6-1.3
				c-0.4-0.2-0.8-0.4-1.3-0.6c-0.5-0.2-1-0.3-1.5-0.3c-0.3,0-0.6-0.1-0.9,0c-0.3,0-0.6,0-0.9,0.1c-0.6,0.1-1.2,0.2-1.8,0.5
				c-0.3,0.1-0.6,0.3-0.9,0.4c-0.3,0.2-0.5,0.4-0.8,0.6c-0.3,0.2-0.5,0.4-0.7,0.6c-0.2,0.2-0.4,0.5-0.6,0.7c-0.4,0.5-0.5,1-0.8,1.5
				c-0.2,0.5-0.2,1-0.3,1.4c0,0.4-0.1,0.8,0,1.2c0,0.4,0.1,0.7,0.2,0.9c0.1,0.5,0.3,0.8,0.3,0.8s0.3-0.2,0.7-0.5
				c0.2-0.2,0.4-0.3,0.6-0.5c0.2-0.2,0.5-0.4,0.8-0.6c0.1-0.1,0.3-0.2,0.4-0.3c0.1-0.1,0.3-0.2,0.4-0.3c0.3-0.2,0.5-0.4,0.8-0.6
				c0.3-0.1,0.5-0.4,0.8-0.5c0.1-0.1,0.3-0.1,0.4-0.2l0.4-0.2c0.3-0.2,0.6-0.2,0.9-0.4c0.3-0.1,0.7-0.2,1-0.3
				c0.2-0.1,0.4-0.1,0.5-0.2c0.2-0.1,0.4-0.1,0.5-0.1c0.4-0.1,0.7-0.2,1.1-0.3c0.7-0.2,1.3-0.4,1.8-0.5
				C195.4,63.7,195.7,63.6,195.7,63.6z"/>
		</g>
		<g>
			<path fill="#162636" d="M290,90.2c0,0-4.7,1.5-11.7,3.8c-1.7,0.6-3.6,1.2-5.6,1.8c-2,0.6-4.1,1.3-6.3,2c-2.2,0.7-4.5,1.4-6.8,2.1
				c-2.3,0.7-4.6,1.4-7,2c-2.3,0.7-4.7,1.3-7,1.8c-1.2,0.3-2.3,0.6-3.5,0.8c-1.1,0.2-2.3,0.5-3.4,0.7c-2.2,0.4-4.4,0.9-6.5,1.2
				c-2.1,0.3-4,0.6-5.8,0.8c-1.8,0.2-3.5,0.3-5,0.3c-0.7,0-1.4,0-2.1,0c-0.6,0-1.2-0.1-1.8-0.1c-1.1,0-1.9-0.2-2.5-0.2
				c-0.6-0.1-0.9-0.1-0.9-0.1s0.3,0.1,0.8,0.3c0.6,0.2,1.4,0.5,2.4,0.6c0.5,0.1,1.1,0.2,1.8,0.3c0.7,0.1,1.4,0.2,2.1,0.3
				c1.5,0.1,3.2,0.3,5.1,0.2c3.7,0,8.1-0.4,12.7-1.1c2.3-0.4,4.7-0.8,7-1.3c2.4-0.5,4.8-1.1,7.2-1.8c2.4-0.7,4.7-1.4,7.1-2.1
				c2.3-0.7,4.6-1.5,6.7-2.3c4.3-1.6,8.3-3.2,11.7-4.7C285.7,92.7,290,90.2,290,90.2z"/>
		</g>
	</g>
</g>
</svg>
