<svg xmlns="http://www.w3.org/2000/svg" viewBox="0 0 300 300"><path opacity=".25" fill="#162636" d="M283.5 96.7c-3.9.3-7.8.4-11.5.4-22.7 0-41.1-4.5-48.9-6.7-.6-.2-1.2-.4-1.7-.5-.5-.2-.9-.3-1.3-.4-.7-.2-1-.3-1-.3-7.5-13.6-18.3-25-31.3-33.3 0 0 3.4-4.5 8.2-6.8-2.3.5-4.1.7-5.5.7-2.9 0-4.2-.7-4.2-.7s6.1-6.4 13.6-7.1c-13 1-29.9 5.3-29.9 5.3-9.6-3.4-19.9-5.3-30.7-5.3-50.2 0-90.9 40.7-90.9 90.9 0 9.5-6 12.4-13.2 12.4-11.1 0-25.3-6.8-25.3-6.8s16.6 73.8 107.6 84.1c1.5 20.5-8.2 36-8.2 36l10.7 5.8s-1.1-2.9-5.9-5.8c7.5-14.3 9.5-28 10-35.4 2.8.2 5.7.4 8.6.5 0 18.3-8.4 31.6-8.4 31.6l10.7 5.8s-1.1-2.9-5.9-5.8c6.3-12.1 8.7-23.7 9.6-31.5h.5c50.2 0 90.9-40.7 90.9-90.9 2.9-5.2 12.6-12 25-19.7 8.8-5.2 18.6-10.8 28.4-16.5z"/><path fill="#162636" d="M130.8 211s1 19.9-10.1 41.2c4.8 2.9 5.9 5.8 5.9 5.8l-10.7-5.8s11.6-18.5 7.5-41.9 7.4.7 7.4.7zM145.9 207.7s1 19.9-10.1 41.2c4.8 2.9 5.9 5.8 5.9 5.8l-10.7-5.8s11.6-18.5 7.5-41.9 7.4.7 7.4.7z"/><path fill="#FFF" d="M145.9 43.3c9.6 0 19.1 1.6 28.1 4.9.8.3 1.7.5 2.6.5.6 0 1.3-.1 1.9-.2.3-.1 3.3-.8 7.7-1.7l.6.9c-.3 1.1-.3 2.2-.1 3.3.4 2.1 1.7 4 3.5 5.2 12 7.5 21.9 18.1 28.7 30.4 1 1.8 2.7 3.1 4.6 3.7 2.5.7 17.5 5.5 38.5 7.3-17.1 10.3-28 17.9-31.9 25.1-.6 1.1-1 2.4-1 3.8 0 45.9-37.3 83.2-83.2 83.2-24 0-45.4-4.2-63.5-12.6-14.3-6.6-26.7-15.8-36.7-27.4C38 160.8 32.8 152 29.5 145c4 1 8.2 1.7 12.3 1.7 12.9 0 21-7.7 21-20.2-.1-45.9 37.2-83.2 83.1-83.2"/><path fill="#162636" d="M145.9 43.3c9.6 0 19.1 1.6 28.1 4.9.8.3 1.7.5 2.6.5.6 0 1.3-.1 1.9-.2.3-.1 3.3-.8 7.7-1.7l.6.9c-.3 1.1-.3 2.2-.1 3.3.4 2.1 1.7 4 3.5 5.2 12 7.5 21.9 18.1 28.7 30.4 1 1.8 2.7 3.1 4.6 3.7 2.5.7 17.5 5.5 38.5 7.3-17.1 10.3-28 17.9-31.9 25.1-.6 1.1-1 2.4-1 3.8 0 45.9-37.3 83.2-83.2 83.2-24 0-45.4-4.2-63.5-12.6-14.3-6.6-26.7-15.8-36.7-27.4C38 160.8 32.8 152 29.5 145c4 1 8.2 1.7 12.3 1.7 12.9 0 21-7.7 21-20.2-.1-45.9 37.2-83.2 83.1-83.2m0-7.8c-50.2 0-90.9 40.7-90.9 91 0 9.5-6 12.4-13.2 12.4-11.1 0-25.3-6.8-25.3-6.8s19.2 85.3 129.4 85.3c50.2 0 90.9-40.7 90.9-90.9 4.8-8.7 29-22.2 53.2-36.2-3.9.3-7.8.4-11.5.4-30.2 0-52.9-7.9-52.9-7.9-7.5-13.6-18.3-25-31.3-33.3 0 0 3.4-4.5 8.2-6.8-2.3.5-4.1.7-5.5.7-2.9 0-4.2-.7-4.2-.7s6.1-6.4 13.6-7.1c-13 1-29.9 5.3-29.9 5.3-9.5-3.5-19.9-5.4-30.6-5.4zm60.9 0h-.4c.1.1.3 0 .4 0zM16.4 132.1z"/><path fill="#162636" d="M166.2 124.5c-.1 1.4-.3 2.8-.5 4.2-.2 1.4-.5 2.8-.7 4.2-.3 1.4-.6 2.8-.9 4.1-.4 1.4-.7 2.7-1.1 4.1-.4 1.3-.8 2.7-1.3 4l-1.4 4c-.5 1.3-1.1 2.6-1.6 3.9-.5 1.3-1.2 2.5-1.8 3.8l-.9 1.9c-.3.6-.7 1.2-1 1.8l-2.1 3.6-2.3 3.5c-.7 1.2-1.6 2.3-2.4 3.4-.9 1.1-1.6 2.2-2.5 3.3l-2.7 3.1c-.9 1.1-1.9 2-2.9 3l-3 2.9 4 2.2 3.7-16.4 3.1-13.7-8.1 11.7c-.3.4-.7.9-1 1.4-.4.5-.7 1-1.1 1.4-.4.5-.8.9-1.2 1.4-.4.5-.8.9-1.2 1.4-.4.5-.8.9-1.3 1.3l-1.3 1.3c-.4.4-.9.8-1.3 1.2-.5.4-.9.8-1.4 1.2l-1.4 1.1c-.5.4-1 .7-1.5 1-.5.3-1 .7-1.5.9l-1.5.9-1.6.8c-.5.3-1.1.4-1.6.6-.5.2-1.1.4-1.6.5l-1.6.5 3.4 4.8c.8-1.3 1.7-2.7 2.5-4.1.8-1.4 1.5-2.8 2.2-4.2.7-1.4 1.3-2.9 1.9-4.4.3-.7.6-1.5.9-2.3l.4-1.2c.1-.4.2-.8.4-1.3l3.2-11.2-8.6 8c-.4.4-.9.8-1.4 1.2l-1.5 1.2c-1 .8-2 1.6-3 2.3-.5.4-1 .7-1.6 1.1-.5.4-1.1.7-1.6 1-1.1.7-2.2 1.3-3.3 1.9l-1.7.9c-.6.3-1.1.5-1.7.8-.6.3-1.1.5-1.7.7-.6.2-1.1.5-1.7.7l-1.7.6c-.6.2-1.2.3-1.7.5-.6.1-1.2.3-1.8.4l-1.8.3 2.3 6.1c.6-.5 1.3-1 1.9-1.5.6-.5 1.3-1 1.9-1.6.6-.6 1.2-1.1 1.8-1.8.6-.6 1.1-1.3 1.6-1.9.3-.3.5-.7.7-1 .2-.3.5-.7.7-1.1.2-.4.5-.7.7-1.1l.6-1.2c.4-.8.7-1.6 1-2.5.1-.4.3-.9.4-1.3.1-.2.1-.5.1-.7 0-.3.1-.4.1-.9l.5-5.8-5.3 2.7c-.4.2-1 .5-1.6.7-.6.3-1.1.5-1.7.7-1.2.4-2.3.9-3.5 1.2-.6.2-1.2.4-1.8.5l-1.8.5-1.8.4-1.8.3c-.6.1-1.2.2-1.9.3-.6.1-1.2.2-1.9.2l-1.9.1c-.6.1-1.2.1-1.9.1-.6 0-1.2.1-1.9 0l-1.9-.1c-1.2 0-2.5-.2-3.7-.3l.7 5.7c.9-.4 1.9-.8 2.8-1.3.9-.5 1.8-.9 2.7-1.4l2.7-1.5c.9-.5 1.8-1.1 2.6-1.6.4-.3.8-.6 1.3-.9l1.2-.9c.8-.6 1.6-1.3 2.4-2 .8-.7 1.6-1.4 2.3-2.2.4-.4.7-.8 1.1-1.2.2-.2.4-.4.5-.6.2-.2.3-.4.6-.7l4.6-6.2-7.4 2.2c-.6.2-1.2.3-1.9.5-.6.2-1.3.3-1.9.4-1.3.3-2.6.5-3.9.8-1.3.2-2.6.4-3.9.5-.7.1-1.3.2-2 .2l-2 .2-2 .1h-2c-.7 0-1.3 0-2-.1l-2-.1-1.9-.3c-.7-.1-1.3-.2-1.9-.4-.6-.1-1.3-.2-1.9-.5l-1.8-.6.1 3.3 4.9-2.3c1.7-.8 3.3-1.5 5-2.4 1.7-.8 3.3-1.6 4.9-2.5.8-.4 1.6-.9 2.4-1.3.8-.4 1.6-.9 2.4-1.4.8-.5 1.6-.9 2.4-1.5.8-.5 1.6-1 2.3-1.5.7-.5 1.5-1 2.2-1.6.7-.6 1.5-1.1 2.2-1.7l2.1-1.8 1.9-2 1.8-2.1 1.5-2.3-1.8 2.1-1.9 1.9-2.1 1.7-2.2 1.6c-.7.5-1.5 1-2.3 1.5-.8.5-1.6.9-2.3 1.4-.8.5-1.6.9-2.4 1.3l-2.4 1.2c-1.6.8-3.3 1.6-4.9 2.3-1.7.7-3.3 1.4-5 2.1-3.4 1.4-6.8 2.6-10.2 4l-4.2 1.7 4.3 1.6 2 .8c.7.3 1.4.4 2.1.6.7.2 1.4.4 2.1.5l2.1.4 2.3.6c.7.1 1.4.1 2.1.2.7 0 1.4.1 2.1.1h4.2c.7 0 1.4-.1 2.1-.1 1.4-.1 2.8-.2 4.2-.4l4.2-.6c.7-.1 1.4-.3 2.1-.4.7-.1 1.4-.3 2.1-.5l-2.8-4-.4.4c-.1.2-.3.3-.4.5-.3.3-.6.6-1 .9l-2.1 1.8c-.7.6-1.5 1.1-2.2 1.7-.4.3-.8.5-1.2.8-.4.2-.8.5-1.2.8-.8.5-1.6 1-2.4 1.4-.8.5-1.6.9-2.5 1.3-.8.4-1.7.8-2.5 1.2-.9.4-1.7.7-2.6 1.1l-10.6 4.5 11.3 1.2c1.4.1 2.8.4 4.2.4l2.1.1H87l2.1-.1c.7 0 1.4-.1 2.1-.2.7-.1 1.4-.1 2.1-.3l2.1-.3 2.1-.4c1.4-.3 2.7-.7 4.1-1.1 1.3-.4 2.7-.9 4-1.3.7-.3 1.3-.5 2-.8.7-.3 1.3-.6 2-1l-4.8-3.1c0-.1 0 0 0 0v.2c0 .1-.1.2-.1.4-.1.3-.1.5-.2.8-.2.5-.4 1.1-.7 1.6-.1.3-.3.5-.4.8-.1.3-.3.5-.5.8-.2.3-.3.5-.5.8-.2.3-.4.5-.6.8-.4.5-.8 1-1.3 1.5-.4.5-.9.9-1.4 1.4-.5.5-1 .9-1.5 1.3l-1.6 1.2-10.7 7.9 13-1.9 2.2-.3c.7-.1 1.5-.3 2.2-.4.7-.2 1.4-.3 2.1-.5l2.1-.7c.7-.2 1.3-.5 2-.8.7-.3 1.3-.6 2-.9.6-.3 1.3-.6 1.9-.9l1.9-1c1.2-.7 2.4-1.4 3.6-2.2l1.8-1.2c.6-.4 1.2-.8 1.7-1.2 1.1-.8 2.2-1.7 3.3-2.6.5-.4 1.1-.9 1.6-1.4.5-.5 1-.9 1.6-1.5l-5.5-3.2-.3.9-.3 1c-.2.7-.5 1.3-.8 2-.5 1.3-1.1 2.7-1.7 4-.6 1.3-1.3 2.6-2 3.9-.7 1.3-1.4 2.6-2.2 3.8l-4.2 7.1 7.6-2.3 2.1-.6c.7-.2 1.3-.5 2-.7.6-.3 1.3-.5 1.9-.8l1.9-1c.6-.3 1.2-.7 1.8-1.1.6-.4 1.2-.7 1.7-1.1.6-.4 1.1-.8 1.7-1.2l1.6-1.3c.5-.4 1-.9 1.5-1.3s1-.9 1.5-1.4c.5-.5 1-.9 1.4-1.4.5-.5.9-1 1.4-1.5.4-.5.9-1 1.3-1.5s.8-1 1.2-1.6c.4-.5.8-1.1 1.2-1.6.4-.6.8-1.1 1.2-1.7l-5-2-3.1 16.5-1.5 8.1 5.5-5.8 3-3.2c1-1.1 2-2.1 2.9-3.3l2.7-3.4c.9-1.1 1.6-2.4 2.5-3.6.8-1.2 1.6-2.4 2.3-3.7l2.2-3.8c.7-1.3 1.3-2.6 1.9-3.9.3-.7.6-1.3.9-2l.8-2c.5-1.3 1.1-2.7 1.6-4 .5-1.4.9-2.7 1.4-4.1l1.2-4.1.9-4.2c.3-1.4.5-2.8.8-4.2l.6-4.2c.1-1.4.3-2.8.3-4.3v-4.5zM195.7 85.6c.3 0 .6-.1.9-.2 1.5-.5 2.3-2.2 1.8-3.7l-2.9-8.5c-.5-1.5-2.2-2.3-3.7-1.8-1.5.5-2.3 2.2-1.8 3.7l2.9 8.5c.5 1.3 1.6 2 2.8 2zM195.7 63.6s0-.1-.1-.2-.2-.3-.4-.5c-.3-.4-.9-.9-1.6-1.3-.4-.2-.8-.4-1.3-.6-.5-.2-1-.3-1.5-.3-.3 0-.6-.1-.9 0-.3 0-.6 0-.9.1-.6.1-1.2.2-1.8.5-.3.1-.6.3-.9.4-.3.2-.5.4-.8.6-.3.2-.5.4-.7.6-.2.2-.4.5-.6.7-.4.5-.5 1-.8 1.5-.2.5-.2 1-.3 1.4 0 .4-.1.8 0 1.2 0 .4.1.7.2.9.1.5.3.8.3.8s.3-.2.7-.5c.2-.2.4-.3.6-.5.2-.2.5-.4.8-.6.1-.1.3-.2.4-.3.1-.1.3-.2.4-.3.3-.2.5-.4.8-.6.3-.1.5-.4.8-.5.1-.1.3-.1.4-.2l.4-.2c.3-.2.6-.2.9-.4.3-.1.7-.2 1-.3.2-.1.4-.1.5-.2.2-.1.4-.1.5-.1.4-.1.7-.2 1.1-.3.7-.2 1.3-.4 1.8-.5.7-.2 1-.3 1-.3zM290 90.2s-4.7 1.5-11.7 3.8c-1.7.6-3.6 1.2-5.6 1.8-2 .6-4.1 1.3-6.3 2s-4.5 1.4-6.8 2.1c-2.3.7-4.6 1.4-7 2-2.3.7-4.7 1.3-7 1.8-1.2.3-2.3.6-3.5.8-1.1.2-2.3.5-3.4.7-2.2.4-4.4.9-6.5 1.2-2.1.3-4 .6-5.8.8-1.8.2-3.5.3-5 .3h-2.1c-.6 0-1.2-.1-1.8-.1-1.1 0-1.9-.2-2.5-.2-.6-.1-.9-.1-.9-.1s.3.1.8.3c.6.2 1.4.5 2.4.6.5.1 1.1.2 1.8.3l2.1.3c1.5.1 3.2.3 5.1.2 3.7 0 8.1-.4 12.7-1.1 2.3-.4 4.7-.8 7-1.3 2.4-.5 4.8-1.1 7.2-1.8 2.4-.7 4.7-1.4 7.1-2.1 2.3-.7 4.6-1.5 6.7-2.3 4.3-1.6 8.3-3.2 11.7-4.7 7-2.8 11.3-5.3 11.3-5.3z"/></svg>