<?xml version="1.0" encoding="utf-8"?>
<!-- Generator: Adobe Illustrator 18.0.0, SVG Export Plug-In . SVG Version: 6.00 Build 0)  -->
<!DOCTYPE svg PUBLIC "-//W3C//DTD SVG 1.1//EN" "http://www.w3.org/Graphics/SVG/1.1/DTD/svg11.dtd">
<svg version="1.1" id="Layer_1" xmlns="http://www.w3.org/2000/svg" xmlns:xlink="http://www.w3.org/1999/xlink" x="0px" y="0px"
	 viewBox="0 0 300 300" enable-background="new 0 0 300 300" xml:space="preserve">
<g>
	<path opacity="0.25" fill="#162636" d="M255.5,107.7c-0.1-12.9-10.6-23.3-23.5-23.4c-2-0.2-27.2-2-85.6-2c-3.1,0-6,0-8.9,0
		c-1.6-2.6-3.7-4.7-6.3-6.3l21.5-46.4c0.6-1.3,0-2.9-1.3-3.5c-1.3-0.6-2.9,0-3.5,1.3l-21.5,46.4c-1.9-0.6-3.9-0.9-5.9-0.9
		c-3.4,0-6.5,0.8-9.3,2.3L64,8.3c-0.8-1.2-2.5-1.5-3.7-0.6c-1.2,0.8-1.5,2.5-0.6,3.7l47.2,66.8c-1.4,1.3-2.6,2.8-3.6,4.5
		c-28.1,0.6-41,1.5-42.5,1.7c-12.9,0.1-23.4,10.5-23.5,23.4c-0.2,2.1-2,19.3-2,66.7c0,47.4,1.8,64.6,2,66.7
		c0.1,12.9,10.6,23.4,23.5,23.4c1.1,0.1,9.3,0.7,26.4,1.2L77.6,300l20.9-33.9c12.5,0.3,28.3,0.5,47.9,0.5c19.6,0,35.4-0.2,47.9-0.5
		l20.9,33.9l-9.6-34.2c17.1-0.5,25.3-1.2,26.4-1.2c12.9-0.1,23.4-10.5,23.5-23.4c0.3-2.1,2-17.7,2-66.7
		C257.6,125.4,255.8,109.8,255.5,107.7z"/>
	<g>
		<g>
			<circle fill="#162636" cx="127.7" cy="85.7" r="20"/>
		</g>
		<g>
			<g>
				<polygon fill="#162636" points="212.1,256.3 222.4,292.8 199.5,255.8 205.8,248.6 				"/>
			</g>
			<g>
				<polygon fill="#162636" points="95.1,256.3 84.8,292.8 107.7,255.8 101.4,248.6 				"/>
			</g>
		</g>
		<g>
			<path fill="#162636" d="M128.2,90.9L66.9,4.2C66,3,66.3,1.3,67.5,0.5c1.2-0.8,2.8-0.6,3.7,0.6l56,79.3l27.9-60.3
				c0.6-1.3,2.2-1.9,3.5-1.3c1.3,0.6,1.9,2.2,1.3,3.5L128.2,90.9z"/>
		</g>
		<g>
			<path fill="#FFFFFF" d="M239.1,254.2c0,0-23.9,2-85.5,2s-85.5-2-85.5-2c-11.3,0-20.5-9.2-20.5-20.5c0,0-2-16.4-2-66.5
				s2-66.5,2-66.5c0-11.3,9.2-20.5,20.5-20.5c0,0,24.2-2,85.5-2s85.5,2,85.5,2c11.3,0,20.5,9.2,20.5,20.5c0,0,2,14.2,2,66.5
				s-2,66.5-2,66.5C259.5,245,250.3,254.2,239.1,254.2z"/>
		</g>
		<g>
			<path fill="#162636" d="M153.6,259.5c-58.7,0-83.6-1.9-85.6-2c-12.9-0.1-23.4-10.5-23.5-23.4c-0.2-2.1-2-19.3-2-66.7
				c0-47.4,1.8-64.6,2-66.7C44.6,87.7,55.1,77.2,68,77.1c2-0.2,27.2-2,85.6-2c58.4,0,83.6,1.9,85.6,2c12.9,0.1,23.4,10.5,23.5,23.4
				c0.3,2.1,2,17.7,2,66.7c0,49-1.8,64.6-2,66.7c-0.1,12.9-10.6,23.3-23.5,23.4C237.1,257.6,212.2,259.5,153.6,259.5z M153.6,81.4
				c-60.4,0-85,2-85.2,2l-0.3,0c-9.5,0-17.3,7.8-17.3,17.3l0,0.4c0,0.2-2,17-2,66.1c0,49.1,2,65.9,2,66.1l0,0.4
				c0,9.5,7.8,17.3,17.3,17.3l0.3,0c0.2,0,24.5,2,85.2,2c60.7,0,85-2,85.2-2l0.3,0c9.5,0,17.3-7.8,17.3-17.3v-0.2l0-0.2
				c0-0.1,2-14.8,2-66c0-51.2-2-65.9-2-66l0-0.2l0-0.2c0-9.5-7.8-17.3-17.3-17.3l-0.3,0C238.5,83.4,213.9,81.4,153.6,81.4z"/>
		</g>
		<g>
			<circle fill="#162636" cx="237.5" cy="124" r="8.6"/>
		</g>
		<g>
			<circle fill="#162636" cx="237.5" cy="151.4" r="8.6"/>
		</g>
		<g>
			<path fill="#162636" d="M226.2,179.3c0,0,0.1-0.1,0.3-0.2c0.2-0.1,0.4-0.3,0.7-0.5c0.6-0.4,1.5-0.8,2.6-1.2
				c1.1-0.4,2.3-0.7,3.6-1c1.3-0.2,2.7-0.4,4.2-0.4c1.4,0,2.8,0.1,4.2,0.4c1.3,0.2,2.6,0.6,3.6,1c1.1,0.4,1.9,0.8,2.6,1.2
				c0.3,0.2,0.6,0.4,0.7,0.5c0.2,0.1,0.3,0.2,0.3,0.2s-0.1,0.1-0.3,0.2c-0.2,0.1-0.4,0.3-0.7,0.5c-0.6,0.4-1.5,0.8-2.6,1.2
				c-1.1,0.4-2.3,0.7-3.6,1c-1.3,0.2-2.7,0.4-4.2,0.4c-1.4,0-2.8-0.1-4.2-0.4c-1.3-0.2-2.6-0.6-3.6-1c-1.1-0.4-1.9-0.8-2.6-1.2
				c-0.3-0.2-0.6-0.3-0.7-0.5C226.3,179.4,226.2,179.3,226.2,179.3z"/>
		</g>
		<g>
			<path fill="#162636" d="M226.2,189.8c0,0,0.1-0.1,0.3-0.2c0.2-0.1,0.4-0.3,0.7-0.5c0.6-0.4,1.5-0.8,2.6-1.2
				c1.1-0.4,2.3-0.7,3.6-1c1.3-0.2,2.7-0.4,4.2-0.4c1.4,0,2.8,0.1,4.2,0.4c1.3,0.2,2.6,0.6,3.6,1c1.1,0.4,1.9,0.8,2.6,1.2
				c0.3,0.2,0.6,0.4,0.7,0.5c0.2,0.1,0.3,0.2,0.3,0.2s-0.1,0.1-0.3,0.2c-0.2,0.1-0.4,0.3-0.7,0.5c-0.6,0.4-1.5,0.8-2.6,1.2
				c-1.1,0.4-2.3,0.7-3.6,1c-1.3,0.2-2.7,0.4-4.2,0.4c-1.4,0-2.8-0.1-4.2-0.4c-1.3-0.2-2.6-0.6-3.6-1c-1.1-0.4-1.9-0.8-2.6-1.2
				c-0.3-0.2-0.6-0.3-0.7-0.5C226.3,189.9,226.2,189.8,226.2,189.8z"/>
		</g>
		<g>
			<path fill="#162636" d="M226.2,200.4c0,0,0.1-0.1,0.3-0.2c0.2-0.1,0.4-0.3,0.7-0.5c0.6-0.4,1.5-0.8,2.6-1.2
				c1.1-0.4,2.3-0.7,3.6-1c1.3-0.2,2.7-0.4,4.2-0.4c1.4,0,2.8,0.1,4.2,0.4c1.3,0.2,2.6,0.6,3.6,1c1.1,0.4,1.9,0.8,2.6,1.2
				c0.3,0.2,0.6,0.4,0.7,0.5c0.2,0.1,0.3,0.2,0.3,0.2s-0.1,0.1-0.3,0.2c-0.2,0.1-0.4,0.3-0.7,0.5c-0.6,0.4-1.5,0.8-2.6,1.2
				c-1.1,0.4-2.3,0.7-3.6,1c-1.3,0.2-2.7,0.4-4.2,0.4c-1.4,0-2.8-0.1-4.2-0.4c-1.3-0.2-2.6-0.6-3.6-1c-1.1-0.4-1.9-0.8-2.6-1.2
				c-0.3-0.2-0.6-0.3-0.7-0.5C226.3,200.5,226.2,200.4,226.2,200.4z"/>
		</g>
		<g>
			<path fill="#162636" d="M226.2,210.9c0,0,0.1-0.1,0.3-0.2c0.2-0.1,0.4-0.3,0.7-0.5c0.6-0.4,1.5-0.8,2.6-1.2
				c1.1-0.4,2.3-0.7,3.6-1c1.3-0.2,2.7-0.4,4.2-0.4c1.4,0,2.8,0.1,4.2,0.4c1.3,0.2,2.6,0.6,3.6,1c1.1,0.4,1.9,0.8,2.6,1.2
				c0.3,0.2,0.6,0.4,0.7,0.5c0.2,0.1,0.3,0.2,0.3,0.2s-0.1,0.1-0.3,0.2c-0.2,0.1-0.4,0.3-0.7,0.5c-0.6,0.4-1.5,0.8-2.6,1.2
				c-1.1,0.4-2.3,0.7-3.6,1c-1.3,0.2-2.7,0.4-4.2,0.4c-1.4,0-2.8-0.1-4.2-0.4c-1.3-0.2-2.6-0.6-3.6-1c-1.1-0.4-1.9-0.8-2.6-1.2
				c-0.3-0.2-0.6-0.3-0.7-0.5C226.3,211,226.2,210.9,226.2,210.9z"/>
		</g>
		<g>
			<path fill="#162636" d="M83.6,113.2c0,0,15.2-1.3,54.2-1.3s54.2,1.3,54.2,1.3c7.1,0,13,5.7,13,12.7c0,0,1.3,10.2,1.3,41.3
				s-1.3,41.3-1.3,41.3c0,7-5.8,12.7-13,12.7c0,0-15.4,1.3-54.2,1.3s-54.2-1.3-54.2-1.3c-7.1,0-13-5.7-13-12.7c0,0-1.3-8.8-1.3-41.3
				s1.3-41.3,1.3-41.3C70.6,119,76.4,113.2,83.6,113.2z"/>
		</g>
		<g>
			<g>
				<path fill="#162636" d="M137.8,108.5c44.1,0,61.8,1.5,62,1.5l0.3,0h0.3c4.8,0,8.7,3.9,8.7,8.7l0,0.4l0,0.4
					c0,0.1,1.5,12.3,1.5,47.9S209,215,209,215.1l0,0.4v0.4c0,4.8-3.9,8.7-8.7,8.7l-0.3,0l-0.3,0c-0.2,0-18.1,1.5-62,1.5
					s-61.8-1.5-62-1.5l-0.3,0h-0.3c-4.8,0-8.7-3.9-8.7-8.7l0-0.4l-0.1-0.4c0-0.1-1.4-10.8-1.4-47.8s1.4-47.7,1.4-47.8l0.1-0.4v-0.5
					c0-4.8,3.9-8.7,8.7-8.7l0.3,0l0.3,0C76,109.9,93.7,108.5,137.8,108.5 M137.8,102.1c-45.1,0-62.5,1.5-62.5,1.5
					c-8.2,0-15,6.7-15,15c0,0-1.5,10.4-1.5,48.7s1.5,48.7,1.5,48.7c0,8.2,6.7,15,15,15c0,0,17.7,1.5,62.5,1.5s62.5-1.5,62.5-1.5
					c8.2,0,15-6.7,15-15c0,0,1.5-12,1.5-48.7s-1.5-48.7-1.5-48.7c0-8.2-6.7-15-15-15C200.3,103.6,182.8,102.1,137.8,102.1
					L137.8,102.1z"/>
			</g>
		</g>
		<g>
			<polygon fill="#FFFFFF" points="161.5,167.3 137.8,180.1 114.1,192.9 114.1,167.3 114.1,141.6 137.8,154.4 			"/>
		</g>
	</g>
</g>
</svg>
