<svg xmlns="http://www.w3.org/2000/svg" viewBox="0 0 300 300"><path opacity=".25" fill="#162636" d="M255.5 107.7c-.1-12.9-10.6-23.3-23.5-23.4-2-.2-27.2-2-85.6-2h-8.9c-1.6-2.6-3.7-4.7-6.3-6.3l21.5-46.4c.6-1.3 0-2.9-1.3-3.5-1.3-.6-2.9 0-3.5 1.3l-21.5 46.4c-1.9-.6-3.9-.9-5.9-.9-3.4 0-6.5.8-9.3 2.3L64 8.3c-.8-1.2-2.5-1.5-3.7-.6-1.2.8-1.5 2.5-.6 3.7l47.2 66.8c-1.4 1.3-2.6 2.8-3.6 4.5-28.1.6-41 1.5-42.5 1.7-12.9.1-23.4 10.5-23.5 23.4-.2 2.1-2 19.3-2 66.7 0 47.4 1.8 64.6 2 66.7.1 12.9 10.6 23.4 23.5 23.4 1.1.1 9.3.7 26.4 1.2L77.6 300l20.9-33.9c12.5.3 28.3.5 47.9.5 19.6 0 35.4-.2 47.9-.5l20.9 33.9-9.6-34.2c17.1-.5 25.3-1.2 26.4-1.2 12.9-.1 23.4-10.5 23.5-23.4.3-2.1 2-17.7 2-66.7.1-49.1-1.7-64.7-2-66.8z"/><circle fill="#162636" cx="127.7" cy="85.7" r="20"/><path fill="#162636" d="M212.1 256.3l10.3 36.5-22.9-37 6.3-7.2zM95.1 256.3l-10.3 36.5 22.9-37-6.3-7.2zM128.2 90.9L66.9 4.2c-.9-1.2-.6-2.9.6-3.7 1.2-.8 2.8-.6 3.7.6l56 79.3 27.9-60.3c.6-1.3 2.2-1.9 3.5-1.3 1.3.6 1.9 2.2 1.3 3.5l-31.7 68.6z"/><path fill="#FFF" d="M239.1 254.2s-23.9 2-85.5 2-85.5-2-85.5-2c-11.3 0-20.5-9.2-20.5-20.5 0 0-2-16.4-2-66.5s2-66.5 2-66.5c0-11.3 9.2-20.5 20.5-20.5 0 0 24.2-2 85.5-2s85.5 2 85.5 2c11.3 0 20.5 9.2 20.5 20.5 0 0 2 14.2 2 66.5s-2 66.5-2 66.5c-.1 11.3-9.3 20.5-20.5 20.5z"/><path fill="#162636" d="M153.6 259.5c-58.7 0-83.6-1.9-85.6-2-12.9-.1-23.4-10.5-23.5-23.4-.2-2.1-2-19.3-2-66.7 0-47.4 1.8-64.6 2-66.7.1-13 10.6-23.5 23.5-23.6 2-.2 27.2-2 85.6-2 58.4 0 83.6 1.9 85.6 2 12.9.1 23.4 10.5 23.5 23.4.3 2.1 2 17.7 2 66.7s-1.8 64.6-2 66.7c-.1 12.9-10.6 23.3-23.5 23.4-2.1.3-27 2.2-85.6 2.2zm0-178.1c-60.4 0-85 2-85.2 2h-.3c-9.5 0-17.3 7.8-17.3 17.3v.4c0 .2-2 17-2 66.1 0 49.1 2 65.9 2 66.1v.4c0 9.5 7.8 17.3 17.3 17.3h.3c.2 0 24.5 2 85.2 2s85-2 85.2-2h.3c9.5 0 17.3-7.8 17.3-17.3v-.4c0-.1 2-14.8 2-66s-2-65.9-2-66v-.4c0-9.5-7.8-17.3-17.3-17.3h-.3c-.3-.2-24.9-2.2-85.2-2.2z"/><circle fill="#162636" cx="237.5" cy="124" r="8.6"/><circle fill="#162636" cx="237.5" cy="151.4" r="8.6"/><path fill="#162636" d="M226.2 179.3s.1-.1.3-.2c.2-.1.4-.3.7-.5.6-.4 1.5-.8 2.6-1.2 1.1-.4 2.3-.7 3.6-1 1.3-.2 2.7-.4 4.2-.4 1.4 0 2.8.1 4.2.4 1.3.2 2.6.6 3.6 1 1.1.4 1.9.8 2.6 1.2.3.2.6.4.7.5.2.1.3.2.3.2s-.1.1-.3.2c-.2.1-.4.3-.7.5-.6.4-1.5.8-2.6 1.2-1.1.4-2.3.7-3.6 1-1.3.2-2.7.4-4.2.4-1.4 0-2.8-.1-4.2-.4-1.3-.2-2.6-.6-3.6-1-1.1-.4-1.9-.8-2.6-1.2-.3-.2-.6-.3-.7-.5-.2-.1-.3-.2-.3-.2zM226.2 189.8s.1-.1.3-.2c.2-.1.4-.3.7-.5.6-.4 1.5-.8 2.6-1.2 1.1-.4 2.3-.7 3.6-1 1.3-.2 2.7-.4 4.2-.4 1.4 0 2.8.1 4.2.4 1.3.2 2.6.6 3.6 1 1.1.4 1.9.8 2.6 1.2.3.2.6.4.7.5.2.1.3.2.3.2s-.1.1-.3.2c-.2.1-.4.3-.7.5-.6.4-1.5.8-2.6 1.2-1.1.4-2.3.7-3.6 1-1.3.2-2.7.4-4.2.4-1.4 0-2.8-.1-4.2-.4-1.3-.2-2.6-.6-3.6-1-1.1-.4-1.9-.8-2.6-1.2-.3-.2-.6-.3-.7-.5-.2-.1-.3-.2-.3-.2zM226.2 200.4s.1-.1.3-.2c.2-.1.4-.3.7-.5.6-.4 1.5-.8 2.6-1.2 1.1-.4 2.3-.7 3.6-1 1.3-.2 2.7-.4 4.2-.4 1.4 0 2.8.1 4.2.4 1.3.2 2.6.6 3.6 1 1.1.4 1.9.8 2.6 1.2.3.2.6.4.7.5.2.1.3.2.3.2s-.1.1-.3.2c-.2.1-.4.3-.7.5-.6.4-1.5.8-2.6 1.2-1.1.4-2.3.7-3.6 1-1.3.2-2.7.4-4.2.4-1.4 0-2.8-.1-4.2-.4-1.3-.2-2.6-.6-3.6-1-1.1-.4-1.9-.8-2.6-1.2-.3-.2-.6-.3-.7-.5-.2-.1-.3-.2-.3-.2zM226.2 210.9s.1-.1.3-.2c.2-.1.4-.3.7-.5.6-.4 1.5-.8 2.6-1.2 1.1-.4 2.3-.7 3.6-1 1.3-.2 2.7-.4 4.2-.4 1.4 0 2.8.1 4.2.4 1.3.2 2.6.6 3.6 1 1.1.4 1.9.8 2.6 1.2.3.2.6.4.7.5.2.1.3.2.3.2s-.1.1-.3.2c-.2.1-.4.3-.7.5-.6.4-1.5.8-2.6 1.2-1.1.4-2.3.7-3.6 1-1.3.2-2.7.4-4.2.4-1.4 0-2.8-.1-4.2-.4-1.3-.2-2.6-.6-3.6-1-1.1-.4-1.9-.8-2.6-1.2-.3-.2-.6-.3-.7-.5-.2-.1-.3-.2-.3-.2zM83.6 113.2s15.2-1.3 54.2-1.3 54.2 1.3 54.2 1.3c7.1 0 13 5.7 13 12.7 0 0 1.3 10.2 1.3 41.3s-1.3 41.3-1.3 41.3c0 7-5.8 12.7-13 12.7 0 0-15.4 1.3-54.2 1.3s-54.2-1.3-54.2-1.3c-7.1 0-13-5.7-13-12.7 0 0-1.3-8.8-1.3-41.3s1.3-41.3 1.3-41.3c0-6.9 5.8-12.7 13-12.7z"/><path fill="#162636" d="M137.8 108.5c44.1 0 61.8 1.5 62 1.5h.6c4.8 0 8.7 3.9 8.7 8.7v.8c0 .1 1.5 12.3 1.5 47.9S209 215 209 215.1v.8c0 4.8-3.9 8.7-8.7 8.7h-.6c-.2 0-18.1 1.5-62 1.5s-61.8-1.5-62-1.5h-.6c-4.8 0-8.7-3.9-8.7-8.7v-.4l-.1-.4c0-.1-1.4-10.8-1.4-47.8s1.4-47.7 1.4-47.8l.1-.4v-.5c0-4.8 3.9-8.7 8.7-8.7h.6c.3 0 18-1.4 62.1-1.4m0-6.4c-45.1 0-62.5 1.5-62.5 1.5-8.2 0-15 6.7-15 15 0 0-1.5 10.4-1.5 48.7s1.5 48.7 1.5 48.7c0 8.2 6.7 15 15 15 0 0 17.7 1.5 62.5 1.5s62.5-1.5 62.5-1.5c8.2 0 15-6.7 15-15 0 0 1.5-12 1.5-48.7s-1.5-48.7-1.5-48.7c0-8.2-6.7-15-15-15 0 0-17.5-1.5-62.5-1.5z"/><g><path fill="#FFF" d="M161.5 167.3l-23.7 12.8-23.7 12.8v-51.3l23.7 12.8z"/></g></svg>